<svg xmlns="http://www.w3.org/2000/svg" id="Flat" viewBox="0 0 241 626" width="241" height="626">
  <path d="M84.68,308.47c46.65,26.42,46.65,88.78,46.65,141.31,0,79.65,3.92,128.47,81.08,128.47,6.4,0,11.58,5.75,11.58,12.85s-5.19,12.85-11.58,12.85c-104.25,0-104.25-85.48-104.25-154.16,0-79.65-3.92-128.47-81.08-128.47-6.4,0-11.58-5.75-11.58-12.85s5.19-12.85,11.58-12.85c77.17,0,81.08-48.82,81.08-128.47,0-68.68,0-154.16,104.25-154.16,6.4,0,11.58,5.75,11.58,12.85s-5.19,12.85-11.58,12.85c-77.17,0-81.08,48.82-81.08,128.47,0,52.53,0,114.9-46.65,141.31Z"/>
</svg>