<svg width="1260" height="1046" xmlns="http://www.w3.org/2000/svg" xmlns:xlink="http://www.w3.org/1999/xlink" xml:space="preserve" overflow="hidden"><defs><clipPath id="clip0"><rect x="3188" y="3458" width="1260" height="1046"/></clipPath></defs><g clip-path="url(#clip0)" transform="translate(-3188 -3458)"><rect x="3189" y="3459" width="1258" height="1044" fill="#FFFFFF"/><g><rect x="3328" y="3629" width="1069" height="734" fill="#FFFFFF"/></g><g><path d="M3327.5 4363.5 4397.5 4363.5" stroke="#D9D9D9" stroke-width="3.4375" stroke-linejoin="round" stroke-miterlimit="10" fill="none" fill-rule="evenodd"/></g><g><path d="M3351.5 4229.5 3366.61 4238.64 3382.61 4246.64 3397.61 4250.64 3413.61 4254.64 3428.61 4257.64 3444.61 4263.64 3459.61 4266.64 3474.61 4271.64 3490.61 4280.64 3505.62 4290.64 3521.62 4290.64 3536.62 4293.64 3552.62 4296.64 3567.62 4310.64 3583.62 4311.64 3598.62 4315.64 3614.62 4319.64 3629.62 4320.64 3645.62 4313.64 3660.62 4315.64 3676.62 4317.64 3691.62 4317.64 3707.62 4317.64 3722.62 4319.64 3738.62 4319.64 3753.62 4321.64 3769.62 4319.64 3784.62 4320.64 3800.62 4322.64 3815.63 4323.64 3831.63 4325.64 3846.63 4326.64 3862.63 4328.64 3877.63 4328.64 3893.63 4327.64 3908.63 4327.64 3924.63 4327.64 3939.63 4328.64 3955.63 4329.64 3970.63 4330.64 3986.63 4331.64 4001.63 4331.64 4017.63 4333.64 4032.63 4336.64 4048.63 4339.64 4063.63 4340.64 4079.63 4340.64 4094.63 4341.64 4110.63 4340.64 4125.64 4341.64 4141.64 4342.64 4156.64 4343.64 4172.64 4344.64 4187.64 4344.64 4203.64 4345.64 4218.64 4345.64 4234.64 4344.64 4249.64 4345.64 4265.64 4346.64 4280.64 4347.64 4296.64 4347.64 4311.64 4347.64 4327.64 4347.64 4342.64 4347.64 4358.64 4348.64 4373.64 4349.64 4389.5 4350.5" stroke="#00B050" stroke-width="6.875" stroke-linecap="round" stroke-linejoin="round" stroke-miterlimit="10" fill="none"/></g><g><path d="M3351.5 4080.5 3366.61 4082.63 3382.61 4088.63 3397.61 4093.63 3413.61 4105.63 3428.61 4096.63 3444.61 4094.63 3459.61 4093.63 3474.61 4089.63 3490.61 4088.63 3505.62 4088.63 3521.62 4098.63 3536.62 4103.63 3552.62 4104.63 3567.62 4110.64 3583.62 4113.64 3598.62 4114.64 3614.62 4111.64 3629.62 4111.64 3645.62 4121.64 3660.62 4127.64 3676.62 4133.64 3691.62 4134.64 3707.62 4133.64 3722.62 4136.64 3738.62 4138.64 3753.62 4153.64 3769.62 4161.64 3784.62 4159.64 3800.62 4162.64 3815.63 4163.64 3831.63 4160.64 3846.63 4158.64 3862.63 4157.64 3877.63 4163.64 3893.63 4175.64 3908.63 4180.64 3924.63 4186.64 3939.63 4185.64 3955.63 4183.64 3970.63 4184.64 3986.63 4181.64 4001.63 4180.64 4017.63 4180.64 4032.63 4179.64 4048.63 4180.64 4063.63 4178.64 4079.63 4180.64 4094.63 4179.64 4110.63 4182.64 4125.64 4186.64 4141.64 4189.64 4156.64 4190.64 4172.64 4199.64 4187.64 4201.64 4203.64 4199.64 4218.64 4197.64 4234.64 4199.64 4249.64 4200.64 4265.64 4202.64 4280.64 4204.64 4296.64 4204.64 4311.64 4205.64 4327.64 4208.64 4342.64 4207.64 4358.64 4208.64 4373.64 4207.64 4389.5 4208.5" stroke="#4472C4" stroke-width="6.875" stroke-linecap="round" stroke-linejoin="round" stroke-miterlimit="10" fill="none"/></g><g><path d="M3351.5 3963.5 3366.61 3951.63 3382.61 3938.63 3397.61 3929.63 3413.61 3913.63 3428.61 3919.63 3444.61 3915.63 3459.61 3913.63 3474.61 3911.63 3490.61 3904.63 3505.62 3894.63 3521.62 3884.63 3536.62 3876.63 3552.62 3872.63 3567.62 3852.63 3583.62 3848.63 3598.62 3842.63 3614.62 3843.63 3629.62 3841.63 3645.62 3838.63 3660.62 3829.63 3676.62 3822.63 3691.62 3821.63 3707.62 3821.63 3722.62 3817.63 3738.62 3814.63 3753.62 3799.62 3769.62 3792.62 3784.62 3792.62 3800.62 3788.62 3815.63 3785.62 3831.63 3787.62 3846.63 3787.62 3862.63 3787.62 3877.63 3781.62 3893.63 3770.62 3908.63 3764.62 3924.63 3759.62 3939.63 3759.62 3955.63 3760.62 3970.63 3758.62 3986.63 3759.62 4001.63 3760.62 4017.63 3758.62 4032.63 3757.62 4048.63 3753.62 4063.63 3754.62 4079.63 3751.62 4094.63 3751.62 4110.63 3749.62 4125.64 3745.62 4141.64 3740.62 4156.64 3738.62 4172.64 3729.62 4187.64 3727.62 4203.64 3728.62 4218.64 3730.62 4234.64 3728.62 4249.64 3726.62 4265.64 3724.62 4280.64 3721.62 4296.64 3720.62 4311.64 3720.62 4327.64 3717.62 4342.64 3718.62 4358.64 3716.62 4373.64 3716.62 4389.5 3714.5" stroke="#7F7F7F" stroke-width="6.875" stroke-linecap="round" stroke-linejoin="round" stroke-miterlimit="10" fill="none"/></g><g><text fill="#595959" font-family="Calibri,Calibri_MSFontService,sans-serif" font-weight="400" font-size="41" transform="matrix(1 0 0 1 3239.24 4375)">0%</text></g><g><text fill="#595959" font-family="Calibri,Calibri_MSFontService,sans-serif" font-weight="400" font-size="41" transform="matrix(1 0 0 1 3218.34 4293)">10%</text></g><g><text fill="#595959" font-family="Calibri,Calibri_MSFontService,sans-serif" font-weight="400" font-size="41" transform="matrix(1 0 0 1 3218.34 4211)">20%</text></g><g><text fill="#595959" font-family="Calibri,Calibri_MSFontService,sans-serif" font-weight="400" font-size="41" transform="matrix(1 0 0 1 3218.34 4130)">30%</text></g><g><text fill="#595959" font-family="Calibri,Calibri_MSFontService,sans-serif" font-weight="400" font-size="41" transform="matrix(1 0 0 1 3218.34 4048)">40%</text></g><g><text fill="#595959" font-family="Calibri,Calibri_MSFontService,sans-serif" font-weight="400" font-size="41" transform="matrix(1 0 0 1 3218.34 3967)">50%</text></g><g><text fill="#595959" font-family="Calibri,Calibri_MSFontService,sans-serif" font-weight="400" font-size="41" transform="matrix(1 0 0 1 3218.34 3885)">60%</text></g><g><text fill="#595959" font-family="Calibri,Calibri_MSFontService,sans-serif" font-weight="400" font-size="41" transform="matrix(1 0 0 1 3218.34 3804)">70%</text></g><g><text fill="#595959" font-family="Calibri,Calibri_MSFontService,sans-serif" font-weight="400" font-size="41" transform="matrix(1 0 0 1 3218.34 3722)">80%</text></g><g><text fill="#595959" font-family="Calibri,Calibri_MSFontService,sans-serif" font-weight="400" font-size="41" transform="matrix(1 0 0 1 3218.34 3641)">90%</text></g><g><text fill="#595959" font-family="Calibri,Calibri_MSFontService,sans-serif" font-weight="400" font-size="41" transform="matrix(6.12323e-17 -1 1 6.12323e-17 3349.48 4473)">1955</text></g><g><text fill="#595959" font-family="Calibri,Calibri_MSFontService,sans-serif" font-weight="400" font-size="41" transform="matrix(6.12323e-17 -1 1 6.12323e-17 3411.46 4473)">1959</text></g><g><text fill="#595959" font-family="Calibri,Calibri_MSFontService,sans-serif" font-weight="400" font-size="41" transform="matrix(6.12323e-17 -1 1 6.12323e-17 3473.44 4473)">1963</text></g><g><text fill="#595959" font-family="Calibri,Calibri_MSFontService,sans-serif" font-weight="400" font-size="41" transform="matrix(6.12323e-17 -1 1 6.12323e-17 3535.42 4473)">1967</text></g><g><text fill="#595959" font-family="Calibri,Calibri_MSFontService,sans-serif" font-weight="400" font-size="41" transform="matrix(6.12323e-17 -1 1 6.12323e-17 3597.4 4473)">1971</text></g><g><text fill="#595959" font-family="Calibri,Calibri_MSFontService,sans-serif" font-weight="400" font-size="41" transform="matrix(6.12323e-17 -1 1 6.12323e-17 3659.38 4473)">1975</text></g><g><text fill="#595959" font-family="Calibri,Calibri_MSFontService,sans-serif" font-weight="400" font-size="41" transform="matrix(6.12323e-17 -1 1 6.12323e-17 3721.37 4473)">1979</text></g><g><text fill="#595959" font-family="Calibri,Calibri_MSFontService,sans-serif" font-weight="400" font-size="41" transform="matrix(6.12323e-17 -1 1 6.12323e-17 3783.35 4473)">1983</text></g><g><text fill="#595959" font-family="Calibri,Calibri_MSFontService,sans-serif" font-weight="400" font-size="41" transform="matrix(6.12323e-17 -1 1 6.12323e-17 3845.33 4473)">1987</text></g><g><text fill="#595959" font-family="Calibri,Calibri_MSFontService,sans-serif" font-weight="400" font-size="41" transform="matrix(6.12323e-17 -1 1 6.12323e-17 3907.31 4473)">1991</text></g><g><text fill="#595959" font-family="Calibri,Calibri_MSFontService,sans-serif" font-weight="400" font-size="41" transform="matrix(6.12323e-17 -1 1 6.12323e-17 3969.29 4473)">1995</text></g><g><text fill="#595959" font-family="Calibri,Calibri_MSFontService,sans-serif" font-weight="400" font-size="41" transform="matrix(6.12323e-17 -1 1 6.12323e-17 4031.27 4473)">1999</text></g><g><text fill="#595959" font-family="Calibri,Calibri_MSFontService,sans-serif" font-weight="400" font-size="41" transform="matrix(6.12323e-17 -1 1 6.12323e-17 4093.25 4473)">2003</text></g><g><text fill="#595959" font-family="Calibri,Calibri_MSFontService,sans-serif" font-weight="400" font-size="41" transform="matrix(6.12323e-17 -1 1 6.12323e-17 4155.23 4473)">2007</text></g><g><text fill="#595959" font-family="Calibri,Calibri_MSFontService,sans-serif" font-weight="400" font-size="41" transform="matrix(6.12323e-17 -1 1 6.12323e-17 4217.21 4473)">2011</text></g><g><text fill="#595959" font-family="Calibri,Calibri_MSFontService,sans-serif" font-weight="400" font-size="41" transform="matrix(6.12323e-17 -1 1 6.12323e-17 4279.2 4473)">2015</text></g><g><text fill="#595959" font-family="Calibri,Calibri_MSFontService,sans-serif" font-weight="400" font-size="41" transform="matrix(6.12323e-17 -1 1 6.12323e-17 4341.18 4473)">2019</text></g><g><text fill="#595959" font-family="Calibri,Calibri_MSFontService,sans-serif" font-weight="400" font-size="41" transform="matrix(6.12323e-17 -1 1 6.12323e-17 4403.16 4473)">2023</text></g><g><text fill="#595959" font-family="Calibri,Calibri_MSFontService,sans-serif" font-weight="400" font-size="64" transform="matrix(1 0 0 1 3721.11 3554)">Canada</text></g><rect x="3189" y="3459" width="1258" height="1044" stroke="#898989" stroke-width="2.29167" stroke-linejoin="round" stroke-miterlimit="10" fill="none"/></g></svg>