<svg width="1258" height="1045" xmlns="http://www.w3.org/2000/svg" xmlns:xlink="http://www.w3.org/1999/xlink" xml:space="preserve" overflow="hidden"><defs><clipPath id="clip0"><rect x="4626" y="3467" width="1258" height="1045"/></clipPath></defs><g clip-path="url(#clip0)" transform="translate(-4626 -3467)"><rect x="4627" y="3468" width="1256" height="1043" fill="#FFFFFF"/><g><rect x="4766" y="3638" width="1067" height="733" fill="#FFFFFF"/></g><g><path d="M4766.5 4371.5 5832.5 4371.5" stroke="#D9D9D9" stroke-width="3.4375" stroke-linejoin="round" stroke-miterlimit="10" fill="none" fill-rule="evenodd"/></g><g><path d="M4882.5 4227.5 4897.66 4233.64 4912.66 4239.64 4928.66 4245.64 4943.66 4248.64 4959.66 4251.64 4974.66 4256.64 4990.66 4263.64 5005.66 4270.64 5021.67 4276.64 5036.67 4281.64 5052.67 4285.64 5067.67 4288.64 5082.67 4288.64 5098.67 4292.64 5113.67 4296.64 5129.67 4299.64 5144.67 4302.64 5160.67 4308.64 5175.67 4310.64 5191.67 4311.64 5206.67 4312.64 5222.67 4314.64 5237.67 4316.64 5252.67 4318.64 5268.67 4320.64 5283.67 4323.64 5299.67 4326.64 5314.67 4328.64 5330.67 4333.64 5345.68 4335.64 5361.68 4338.64 5376.68 4340.64 5391.68 4342.64 5407.68 4343.64 5422.68 4344.64 5438.68 4345.64 5453.68 4344.64 5469.68 4346.64 5484.68 4347.64 5500.68 4347.64 5515.68 4348.64 5531.68 4349.64 5546.68 4349.64 5561.68 4350.64 5577.68 4350.64 5592.68 4354.64 5608.68 4355.64 5623.68 4355.64 5639.69 4355.64 5654.69 4356.64 5670.69 4357.64 5685.69 4357.64 5701.69 4358.64 5716.69 4359.64 5731.69 4359.64 5747.69 4359.64 5762.69 4359.64M5793.69 4359.64 5809.69 4359.64 5824.5 4360.5" stroke="#00B050" stroke-width="6.875" stroke-linecap="round" stroke-linejoin="round" stroke-miterlimit="10" fill="none"/></g><g><path d="M4882.5 3923.63 4897.66 3922.63 4912.66 3920.63 4928.66 3923.63 4943.66 3925.63 4959.66 3936.63 4974.66 3933.63 4990.66 3923.63 5005.66 3919.63 5021.67 3919.5 5036.67 3924.63 5052.67 3925.63 5067.67 3933.63 5082.67 3944.63 5098.67 3948.63 5113.67 3950.63 5129.67 3952.63 5144.67 3953.63 5160.67 3957.63 5175.67 3964.63 5191.67 3971.63 5206.67 3977.63 5222.67 3980.63 5237.67 3981.63 5252.67 3983.63 5268.67 3986.63 5283.67 3989.63 5299.67 3990.63 5314.67 3991.63 5330.67 3996.63 5345.68 4004.63 5361.68 4014.63 5376.68 4025.63 5391.68 4037.63 5407.68 4046.63 5422.68 4051.63 5438.68 4056.63 5453.68 4058.63 5469.68 4062.63 5484.68 4068.63 5500.68 4073.63 5515.68 4081.63 5531.68 4087.63 5546.68 4097.63 5561.68 4099.63 5577.68 4096.63 5592.68 4102.63 5608.68 4107.63 5623.68 4111.64 5639.69 4112.64 5654.69 4112.64 5670.69 4116.64 5685.69 4113.64 5701.69 4117.64 5716.69 4120.64 5731.69 4119.64 5747.69 4120.64 5762.69 4121.64M5793.69 4120.64 5809.69 4124.64 5824.5 4128.5" stroke="#3B64AD" stroke-width="6.875" stroke-linecap="round" stroke-linejoin="round" stroke-miterlimit="10" fill="none"/></g><g><path d="M4882.5 4045.5 4897.66 4040.63 4912.66 4036.63 4928.66 4027.63 4943.66 4021.63 4959.66 4008.63 4974.66 4006.63 4990.66 4009.63 5005.66 4006.63 5021.67 4000.63 5036.67 3990.63 5052.67 3984.63 5067.67 3975.63 5082.67 3962.63 5098.67 3955.63 5113.67 3949.63 5129.67 3945.63 5144.67 3940.63 5160.67 3930.63 5175.67 3922.63 5191.67 3913.63 5206.67 3906.63 5222.67 3902.63 5237.67 3898.63 5252.67 3894.63 5268.67 3888.63 5283.67 3883.63 5299.67 3879.63 5314.67 3876.63 5330.67 3866.63 5345.68 3855.63 5361.68 3843.63 5376.68 3830.63 5391.68 3816.63 5407.68 3806.62 5422.68 3800.62 5438.68 3794.62 5453.68 3792.62 5469.68 3787.62 5484.68 3781.62 5500.68 3774.62 5515.68 3766.62 5531.68 3760.62 5546.68 3749.62 5561.68 3747.62 5577.68 3749.62 5592.68 3739.62 5608.68 3733.62 5623.68 3729.62 5639.69 3728.62 5654.69 3727.62 5670.69 3722.62 5685.69 3724.62 5701.69 3721.62 5716.69 3717.62 5731.69 3717.62 5747.69 3716.62 5762.69 3714.62M5793.69 3716.62 5809.69 3712.62 5824.5 3708.5" stroke="#7F7F7F" stroke-width="6.875" stroke-linecap="round" stroke-linejoin="round" stroke-miterlimit="10" fill="none"/></g><g><text fill="#595959" font-family="Calibri,Calibri_MSFontService,sans-serif" font-weight="400" font-size="41" transform="matrix(1 0 0 1 4677.62 4383)">0%</text></g><g><text fill="#595959" font-family="Calibri,Calibri_MSFontService,sans-serif" font-weight="400" font-size="41" transform="matrix(1 0 0 1 4656.72 4291)">10%</text></g><g><text fill="#595959" font-family="Calibri,Calibri_MSFontService,sans-serif" font-weight="400" font-size="41" transform="matrix(1 0 0 1 4656.72 4199)">20%</text></g><g><text fill="#595959" font-family="Calibri,Calibri_MSFontService,sans-serif" font-weight="400" font-size="41" transform="matrix(1 0 0 1 4656.72 4108)">30%</text></g><g><text fill="#595959" font-family="Calibri,Calibri_MSFontService,sans-serif" font-weight="400" font-size="41" transform="matrix(1 0 0 1 4656.72 4016)">40%</text></g><g><text fill="#595959" font-family="Calibri,Calibri_MSFontService,sans-serif" font-weight="400" font-size="41" transform="matrix(1 0 0 1 4656.72 3924)">50%</text></g><g><text fill="#595959" font-family="Calibri,Calibri_MSFontService,sans-serif" font-weight="400" font-size="41" transform="matrix(1 0 0 1 4656.72 3833)">60%</text></g><g><text fill="#595959" font-family="Calibri,Calibri_MSFontService,sans-serif" font-weight="400" font-size="41" transform="matrix(1 0 0 1 4656.72 3741)">70%</text></g><g><text fill="#595959" font-family="Calibri,Calibri_MSFontService,sans-serif" font-weight="400" font-size="41" transform="matrix(1 0 0 1 4656.72 3649)">80%</text></g><g><text fill="#595959" font-family="Calibri,Calibri_MSFontService,sans-serif" font-weight="400" font-size="41" transform="matrix(6.12323e-17 -1 1 6.12323e-17 4787.84 4481)">1955</text></g><g><text fill="#595959" font-family="Calibri,Calibri_MSFontService,sans-serif" font-weight="400" font-size="41" transform="matrix(6.12323e-17 -1 1 6.12323e-17 4849.65 4481)">1959</text></g><g><text fill="#595959" font-family="Calibri,Calibri_MSFontService,sans-serif" font-weight="400" font-size="41" transform="matrix(6.12323e-17 -1 1 6.12323e-17 4911.47 4481)">1963</text></g><g><text fill="#595959" font-family="Calibri,Calibri_MSFontService,sans-serif" font-weight="400" font-size="41" transform="matrix(6.12323e-17 -1 1 6.12323e-17 4973.28 4481)">1967</text></g><g><text fill="#595959" font-family="Calibri,Calibri_MSFontService,sans-serif" font-weight="400" font-size="41" transform="matrix(6.12323e-17 -1 1 6.12323e-17 5035.1 4481)">1971</text></g><g><text fill="#595959" font-family="Calibri,Calibri_MSFontService,sans-serif" font-weight="400" font-size="41" transform="matrix(6.12323e-17 -1 1 6.12323e-17 5096.92 4481)">1975</text></g><g><text fill="#595959" font-family="Calibri,Calibri_MSFontService,sans-serif" font-weight="400" font-size="41" transform="matrix(6.12323e-17 -1 1 6.12323e-17 5158.73 4481)">1979</text></g><g><text fill="#595959" font-family="Calibri,Calibri_MSFontService,sans-serif" font-weight="400" font-size="41" transform="matrix(6.12323e-17 -1 1 6.12323e-17 5220.55 4481)">1983</text></g><g><text fill="#595959" font-family="Calibri,Calibri_MSFontService,sans-serif" font-weight="400" font-size="41" transform="matrix(6.12323e-17 -1 1 6.12323e-17 5282.36 4481)">1987</text></g><g><text fill="#595959" font-family="Calibri,Calibri_MSFontService,sans-serif" font-weight="400" font-size="41" transform="matrix(6.12323e-17 -1 1 6.12323e-17 5344.18 4481)">1991</text></g><g><text fill="#595959" font-family="Calibri,Calibri_MSFontService,sans-serif" font-weight="400" font-size="41" transform="matrix(6.12323e-17 -1 1 6.12323e-17 5405.99 4481)">1995</text></g><g><text fill="#595959" font-family="Calibri,Calibri_MSFontService,sans-serif" font-weight="400" font-size="41" transform="matrix(6.12323e-17 -1 1 6.12323e-17 5467.81 4481)">1999</text></g><g><text fill="#595959" font-family="Calibri,Calibri_MSFontService,sans-serif" font-weight="400" font-size="41" transform="matrix(6.12323e-17 -1 1 6.12323e-17 5529.62 4481)">2003</text></g><g><text fill="#595959" font-family="Calibri,Calibri_MSFontService,sans-serif" font-weight="400" font-size="41" transform="matrix(6.12323e-17 -1 1 6.12323e-17 5591.44 4481)">2007</text></g><g><text fill="#595959" font-family="Calibri,Calibri_MSFontService,sans-serif" font-weight="400" font-size="41" transform="matrix(6.12323e-17 -1 1 6.12323e-17 5653.26 4481)">2011</text></g><g><text fill="#595959" font-family="Calibri,Calibri_MSFontService,sans-serif" font-weight="400" font-size="41" transform="matrix(6.12323e-17 -1 1 6.12323e-17 5715.07 4481)">2015</text></g><g><text fill="#595959" font-family="Calibri,Calibri_MSFontService,sans-serif" font-weight="400" font-size="41" transform="matrix(6.12323e-17 -1 1 6.12323e-17 5776.89 4481)">2019</text></g><g><text fill="#595959" font-family="Calibri,Calibri_MSFontService,sans-serif" font-weight="400" font-size="41" transform="matrix(6.12323e-17 -1 1 6.12323e-17 5838.7 4481)">2023</text></g><g><text fill="#595959" font-family="Calibri,Calibri_MSFontService,sans-serif" font-weight="400" font-size="64" transform="matrix(1 0 0 1 5135.82 3563)">Germany</text></g><rect x="4627" y="3468" width="1256" height="1043" stroke="#898989" stroke-width="2.29167" stroke-linejoin="round" stroke-miterlimit="10" fill="none"/></g></svg>