<svg width="1435" height="1125" xmlns="http://www.w3.org/2000/svg" xmlns:xlink="http://www.w3.org/1999/xlink" xml:space="preserve" overflow="hidden"><defs><clipPath id="clip0"><rect x="2176" y="844" width="1435" height="1125"/></clipPath></defs><g clip-path="url(#clip0)" transform="translate(-2176 -844)"><rect x="2177" y="845" width="1432" height="1122" fill="#FFFFFF"/><g><path d="M2287.5 1680.56 3122.5 1680.56M2287.5 1533.55 3122.5 1533.55M2287.5 1386.55 3122.5 1386.55M2287.5 1240.54 3122.5 1240.54M2287.5 1093.5 3122.5 1093.5" stroke="#D9D9D9" stroke-width="3.4375" stroke-linejoin="round" stroke-miterlimit="10" fill="none"/></g><g><path d="M2287.5 1827.5 3122.5 1827.5" stroke="#D9D9D9" stroke-width="3.4375" stroke-linejoin="round" stroke-miterlimit="10" fill="none" fill-rule="evenodd"/></g><g><path d="M2300 1640 2326.08 1631.05 2352.08 1610.05 2378.08 1601.05 2404.08 1593.05 2430.08 1578.05 2457.08 1572.05 2483.08 1578.05 2509.08 1593.05 2535.08 1607.05 2561.08 1613.05 2587.08 1640.05 2613.09 1634.05 2639.09 1607.05 2665.09 1569.05 2691.09 1528.05 2718.09 1481.05 2744.09 1469.05 2770.09 1452.05 2796.09 1425.05 2822.09 1402.05 2848.09 1378.05 2874.09 1384.05 2900.1 1390.05 2926.1 1408.05 2952.1 1396.05 2979.1 1384.05 3005.1 1370.04 3031.1 1357.04 3057.1 1340.04 3083.1 1326.04 3109 1324" stroke="#4F81BD" stroke-width="10.3125" stroke-linecap="round" stroke-linejoin="round" stroke-miterlimit="10" fill="none"/></g><g><path d="M2300 1116 2326.08 1131.04 2352.08 1158.04 2378.08 1184.04 2404.08 1211.04 2430.08 1232.04 2457.08 1250.04 2483.08 1258.04 2509.08 1274.04 2535.08 1283.04 2561.08 1305.04 2587.08 1317.04 2613.09 1347.04 2639.09 1350.04 2665.09 1392.05 2691.09 1397.05 2718.09 1390.05 2744.09 1406.05 2770.09 1422.05 2796.09 1437.05 2822.09 1439.05 2848.09 1440.05 2874.09 1452.05 2900.1 1444.05 2926.1 1455.05 2952.1 1464.05 2979.1 1463.05 3005.1 1465.05 3031.1 1470.05 3057.1 1464.05 3083.1 1457.05 3109 1479" stroke="#C0504D" stroke-width="10.3125" stroke-linecap="round" stroke-linejoin="round" stroke-miterlimit="10" fill="none"/></g><g><path d="M2300 1434 2326.08 1447.05 2352.08 1459.05 2378.08 1469.05 2404.08 1484.05 2430.08 1500.05 2457.08 1530.05 2483.08 1536.05 2509.08 1548.05 2535.08 1544.05 2561.08 1546.05 2587.08 1573.05 2613.09 1605.05 2639.09 1607.05 2665.09 1607.05 2691.09 1599.05 2718.09 1602.05 2744.09 1614.05 2770.09 1616.05 2796.09 1619.05 2822.09 1624.05 2848.09 1634.05 2874.09 1632.05 2900.1 1648.05 2926.1 1660.05 2952.1 1664.05 2979.1 1667.05 3005.1 1668.05 3031.1 1669.05 3057.1 1668.05 3083.1 1672.05 3109 1673" stroke="#9BBB59" stroke-width="10.3125" stroke-linecap="round" stroke-linejoin="round" stroke-miterlimit="10" fill="none"/></g><g><path d="M2300 1549 2326.08 1565.05 2352.08 1579.05 2378.08 1581.05 2404.08 1580.05 2430.08 1583.05 2457.08 1582.05 2483.08 1586.05 2509.08 1601.05 2535.08 1601.05 2561.08 1610.05 2587.08 1614.05 2613.09 1616.05 2639.09 1618.05 2665.09 1622.05 2691.09 1619.05 2718.09 1625.05 2744.09 1645.05 2770.09 1688.06 2796.09 1699.06 2822.09 1697.06 2848.09 1696.06 2874.09 1690.06 2900.1 1689.06 2926.1 1694.06 2952.1 1696.06 2979.1 1698.06 3005.1 1693.06 3031.1 1692.06 3057.1 1698.06 3083.1 1705 3109 1702.06" stroke="#8064A2" stroke-width="10.3125" stroke-linecap="round" stroke-linejoin="round" stroke-miterlimit="10" fill="none"/></g><g><path d="M2300 1436 2326.08 1446.05 2352.08 1460.05 2378.08 1480.05 2404.08 1477.05 2430.08 1490.05 2457.08 1488.05 2483.08 1495.05 2509.08 1496.05 2535.08 1496.05 2561.08 1503.05 2587.08 1522.05 2613.09 1559.05 2639.09 1556.05 2665.09 1573.05 2691.09 1572.05 2718.09 1587.05 2744.09 1585.05 2770.09 1602.05 2796.09 1614.05 2822.09 1617.05 2848.09 1629.05 2874.09 1642.05 2900.1 1665.05 2926.1 1670.05 2952.1 1672.05 2979.1 1669.05 3005.1 1674.05 3031.1 1669.05 3057.1 1682.06 3083.1 1699.06 3109 1703" stroke="#4BACC6" stroke-width="10.3125" stroke-linecap="round" stroke-linejoin="round" stroke-miterlimit="10" fill="none"/></g><g><path d="M2300 1375 2326.08 1389.05 2352.08 1405.05 2378.08 1452.05 2404.08 1463.05 2430.08 1463.05 2457.08 1479.05 2483.08 1485.05 2509.08 1510.05 2535.08 1529.05 2561.08 1544.05 2587.08 1566.05 2613.09 1583.05 2639.09 1613.05 2665.09 1616.05 2691.09 1620.05 2718.09 1616.05 2744.09 1622.05 2770.09 1692.06 2796.09 1704.06 2822.09 1705.06 2848.09 1708.06 2874.09 1714.06 2900.1 1711.06 2926.1 1720.06 2952.1 1726.06 2979.1 1732.06 3005.1 1736.06 3031.1 1736.06 3057.1 1734.06 3083.1 1734.06 3109 1738" stroke="#F79646" stroke-width="10.3125" stroke-linecap="round" stroke-linejoin="round" stroke-miterlimit="10" fill="none"/></g><g><path d="M2300 1465 2326.08 1477.05 2352.08 1493.05 2378.08 1501.05 2404.08 1520.05 2430.08 1509.05 2457.08 1517.05 2483.08 1508.05 2509.08 1534.05 2535.08 1552.05 2561.08 1571.05 2587.08 1594.05 2613.09 1605.05 2639.09 1611.05 2665.09 1621.05 2691.09 1625.05 2718.09 1632.05 2744.09 1642.05 2770.09 1676.06 2796.09 1684.06 2822.09 1683.06 2848.09 1691.06 2874.09 1705.06 2900.1 1722.06 2926.1 1731.06 2952.1 1734.06 2979.1 1735.06 3005.1 1734.06 3031.1 1727.06 3057.1 1730.06 3083.1 1735.06 3109 1762" stroke="#2C4D75" stroke-width="10.3125" stroke-linecap="round" stroke-linejoin="round" stroke-miterlimit="10" fill="none"/></g><g><text fill="#595959" font-family="Calibri,Calibri_MSFontService,sans-serif" font-weight="400" font-size="41" transform="matrix(1 0 0 1 2206.95 1839)">15</text></g><g><text fill="#595959" font-family="Calibri,Calibri_MSFontService,sans-serif" font-weight="400" font-size="41" transform="matrix(1 0 0 1 2206.95 1692)">20</text></g><g><text fill="#595959" font-family="Calibri,Calibri_MSFontService,sans-serif" font-weight="400" font-size="41" transform="matrix(1 0 0 1 2206.95 1545)">25</text></g><g><text fill="#595959" font-family="Calibri,Calibri_MSFontService,sans-serif" font-weight="400" font-size="41" transform="matrix(1 0 0 1 2206.95 1399)">30</text></g><g><text fill="#595959" font-family="Calibri,Calibri_MSFontService,sans-serif" font-weight="400" font-size="41" transform="matrix(1 0 0 1 2206.95 1252)">35</text></g><g><text fill="#595959" font-family="Calibri,Calibri_MSFontService,sans-serif" font-weight="400" font-size="41" transform="matrix(1 0 0 1 2206.95 1105)">40</text></g><g><text fill="#595959" font-family="Calibri,Calibri_MSFontService,sans-serif" font-weight="400" font-size="41" transform="matrix(6.12323e-17 -1 1 6.12323e-17 2313.9 1937)">1991</text></g><g><text fill="#595959" font-family="Calibri,Calibri_MSFontService,sans-serif" font-weight="400" font-size="41" transform="matrix(6.12323e-17 -1 1 6.12323e-17 2366.1 1937)">1993</text></g><g><text fill="#595959" font-family="Calibri,Calibri_MSFontService,sans-serif" font-weight="400" font-size="41" transform="matrix(6.12323e-17 -1 1 6.12323e-17 2418.3 1937)">1995</text></g><g><text fill="#595959" font-family="Calibri,Calibri_MSFontService,sans-serif" font-weight="400" font-size="41" transform="matrix(6.12323e-17 -1 1 6.12323e-17 2470.5 1937)">1997</text></g><g><text fill="#595959" font-family="Calibri,Calibri_MSFontService,sans-serif" font-weight="400" font-size="41" transform="matrix(6.12323e-17 -1 1 6.12323e-17 2522.7 1937)">1999</text></g><g><text fill="#595959" font-family="Calibri,Calibri_MSFontService,sans-serif" font-weight="400" font-size="41" transform="matrix(6.12323e-17 -1 1 6.12323e-17 2574.9 1937)">2001</text></g><g><text fill="#595959" font-family="Calibri,Calibri_MSFontService,sans-serif" font-weight="400" font-size="41" transform="matrix(6.12323e-17 -1 1 6.12323e-17 2627.1 1937)">2003</text></g><g><text fill="#595959" font-family="Calibri,Calibri_MSFontService,sans-serif" font-weight="400" font-size="41" transform="matrix(6.12323e-17 -1 1 6.12323e-17 2679.3 1937)">2005</text></g><g><text fill="#595959" font-family="Calibri,Calibri_MSFontService,sans-serif" font-weight="400" font-size="41" transform="matrix(6.12323e-17 -1 1 6.12323e-17 2731.5 1937)">2007</text></g><g><text fill="#595959" font-family="Calibri,Calibri_MSFontService,sans-serif" font-weight="400" font-size="41" transform="matrix(6.12323e-17 -1 1 6.12323e-17 2783.7 1937)">2009</text></g><g><text fill="#595959" font-family="Calibri,Calibri_MSFontService,sans-serif" font-weight="400" font-size="41" transform="matrix(6.12323e-17 -1 1 6.12323e-17 2835.9 1937)">2011</text></g><g><text fill="#595959" font-family="Calibri,Calibri_MSFontService,sans-serif" font-weight="400" font-size="41" transform="matrix(6.12323e-17 -1 1 6.12323e-17 2888.1 1937)">2013</text></g><g><text fill="#595959" font-family="Calibri,Calibri_MSFontService,sans-serif" font-weight="400" font-size="41" transform="matrix(6.12323e-17 -1 1 6.12323e-17 2940.3 1937)">2015</text></g><g><text fill="#595959" font-family="Calibri,Calibri_MSFontService,sans-serif" font-weight="400" font-size="41" transform="matrix(6.12323e-17 -1 1 6.12323e-17 2992.5 1937)">2017</text></g><g><text fill="#595959" font-family="Calibri,Calibri_MSFontService,sans-serif" font-weight="400" font-size="41" transform="matrix(6.12323e-17 -1 1 6.12323e-17 3044.7 1937)">2019</text></g><g><text fill="#595959" font-family="Calibri,Calibri_MSFontService,sans-serif" font-weight="400" font-size="41" transform="matrix(6.12323e-17 -1 1 6.12323e-17 3096.9 1937)">2021</text></g><g><text fill="#595959" font-family="Calibri,Calibri_MSFontService,sans-serif" font-weight="400" font-size="64" transform="matrix(1 0 0 1 2581.93 940)">Employment in industry </text></g><g><text fill="#595959" font-family="Calibri,Calibri_MSFontService,sans-serif" font-weight="400" font-size="64" transform="matrix(1 0 0 1 2575.77 1018)">(% of total employment)</text></g><g><path d="M3382 1292 3470 1292" stroke="#4F81BD" stroke-width="10.3125" stroke-linecap="round" stroke-linejoin="round" stroke-miterlimit="10" fill="none" fill-rule="evenodd"/></g><g><text fill="#595959" font-family="Calibri,Calibri_MSFontService,sans-serif" font-weight="400" font-size="41" transform="matrix(1 0 0 1 3479.29 1303)">China</text></g><g><path d="M3382 1427 3470 1427" stroke="#C0504D" stroke-width="10.3125" stroke-linecap="round" stroke-linejoin="round" stroke-miterlimit="10" fill="none" fill-rule="evenodd"/></g><g><text fill="#595959" font-family="Calibri,Calibri_MSFontService,sans-serif" font-weight="400" font-size="41" transform="matrix(1 0 0 1 3479.29 1439)">Germa</text></g><g><text fill="#595959" font-family="Calibri,Calibri_MSFontService,sans-serif" font-weight="400" font-size="41" transform="matrix(1 0 0 1 3479.29 1489)">ny</text></g><g><path d="M3382 1562 3470 1562" stroke="#9BBB59" stroke-width="10.3125" stroke-linecap="round" stroke-linejoin="round" stroke-miterlimit="10" fill="none" fill-rule="evenodd"/></g><g><text fill="#595959" font-family="Calibri,Calibri_MSFontService,sans-serif" font-weight="400" font-size="41" transform="matrix(1 0 0 1 3479.29 1574)">Switzer</text></g><g><text fill="#595959" font-family="Calibri,Calibri_MSFontService,sans-serif" font-weight="400" font-size="41" transform="matrix(1 0 0 1 3479.29 1624)">land</text></g><g><path d="M3382 1698 3470 1698" stroke="#8064A2" stroke-width="10.3125" stroke-linecap="round" stroke-linejoin="round" stroke-miterlimit="10" fill="none" fill-rule="evenodd"/></g><g><text fill="#595959" font-family="Calibri,Calibri_MSFontService,sans-serif" font-weight="400" font-size="41" transform="matrix(1 0 0 1 3479.29 1709)">United</text></g><g><text fill="#595959" font-family="Calibri,Calibri_MSFontService,sans-serif" font-weight="400" font-size="41" transform="matrix(1 0 0 1 3479.29 1760)">States</text></g><rect x="2177.5" y="845.5" width="1432" height="1122" stroke="#D9D9D9" stroke-width="3.4375" stroke-linejoin="round" stroke-miterlimit="10" fill="none"/></g></svg>