<svg width="1260" height="1047" xmlns="http://www.w3.org/2000/svg" xmlns:xlink="http://www.w3.org/1999/xlink" xml:space="preserve" overflow="hidden"><defs><clipPath id="clip0"><rect x="4653" y="5461" width="1260" height="1047"/></clipPath></defs><g clip-path="url(#clip0)" transform="translate(-4653 -5461)"><rect x="4654" y="5462" width="1258" height="1045" fill="#FFFFFF"/><g><rect x="4794" y="5632" width="1067" height="736" fill="#FFFFFF"/></g><g><path d="M4793.5 6367.5 5861.5 6367.5" stroke="#D9D9D9" stroke-width="3.4375" stroke-linejoin="round" stroke-miterlimit="10" fill="none" fill-rule="evenodd"/></g><g><path d="M5466.5 6313.5 5482.68 6317.71 5497.68 6318.71 5513.68 6319.71 5528.68 6321.71 5543.68 6322.71 5559.68 6326.71 5574.68 6328.71 5590.68 6328.71 5605.68 6330.71 5621.68 6333.71 5636.69 6333.71 5652.69 6333.71 5667.69 6333.71 5683.69 6333.71 5698.69 6334.71 5714.69 6334.71 5729.69 6333.71 5745.69 6331.71 5760.69 6332.71 5776.69 6333.71 5791.69 6331.71 5807.69 6331.71 5822.69 6330.71 5838.69 6332.71 5853.5 6334.5" stroke="#00B050" stroke-width="6.875" stroke-linecap="round" stroke-linejoin="round" stroke-miterlimit="10" fill="none"/></g><g><path d="M5466.5 6064.5 5482.68 6067.7 5497.68 6072.7 5513.68 6075.7 5528.68 6075.7 5543.68 6075.7 5559.68 6085.7 5574.68 6082.7 5590.68 6087.7 5605.68 6086.7 5621.68 6093.7 5636.69 6098.7 5652.69 6104.7 5667.69 6107.7 5683.69 6114.7 5698.69 6119.7 5714.69 6120.7 5729.69 6123.7 5745.69 6127.7 5760.69 6128.7 5776.69 6127.7 5791.69 6130.5 5807.69 6125.7 5822.69 6122.7 5838.69 6120.7 5853.5 6122.7" stroke="#3B64AD" stroke-width="6.875" stroke-linecap="round" stroke-linejoin="round" stroke-miterlimit="10" fill="none"/></g><g><path d="M5466.5 5805.5 5482.68 5798.69 5497.68 5792.69 5513.68 5788.69 5528.68 5786.69 5543.68 5785.69 5559.68 5771.69 5574.68 5772.69 5590.68 5767.69 5605.68 5766.69 5621.68 5756.69 5636.69 5751.69 5652.69 5746.69 5667.69 5742.69 5683.69 5735.69 5698.69 5730.69 5714.69 5729.69 5729.69 5727.69 5745.69 5724.69 5760.69 5722.69 5776.69 5722.69 5791.69 5722.5 5807.69 5727.69 5822.69 5730.69 5838.69 5730.69 5853.5 5726.69" stroke="#7F7F7F" stroke-width="6.875" stroke-linecap="round" stroke-linejoin="round" stroke-miterlimit="10" fill="none"/></g><g><text fill="#595959" font-family="Calibri,Calibri_MSFontService,sans-serif" font-weight="400" font-size="41" transform="matrix(1 0 0 1 4704.86 6379)">0%</text></g><g><text fill="#595959" font-family="Calibri,Calibri_MSFontService,sans-serif" font-weight="400" font-size="41" transform="matrix(1 0 0 1 4683.96 6288)">10%</text></g><g><text fill="#595959" font-family="Calibri,Calibri_MSFontService,sans-serif" font-weight="400" font-size="41" transform="matrix(1 0 0 1 4683.96 6196)">20%</text></g><g><text fill="#595959" font-family="Calibri,Calibri_MSFontService,sans-serif" font-weight="400" font-size="41" transform="matrix(1 0 0 1 4683.96 6104)">30%</text></g><g><text fill="#595959" font-family="Calibri,Calibri_MSFontService,sans-serif" font-weight="400" font-size="41" transform="matrix(1 0 0 1 4683.96 6012)">40%</text></g><g><text fill="#595959" font-family="Calibri,Calibri_MSFontService,sans-serif" font-weight="400" font-size="41" transform="matrix(1 0 0 1 4683.96 5920)">50%</text></g><g><text fill="#595959" font-family="Calibri,Calibri_MSFontService,sans-serif" font-weight="400" font-size="41" transform="matrix(1 0 0 1 4683.96 5828)">60%</text></g><g><text fill="#595959" font-family="Calibri,Calibri_MSFontService,sans-serif" font-weight="400" font-size="41" transform="matrix(1 0 0 1 4683.96 5736)">70%</text></g><g><text fill="#595959" font-family="Calibri,Calibri_MSFontService,sans-serif" font-weight="400" font-size="41" transform="matrix(1 0 0 1 4683.96 5644)">80%</text></g><g><text fill="#595959" font-family="Calibri,Calibri_MSFontService,sans-serif" font-weight="400" font-size="41" transform="matrix(6.12323e-17 -1 1 6.12323e-17 4815.08 6478)">1955</text></g><g><text fill="#595959" font-family="Calibri,Calibri_MSFontService,sans-serif" font-weight="400" font-size="41" transform="matrix(6.12323e-17 -1 1 6.12323e-17 4876.99 6478)">1959</text></g><g><text fill="#595959" font-family="Calibri,Calibri_MSFontService,sans-serif" font-weight="400" font-size="41" transform="matrix(6.12323e-17 -1 1 6.12323e-17 4938.9 6478)">1963</text></g><g><text fill="#595959" font-family="Calibri,Calibri_MSFontService,sans-serif" font-weight="400" font-size="41" transform="matrix(6.12323e-17 -1 1 6.12323e-17 5000.8 6478)">1967</text></g><g><text fill="#595959" font-family="Calibri,Calibri_MSFontService,sans-serif" font-weight="400" font-size="41" transform="matrix(6.12323e-17 -1 1 6.12323e-17 5062.71 6478)">1971</text></g><g><text fill="#595959" font-family="Calibri,Calibri_MSFontService,sans-serif" font-weight="400" font-size="41" transform="matrix(6.12323e-17 -1 1 6.12323e-17 5124.62 6478)">1975</text></g><g><text fill="#595959" font-family="Calibri,Calibri_MSFontService,sans-serif" font-weight="400" font-size="41" transform="matrix(6.12323e-17 -1 1 6.12323e-17 5186.52 6478)">1979</text></g><g><text fill="#595959" font-family="Calibri,Calibri_MSFontService,sans-serif" font-weight="400" font-size="41" transform="matrix(6.12323e-17 -1 1 6.12323e-17 5248.43 6478)">1983</text></g><g><text fill="#595959" font-family="Calibri,Calibri_MSFontService,sans-serif" font-weight="400" font-size="41" transform="matrix(6.12323e-17 -1 1 6.12323e-17 5310.34 6478)">1987</text></g><g><text fill="#595959" font-family="Calibri,Calibri_MSFontService,sans-serif" font-weight="400" font-size="41" transform="matrix(6.12323e-17 -1 1 6.12323e-17 5372.24 6478)">1991</text></g><g><text fill="#595959" font-family="Calibri,Calibri_MSFontService,sans-serif" font-weight="400" font-size="41" transform="matrix(6.12323e-17 -1 1 6.12323e-17 5434.15 6478)">1995</text></g><g><text fill="#595959" font-family="Calibri,Calibri_MSFontService,sans-serif" font-weight="400" font-size="41" transform="matrix(6.12323e-17 -1 1 6.12323e-17 5496.06 6478)">1999</text></g><g><text fill="#595959" font-family="Calibri,Calibri_MSFontService,sans-serif" font-weight="400" font-size="41" transform="matrix(6.12323e-17 -1 1 6.12323e-17 5557.96 6478)">2003</text></g><g><text fill="#595959" font-family="Calibri,Calibri_MSFontService,sans-serif" font-weight="400" font-size="41" transform="matrix(6.12323e-17 -1 1 6.12323e-17 5619.87 6478)">2007</text></g><g><text fill="#595959" font-family="Calibri,Calibri_MSFontService,sans-serif" font-weight="400" font-size="41" transform="matrix(6.12323e-17 -1 1 6.12323e-17 5681.78 6478)">2011</text></g><g><text fill="#595959" font-family="Calibri,Calibri_MSFontService,sans-serif" font-weight="400" font-size="41" transform="matrix(6.12323e-17 -1 1 6.12323e-17 5743.68 6478)">2015</text></g><g><text fill="#595959" font-family="Calibri,Calibri_MSFontService,sans-serif" font-weight="400" font-size="41" transform="matrix(6.12323e-17 -1 1 6.12323e-17 5805.59 6478)">2019</text></g><g><text fill="#595959" font-family="Calibri,Calibri_MSFontService,sans-serif" font-weight="400" font-size="41" transform="matrix(6.12323e-17 -1 1 6.12323e-17 5867.5 6478)">2023</text></g><g><text fill="#595959" font-family="Calibri,Calibri_MSFontService,sans-serif" font-weight="400" font-size="64" transform="matrix(1 0 0 1 5227.31 5558)">Italy</text></g><rect x="4654" y="5462" width="1258" height="1045" stroke="#898989" stroke-width="2.29167" stroke-linejoin="round" stroke-miterlimit="10" fill="none"/></g></svg>