<svg width="5307" height="2647" xmlns="http://www.w3.org/2000/svg" xmlns:xlink="http://www.w3.org/1999/xlink" xml:space="preserve" overflow="hidden"><defs><clipPath id="clip0"><rect x="3438" y="1861" width="5307" height="2647"/></clipPath></defs><g clip-path="url(#clip0)" transform="translate(-3438 -1861)"><rect x="3438" y="1861" width="5307" height="2647" fill="#FFFFFF"/><g><path d="M3690.5 3858.63 8642.5 3858.63M3690.5 3479.61 8642.5 3479.61M3690.5 3100.6 8642.5 3100.6M3690.5 2722.59 8642.5 2722.59M3690.5 2343.58 8642.5 2343.58M3690.5 1964.5 8642.5 1964.5" stroke="#D9D9D9" stroke-width="3.4375" stroke-linejoin="round" stroke-miterlimit="10" fill="none"/></g><g><path d="M4043.63 1964.5 4045.63 1964.5 4045.63 4237.5 4043.63 4237.5ZM4048.63 1964.5 4050.63 1964.5 4050.63 4237.5 4048.63 4237.5ZM4053.63 1964.5 4055.63 1964.5 4055.63 4237.5 4053.63 4237.5ZM4058.63 1964.5 4060.63 1964.5 4060.63 4237.5 4058.63 4237.5ZM4063.63 1964.5 4065.63 1964.5 4065.63 4237.5 4063.63 4237.5ZM4067.63 1964.5 4069.63 1964.5 4069.63 4237.5 4067.63 4237.5ZM4072.63 1964.5 4074.63 1964.5 4074.63 4237.5 4072.63 4237.5ZM4077.63 1964.5 4079.63 1964.5 4079.63 4237.5 4077.63 4237.5ZM4082.63 1964.5 4084.63 1964.5 4084.63 4237.5 4082.63 4237.5ZM4260.64 1964.5 4262.64 1964.5 4262.64 4237.5 4260.64 4237.5ZM4265.64 1964.5 4267.64 1964.5 4267.64 4237.5 4265.64 4237.5ZM4270.64 1964.5 4272.64 1964.5 4272.64 4237.5 4270.64 4237.5ZM4275.64 1964.5 4276.64 1964.5 4276.64 4237.5 4275.64 4237.5ZM4279.64 1964.5 4281.64 1964.5 4281.64 4237.5 4279.64 4237.5ZM4284.64 1964.5 4286.64 1964.5 4286.64 4237.5 4284.64 4237.5ZM4289.64 1964.5 4291.64 1964.5 4291.64 4237.5 4289.64 4237.5ZM4294.64 1964.5 4296.64 1964.5 4296.64 4237.5 4294.64 4237.5ZM4299.64 1964.5 4301.64 1964.5 4301.64 4237.5 4299.64 4237.5ZM4303.64 1964.5 4305.64 1964.5 4305.64 4237.5 4303.64 4237.5ZM4308.64 1964.5 4310.64 1964.5 4310.64 4237.5 4308.64 4237.5ZM4313.64 1964.5 4315.64 1964.5 4315.64 4237.5 4313.64 4237.5ZM4530.65 1964.5 4532.65 1964.5 4532.65 4237.5 4530.65 4237.5ZM4535.65 1964.5 4537.65 1964.5 4537.65 4237.5 4535.65 4237.5ZM4539.65 1964.5 4541.65 1964.5 4541.65 4237.5 4539.65 4237.5ZM4544.65 1964.5 4546.65 1964.5 4546.65 4237.5 4544.65 4237.5ZM4549.65 1964.5 4551.65 1964.5 4551.65 4237.5 4549.65 4237.5ZM4554.65 1964.5 4556.65 1964.5 4556.65 4237.5 4554.65 4237.5ZM4559.65 1964.5 4561.65 1964.5 4561.65 4237.5 4559.65 4237.5ZM4564.65 1964.5 4566.65 1964.5 4566.65 4237.5 4564.65 4237.5ZM4568.65 1964.5 4570.65 1964.5 4570.65 4237.5 4568.65 4237.5ZM4573.65 1964.5 4575.65 1964.5 4575.65 4237.5 4573.65 4237.5ZM4578.65 1964.5 4580.65 1964.5 4580.65 4237.5 4578.65 4237.5ZM4766.66 1964.5 4768.66 1964.5 4768.66 4237.5 4766.66 4237.5ZM4771.66 1964.5 4773.66 1964.5 4773.66 4237.5 4771.66 4237.5ZM4776.66 1964.5 4777.66 1964.5 4777.66 4237.5 4776.66 4237.5ZM4780.66 1964.5 4782.66 1964.5 4782.66 4237.5 4780.66 4237.5ZM4785.66 1964.5 4787.66 1964.5 4787.66 4237.5 4785.66 4237.5ZM4790.66 1964.5 4792.66 1964.5 4792.66 4237.5 4790.66 4237.5ZM4795.66 1964.5 4797.66 1964.5 4797.66 4237.5 4795.66 4237.5ZM4800.66 1964.5 4802.66 1964.5 4802.66 4237.5 4800.66 4237.5ZM4804.66 1964.5 4806.66 1964.5 4806.66 4237.5 4804.66 4237.5ZM4920.66 1964.5 4922.66 1964.5 4922.66 4237.5 4920.66 4237.5ZM4925.66 1964.5 4927.66 1964.5 4927.66 4237.5 4925.66 4237.5ZM4930.66 1964.5 4932.66 1964.5 4932.66 4237.5 4930.66 4237.5ZM4934.66 1964.5 4936.66 1964.5 4936.66 4237.5 4934.66 4237.5ZM4939.66 1964.5 4941.66 1964.5 4941.66 4237.5 4939.66 4237.5ZM4944.66 1964.5 4946.66 1964.5 4946.66 4237.5 4944.66 4237.5ZM4949.66 1964.5 4951.66 1964.5 4951.66 4237.5 4949.66 4237.5ZM4954.66 1964.5 4956.66 1964.5 4956.66 4237.5 4954.66 4237.5ZM4959.66 1964.5 4960.66 1964.5 4960.66 4237.5 4959.66 4237.5ZM4963.66 1964.5 4965.66 1964.5 4965.66 4237.5 4963.66 4237.5ZM4968.66 1964.5 4970.66 1964.5 4970.66 4237.5 4968.66 4237.5ZM5479.68 1964.5 5481.68 1964.5 5481.68 4237.5 5479.68 4237.5ZM5484.68 1964.5 5486.68 1964.5 5486.68 4237.5 5484.68 4237.5ZM5488.68 1964.5 5490.68 1964.5 5490.68 4237.5 5488.68 4237.5ZM5493.68 1964.5 5495.68 1964.5 5495.68 4237.5 5493.68 4237.5ZM5498.68 1964.5 5500.68 1964.5 5500.68 4237.5 5498.68 4237.5ZM5503.68 1964.5 5505.68 1964.5 5505.68 4237.5 5503.68 4237.5ZM5508.68 1964.5 5510.68 1964.5 5510.68 4237.5 5508.68 4237.5ZM5513.68 1964.5 5514.68 1964.5 5514.68 4237.5 5513.68 4237.5ZM5517.68 1964.5 5519.68 1964.5 5519.68 4237.5 5517.68 4237.5ZM5522.68 1964.5 5524.68 1964.5 5524.68 4237.5 5522.68 4237.5ZM5527.68 1964.5 5529.68 1964.5 5529.68 4237.5 5527.68 4237.5ZM5532.68 1964.5 5534.68 1964.5 5534.68 4237.5 5532.68 4237.5ZM5705.69 1964.5 5707.69 1964.5 5707.69 4237.5 5705.69 4237.5ZM5710.69 1964.5 5712.69 1964.5 5712.69 4237.5 5710.69 4237.5ZM5715.69 1964.5 5717.69 1964.5 5717.69 4237.5 5715.69 4237.5ZM5720.69 1964.5 5722.69 1964.5 5722.69 4237.5 5720.69 4237.5ZM5724.69 1964.5 5726.69 1964.5 5726.69 4237.5 5724.69 4237.5ZM5729.69 1964.5 5731.69 1964.5 5731.69 4237.5 5729.69 4237.5ZM5734.69 1964.5 5736.69 1964.5 5736.69 4237.5 5734.69 4237.5ZM5739.69 1964.5 5741.69 1964.5 5741.69 4237.5 5739.69 4237.5ZM5744.69 1964.5 5746.69 1964.5 5746.69 4237.5 5744.69 4237.5ZM5749.69 1964.5 5750.69 1964.5 5750.69 4237.5 5749.69 4237.5ZM5753.69 1964.5 5755.69 1964.5 5755.69 4237.5 5753.69 4237.5ZM5758.69 1964.5 5760.69 1964.5 5760.69 4237.5 5758.69 4237.5ZM5763.69 1964.5 5765.69 1964.5 5765.69 4237.5 5763.69 4237.5ZM5768.69 1964.5 5770.69 1964.5 5770.69 4237.5 5768.69 4237.5ZM5773.69 1964.5 5775.69 1964.5 5775.69 4237.5 5773.69 4237.5ZM5777.69 1964.5 5779.69 1964.5 5779.69 4237.5 5777.69 4237.5ZM5782.69 1964.5 5784.69 1964.5 5784.69 4237.5 5782.69 4237.5ZM6062.7 1964.5 6064.7 1964.5 6064.7 4237.5 6062.7 4237.5ZM6066.7 1964.5 6068.7 1964.5 6068.7 4237.5 6066.7 4237.5ZM6071.7 1964.5 6073.7 1964.5 6073.7 4237.5 6071.7 4237.5ZM6076.7 1964.5 6078.7 1964.5 6078.7 4237.5 6076.7 4237.5ZM6081.7 1964.5 6083.7 1964.5 6083.7 4237.5 6081.7 4237.5ZM6086.7 1964.5 6088.7 1964.5 6088.7 4237.5 6086.7 4237.5ZM6091.7 1964.5 6092.7 1964.5 6092.7 4237.5 6091.7 4237.5ZM6148.7 1964.5 6150.7 1964.5 6150.7 4237.5 6148.7 4237.5ZM6153.7 1964.5 6155.7 1964.5 6155.7 4237.5 6153.7 4237.5ZM6158.7 1964.5 6160.7 1964.5 6160.7 4237.5 6158.7 4237.5ZM6163.7 1964.5 6165.7 1964.5 6165.7 4237.5 6163.7 4237.5ZM6168.7 1964.5 6170.7 1964.5 6170.7 4237.5 6168.7 4237.5ZM6172.7 1964.5 6174.7 1964.5 6174.7 4237.5 6172.7 4237.5ZM6177.7 1964.5 6179.7 1964.5 6179.7 4237.5 6177.7 4237.5ZM6182.7 1964.5 6184.7 1964.5 6184.7 4237.5 6182.7 4237.5ZM6187.7 1964.5 6189.7 1964.5 6189.7 4237.5 6187.7 4237.5ZM6192.7 1964.5 6194.7 1964.5 6194.7 4237.5 6192.7 4237.5ZM6197.7 1964.5 6198.7 1964.5 6198.7 4237.5 6197.7 4237.5ZM6201.7 1964.5 6203.7 1964.5 6203.7 4237.5 6201.7 4237.5ZM6206.7 1964.5 6208.7 1964.5 6208.7 4237.5 6206.7 4237.5ZM6211.7 1964.5 6213.7 1964.5 6213.7 4237.5 6211.7 4237.5ZM6216.7 1964.5 6218.7 1964.5 6218.7 4237.5 6216.7 4237.5ZM6221.7 1964.5 6223.7 1964.5 6223.7 4237.5 6221.7 4237.5ZM6225.7 1964.5 6227.7 1964.5 6227.7 4237.5 6225.7 4237.5ZM6669.72 1964.5 6670.72 1964.5 6670.72 4237.5 6669.72 4237.5ZM6673.72 1964.5 6675.72 1964.5 6675.72 4237.5 6673.72 4237.5ZM6678.72 1964.5 6680.72 1964.5 6680.72 4237.5 6678.72 4237.5ZM6683.72 1964.5 6685.72 1964.5 6685.72 4237.5 6683.72 4237.5ZM6688.72 1964.5 6690.72 1964.5 6690.72 4237.5 6688.72 4237.5ZM6693.72 1964.5 6695.72 1964.5 6695.72 4237.5 6693.72 4237.5ZM6697.72 1964.5 6699.72 1964.5 6699.72 4237.5 6697.72 4237.5ZM6702.72 1964.5 6704.72 1964.5 6704.72 4237.5 6702.72 4237.5ZM6707.72 1964.5 6709.72 1964.5 6709.72 4237.5 6707.72 4237.5ZM7285.74 1964.5 7287.74 1964.5 7287.74 4237.5 7285.74 4237.5ZM7290.74 1964.5 7292.74 1964.5 7292.74 4237.5 7290.74 4237.5ZM7295.74 1964.5 7297.74 1964.5 7297.74 4237.5 7295.74 4237.5ZM7300.74 1964.5 7302.74 1964.5 7302.74 4237.5 7300.74 4237.5ZM7304.74 1964.5 7306.74 1964.5 7306.74 4237.5 7304.74 4237.5ZM7309.74 1964.5 7311.74 1964.5 7311.74 4237.5 7309.74 4237.5ZM7314.74 1964.5 7316.74 1964.5 7316.74 4237.5 7314.74 4237.5ZM7319.74 1964.5 7321.74 1964.5 7321.74 4237.5 7319.74 4237.5ZM7324.74 1964.5 7326.74 1964.5 7326.74 4237.5 7324.74 4237.5ZM7675.75 1964.5 7677.75 1964.5 7677.75 4237.5 7675.75 4237.5ZM7680.75 1964.5 7682.75 1964.5 7682.75 4237.5 7680.75 4237.5ZM7685.75 1964.5 7687.75 1964.5 7687.75 4237.5 7685.75 4237.5ZM7690.75 1964.5 7692.75 1964.5 7692.75 4237.5 7690.75 4237.5ZM7695.75 1964.5 7696.75 1964.5 7696.75 4237.5 7695.75 4237.5ZM7699.75 1964.5 7701.75 1964.5 7701.75 4237.5 7699.75 4237.5ZM7704.75 1964.5 7706.75 1964.5 7706.75 4237.5 7704.75 4237.5ZM7709.75 1964.5 7711.75 1964.5 7711.75 4237.5 7709.75 4237.5ZM7714.75 1964.5 7716.75 1964.5 7716.75 4237.5 7714.75 4237.5ZM7719.75 1964.5 7721.75 1964.5 7721.75 4237.5 7719.75 4237.5ZM7723.75 1964.5 7725.75 1964.5 7725.75 4237.5 7723.75 4237.5ZM7728.75 1964.5 7730.75 1964.5 7730.75 4237.5 7728.75 4237.5ZM7733.75 1964.5 7735.75 1964.5 7735.75 4237.5 7733.75 4237.5ZM7738.75 1964.5 7740.75 1964.5 7740.75 4237.5 7738.75 4237.5ZM7743.75 1964.5 7745.75 1964.5 7745.75 4237.5 7743.75 4237.5ZM7748.75 1964.5 7749.75 1964.5 7749.75 4237.5 7748.75 4237.5ZM7752.75 1964.5 7754.75 1964.5 7754.75 4237.5 7752.75 4237.5ZM7757.75 1964.5 7759.75 1964.5 7759.75 4237.5 7757.75 4237.5ZM7762.75 1964.5 7764.75 1964.5 7764.75 4237.5 7762.75 4237.5ZM8379.78 1964.5 8381.78 1964.5 8381.78 4237.5 8379.78 4237.5ZM8383.78 1964.5 8385.78 1964.5 8385.78 4237.5 8383.78 4237.5ZM8388.78 1964.5 8390.78 1964.5 8390.78 4237.5 8388.78 4237.5Z" stroke="#FFC000" stroke-width="4.58333" stroke-linejoin="round" stroke-miterlimit="10" stroke-opacity="0.501961" fill="none"/></g><g><path d="M3690.5 4237.5 8642.5 4237.5" stroke="#D9D9D9" stroke-width="3.4375" stroke-linejoin="round" stroke-miterlimit="10" fill="none" fill-rule="evenodd"/></g><g><path d="M4507 2692.09 4512.15 2671.09 4517.15 2667.09 4522.15 2658.09 4527.15 2657.09 4531.15 2655.09 4536.15 2670.09 4541.15 2694.09 4546.15 2726.09 4551.15 2774.09 4555.15 2802.09 4560.15 2828.09 4565.15 2853.09 4570.15 2874.09 4575.15 2899.1 4579.15 2917.1 4584.15 2929.1 4589.15 2950.1 4594.15 2955.1 4599.15 2949.1 4604.15 2942.1 4608.15 2928.1 4613.15 2918.1 4618.15 2905.1 4623.15 2885.09 4628.15 2863.09 4632.15 2841.09 4637.15 2818.09 4642.15 2801.09 4647.15 2795.09 4652.15 2783.09 4657.15 2785.09 4661.15 2772.09 4666.15 2758.09 4671.15 2749.09 4676.15 2745.09 4681.15 2743.09 4685.15 2755.09 4690.15 2739.09 4695.15 2743.09 4700.15 2754.09 4705.15 2823.09 4710.15 2743.09 4714.15 2748.09 4719.15 2734.09 4724.16 2738.09 4729.16 2730.09 4734.16 2728.09 4738.16 2723.09 4743.16 2723.09 4748.16 2728.09 4753.16 2735.09 4758.16 2746.09 4763.16 2750.09 4767.16 2747.09 4772.16 2777.09 4777.16 2798.09 4782.16 2823.09 4787.16 2849.09 4791.16 2887.09 4796.16 2929.1 4801.16 2974.1 4806.16 3005.1 4811.16 3023.1 4816.16 3024.1 4820.16 3016.1 4825.16 3002.1 4830.16 2976.1 4835.16 3006.1 4840.16 2944.1 4844.16 2935.1 4849.16 2912.1 4854.16 2890.09 4859.16 2863.09 4864.16 2839.09 4869.16 2819.09 4873.16 2807.09 4878.16 2794.09 4883.16 2873.09 4888.16 2864.09 4893.16 2882.09 4897.16 2855.09 4902.16 2803.09 4907.16 2782.09 4912.16 2767.09 4917.16 2778.09 4921.16 2788.09 4926.16 2803.09 4931.16 2823.09 4936.16 2833.09 4941.16 2843.09 4946.16 2849.09 4950.16 2868.09 4955.16 2890.09 4960.16 2922.1 4965.16 2938.1M5432.18 2248.07 5437.18 2238.07 5442.18 2239.07 5447.18 2232.07 5451.18 2222.07 5456.18 2222.07 5461.18 2198.07 5466.18 2226.07 5471.18 2227.07 5475.18 2255.07 5480.18 2252.07 5485.18 2263.07 5490.18 2275.07 5495.18 2275.07 5500.18 2304.08 5504.18 2338.08 5509.18 2357.08 5514.18 2367.08 5519.18 2385.08 5524.18 2402.08 5528.18 2500.08 5533.18 2528.08 5538.18 2474.08 5543.18 2480.08 5548.18 2492.08 5553.18 2504.08 5557.18 2505.08 5562.18 2490.08 5567.18 2507.08 5572.18 2509.08 5577.18 2511.08 5581.18 2504.08 5586.18 2509.08 5591.18 2501.08 5596.18 2495.08 5601.18 2479.08 5605.18 2465.08 5610.18 2448.08 5615.18 2437.08 5620.18 2419.08 5625.18 2412.08 5630.18 2428.08 5634.19 2393.08 5639.19 2386.08 5644.19 2364.08 5649.19 2343.08 5654.19 2314.08 5658.19 2291.08 5663.19 2266.07 5668.19 2250.07 5673.19 2243.07 5678.19 2237.07 5683.19 2229.07 5687.19 2230.07 5692.19 2224.07 5697.19 2228.07 5702.19 2211.07 5707.19 2197.07 5711.19 2188 5716.19 2194.07 5721.19 2206.07 5726.19 2211.07 5731.19 2211.07 5736.19 2213.07 5740.19 2213.07 5745.19 2219.07M6126.2 2227.07 6131.2 2221.07 6135.2 2209.07 6140.2 2198.07 6145.2 2194.07 6150.2 2195.07 6155.2 2202.07 6159.2 2209.07 6164.2 2236.07 6169.2 2266.07 6174.2 2301.08 6179.2 2335.08 6184.2 2347.08 6188.2 2371.08 6193.2 2404.08 6198.2 2422.08 6203.2 2451.08 6208.2 2480.08 6212.2 2503.08 6217.2 2519.08 6222.2 2561.08 6227.2 2586.08 6232.2 2592.08 6237.2 2589.08 6241.21 2589.08 6246.21 2588.08 6251.21 2572.08 6256.21 2555.08 6261.21 2540.08 6265.21 2522.08 6270.21 2511.08 6275.21 2485.08 6280.21 2463.08 6285.21 2442.08 6289.21 2429.08 6294.21 2414.08 6299.21 2395.08 6304.21 2380.08 6309.21 2368.08 6314.21 2359.08 6318.21 2350.08 6323.21 2341.08 6328.21 2337.08 6333.21 2340.08 6338.21 2339.08 6342.21 2341.08 6347.21 2339.08 6352.21 2342.08 6357.21 2350.08 6362.21 2355.08 6367.21 2365.08 6371.21 2371.08 6376.21 2378.08 6381.21 2386.08 6386.21 2390.08 6391.21 2397.08 6395.21 2399.08 6400.21 2401.08 6405.21 2402.08 6410.21 2403.08 6415.21 2407.08 6420.21 2415.08 6424.21 2416.08 6429.21 2421.08 6434.21 2433.08 6439.21 2439.08 6444.21 2440.08 6448.21 2439.08 6453.21 2443.08 6458.21 2444.08 6463.21 2442.08 6468.21 2445.08 6473.21 2438.08 6477.21 2437.08 6482.21 2433.08 6487.21 2430.08 6492.21 2431.08 6497.21 2421.08 6501.21 2414.08 6506.21 2402.08 6511.21 2395.08 6516.21 2386.08 6521.21 2380.08 6526.21 2383.08 6530.21 2377.08 6535.21 2373.08 6540.21 2367.08 6545.21 2364.08 6550.21 2359.08 6554.21 2358.08 6559.22 2364.08 6564.22 2360.08 6569.22 2350.08 6574.22 2343.08 6579.22 2339.08 6583.22 2333.08M7282.24 2528.08 7287.24 2545.08 7291.24 2570.08 7296.24 2597.09 7301.24 2625.09 7306.24 2650.09 7311.24 2678.09 7315.24 2700.09 7320.24 2728.09 7325.24 2755.09 7330.24 2777.09 7335.24 2800.09 7340.24 2814.09 7344.24 2828.09 7349.24 2837.09 7354.24 2848.09 7359.24 2855.09 7364.24 2863.09 7368.24 2879.09 7373.24 2889.09 7378.24 2900.1 7383.24 2913.1 7388.24 2928.1 7393.24 2937.1 7397.24 2953.1 7402.24 2964.1 7407.24 2986.1 7412.24 2996.1 7417.24 3008.1 7421.24 3025.1 7426.24 3030.1 7431.24 3035.1 7436.24 3038.1 7441.24 3041.1 7446.24 3044.1 7450.24 3046.1 7455.24 3048.1 7460.25 3047.1 7465.25 3041.1 7470.25 3036.1 7474.25 3038.1 7479.25 3039.1 7484.25 3036.1 7489.25 3038.1 7494.25 3038.1 7499.25 3043.1 7503.25 3047.1 7508.25 3052.1 7513.25 3049.1 7518.25 3050.1 7523.25 3054.1 7527.25 3053.1 7532.25 3058.1 7537.25 3058.1 7542.25 3063.1 7547.25 3068.1 7552.25 3065.1 7556.25 3066.1 7561.25 3064.1 7566.25 3061.1 7571.25 3061.1 7576.25 3060.1 7580.25 3058.1 7585.25 3063.1 7590.25 3061.1 7595.25 3065.1 7600.25 3071.1 7605.25 3077.1 7609.25 3087.1 7614.25 3093.1 7619.25 3098.1 7624.25 3099.1 7629.25 3102.1 7633.25 3107.1 7638.25 3111.1 7643.25 3114.1 7648.25 3118.1 7653.25 3122.1 7657.25 3134.1 7662.25 3141.1 7667.25 3146.1 7672.25 3147.1 7677.25 3149.1 7682.25 3153.1 7686.25 3159.1 7691.25 3166.1 7696.25 3177.1 7701.25 3184.1 7706.25 3195.1 7710.25 3209.11 7715.25 3223.11 7720.25 3238.11 7725.25 3263.11 7730.25 3284.11 7735.25 3319.11 7739.25 3373.11M8207.27 3408.11 8211.27 3405.11 8216.27 3404.11 8221.27 3402.11 8226.27 3400.11 8231.27 3400.11 8236.27 3391.11 8240.27 3389.11 8245.27 3387.11 8250.27 3384.11 8255.27 3379.11 8260.27 3373.11 8264.27 3369.11 8269.27 3364.11 8274.27 3360.11 8279.27 3355.11 8284.27 3349.11 8289.27 3345.11 8293.27 3342.11 8298.27 3339.11 8303.27 3334.11 8308.27 3333.11 8313.27 3329.11 8317.27 3323.11 8322.27 3325.11 8327.27 3323.11 8332.27 3324.11 8337.27 3325.11 8342.27 3324.11 8346.27 3323.11 8351.27 3323.11 8356.27 3323.11 8361.27 3334.11 8366.27 3325.11 8370.27 3329.11 8375.28 3331.11 8380.28 3332.11 8385.28 3343.11 8390.28 3590 8394.28 3546.12 8399.28 3483.11 8404.28 3476.11 8409.28 3471.11 8414.28 3460.11 8419.28 3456.11 8423.28 3451.11 8428.28 3443.11 8433 3444.11" stroke="#FF0000" stroke-width="10.3125" stroke-linecap="round" stroke-linejoin="round" stroke-miterlimit="10" fill="none"/></g><g><path d="M5750 2236 5755.19 2250.07 5760.19 2275.07 5764.19 2329.08 5769.19 2402.08 5774.19 2468.08 5779.19 2532.08 5784.19 2561.08 5789.19 2579.08 5793.19 2581.08 5798.19 2592.08 5803.19 2594 5808.19 2566.08 5813.19 2551.08 5817.19 2536.08 5822.19 2528.08 5827.19 2506.08 5832.19 2479.08 5837.19 2460.08 5842.19 2444.08 5846.19 2430.08 5851.19 2436.08 5856.19 2434.08 5861.19 2434.08 5866.19 2420.08 5870.19 2407.08 5875.19 2429.08 5880.19 2404.08 5885.19 2397.08 5890.19 2381.08M6588.22 2333.08 6593.22 2332.08 6598.22 2333.08 6603.22 2336.08 6607.22 2341.08 6612.22 2347.08 6617.22 2350.08 6622.22 2358.08 6627.22 2363.08 6631.22 2365.08 6636.22 2366.08 6641.22 2382.08 6646.22 2364.08 6651.22 2369.08 6656.22 2373.08 6660.22 2382.08 6665.22 2386.08 6670.22 2400.08 6675.22 2410.08 6680.22 2418.08 6684.22 2424.08 6689.22 2452.08 6694.22 2458.08 6699.22 2470.08 6704.22 2493.08 6709.22 2506.08 6713.22 2515.08 6718.22 2520.08 6723.22 2525.08 6728.22 2530.08 6733.22 2528.08 6737.22 2531.08 6742.22 2533.08 6747.22 2540.08 6752.22 2549.08 6757.22 2563.08 6762.22 2565.08 6766.22 2570.08 6771.22 2565.08 6776.22 2564.08 6781.22 2566.08 6786.22 2567.08 6790.22 2574.08 6795.22 2578.08 6800.22 2580.08 6805.22 2579.08 6810.22 2577.08 6815 2572.08" stroke="#C00000" stroke-width="10.3125" stroke-linecap="round" stroke-linejoin="round" stroke-miterlimit="10" fill="none"/></g><g><path d="M3693 4033 3698.12 4015.13 3703.12 3996.13 3708.12 3989.13 3712.12 3991.13 3717.12 3988.13 3722.12 4004.13 3727.12 3972.13 3732.12 3933.13 3737.12 3882.13 3741.12 3878.13 3746.12 3868.13 3751.12 3872.13 3756.12 3874.13 3761.12 3880.13 3765.12 3893.13 3770.12 3894.13 3775.12 3890.13 3780.12 3903.13 3785.12 3849.13 3790.12 3810.12 3794.12 3769.12 3799.12 3737.12 3804.12 3698.12 3809.12 3670.12 3814.13 3629.12 3818.13 3592.12 3823.13 3537.12 3828.13 3488.11 3833.13 3441.11 3838.13 3407.11 3843.13 3379.11 3847.13 3350.11 3852.13 3334.11 3857.13 3326.11 3862.13 3314.11 3867.13 3297.11 3871.13 3266.11 3876.13 3231.11 3881.13 3194.1 3886.13 3157.1 3891.13 3131.1 3895.13 3087.1 3900.13 3037.1 3905.13 2991.1 3910.13 2955.1 3915.13 2917.1 3920.13 2857.09 3924.13 2811.09 3929.13 2782.09 3934.13 2750.09 3939.13 2730.09 3944.13 2714.09 3948.13 2684.09 3953.13 2664.09 3958.13 2652.09 3963.13 2653.09 3968.13 2625.09 3973.13 2609.09 3977.13 2623.09 3982.13 2639.09 3987.13 2660.09 3992.13 2690.09 3997.13 2720.09 4001.13 2733.09 4006.13 2743.09 4011.13 2754.09 4016.13 2764.09 4021.13 2786.09 4026.13 2792.09 4030.13 2804.09 4035.13 2787.09 4040.13 2785.09 4045.13 2802.09 4050.13 2822.09M4970.16 2949.1 4974.16 2949.1 4979.16 2945.1 4984.16 2925.1 4989.16 2915.1 4994.16 2906.1 4999.16 2894.09 5003.16 2896.1 5008.16 2885.09 5013.16 2863.09 5018.16 2853.09 5023.17 2851.09 5027.17 2834.09 5032.17 2826.09 5037.17 2812.09 5042.17 2814.09 5047.17 2814.09 5052.17 2813.09 5056.17 2814.09 5061.17 2804.09 5066.17 2804.09 5071.17 2811.09 5076.17 2813.09 5080.17 2808.09 5085.17 2809.09 5090.17 2805.09 5095.17 2798.09 5100.17 2790.09 5105.17 2793.09 5109.17 2789.09 5114.17 2790.09 5119.17 2784.09 5124.17 2776.09 5129.17 2784.09M5895.19 2373.08 5899.19 2355.08 5904.19 2339.08 5909.19 2323.08 5914.19 2307.08 5919.19 2295.08 5923.19 2291.08 5928.19 2280.07 5933.19 2276.07 5938.19 2264.07 5943.2 2243.07 5947.2 2231.07 5952.2 2223.07 5957.2 2211.07 5962.2 2197.07 5967.2 2183.07 5972.2 2170.07 5976.2 2163.07 5981.2 2153.07 5986.2 2141.07 5991.2 2127.07 5996.2 2106.07 6000.2 2091.07 6005.2 2081.07 6010.2 2077.07 6015.2 2068.07 6020.2 2069.07 6025.2 2058.07 6029.2 2050 6034.2 2054.07 6039.2 2077.07 6044.2 2070.07 6049.2 2080.07 6053.2 2098.07 6058.2 2097.07 6063.2 2101.07 6068.2 2113.07 6073.2 2113.07 6078.2 2159.07 6082.2 2206.07 6087.2 2251.07 6092.2 2291.08 6097.2 2265.07 6102.2 2259.07 6106.2 2248.07 6111.2 2230.07 6116.2 2222.07 6121.2 2223.07M6819.22 2570.08 6824.22 2572.08 6829.22 2576.08 6834.22 2577.08 6839.22 2582.08 6843.22 2582.08 6848.22 2582.08 6853.22 2577.08 6858.23 2575.08 6863.23 2571.08 6868.23 2568.08 6872.23 2560.08 6877.23 2559.08 6882.23 2552.08 6887.23 2546.08 6892.23 2540.08 6896.23 2531.08 6901.23 2528.08 6906.23 2518.08 6911.23 2511.08 6916.23 2506.08 6921.23 2498.08 6925.23 2492.08 6930.23 2483.08 6935.23 2483.08 6940.23 2483.08 6945.23 2480.08 6949.23 2484.08 6954.23 2486.08 6959.23 2492.08 6964.23 2487.08 6969.23 2486.08 6973.23 2492.08 6978.23 2493.08 6983.23 2489.08 6988.23 2494.08 6993.23 2490.08 6998.23 2496.08 7002.23 2494.08 7007.23 2491.08 7012.23 2490.08 7017.23 2491.08 7022.23 2485.08 7026.23 2485.08 7031.23 2482.08 7036.23 2480.08 7041.23 2479.08 7046.23 2477.08 7051.23 2473.08 7055.23 2469.08 7060.23 2467.08 7065.23 2464.08 7070.23 2460.08 7075.23 2459.08 7079.23 2447.08 7084.23 2445.08 7089.23 2436.08 7094.23 2428.08 7099.23 2422.08 7104.23 2416.08 7108.23 2414.08 7113.23 2412.08 7118.23 2412.08 7123.23 2415.08 7128.23 2418.08 7132.23 2453.08 7137.23 2426.08 7142.23 2427.08 7147.23 2436.08 7152.23 2445.08 7157.23 2448.08 7161.24 2452.08 7166.24 2458.08 7171.24 2463.08 7176.24 2468.08 7181.24 2470.08 7185.24 2477.08 7190.24 2475.08 7195.24 2479.08 7200.24 2480.08 7205.24 2481.08 7210.24 2480.08 7214.24 2480.08 7219.24 2479.08 7224.24 2479.08 7229.24 2476.08 7234.24 2476.08 7238.24 2480.08 7243.24 2477.08 7248.24 2472.08 7253.24 2479.08 7258.24 2489.08 7263.24 2492.08 7267.24 2495.08 7272.24 2499.08 7277.24 2513.08M7744.25 3408.11 7749.25 3440.11 7754.25 3474.11 7759.25 3506.12 7763.25 3532.12 7768.25 3543.12 7773.25 3551.12 7778.26 3557.12 7783.26 3567.12 7788.26 3573.12 7792.26 3579.12 7797.26 3582.12 7802.26 3583.12 7807.26 3583.12 7812.26 3576.12 7816.26 3570.12 7821.26 3566.12 7826.26 3563.12 7831.26 3564.12 7836.26 3562.12 7841.26 3563.12 7845.26 3558.12 7850.26 3556.12 7855.26 3551.12 7860.26 3545.12 7865.26 3541.12 7869.26 3536.12 7874.26 3534.12 7879.26 3531.12 7884.26 3528.12 7889.26 3524.12 7894.26 3523.12 7898.26 3521.12 7903.26 3523.12 7908.26 3517.12 7913.26 3510.12 7918.26 3506.12 7922.26 3499.11 7927.26 3496.11 7932.26 3494.11 7937.26 3492.11 7942.26 3487.11 7947.26 3487.11 7951.26 3488.11 7956.26 3487.11 7961.26 3489.11 7966.26 3487.11 7971.26 3483.11 7975.26 3480.11 7980.26 3480.11 7985.26 3480.11 7990.26 3480.11 7995.26 3479.11 8000.26 3483.11 8004.26 3477.11 8009.26 3474.11 8014.26 3469.11 8019.26 3465.11 8024.26 3464.11 8028.26 3464.11 8033.26 3460.11 8038.26 3457.11 8043.26 3454.11 8048.26 3452.11 8052.26 3448.11 8057.26 3444.11 8062.26 3440.11 8067.26 3437.11 8072.27 3431.11 8077.27 3426.11 8081.27 3424.11 8086.27 3424.11 8091.27 3423.11 8096.27 3421.11 8101.27 3419.11 8105.27 3417.11 8110.27 3416.11 8115.27 3414.11 8120.27 3414.11 8125.27 3413.11 8130.27 3411.11 8134.27 3412.11 8139.27 3411.11 8144.27 3407.11 8149.27 3411.11 8154.27 3415.11 8158.27 3413.11 8163.27 3417.11 8168.27 3413.11 8173.27 3409.11 8178.27 3414.11 8183.27 3414.11 8187.27 3414.11 8192.27 3415.11 8197.27 3412.11 8202.27 3410.11M8438.28 3439.11 8443.28 3428.11 8447.28 3436.11 8452.28 3430.11 8457.28 3426.11 8462.28 3413.11 8467.28 3404.11 8472.28 3397.11 8476.28 3386.11 8481.28 3379.11 8486.28 3371.11 8491.28 3366.11 8496.28 3357.11 8500.28 3344.11 8505.28 3334.11 8510.28 3331.11 8515.28 3325.11 8520.28 3318.11 8525.28 3313.11 8529.28 3309.11 8534.28 3304.11 8539.28 3303.11 8544.28 3303.11 8549.28 3301.11 8553.28 3302.11 8558.28 3303.11 8563.28 3302.11 8568.28 3302.11 8573.28 3301.11 8578.28 3302.11 8582.28 3302.11 8587.28 3299.11 8592.28 3305.11 8597.28 3300.11 8602.28 3298.11 8606.28 3297.11 8611.28 3298.11 8616.28 3300.11 8621.28 3298.11 8626.28 3298.11 8631.28 3301.11 8635.28 3300.11 8640 3304.11" stroke="#215F9A" stroke-width="10.3125" stroke-linecap="round" stroke-linejoin="round" stroke-miterlimit="10" fill="none"/></g><g><path d="M4055 2848.09 4059.13 2874.09 4064.13 2921.1 4069.13 2988.1 4074.13 3063.1 4079.13 3388.11 4083.13 3387.11 4088.13 3378.11 4093.13 3380.11 4098.13 3344.11 4103.13 3495 4107.13 3377.11 4112.13 3252.11 4117.13 3217.11 4122.14 3177.1 4127.14 3144.1 4132.14 3105.1 4136.14 3075.1 4141.14 3067.1 4146.14 3042.1 4151.14 3044.1 4156.14 3039.1 4160.14 3048.1 4165.14 3052.1 4170.14 3056.1 4175.14 3065.1 4180.14 3063.1 4185.14 3087.1 4189.14 3063.1 4194.14 3041.1 4199.14 3027.1 4204.14 3023.1 4209.14 3020.1 4213.14 3018.1 4218.14 3037.1 4223.14 3032.1 4228.14 3066.1 4233.14 3056.1 4237.14 3041.1 4242.14 3033.1 4247.14 3034.1 4252.14 3017.1 4257.14 3027.1 4262.14 3046.1 4266.14 3085.1 4271.14 3126.1 4276.14 3151.1 4281.14 3180.1 4286.14 3207.1 4290.14 3239.11 4295.14 3257.11 4300.14 3278.11 4305.14 3260.11 4310.14 3248.11 4315.14 3311.11 4319.14 3313.11 4324.14 3279.11 4329.14 3260.11 4334.14 3258.11 4339.14 3235.11 4343.14 3201.1 4348.14 3143.1 4353.14 3116.1 4358.14 3087.1 4363.14 3014.1 4368.14 2995.1 4372.14 2961.1 4377.14 2957.1 4382.14 2953.1 4387.14 2921.1 4392.14 2897.09 4396.14 2888.09 4401.14 2880.09 4406.14 2881.09 4411.14 2878.09 4416.14 2891.09 4421.15 2900.09 4425.15 2912.1 4430.15 2917.1 4435.15 2912.1 4440.15 2903.1 4445.15 2899.09 4449.15 2892.09 4454.15 2888.09 4459.15 2881.09 4464.15 2885.09 4469.15 2944.1 4474.15 2967.1 4478.15 2859.09 4483.15 2807.09 4488.15 2781.09 4493.15 2752.09 4498.15 2727.09 4502.15 2710.09M5133.17 2777.09 5138.17 2776.09 5143.17 2771.09 5148.17 2766.09 5153.17 2763.09 5158.17 2758.09 5162.17 2753.09 5167.17 2744.09 5172.17 2732.09 5177.17 2708.09 5182.17 2756.09 5186.17 2704.09 5191.17 2689.09 5196.17 2676.09 5201.17 2667.09 5206.17 2655.09 5211.17 2643.09 5215.17 2632.09 5220.17 2617.09 5225.17 2596.08 5230.17 2584.08 5235.17 2570.08 5239.17 2559.08 5244.17 2540.08 5249.17 2523.08 5254.17 2506.08 5259.17 2478.08 5263.17 2457.08 5268.17 2435.08 5273.17 2415.08 5278.17 2394.08 5283.17 2389.08 5288.17 2366.08 5292.17 2365.08 5297.17 2352.08 5302.17 2347.08 5307.17 2344.08 5312.17 2337.08 5316.17 2348.08 5321.17 2355.08 5326.17 2367.08 5331.17 2375.08 5336.17 2379.08 5341.18 2384.08 5345.18 2362.08 5350.18 2383.08 5355.18 2381.08 5360.18 2346.08 5365.18 2339.08 5369.18 2336.08 5374.18 2333.08 5379.18 2331.08 5384.18 2319.08 5389.18 2308.08 5394.18 2300.08 5398.18 2293.08 5403.18 2295.08 5408.18 2296.08 5413.18 2288.07 5418.18 2278.07 5422.18 2266.07 5427 2262" stroke="#4E95D9" stroke-width="10.3125" stroke-linecap="round" stroke-linejoin="round" stroke-miterlimit="10" fill="none"/></g><g><text fill="#595959" font-family="Aptos Narrow,Aptos Narrow_MSFontService,sans-serif" font-weight="400" font-stretch="semi-condensed" font-size="41" transform="matrix(1 0 0 1 3569.21 4249)">8000</text></g><g><text fill="#595959" font-family="Aptos Narrow,Aptos Narrow_MSFontService,sans-serif" font-weight="400" font-stretch="semi-condensed" font-size="41" transform="matrix(1 0 0 1 3548.31 3870)">10000</text></g><g><text fill="#595959" font-family="Aptos Narrow,Aptos Narrow_MSFontService,sans-serif" font-weight="400" font-stretch="semi-condensed" font-size="41" transform="matrix(1 0 0 1 3548.31 3491)">12000</text></g><g><text fill="#595959" font-family="Aptos Narrow,Aptos Narrow_MSFontService,sans-serif" font-weight="400" font-stretch="semi-condensed" font-size="41" transform="matrix(1 0 0 1 3548.31 3113)">14000</text></g><g><text fill="#595959" font-family="Aptos Narrow,Aptos Narrow_MSFontService,sans-serif" font-weight="400" font-stretch="semi-condensed" font-size="41" transform="matrix(1 0 0 1 3548.31 2734)">16000</text></g><g><text fill="#595959" font-family="Aptos Narrow,Aptos Narrow_MSFontService,sans-serif" font-weight="400" font-stretch="semi-condensed" font-size="41" transform="matrix(1 0 0 1 3548.31 2355)">18000</text></g><g><text fill="#595959" font-family="Aptos Narrow,Aptos Narrow_MSFontService,sans-serif" font-weight="400" font-stretch="semi-condensed" font-size="41" transform="matrix(1 0 0 1 3548.31 1976)">20000</text></g><g><text fill="#595959" font-family="Aptos Narrow,Aptos Narrow_MSFontService,sans-serif" font-weight="400" font-stretch="semi-condensed" font-size="41" transform="matrix(6.12323e-17 -1 1 6.12323e-17 3707.12 4408)">Jan 1939</text></g><g><text fill="#595959" font-family="Aptos Narrow,Aptos Narrow_MSFontService,sans-serif" font-weight="400" font-stretch="semi-condensed" font-size="41" transform="matrix(6.12323e-17 -1 1 6.12323e-17 3760.11 4420)">Dec 1939</text></g><g><text fill="#595959" font-family="Aptos Narrow,Aptos Narrow_MSFontService,sans-serif" font-weight="400" font-stretch="semi-condensed" font-size="41" transform="matrix(6.12323e-17 -1 1 6.12323e-17 3813.1 4419)">Nov 1940</text></g><g><text fill="#595959" font-family="Aptos Narrow,Aptos Narrow_MSFontService,sans-serif" font-weight="400" font-stretch="semi-condensed" font-size="41" transform="matrix(6.12323e-17 -1 1 6.12323e-17 3866.09 4414)">Oct 1941</text></g><g><text fill="#595959" font-family="Aptos Narrow,Aptos Narrow_MSFontService,sans-serif" font-weight="400" font-stretch="semi-condensed" font-size="41" transform="matrix(6.12323e-17 -1 1 6.12323e-17 3919.08 4417)">Sep 1942</text></g><g><text fill="#595959" font-family="Aptos Narrow,Aptos Narrow_MSFontService,sans-serif" font-weight="400" font-stretch="semi-condensed" font-size="41" transform="matrix(6.12323e-17 -1 1 6.12323e-17 3972.06 4416)">Aug 1943</text></g><g><text fill="#595959" font-family="Aptos Narrow,Aptos Narrow_MSFontService,sans-serif" font-weight="400" font-stretch="semi-condensed" font-size="41" transform="matrix(6.12323e-17 -1 1 6.12323e-17 4025.05 4398)">Jul 1944</text></g><g><text fill="#595959" font-family="Aptos Narrow,Aptos Narrow_MSFontService,sans-serif" font-weight="400" font-stretch="semi-condensed" font-size="41" transform="matrix(6.12323e-17 -1 1 6.12323e-17 4078.04 4409)">Jun 1945</text></g><g><text fill="#595959" font-family="Aptos Narrow,Aptos Narrow_MSFontService,sans-serif" font-weight="400" font-stretch="semi-condensed" font-size="41" transform="matrix(6.12323e-17 -1 1 6.12323e-17 4131.03 4421)">May 1946</text></g><g><text fill="#595959" font-family="Aptos Narrow,Aptos Narrow_MSFontService,sans-serif" font-weight="400" font-stretch="semi-condensed" font-size="41" transform="matrix(6.12323e-17 -1 1 6.12323e-17 4184.01 4410)">Apr 1947</text></g><g><text fill="#595959" font-family="Aptos Narrow,Aptos Narrow_MSFontService,sans-serif" font-weight="400" font-stretch="semi-condensed" font-size="41" transform="matrix(6.12323e-17 -1 1 6.12323e-17 4237 4417)">Mar 1948</text></g><g><text fill="#595959" font-family="Aptos Narrow,Aptos Narrow_MSFontService,sans-serif" font-weight="400" font-stretch="semi-condensed" font-size="41" transform="matrix(6.12323e-17 -1 1 6.12323e-17 4289.99 4415)">Feb 1949</text></g><g><text fill="#595959" font-family="Aptos Narrow,Aptos Narrow_MSFontService,sans-serif" font-weight="400" font-stretch="semi-condensed" font-size="41" transform="matrix(6.12323e-17 -1 1 6.12323e-17 4342.98 4408)">Jan 1950</text></g><g><text fill="#595959" font-family="Aptos Narrow,Aptos Narrow_MSFontService,sans-serif" font-weight="400" font-stretch="semi-condensed" font-size="41" transform="matrix(6.12323e-17 -1 1 6.12323e-17 4395.97 4420)">Dec 1950</text></g><g><text fill="#595959" font-family="Aptos Narrow,Aptos Narrow_MSFontService,sans-serif" font-weight="400" font-stretch="semi-condensed" font-size="41" transform="matrix(6.12323e-17 -1 1 6.12323e-17 4448.95 4419)">Nov 1951</text></g><g><text fill="#595959" font-family="Aptos Narrow,Aptos Narrow_MSFontService,sans-serif" font-weight="400" font-stretch="semi-condensed" font-size="41" transform="matrix(6.12323e-17 -1 1 6.12323e-17 4501.94 4414)">Oct 1952</text></g><g><text fill="#595959" font-family="Aptos Narrow,Aptos Narrow_MSFontService,sans-serif" font-weight="400" font-stretch="semi-condensed" font-size="41" transform="matrix(6.12323e-17 -1 1 6.12323e-17 4554.93 4417)">Sep 1953</text></g><g><text fill="#595959" font-family="Aptos Narrow,Aptos Narrow_MSFontService,sans-serif" font-weight="400" font-stretch="semi-condensed" font-size="41" transform="matrix(6.12323e-17 -1 1 6.12323e-17 4607.92 4416)">Aug 1954</text></g><g><text fill="#595959" font-family="Aptos Narrow,Aptos Narrow_MSFontService,sans-serif" font-weight="400" font-stretch="semi-condensed" font-size="41" transform="matrix(6.12323e-17 -1 1 6.12323e-17 4660.9 4398)">Jul 1955</text></g><g><text fill="#595959" font-family="Aptos Narrow,Aptos Narrow_MSFontService,sans-serif" font-weight="400" font-stretch="semi-condensed" font-size="41" transform="matrix(6.12323e-17 -1 1 6.12323e-17 4713.89 4409)">Jun 1956</text></g><g><text fill="#595959" font-family="Aptos Narrow,Aptos Narrow_MSFontService,sans-serif" font-weight="400" font-stretch="semi-condensed" font-size="41" transform="matrix(6.12323e-17 -1 1 6.12323e-17 4766.88 4421)">May 1957</text></g><g><text fill="#595959" font-family="Aptos Narrow,Aptos Narrow_MSFontService,sans-serif" font-weight="400" font-stretch="semi-condensed" font-size="41" transform="matrix(6.12323e-17 -1 1 6.12323e-17 4819.87 4410)">Apr 1958</text></g><g><text fill="#595959" font-family="Aptos Narrow,Aptos Narrow_MSFontService,sans-serif" font-weight="400" font-stretch="semi-condensed" font-size="41" transform="matrix(6.12323e-17 -1 1 6.12323e-17 4872.86 4417)">Mar 1959</text></g><g><text fill="#595959" font-family="Aptos Narrow,Aptos Narrow_MSFontService,sans-serif" font-weight="400" font-stretch="semi-condensed" font-size="41" transform="matrix(6.12323e-17 -1 1 6.12323e-17 4925.84 4415)">Feb 1960</text></g><g><text fill="#595959" font-family="Aptos Narrow,Aptos Narrow_MSFontService,sans-serif" font-weight="400" font-stretch="semi-condensed" font-size="41" transform="matrix(6.12323e-17 -1 1 6.12323e-17 4978.83 4408)">Jan 1961</text></g><g><text fill="#595959" font-family="Aptos Narrow,Aptos Narrow_MSFontService,sans-serif" font-weight="400" font-stretch="semi-condensed" font-size="41" transform="matrix(6.12323e-17 -1 1 6.12323e-17 5031.82 4420)">Dec 1961</text></g><g><text fill="#595959" font-family="Aptos Narrow,Aptos Narrow_MSFontService,sans-serif" font-weight="400" font-stretch="semi-condensed" font-size="41" transform="matrix(6.12323e-17 -1 1 6.12323e-17 5084.81 4419)">Nov 1962</text></g><g><text fill="#595959" font-family="Aptos Narrow,Aptos Narrow_MSFontService,sans-serif" font-weight="400" font-stretch="semi-condensed" font-size="41" transform="matrix(6.12323e-17 -1 1 6.12323e-17 5137.8 4414)">Oct 1963</text></g><g><text fill="#595959" font-family="Aptos Narrow,Aptos Narrow_MSFontService,sans-serif" font-weight="400" font-stretch="semi-condensed" font-size="41" transform="matrix(6.12323e-17 -1 1 6.12323e-17 5190.78 4417)">Sep 1964</text></g><g><text fill="#595959" font-family="Aptos Narrow,Aptos Narrow_MSFontService,sans-serif" font-weight="400" font-stretch="semi-condensed" font-size="41" transform="matrix(6.12323e-17 -1 1 6.12323e-17 5243.77 4416)">Aug 1965</text></g><g><text fill="#595959" font-family="Aptos Narrow,Aptos Narrow_MSFontService,sans-serif" font-weight="400" font-stretch="semi-condensed" font-size="41" transform="matrix(6.12323e-17 -1 1 6.12323e-17 5296.76 4398)">Jul 1966</text></g><g><text fill="#595959" font-family="Aptos Narrow,Aptos Narrow_MSFontService,sans-serif" font-weight="400" font-stretch="semi-condensed" font-size="41" transform="matrix(6.12323e-17 -1 1 6.12323e-17 5349.75 4409)">Jun 1967</text></g><g><text fill="#595959" font-family="Aptos Narrow,Aptos Narrow_MSFontService,sans-serif" font-weight="400" font-stretch="semi-condensed" font-size="41" transform="matrix(6.12323e-17 -1 1 6.12323e-17 5402.73 4421)">May 1968</text></g><g><text fill="#595959" font-family="Aptos Narrow,Aptos Narrow_MSFontService,sans-serif" font-weight="400" font-stretch="semi-condensed" font-size="41" transform="matrix(6.12323e-17 -1 1 6.12323e-17 5455.72 4410)">Apr 1969</text></g><g><text fill="#595959" font-family="Aptos Narrow,Aptos Narrow_MSFontService,sans-serif" font-weight="400" font-stretch="semi-condensed" font-size="41" transform="matrix(6.12323e-17 -1 1 6.12323e-17 5508.71 4417)">Mar 1970</text></g><g><text fill="#595959" font-family="Aptos Narrow,Aptos Narrow_MSFontService,sans-serif" font-weight="400" font-stretch="semi-condensed" font-size="41" transform="matrix(6.12323e-17 -1 1 6.12323e-17 5561.7 4415)">Feb 1971</text></g><g><text fill="#595959" font-family="Aptos Narrow,Aptos Narrow_MSFontService,sans-serif" font-weight="400" font-stretch="semi-condensed" font-size="41" transform="matrix(6.12323e-17 -1 1 6.12323e-17 5614.69 4408)">Jan 1972</text></g><g><text fill="#595959" font-family="Aptos Narrow,Aptos Narrow_MSFontService,sans-serif" font-weight="400" font-stretch="semi-condensed" font-size="41" transform="matrix(6.12323e-17 -1 1 6.12323e-17 5667.67 4420)">Dec 1972</text></g><g><text fill="#595959" font-family="Aptos Narrow,Aptos Narrow_MSFontService,sans-serif" font-weight="400" font-stretch="semi-condensed" font-size="41" transform="matrix(6.12323e-17 -1 1 6.12323e-17 5720.66 4419)">Nov 1973</text></g><g><text fill="#595959" font-family="Aptos Narrow,Aptos Narrow_MSFontService,sans-serif" font-weight="400" font-stretch="semi-condensed" font-size="41" transform="matrix(6.12323e-17 -1 1 6.12323e-17 5773.65 4414)">Oct 1974</text></g><g><text fill="#595959" font-family="Aptos Narrow,Aptos Narrow_MSFontService,sans-serif" font-weight="400" font-stretch="semi-condensed" font-size="41" transform="matrix(6.12323e-17 -1 1 6.12323e-17 5826.64 4417)">Sep 1975</text></g><g><text fill="#595959" font-family="Aptos Narrow,Aptos Narrow_MSFontService,sans-serif" font-weight="400" font-stretch="semi-condensed" font-size="41" transform="matrix(6.12323e-17 -1 1 6.12323e-17 5879.62 4416)">Aug 1976</text></g><g><text fill="#595959" font-family="Aptos Narrow,Aptos Narrow_MSFontService,sans-serif" font-weight="400" font-stretch="semi-condensed" font-size="41" transform="matrix(6.12323e-17 -1 1 6.12323e-17 5932.61 4398)">Jul 1977</text></g><g><text fill="#595959" font-family="Aptos Narrow,Aptos Narrow_MSFontService,sans-serif" font-weight="400" font-stretch="semi-condensed" font-size="41" transform="matrix(6.12323e-17 -1 1 6.12323e-17 5985.6 4409)">Jun 1978</text></g><g><text fill="#595959" font-family="Aptos Narrow,Aptos Narrow_MSFontService,sans-serif" font-weight="400" font-stretch="semi-condensed" font-size="41" transform="matrix(6.12323e-17 -1 1 6.12323e-17 6038.59 4421)">May 1979</text></g><g><text fill="#595959" font-family="Aptos Narrow,Aptos Narrow_MSFontService,sans-serif" font-weight="400" font-stretch="semi-condensed" font-size="41" transform="matrix(6.12323e-17 -1 1 6.12323e-17 6091.58 4410)">Apr 1980</text></g><g><text fill="#595959" font-family="Aptos Narrow,Aptos Narrow_MSFontService,sans-serif" font-weight="400" font-stretch="semi-condensed" font-size="41" transform="matrix(6.12323e-17 -1 1 6.12323e-17 6144.56 4417)">Mar 1981</text></g><g><text fill="#595959" font-family="Aptos Narrow,Aptos Narrow_MSFontService,sans-serif" font-weight="400" font-stretch="semi-condensed" font-size="41" transform="matrix(6.12323e-17 -1 1 6.12323e-17 6197.55 4415)">Feb 1982</text></g><g><text fill="#595959" font-family="Aptos Narrow,Aptos Narrow_MSFontService,sans-serif" font-weight="400" font-stretch="semi-condensed" font-size="41" transform="matrix(6.12323e-17 -1 1 6.12323e-17 6250.54 4408)">Jan 1983</text></g><g><text fill="#595959" font-family="Aptos Narrow,Aptos Narrow_MSFontService,sans-serif" font-weight="400" font-stretch="semi-condensed" font-size="41" transform="matrix(6.12323e-17 -1 1 6.12323e-17 6303.53 4420)">Dec 1983</text></g><g><text fill="#595959" font-family="Aptos Narrow,Aptos Narrow_MSFontService,sans-serif" font-weight="400" font-stretch="semi-condensed" font-size="41" transform="matrix(6.12323e-17 -1 1 6.12323e-17 6356.52 4419)">Nov 1984</text></g><g><text fill="#595959" font-family="Aptos Narrow,Aptos Narrow_MSFontService,sans-serif" font-weight="400" font-stretch="semi-condensed" font-size="41" transform="matrix(6.12323e-17 -1 1 6.12323e-17 6409.5 4414)">Oct 1985</text></g><g><text fill="#595959" font-family="Aptos Narrow,Aptos Narrow_MSFontService,sans-serif" font-weight="400" font-stretch="semi-condensed" font-size="41" transform="matrix(6.12323e-17 -1 1 6.12323e-17 6462.49 4417)">Sep 1986</text></g><g><text fill="#595959" font-family="Aptos Narrow,Aptos Narrow_MSFontService,sans-serif" font-weight="400" font-stretch="semi-condensed" font-size="41" transform="matrix(6.12323e-17 -1 1 6.12323e-17 6515.48 4416)">Aug 1987</text></g><g><text fill="#595959" font-family="Aptos Narrow,Aptos Narrow_MSFontService,sans-serif" font-weight="400" font-stretch="semi-condensed" font-size="41" transform="matrix(6.12323e-17 -1 1 6.12323e-17 6568.47 4398)">Jul 1988</text></g><g><text fill="#595959" font-family="Aptos Narrow,Aptos Narrow_MSFontService,sans-serif" font-weight="400" font-stretch="semi-condensed" font-size="41" transform="matrix(6.12323e-17 -1 1 6.12323e-17 6621.45 4409)">Jun 1989</text></g><g><text fill="#595959" font-family="Aptos Narrow,Aptos Narrow_MSFontService,sans-serif" font-weight="400" font-stretch="semi-condensed" font-size="41" transform="matrix(6.12323e-17 -1 1 6.12323e-17 6674.44 4421)">May 1990</text></g><g><text fill="#595959" font-family="Aptos Narrow,Aptos Narrow_MSFontService,sans-serif" font-weight="400" font-stretch="semi-condensed" font-size="41" transform="matrix(6.12323e-17 -1 1 6.12323e-17 6727.43 4410)">Apr 1991</text></g><g><text fill="#595959" font-family="Aptos Narrow,Aptos Narrow_MSFontService,sans-serif" font-weight="400" font-stretch="semi-condensed" font-size="41" transform="matrix(6.12323e-17 -1 1 6.12323e-17 6780.42 4417)">Mar 1992</text></g><g><text fill="#595959" font-family="Aptos Narrow,Aptos Narrow_MSFontService,sans-serif" font-weight="400" font-stretch="semi-condensed" font-size="41" transform="matrix(6.12323e-17 -1 1 6.12323e-17 6833.41 4415)">Feb 1993</text></g><g><text fill="#595959" font-family="Aptos Narrow,Aptos Narrow_MSFontService,sans-serif" font-weight="400" font-stretch="semi-condensed" font-size="41" transform="matrix(6.12323e-17 -1 1 6.12323e-17 6886.39 4408)">Jan 1994</text></g><g><text fill="#595959" font-family="Aptos Narrow,Aptos Narrow_MSFontService,sans-serif" font-weight="400" font-stretch="semi-condensed" font-size="41" transform="matrix(6.12323e-17 -1 1 6.12323e-17 6939.38 4420)">Dec 1994</text></g><g><text fill="#595959" font-family="Aptos Narrow,Aptos Narrow_MSFontService,sans-serif" font-weight="400" font-stretch="semi-condensed" font-size="41" transform="matrix(6.12323e-17 -1 1 6.12323e-17 6992.37 4419)">Nov 1995</text></g><g><text fill="#595959" font-family="Aptos Narrow,Aptos Narrow_MSFontService,sans-serif" font-weight="400" font-stretch="semi-condensed" font-size="41" transform="matrix(6.12323e-17 -1 1 6.12323e-17 7045.36 4414)">Oct 1996</text></g><g><text fill="#595959" font-family="Aptos Narrow,Aptos Narrow_MSFontService,sans-serif" font-weight="400" font-stretch="semi-condensed" font-size="41" transform="matrix(6.12323e-17 -1 1 6.12323e-17 7098.34 4417)">Sep 1997</text></g><g><text fill="#595959" font-family="Aptos Narrow,Aptos Narrow_MSFontService,sans-serif" font-weight="400" font-stretch="semi-condensed" font-size="41" transform="matrix(6.12323e-17 -1 1 6.12323e-17 7151.33 4416)">Aug 1998</text></g><g><text fill="#595959" font-family="Aptos Narrow,Aptos Narrow_MSFontService,sans-serif" font-weight="400" font-stretch="semi-condensed" font-size="41" transform="matrix(6.12323e-17 -1 1 6.12323e-17 7204.32 4398)">Jul 1999</text></g><g><text fill="#595959" font-family="Aptos Narrow,Aptos Narrow_MSFontService,sans-serif" font-weight="400" font-stretch="semi-condensed" font-size="41" transform="matrix(6.12323e-17 -1 1 6.12323e-17 7257.31 4409)">Jun 2000</text></g><g><text fill="#595959" font-family="Aptos Narrow,Aptos Narrow_MSFontService,sans-serif" font-weight="400" font-stretch="semi-condensed" font-size="41" transform="matrix(6.12323e-17 -1 1 6.12323e-17 7310.3 4421)">May 2001</text></g><g><text fill="#595959" font-family="Aptos Narrow,Aptos Narrow_MSFontService,sans-serif" font-weight="400" font-stretch="semi-condensed" font-size="41" transform="matrix(6.12323e-17 -1 1 6.12323e-17 7363.28 4410)">Apr 2002</text></g><g><text fill="#595959" font-family="Aptos Narrow,Aptos Narrow_MSFontService,sans-serif" font-weight="400" font-stretch="semi-condensed" font-size="41" transform="matrix(6.12323e-17 -1 1 6.12323e-17 7416.27 4417)">Mar 2003</text></g><g><text fill="#595959" font-family="Aptos Narrow,Aptos Narrow_MSFontService,sans-serif" font-weight="400" font-stretch="semi-condensed" font-size="41" transform="matrix(6.12323e-17 -1 1 6.12323e-17 7469.26 4415)">Feb 2004</text></g><g><text fill="#595959" font-family="Aptos Narrow,Aptos Narrow_MSFontService,sans-serif" font-weight="400" font-stretch="semi-condensed" font-size="41" transform="matrix(6.12323e-17 -1 1 6.12323e-17 7522.25 4408)">Jan 2005</text></g><g><text fill="#595959" font-family="Aptos Narrow,Aptos Narrow_MSFontService,sans-serif" font-weight="400" font-stretch="semi-condensed" font-size="41" transform="matrix(6.12323e-17 -1 1 6.12323e-17 7575.24 4420)">Dec 2005</text></g><g><text fill="#595959" font-family="Aptos Narrow,Aptos Narrow_MSFontService,sans-serif" font-weight="400" font-stretch="semi-condensed" font-size="41" transform="matrix(6.12323e-17 -1 1 6.12323e-17 7628.22 4419)">Nov 2006</text></g><g><text fill="#595959" font-family="Aptos Narrow,Aptos Narrow_MSFontService,sans-serif" font-weight="400" font-stretch="semi-condensed" font-size="41" transform="matrix(6.12323e-17 -1 1 6.12323e-17 7681.21 4414)">Oct 2007</text></g><g><text fill="#595959" font-family="Aptos Narrow,Aptos Narrow_MSFontService,sans-serif" font-weight="400" font-stretch="semi-condensed" font-size="41" transform="matrix(6.12323e-17 -1 1 6.12323e-17 7734.2 4417)">Sep 2008</text></g><g><text fill="#595959" font-family="Aptos Narrow,Aptos Narrow_MSFontService,sans-serif" font-weight="400" font-stretch="semi-condensed" font-size="41" transform="matrix(6.12323e-17 -1 1 6.12323e-17 7787.19 4416)">Aug 2009</text></g><g><text fill="#595959" font-family="Aptos Narrow,Aptos Narrow_MSFontService,sans-serif" font-weight="400" font-stretch="semi-condensed" font-size="41" transform="matrix(6.12323e-17 -1 1 6.12323e-17 7840.17 4398)">Jul 2010</text></g><g><text fill="#595959" font-family="Aptos Narrow,Aptos Narrow_MSFontService,sans-serif" font-weight="400" font-stretch="semi-condensed" font-size="41" transform="matrix(6.12323e-17 -1 1 6.12323e-17 7893.16 4409)">Jun 2011</text></g><g><text fill="#595959" font-family="Aptos Narrow,Aptos Narrow_MSFontService,sans-serif" font-weight="400" font-stretch="semi-condensed" font-size="41" transform="matrix(6.12323e-17 -1 1 6.12323e-17 7946.15 4421)">May 2012</text></g><g><text fill="#595959" font-family="Aptos Narrow,Aptos Narrow_MSFontService,sans-serif" font-weight="400" font-stretch="semi-condensed" font-size="41" transform="matrix(6.12323e-17 -1 1 6.12323e-17 7999.14 4410)">Apr 2013</text></g><g><text fill="#595959" font-family="Aptos Narrow,Aptos Narrow_MSFontService,sans-serif" font-weight="400" font-stretch="semi-condensed" font-size="41" transform="matrix(6.12323e-17 -1 1 6.12323e-17 8052.13 4417)">Mar 2014</text></g><g><text fill="#595959" font-family="Aptos Narrow,Aptos Narrow_MSFontService,sans-serif" font-weight="400" font-stretch="semi-condensed" font-size="41" transform="matrix(6.12323e-17 -1 1 6.12323e-17 8105.11 4415)">Feb 2015</text></g><g><text fill="#595959" font-family="Aptos Narrow,Aptos Narrow_MSFontService,sans-serif" font-weight="400" font-stretch="semi-condensed" font-size="41" transform="matrix(6.12323e-17 -1 1 6.12323e-17 8158.1 4408)">Jan 2016</text></g><g><text fill="#595959" font-family="Aptos Narrow,Aptos Narrow_MSFontService,sans-serif" font-weight="400" font-stretch="semi-condensed" font-size="41" transform="matrix(6.12323e-17 -1 1 6.12323e-17 8211.09 4420)">Dec 2016</text></g><g><text fill="#595959" font-family="Aptos Narrow,Aptos Narrow_MSFontService,sans-serif" font-weight="400" font-stretch="semi-condensed" font-size="41" transform="matrix(6.12323e-17 -1 1 6.12323e-17 8264.08 4419)">Nov 2017</text></g><g><text fill="#595959" font-family="Aptos Narrow,Aptos Narrow_MSFontService,sans-serif" font-weight="400" font-stretch="semi-condensed" font-size="41" transform="matrix(6.12323e-17 -1 1 6.12323e-17 8317.06 4414)">Oct 2018</text></g><g><text fill="#595959" font-family="Aptos Narrow,Aptos Narrow_MSFontService,sans-serif" font-weight="400" font-stretch="semi-condensed" font-size="41" transform="matrix(6.12323e-17 -1 1 6.12323e-17 8370.05 4417)">Sep 2019</text></g><g><text fill="#595959" font-family="Aptos Narrow,Aptos Narrow_MSFontService,sans-serif" font-weight="400" font-stretch="semi-condensed" font-size="41" transform="matrix(6.12323e-17 -1 1 6.12323e-17 8423.04 4416)">Aug 2020</text></g><g><text fill="#595959" font-family="Aptos Narrow,Aptos Narrow_MSFontService,sans-serif" font-weight="400" font-stretch="semi-condensed" font-size="41" transform="matrix(6.12323e-17 -1 1 6.12323e-17 8476.03 4398)">Jul 2021</text></g><g><text fill="#595959" font-family="Aptos Narrow,Aptos Narrow_MSFontService,sans-serif" font-weight="400" font-stretch="semi-condensed" font-size="41" transform="matrix(6.12323e-17 -1 1 6.12323e-17 8529.02 4409)">Jun 2022</text></g><g><text fill="#595959" font-family="Aptos Narrow,Aptos Narrow_MSFontService,sans-serif" font-weight="400" font-stretch="semi-condensed" font-size="41" transform="matrix(6.12323e-17 -1 1 6.12323e-17 8582 4421)">May 2023</text></g><g><text fill="#595959" font-family="Aptos Narrow,Aptos Narrow_MSFontService,sans-serif" font-weight="400" font-stretch="semi-condensed" font-size="41" transform="matrix(6.12323e-17 -1 1 6.12323e-17 8634.99 4410)">Apr 2024</text></g></g></svg>