<svg width="1260" height="1045" xmlns="http://www.w3.org/2000/svg" xmlns:xlink="http://www.w3.org/1999/xlink" xml:space="preserve" overflow="hidden"><defs><clipPath id="clip0"><rect x="6153" y="3467" width="1260" height="1045"/></clipPath></defs><g clip-path="url(#clip0)" transform="translate(-6153 -3467)"><rect x="6154" y="3468" width="1258" height="1043" fill="#FFFFFF"/><g><rect x="6294" y="3638" width="1067" height="733" fill="#FFFFFF"/></g><g><path d="M6293.5 4371.5 7361.5 4371.5" stroke="#D9D9D9" stroke-width="3.4375" stroke-linejoin="round" stroke-miterlimit="10" fill="none" fill-rule="evenodd"/></g><g><path d="M7013.5 4350.5 7028.73 4351.64 7043.73 4351.64 7059.73 4350.64 7074.73 4352.64 7090.73 4353.64 7105.73 4353.64 7121.73 4353.64 7136.73 4353.64 7152.73 4353.64 7167.74 4354.64 7183.74 4354.64 7198.74 4354.64 7213.74 4354.64 7229.74 4354.64 7244.74 4355.64 7260.74 4356.64 7275.74 4356.64 7291.74 4357.5 7306.74 4357.64 7322.74 4355.64 7337.74 4355.64 7353.5 4356.64" stroke="#00B050" stroke-width="6.875" stroke-linecap="round" stroke-linejoin="round" stroke-miterlimit="10" fill="none"/></g><g><path d="M7013.5 4178.5 7028.73 4183.64 7043.73 4187.64 7059.73 4188.64 7074.73 4191.64 7090.73 4192.64 7105.73 4195.64 7121.73 4198.64 7136.73 4207.64 7152.73 4209.64 7167.74 4209.64 7183.74 4211.64 7198.74 4215.64 7213.74 4220.64 7229.74 4222.64 7244.74 4223.64 7260.74 4223.64 7275.74 4223.64 7291.74 4221.64 7306.74 4222.64 7322.74 4225.64 7337.74 4231.5 7353.5 4230.64" stroke="#D26E2A" stroke-width="6.875" stroke-linecap="round" stroke-linejoin="round" stroke-miterlimit="10" fill="none"/></g><g><path d="M7013.5 3769.5 7028.73 3762.62 7043.73 3759.62 7059.73 3758.62 7074.73 3753.62 7090.73 3751.62 7105.73 3749.62 7121.73 3746.62 7136.73 3737.62 7152.73 3735.62 7167.74 3734.62 7183.74 3732.62 7198.74 3728.62 7213.74 3723.62 7229.74 3720.62 7244.74 3718.62 7260.74 3718.62 7275.74 3717.62 7291.74 3719.62 7306.74 3718.62 7322.74 3717.62 7337.74 3710.5 7353.5 3711.62" stroke="#7F7F7F" stroke-width="6.875" stroke-linecap="round" stroke-linejoin="round" stroke-miterlimit="10" fill="none"/></g><g><path d="M7013.5 4350.5 7028.73 4351.64 7043.73 4351.64 7059.73 4350.64 7074.73 4352.64 7090.73 4353.64 7105.73 4353.64 7121.73 4353.64 7136.73 4353.64 7152.73 4353.64 7167.74 4354.64 7183.74 4354.64 7198.74 4354.64 7213.74 4354.64 7229.74 4354.64 7244.74 4355.64 7260.74 4356.64 7275.74 4356.64 7291.74 4357.5 7306.74 4357.64 7322.74 4355.64 7337.74 4355.64 7353.5 4356.64" stroke="#00B050" stroke-width="6.875" stroke-linecap="round" stroke-linejoin="round" stroke-miterlimit="10" fill="none"/></g><g><path d="M7013.5 4178.5 7028.73 4183.64 7043.73 4187.64 7059.73 4188.64 7074.73 4191.64 7090.73 4192.64 7105.73 4195.64 7121.73 4198.64 7136.73 4207.64 7152.73 4209.64 7167.74 4209.64 7183.74 4211.64 7198.74 4215.64 7213.74 4220.64 7229.74 4222.64 7244.74 4223.64 7260.74 4223.64 7275.74 4223.64 7291.74 4221.64 7306.74 4222.64 7322.74 4225.64 7337.74 4231.5 7353.5 4230.64" stroke="#3B64AD" stroke-width="6.875" stroke-linecap="round" stroke-linejoin="round" stroke-miterlimit="10" fill="none"/></g><g><path d="M7013.5 3769.5 7028.73 3762.62 7043.73 3759.62 7059.73 3758.62 7074.73 3753.62 7090.73 3751.62 7105.73 3749.62 7121.73 3746.62 7136.73 3737.62 7152.73 3735.62 7167.74 3734.62 7183.74 3732.62 7198.74 3728.62 7213.74 3723.62 7229.74 3720.62 7244.74 3718.62 7260.74 3718.62 7275.74 3717.62 7291.74 3719.62 7306.74 3718.62 7322.74 3717.62 7337.74 3710.5 7353.5 3711.62" stroke="#7F7F7F" stroke-width="6.875" stroke-linecap="round" stroke-linejoin="round" stroke-miterlimit="10" fill="none"/></g><g><text fill="#595959" font-family="Calibri,Calibri_MSFontService,sans-serif" font-weight="400" font-size="41" transform="matrix(1 0 0 1 6204.9 4383)">0%</text></g><g><text fill="#595959" font-family="Calibri,Calibri_MSFontService,sans-serif" font-weight="400" font-size="41" transform="matrix(1 0 0 1 6184 4301)">10%</text></g><g><text fill="#595959" font-family="Calibri,Calibri_MSFontService,sans-serif" font-weight="400" font-size="41" transform="matrix(1 0 0 1 6184 4220)">20%</text></g><g><text fill="#595959" font-family="Calibri,Calibri_MSFontService,sans-serif" font-weight="400" font-size="41" transform="matrix(1 0 0 1 6184 4138)">30%</text></g><g><text fill="#595959" font-family="Calibri,Calibri_MSFontService,sans-serif" font-weight="400" font-size="41" transform="matrix(1 0 0 1 6184 4057)">40%</text></g><g><text fill="#595959" font-family="Calibri,Calibri_MSFontService,sans-serif" font-weight="400" font-size="41" transform="matrix(1 0 0 1 6184 3975)">50%</text></g><g><text fill="#595959" font-family="Calibri,Calibri_MSFontService,sans-serif" font-weight="400" font-size="41" transform="matrix(1 0 0 1 6184 3894)">60%</text></g><g><text fill="#595959" font-family="Calibri,Calibri_MSFontService,sans-serif" font-weight="400" font-size="41" transform="matrix(1 0 0 1 6184 3812)">70%</text></g><g><text fill="#595959" font-family="Calibri,Calibri_MSFontService,sans-serif" font-weight="400" font-size="41" transform="matrix(1 0 0 1 6184 3731)">80%</text></g><g><text fill="#595959" font-family="Calibri,Calibri_MSFontService,sans-serif" font-weight="400" font-size="41" transform="matrix(1 0 0 1 6184 3649)">90%</text></g><g><text fill="#595959" font-family="Calibri,Calibri_MSFontService,sans-serif" font-weight="400" font-size="41" transform="matrix(6.12323e-17 -1 1 6.12323e-17 6315.12 4481)">1955</text></g><g><text fill="#595959" font-family="Calibri,Calibri_MSFontService,sans-serif" font-weight="400" font-size="41" transform="matrix(6.12323e-17 -1 1 6.12323e-17 6377.02 4481)">1959</text></g><g><text fill="#595959" font-family="Calibri,Calibri_MSFontService,sans-serif" font-weight="400" font-size="41" transform="matrix(6.12323e-17 -1 1 6.12323e-17 6438.91 4481)">1963</text></g><g><text fill="#595959" font-family="Calibri,Calibri_MSFontService,sans-serif" font-weight="400" font-size="41" transform="matrix(6.12323e-17 -1 1 6.12323e-17 6500.8 4481)">1967</text></g><g><text fill="#595959" font-family="Calibri,Calibri_MSFontService,sans-serif" font-weight="400" font-size="41" transform="matrix(6.12323e-17 -1 1 6.12323e-17 6562.69 4481)">1971</text></g><g><text fill="#595959" font-family="Calibri,Calibri_MSFontService,sans-serif" font-weight="400" font-size="41" transform="matrix(6.12323e-17 -1 1 6.12323e-17 6624.58 4481)">1975</text></g><g><text fill="#595959" font-family="Calibri,Calibri_MSFontService,sans-serif" font-weight="400" font-size="41" transform="matrix(6.12323e-17 -1 1 6.12323e-17 6686.47 4481)">1979</text></g><g><text fill="#595959" font-family="Calibri,Calibri_MSFontService,sans-serif" font-weight="400" font-size="41" transform="matrix(6.12323e-17 -1 1 6.12323e-17 6748.36 4481)">1983</text></g><g><text fill="#595959" font-family="Calibri,Calibri_MSFontService,sans-serif" font-weight="400" font-size="41" transform="matrix(6.12323e-17 -1 1 6.12323e-17 6810.26 4481)">1987</text></g><g><text fill="#595959" font-family="Calibri,Calibri_MSFontService,sans-serif" font-weight="400" font-size="41" transform="matrix(6.12323e-17 -1 1 6.12323e-17 6872.15 4481)">1991</text></g><g><text fill="#595959" font-family="Calibri,Calibri_MSFontService,sans-serif" font-weight="400" font-size="41" transform="matrix(6.12323e-17 -1 1 6.12323e-17 6934.04 4481)">1995</text></g><g><text fill="#595959" font-family="Calibri,Calibri_MSFontService,sans-serif" font-weight="400" font-size="41" transform="matrix(6.12323e-17 -1 1 6.12323e-17 6995.93 4481)">1999</text></g><g><text fill="#595959" font-family="Calibri,Calibri_MSFontService,sans-serif" font-weight="400" font-size="41" transform="matrix(6.12323e-17 -1 1 6.12323e-17 7057.82 4481)">2003</text></g><g><text fill="#595959" font-family="Calibri,Calibri_MSFontService,sans-serif" font-weight="400" font-size="41" transform="matrix(6.12323e-17 -1 1 6.12323e-17 7119.71 4481)">2007</text></g><g><text fill="#595959" font-family="Calibri,Calibri_MSFontService,sans-serif" font-weight="400" font-size="41" transform="matrix(6.12323e-17 -1 1 6.12323e-17 7181.6 4481)">2011</text></g><g><text fill="#595959" font-family="Calibri,Calibri_MSFontService,sans-serif" font-weight="400" font-size="41" transform="matrix(6.12323e-17 -1 1 6.12323e-17 7243.5 4481)">2015</text></g><g><text fill="#595959" font-family="Calibri,Calibri_MSFontService,sans-serif" font-weight="400" font-size="41" transform="matrix(6.12323e-17 -1 1 6.12323e-17 7305.39 4481)">2019</text></g><g><text fill="#595959" font-family="Calibri,Calibri_MSFontService,sans-serif" font-weight="400" font-size="41" transform="matrix(6.12323e-17 -1 1 6.12323e-17 7367.28 4481)">2023</text></g><g><text fill="#595959" font-family="Calibri,Calibri_MSFontService,sans-serif" font-weight="400" font-size="64" transform="matrix(1 0 0 1 6680.14 3563)">Sweden</text></g><rect x="6154" y="3468" width="1258" height="1043" stroke="#898989" stroke-width="2.29167" stroke-linejoin="round" stroke-miterlimit="10" fill="none"/></g></svg>