<svg width="1262" height="1023" xmlns="http://www.w3.org/2000/svg" xmlns:xlink="http://www.w3.org/1999/xlink" xml:space="preserve" overflow="hidden"><defs><clipPath id="clip0"><rect x="4595" y="4536" width="1262" height="1023"/></clipPath></defs><g clip-path="url(#clip0)" transform="translate(-4595 -4536)"><rect x="4596" y="4537" width="1260" height="1021" fill="#FFFFFF"/><g><rect x="4735" y="4707" width="1070" height="712" fill="#FFFFFF"/></g><g><path d="M4735.5 5418.5 5805.5 5418.5" stroke="#D9D9D9" stroke-width="3.4375" stroke-linejoin="round" stroke-miterlimit="10" fill="none" fill-rule="evenodd"/></g><g><path d="M5394.5 5406.5 5409.68 5407.68 5425.68 5408.68 5440.68 5409.68 5456.68 5409.68 5471.68 5410.68 5487.68 5410.68 5502.68 5411.68 5518.68 5410.68 5533.68 5410.68 5549.68 5410.68 5564.68 5410.68 5580.68 5409.68 5595.68 5408.68 5611.68 5408.68 5626.68 5409.68 5642.69 5410.68 5657.69 5408.68 5673.69 5409.68 5688.69 5409.68 5704.69 5409.68 5719.69 5410.68 5735.69 5410.68 5750.69 5410.68 5766.69 5411.68 5781.69 5412.5 5797.5 5411.68" stroke="#00B050" stroke-width="6.875" stroke-linecap="round" stroke-linejoin="round" stroke-miterlimit="10" fill="none"/></g><g><path d="M5394.5 5219.5 5409.68 5220.67 5425.68 5226.67 5440.68 5231.67 5456.68 5234.67 5471.68 5238.67 5487.68 5245.67 5502.68 5249.67 5518.68 5250.67 5533.68 5251.67 5549.68 5250.67 5564.68 5255.67 5580.68 5264.67 5595.68 5267.67 5611.68 5268.67 5626.68 5269.67 5642.69 5270.67 5657.69 5269.67 5673.69 5272.67 5688.69 5273.67 5704.69 5275.67 5719.69 5276.67 5735.69 5275.67 5750.69 5283.67 5766.69 5285.67 5781.69 5287.67 5797.5 5293.5" stroke="#3B64AD" stroke-width="6.875" stroke-linecap="round" stroke-linejoin="round" stroke-miterlimit="10" fill="none"/></g><g><path d="M5394.5 4839.5 5409.68 4836.66 5425.68 4829.66 5440.68 4824.66 5456.68 4819.66 5471.68 4815.66 5487.68 4807.66 5502.68 4804.66 5518.68 4803.66 5533.68 4802.66 5549.68 4803.66 5564.68 4798.66 5580.68 4789.66 5595.68 4787.66 5611.68 4787.66 5626.68 4785.66 5642.69 4783.66 5657.69 4785.66 5673.69 4782.66 5688.69 4781.66 5704.69 4779.66 5719.69 4778.66 5735.69 4778.66 5750.69 4770.66 5766.69 4767.66 5781.69 4764.66 5797.5 4759.5" stroke="#7F7F7F" stroke-width="6.875" stroke-linecap="round" stroke-linejoin="round" stroke-miterlimit="10" fill="none"/></g><g><text fill="#595959" font-family="Calibri,Calibri_MSFontService,sans-serif" font-weight="400" font-size="41" transform="matrix(1 0 0 1 4646.61 5430)">0%</text></g><g><text fill="#595959" font-family="Calibri,Calibri_MSFontService,sans-serif" font-weight="400" font-size="41" transform="matrix(1 0 0 1 4625.71 5351)">10%</text></g><g><text fill="#595959" font-family="Calibri,Calibri_MSFontService,sans-serif" font-weight="400" font-size="41" transform="matrix(1 0 0 1 4625.71 5272)">20%</text></g><g><text fill="#595959" font-family="Calibri,Calibri_MSFontService,sans-serif" font-weight="400" font-size="41" transform="matrix(1 0 0 1 4625.71 5193)">30%</text></g><g><text fill="#595959" font-family="Calibri,Calibri_MSFontService,sans-serif" font-weight="400" font-size="41" transform="matrix(1 0 0 1 4625.71 5114)">40%</text></g><g><text fill="#595959" font-family="Calibri,Calibri_MSFontService,sans-serif" font-weight="400" font-size="41" transform="matrix(1 0 0 1 4625.71 5035)">50%</text></g><g><text fill="#595959" font-family="Calibri,Calibri_MSFontService,sans-serif" font-weight="400" font-size="41" transform="matrix(1 0 0 1 4625.71 4956)">60%</text></g><g><text fill="#595959" font-family="Calibri,Calibri_MSFontService,sans-serif" font-weight="400" font-size="41" transform="matrix(1 0 0 1 4625.71 4876)">70%</text></g><g><text fill="#595959" font-family="Calibri,Calibri_MSFontService,sans-serif" font-weight="400" font-size="41" transform="matrix(1 0 0 1 4625.71 4797)">80%</text></g><g><text fill="#595959" font-family="Calibri,Calibri_MSFontService,sans-serif" font-weight="400" font-size="41" transform="matrix(1 0 0 1 4625.71 4718)">90%</text></g><g><text fill="#595959" font-family="Calibri,Calibri_MSFontService,sans-serif" font-weight="400" font-size="41" transform="matrix(6.12323e-17 -1 1 6.12323e-17 4756.85 5528)">1955</text></g><g><text fill="#595959" font-family="Calibri,Calibri_MSFontService,sans-serif" font-weight="400" font-size="41" transform="matrix(6.12323e-17 -1 1 6.12323e-17 4818.89 5528)">1959</text></g><g><text fill="#595959" font-family="Calibri,Calibri_MSFontService,sans-serif" font-weight="400" font-size="41" transform="matrix(6.12323e-17 -1 1 6.12323e-17 4880.92 5528)">1963</text></g><g><text fill="#595959" font-family="Calibri,Calibri_MSFontService,sans-serif" font-weight="400" font-size="41" transform="matrix(6.12323e-17 -1 1 6.12323e-17 4942.96 5528)">1967</text></g><g><text fill="#595959" font-family="Calibri,Calibri_MSFontService,sans-serif" font-weight="400" font-size="41" transform="matrix(6.12323e-17 -1 1 6.12323e-17 5004.99 5528)">1971</text></g><g><text fill="#595959" font-family="Calibri,Calibri_MSFontService,sans-serif" font-weight="400" font-size="41" transform="matrix(6.12323e-17 -1 1 6.12323e-17 5067.03 5528)">1975</text></g><g><text fill="#595959" font-family="Calibri,Calibri_MSFontService,sans-serif" font-weight="400" font-size="41" transform="matrix(6.12323e-17 -1 1 6.12323e-17 5129.07 5528)">1979</text></g><g><text fill="#595959" font-family="Calibri,Calibri_MSFontService,sans-serif" font-weight="400" font-size="41" transform="matrix(6.12323e-17 -1 1 6.12323e-17 5191.1 5528)">1983</text></g><g><text fill="#595959" font-family="Calibri,Calibri_MSFontService,sans-serif" font-weight="400" font-size="41" transform="matrix(6.12323e-17 -1 1 6.12323e-17 5253.14 5528)">1987</text></g><g><text fill="#595959" font-family="Calibri,Calibri_MSFontService,sans-serif" font-weight="400" font-size="41" transform="matrix(6.12323e-17 -1 1 6.12323e-17 5315.17 5528)">1991</text></g><g><text fill="#595959" font-family="Calibri,Calibri_MSFontService,sans-serif" font-weight="400" font-size="41" transform="matrix(6.12323e-17 -1 1 6.12323e-17 5377.21 5528)">1995</text></g><g><text fill="#595959" font-family="Calibri,Calibri_MSFontService,sans-serif" font-weight="400" font-size="41" transform="matrix(6.12323e-17 -1 1 6.12323e-17 5439.25 5528)">1999</text></g><g><text fill="#595959" font-family="Calibri,Calibri_MSFontService,sans-serif" font-weight="400" font-size="41" transform="matrix(6.12323e-17 -1 1 6.12323e-17 5501.28 5528)">2003</text></g><g><text fill="#595959" font-family="Calibri,Calibri_MSFontService,sans-serif" font-weight="400" font-size="41" transform="matrix(6.12323e-17 -1 1 6.12323e-17 5563.32 5528)">2007</text></g><g><text fill="#595959" font-family="Calibri,Calibri_MSFontService,sans-serif" font-weight="400" font-size="41" transform="matrix(6.12323e-17 -1 1 6.12323e-17 5625.36 5528)">2011</text></g><g><text fill="#595959" font-family="Calibri,Calibri_MSFontService,sans-serif" font-weight="400" font-size="41" transform="matrix(6.12323e-17 -1 1 6.12323e-17 5687.39 5528)">2015</text></g><g><text fill="#595959" font-family="Calibri,Calibri_MSFontService,sans-serif" font-weight="400" font-size="41" transform="matrix(6.12323e-17 -1 1 6.12323e-17 5749.43 5528)">2019</text></g><g><text fill="#595959" font-family="Calibri,Calibri_MSFontService,sans-serif" font-weight="400" font-size="41" transform="matrix(6.12323e-17 -1 1 6.12323e-17 5811.46 5528)">2023</text></g><g><text fill="#595959" font-family="Calibri,Calibri_MSFontService,sans-serif" font-weight="400" font-size="64" transform="matrix(1 0 0 1 5015.48 4632)">United Kingdom</text></g><rect x="4596" y="4537" width="1260" height="1021" stroke="#898989" stroke-width="2.29167" stroke-linejoin="round" stroke-miterlimit="10" fill="none"/></g></svg>