<svg xmlns:xlink="http://www.w3.org/1999/xlink" version="1.1" style="font-family:'open sans', 'lucida grande', 'lucida sans unicode', arial, helvetica, sans-serif;font-size:12px;" xmlns="http://www.w3.org/2000/svg" width="1250" height="600"><desc>Created with Highstock 2.1.10</desc><defs><clipPath id="highcharts-43"><rect x="0" y="0" width="1184" height="371"></rect></clipPath><clipPath id="highcharts-44"><rect x="0" y="0" width="1184" height="371"></rect></clipPath><clipPath id="highcharts-45"><rect x="0" y="0" width="1156" height="20"></rect></clipPath></defs><rect x="0" y="0" width="1250" height="600" strokeWidth="0" fill="#FFFFFF" class=" highcharts-background"></rect><rect x="36" y="50" width="1184" height="371" fill="#FFFFFF"></rect><g class="highcharts-scrollbar" transform="translate(36,487)"><rect x="0" y="-0.5" fill="#eeeeee" stroke="#eeeeee" stroke-width="1" rx="0" ry="0" height="14" width="1184"></rect><rect y="-0.5" height="14" fill="#bfc8d1" stroke="#bfc8d1" stroke-width="1" rx="0" ry="0" x="14.5" width="1155"></rect><path fill="none" stroke="#666" stroke-width="1" visibility="visible" d="M 588.5 3.5 L 588.5 9.333333333333334 M 591.5 3.5 L 591.5 9.333333333333334 M 594.5 3.5 L 594.5 9.333333333333334"></path><g><rect x="-0.5" y="-0.5" width="14" height="14" strokeWidth="1" stroke="#bbb" stroke-width="1" fill="#ebe7e8"></rect><path fill="#666" d="M 8 4 L 8 10 5 7"></path></g><g transform="translate(1170,0)"><rect x="-0.5" y="-0.5" width="14" height="14" strokeWidth="1" stroke="#bbb" stroke-width="1" fill="#ebe7e8"></rect><path fill="#666" d="M 6 4 L 6 10 9 7"></path></g></g><text x="20" y="15" transform="translate(0,0)" style="color:#000000;font-size:12px;fill:#000000;"></text><text x="20" y="525" transform="translate(0,0)" style="color:#000000;font-size:12px;fill:#000000;"></text><text x="20" y="565" transform="translate(0,0)" style="color:#000000;font-size:12px;fill:#000000;"><tspan>Source: World Development Indicators</tspan></text><text x="20" y="545" transform="translate(0,0)" style="color:#000000;font-size:12px;fill:#000000;"><tspan>Series : Employment in industry (% of total employment) (modeled ILO estimate)</tspan></text><text x="20" y="585" transform="translate(0,0)" style="color:#000000;font-size:12px;fill:#000000;"><tspan>Created on: 10/08/2024</tspan></text><g class="highcharts-grid" ></g><g class="highcharts-grid" ><path fill="none" d="M 194.5 466 L 194.5 486" stroke="#EEE" stroke-width="1"  opacity="1"></path><path fill="none" d="M 374.5 466 L 374.5 486" stroke="#EEE" stroke-width="1"  opacity="1"></path><path fill="none" d="M 555.5 466 L 555.5 486" stroke="#EEE" stroke-width="1"  opacity="1"></path><path fill="none" d="M 735.5 466 L 735.5 486" stroke="#EEE" stroke-width="1"  opacity="1"></path><path fill="none" d="M 916.5 466 L 916.5 486" stroke="#EEE" stroke-width="1"  opacity="1"></path><path fill="none" d="M 1097.5 466 L 1097.5 486" stroke="#EEE" stroke-width="1"  opacity="1"></path></g><g class="highcharts-grid" ><path fill="none" d="M 36 421.5 L 1220 421.5" stroke="#D8D8D8" stroke-width="1" stroke-dasharray="none"  opacity="1"></path><path fill="none" d="M 36 347.5 L 1220 347.5" stroke="#D8D8D8" stroke-width="1" stroke-dasharray="none"  opacity="1"></path><path fill="none" d="M 36 273.5 L 1220 273.5" stroke="#D8D8D8" stroke-width="1" stroke-dasharray="none"  opacity="1"></path><path fill="none" d="M 36 198.5 L 1220 198.5" stroke="#D8D8D8" stroke-width="1" stroke-dasharray="none"  opacity="1"></path><path fill="none" d="M 36 124.5 L 1220 124.5" stroke="#D8D8D8" stroke-width="1" stroke-dasharray="none"  opacity="1"></path><path fill="none" d="M 36 49.5 L 1220 49.5" stroke="#D8D8D8" stroke-width="1" stroke-dasharray="none"  opacity="1"></path></g><g class="highcharts-grid" ></g><g class="highcharts-axis" ><path fill="none" d="M 35.5 421 L 35.5 431" stroke="#C0D0E0" stroke-width="1" opacity="1"></path><path fill="none" d="M 257.5 421 L 257.5 431" stroke="#C0D0E0" stroke-width="1" opacity="1"></path><path fill="none" d="M 479.5 421 L 479.5 431" stroke="#C0D0E0" stroke-width="1" opacity="1"></path><path fill="none" d="M 701.5 421 L 701.5 431" stroke="#C0D0E0" stroke-width="1" opacity="1"></path><path fill="none" d="M 923.5 421 L 923.5 431" stroke="#C0D0E0" stroke-width="1" opacity="1"></path><path fill="none" d="M 1145.5 421 L 1145.5 431" stroke="#C0D0E0" stroke-width="1" opacity="1"></path><path fill="none" d="M 1220.5 421 L 1220.5 431" stroke="#C0D0E0" stroke-width="1" opacity="1"></path><path fill="none" d="M 36 421.5 L 1220 421.5" stroke="#FFFFFF" stroke-width="1" ></path></g><g class="highcharts-axis" ></g><g class="highcharts-axis" ></g><g class="highcharts-axis" ></g><g class="highcharts-series-group" ><g class="highcharts-series highcharts-series-0"  transform="translate(36,50) scale(1 1)" clip-path="url(#highcharts-44)"><path fill="none" d="M 0 80.13599999999997 L 36.97467488021903 83.846 L 74.05065023956195 90.524 L 111.02532511978097 97.202 L 148 103.88 L 184.97467488021903 109.07400000000001 L 222.05065023956195 113.52599999999995 L 259.025325119781 115.75200000000001 L 296 120.20400000000004 L 332.974674880219 122.43 L 370.05065023956195 127.62400000000002 L 407.025325119781 130.592 L 444 138.012 L 480.974674880219 138.754 L 518.050650239562 149.884 L 555.025325119781 150.626 L 592 149.14200000000002 L 628.974674880219 153.594 L 666.050650239562 157.304 L 703.025325119781 161.014 L 740 161.756 L 776.974674880219 161.756 L 814.050650239562 164.724 L 851.025325119781 162.498 L 888 165.466 L 924.974674880219 167.692 L 962.050650239562 167.692 L 999.025325119781 168.434 L 1036 169.17600000000002 L 1072.974674880219 167.692 L 1110.050650239562 166.208 L 1147.025325119781 171.40200000000002" stroke="#004324" stroke-width="2"  stroke-linejoin="round" stroke-linecap="round"></path></g><g class="highcharts-markers highcharts-series-0"  transform="translate(36,50) scale(1 1)" clip-path="none"><path fill="#004324" d="M 1147 169.40200000000002 C 1149.664 169.40200000000002 1149.664 173.40200000000002 1147 173.40200000000002 C 1144.336 173.40200000000002 1144.336 169.40200000000002 1147 169.40200000000002 Z" stroke="#004324" stroke-width="2"></path><path fill="#004324" d="M 1110 164.208 C 1112.664 164.208 1112.664 168.208 1110 168.208 C 1107.336 168.208 1107.336 164.208 1110 164.208 Z" stroke="#004324" stroke-width="2"></path><path fill="#004324" d="M 1072 165.692 C 1074.664 165.692 1074.664 169.692 1072 169.692 C 1069.336 169.692 1069.336 165.692 1072 165.692 Z" stroke="#004324" stroke-width="2"></path><path fill="#004324" d="M 1036 167.17600000000002 C 1038.664 167.17600000000002 1038.664 171.17600000000002 1036 171.17600000000002 C 1033.336 171.17600000000002 1033.336 167.17600000000002 1036 167.17600000000002 Z" stroke="#004324" stroke-width="2"></path><path fill="#004324" d="M 999 166.434 C 1001.664 166.434 1001.664 170.434 999 170.434 C 996.336 170.434 996.336 166.434 999 166.434 Z" stroke="#004324" stroke-width="2"></path><path fill="#004324" d="M 962 165.692 C 964.664 165.692 964.664 169.692 962 169.692 C 959.336 169.692 959.336 165.692 962 165.692 Z" stroke="#004324" stroke-width="2"></path><path fill="#004324" d="M 924 165.692 C 926.664 165.692 926.664 169.692 924 169.692 C 921.336 169.692 921.336 165.692 924 165.692 Z" stroke="#004324" stroke-width="2"></path><path fill="#004324" d="M 888 163.466 C 890.664 163.466 890.664 167.466 888 167.466 C 885.336 167.466 885.336 163.466 888 163.466 Z" stroke="#004324" stroke-width="2"></path><path fill="#004324" d="M 851 160.498 C 853.664 160.498 853.664 164.498 851 164.498 C 848.336 164.498 848.336 160.498 851 160.498 Z" stroke="#004324" stroke-width="2"></path><path fill="#004324" d="M 814 162.724 C 816.664 162.724 816.664 166.724 814 166.724 C 811.336 166.724 811.336 162.724 814 162.724 Z" stroke="#004324" stroke-width="2"></path><path fill="#004324" d="M 776 159.756 C 778.664 159.756 778.664 163.756 776 163.756 C 773.336 163.756 773.336 159.756 776 159.756 Z" stroke="#004324" stroke-width="2"></path><path fill="#004324" d="M 740 159.756 C 742.664 159.756 742.664 163.756 740 163.756 C 737.336 163.756 737.336 159.756 740 159.756 Z" stroke="#004324" stroke-width="2"></path><path fill="#004324" d="M 703 159.014 C 705.664 159.014 705.664 163.014 703 163.014 C 700.336 163.014 700.336 159.014 703 159.014 Z" stroke="#004324" stroke-width="2"></path><path fill="#004324" d="M 666 155.304 C 668.664 155.304 668.664 159.304 666 159.304 C 663.336 159.304 663.336 155.304 666 155.304 Z" stroke="#004324" stroke-width="2"></path><path fill="#004324" d="M 628 151.594 C 630.664 151.594 630.664 155.594 628 155.594 C 625.336 155.594 625.336 151.594 628 151.594 Z" stroke="#004324" stroke-width="2"></path><path fill="#004324" d="M 592 147.14200000000002 C 594.664 147.14200000000002 594.664 151.14200000000002 592 151.14200000000002 C 589.336 151.14200000000002 589.336 147.14200000000002 592 147.14200000000002 Z" stroke="#004324" stroke-width="2"></path><path fill="#004324" d="M 555 148.626 C 557.664 148.626 557.664 152.626 555 152.626 C 552.336 152.626 552.336 148.626 555 148.626 Z" stroke="#004324" stroke-width="2"></path><path fill="#004324" d="M 518 147.884 C 520.664 147.884 520.664 151.884 518 151.884 C 515.336 151.884 515.336 147.884 518 147.884 Z" stroke="#004324" stroke-width="2"></path><path fill="#004324" d="M 480 136.754 C 482.664 136.754 482.664 140.754 480 140.754 C 477.336 140.754 477.336 136.754 480 136.754 Z" stroke="#004324" stroke-width="2"></path><path fill="#004324" d="M 444 136.012 C 446.664 136.012 446.664 140.012 444 140.012 C 441.336 140.012 441.336 136.012 444 136.012 Z" stroke="#004324" stroke-width="2"></path><path fill="#004324" d="M 407 128.592 C 409.664 128.592 409.664 132.592 407 132.592 C 404.336 132.592 404.336 128.592 407 128.592 Z" stroke="#004324" stroke-width="2"></path><path fill="#004324" d="M 370 125.62400000000002 C 372.664 125.62400000000002 372.664 129.62400000000002 370 129.62400000000002 C 367.336 129.62400000000002 367.336 125.62400000000002 370 125.62400000000002 Z" stroke="#004324" stroke-width="2"></path><path fill="#004324" d="M 332 120.43 C 334.664 120.43 334.664 124.43 332 124.43 C 329.336 124.43 329.336 120.43 332 120.43 Z" stroke="#004324" stroke-width="2"></path><path fill="#004324" d="M 296 118.20400000000004 C 298.664 118.20400000000004 298.664 122.20400000000004 296 122.20400000000004 C 293.336 122.20400000000004 293.336 118.20400000000004 296 118.20400000000004 Z" stroke="#004324" stroke-width="2"></path><path fill="#004324" d="M 259 113.75200000000001 C 261.664 113.75200000000001 261.664 117.75200000000001 259 117.75200000000001 C 256.336 117.75200000000001 256.336 113.75200000000001 259 113.75200000000001 Z" stroke="#004324" stroke-width="2"></path><path fill="#004324" d="M 222 111.52599999999995 C 224.664 111.52599999999995 224.664 115.52599999999995 222 115.52599999999995 C 219.336 115.52599999999995 219.336 111.52599999999995 222 111.52599999999995 Z" stroke="#004324" stroke-width="2"></path><path fill="#004324" d="M 184 107.07400000000001 C 186.664 107.07400000000001 186.664 111.07400000000001 184 111.07400000000001 C 181.336 111.07400000000001 181.336 107.07400000000001 184 107.07400000000001 Z" stroke="#004324" stroke-width="2"></path><path fill="#004324" d="M 148 101.88 C 150.664 101.88 150.664 105.88 148 105.88 C 145.336 105.88 145.336 101.88 148 101.88 Z" stroke="#004324" stroke-width="2"></path><path fill="#004324" d="M 111 95.202 C 113.664 95.202 113.664 99.202 111 99.202 C 108.336 99.202 108.336 95.202 111 95.202 Z" stroke="#004324" stroke-width="2"></path><path fill="#004324" d="M 74 88.524 C 76.664 88.524 76.664 92.524 74 92.524 C 71.336 92.524 71.336 88.524 74 88.524 Z" stroke="#004324" stroke-width="2"></path><path fill="#004324" d="M 36 81.846 C 38.664 81.846 38.664 85.846 36 85.846 C 33.336 85.846 33.336 81.846 36 81.846 Z" stroke="#004324" stroke-width="2"></path><path fill="#004324" d="M 0 78.13599999999997 C 2.664 78.13599999999997 2.664 82.13599999999997 0 82.13599999999997 C -2.664 82.13599999999997 -2.664 78.13599999999997 0 78.13599999999997 Z" stroke="#004324" stroke-width="2"></path></g><g class="highcharts-series highcharts-series-1"  transform="translate(36,50) scale(1 1)" clip-path="url(#highcharts-44)"><path fill="none" d="M 0 112.04200000000003 L 36.97467488021903 114.26799999999997 L 74.05065023956195 117.97799999999998 L 111.02532511978097 120.20400000000004 L 148 120.94599999999997 L 184.97467488021903 123.17200000000003 L 222.05065023956195 129.108 L 259.025325119781 128.36599999999999 L 296 130.592 L 332.974674880219 135.044 L 370.05065023956195 135.786 L 407.025325119781 136.528 L 444 135.044 L 480.974674880219 142.464 L 518.050650239562 143.20600000000002 L 555.025325119781 147.658 L 592 147.658 L 628.974674880219 149.884 L 666.050650239562 154.336 L 703.025325119781 158.78799999999998 L 740 161.014 L 776.974674880219 166.208 L 814.050650239562 170.66 L 851.025325119781 171.40200000000002 L 888 173.628 L 924.974674880219 177.338 L 962.050650239562 178.08 L 999.025325119781 177.338 L 1036 178.822 L 1072.974674880219 175.11200000000002 L 1110.050650239562 173.628 L 1147.025325119781 171.40200000000002" stroke="#007C43" stroke-width="2"  stroke-linejoin="round" stroke-linecap="round"></path></g><g class="highcharts-markers highcharts-series-1"  transform="translate(36,50) scale(1 1)" clip-path="none"><path fill="#007C43" d="M 1147 169.40200000000002 C 1149.664 169.40200000000002 1149.664 173.40200000000002 1147 173.40200000000002 C 1144.336 173.40200000000002 1144.336 169.40200000000002 1147 169.40200000000002 Z" stroke="#007C43" stroke-width="2"></path><path fill="#007C43" d="M 1110 171.628 C 1112.664 171.628 1112.664 175.628 1110 175.628 C 1107.336 175.628 1107.336 171.628 1110 171.628 Z" stroke="#007C43" stroke-width="2"></path><path fill="#007C43" d="M 1072 173.11200000000002 C 1074.664 173.11200000000002 1074.664 177.11200000000002 1072 177.11200000000002 C 1069.336 177.11200000000002 1069.336 173.11200000000002 1072 173.11200000000002 Z" stroke="#007C43" stroke-width="2"></path><path fill="#007C43" d="M 1036 176.822 C 1038.664 176.822 1038.664 180.822 1036 180.822 C 1033.336 180.822 1033.336 176.822 1036 176.822 Z" stroke="#007C43" stroke-width="2"></path><path fill="#007C43" d="M 999 175.338 C 1001.664 175.338 1001.664 179.338 999 179.338 C 996.336 179.338 996.336 175.338 999 175.338 Z" stroke="#007C43" stroke-width="2"></path><path fill="#007C43" d="M 962 176.08 C 964.664 176.08 964.664 180.08 962 180.08 C 959.336 180.08 959.336 176.08 962 176.08 Z" stroke="#007C43" stroke-width="2"></path><path fill="#007C43" d="M 924 175.338 C 926.664 175.338 926.664 179.338 924 179.338 C 921.336 179.338 921.336 175.338 924 175.338 Z" stroke="#007C43" stroke-width="2"></path><path fill="#007C43" d="M 888 171.628 C 890.664 171.628 890.664 175.628 888 175.628 C 885.336 175.628 885.336 171.628 888 171.628 Z" stroke="#007C43" stroke-width="2"></path><path fill="#007C43" d="M 851 169.40200000000002 C 853.664 169.40200000000002 853.664 173.40200000000002 851 173.40200000000002 C 848.336 173.40200000000002 848.336 169.40200000000002 851 169.40200000000002 Z" stroke="#007C43" stroke-width="2"></path><path fill="#007C43" d="M 814 168.66 C 816.664 168.66 816.664 172.66 814 172.66 C 811.336 172.66 811.336 168.66 814 168.66 Z" stroke="#007C43" stroke-width="2"></path><path fill="#007C43" d="M 776 164.208 C 778.664 164.208 778.664 168.208 776 168.208 C 773.336 168.208 773.336 164.208 776 164.208 Z" stroke="#007C43" stroke-width="2"></path><path fill="#007C43" d="M 740 159.014 C 742.664 159.014 742.664 163.014 740 163.014 C 737.336 163.014 737.336 159.014 740 159.014 Z" stroke="#007C43" stroke-width="2"></path><path fill="#007C43" d="M 703 156.78799999999998 C 705.664 156.78799999999998 705.664 160.78799999999998 703 160.78799999999998 C 700.336 160.78799999999998 700.336 156.78799999999998 703 156.78799999999998 Z" stroke="#007C43" stroke-width="2"></path><path fill="#007C43" d="M 666 152.336 C 668.664 152.336 668.664 156.336 666 156.336 C 663.336 156.336 663.336 152.336 666 152.336 Z" stroke="#007C43" stroke-width="2"></path><path fill="#007C43" d="M 628 147.884 C 630.664 147.884 630.664 151.884 628 151.884 C 625.336 151.884 625.336 147.884 628 147.884 Z" stroke="#007C43" stroke-width="2"></path><path fill="#007C43" d="M 592 145.658 C 594.664 145.658 594.664 149.658 592 149.658 C 589.336 149.658 589.336 145.658 592 145.658 Z" stroke="#007C43" stroke-width="2"></path><path fill="#007C43" d="M 555 145.658 C 557.664 145.658 557.664 149.658 555 149.658 C 552.336 149.658 552.336 145.658 555 145.658 Z" stroke="#007C43" stroke-width="2"></path><path fill="#007C43" d="M 518 141.20600000000002 C 520.664 141.20600000000002 520.664 145.20600000000002 518 145.20600000000002 C 515.336 145.20600000000002 515.336 141.20600000000002 518 141.20600000000002 Z" stroke="#007C43" stroke-width="2"></path><path fill="#007C43" d="M 480 140.464 C 482.664 140.464 482.664 144.464 480 144.464 C 477.336 144.464 477.336 140.464 480 140.464 Z" stroke="#007C43" stroke-width="2"></path><path fill="#007C43" d="M 444 133.044 C 446.664 133.044 446.664 137.044 444 137.044 C 441.336 137.044 441.336 133.044 444 133.044 Z" stroke="#007C43" stroke-width="2"></path><path fill="#007C43" d="M 407 134.528 C 409.664 134.528 409.664 138.528 407 138.528 C 404.336 138.528 404.336 134.528 407 134.528 Z" stroke="#007C43" stroke-width="2"></path><path fill="#007C43" d="M 370 133.786 C 372.664 133.786 372.664 137.786 370 137.786 C 367.336 137.786 367.336 133.786 370 133.786 Z" stroke="#007C43" stroke-width="2"></path><path fill="#007C43" d="M 332 133.044 C 334.664 133.044 334.664 137.044 332 137.044 C 329.336 137.044 329.336 133.044 332 133.044 Z" stroke="#007C43" stroke-width="2"></path><path fill="#007C43" d="M 296 128.592 C 298.664 128.592 298.664 132.592 296 132.592 C 293.336 132.592 293.336 128.592 296 128.592 Z" stroke="#007C43" stroke-width="2"></path><path fill="#007C43" d="M 259 126.36599999999999 C 261.664 126.36599999999999 261.664 130.36599999999999 259 130.36599999999999 C 256.336 130.36599999999999 256.336 126.36599999999999 259 126.36599999999999 Z" stroke="#007C43" stroke-width="2"></path><path fill="#007C43" d="M 222 127.108 C 224.664 127.108 224.664 131.108 222 131.108 C 219.336 131.108 219.336 127.108 222 127.108 Z" stroke="#007C43" stroke-width="2"></path><path fill="#007C43" d="M 184 121.17200000000003 C 186.664 121.17200000000003 186.664 125.17200000000003 184 125.17200000000003 C 181.336 125.17200000000003 181.336 121.17200000000003 184 121.17200000000003 Z" stroke="#007C43" stroke-width="2"></path><path fill="#007C43" d="M 148 118.94599999999997 C 150.664 118.94599999999997 150.664 122.94599999999997 148 122.94599999999997 C 145.336 122.94599999999997 145.336 118.94599999999997 148 118.94599999999997 Z" stroke="#007C43" stroke-width="2"></path><path fill="#007C43" d="M 111 118.20400000000004 C 113.664 118.20400000000004 113.664 122.20400000000004 111 122.20400000000004 C 108.336 122.20400000000004 108.336 118.20400000000004 111 118.20400000000004 Z" stroke="#007C43" stroke-width="2"></path><path fill="#007C43" d="M 74 115.97799999999998 C 76.664 115.97799999999998 76.664 119.97799999999998 74 119.97799999999998 C 71.336 119.97799999999998 71.336 115.97799999999998 74 115.97799999999998 Z" stroke="#007C43" stroke-width="2"></path><path fill="#007C43" d="M 36 112.26799999999997 C 38.664 112.26799999999997 38.664 116.26799999999997 36 116.26799999999997 C 33.336 116.26799999999997 33.336 112.26799999999997 36 112.26799999999997 Z" stroke="#007C43" stroke-width="2"></path><path fill="#007C43" d="M 0 110.04200000000003 C 2.664 110.04200000000003 2.664 114.04200000000003 0 114.04200000000003 C -2.664 114.04200000000003 -2.664 110.04200000000003 0 110.04200000000003 Z" stroke="#007C43" stroke-width="2"></path></g><g class="highcharts-series highcharts-series-2"  transform="translate(36,50) scale(1 1)" clip-path="url(#highcharts-44)"><path fill="none" d="M 0 161.014 L 36.97467488021903 163.24 L 74.05065023956195 166.95 L 111.02532511978097 172.144 L 148 171.40200000000002 L 184.97467488021903 174.37 L 222.05065023956195 173.628 L 259.025325119781 175.85399999999998 L 296 175.85399999999998 L 332.974674880219 175.85399999999998 L 370.05065023956195 178.08 L 407.025325119781 182.532 L 444 192.178 L 480.974674880219 191.436 L 518.050650239562 195.14600000000002 L 555.025325119781 195.14600000000002 L 592 198.856 L 628.974674880219 198.114 L 666.050650239562 202.566 L 703.025325119781 205.534 L 740 206.276 L 776.974674880219 209.244 L 814.050650239562 212.954 L 851.025325119781 218.89000000000001 L 888 219.632 L 924.974674880219 220.374 L 962.050650239562 219.632 L 999.025325119781 221.116 L 1036 219.632 L 1072.974674880219 222.6 L 1110.050650239562 227.05200000000002 L 1147.025325119781 227.79399999999998" stroke="#00B863" stroke-width="2"  stroke-linejoin="round" stroke-linecap="round"></path></g><g class="highcharts-markers highcharts-series-2"  transform="translate(36,50) scale(1 1)" clip-path="none"><path fill="#00B863" d="M 1147 225.79399999999998 C 1149.664 225.79399999999998 1149.664 229.79399999999998 1147 229.79399999999998 C 1144.336 229.79399999999998 1144.336 225.79399999999998 1147 225.79399999999998 Z" stroke="#00B863" stroke-width="2"></path><path fill="#00B863" d="M 1110 225.05200000000002 C 1112.664 225.05200000000002 1112.664 229.05200000000002 1110 229.05200000000002 C 1107.336 229.05200000000002 1107.336 225.05200000000002 1110 225.05200000000002 Z" stroke="#00B863" stroke-width="2"></path><path fill="#00B863" d="M 1072 220.6 C 1074.664 220.6 1074.664 224.6 1072 224.6 C 1069.336 224.6 1069.336 220.6 1072 220.6 Z" stroke="#00B863" stroke-width="2"></path><path fill="#00B863" d="M 1036 217.632 C 1038.664 217.632 1038.664 221.632 1036 221.632 C 1033.336 221.632 1033.336 217.632 1036 217.632 Z" stroke="#00B863" stroke-width="2"></path><path fill="#00B863" d="M 999 219.116 C 1001.664 219.116 1001.664 223.116 999 223.116 C 996.336 223.116 996.336 219.116 999 219.116 Z" stroke="#00B863" stroke-width="2"></path><path fill="#00B863" d="M 962 217.632 C 964.664 217.632 964.664 221.632 962 221.632 C 959.336 221.632 959.336 217.632 962 217.632 Z" stroke="#00B863" stroke-width="2"></path><path fill="#00B863" d="M 924 218.374 C 926.664 218.374 926.664 222.374 924 222.374 C 921.336 222.374 921.336 218.374 924 218.374 Z" stroke="#00B863" stroke-width="2"></path><path fill="#00B863" d="M 888 217.632 C 890.664 217.632 890.664 221.632 888 221.632 C 885.336 221.632 885.336 217.632 888 217.632 Z" stroke="#00B863" stroke-width="2"></path><path fill="#00B863" d="M 851 216.89000000000001 C 853.664 216.89000000000001 853.664 220.89000000000001 851 220.89000000000001 C 848.336 220.89000000000001 848.336 216.89000000000001 851 216.89000000000001 Z" stroke="#00B863" stroke-width="2"></path><path fill="#00B863" d="M 814 210.954 C 816.664 210.954 816.664 214.954 814 214.954 C 811.336 214.954 811.336 210.954 814 210.954 Z" stroke="#00B863" stroke-width="2"></path><path fill="#00B863" d="M 776 207.244 C 778.664 207.244 778.664 211.244 776 211.244 C 773.336 211.244 773.336 207.244 776 207.244 Z" stroke="#00B863" stroke-width="2"></path><path fill="#00B863" d="M 740 204.276 C 742.664 204.276 742.664 208.276 740 208.276 C 737.336 208.276 737.336 204.276 740 204.276 Z" stroke="#00B863" stroke-width="2"></path><path fill="#00B863" d="M 703 203.534 C 705.664 203.534 705.664 207.534 703 207.534 C 700.336 207.534 700.336 203.534 703 203.534 Z" stroke="#00B863" stroke-width="2"></path><path fill="#00B863" d="M 666 200.566 C 668.664 200.566 668.664 204.566 666 204.566 C 663.336 204.566 663.336 200.566 666 200.566 Z" stroke="#00B863" stroke-width="2"></path><path fill="#00B863" d="M 628 196.114 C 630.664 196.114 630.664 200.114 628 200.114 C 625.336 200.114 625.336 196.114 628 196.114 Z" stroke="#00B863" stroke-width="2"></path><path fill="#00B863" d="M 592 196.856 C 594.664 196.856 594.664 200.856 592 200.856 C 589.336 200.856 589.336 196.856 592 196.856 Z" stroke="#00B863" stroke-width="2"></path><path fill="#00B863" d="M 555 193.14600000000002 C 557.664 193.14600000000002 557.664 197.14600000000002 555 197.14600000000002 C 552.336 197.14600000000002 552.336 193.14600000000002 555 193.14600000000002 Z" stroke="#00B863" stroke-width="2"></path><path fill="#00B863" d="M 518 193.14600000000002 C 520.664 193.14600000000002 520.664 197.14600000000002 518 197.14600000000002 C 515.336 197.14600000000002 515.336 193.14600000000002 518 193.14600000000002 Z" stroke="#00B863" stroke-width="2"></path><path fill="#00B863" d="M 480 189.436 C 482.664 189.436 482.664 193.436 480 193.436 C 477.336 193.436 477.336 189.436 480 189.436 Z" stroke="#00B863" stroke-width="2"></path><path fill="#00B863" d="M 444 190.178 C 446.664 190.178 446.664 194.178 444 194.178 C 441.336 194.178 441.336 190.178 444 190.178 Z" stroke="#00B863" stroke-width="2"></path><path fill="#00B863" d="M 407 180.532 C 409.664 180.532 409.664 184.532 407 184.532 C 404.336 184.532 404.336 180.532 407 180.532 Z" stroke="#00B863" stroke-width="2"></path><path fill="#00B863" d="M 370 176.08 C 372.664 176.08 372.664 180.08 370 180.08 C 367.336 180.08 367.336 176.08 370 176.08 Z" stroke="#00B863" stroke-width="2"></path><path fill="#00B863" d="M 332 173.85399999999998 C 334.664 173.85399999999998 334.664 177.85399999999998 332 177.85399999999998 C 329.336 177.85399999999998 329.336 173.85399999999998 332 173.85399999999998 Z" stroke="#00B863" stroke-width="2"></path><path fill="#00B863" d="M 296 173.85399999999998 C 298.664 173.85399999999998 298.664 177.85399999999998 296 177.85399999999998 C 293.336 177.85399999999998 293.336 173.85399999999998 296 173.85399999999998 Z" stroke="#00B863" stroke-width="2"></path><path fill="#00B863" d="M 259 173.85399999999998 C 261.664 173.85399999999998 261.664 177.85399999999998 259 177.85399999999998 C 256.336 177.85399999999998 256.336 173.85399999999998 259 173.85399999999998 Z" stroke="#00B863" stroke-width="2"></path><path fill="#00B863" d="M 222 171.628 C 224.664 171.628 224.664 175.628 222 175.628 C 219.336 175.628 219.336 171.628 222 171.628 Z" stroke="#00B863" stroke-width="2"></path><path fill="#00B863" d="M 184 172.37 C 186.664 172.37 186.664 176.37 184 176.37 C 181.336 176.37 181.336 172.37 184 172.37 Z" stroke="#00B863" stroke-width="2"></path><path fill="#00B863" d="M 148 169.40200000000002 C 150.664 169.40200000000002 150.664 173.40200000000002 148 173.40200000000002 C 145.336 173.40200000000002 145.336 169.40200000000002 148 169.40200000000002 Z" stroke="#00B863" stroke-width="2"></path><path fill="#00B863" d="M 111 170.144 C 113.664 170.144 113.664 174.144 111 174.144 C 108.336 174.144 108.336 170.144 111 170.144 Z" stroke="#00B863" stroke-width="2"></path><path fill="#00B863" d="M 74 164.95 C 76.664 164.95 76.664 168.95 74 168.95 C 71.336 168.95 71.336 164.95 74 164.95 Z" stroke="#00B863" stroke-width="2"></path><path fill="#00B863" d="M 36 161.24 C 38.664 161.24 38.664 165.24 36 165.24 C 33.336 165.24 33.336 161.24 36 161.24 Z" stroke="#00B863" stroke-width="2"></path><path fill="#00B863" d="M 0 159.014 C 2.664 159.014 2.664 163.014 0 163.014 C -2.664 163.014 -2.664 159.014 0 159.014 Z" stroke="#00B863" stroke-width="2"></path></g><g class="highcharts-series highcharts-series-3"  transform="translate(36,50) scale(1 1)" clip-path="url(#highcharts-44)"><path fill="none" d="M 0 168.434 L 36.97467488021903 171.40200000000002 L 74.05065023956195 175.11200000000002 L 111.02532511978097 177.338 L 148 181.79 L 184.97467488021903 178.822 L 222.05065023956195 181.048 L 259.025325119781 178.822 L 296 185.5 L 332.974674880219 189.952 L 370.05065023956195 195.14600000000002 L 407.025325119781 200.34 L 444 203.308 L 480.974674880219 204.792 L 518.050650239562 207.76 L 555.025325119781 208.502 L 592 210.72799999999998 L 628.974674880219 212.954 L 666.050650239562 221.116 L 703.025325119781 223.342 L 740 223.342 L 776.974674880219 225.56799999999998 L 814.050650239562 228.536 L 851.025325119781 232.988 L 888 235.214 L 924.974674880219 235.95600000000002 L 962.050650239562 235.95600000000002 L 999.025325119781 235.95600000000002 L 1036 234.472 L 1072.974674880219 235.214 L 1110.050650239562 236.69799999999998 L 1147.025325119781 243.376" stroke="#60DAA2" stroke-width="2"  stroke-linejoin="round" stroke-linecap="round"></path></g><g class="highcharts-markers highcharts-series-3"  transform="translate(36,50) scale(1 1)" clip-path="none"><path fill="#60DAA2" d="M 1147 241.376 C 1149.664 241.376 1149.664 245.376 1147 245.376 C 1144.336 245.376 1144.336 241.376 1147 241.376 Z" stroke="#60DAA2" stroke-width="2"></path><path fill="#60DAA2" d="M 1110 234.69799999999998 C 1112.664 234.69799999999998 1112.664 238.69799999999998 1110 238.69799999999998 C 1107.336 238.69799999999998 1107.336 234.69799999999998 1110 234.69799999999998 Z" stroke="#60DAA2" stroke-width="2"></path><path fill="#60DAA2" d="M 1072 233.214 C 1074.664 233.214 1074.664 237.214 1072 237.214 C 1069.336 237.214 1069.336 233.214 1072 233.214 Z" stroke="#60DAA2" stroke-width="2"></path><path fill="#60DAA2" d="M 1036 232.472 C 1038.664 232.472 1038.664 236.472 1036 236.472 C 1033.336 236.472 1033.336 232.472 1036 232.472 Z" stroke="#60DAA2" stroke-width="2"></path><path fill="#60DAA2" d="M 999 233.95600000000002 C 1001.664 233.95600000000002 1001.664 237.95600000000002 999 237.95600000000002 C 996.336 237.95600000000002 996.336 233.95600000000002 999 233.95600000000002 Z" stroke="#60DAA2" stroke-width="2"></path><path fill="#60DAA2" d="M 962 233.95600000000002 C 964.664 233.95600000000002 964.664 237.95600000000002 962 237.95600000000002 C 959.336 237.95600000000002 959.336 233.95600000000002 962 233.95600000000002 Z" stroke="#60DAA2" stroke-width="2"></path><path fill="#60DAA2" d="M 924 233.95600000000002 C 926.664 233.95600000000002 926.664 237.95600000000002 924 237.95600000000002 C 921.336 237.95600000000002 921.336 233.95600000000002 924 233.95600000000002 Z" stroke="#60DAA2" stroke-width="2"></path><path fill="#60DAA2" d="M 888 233.214 C 890.664 233.214 890.664 237.214 888 237.214 C 885.336 237.214 885.336 233.214 888 233.214 Z" stroke="#60DAA2" stroke-width="2"></path><path fill="#60DAA2" d="M 851 230.988 C 853.664 230.988 853.664 234.988 851 234.988 C 848.336 234.988 848.336 230.988 851 230.988 Z" stroke="#60DAA2" stroke-width="2"></path><path fill="#60DAA2" d="M 814 226.536 C 816.664 226.536 816.664 230.536 814 230.536 C 811.336 230.536 811.336 226.536 814 226.536 Z" stroke="#60DAA2" stroke-width="2"></path><path fill="#60DAA2" d="M 776 223.56799999999998 C 778.664 223.56799999999998 778.664 227.56799999999998 776 227.56799999999998 C 773.336 227.56799999999998 773.336 223.56799999999998 776 223.56799999999998 Z" stroke="#60DAA2" stroke-width="2"></path><path fill="#60DAA2" d="M 740 221.342 C 742.664 221.342 742.664 225.342 740 225.342 C 737.336 225.342 737.336 221.342 740 221.342 Z" stroke="#60DAA2" stroke-width="2"></path><path fill="#60DAA2" d="M 703 221.342 C 705.664 221.342 705.664 225.342 703 225.342 C 700.336 225.342 700.336 221.342 703 221.342 Z" stroke="#60DAA2" stroke-width="2"></path><path fill="#60DAA2" d="M 666 219.116 C 668.664 219.116 668.664 223.116 666 223.116 C 663.336 223.116 663.336 219.116 666 219.116 Z" stroke="#60DAA2" stroke-width="2"></path><path fill="#60DAA2" d="M 628 210.954 C 630.664 210.954 630.664 214.954 628 214.954 C 625.336 214.954 625.336 210.954 628 210.954 Z" stroke="#60DAA2" stroke-width="2"></path><path fill="#60DAA2" d="M 592 208.72799999999998 C 594.664 208.72799999999998 594.664 212.72799999999998 592 212.72799999999998 C 589.336 212.72799999999998 589.336 208.72799999999998 592 208.72799999999998 Z" stroke="#60DAA2" stroke-width="2"></path><path fill="#60DAA2" d="M 555 206.502 C 557.664 206.502 557.664 210.502 555 210.502 C 552.336 210.502 552.336 206.502 555 206.502 Z" stroke="#60DAA2" stroke-width="2"></path><path fill="#60DAA2" d="M 518 205.76 C 520.664 205.76 520.664 209.76 518 209.76 C 515.336 209.76 515.336 205.76 518 205.76 Z" stroke="#60DAA2" stroke-width="2"></path><path fill="#60DAA2" d="M 480 202.792 C 482.664 202.792 482.664 206.792 480 206.792 C 477.336 206.792 477.336 202.792 480 202.792 Z" stroke="#60DAA2" stroke-width="2"></path><path fill="#60DAA2" d="M 444 201.308 C 446.664 201.308 446.664 205.308 444 205.308 C 441.336 205.308 441.336 201.308 444 201.308 Z" stroke="#60DAA2" stroke-width="2"></path><path fill="#60DAA2" d="M 407 198.34 C 409.664 198.34 409.664 202.34 407 202.34 C 404.336 202.34 404.336 198.34 407 198.34 Z" stroke="#60DAA2" stroke-width="2"></path><path fill="#60DAA2" d="M 370 193.14600000000002 C 372.664 193.14600000000002 372.664 197.14600000000002 370 197.14600000000002 C 367.336 197.14600000000002 367.336 193.14600000000002 370 193.14600000000002 Z" stroke="#60DAA2" stroke-width="2"></path><path fill="#60DAA2" d="M 332 187.952 C 334.664 187.952 334.664 191.952 332 191.952 C 329.336 191.952 329.336 187.952 332 187.952 Z" stroke="#60DAA2" stroke-width="2"></path><path fill="#60DAA2" d="M 296 183.5 C 298.664 183.5 298.664 187.5 296 187.5 C 293.336 187.5 293.336 183.5 296 183.5 Z" stroke="#60DAA2" stroke-width="2"></path><path fill="#60DAA2" d="M 259 176.822 C 261.664 176.822 261.664 180.822 259 180.822 C 256.336 180.822 256.336 176.822 259 176.822 Z" stroke="#60DAA2" stroke-width="2"></path><path fill="#60DAA2" d="M 222 179.048 C 224.664 179.048 224.664 183.048 222 183.048 C 219.336 183.048 219.336 179.048 222 179.048 Z" stroke="#60DAA2" stroke-width="2"></path><path fill="#60DAA2" d="M 184 176.822 C 186.664 176.822 186.664 180.822 184 180.822 C 181.336 180.822 181.336 176.822 184 176.822 Z" stroke="#60DAA2" stroke-width="2"></path><path fill="#60DAA2" d="M 148 179.79 C 150.664 179.79 150.664 183.79 148 183.79 C 145.336 183.79 145.336 179.79 148 179.79 Z" stroke="#60DAA2" stroke-width="2"></path><path fill="#60DAA2" d="M 111 175.338 C 113.664 175.338 113.664 179.338 111 179.338 C 108.336 179.338 108.336 175.338 111 175.338 Z" stroke="#60DAA2" stroke-width="2"></path><path fill="#60DAA2" d="M 74 173.11200000000002 C 76.664 173.11200000000002 76.664 177.11200000000002 74 177.11200000000002 C 71.336 177.11200000000002 71.336 173.11200000000002 74 173.11200000000002 Z" stroke="#60DAA2" stroke-width="2"></path><path fill="#60DAA2" d="M 36 169.40200000000002 C 38.664 169.40200000000002 38.664 173.40200000000002 36 173.40200000000002 C 33.336 173.40200000000002 33.336 169.40200000000002 36 169.40200000000002 Z" stroke="#60DAA2" stroke-width="2"></path><path fill="#60DAA2" d="M 0 166.434 C 2.664 166.434 2.664 170.434 0 170.434 C -2.664 170.434 -2.664 166.434 0 166.434 Z" stroke="#60DAA2" stroke-width="2"></path></g><g class="highcharts-series highcharts-series-4"  transform="translate(36,50) scale(1 1)" clip-path="url(#highcharts-44)"><path fill="none" d="M 0 145.43200000000002 L 36.97467488021903 149.14200000000002 L 74.05065023956195 152.852 L 111.02532511978097 164.724 L 148 167.692 L 184.97467488021903 167.692 L 222.05065023956195 171.40200000000002 L 259.025325119781 172.886 L 296 179.564 L 332.974674880219 184.01600000000002 L 370.05065023956195 188.468 L 407.025325119781 193.662 L 444 198.114 L 480.974674880219 205.534 L 518.050650239562 206.276 L 555.025325119781 207.018 L 592 206.276 L 628.974674880219 207.76 L 666.050650239562 225.56799999999998 L 703.025325119781 228.536 L 740 228.536 L 776.974674880219 229.278 L 814.050650239562 230.762 L 851.025325119781 230.02 L 888 232.246 L 924.974674880219 233.73 L 962.050650239562 235.214 L 999.025325119781 236.69799999999998 L 1036 236.69799999999998 L 1072.974674880219 235.95600000000002 L 1110.050650239562 235.95600000000002 L 1147.025325119781 236.69799999999998" stroke="#B5F0D5" stroke-width="2"  stroke-linejoin="round" stroke-linecap="round"></path></g><g class="highcharts-markers highcharts-series-4"  transform="translate(36,50) scale(1 1)" clip-path="none"><path fill="#B5F0D5" d="M 1147 234.69799999999998 C 1149.664 234.69799999999998 1149.664 238.69799999999998 1147 238.69799999999998 C 1144.336 238.69799999999998 1144.336 234.69799999999998 1147 234.69799999999998 Z" stroke="#B5F0D5" stroke-width="2"></path><path fill="#B5F0D5" d="M 1110 233.95600000000002 C 1112.664 233.95600000000002 1112.664 237.95600000000002 1110 237.95600000000002 C 1107.336 237.95600000000002 1107.336 233.95600000000002 1110 233.95600000000002 Z" stroke="#B5F0D5" stroke-width="2"></path><path fill="#B5F0D5" d="M 1072 233.95600000000002 C 1074.664 233.95600000000002 1074.664 237.95600000000002 1072 237.95600000000002 C 1069.336 237.95600000000002 1069.336 233.95600000000002 1072 233.95600000000002 Z" stroke="#B5F0D5" stroke-width="2"></path><path fill="#B5F0D5" d="M 1036 234.69799999999998 C 1038.664 234.69799999999998 1038.664 238.69799999999998 1036 238.69799999999998 C 1033.336 238.69799999999998 1033.336 234.69799999999998 1036 234.69799999999998 Z" stroke="#B5F0D5" stroke-width="2"></path><path fill="#B5F0D5" d="M 999 234.69799999999998 C 1001.664 234.69799999999998 1001.664 238.69799999999998 999 238.69799999999998 C 996.336 238.69799999999998 996.336 234.69799999999998 999 234.69799999999998 Z" stroke="#B5F0D5" stroke-width="2"></path><path fill="#B5F0D5" d="M 962 233.214 C 964.664 233.214 964.664 237.214 962 237.214 C 959.336 237.214 959.336 233.214 962 233.214 Z" stroke="#B5F0D5" stroke-width="2"></path><path fill="#B5F0D5" d="M 924 231.73 C 926.664 231.73 926.664 235.73 924 235.73 C 921.336 235.73 921.336 231.73 924 231.73 Z" stroke="#B5F0D5" stroke-width="2"></path><path fill="#B5F0D5" d="M 888 230.246 C 890.664 230.246 890.664 234.246 888 234.246 C 885.336 234.246 885.336 230.246 888 230.246 Z" stroke="#B5F0D5" stroke-width="2"></path><path fill="#B5F0D5" d="M 851 228.02 C 853.664 228.02 853.664 232.02 851 232.02 C 848.336 232.02 848.336 228.02 851 228.02 Z" stroke="#B5F0D5" stroke-width="2"></path><path fill="#B5F0D5" d="M 814 228.762 C 816.664 228.762 816.664 232.762 814 232.762 C 811.336 232.762 811.336 228.762 814 228.762 Z" stroke="#B5F0D5" stroke-width="2"></path><path fill="#B5F0D5" d="M 776 227.278 C 778.664 227.278 778.664 231.278 776 231.278 C 773.336 231.278 773.336 227.278 776 227.278 Z" stroke="#B5F0D5" stroke-width="2"></path><path fill="#B5F0D5" d="M 740 226.536 C 742.664 226.536 742.664 230.536 740 230.536 C 737.336 230.536 737.336 226.536 740 226.536 Z" stroke="#B5F0D5" stroke-width="2"></path><path fill="#B5F0D5" d="M 703 226.536 C 705.664 226.536 705.664 230.536 703 230.536 C 700.336 230.536 700.336 226.536 703 226.536 Z" stroke="#B5F0D5" stroke-width="2"></path><path fill="#B5F0D5" d="M 666 223.56799999999998 C 668.664 223.56799999999998 668.664 227.56799999999998 666 227.56799999999998 C 663.336 227.56799999999998 663.336 223.56799999999998 666 223.56799999999998 Z" stroke="#B5F0D5" stroke-width="2"></path><path fill="#B5F0D5" d="M 628 205.76 C 630.664 205.76 630.664 209.76 628 209.76 C 625.336 209.76 625.336 205.76 628 205.76 Z" stroke="#B5F0D5" stroke-width="2"></path><path fill="#B5F0D5" d="M 592 204.276 C 594.664 204.276 594.664 208.276 592 208.276 C 589.336 208.276 589.336 204.276 592 204.276 Z" stroke="#B5F0D5" stroke-width="2"></path><path fill="#B5F0D5" d="M 555 205.018 C 557.664 205.018 557.664 209.018 555 209.018 C 552.336 209.018 552.336 205.018 555 205.018 Z" stroke="#B5F0D5" stroke-width="2"></path><path fill="#B5F0D5" d="M 518 204.276 C 520.664 204.276 520.664 208.276 518 208.276 C 515.336 208.276 515.336 204.276 518 204.276 Z" stroke="#B5F0D5" stroke-width="2"></path><path fill="#B5F0D5" d="M 480 203.534 C 482.664 203.534 482.664 207.534 480 207.534 C 477.336 207.534 477.336 203.534 480 203.534 Z" stroke="#B5F0D5" stroke-width="2"></path><path fill="#B5F0D5" d="M 444 196.114 C 446.664 196.114 446.664 200.114 444 200.114 C 441.336 200.114 441.336 196.114 444 196.114 Z" stroke="#B5F0D5" stroke-width="2"></path><path fill="#B5F0D5" d="M 407 191.662 C 409.664 191.662 409.664 195.662 407 195.662 C 404.336 195.662 404.336 191.662 407 191.662 Z" stroke="#B5F0D5" stroke-width="2"></path><path fill="#B5F0D5" d="M 370 186.468 C 372.664 186.468 372.664 190.468 370 190.468 C 367.336 190.468 367.336 186.468 370 186.468 Z" stroke="#B5F0D5" stroke-width="2"></path><path fill="#B5F0D5" d="M 332 182.01600000000002 C 334.664 182.01600000000002 334.664 186.01600000000002 332 186.01600000000002 C 329.336 186.01600000000002 329.336 182.01600000000002 332 182.01600000000002 Z" stroke="#B5F0D5" stroke-width="2"></path><path fill="#B5F0D5" d="M 296 177.564 C 298.664 177.564 298.664 181.564 296 181.564 C 293.336 181.564 293.336 177.564 296 177.564 Z" stroke="#B5F0D5" stroke-width="2"></path><path fill="#B5F0D5" d="M 259 170.886 C 261.664 170.886 261.664 174.886 259 174.886 C 256.336 174.886 256.336 170.886 259 170.886 Z" stroke="#B5F0D5" stroke-width="2"></path><path fill="#B5F0D5" d="M 222 169.40200000000002 C 224.664 169.40200000000002 224.664 173.40200000000002 222 173.40200000000002 C 219.336 173.40200000000002 219.336 169.40200000000002 222 169.40200000000002 Z" stroke="#B5F0D5" stroke-width="2"></path><path fill="#B5F0D5" d="M 184 165.692 C 186.664 165.692 186.664 169.692 184 169.692 C 181.336 169.692 181.336 165.692 184 165.692 Z" stroke="#B5F0D5" stroke-width="2"></path><path fill="#B5F0D5" d="M 148 165.692 C 150.664 165.692 150.664 169.692 148 169.692 C 145.336 169.692 145.336 165.692 148 165.692 Z" stroke="#B5F0D5" stroke-width="2"></path><path fill="#B5F0D5" d="M 111 162.724 C 113.664 162.724 113.664 166.724 111 166.724 C 108.336 166.724 108.336 162.724 111 162.724 Z" stroke="#B5F0D5" stroke-width="2"></path><path fill="#B5F0D5" d="M 74 150.852 C 76.664 150.852 76.664 154.852 74 154.852 C 71.336 154.852 71.336 150.852 74 150.852 Z" stroke="#B5F0D5" stroke-width="2"></path><path fill="#B5F0D5" d="M 36 147.14200000000002 C 38.664 147.14200000000002 38.664 151.14200000000002 36 151.14200000000002 C 33.336 151.14200000000002 33.336 147.14200000000002 36 147.14200000000002 Z" stroke="#B5F0D5" stroke-width="2"></path><path fill="#B5F0D5" d="M 0 143.43200000000002 C 2.664 143.43200000000002 2.664 147.43200000000002 0 147.43200000000002 C -2.664 147.43200000000002 -2.664 143.43200000000002 0 143.43200000000002 Z" stroke="#B5F0D5" stroke-width="2"></path></g><g class="highcharts-series highcharts-series-5"  transform="translate(36,50) scale(1 1)" clip-path="url(#highcharts-44)"><path fill="none" d="M 0 189.21 L 36.97467488021903 193.662 L 74.05065023956195 196.63 L 111.02532511978097 197.372 L 148 197.372 L 184.97467488021903 198.114 L 222.05065023956195 197.372 L 259.025325119781 198.856 L 296 202.566 L 332.974674880219 202.566 L 370.05065023956195 204.792 L 407.025325119781 205.534 L 444 206.276 L 480.974674880219 207.018 L 518.050650239562 207.76 L 555.025325119781 207.018 L 592 208.502 L 628.974674880219 213.696 L 666.050650239562 224.084 L 703.025325119781 227.05200000000002 L 740 227.05200000000002 L 776.974674880219 226.31 L 814.050650239562 224.826 L 851.025325119781 224.826 L 888 225.56799999999998 L 924.974674880219 226.31 L 962.050650239562 227.05200000000002 L 999.025325119781 225.56799999999998 L 1036 225.56799999999998 L 1072.974674880219 227.05200000000002 L 1110.050650239562 228.536 L 1147.025325119781 227.79399999999998" stroke="#84D7F6" stroke-width="2"  stroke-linejoin="round" stroke-linecap="round"></path></g><g class="highcharts-markers highcharts-series-5"  transform="translate(36,50) scale(1 1)" clip-path="none"><path fill="#84D7F6" d="M 1147 225.79399999999998 C 1149.664 225.79399999999998 1149.664 229.79399999999998 1147 229.79399999999998 C 1144.336 229.79399999999998 1144.336 225.79399999999998 1147 225.79399999999998 Z" stroke="#84D7F6" stroke-width="2"></path><path fill="#84D7F6" d="M 1110 226.536 C 1112.664 226.536 1112.664 230.536 1110 230.536 C 1107.336 230.536 1107.336 226.536 1110 226.536 Z" stroke="#84D7F6" stroke-width="2"></path><path fill="#84D7F6" d="M 1072 225.05200000000002 C 1074.664 225.05200000000002 1074.664 229.05200000000002 1072 229.05200000000002 C 1069.336 229.05200000000002 1069.336 225.05200000000002 1072 225.05200000000002 Z" stroke="#84D7F6" stroke-width="2"></path><path fill="#84D7F6" d="M 1036 223.56799999999998 C 1038.664 223.56799999999998 1038.664 227.56799999999998 1036 227.56799999999998 C 1033.336 227.56799999999998 1033.336 223.56799999999998 1036 223.56799999999998 Z" stroke="#84D7F6" stroke-width="2"></path><path fill="#84D7F6" d="M 999 223.56799999999998 C 1001.664 223.56799999999998 1001.664 227.56799999999998 999 227.56799999999998 C 996.336 227.56799999999998 996.336 223.56799999999998 999 223.56799999999998 Z" stroke="#84D7F6" stroke-width="2"></path><path fill="#84D7F6" d="M 962 225.05200000000002 C 964.664 225.05200000000002 964.664 229.05200000000002 962 229.05200000000002 C 959.336 229.05200000000002 959.336 225.05200000000002 962 225.05200000000002 Z" stroke="#84D7F6" stroke-width="2"></path><path fill="#84D7F6" d="M 924 224.31 C 926.664 224.31 926.664 228.31 924 228.31 C 921.336 228.31 921.336 224.31 924 224.31 Z" stroke="#84D7F6" stroke-width="2"></path><path fill="#84D7F6" d="M 888 223.56799999999998 C 890.664 223.56799999999998 890.664 227.56799999999998 888 227.56799999999998 C 885.336 227.56799999999998 885.336 223.56799999999998 888 223.56799999999998 Z" stroke="#84D7F6" stroke-width="2"></path><path fill="#84D7F6" d="M 851 222.826 C 853.664 222.826 853.664 226.826 851 226.826 C 848.336 226.826 848.336 222.826 851 222.826 Z" stroke="#84D7F6" stroke-width="2"></path><path fill="#84D7F6" d="M 814 222.826 C 816.664 222.826 816.664 226.826 814 226.826 C 811.336 226.826 811.336 222.826 814 222.826 Z" stroke="#84D7F6" stroke-width="2"></path><path fill="#84D7F6" d="M 776 224.31 C 778.664 224.31 778.664 228.31 776 228.31 C 773.336 228.31 773.336 224.31 776 224.31 Z" stroke="#84D7F6" stroke-width="2"></path><path fill="#84D7F6" d="M 740 225.05200000000002 C 742.664 225.05200000000002 742.664 229.05200000000002 740 229.05200000000002 C 737.336 229.05200000000002 737.336 225.05200000000002 740 225.05200000000002 Z" stroke="#84D7F6" stroke-width="2"></path><path fill="#84D7F6" d="M 703 225.05200000000002 C 705.664 225.05200000000002 705.664 229.05200000000002 703 229.05200000000002 C 700.336 229.05200000000002 700.336 225.05200000000002 703 225.05200000000002 Z" stroke="#84D7F6" stroke-width="2"></path><path fill="#84D7F6" d="M 666 222.084 C 668.664 222.084 668.664 226.084 666 226.084 C 663.336 226.084 663.336 222.084 666 222.084 Z" stroke="#84D7F6" stroke-width="2"></path><path fill="#84D7F6" d="M 628 211.696 C 630.664 211.696 630.664 215.696 628 215.696 C 625.336 215.696 625.336 211.696 628 211.696 Z" stroke="#84D7F6" stroke-width="2"></path><path fill="#84D7F6" d="M 592 206.502 C 594.664 206.502 594.664 210.502 592 210.502 C 589.336 210.502 589.336 206.502 592 206.502 Z" stroke="#84D7F6" stroke-width="2"></path><path fill="#84D7F6" d="M 555 205.018 C 557.664 205.018 557.664 209.018 555 209.018 C 552.336 209.018 552.336 205.018 555 205.018 Z" stroke="#84D7F6" stroke-width="2"></path><path fill="#84D7F6" d="M 518 205.76 C 520.664 205.76 520.664 209.76 518 209.76 C 515.336 209.76 515.336 205.76 518 205.76 Z" stroke="#84D7F6" stroke-width="2"></path><path fill="#84D7F6" d="M 480 205.018 C 482.664 205.018 482.664 209.018 480 209.018 C 477.336 209.018 477.336 205.018 480 205.018 Z" stroke="#84D7F6" stroke-width="2"></path><path fill="#84D7F6" d="M 444 204.276 C 446.664 204.276 446.664 208.276 444 208.276 C 441.336 208.276 441.336 204.276 444 204.276 Z" stroke="#84D7F6" stroke-width="2"></path><path fill="#84D7F6" d="M 407 203.534 C 409.664 203.534 409.664 207.534 407 207.534 C 404.336 207.534 404.336 203.534 407 203.534 Z" stroke="#84D7F6" stroke-width="2"></path><path fill="#84D7F6" d="M 370 202.792 C 372.664 202.792 372.664 206.792 370 206.792 C 367.336 206.792 367.336 202.792 370 202.792 Z" stroke="#84D7F6" stroke-width="2"></path><path fill="#84D7F6" d="M 332 200.566 C 334.664 200.566 334.664 204.566 332 204.566 C 329.336 204.566 329.336 200.566 332 200.566 Z" stroke="#84D7F6" stroke-width="2"></path><path fill="#84D7F6" d="M 296 200.566 C 298.664 200.566 298.664 204.566 296 204.566 C 293.336 204.566 293.336 200.566 296 200.566 Z" stroke="#84D7F6" stroke-width="2"></path><path fill="#84D7F6" d="M 259 196.856 C 261.664 196.856 261.664 200.856 259 200.856 C 256.336 200.856 256.336 196.856 259 196.856 Z" stroke="#84D7F6" stroke-width="2"></path><path fill="#84D7F6" d="M 222 195.372 C 224.664 195.372 224.664 199.372 222 199.372 C 219.336 199.372 219.336 195.372 222 195.372 Z" stroke="#84D7F6" stroke-width="2"></path><path fill="#84D7F6" d="M 184 196.114 C 186.664 196.114 186.664 200.114 184 200.114 C 181.336 200.114 181.336 196.114 184 196.114 Z" stroke="#84D7F6" stroke-width="2"></path><path fill="#84D7F6" d="M 148 195.372 C 150.664 195.372 150.664 199.372 148 199.372 C 145.336 199.372 145.336 195.372 148 195.372 Z" stroke="#84D7F6" stroke-width="2"></path><path fill="#84D7F6" d="M 111 195.372 C 113.664 195.372 113.664 199.372 111 199.372 C 108.336 199.372 108.336 195.372 111 195.372 Z" stroke="#84D7F6" stroke-width="2"></path><path fill="#84D7F6" d="M 74 194.63 C 76.664 194.63 76.664 198.63 74 198.63 C 71.336 198.63 71.336 194.63 74 194.63 Z" stroke="#84D7F6" stroke-width="2"></path><path fill="#84D7F6" d="M 36 191.662 C 38.664 191.662 38.664 195.662 36 195.662 C 33.336 195.662 33.336 191.662 36 191.662 Z" stroke="#84D7F6" stroke-width="2"></path><path fill="#84D7F6" d="M 0 187.21 C 2.664 187.21 2.664 191.21 0 191.21 C -2.664 191.21 -2.664 187.21 0 187.21 Z" stroke="#84D7F6" stroke-width="2"></path></g><g class="highcharts-series highcharts-series-6"  transform="translate(36,50) scale(1 1)" clip-path="url(#highcharts-44)"><path fill="none" d="M 0 160.27200000000002 L 36.97467488021903 163.24 L 74.05065023956195 166.95 L 111.02532511978097 169.17600000000002 L 148 172.886 L 184.97467488021903 176.596 L 222.05065023956195 184.75799999999998 L 259.025325119781 186.24200000000002 L 296 189.21 L 332.974674880219 187.726 L 370.05065023956195 188.468 L 407.025325119781 195.14600000000002 L 444 203.308 L 480.974674880219 204.05 L 518.050650239562 204.05 L 555.025325119781 201.82399999999998 L 592 202.566 L 628.974674880219 205.534 L 666.050650239562 206.276 L 703.025325119781 207.018 L 740 208.502 L 776.974674880219 210.72799999999998 L 814.050650239562 209.98600000000002 L 851.025325119781 214.438 L 888 217.406 L 924.974674880219 218.148 L 962.050650239562 218.89000000000001 L 999.025325119781 219.632 L 1036 219.632 L 1072.974674880219 219.632 L 1110.050650239562 220.374 L 1147.025325119781 220.374" stroke="#009FDA" stroke-width="2"  stroke-linejoin="round" stroke-linecap="round"></path></g><g class="highcharts-markers highcharts-series-6"  transform="translate(36,50) scale(1 1)" clip-path="none"><path fill="#009FDA" d="M 1147 218.374 C 1149.664 218.374 1149.664 222.374 1147 222.374 C 1144.336 222.374 1144.336 218.374 1147 218.374 Z" stroke="#009FDA" stroke-width="2"></path><path fill="#009FDA" d="M 1110 218.374 C 1112.664 218.374 1112.664 222.374 1110 222.374 C 1107.336 222.374 1107.336 218.374 1110 218.374 Z" stroke="#009FDA" stroke-width="2"></path><path fill="#009FDA" d="M 1072 217.632 C 1074.664 217.632 1074.664 221.632 1072 221.632 C 1069.336 221.632 1069.336 217.632 1072 217.632 Z" stroke="#009FDA" stroke-width="2"></path><path fill="#009FDA" d="M 1036 217.632 C 1038.664 217.632 1038.664 221.632 1036 221.632 C 1033.336 221.632 1033.336 217.632 1036 217.632 Z" stroke="#009FDA" stroke-width="2"></path><path fill="#009FDA" d="M 999 217.632 C 1001.664 217.632 1001.664 221.632 999 221.632 C 996.336 221.632 996.336 217.632 999 217.632 Z" stroke="#009FDA" stroke-width="2"></path><path fill="#009FDA" d="M 962 216.89000000000001 C 964.664 216.89000000000001 964.664 220.89000000000001 962 220.89000000000001 C 959.336 220.89000000000001 959.336 216.89000000000001 962 216.89000000000001 Z" stroke="#009FDA" stroke-width="2"></path><path fill="#009FDA" d="M 924 216.148 C 926.664 216.148 926.664 220.148 924 220.148 C 921.336 220.148 921.336 216.148 924 216.148 Z" stroke="#009FDA" stroke-width="2"></path><path fill="#009FDA" d="M 888 215.406 C 890.664 215.406 890.664 219.406 888 219.406 C 885.336 219.406 885.336 215.406 888 215.406 Z" stroke="#009FDA" stroke-width="2"></path><path fill="#009FDA" d="M 851 212.438 C 853.664 212.438 853.664 216.438 851 216.438 C 848.336 216.438 848.336 212.438 851 212.438 Z" stroke="#009FDA" stroke-width="2"></path><path fill="#009FDA" d="M 814 207.98600000000002 C 816.664 207.98600000000002 816.664 211.98600000000002 814 211.98600000000002 C 811.336 211.98600000000002 811.336 207.98600000000002 814 207.98600000000002 Z" stroke="#009FDA" stroke-width="2"></path><path fill="#009FDA" d="M 776 208.72799999999998 C 778.664 208.72799999999998 778.664 212.72799999999998 776 212.72799999999998 C 773.336 212.72799999999998 773.336 208.72799999999998 776 208.72799999999998 Z" stroke="#009FDA" stroke-width="2"></path><path fill="#009FDA" d="M 740 206.502 C 742.664 206.502 742.664 210.502 740 210.502 C 737.336 210.502 737.336 206.502 740 206.502 Z" stroke="#009FDA" stroke-width="2"></path><path fill="#009FDA" d="M 703 205.018 C 705.664 205.018 705.664 209.018 703 209.018 C 700.336 209.018 700.336 205.018 703 205.018 Z" stroke="#009FDA" stroke-width="2"></path><path fill="#009FDA" d="M 666 204.276 C 668.664 204.276 668.664 208.276 666 208.276 C 663.336 208.276 663.336 204.276 666 204.276 Z" stroke="#009FDA" stroke-width="2"></path><path fill="#009FDA" d="M 628 203.534 C 630.664 203.534 630.664 207.534 628 207.534 C 625.336 207.534 625.336 203.534 628 203.534 Z" stroke="#009FDA" stroke-width="2"></path><path fill="#009FDA" d="M 592 200.566 C 594.664 200.566 594.664 204.566 592 204.566 C 589.336 204.566 589.336 200.566 592 200.566 Z" stroke="#009FDA" stroke-width="2"></path><path fill="#009FDA" d="M 555 199.82399999999998 C 557.664 199.82399999999998 557.664 203.82399999999998 555 203.82399999999998 C 552.336 203.82399999999998 552.336 199.82399999999998 555 199.82399999999998 Z" stroke="#009FDA" stroke-width="2"></path><path fill="#009FDA" d="M 518 202.05 C 520.664 202.05 520.664 206.05 518 206.05 C 515.336 206.05 515.336 202.05 518 202.05 Z" stroke="#009FDA" stroke-width="2"></path><path fill="#009FDA" d="M 480 202.05 C 482.664 202.05 482.664 206.05 480 206.05 C 477.336 206.05 477.336 202.05 480 202.05 Z" stroke="#009FDA" stroke-width="2"></path><path fill="#009FDA" d="M 444 201.308 C 446.664 201.308 446.664 205.308 444 205.308 C 441.336 205.308 441.336 201.308 444 201.308 Z" stroke="#009FDA" stroke-width="2"></path><path fill="#009FDA" d="M 407 193.14600000000002 C 409.664 193.14600000000002 409.664 197.14600000000002 407 197.14600000000002 C 404.336 197.14600000000002 404.336 193.14600000000002 407 193.14600000000002 Z" stroke="#009FDA" stroke-width="2"></path><path fill="#009FDA" d="M 370 186.468 C 372.664 186.468 372.664 190.468 370 190.468 C 367.336 190.468 367.336 186.468 370 186.468 Z" stroke="#009FDA" stroke-width="2"></path><path fill="#009FDA" d="M 332 185.726 C 334.664 185.726 334.664 189.726 332 189.726 C 329.336 189.726 329.336 185.726 332 185.726 Z" stroke="#009FDA" stroke-width="2"></path><path fill="#009FDA" d="M 296 187.21 C 298.664 187.21 298.664 191.21 296 191.21 C 293.336 191.21 293.336 187.21 296 187.21 Z" stroke="#009FDA" stroke-width="2"></path><path fill="#009FDA" d="M 259 184.24200000000002 C 261.664 184.24200000000002 261.664 188.24200000000002 259 188.24200000000002 C 256.336 188.24200000000002 256.336 184.24200000000002 259 184.24200000000002 Z" stroke="#009FDA" stroke-width="2"></path><path fill="#009FDA" d="M 222 182.75799999999998 C 224.664 182.75799999999998 224.664 186.75799999999998 222 186.75799999999998 C 219.336 186.75799999999998 219.336 182.75799999999998 222 182.75799999999998 Z" stroke="#009FDA" stroke-width="2"></path><path fill="#009FDA" d="M 184 174.596 C 186.664 174.596 186.664 178.596 184 178.596 C 181.336 178.596 181.336 174.596 184 174.596 Z" stroke="#009FDA" stroke-width="2"></path><path fill="#009FDA" d="M 148 170.886 C 150.664 170.886 150.664 174.886 148 174.886 C 145.336 174.886 145.336 170.886 148 170.886 Z" stroke="#009FDA" stroke-width="2"></path><path fill="#009FDA" d="M 111 167.17600000000002 C 113.664 167.17600000000002 113.664 171.17600000000002 111 171.17600000000002 C 108.336 171.17600000000002 108.336 167.17600000000002 111 167.17600000000002 Z" stroke="#009FDA" stroke-width="2"></path><path fill="#009FDA" d="M 74 164.95 C 76.664 164.95 76.664 168.95 74 168.95 C 71.336 168.95 71.336 164.95 74 164.95 Z" stroke="#009FDA" stroke-width="2"></path><path fill="#009FDA" d="M 36 161.24 C 38.664 161.24 38.664 165.24 36 165.24 C 33.336 165.24 33.336 161.24 36 161.24 Z" stroke="#009FDA" stroke-width="2"></path><path fill="#009FDA" d="M 0 158.27200000000002 C 2.664 158.27200000000002 2.664 162.27200000000002 0 162.27200000000002 C -2.664 162.27200000000002 -2.664 158.27200000000002 0 158.27200000000002 Z" stroke="#009FDA" stroke-width="2"></path></g><g class="highcharts-series highcharts-series-7"  transform="translate(50,466) scale(1 1)" clip-path="url(#highcharts-45)"><path fill="rgb(255,255,255)" fill-opacity="0.05" d="M 0 1.6666666666666714 C 0 1.6666666666666714 21.66016427104723 1.9652886679345634 36.10027378507871 2.344173441734423 C 50.57994524298426 2.724096256010447 57.81978097193703 3.075213447072923 72.29945242984257 3.5636856368563805 C 86.73956194387407 4.050823203170485 93.9596167008898 4.295392953929549 108.39972621492129 4.783197831978329 C 122.83983572895276 5.271002710027108 130.05989048596854 5.569105691056918 144.5 6.002710027100278 C 158.94010951403146 6.436314363143638 166.16016427104722 6.599397936523834 180.6002737850787 6.951219512195131 C 195.07994524298425 7.304004982594293 202.319780971937 7.519991547384695 216.79945242984257 7.764227642276424 C 231.23956194387407 8.007796425433476 238.45961670088982 7.926829268292687 252.89972621492132 8.17073170731708 C 267.3398357289528 8.414634146341472 274.55989048596854 8.739837398373993 289 8.983739837398382 C 303.4401095140315 9.227642276422772 310.6601642710472 9.119611921153416 325.10027378507874 9.390243902439028 C 339.5799452429843 9.661617341207615 346.81978097193706 10.040242604888437 361.2994524298426 10.338753387533883 C 375.73956194387404 10.636448566948058 382.9596167008898 10.50135501355014 397.3997262149213 10.88075880758808 C 411.8398357289528 11.26016260162602 419.0598904859686 12.100271002710034 433.5 12.235772357723581 C 447.9401095140315 12.371273712737128 455.1601642710472 12.235772357723581 469.60027378507874 12.371273712737128 C 484.0799452429843 12.506775067750675 491.31978097193706 14.268292682926827 505.79945242984263 14.40379403794038 C 520.2395619438742 14.539295392953932 527.4596167008898 14.539295392953932 541.8997262149213 14.539295392953932 C 556.3398357289527 14.539295392953932 563.5598904859686 14.268292682926832 578 14.268292682926832 C 592.4401095140315 14.268292682926832 599.6601642710473 14.783605633593956 614.1002737850788 15.08130081300813 C 628.5799452429843 15.379811595653575 635.8197809719371 15.487434149307294 650.2994524298426 15.758807588075879 C 664.7395619438742 16.029439569361493 671.9596167008898 16.300813008130078 686.3997262149213 16.43631436314363 C 700.8398357289527 16.571815718157183 708.0598904859686 16.571815718157183 722.5 16.571815718157183 C 736.9401095140315 16.571815718157183 744.1601642710473 16.571815718157183 758.6002737850788 16.571815718157183 C 773.0799452429844 16.571815718157183 780.319780971937 17.11382113821138 794.7994524298426 17.11382113821138 C 809.2395619438742 17.11382113821138 816.4596167008898 16.707317073170728 830.8997262149213 16.707317073170728 C 845.3398357289527 16.707317073170728 852.5598904859686 17.05962059620596 867 17.24932249322493 C 881.4401095140314 17.4390243902439 888.6601642710473 17.655826558265584 903.1002737850788 17.655826558265584 C 917.5799452429844 17.655826558265584 924.8197809719371 17.655826558265584 939.2994524298426 17.655826558265584 C 953.7395619438742 17.655826558265584 960.9596167008898 17.737127371273708 975.3997262149213 17.79132791327913 C 989.8398357289528 17.84552845528455 997.0598904859686 17.926829268292682 1011.5000000000001 17.926829268292682 C 1025.9401095140315 17.926829268292682 1033.1601642710473 17.764079350779827 1047.6002737850788 17.655826558265584 C 1062.0799452429844 17.54727718275815 1069.3197809719372 17.38482384823848 1083.7994524298426 17.38482384823848 C 1098.2395619438742 17.38482384823848 1119.8997262149214 18.333333333333332 1119.8997262149214 18.333333333333332 L 1119.8997262149214 20 L 0 20" ></path><path fill="none" d="M 0 1.6666666666666714 C 0 1.6666666666666714 21.66016427104723 1.9652886679345634 36.10027378507871 2.344173441734423 C 50.57994524298426 2.724096256010447 57.81978097193703 3.075213447072923 72.29945242984257 3.5636856368563805 C 86.73956194387407 4.050823203170485 93.9596167008898 4.295392953929549 108.39972621492129 4.783197831978329 C 122.83983572895276 5.271002710027108 130.05989048596854 5.569105691056918 144.5 6.002710027100278 C 158.94010951403146 6.436314363143638 166.16016427104722 6.599397936523834 180.6002737850787 6.951219512195131 C 195.07994524298425 7.304004982594293 202.319780971937 7.519991547384695 216.79945242984257 7.764227642276424 C 231.23956194387407 8.007796425433476 238.45961670088982 7.926829268292687 252.89972621492132 8.17073170731708 C 267.3398357289528 8.414634146341472 274.55989048596854 8.739837398373993 289 8.983739837398382 C 303.4401095140315 9.227642276422772 310.6601642710472 9.119611921153416 325.10027378507874 9.390243902439028 C 339.5799452429843 9.661617341207615 346.81978097193706 10.040242604888437 361.2994524298426 10.338753387533883 C 375.73956194387404 10.636448566948058 382.9596167008898 10.50135501355014 397.3997262149213 10.88075880758808 C 411.8398357289528 11.26016260162602 419.0598904859686 12.100271002710034 433.5 12.235772357723581 C 447.9401095140315 12.371273712737128 455.1601642710472 12.235772357723581 469.60027378507874 12.371273712737128 C 484.0799452429843 12.506775067750675 491.31978097193706 14.268292682926827 505.79945242984263 14.40379403794038 C 520.2395619438742 14.539295392953932 527.4596167008898 14.539295392953932 541.8997262149213 14.539295392953932 C 556.3398357289527 14.539295392953932 563.5598904859686 14.268292682926832 578 14.268292682926832 C 592.4401095140315 14.268292682926832 599.6601642710473 14.783605633593956 614.1002737850788 15.08130081300813 C 628.5799452429843 15.379811595653575 635.8197809719371 15.487434149307294 650.2994524298426 15.758807588075879 C 664.7395619438742 16.029439569361493 671.9596167008898 16.300813008130078 686.3997262149213 16.43631436314363 C 700.8398357289527 16.571815718157183 708.0598904859686 16.571815718157183 722.5 16.571815718157183 C 736.9401095140315 16.571815718157183 744.1601642710473 16.571815718157183 758.6002737850788 16.571815718157183 C 773.0799452429844 16.571815718157183 780.319780971937 17.11382113821138 794.7994524298426 17.11382113821138 C 809.2395619438742 17.11382113821138 816.4596167008898 16.707317073170728 830.8997262149213 16.707317073170728 C 845.3398357289527 16.707317073170728 852.5598904859686 17.05962059620596 867 17.24932249322493 C 881.4401095140314 17.4390243902439 888.6601642710473 17.655826558265584 903.1002737850788 17.655826558265584 C 917.5799452429844 17.655826558265584 924.8197809719371 17.655826558265584 939.2994524298426 17.655826558265584 C 953.7395619438742 17.655826558265584 960.9596167008898 17.737127371273708 975.3997262149213 17.79132791327913 C 989.8398357289528 17.84552845528455 997.0598904859686 17.926829268292682 1011.5000000000001 17.926829268292682 C 1025.9401095140315 17.926829268292682 1033.1601642710473 17.764079350779827 1047.6002737850788 17.655826558265584 C 1062.0799452429844 17.54727718275815 1069.3197809719372 17.38482384823848 1083.7994524298426 17.38482384823848 C 1098.2395619438742 17.38482384823848 1119.8997262149214 18.333333333333332 1119.8997262149214 18.333333333333332" stroke="#FFFFFF" stroke-width="1"  stroke-linejoin="round" stroke-linecap="round"></path></g><g class="highcharts-markers highcharts-series-7"  transform="translate(50,466) scale(1 1)" clip-path="none"></g></g><g class="highcharts-navigator" ><rect fill="rgb(128,179,236)" fill-opacity="0.3" style="cursor:ew-resize;" x="50" y="466" width="1156" height="20"></rect><path fill="none" stroke="#b2b1b6" stroke-width="1" d="M 36 466.5 L 49.5 466.5 49.5 500.5 L 1205.5 500.5 L 1205.5 466.5 1220 466.5 M 50.5 466.5 L 1205.5 466.5"></path></g><text x="0" text-anchor="start" class="highcharts-title"  style="color:#444444;font-size:9px;font-family:open sans;font-weight:normal;font-style:italic;fill:#444444;width:1166px;" y="30"></text><g class="highcharts-axis-labels highcharts-xaxis-labels" ><text x="36" style="color:#666666;cursor:default;font-size:9px;font-family:open sans;font-weight:normal;font-style:normal;fill:#666666;" text-anchor="middle" transform="translate(0,0)" y="439" opacity="1"><tspan>1991</tspan></text><text x="258.05065023956195" style="color:#666666;cursor:default;font-size:9px;font-family:open sans;font-weight:normal;font-style:normal;fill:#666666;" text-anchor="middle" transform="translate(0,0)" y="439" opacity="1"><tspan>1997</tspan></text><text x="480" style="color:#666666;cursor:default;font-size:9px;font-family:open sans;font-weight:normal;font-style:normal;fill:#666666;" text-anchor="middle" transform="translate(0,0)" y="439" opacity="1"><tspan>2003</tspan></text><text x="702.050650239562" style="color:#666666;cursor:default;font-size:9px;font-family:open sans;font-weight:normal;font-style:normal;fill:#666666;" text-anchor="middle" transform="translate(0,0)" y="439" opacity="1"><tspan>2009</tspan></text><text x="924" style="color:#666666;cursor:default;font-size:9px;font-family:open sans;font-weight:normal;font-style:normal;fill:#666666;" text-anchor="middle" transform="translate(0,0)" y="439" opacity="1"><tspan>2015</tspan></text><text x="1146.050650239562" style="color:#666666;cursor:default;font-size:9px;font-family:open sans;font-weight:normal;font-style:normal;fill:#666666;" text-anchor="middle" transform="translate(0,0)" y="439" opacity="1"><tspan>2021</tspan></text><text x="1209.7062501907349" style="color:#666666;cursor:default;font-size:9px;font-family:open sans;font-weight:normal;font-style:normal;fill:#666666;" text-anchor="middle" transform="translate(0,0)" y="439" opacity="1"><tspan>2023</tspan></text></g><g class="highcharts-axis-labels highcharts-xaxis-labels" ><text x="197.5" style="color:#888;cursor:default;font-size:11px;fill:#888;width:232px;text-overflow:clip;" text-anchor="start" transform="translate(0,0)" y="482" opacity="1">1995</text><text x="378.10027378507874" style="color:#888;cursor:default;font-size:11px;fill:#888;width:232px;text-overflow:clip;" text-anchor="start" transform="translate(0,0)" y="482" opacity="1">2000</text><text x="558.7994524298426" style="color:#888;cursor:default;font-size:11px;fill:#888;width:232px;text-overflow:clip;" text-anchor="start" transform="translate(0,0)" y="482" opacity="1">2005</text><text x="739.3997262149213" style="color:#888;cursor:default;font-size:11px;fill:#888;width:232px;text-overflow:clip;" text-anchor="start" transform="translate(0,0)" y="482" opacity="1">2010</text><text x="920" style="color:#888;cursor:default;font-size:11px;fill:#888;width:232px;text-overflow:clip;" text-anchor="start" transform="translate(0,0)" y="482" opacity="1">2015</text><text x="1100.6002737850788" style="color:#888;cursor:default;font-size:11px;fill:#888;width:232px;text-overflow:clip;" text-anchor="start" transform="translate(0,0)" y="482" opacity="1">2020</text></g><g class="highcharts-axis-labels highcharts-yaxis-labels" ><text x="21" style="color:#666666;cursor:default;font-size:9px;font-family:open sans;font-weight:normal;font-style:normal;fill:#666666;width:403px;text-overflow:clip;" text-anchor="end" transform="translate(0,0)" y="419" opacity="1">0</text><text x="21" style="color:#666666;cursor:default;font-size:9px;font-family:open sans;font-weight:normal;font-style:normal;fill:#666666;width:403px;text-overflow:clip;" text-anchor="end" transform="translate(0,0)" y="345" opacity="1">10</text><text x="21" style="color:#666666;cursor:default;font-size:9px;font-family:open sans;font-weight:normal;font-style:normal;fill:#666666;width:403px;text-overflow:clip;" text-anchor="end" transform="translate(0,0)" y="271" opacity="1">20</text><text x="21" style="color:#666666;cursor:default;font-size:9px;font-family:open sans;font-weight:normal;font-style:normal;fill:#666666;width:403px;text-overflow:clip;" text-anchor="end" transform="translate(0,0)" y="196" opacity="1">30</text><text x="21" style="color:#666666;cursor:default;font-size:9px;font-family:open sans;font-weight:normal;font-style:normal;fill:#666666;width:403px;text-overflow:clip;" text-anchor="end" transform="translate(0,0)" y="122" opacity="1">40</text><text x="0" style="color:#666666;cursor:default;font-size:9px;font-family:open sans;font-weight:normal;font-style:normal;fill:#666666;width:403px;text-overflow:clip;" text-anchor="end" transform="translate(0,0)" y="-9999">50</text></g><g class="highcharts-axis-labels highcharts-yaxis-labels" ></g><g class="highcharts-tooltip"  style="cursor:default;padding:0;pointer-events:none;white-space:nowrap;" transform="translate(0,-9999)"><path fill="none" d="M 3.5 0.5 L 13.5 0.5 C 16.5 0.5 16.5 0.5 16.5 3.5 L 16.5 13.5 C 16.5 16.5 16.5 16.5 13.5 16.5 L 3.5 16.5 C 0.5 16.5 0.5 16.5 0.5 13.5 L 0.5 3.5 C 0.5 0.5 0.5 0.5 3.5 0.5"  stroke="black" stroke-opacity="0.049999999999999996" stroke-width="5" transform="translate(1, 1)"></path><path fill="none" d="M 3.5 0.5 L 13.5 0.5 C 16.5 0.5 16.5 0.5 16.5 3.5 L 16.5 13.5 C 16.5 16.5 16.5 16.5 13.5 16.5 L 3.5 16.5 C 0.5 16.5 0.5 16.5 0.5 13.5 L 0.5 3.5 C 0.5 0.5 0.5 0.5 3.5 0.5"  stroke="black" stroke-opacity="0.09999999999999999" stroke-width="3" transform="translate(1, 1)"></path><path fill="none" d="M 3.5 0.5 L 13.5 0.5 C 16.5 0.5 16.5 0.5 16.5 3.5 L 16.5 13.5 C 16.5 16.5 16.5 16.5 13.5 16.5 L 3.5 16.5 C 0.5 16.5 0.5 16.5 0.5 13.5 L 0.5 3.5 C 0.5 0.5 0.5 0.5 3.5 0.5"  stroke="black" stroke-opacity="0.15" stroke-width="1" transform="translate(1, 1)"></path><path fill="rgb(249, 249, 249)" fill-opacity=" .85" d="M 3.5 0.5 L 13.5 0.5 C 16.5 0.5 16.5 0.5 16.5 3.5 L 16.5 13.5 C 16.5 16.5 16.5 16.5 13.5 16.5 L 3.5 16.5 C 0.5 16.5 0.5 16.5 0.5 13.5 L 0.5 3.5 C 0.5 0.5 0.5 0.5 3.5 0.5"></path><text x="8"  style="font-size:12px;font-weight:normal;color:#333333;width:nanpx;fill:#333333;" y="20"></text></g><g class="highcharts-navigator-handle-right" style="cursor:ew-resize;"  transform="translate(1206,468)"><rect x="-4.5" y="0.5" width="8" height="15" strokeWidth="1" fill="#ebe7e8" stroke="#b2b1b6" stroke-width="1"></rect><path fill="#ebe7e8" d="M -1.5 4 L -1.5 12 M 0.5 4 L 0.5 12" stroke="#b2b1b6" stroke-width="1"></path></g><g class="highcharts-navigator-handle-left" style="cursor:ew-resize;"  transform="translate(50,468)"><rect x="-4.5" y="0.5" width="8" height="15" strokeWidth="1" fill="#ebe7e8" stroke="#b2b1b6" stroke-width="1"></rect><path fill="#ebe7e8" d="M -1.5 4 L -1.5 12 M 0.5 4 L 0.5 12" stroke="#b2b1b6" stroke-width="1"></path></g></svg>