<svg xmlns="http://www.w3.org/2000/svg" xmlns:xlink="http://www.w3.org/1999/xlink" version="1.1" id="Layer_1" x="0px" y="0px" viewBox="0 0 2368 1293" style="enable-background:new 0 0 2368 1293;" xml:space="preserve" width="2368" height="1293">
<style type="text/css">
	.st0{display:none;fill:none;}
	.st1{fill:none;stroke:#D9D9D9;stroke-width:3.4375;stroke-linejoin:round;stroke-miterlimit:10;}
	.st2{fill:none;stroke:#156082;stroke-width:10.3125;stroke-linecap:round;stroke-linejoin:round;stroke-miterlimit:10;}
	.st3{fill:#595959;}
	.st4{font-family:'ArialNarrow';}
	.st5{font-size:41px;}
	.st6{font-size:64px;}
</style>
<rect y="0" class="st0" width="2368" height="1293"/>
<path class="st1" d="M142.5,827.6h2173 M142.5,733.6h2173 M142.5,639.5h2173 M142.5,546.5h2173 M142.5,452.5h2173 M142.5,358.5h2173   M142.5,264.5h2173 M142.5,170.5h2173"/>
<path class="st1" d="M142.5,921.5h2173"/>
<path class="st2" d="M152,921h18.1h18h19h18h19h18h18h19h18h19h18h18h19h18h19h18l19-678l18,678h18l19-43.9l18-141l19-80l18,79  l18,78l19,46l18,47l19-18l18-24l19,25l18-64l18-73l19,121l18-361l19,291l18-189l19-10l18,42l18,91l19,134l18,12l19,15l18-9l18-19  l19,38l18-115l19,39l18,20l19,58l18-23l18,29l19-40l18-29l19,22l18-90l18,95l19,16l18,17l19,13.9l18-4.9l19,4.9l18-8.9l18-34l19,4  l18,13l19,13l18,5l19-5l18-8l18,8l19,9h18l19-17l18-22l18-13l19,39l18-9l19,9l18,9l19,4h18h18h19l18,3.9h19l18-3.9l18,3.9l19-3.9  l18,3.9h19h18h19h18h18h19h18h19h18h18h19h18l19-3.9h18h19l18-4l18,4l19-4l18,4h19l18,3.9h19h18h18h19h18l19-3.9h18l18.8,3.9"/>
<text transform="matrix(1 0 0 1 51.9399 933)" class="st3 st4 st5">0%</text>
<text transform="matrix(1 0 0 1 51.9399 839)" class="st3 st4 st5">5%</text>
<text transform="matrix(1 0 0 1 31.04 745)" class="st3 st4 st5">10%</text>
<text transform="matrix(1 0 0 1 31.04 651)" class="st3 st4 st5">15%</text>
<text transform="matrix(1 0 0 1 31.04 558)" class="st3 st4 st5">20%</text>
<text transform="matrix(1 0 0 1 31.04 464)" class="st3 st4 st5">25%</text>
<text transform="matrix(1 0 0 1 31.04 370)" class="st3 st4 st5">30%</text>
<text transform="matrix(1 0 0 1 31.04 276)" class="st3 st4 st5">35%</text>
<text transform="matrix(1 0 0 1 31.04 183)" class="st3 st4 st5">40%</text>
<text transform="matrix(6.123230e-17 -1 1 6.123230e-17 165.3301 1210.9994)" class="st3 st4 st5">1st (1789-1791)</text>
<text transform="matrix(6.123230e-17 -1 1 6.123230e-17 220.5901 1213.9994)" class="st3 st4 st5">4th (1795-1797)</text>
<text transform="matrix(6.123230e-17 -1 1 6.123230e-17 275.8501 1213.9994)" class="st3 st4 st5">7th (1801-1803)</text>
<text transform="matrix(6.123230e-17 -1 1 6.123230e-17 331.1101 1234.9994)" class="st3 st4 st5">10th (1807-1809)</text>
<text transform="matrix(6.123230e-17 -1 1 6.123230e-17 386.3701 1234.9994)" class="st3 st4 st5">13th (1813-1815)</text>
<text transform="matrix(6.123230e-17 -1 1 6.123230e-17 441.6299 1234.9994)" class="st3 st4 st5">16th (1819-1821)</text>
<text transform="matrix(6.123230e-17 -1 1 6.123230e-17 496.8899 1234.9994)" class="st3 st4 st5">19th (1825-1827)</text>
<text transform="matrix(6.123230e-17 -1 1 6.123230e-17 552.1499 1243.9994)" class="st3 st4 st5">22nd (1831-1833)</text>
<text transform="matrix(6.123230e-17 -1 1 6.123230e-17 607.4099 1234.9994)" class="st3 st4 st5">25th (1837-1839)</text>
<text transform="matrix(6.123230e-17 -1 1 6.123230e-17 662.6699 1234.9994)" class="st3 st4 st5">28th (1843-1845)</text>
<text transform="matrix(6.123230e-17 -1 1 6.123230e-17 717.9299 1231.9994)" class="st3 st4 st5">31st (1849-1851)</text>
<text transform="matrix(6.123230e-17 -1 1 6.123230e-17 773.1899 1234.9994)" class="st3 st4 st5">34th (1855-1857)</text>
<text transform="matrix(6.123230e-17 -1 1 6.123230e-17 828.45 1234.9994)" class="st3 st4 st5">37th (1861-1863)</text>
<text transform="matrix(6.123230e-17 -1 1 6.123230e-17 883.71 1234.9994)" class="st3 st4 st5">40th (1867-1869)</text>
<text transform="matrix(6.123230e-17 -1 1 6.123230e-17 938.96 1235.9994)" class="st3 st4 st5">43rd (1873-1875)</text>
<text transform="matrix(6.123230e-17 -1 1 6.123230e-17 994.22 1234.9994)" class="st3 st4 st5">46th (1879-1881)</text>
<text transform="matrix(6.123230e-17 -1 1 6.123230e-17 1049.48 1234.9994)" class="st3 st4 st5">49th (1885-1887)</text>
<text transform="matrix(6.123230e-17 -1 1 6.123230e-17 1104.74 1243.9994)" class="st3 st4 st5">52nd (1891-1893)</text>
<text transform="matrix(6.123230e-17 -1 1 6.123230e-17 1160 1234.9994)" class="st3 st4 st5">55th (1897-1899)</text>
<text transform="matrix(6.123230e-17 -1 1 6.123230e-17 1215.26 1234.9994)" class="st3 st4 st5">58th (1903-1905)</text>
<text transform="matrix(6.123230e-17 -1 1 6.123230e-17 1270.52 1231.9994)" class="st3 st4 st5">61st (1909-1911)</text>
<text transform="matrix(6.123230e-17 -1 1 6.123230e-17 1325.78 1234.9994)" class="st3 st4 st5">64th (1915-1917)</text>
<text transform="matrix(6.123230e-17 -1 1 6.123230e-17 1381.04 1234.9994)" class="st3 st4 st5">67th (1921-1923)</text>
<text transform="matrix(6.123230e-17 -1 1 6.123230e-17 1436.3 1234.9994)" class="st3 st4 st5">70th (1927-1929)</text>
<text transform="matrix(6.123230e-17 -1 1 6.123230e-17 1491.5601 1235.9994)" class="st3 st4 st5">73rd (1933-1935)</text>
<text transform="matrix(6.123230e-17 -1 1 6.123230e-17 1546.8198 1238.9994)" class="st3 st4 st5">76th (1939</text>
<text transform="matrix(6.123230e-17 -1 1 6.123230e-17 1546.8198 1059.9994)" class="st3 st4 st5">–</text>
<text transform="matrix(6.123230e-17 -1 1 6.123230e-17 1546.8198 1042.9994)" class="st3 st4 st5">1941)</text>
<text transform="matrix(6.123230e-17 -1 1 6.123230e-17 1602.0801 1238.9994)" class="st3 st4 st5">79th (1945</text>
<text transform="matrix(6.123230e-17 -1 1 6.123230e-17 1602.0801 1059.9994)" class="st3 st4 st5">–</text>
<text transform="matrix(6.123230e-17 -1 1 6.123230e-17 1602.0801 1042.9994)" class="st3 st4 st5">1947)</text>
<text transform="matrix(6.123230e-17 -1 1 6.123230e-17 1657.3398 1247.9994)" class="st3 st4 st5">82nd (1951</text>
<text transform="matrix(6.123230e-17 -1 1 6.123230e-17 1657.3398 1059.9994)" class="st3 st4 st5">–</text>
<text transform="matrix(6.123230e-17 -1 1 6.123230e-17 1657.3398 1042.9994)" class="st3 st4 st5">1953)</text>
<text transform="matrix(6.123230e-17 -1 1 6.123230e-17 1767.8599 1238.9994)" class="st3 st4 st5">88th (1963</text>
<text transform="matrix(6.123230e-17 -1 1 6.123230e-17 1767.8599 1059.9994)" class="st3 st4 st5">–</text>
<text transform="matrix(6.123230e-17 -1 1 6.123230e-17 1767.8599 1042.9994)" class="st3 st4 st5">1965)</text>
<text transform="matrix(6.123230e-17 -1 1 6.123230e-17 1823.1201 1236.9994)" class="st3 st4 st5">91st (1969</text>
<text transform="matrix(6.123230e-17 -1 1 6.123230e-17 1823.1201 1059.9994)" class="st3 st4 st5">–</text>
<text transform="matrix(6.123230e-17 -1 1 6.123230e-17 1823.1201 1042.9994)" class="st3 st4 st5">1971)</text>
<text transform="matrix(6.123230e-17 -1 1 6.123230e-17 1878.3799 1238.9994)" class="st3 st4 st5">94th (1975</text>
<text transform="matrix(6.123230e-17 -1 1 6.123230e-17 1878.3799 1059.9994)" class="st3 st4 st5">–</text>
<text transform="matrix(6.123230e-17 -1 1 6.123230e-17 1878.3799 1042.9994)" class="st3 st4 st5">1977)</text>
<text transform="matrix(6.123230e-17 -1 1 6.123230e-17 1988.8999 1259.9994)" class="st3 st4 st5">100th (1987</text>
<text transform="matrix(6.123230e-17 -1 1 6.123230e-17 1988.8999 1059.9994)" class="st3 st4 st5">–</text>
<text transform="matrix(6.123230e-17 -1 1 6.123230e-17 1988.8999 1042.9994)" class="st3 st4 st5">1989)</text>
<text transform="matrix(6.123230e-17 -1 1 6.123230e-17 2044.1602 1260.9994)" class="st3 st4 st5">103rd (1993</text>
<text transform="matrix(6.123230e-17 -1 1 6.123230e-17 2044.1602 1059.9994)" class="st3 st4 st5">–</text>
<text transform="matrix(6.123230e-17 -1 1 6.123230e-17 2044.1602 1042.9994)" class="st3 st4 st5">1995)</text>
<text transform="matrix(6.123230e-17 -1 1 6.123230e-17 2099.4199 1259.9994)" class="st3 st4 st5">106th (1999</text>
<text transform="matrix(6.123230e-17 -1 1 6.123230e-17 2099.4199 1059.9994)" class="st3 st4 st5">–</text>
<text transform="matrix(6.123230e-17 -1 1 6.123230e-17 2099.4199 1042.9994)" class="st3 st4 st5">2001)</text>
<text transform="matrix(6.123230e-17 -1 1 6.123230e-17 2154.6802 1259.9994)" class="st3 st4 st5">109th (2005</text>
<text transform="matrix(6.123230e-17 -1 1 6.123230e-17 2154.6802 1059.9994)" class="st3 st4 st5">–</text>
<text transform="matrix(6.123230e-17 -1 1 6.123230e-17 2154.6802 1042.9994)" class="st3 st4 st5">2007)</text>
<text transform="matrix(6.123230e-17 -1 1 6.123230e-17 2209.9302 1259.9994)" class="st3 st4 st5">112th (2011</text>
<text transform="matrix(6.123230e-17 -1 1 6.123230e-17 2209.9302 1059.9994)" class="st3 st4 st5">–</text>
<text transform="matrix(6.123230e-17 -1 1 6.123230e-17 2209.9302 1042.9994)" class="st3 st4 st5">2013)</text>
<text transform="matrix(6.123230e-17 -1 1 6.123230e-17 2265.1899 1259.9994)" class="st3 st4 st5">115th (2017</text>
<text transform="matrix(6.123230e-17 -1 1 6.123230e-17 2265.1899 1059.9994)" class="st3 st4 st5">–</text>
<text transform="matrix(6.123230e-17 -1 1 6.123230e-17 2265.1899 1042.9994)" class="st3 st4 st5">2019)</text>
<text transform="matrix(6.123230e-17 -1 1 6.123230e-17 1715.8186 1248.9193)" class="st3 st4 st5">85th (1957  -  1959)</text>
<text transform="matrix(6.123230e-17 -1 1 6.123230e-17 1936.8562 1240.7904)" class="st3 st4 st5">97th (1981  - 1983)</text>
<text transform="matrix(6.123230e-17 -1 1 6.123230e-17 2320.24 1261.7338)" class="st3 st4 st5">118th (2023  - 2025)</text>
</svg>