<svg version="1.1" xmlns="http://www.w3.org/2000/svg" viewBox="0 0 559.1244483804322 353.9983820454362" width="559.1244483804322" height="353.9983820454362" class="excalidraw-svg">
  <!-- svg-source:excalidraw -->
  
  <defs>
    <style class="style-fonts">
      
    </style>
    
  </defs>
  <g stroke-linecap="round"><g transform="translate(40.1021728515625 313.8000188007496) rotate(0 0 -140.40000915527344)"><path d="M0 0 C0 -46.8, 0 -234, 0 -280.8 M0 0 C0 -46.8, 0 -234, 0 -280.8" stroke="#1e1e1e" stroke-width="2" fill="none"/></g><g transform="translate(40.1021728515625 313.8000188007496) rotate(0 0 -140.40000915527344)"><path d="M8.55 -257.31 C6.36 -263.33, 4.17 -269.36, 0 -280.8 M8.55 -257.31 C6.75 -262.24, 4.96 -267.18, 0 -280.8" stroke="#1e1e1e" stroke-width="2" fill="none"/></g><g transform="translate(40.1021728515625 313.8000188007496) rotate(0 0 -140.40000915527344)"><path d="M-8.55 -257.31 C-6.36 -263.33, -4.17 -269.36, 0 -280.8 M-8.55 -257.31 C-6.75 -262.24, -4.96 -267.18, 0 -280.8" stroke="#1e1e1e" stroke-width="2" fill="none"/></g></g><mask/><g stroke-linecap="round"><g transform="translate(40.10217305859379 313.8000183349293) rotate(0 254.51113766091922 0)"><path d="M0 0 C84.84 0, 424.19 0, 509.02 0 M0 0 C84.84 0, 424.19 0, 509.02 0" stroke="#1e1e1e" stroke-width="2" fill="none"/></g><g transform="translate(40.10217305859379 313.8000183349293) rotate(0 254.51113766091922 0)"><path d="M485.53 8.55 C490.83 6.62, 496.14 4.69, 509.02 0 M485.53 8.55 C494.86 5.16, 504.18 1.76, 509.02 0" stroke="#1e1e1e" stroke-width="2" fill="none"/></g><g transform="translate(40.10217305859379 313.8000183349293) rotate(0 254.51113766091922 0)"><path d="M485.53 -8.55 C490.83 -6.62, 496.14 -4.69, 509.02 0 M485.53 -8.55 C494.86 -5.16, 504.18 -1.76, 509.02 0" stroke="#1e1e1e" stroke-width="2" fill="none"/></g></g><mask/><g transform="translate(285.4721695889926 320.9983820454362) rotate(0 18.8916015625 11.5)"><text x="0" y="16.900390625" font-family="Helvetica, Segoe UI Emoji" font-size="20px" fill="#1e1e1e" text-anchor="start" style="white-space: pre;" direction="ltr" dominant-baseline="alphabetic">time</text></g><g transform="translate(-33.189453125 175.09997607614025) rotate(270 54.689453125 11.5)"><text x="0" y="16.900390625" font-family="Helvetica, Segoe UI Emoji" font-size="20px" fill="#1e1e1e" text-anchor="start" style="white-space: pre;" direction="ltr" dominant-baseline="alphabetic">employment</text></g><g stroke-linecap="round"><g transform="translate(56.1021728515625 98.19998217965588) rotate(0 228.80001831054688 100.4000244140625)"><path d="M0 0 C11.33 4.67, 31.2 4.53, 68 28 C104.8 51.47, 174.8 113.6, 220.8 140.8 C266.8 168, 304.53 181.2, 344 191.2 C383.47 201.2, 438.67 199.2, 457.6 200.8 M0 0 C11.33 4.67, 31.2 4.53, 68 28 C104.8 51.47, 174.8 113.6, 220.8 140.8 C266.8 168, 304.53 181.2, 344 191.2 C383.47 201.2, 438.67 199.2, 457.6 200.8" stroke="#2f9e44" stroke-width="2" fill="none"/></g></g><mask/><g stroke-linecap="round"><g transform="translate(59.30218505859375 280.8950851552303) rotate(0 228.39996337890625 -59.54750257106575)"><path d="M0 0 C8.4 -2.09, 9.47 7.31, 50.4 -12.54 C91.33 -32.39, 177.87 -114.6, 245.6 -119.1 C313.33 -123.59, 421.6 -52.76, 456.8 -39.49 M0 0 C8.4 -2.09, 9.47 7.31, 50.4 -12.54 C91.33 -32.39, 177.87 -114.6, 245.6 -119.1 C313.33 -123.59, 421.6 -52.76, 456.8 -39.49" stroke="#1971c2" stroke-width="2" fill="none"/></g></g><mask/><g stroke-linecap="round"><g transform="translate(58.50213623046875 292.199955476775) rotate(0 227.5999755859375 -99.19998168945312)"><path d="M0 0 C21.2 -7.47, 75.07 -18.27, 127.2 -44.8 C179.33 -71.33, 258.13 -133.6, 312.8 -159.2 C367.47 -184.8, 431.47 -191.87, 455.2 -198.4 M0 0 C21.2 -7.47, 75.07 -18.27, 127.2 -44.8 C179.33 -71.33, 258.13 -133.6, 312.8 -159.2 C367.47 -184.8, 431.47 -191.87, 455.2 -198.4" stroke="#343a40" stroke-width="2" fill="none"/></g></g><mask/><g transform="translate(52.90216064453125 72.20001651193127) rotate(0 46.689453125 11.5)"><text x="0" y="16.900390625" font-family="Helvetica, Segoe UI Emoji" font-size="20px" fill="#2f9e44" text-anchor="start" style="white-space: pre;" direction="ltr" dominant-baseline="alphabetic">agriculture</text></g><g transform="translate(59.81268310546875 234.29996158029064) rotate(0 36.0146484375 11.5)"><text x="0" y="16.900390625" font-family="Helvetica, Segoe UI Emoji" font-size="20px" fill="#1971c2" text-anchor="start" style="white-space: pre;" direction="ltr" dominant-baseline="alphabetic">industry</text></g><g transform="translate(104.93352458564232 276.54709860412987) rotate(0 31.6748046875 11.5)"><text x="0" y="16.900390625" font-family="Helvetica, Segoe UI Emoji" font-size="20px" fill="#1e1e1e" text-anchor="start" style="white-space: pre;" direction="ltr" dominant-baseline="alphabetic">service</text></g><g stroke-linecap="round"><g transform="translate(197.85107421875 17.450024141325798) rotate(0 0 148.79999923706055)"><path d="M0 0 C0 49.6, 0 248, 0 297.6" stroke="#1e1e1e" stroke-width="2.5" fill="none" stroke-dasharray="8 10"/></g></g><mask/><g stroke-linecap="round"><g transform="translate(361.62445911787927 17.450024921954196) rotate(0 0 148.79999923706055)"><path d="M0 0 C0 49.6, 0 248, 0 297.6" stroke="#1e1e1e" stroke-width="2.5" fill="none" stroke-dasharray="8 10"/></g></g><mask/><g transform="translate(241.72324843220667 10) rotate(0 40.2978515625 11.5)"><text x="0" y="16.900390625" font-family="Helvetica, Segoe UI Emoji" font-size="20px" fill="#1e1e1e" text-anchor="start" style="white-space: pre;" direction="ltr" dominant-baseline="alphabetic">industrial</text></g><g transform="translate(60.89556964930358 10.000000486640829) rotate(0 58.0810546875 11.5)"><text x="0" y="16.900390625" font-family="Helvetica, Segoe UI Emoji" font-size="20px" fill="#1e1e1e" text-anchor="start" style="white-space: pre;" direction="ltr" dominant-baseline="alphabetic">pre-industrial</text></g><g transform="translate(385.0767224208139 10.000000200798013) rotate(0 62.529296875 11.5)"><text x="0" y="16.900390625" font-family="Helvetica, Segoe UI Emoji" font-size="20px" fill="#1e1e1e" text-anchor="start" style="white-space: pre;" direction="ltr" dominant-baseline="alphabetic">post-industrial</text></g></svg>