<?xml version="1.0" encoding="UTF-8" standalone="no"?>
<svg width="500px" height="500px" viewBox="0 0 500 500" xmlns="http://www.w3.org/2000/svg">
  <style>
    .grid-line { stroke: #dddddd; stroke-width: 0.5; }
    .finder { fill: black; }
    .finder-inner { fill: white; }
    .finder-center { fill: black; }
    .alignment { fill: black; }
    .alignment-inner { fill: white; }
    .alignment-center { fill: black; }
    .timing { fill: black; }
  </style>
  
  <!-- Grid lines -->
  <g>
    <!-- Vertical lines -->
    <line class="grid-line" x1="0" y1="0" x2="0" y2="500" />
    <line class="grid-line" x1="20" y1="0" x2="20" y2="500" />
    <!-- More vertical lines... -->
    <line class="grid-line" x1="480" y1="0" x2="480" y2="500" />
    <line class="grid-line" x1="500" y1="0" x2="500" y2="500" />
    
    <!-- Horizontal lines -->
    <line class="grid-line" x1="0" y1="0" x2="500" y2="0" />
    <line class="grid-line" x1="0" y1="20" x2="500" y2="20" />
    <!-- More horizontal lines... -->
    <line class="grid-line" x1="0" y1="480" x2="500" y2="480" />
    <line class="grid-line" x1="0" y1="500" x2="500" y2="500" />
  </g>

  <!-- Finder Patterns (7x7 each) -->
  <!-- Top-left finder pattern -->
  <rect class="finder" x="0" y="0" width="140" height="140" />
  <rect class="finder-inner" x="20" y="20" width="100" height="100" />
  <rect class="finder-center" x="40" y="40" width="60" height="60" />

  <!-- Top-right finder pattern -->
  <rect class="finder" x="360" y="0" width="140" height="140" />
  <rect class="finder-inner" x="380" y="20" width="100" height="100" />
  <rect class="finder-center" x="400" y="40" width="60" height="60" />

  <!-- Bottom-left finder pattern -->
  <rect class="finder" x="0" y="360" width="140" height="140" />
  <rect class="finder-inner" x="20" y="380" width="100" height="100" />
  <rect class="finder-center" x="40" y="400" width="60" height="60" />
  
  <!-- Alignment Pattern (5x5) - for version 2+ -->
  <rect class="alignment" x="400" y="400" width="60" height="60" />
  <rect class="alignment-inner" x="410" y="410" width="40" height="40" />
  <rect class="alignment-center" x="420" y="420" width="20" height="20" />
  
  <!-- Timing Patterns ("pedestrian crossways") -->
  <!-- Horizontal timing pattern -->
  <rect class="timing" x="140" y="120" width="20" height="20" />
  <rect class="timing" x="180" y="120" width="20" height="20" />
  <rect class="timing" x="220" y="120" width="20" height="20" />
  <rect class="timing" x="260" y="120" width="20" height="20" />
  <rect class="timing" x="300" y="120" width="20" height="20" />
  <rect class="timing" x="340" y="120" width="20" height="20" />
  
  <!-- Vertical timing pattern -->
  <rect class="timing" x="120" y="140" width="20" height="20" />
  <rect class="timing" x="120" y="180" width="20" height="20" />
  <rect class="timing" x="120" y="220" width="20" height="20" />
  <rect class="timing" x="120" y="260" width="20" height="20" />
  <rect class="timing" x="120" y="300" width="20" height="20" />
  <rect class="timing" x="120" y="340" width="20" height="20" />
  
  <!-- Format Information area -->
  <rect fill="#f8f8f8" x="0" y="140" width="140" height="20" />
  <rect fill="#f8f8f8" x="140" y="0" width="20" height="140" />
  <rect fill="#f8f8f8" x="340" y="0" width="20" height="140" />
  <rect fill="#f8f8f8" x="0" y="340" width="140" height="20" />
</svg>