<?xml version="1.0" encoding="UTF-8"?>
<svg id="raphael-paper-6" xmlns="http://www.w3.org/2000/svg" version="1.1" xmlns:xlink="http://www.w3.org/1999/xlink" viewBox="0 0 758 400">
  <defs>
    <style>
      .cls-1 {
        fill: #b7cca2;
      }

      .cls-1, .cls-2, .cls-3, .cls-4, .cls-5 {
        stroke-width: 0px;
      }

      .cls-6 {
        stroke: #717170;
        stroke-dasharray: 0 0 4 2;
        stroke-opacity: .4;
      }

      .cls-6, .cls-3, .cls-7 {
        fill: none;
      }

      .cls-2 {
        fill: #c9f76f;
      }

      .cls-8 {
        fill: #eee;
        fill-opacity: 0;
        stroke: #eee;
        stroke-opacity: 0;
      }

      .cls-9 {
        font-family: ArialMT, Arial;
      }

      .cls-9, .cls-10 {
        fill: #555;
        font-size: 10px;
        isolation: isolate;
      }

      .cls-11 {
        fill: url(#linear-gradient);
        stroke: #a4c366;
      }

      .cls-11, .cls-12, .cls-13, .cls-14, .cls-15, .cls-16 {
        stroke-linecap: round;
      }

      .cls-11, .cls-15, .cls-16 {
        stroke-width: .5px;
      }

      .cls-12 {
        stroke: silver;
        stroke-opacity: 0;
      }

      .cls-12, .cls-4 {
        fill: silver;
        fill-opacity: 0;
      }

      .cls-13 {
        stroke: #bbb;
      }

      .cls-13, .cls-14 {
        fill: #fff;
      }

      .cls-14 {
        stroke: #9a9a9a;
      }

      .cls-15 {
        fill: url(#linear-gradient-3);
        stroke: #d4e0c7;
      }

      .cls-7 {
        stroke: #000;
      }

      .cls-7, .cls-17 {
        display: none;
      }

      .cls-10 {
        font-family: Arial-BoldMT, Arial;
        font-weight: 700;
      }

      .cls-18 {
        clip-path: url(#clippath-3);
      }

      .cls-5 {
        fill: #679b00;
      }

      .cls-16 {
        fill: url(#linear-gradient-2);
        stroke: #dffaa9;
      }
    </style>
    <clipPath id="clippath-3">
      <rect class="cls-3" x="65" y="35.2" width="680" height="264.2"/>
    </clipPath>
    <clipPath id="clippath-4">
      <rect class="cls-3" x="67" width="676" height="297.5"/>
    </clipPath>
    <clipPath id="clippath-5">
      <rect class="cls-3" x="65" y="35.2" width="680" height="264.2"/>
    </clipPath>
    <linearGradient id="linear-gradient" x1="-526.8" y1="709.2" x2="-526.8" y2="710.2" gradientTransform="translate(5985.5 8157.5) scale(11 -11)" gradientUnits="userSpaceOnUse">
      <stop offset="0" stop-color="#679b00"/>
      <stop offset=".3" stop-color="#679b00"/>
      <stop offset=".6" stop-color="#c2d799"/>
      <stop offset=".9" stop-color="#679b00"/>
      <stop offset="1" stop-color="#679b00"/>
    </linearGradient>
    <linearGradient id="linear-gradient-2" x1="-526.8" y1="709.2" x2="-526.8" y2="710.2" gradientTransform="translate(6135.1 8157.5) scale(11 -11)" gradientUnits="userSpaceOnUse">
      <stop offset="0" stop-color="#c9f76f"/>
      <stop offset=".3" stop-color="#c9f76f"/>
      <stop offset=".6" stop-color="#eafcc6"/>
      <stop offset=".9" stop-color="#c9f76f"/>
      <stop offset="1" stop-color="#c9f76f"/>
    </linearGradient>
    <linearGradient id="linear-gradient-3" x1="-526.8" y1="709.2" x2="-526.8" y2="710.2" gradientTransform="translate(6265.8 8157.5) scale(11 -11)" gradientUnits="userSpaceOnUse">
      <stop offset="0" stop-color="#b7cca2"/>
      <stop offset=".3" stop-color="#b7cca2"/>
      <stop offset=".6" stop-color="#e2ebda"/>
      <stop offset=".9" stop-color="#b7cca2"/>
      <stop offset="1" stop-color="#b7cca2"/>
    </linearGradient>
  </defs>
  <path class="cls-3" d=""/>
  <g>
    <g>
      <text class="cls-10" transform="translate(370.8 327)"><tspan x="0" y="0">Election Cycle</tspan></text>
      <g>
        <text class="cls-9" transform="translate(83.2 312.9) rotate(-60)"><tspan x="0" y="0">90</tspan></text>
        <text class="cls-9" transform="translate(120.8 312.9) rotate(-60)"><tspan x="0" y="0">92</tspan></text>
        <text class="cls-9" transform="translate(158.4 312.9) rotate(-60)"><tspan x="0" y="0">94</tspan></text>
        <text class="cls-9" transform="translate(195.9 312.9) rotate(-60)"><tspan x="0" y="0">96</tspan></text>
        <text class="cls-9" transform="translate(233.5 312.9) rotate(-60)"><tspan x="0" y="0">98</tspan></text>
        <text class="cls-9" transform="translate(271 312.9) rotate(-60)"><tspan x="0" y="0">00</tspan></text>
        <text class="cls-9" transform="translate(308.6 312.9) rotate(-60)"><tspan x="0" y="0">02</tspan></text>
        <text class="cls-9" transform="translate(346.1 312.9) rotate(-60)"><tspan x="0" y="0">04</tspan></text>
        <text class="cls-9" transform="translate(383.7 312.9) rotate(-60)"><tspan x="0" y="0">06</tspan></text>
        <text class="cls-9" transform="translate(421.2 312.9) rotate(-60)"><tspan x="0" y="0">08</tspan></text>
        <text class="cls-9" transform="translate(458.8 312.9) rotate(-60)"><tspan x="0" y="0">10</tspan></text>
        <text class="cls-9" transform="translate(496.4 312.9) rotate(-60)"><tspan x="0" y="0">12</tspan></text>
        <text class="cls-9" transform="translate(533.9 312.9) rotate(-60)"><tspan x="0" y="0">14</tspan></text>
        <text class="cls-9" transform="translate(571.5 312.9) rotate(-60)"><tspan x="0" y="0">16</tspan></text>
        <text class="cls-9" transform="translate(609 312.9) rotate(-60)"><tspan x="0" y="0">18</tspan></text>
        <text class="cls-9" transform="translate(646.6 312.9) rotate(-60)"><tspan x="0" y="0">20</tspan></text>
        <text class="cls-9" transform="translate(684.1 312.9) rotate(-60)"><tspan x="0" y="0">22</tspan></text>
        <text class="cls-9" transform="translate(721.7 312.9) rotate(-60)"><tspan x="0" y="0">24</tspan></text>
      </g>
      <text class="cls-10" transform="translate(23.6 205.1) rotate(-90)"><tspan x="0" y="0">Total in millions</tspan></text>
      <g>
        <text class="cls-9" transform="translate(51.9 301)"><tspan x="0" y="0">$0</tspan></text>
        <text class="cls-9" transform="translate(32.4 257)"><tspan x="0" y="0">$500M</tspan></text>
        <text class="cls-9" transform="translate(45.2 214)"><tspan x="0" y="0">$1B</tspan></text>
        <text class="cls-9" transform="translate(36.9 170)"><tspan x="0" y="0">$1.5B</tspan></text>
        <text class="cls-9" transform="translate(45.2 127)"><tspan x="0" y="0">$2B</tspan></text>
        <text class="cls-9" transform="translate(36.9 84)"><tspan x="0" y="0">$2.5B</tspan></text>
        <text class="cls-9" transform="translate(45.2 40)"><tspan x="0" y="0">$3B</tspan></text>
      </g>
    </g>
    <g>
      <path class="cls-6" d="M67,297.5h676"/>
      <path class="cls-6" d="M67,254.5h676"/>
      <path class="cls-6" d="M67,210.5h676"/>
      <path class="cls-6" d="M67,167.5h676"/>
      <path class="cls-6" d="M67,124.5h676"/>
      <path class="cls-6" d="M67,80.5h676"/>
      <path class="cls-6" d="M67,37.5h676"/>
    </g>
    <g class="cls-18">
      <g>
        <g>
          <rect class="cls-5" x="70.8" y="297" width="10" height=".5"/>
          <rect class="cls-5" x="108.3" y="296.6" width="10" height=".9"/>
          <rect class="cls-5" x="145.9" y="297" width="10" height=".5"/>
          <rect class="cls-5" x="183.4" y="296.6" width="10" height=".9"/>
          <rect class="cls-5" x="221" y="296.6" width="10" height=".9"/>
          <rect class="cls-5" x="258.5" y="295.5" width="10" height="2"/>
          <rect class="cls-5" x="296.5" y="296.5" width="10" height="1"/>
          <rect class="cls-5" x="333.5" y="292.5" width="10" height="5"/>
          <rect class="cls-5" x="371.5" y="294.5" width="10" height="3"/>
          <rect class="cls-5" x="408.5" y="285.5" width="10" height="12"/>
          <rect class="cls-5" x="446.5" y="280.5" width="10" height="17"/>
          <rect class="cls-5" x="483.5" y="211.5" width="10" height="86"/>
          <rect class="cls-5" x="521.5" y="250.5" width="10" height="47"/>
          <rect class="cls-5" x="558.5" y="177.5" width="10" height="120"/>
          <rect class="cls-5" x="596.5" y="204.5" width="10" height="93"/>
          <rect class="cls-5" x="634.5" y="47.5" width="10" height="250"/>
          <rect class="cls-5" x="671.5" y="122.5" width="10" height="175"/>
          <rect class="cls-5" x="709.5" y="244.5" width="10" height="53"/>
        </g>
        <g>
          <rect class="cls-2" x="80.8" y="297.4" width="10" height=".1"/>
          <rect class="cls-2" x="118.3" y="296.7" width="10" height=".8"/>
          <rect class="cls-2" x="155.9" y="297.1" width="10" height=".4"/>
          <rect class="cls-2" x="193.4" y="296.8" width="10" height=".7"/>
          <rect class="cls-2" x="231" y="297.1" width="10" height=".4"/>
          <rect class="cls-2" x="268.5" y="296.5" width="10" height="1"/>
          <rect class="cls-2" x="306.1" y="296.6" width="10" height=".9"/>
          <rect class="cls-2" x="343.5" y="295.5" width="10" height="2"/>
          <rect class="cls-2" x="381.5" y="296.5" width="10" height="1"/>
          <rect class="cls-2" x="418.5" y="292.5" width="10" height="5"/>
          <rect class="cls-2" x="456.5" y="295.5" width="10" height="2"/>
          <rect class="cls-2" x="493.5" y="296.5" width="10" height="1"/>
          <rect class="cls-2" x="531.4" y="296.7" width="10" height=".8"/>
          <rect class="cls-2" x="568.5" y="296.5" width="11" height="1"/>
          <rect class="cls-2" x="606.5" y="297.1" width="10" height=".4"/>
          <rect class="cls-2" x="644.1" y="297" width="10" height=".5"/>
          <rect class="cls-2" x="681.7" y="297.2" width="10" height=".3"/>
          <rect class="cls-2" x="719.2" y="297.5" width="10" height="0"/>
        </g>
        <g>
          <rect class="cls-1" x="90.8" y="297.4" width="10" height="0"/>
          <rect class="cls-1" x="128.3" y="297.4" width="10" height="0"/>
          <rect class="cls-1" x="165.9" y="297.4" width="10" height="0"/>
          <rect class="cls-1" x="203.5" y="297.4" width="10" height="0"/>
          <rect class="cls-1" x="241" y="297.4" width="10" height="0"/>
          <rect class="cls-1" x="278.6" y="297.4" width="10" height="0"/>
          <rect class="cls-1" x="316.1" y="297.4" width="10" height="0"/>
          <rect class="cls-1" x="353.5" y="289.5" width="10" height="8"/>
          <rect class="cls-1" x="391.5" y="296.5" width="10" height="1"/>
          <rect class="cls-1" x="428.5" y="286.5" width="10" height="11"/>
          <rect class="cls-1" x="466.5" y="291.5" width="10" height="6"/>
          <rect class="cls-1" x="503.5" y="296.5" width="10" height="1"/>
          <rect class="cls-1" x="541.5" y="296.8" width="10" height=".7"/>
          <rect class="cls-1" x="579" y="296.6" width="10" height=".9"/>
          <rect class="cls-1" x="616.5" y="296.5" width="10" height="1"/>
          <rect class="cls-1" x="654.5" y="295.5" width="10" height="2"/>
          <rect class="cls-1" x="691.7" y="297.1" width="10" height=".4"/>
          <rect class="cls-1" x="729.2" y="297.4" width="10" height="0"/>
        </g>
      </g>
    </g>
    <g>
      <text class="cls-9" transform="translate(201.5 354.5)"><tspan x="0" y="0">Independent Expenditures</tspan></text>
      <path class="cls-11" d="M185.5,356.5v-7.7h2.8v7.7h-2.8ZM189.6,356.5v-11h2.8v11h-2.8ZM193.8,356.5v-4.4h2.8v4.4h-2.8Z"/>
      <rect class="cls-4" x="182.5" y="342.5" width="138.8" height="17"/>
      <text class="cls-9" transform="translate(351.1 354.5)"><tspan x="0" y="0">Communication Costs</tspan></text>
      <path class="cls-16" d="M335.1,356.5v-7.7h2.8v7.7h-2.8ZM339.2,356.5v-11h2.8v11h-2.8ZM343.4,356.5v-4.4h2.8v4.4h-2.8Z"/>
      <rect class="cls-4" x="332.1" y="342.5" width="119.8" height="17"/>
      <text class="cls-9" transform="translate(481.8 354.5)"><tspan x="0" y="0">Electioneering Communications</tspan></text>
      <path class="cls-15" d="M465.8,356.5v-7.7h2.8v7.7h-2.8ZM469.9,356.5v-11h2.8v11h-2.8ZM474,356.5v-4.4h2.8v4.4h-2.8Z"/>
      <rect class="cls-4" x="462.8" y="342.5" width="162.6" height="17"/>
    </g>
    <g>
      <rect class="cls-8" x="725.8" y="6" width="22.2" height="22.2"/>
      <g class="cls-17">
        <rect class="cls-13" x="728.5" y="8.5" width="17" height="17" rx="2.3" ry="2.3"/>
        <path class="cls-14" d="M732.8,17h8.4M732.8,20h8.4M732.8,14h8.4"/>
        <rect class="cls-12" x="728.5" y="8.5" width="17" height="17" rx="2.3" ry="2.3"/>
      </g>
    </g>
  </g>
  <rect class="cls-7" width="10" height="30"/>
  <path class="cls-3" d=""/>
</svg>