<svg xmlns:xlink="http://www.w3.org/1999/xlink" xmlns="http://www.w3.org/2000/svg" height="400" version="1.1" width="758" id="raphael-paper-6" style="overflow: hidden; -webkit-tap-highlight-color: rgba(0, 0, 0, 0); user-select: none; cursor: default; vertical-align: middle; position: relative; left: -0.333374px; top: -0.416748px; background-color: rgb(255, 255, 255);"><defs><clipPath id="rr-39660DE2-A84E-43A2-BDA9-CBD5F9AED553"><rect x="67" y="37.25" width="676" height="260.25" transform="matrix(1,0,0,1,0,0)"/></clipPath><clipPath id="rr-D7FF2766-6BD7-4D62-ADAE-C2D8BA5AF0B7"><rect x="67" y="37.25" width="676" height="260.25" transform="matrix(1,0,0,1,0,0)"/></clipPath><clipPath id="rr-044CA925-0439-45E8-B0F5-97702F6338BB"><rect x="65" y="35.25" width="680" height="264.25" transform="matrix(1,0,0,1,0,0)"/></clipPath><clipPath id="rr-C3422912-9A30-41E0-81F4-7C7558817DB3"><rect x="65" y="35.25" width="680" height="264.25" transform="matrix(1,0,0,1,0,0)"/></clipPath><clipPath id="rr-6B2DBF10-1F3C-4006-89D7-DF014C53E73F"><rect x="65" y="35.25" width="680" height="264.25" transform="matrix(1,0,0,1,0,0)"/></clipPath><clipPath id="rr-6A4AA088-E21B-4922-9454-B116D113EB8C"><rect x="67" y="0" width="676" height="297.5" transform="matrix(1,0,0,1,0,0)"/></clipPath><linearGradient id="rr-6-90-rgba_103_155_0_1__0-rgba_103_155_0_1__30-rgba_194_215_153_1__60-rgba_103_155_0_1__90-rgba_103_155_0_1__100" x1="0" y1="1" x2="6.123233995736766e-17" y2="0"><stop offset="0%" stop-color="#679b00" stop-opacity="1"/><stop offset="30%" stop-color="#679b00" stop-opacity="1"/><stop offset="60%" stop-color="#c2d799" stop-opacity="1"/><stop offset="90%" stop-color="#679b00" stop-opacity="1"/><stop offset="100%" stop-color="#679b00" stop-opacity="1"/></linearGradient><linearGradient id="rr-6-90-rgba_201_247_111_1__0-rgba_201_247_111_1__30-rgba_234_252_198_1__60-rgba_201_247_111_1__90-rgba_201_247_111_1__100" x1="0" y1="1" x2="6.123233995736766e-17" y2="0"><stop offset="0%" stop-color="#c9f76f" stop-opacity="1"/><stop offset="30%" stop-color="#c9f76f" stop-opacity="1"/><stop offset="60%" stop-color="#eafcc6" stop-opacity="1"/><stop offset="90%" stop-color="#c9f76f" stop-opacity="1"/><stop offset="100%" stop-color="#c9f76f" stop-opacity="1"/></linearGradient><linearGradient id="rr-6-90-rgba_183_204_162_1__0-rgba_183_204_162_1__30-rgba_226_235_218_1__60-rgba_183_204_162_1__90-rgba_183_204_162_1__100" x1="0" y1="1" x2="6.123233995736766e-17" y2="0"><stop offset="0%" stop-color="#b7cca2" stop-opacity="1"/><stop offset="30%" stop-color="#b7cca2" stop-opacity="1"/><stop offset="60%" stop-color="#e2ebda" stop-opacity="1"/><stop offset="90%" stop-color="#b7cca2" stop-opacity="1"/><stop offset="100%" stop-color="#b7cca2" stop-opacity="1"/></linearGradient><clipPath id="rr-76DA24DF-9C8A-4EFE-B3E9-DCE50A187B39"><rect x="67" y="37.25" width="676" height="260.25" transform="matrix(1,0,0,1,0,0)"/></clipPath><clipPath id="rr-A3B21ACF-D81F-460F-B33A-B0BD4776DACF"><rect x="67" y="37.25" width="676" height="260.25" transform="matrix(1,0,0,1,0,0)"/></clipPath></defs><g class="raphael-group-7-parentgroup"><g class="raphael-group-8-background"><rect x="0" y="0" width="758" height="400" stroke="none" fill-opacity="0.5" fill="#ffffff" ry="0" rx="0"/><rect x="0" y="0" width="758" height="400" stroke="#767575" stroke-opacity="0.5" stroke-width="0" stroke-dasharray="none" fill="none" ry="0" rx="0"/></g><g class="raphael-group-33-canvas"><rect x="67" y="37.25" width="676" height="260.25" ry="0" rx="0" stroke-width="0" stroke="none" fill-opacity="1" fill="#ffffff"/></g><g class="raphael-group-9-axisbottom"><g class="raphael-group-177-dataset-Name-group"><g class="raphael-group-186-dataset-axis-name"><text font-family="Arial" font-size="10px" font-weight="bold" font-style="normal" transform="matrix(1,0,0,1,0,0)" fill-opacity="1" fill="#555555" x="405" stroke="none" text-anchor="middle" y="327" style="font-family: arial; font-size: 10px; font-weight: bold; font-style: normal; text-anchor: middle;">Election Cycle</text></g></g><g class="raphael-group-180-dataset-Label-group"><g class="raphael-group-182-dataset-axis" transform="matrix(1,0,0,1,0,0)" font-family="Arial" font-size="10px" font-weight="normal" font-style="normal" style="font-family: arial; font-size: 10px; font-weight: normal; font-style: normal;"><text transform="matrix(0.5,-0.866,0.866,0.5,-218.2178,225.0357)" opacity="1" fill-opacity="1" fill="#555555" x="85.77777777777777" text-anchor="end" stroke="none" y="305" style="text-anchor: end;">90</text><text transform="matrix(0.5,-0.866,0.866,0.5,-199.44,257.5598)" opacity="1" fill-opacity="1" fill="#555555" x="123.33333333333333" text-anchor="end" stroke="none" y="305" style="text-anchor: end;">92</text><text transform="matrix(0.5,-0.866,0.866,0.5,-180.6622,290.0839)" opacity="1" fill-opacity="1" fill="#555555" x="160.8888888888889" text-anchor="end" stroke="none" y="305" style="text-anchor: end;">94</text><text transform="matrix(0.5,-0.866,0.866,0.5,-161.8844,322.6079)" opacity="1" fill-opacity="1" fill="#555555" x="198.44444444444446" text-anchor="end" stroke="none" y="305" style="text-anchor: end;">96</text><text transform="matrix(0.5,-0.866,0.866,0.5,-143.1067,355.132)" opacity="1" fill-opacity="1" fill="#555555" x="236" text-anchor="end" stroke="none" y="305" style="text-anchor: end;">98</text><text transform="matrix(0.5,-0.866,0.866,0.5,-124.3289,387.6561)" opacity="1" fill-opacity="1" fill="#555555" x="273.55555555555554" text-anchor="end" stroke="none" y="305" style="text-anchor: end;">00</text><text transform="matrix(0.5,-0.866,0.866,0.5,-105.5511,420.1801)" opacity="1" fill-opacity="1" fill="#555555" x="311.1111111111111" text-anchor="end" stroke="none" y="305" style="text-anchor: end;">02</text><text transform="matrix(0.5,-0.866,0.866,0.5,-86.7733,452.7042)" opacity="1" fill-opacity="1" fill="#555555" x="348.6666666666667" text-anchor="end" stroke="none" y="305" style="text-anchor: end;">04</text><text transform="matrix(0.5,-0.866,0.866,0.5,-67.9955,485.2283)" opacity="1" fill-opacity="1" fill="#555555" x="386.22222222222223" text-anchor="end" stroke="none" y="305" style="text-anchor: end;">06</text><text transform="matrix(0.5,-0.866,0.866,0.5,-49.2178,517.7523)" opacity="1" fill-opacity="1" fill="#555555" x="423.77777777777777" text-anchor="end" stroke="none" y="305" style="text-anchor: end;">08</text><text transform="matrix(0.5,-0.866,0.866,0.5,-30.44,550.2764)" opacity="1" fill-opacity="1" fill="#555555" x="461.33333333333337" text-anchor="end" stroke="none" y="305" style="text-anchor: end;">10</text><text transform="matrix(0.5,-0.866,0.866,0.5,-11.6622,582.8005)" opacity="1" fill-opacity="1" fill="#555555" x="498.88888888888886" text-anchor="end" stroke="none" y="305" style="text-anchor: end;">12</text><text transform="matrix(0.5,-0.866,0.866,0.5,7.1156,615.3245)" opacity="1" fill-opacity="1" fill="#555555" x="536.4444444444443" text-anchor="end" stroke="none" y="305" style="text-anchor: end;">14</text><text transform="matrix(0.5,-0.866,0.866,0.5,25.8933,647.8486)" opacity="1" fill-opacity="1" fill="#555555" x="574" text-anchor="end" stroke="none" y="305" style="text-anchor: end;">16</text><text transform="matrix(0.5,-0.866,0.866,0.5,44.6711,680.3726)" opacity="1" fill-opacity="1" fill="#555555" x="611.5555555555555" text-anchor="end" stroke="none" y="305" style="text-anchor: end;">18</text><text transform="matrix(0.5,-0.866,0.866,0.5,63.4489,712.8967)" opacity="1" fill-opacity="1" fill="#555555" x="649.1111111111112" text-anchor="end" stroke="none" y="305" style="text-anchor: end;">20</text><text transform="matrix(0.5,-0.866,0.866,0.5,82.2267,745.4208)" opacity="1" fill-opacity="1" fill="#555555" x="686.6666666666666" text-anchor="end" stroke="none" y="305" style="text-anchor: end;">22</text><text transform="matrix(0.5,-0.866,0.866,0.5,101.0045,777.9448)" opacity="1" fill-opacity="1" fill="#555555" x="724.2222222222222" text-anchor="end" stroke="none" y="305" style="text-anchor: end;">24</text></g></g><g class="raphael-group-187-axis-line-tick-bottom"/><g class="raphael-group-207-dataset-Name-group"><g class="raphael-group-216-dataset-axis-name"><text font-family="Arial" font-size="10px" font-weight="bold" font-style="normal" transform="matrix(0,-1,1,0,-146.375,188.375)" fill-opacity="1" fill="#555555" x="21" stroke="none" text-anchor="middle" y="170" style="font-family: arial; font-size: 10px; font-weight: bold; font-style: normal; text-anchor: middle;">Total in millions</text></g></g><g class="raphael-group-210-dataset-Label-group"><g class="raphael-group-212-dataset-axis" transform="matrix(1,0,0,1,0,0)" font-family="Arial" font-size="10px" font-weight="normal" font-style="normal" style="font-family: arial; font-size: 10px; font-weight: normal; font-style: normal;"><text transform="matrix(1,0,0,1,0,0)" opacity="1" fill-opacity="1" fill="#555555" font-size="10px" text-anchor="end" x="63" stroke="none" y="301" style="font-size: 10px; text-anchor: end;">$0</text><text transform="matrix(1,0,0,1,0,0)" opacity="1" fill-opacity="1" fill="#555555" font-size="10px" text-anchor="end" x="63" stroke="none" y="257" style="font-size: 10px; text-anchor: end;">$500M</text><text transform="matrix(1,0,0,1,0,0)" opacity="1" fill-opacity="1" fill="#555555" font-size="10px" text-anchor="end" x="63" stroke="none" y="214" style="font-size: 10px; text-anchor: end;">$1B</text><text transform="matrix(1,0,0,1,0,0)" opacity="1" fill-opacity="1" fill="#555555" font-size="10px" text-anchor="end" x="63" stroke="none" y="170" style="font-size: 10px; text-anchor: end;">$1.5B</text><text transform="matrix(1,0,0,1,0,0)" opacity="1" fill-opacity="1" fill="#555555" font-size="10px" text-anchor="end" x="63" stroke="none" y="127" style="font-size: 10px; text-anchor: end;">$2B</text><text transform="matrix(1,0,0,1,0,0)" opacity="1" fill-opacity="1" fill="#555555" font-size="10px" text-anchor="end" x="63" stroke="none" y="84" style="font-size: 10px; text-anchor: end;">$2.5B</text><text transform="matrix(1,0,0,1,0,0)" opacity="1" fill-opacity="1" fill="#555555" font-size="10px" text-anchor="end" x="63" stroke="none" y="40" style="font-size: 10px; text-anchor: end;">$3B</text></g></g><g class="raphael-group-217-axis-line-tick-bottom"/><g class="raphael-group-226-dataset-Name-group"><g class="raphael-group-235-dataset-axis-name"/></g><g class="raphael-group-229-dataset-Label-group"><g class="raphael-group-231-dataset-axis" transform="matrix(1,0,0,1,0,0)"/></g><g class="raphael-group-236-axis-line-tick-bottom"/></g><g class="raphael-group-35-axisReferenceVisualsFloor" clip-path="url('#rr-39660DE2-A84E-43A2-BDA9-CBD5F9AED553')"/><g class="raphael-group-34-axisReferenceVisualsBottom"><path stroke-dasharray="4,2" stroke="#717170" stroke-opacity="0.4" stroke-width="1" d="M67,297.5L743,297.5" stroke-linecap="butt" fill="none"/><path stroke-dasharray="4,2" stroke="#717170" stroke-opacity="0.4" stroke-width="1" d="M67,254.5L743,254.5" stroke-linecap="butt" fill="none"/><path stroke-dasharray="4,2" stroke="#717170" stroke-opacity="0.4" stroke-width="1" d="M67,210.5L743,210.5" stroke-linecap="butt" fill="none"/><path stroke-dasharray="4,2" stroke="#717170" stroke-opacity="0.4" stroke-width="1" d="M67,167.5L743,167.5" stroke-linecap="butt" fill="none"/><path stroke-dasharray="4,2" stroke="#717170" stroke-opacity="0.4" stroke-width="1" d="M67,124.5L743,124.5" stroke-linecap="butt" fill="none"/><path stroke-dasharray="4,2" stroke="#717170" stroke-opacity="0.4" stroke-width="1" d="M67,80.5L743,80.5" stroke-linecap="butt" fill="none"/><path stroke-dasharray="4,2" stroke="#717170" stroke-opacity="0.4" stroke-width="1" d="M67,37.5L743,37.5" stroke-linecap="butt" fill="none"/></g><g class="raphael-group-10-belowplot"/><g class="raphael-group-36-crossline"/><g class="raphael-group-37-crosslineBottom"><g class="raphael-group-685-crosslineBottom"/></g><g class="raphael-group-40-axisReferenceVisualsMiddle" clip-path="url('#rr-D7FF2766-6BD7-4D62-ADAE-C2D8BA5AF0B7')"/><g class="raphael-group-42-quadrant" clip-path="url('#rr-6B2DBF10-1F3C-4006-89D7-DF014C53E73F')"/><g class="raphael-group-11-plots" clip-path="url('#rr-044CA925-0439-45E8-B0F5-97702F6338BB')"><g class="raphael-group-44-column-shadow-group"><g class="raphael-group-60-vcanvas-column-shadow" transform="matrix(1,0,0,1,0,0)"><g class="raphael-group-71-manager-columnShadowVcanvasGroup"><g class="raphael-group-82-shadow-group"/><g class="raphael-group-83-error-shadow-group"/><g class="raphael-group-106-shadow-group"/><g class="raphael-group-107-error-shadow-group"/><g class="raphael-group-130-shadow-group"/><g class="raphael-group-131-error-shadow-group"/></g></g><g class="raphael-group-154-vcanvas-column-shadow" transform="matrix(1,0,0,1,0,0)"/></g><g class="raphael-group-45-column"><g class="raphael-group-61-vcanvas-column-plot" transform="matrix(1,0,0,1,0,0)"><g class="raphael-group-69-columnTrendGroup"><g class="raphael-group-80-manager-columnTrendGroup"/></g><g class="raphael-group-72-manager-columnVcanvasGroup"><g class="raphael-group-84-common-elems-group"/><g class="raphael-group-85-plot-group"><rect y="297.009817043" height="0.4901829570000018" x="70.75555555555555" width="10.014814814814816" ry="0" rx="0" stroke="#c0c0c0" stroke-opacity="0.000001" stroke-width="0" stroke-dasharray="none" stroke-linejoin="miter" fill-opacity="1" fill="#679b00"/><rect y="296.5521585695" height="0.9478414304999774" x="108.3111111111111" width="10.014814814814816" ry="0" rx="0" stroke="#c0c0c0" stroke-opacity="0.000001" stroke-width="0" stroke-dasharray="none" stroke-linejoin="miter" fill-opacity="1" fill="#679b00"/><rect y="297.04723309875" height="0.4527669012500155" x="145.8666666666667" width="10.014814814814816" ry="0" rx="0" stroke="#c0c0c0" stroke-opacity="0.000001" stroke-width="0" stroke-dasharray="none" stroke-linejoin="miter" fill-opacity="1" fill="#679b00"/><rect y="296.6180250685" height="0.8819749314999967" x="183.42222222222225" width="10.014814814814816" ry="0" rx="0" stroke="#c0c0c0" stroke-opacity="0.000001" stroke-width="0" stroke-dasharray="none" stroke-linejoin="miter" fill-opacity="1" fill="#679b00"/><rect y="296.60934321525" height="0.8906567847499787" x="220.9777777777778" width="10.014814814814816" ry="0" rx="0" stroke="#c0c0c0" stroke-opacity="0.000001" stroke-width="0" stroke-dasharray="none" stroke-linejoin="miter" fill-opacity="1" fill="#679b00"/><rect y="295.5" height="2" x="258.5" width="10" ry="0" rx="0" stroke="#c0c0c0" stroke-opacity="0.000001" stroke-width="0" stroke-dasharray="none" stroke-linejoin="miter" fill-opacity="1" fill="#679b00"/><rect y="296.5" height="1" x="296.5" width="10" ry="0" rx="0" stroke="#c0c0c0" stroke-opacity="0.000001" stroke-width="0" stroke-dasharray="none" stroke-linejoin="miter" fill-opacity="1" fill="#679b00"/><rect y="292.5" height="5" x="333.5" width="10" ry="0" rx="0" stroke="#c0c0c0" stroke-opacity="0.000001" stroke-width="0" stroke-dasharray="none" stroke-linejoin="miter" fill-opacity="1" fill="#679b00"/><rect y="294.5" height="3" x="371.5" width="10" ry="0" rx="0" stroke="#c0c0c0" stroke-opacity="0.000001" stroke-width="0" stroke-dasharray="none" stroke-linejoin="miter" fill-opacity="1" fill="#679b00"/><rect y="285.5" height="12" x="408.5" width="10" ry="0" rx="0" stroke="#c0c0c0" stroke-opacity="0.000001" stroke-width="0" stroke-dasharray="none" stroke-linejoin="miter" fill-opacity="1" fill="#679b00"/><rect y="280.5" height="17" x="446.5" width="10" ry="0" rx="0" stroke="#c0c0c0" stroke-opacity="0.000001" stroke-width="0" stroke-dasharray="none" stroke-linejoin="miter" fill-opacity="1" fill="#679b00"/><rect y="211.5" height="86" x="483.5" width="10" ry="0" rx="0" stroke="#c0c0c0" stroke-opacity="0.000001" stroke-width="0" stroke-dasharray="none" stroke-linejoin="miter" fill-opacity="1" fill="#679b00"/><rect y="250.5" height="47" x="521.5" width="10" ry="0" rx="0" stroke="#c0c0c0" stroke-opacity="0.000001" stroke-width="0" stroke-dasharray="none" stroke-linejoin="miter" fill-opacity="1" fill="#679b00"/><rect y="177.5" height="120" x="558.5" width="10" ry="0" rx="0" stroke="#c0c0c0" stroke-opacity="0.000001" stroke-width="0" stroke-dasharray="none" stroke-linejoin="miter" fill-opacity="1" fill="#679b00"/><rect y="204.5" height="93" x="596.5" width="10" ry="0" rx="0" stroke="#c0c0c0" stroke-opacity="0.000001" stroke-width="0" stroke-dasharray="none" stroke-linejoin="miter" fill-opacity="1" fill="#679b00"/><rect y="47.5" height="250" x="634.5" width="10" ry="0" rx="0" stroke="#c0c0c0" stroke-opacity="0.000001" stroke-width="0" stroke-dasharray="none" stroke-linejoin="miter" fill-opacity="1" fill="#679b00"/><rect y="122.5" height="175" x="671.5" width="10" ry="0" rx="0" stroke="#c0c0c0" stroke-opacity="0.000001" stroke-width="0" stroke-dasharray="none" stroke-linejoin="miter" fill-opacity="1" fill="#679b00"/><rect y="244.5" height="53" x="709.5" width="10" ry="0" rx="0" stroke="#c0c0c0" stroke-opacity="0.000001" stroke-width="0" stroke-dasharray="none" stroke-linejoin="miter" fill-opacity="1" fill="#679b00"/></g><g class="raphael-group-86-error-plot-group"/><g class="raphael-group-108-common-elems-group"/><g class="raphael-group-109-plot-group"><rect y="297.36443620875" height="0.13556379124997875" x="80.77037037037036" width="10.014814814814816" ry="0" rx="0" stroke="#c0c0c0" stroke-opacity="0.000001" stroke-width="0" stroke-dasharray="none" stroke-linejoin="miter" fill-opacity="1" fill="#c9f76f"/><rect y="296.746465557" height="0.7535344429999782" x="118.32592592592592" width="10.014814814814816" ry="0" rx="0" stroke="#c0c0c0" stroke-opacity="0.000001" stroke-width="0" stroke-dasharray="none" stroke-linejoin="miter" fill-opacity="1" fill="#c9f76f"/><rect y="297.125653624" height="0.3743463760000054" x="155.8814814814815" width="10.014814814814816" ry="0" rx="0" stroke="#c0c0c0" stroke-opacity="0.000001" stroke-width="0" stroke-dasharray="none" stroke-linejoin="miter" fill-opacity="1" fill="#c9f76f"/><rect y="296.83119193975" height="0.6688080602500008" x="193.43703703703704" width="10.014814814814816" ry="0" rx="0" stroke="#c0c0c0" stroke-opacity="0.000001" stroke-width="0" stroke-dasharray="none" stroke-linejoin="miter" fill-opacity="1" fill="#c9f76f"/><rect y="297.07451354475" height="0.4254864552499953" x="230.9925925925926" width="10.014814814814816" ry="0" rx="0" stroke="#c0c0c0" stroke-opacity="0.000001" stroke-width="0" stroke-dasharray="none" stroke-linejoin="miter" fill-opacity="1" fill="#c9f76f"/><rect y="296.5" height="1" x="268.5" width="10" ry="0" rx="0" stroke="#c0c0c0" stroke-opacity="0.000001" stroke-width="0" stroke-dasharray="none" stroke-linejoin="miter" fill-opacity="1" fill="#c9f76f"/><rect y="296.55106196275" height="0.9489380372500023" x="306.1037037037037" width="10.014814814814816" ry="0" rx="0" stroke="#c0c0c0" stroke-opacity="0.000001" stroke-width="0" stroke-dasharray="none" stroke-linejoin="miter" fill-opacity="1" fill="#c9f76f"/><rect y="295.5" height="2" x="343.5" width="10" ry="0" rx="0" stroke="#c0c0c0" stroke-opacity="0.000001" stroke-width="0" stroke-dasharray="none" stroke-linejoin="miter" fill-opacity="1" fill="#c9f76f"/><rect y="296.5" height="1" x="381.5" width="10" ry="0" rx="0" stroke="#c0c0c0" stroke-opacity="0.000001" stroke-width="0" stroke-dasharray="none" stroke-linejoin="miter" fill-opacity="1" fill="#c9f76f"/><rect y="292.5" height="5" x="418.5" width="10" ry="0" rx="0" stroke="#c0c0c0" stroke-opacity="0.000001" stroke-width="0" stroke-dasharray="none" stroke-linejoin="miter" fill-opacity="1" fill="#c9f76f"/><rect y="295.5" height="2" x="456.5" width="10" ry="0" rx="0" stroke="#c0c0c0" stroke-opacity="0.000001" stroke-width="0" stroke-dasharray="none" stroke-linejoin="miter" fill-opacity="1" fill="#c9f76f"/><rect y="296.5" height="1" x="493.5" width="10" ry="0" rx="0" stroke="#c0c0c0" stroke-opacity="0.000001" stroke-width="0" stroke-dasharray="none" stroke-linejoin="miter" fill-opacity="1" fill="#c9f76f"/><rect y="296.71026348075" height="0.7897365192500274" x="531.4370370370369" width="10.014814814814816" ry="0" rx="0" stroke="#c0c0c0" stroke-opacity="0.000001" stroke-width="0" stroke-dasharray="none" stroke-linejoin="miter" fill-opacity="1" fill="#c9f76f"/><rect y="296.5" height="1" x="568.5" width="11" ry="0" rx="0" stroke="#c0c0c0" stroke-opacity="0.000001" stroke-width="0" stroke-dasharray="none" stroke-linejoin="miter" fill-opacity="1" fill="#c9f76f"/><rect y="297.12145917475" height="0.3785408252500133" x="606.5481481481481" width="10.014814814814816" ry="0" rx="0" stroke="#c0c0c0" stroke-opacity="0.000001" stroke-width="0" stroke-dasharray="none" stroke-linejoin="miter" fill-opacity="1" fill="#c9f76f"/><rect y="297.0152245175" height="0.48477548250002656" x="644.1037037037038" width="10.014814814814816" ry="0" rx="0" stroke="#c0c0c0" stroke-opacity="0.000001" stroke-width="0" stroke-dasharray="none" stroke-linejoin="miter" fill-opacity="1" fill="#c9f76f"/><rect y="297.17727134875" height="0.3227286512499745" x="681.6592592592592" width="10.014814814814816" ry="0" rx="0" stroke="#c0c0c0" stroke-opacity="0.000001" stroke-width="0" stroke-dasharray="none" stroke-linejoin="miter" fill-opacity="1" fill="#c9f76f"/><rect y="297.46134740975" height="0.03865259025002388" x="719.2148148148148" width="10.014814814814816" ry="0" rx="0" stroke="#c0c0c0" stroke-opacity="0.000001" stroke-width="0" stroke-dasharray="none" stroke-linejoin="miter" fill-opacity="1" fill="#c9f76f"/></g><g class="raphael-group-110-error-plot-group"/><g class="raphael-group-132-common-elems-group"/><g class="raphael-group-133-plot-group"><rect y="297.4444881545" height="0.055511845500006984" x="90.78518518518518" width="10.014814814814816" ry="0" rx="0" stroke="#c0c0c0" stroke-opacity="0.000001" stroke-width="0" stroke-dasharray="none" stroke-linejoin="miter" fill-opacity="1" fill="#b7cca2"/><rect y="297.4444881545" height="0.055511845500006984" x="128.34074074074073" width="10.014814814814816" ry="0" rx="0" stroke="#c0c0c0" stroke-opacity="0.000001" stroke-width="0" stroke-dasharray="none" stroke-linejoin="miter" fill-opacity="1" fill="#b7cca2"/><rect y="297.4444881545" height="0.055511845500006984" x="165.89629629629633" width="10.014814814814816" ry="0" rx="0" stroke="#c0c0c0" stroke-opacity="0.000001" stroke-width="0" stroke-dasharray="none" stroke-linejoin="miter" fill-opacity="1" fill="#b7cca2"/><rect y="297.4444881545" height="0.055511845500006984" x="203.45185185185187" width="10.014814814814816" ry="0" rx="0" stroke="#c0c0c0" stroke-opacity="0.000001" stroke-width="0" stroke-dasharray="none" stroke-linejoin="miter" fill-opacity="1" fill="#b7cca2"/><rect y="297.4444881545" height="0.055511845500006984" x="241.0074074074074" width="10.014814814814816" ry="0" rx="0" stroke="#c0c0c0" stroke-opacity="0.000001" stroke-width="0" stroke-dasharray="none" stroke-linejoin="miter" fill-opacity="1" fill="#b7cca2"/><rect y="297.4444881545" height="0.055511845500006984" x="278.56296296296296" width="10.014814814814816" ry="0" rx="0" stroke="#c0c0c0" stroke-opacity="0.000001" stroke-width="0" stroke-dasharray="none" stroke-linejoin="miter" fill-opacity="1" fill="#b7cca2"/><rect y="297.4444881545" height="0.055511845500006984" x="316.1185185185185" width="10.014814814814816" ry="0" rx="0" stroke="#c0c0c0" stroke-opacity="0.000001" stroke-width="0" stroke-dasharray="none" stroke-linejoin="miter" fill-opacity="1" fill="#b7cca2"/><rect y="289.5" height="8" x="353.5" width="10" ry="0" rx="0" stroke="#c0c0c0" stroke-opacity="0.000001" stroke-width="0" stroke-dasharray="none" stroke-linejoin="miter" fill-opacity="1" fill="#b7cca2"/><rect y="296.5" height="1" x="391.5" width="10" ry="0" rx="0" stroke="#c0c0c0" stroke-opacity="0.000001" stroke-width="0" stroke-dasharray="none" stroke-linejoin="miter" fill-opacity="1" fill="#b7cca2"/><rect y="286.5" height="11" x="428.5" width="10" ry="0" rx="0" stroke="#c0c0c0" stroke-opacity="0.000001" stroke-width="0" stroke-dasharray="none" stroke-linejoin="miter" fill-opacity="1" fill="#b7cca2"/><rect y="291.5" height="6" x="466.5" width="10" ry="0" rx="0" stroke="#c0c0c0" stroke-opacity="0.000001" stroke-width="0" stroke-dasharray="none" stroke-linejoin="miter" fill-opacity="1" fill="#b7cca2"/><rect y="296.5" height="1" x="503.5" width="10" ry="0" rx="0" stroke="#c0c0c0" stroke-opacity="0.000001" stroke-width="0" stroke-dasharray="none" stroke-linejoin="miter" fill-opacity="1" fill="#b7cca2"/><rect y="296.7575433585" height="0.7424566414999845" x="541.4518518518518" width="10.014814814814816" ry="0" rx="0" stroke="#c0c0c0" stroke-opacity="0.000001" stroke-width="0" stroke-dasharray="none" stroke-linejoin="miter" fill-opacity="1" fill="#b7cca2"/><rect y="296.6349395835" height="0.8650604165000004" x="579.0074074074074" width="10.014814814814816" ry="0" rx="0" stroke="#c0c0c0" stroke-opacity="0.000001" stroke-width="0" stroke-dasharray="none" stroke-linejoin="miter" fill-opacity="1" fill="#b7cca2"/><rect y="296.5" height="1" x="616.5" width="10" ry="0" rx="0" stroke="#c0c0c0" stroke-opacity="0.000001" stroke-width="0" stroke-dasharray="none" stroke-linejoin="miter" fill-opacity="1" fill="#b7cca2"/><rect y="295.5" height="2" x="654.5" width="10" ry="0" rx="0" stroke="#c0c0c0" stroke-opacity="0.000001" stroke-width="0" stroke-dasharray="none" stroke-linejoin="miter" fill-opacity="1" fill="#b7cca2"/><rect y="297.10209067575" height="0.39790932425000847" x="691.674074074074" width="10.014814814814816" ry="0" rx="0" stroke="#c0c0c0" stroke-opacity="0.000001" stroke-width="0" stroke-dasharray="none" stroke-linejoin="miter" fill-opacity="1" fill="#b7cca2"/><rect y="297.4444881545" height="0.055511845500006984" x="729.2296296296296" width="10.014814814814816" ry="0" rx="0" stroke="#c0c0c0" stroke-opacity="0.000001" stroke-width="0" stroke-dasharray="none" stroke-linejoin="miter" fill-opacity="1" fill="#b7cca2"/></g><g class="raphael-group-134-error-plot-group"/></g></g><g class="raphael-group-155-vcanvas-column-plot" transform="matrix(1,0,0,1,0,0)"><g class="raphael-group-163-columnTrendGroup"/></g></g><g class="raphael-group-46-area-shadow-group"><g class="raphael-group-62-vcanvas-area-shadow" transform="matrix(1,0,0,1,0,0)"><g class="raphael-group-73-manager-areaShadowVcanvasGroup"/></g><g class="raphael-group-156-vcanvas-area-shadow" transform="matrix(1,0,0,1,0,0)"/></g><g class="raphael-group-47-area"><g class="raphael-group-63-vcanvas-area-plot" transform="matrix(1,0,0,1,0,0)"><g class="raphael-group-74-manager-areaVcanvasGroup"/></g><g class="raphael-group-157-vcanvas-area-plot" transform="matrix(1,0,0,1,0,0)"/></g><g class="raphael-group-48-line-shadow-group"><g class="raphael-group-64-vcanvas-line-shadow" transform="matrix(1,0,0,1,0,0)"><g class="raphael-group-75-manager-lineShadowVcanvasGroup"/></g><g class="raphael-group-158-vcanvas-line-shadow" transform="matrix(1,0,0,1,0,0)"/></g><g class="raphael-group-49-line"><g class="raphael-group-65-vcanvas-line-plot" transform="matrix(1,0,0,1,0,0)"><g class="raphael-group-76-manager-lineVcanvasGroup"/></g><g class="raphael-group-159-vcanvas-line-plot" transform="matrix(1,0,0,1,0,0)"/></g><g class="raphael-group-50-default-shadow-group"><g class="raphael-group-66-vcanvas-default-shadow" transform="matrix(1,0,0,1,0,0)"><g class="raphael-group-77-manager-defaultShadowVcanvasGroup"/></g><g class="raphael-group-160-vcanvas-default-shadow" transform="matrix(1,0,0,1,0,0)"/></g><g class="raphael-group-51-default"><g class="raphael-group-67-vcanvas-default-plot" transform="matrix(1,0,0,1,0,0)"><g class="raphael-group-78-manager-defaultVcanvasGroup"/></g><g class="raphael-group-161-vcanvas-default-plot" transform="matrix(1,0,0,1,0,0)"/></g></g><g class="raphael-group-12-scrollbar-container"/><g class="raphael-group-13-axistop"><g class="raphael-group-178-axis-Line-group"><g class="raphael-group-184-axis-line-tick"/></g><g class="raphael-group-179-dataset-Trend-group-top"><g class="raphael-group-185-dataset-axis-trend-label"/></g><g class="raphael-group-181-dataset-Label-group"><g class="raphael-group-183-dataset-top-label" transform="matrix(1,0,0,1,0,0)"/></g><g class="raphael-group-208-axis-Line-group"><g class="raphael-group-214-axis-line-tick"/></g><g class="raphael-group-209-dataset-Trend-group-top"><g class="raphael-group-215-dataset-axis-trend-label"/></g><g class="raphael-group-211-dataset-Label-group"><g class="raphael-group-213-dataset-top-label" transform="matrix(1,0,0,1,0,0)"/></g><g class="raphael-group-227-axis-Line-group"><g class="raphael-group-233-axis-line-tick"/></g><g class="raphael-group-228-dataset-Trend-group-top"><g class="raphael-group-234-dataset-axis-trend-label"/></g><g class="raphael-group-230-dataset-Label-group"><g class="raphael-group-232-dataset-top-label" transform="matrix(1,0,0,1,0,0)"/></g></g><g class="raphael-group-14-sumlabels fusioncharts-datalabels" clip-path="url('#rr-6A4AA088-E21B-4922-9454-B116D113EB8C')"><g class="raphael-group-70-vcanvas-sumLabelsLayer" transform="matrix(1,0,0,1,0,0)"><g class="raphael-group-81-manager-sumLabelsLayer"/></g><g class="raphael-group-164-vcanvas-sumLabelsLayer" transform="matrix(1,0,0,1,0,0)"/></g><g class="raphael-group-41-axisReferenceVisualsTop"/><g class="raphael-group-43-axisReferenceVisualsCeil"/><g class="raphael-group-15-datalabel" font-family="Arial" font-size="10px" font-weight="normal" font-style="normal" clip-path="url('#rr-C3422912-9A30-41E0-81F4-7C7558817DB3')" style="font-family: arial; font-size: 10px; font-weight: normal; font-style: normal;"><g class="raphael-group-39-canvasdatalabel"><g class="raphael-group-68-vcanvas-label" transform="matrix(1,0,0,1,0,0)"><g class="raphael-group-79-manager-vcanvasLabelGroup"><g class="raphael-group-87-label-group fusioncharts-datalabels" font-family="Arial" font-size="10px" font-weight="normal" font-style="normal" style="font-family: arial; font-size: 10px; font-weight: normal; font-style: normal;"/><g class="raphael-group-111-label-group fusioncharts-datalabels" font-family="Arial" font-size="10px" font-weight="normal" font-style="normal" style="font-family: arial; font-size: 10px; font-weight: normal; font-style: normal;"/><g class="raphael-group-135-label-group fusioncharts-datalabels" font-family="Arial" font-size="10px" font-weight="normal" font-style="normal" style="font-family: arial; font-size: 10px; font-weight: normal; font-style: normal;"/></g></g><g class="raphael-group-162-vcanvas-label" transform="matrix(1,0,0,1,0,0)"/></g></g><g class="raphael-group-38-crosslineTop"><g class="raphael-group-684-crosslineTop"/></g><g class="raphael-group-16-aboveplot"/><g class="raphael-group-17-caption"/><g class="raphael-group-18-chartdefault"/><g class="raphael-group-19-chartdefault-shadow"/><g class="raphael-group-20-tracker"/><g class="raphael-group-21-logo"/><g class="raphael-group-22-selectorGroup"/><g class="raphael-group-23-legend"><g class="raphael-group-165-legendGroup" transform="matrix(1,0,0,1,178.5,338.5)"><rect x="0" y="0" width="454" height="25" ry="0" rx="0" stroke="#ffffff" stroke-opacity="1" stroke-width="1" fill-opacity="1" fill="#ffffff" style="cursor: default;"/><g class="raphael-group-167-item" transform="matrix(1,0,0,1,0,0)"><text fill-opacity="1" fill="#555555" font-family="Arial" font-size="10px" text-anchor="start" font-weight="normal" x="23" stroke="none" y="16" style="font-family: arial; cursor: pointer; font-size: 10px; text-anchor: start; font-weight: normal;">Independent Expenditures</text><path fill="url('#rr-6-90-rgba_103_155_0_1__0-rgba_103_155_0_1__30-rgba_194_215_153_1__60-rgba_103_155_0_1__90-rgba_103_155_0_1__100')" fill-opacity="1" opacity="1" d="M7,18l0,-7.699999999999999,2.75,0,0,7.699999999999999zm4.125,0l0,-11,2.75,0,0,11zm4.125,0l0,-4.4,2.75,0,0,4.4z" stroke-width="0.5" stroke="#a4c366" stroke-linecap="round" style="cursor: pointer;"/><rect opacity="1" x="4" y="4" width="138.7578125" height="17" ry="0" rx="0" fill-opacity="0.000001" fill="#c0c0c0" stroke-width="1" stroke="none" style="cursor: pointer;"/><text fill-opacity="1" fill="#555555" font-family="Arial" font-size="10px" text-anchor="start" font-weight="normal" x="172.6078125" stroke="none" y="16" style="font-family: arial; cursor: pointer; font-size: 10px; text-anchor: start; font-weight: normal;">Communication Costs</text><path fill="url('#rr-6-90-rgba_201_247_111_1__0-rgba_201_247_111_1__30-rgba_234_252_198_1__60-rgba_201_247_111_1__90-rgba_201_247_111_1__100')" fill-opacity="1" opacity="1" d="M156.6078125,18l0,-7.699999999999999,2.75,0,0,7.699999999999999zm4.125,0l0,-11,2.75,0,0,11zm4.125,0l0,-4.4,2.75,0,0,4.4z" stroke-width="0.5" stroke="#dffaa9" stroke-linecap="round" style="cursor: pointer;"/><rect opacity="1" x="153.6078125" y="4" width="119.8125" height="17" ry="0" rx="0" fill-opacity="0.000001" fill="#c0c0c0" stroke-width="1" stroke="none" style="cursor: pointer;"/><text fill-opacity="1" fill="#555555" font-family="Arial" font-size="10px" text-anchor="start" font-weight="normal" x="303.2703125" stroke="none" y="16" style="font-family: arial; cursor: pointer; font-size: 10px; text-anchor: start; font-weight: normal;">Electioneering Communications</text><path fill="url('#rr-6-90-rgba_183_204_162_1__0-rgba_183_204_162_1__30-rgba_226_235_218_1__60-rgba_183_204_162_1__90-rgba_183_204_162_1__100')" fill-opacity="1" opacity="1" d="M287.2703125,18l0,-7.699999999999999,2.75,0,0,7.699999999999999zm4.125,0l0,-11,2.75,0,0,11zm4.125,0l0,-4.4,2.75,0,0,4.4z" stroke-width="0.5" stroke="#d4e0c7" stroke-linecap="round" style="cursor: pointer;"/><rect opacity="1" x="284.2703125" y="4" width="162.625" height="17" ry="0" rx="0" fill-opacity="0.000001" fill="#c0c0c0" stroke-width="1" stroke="none" style="cursor: pointer;"/></g></g></g><g class="raphael-group-24-toolbar-master"><g class="raphael-group-27-toolbar"><rect fill-opacity="0" fill="#eeeeee" stroke="#eeeeee" stroke-opacity="0" stroke-width="1" width="22.25" height="22.25" x="725.75" y="6" ry="0" rx="0"/><g class="raphael-group-29-button" stroke-linecap="round" opacity="" style="display: none;"><rect x="728.5" y="8.5" width="17" height="17" ry="2.3" rx="2.3" fill="#ffffff" stroke="#bbbbbb" stroke-width="1" stroke-opacity="1" fill-opacity="1"/><path d="M732.8,17L741.2,17M732.8,20L741.2,20M732.8,14L741.2,14" fill="#ffffff" stroke="#9a9a9a" stroke-linecap="round" fill-opacity="1" stroke-opacity="1" stroke-width="1"/><rect x="728.5" y="8.5" width="17" height="17" ry="2.3" rx="2.3" fill="#c0c0c0" stroke="#c0c0c0" fill-opacity="0.000001" stroke-opacity="0.000001" stroke-width="1" style="cursor: pointer;"/></g></g></g></g><rect x="0" y="0" width="10" height="30" ry="0" rx="0" fill="none" stroke="#000000" style="display: none;"/></svg>