<svg xmlns="http://www.w3.org/2000/svg" xmlns:xlink="http://www.w3.org/1999/xlink" width="3328" height="1870" xml:space="preserve" overflow="hidden"><defs><clipPath id="clip0"><rect x="1229" y="424" width="3328" height="1870"/></clipPath></defs><g clip-path="url(#clip0)" transform="translate(-1229 -424)"><rect x="1230" y="425" width="3325" height="1867" fill="#FFFFFF"/><g><path d="M1402.5 1811.56 4504.5 1811.56M1402.5 1543.55 4504.5 1543.55M1402.5 1276.54 4504.5 1276.54M1402.5 1009.53 4504.5 1009.53M1402.5 742.525 4504.5 742.525M1402.5 475.5 4504.5 475.5" stroke="#D9D9D9" stroke-width="3.4375" stroke-linejoin="round" stroke-miterlimit="10" fill="none"/></g><g><path d="M1402.5 2078.5 4504.5 2078.5" stroke="#D9D9D9" stroke-width="3.4375" stroke-linejoin="round" stroke-miterlimit="10" fill="none" fill-rule="evenodd"/></g><g><path d="M1404 1934 1407.05 1921.06 1410.05 1908.06 1413.05 1903.06 1416.05 1905.06 1419.05 1903.06 1422.05 1914.06 1425.05 1891.06 1428.05 1864.06 1431.05 1828.06 1434.05 1825.06 1437.05 1818.06 1440.05 1821.06 1443.05 1822.06 1446.05 1827.06 1449.05 1835.06 1452.05 1836.06 1455.05 1833.06 1458.05 1842.06 1461.05 1805.06 1464.05 1777.06 1467.05 1748.06 1470.05 1725.06 1473.05 1698.06 1476.05 1678.06 1479.05 1649.05 1482.05 1623.05 1485.05 1584.05 1488.05 1550.05 1491.05 1517.05 1494.05 1493.05 1497.05 1473.05 1500.05 1453.05 1503.05 1441.05 1506.05 1436.05 1509.05 1427.05 1512.05 1415.05 1515.05 1393.05 1518.05 1369.04 1521.05 1342.04 1524.05 1316.04 1527.05 1298.04 1530.05 1267.04 1533.05 1231.04 1536.05 1199.04 1540.05 1174.04 1543.05 1147.04 1546.05 1105.04 1549.05 1072.04 1552.05 1052.03 1555.05 1029.03 1558.05 1015.03 1561.05 1004.03 1564.05 982.032 1567.05 969.032 1570.05 960.031 1573.05 961.031 1576.05 941.031 1579.05 930.031 1582.05 939.031 1585.05 951.031 1588.05 965.032 1591.05 987.032 1594.05 1008.03 1597.05 1017.03 1600.05 1024.03 1603.05 1032.03 1606.05 1039.03 1609.05 1055.03 1612.05 1059.03 1615.05 1067.04 1618.05 1055.03 1621.05 1054.03 1624.05 1065.03 1627.05 1080.04 1630.05 1098.04 1633.05 1116.04 1636.05 1150.04 1639.05 1197.04 1642.05 1250.04 1645.05 1479.05 1648.05 1479.05 1651.05 1472.05 1654.05 1473.05 1657.05 1448.05 1660.05 1554.05 1663.05 1471.05 1666.05 1384.05 1669.05 1358.04 1672.05 1330.04 1675.05 1307.04 1678.06 1279.04 1681.06 1259.04 1684.06 1252.04 1687.06 1235.04 1690.06 1236.04 1693.06 1233.04 1696.06 1240.04 1699.06 1242.04 1702.06 1245.04 1706.06 1251.04 1709.06 1250.04 1712.06 1267.04 1715.06 1250.04 1718.06 1235.04 1721.06 1224.04 1724.06 1221.04 1727.06 1219.04 1730.06 1218.04 1733.06 1231.04 1736.06 1228.04 1739.06 1252.04 1742.06 1245.04 1745.06 1234.04 1748.06 1229.04 1751.06 1230.04 1754.06 1218.04 1757.06 1225.04 1760.06 1238.04 1763.06 1265.04 1766.06 1294.04 1769.06 1312.04 1772.06 1333.04 1775.06 1352.04 1778.06 1374.05 1781.06 1386.05 1784.06 1401.05 1787.06 1389.05 1790.06 1380.05 1793.06 1425.05 1796.06 1426.05 1799.06 1402.05 1802.06 1389.05 1805.06 1388.05 1808.06 1372.05 1811.06 1347.04 1814.06 1306.04 1817.06 1287.04 1820.06 1267.04 1823.06 1215.04 1826.06 1202.04 1829.06 1178.04 1832.06 1175.04 1835.06 1172.04 1838.06 1150.04 1841.06 1133.04 1844.06 1126.04 1847.06 1121.04 1850.06 1121.04 1853.06 1120.04 1856.06 1128.04 1859.06 1135.04 1862.06 1144.04 1865.06 1147.04 1868.06 1143.04 1871.06 1137.04 1875.06 1134.04 1878.06 1129.04 1881.06 1126.04 1884.06 1121.04 1887.06 1124.04 1890.06 1166.04 1893.06 1182.04 1896.06 1106.04 1899.06 1069.04 1902.06 1051.03 1905.06 1030.03 1908.06 1013.03 1911.06 1001.03 1914.06 988.032 1917.06 973.032 1920.06 970.032 1923.06 964.032 1926.06 964.032 1929.06 962.032 1932.06 972.032 1935.06 989.032 1938.06 1012.03 1941.06 1046.03 1944.06 1065.03 1947.06 1084.04 1950.06 1102.04 1953.06 1117.04 1956.06 1134.04 1959.06 1147.04 1962.06 1155.04 1965.06 1170.04 1968.06 1174.04 1971.06 1169.04 1974.06 1164.04 1977.06 1155.04 1980.06 1147.04 1983.07 1139.04 1986.07 1125.04 1989.07 1109.04 1992.07 1093.04 1995.07 1077.04 1998.07 1065.03 2001.07 1061.03 2004.07 1052.03 2007.07 1054.03 2010.07 1044.03 2013.07 1034.03 2016.07 1028.03 2019.07 1025.03 2022.07 1024.03 2025.07 1032.03 2028.07 1022.03 2031.07 1024.03 2034.07 1032.03 2037.07 1081.04 2041.07 1024.03 2044.07 1028.03 2047.07 1018.03 2050.07 1021.03 2053.07 1015.03 2056.07 1013.03 2059.07 1010.03 2062.07 1010.03 2065.07 1013.03 2068.07 1019.03 2071.07 1026.03 2074.07 1029.03 2077.07 1027.03 2080.07 1048.03 2083.07 1063.03 2086.07 1081.04 2089.07 1099.04 2092.07 1126.04 2095.07 1155.04 2098.07 1187.04 2101.07 1209.04 2104.07 1221.04 2107.07 1222.04 2110.07 1217.04 2113.07 1207.04 2116.07 1189.04 2119.07 1209.04 2122.07 1166.04 2125.07 1160.04 2128.07 1143.04 2131.07 1128.04 2134.07 1108.04 2137.07 1092.04 2140.07 1078.04 2143.07 1069.04 2146.07 1060.03 2149.07 1116.04 2152.07 1109.04 2155.07 1122.04 2158.07 1103.04 2161.07 1067.04 2164.07 1051.03 2167.07 1041.03 2170.07 1049.03 2173.07 1056.03 2176.07 1066.03 2179.07 1081.04 2182.07 1088.04 2185.07 1095.04 2188.07 1099.04 2191.07 1112.04 2194.07 1128.04 2197.07 1150.04 2200.07 1161.04 2203.07 1170.04 2207.07 1170.04 2210.07 1166.04 2213.07 1152.04 2216.07 1146.04 2219.07 1139.04 2222.07 1131.04 2225.07 1132.04 2228.07 1124.04 2231.07 1108.04 2234.07 1102.04 2237.07 1100.04 2240.07 1088.04 2243.07 1083.04 2246.07 1073.04 2249.07 1075.04 2252.07 1074.04 2255.07 1073.04 2258.07 1074.04 2261.07 1067.04 2264.07 1067.04 2267.07 1072.04 2270.07 1074.04 2273.07 1070.04 2276.07 1071.04 2279.07 1068.04 2282.07 1063.03 2285.07 1057.03 2288.08 1060.03 2291.08 1057.03 2294.08 1057.03 2297.08 1053.03 2300.08 1048.03 2303.08 1053.03 2306.08 1048.03 2309.08 1048.03 2312.08 1044.03 2315.08 1040.03 2318.08 1038.03 2321.08 1035.03 2324.08 1031.03 2327.08 1025.03 2330.08 1016.03 2333.08 1000.03 2336.08 1033.03 2339.08 997.033 2342.08 986.032 2345.08 977.032 2348.08 971.032 2351.08 962.032 2354.08 954.031 2357.08 946.031 2360.08 935.031 2363.08 920.03 2366.08 912.03 2369.08 902.03 2372.08 894.029 2376.08 881.029 2379.08 869.029 2382.08 857.028 2385.08 837.027 2388.08 822.027 2391.08 807.026 2394.08 792.026 2397.08 778.026 2400.08 774.025 2403.08 758.025 2406.08 758.025 2409.08 748.025 2412.08 745.024 2415.08 743.024 2418.08 738.024 2421.08 745.024 2424.08 750.025 2427.08 759.025 2430.08 765.025 2433.08 767.025 2436.08 771.025 2439.08 755.025 2442.08 770.025 2445.08 769.025 2448.08 744.024 2451.08 739.024 2454.08 737.024 2457.08 735.024 2460.08 733.024 2463.08 725.024 2466.08 717.024 2469.08 712.023 2472.08 707.023 2475.08 708.023 2478.08 709.023 2481.08 703.023 2484.08 696.023 2487.08 688.023 2490.08 685.022 2493.08 675.022 2496.08 668.022 2499.08 668.022 2502.08 664.022 2505.08 657.022 2508.08 657.022 2511.08 640.021 2514.08 659.022 2517.08 660.022 2520.08 680.022 2523.08 678.022 2526.08 686.023 2529.08 694.023 2532.08 694.023 2535.08 715.023 2538.08 738.024 2542.08 752.025 2545.08 759.025 2548.08 772.025 2551.08 783.026 2554.08 853.028 2557.08 873.029 2560.08 835.027 2563.08 838.027 2566.08 847.028 2569.08 855.028 2572.08 856.028 2575.08 846.028 2578.08 857.028 2581.08 859.028 2584.08 861.028 2587.08 855.028 2590.08 859.028 2593.08 854.028 2596.09 849.028 2599.09 838.027 2602.09 828.027 2605.09 816.027 2608.09 808.026 2611.09 795.026 2614.09 790.026 2617.09 802.026 2620.09 777.026 2623.09 772.025 2626.09 757.025 2629.09 742.024 2632.09 721.024 2635.09 705.023 2638.09 688.023 2641.09 676.022 2644.09 672.022 2647.09 667.022 2650.09 661.022 2653.09 662.022 2656.09 658.022 2659.09 661.022 2662.09 649.021 2665.09 639.021 2668.09 633.021 2671.09 637.021 2674.09 645.021 2677.09 649.021 2680.09 649.021 2683.09 650.021 2686.09 650.021 2689.09 655.021 2692.09 666.022 2695.09 677.022 2698.09 694.023 2701.09 732.024 2704.09 783.026 2708.09 830.027 2711.09 875.029 2714.09 896.029 2717.09 908.03 2720.09 910.03 2723.09 917.03 2726.09 919.03 2729.09 899.03 2732.09 889.029 2735.09 878.029 2738.09 873.029 2741.09 857.028 2744.09 838.027 2747.09 825.027 2750.09 813.027 2753.09 804.026 2756.09 807.026 2759.09 806.026 2762.09 806.026 2765.09 796.026 2768.09 787.026 2771.09 803.026 2774.09 785.026 2777.09 780.026 2780.09 769.025 2783.09 763.025 2786.09 750.025 2789.09 739.024 2792.09 728.024 2795.09 717.024 2798.09 708.023 2801.09 705.023 2804.09 698.023 2807.09 695.023 2810.09 686.023 2813.09 671.022 2816.09 663.022 2819.09 657.022 2822.09 649.021 2825.09 639.021 2828.09 629.021 2831.09 620.02 2834.09 615.02 2837.09 608.02 2840.09 600.02 2843.09 590.019 2846.09 574.019 2849.09 564.018 2852.09 557.018 2855.09 554.018 2858.09 548.018 2861.09 549.018 2864.09 541.018 2867.09 535 2870.09 538.018 2873.09 554.018 2877.09 550.018 2880.09 557.018 2883.09 569.019 2886.09 569.019 2889.09 571.019 2892.09 579.019 2895.09 580.019 2898.1 612.02 2901.1 645.021 2904.1 677.022 2907.1 705.023 2910.1 687.023 2913.1 683.022 2916.1 675.022 2919.1 662.022 2922.1 657.022 2925.1 657.022 2928.1 660.022 2931.1 656.022 2934.1 647.021 2937.1 640.021 2940.1 637.021 2943.1 637.021 2946.1 642.021 2949.1 647.021 2952.1 667.022 2955.1 688.023 2958.1 713.023 2961.1 736.024 2964.1 745.024 2967.1 761.025 2970.1 785.026 2973.1 797.026 2976.1 818.027 2979.1 839.028 2982.1 855.028 2985.1 866.028 2988.1 896.029 2991.1 913.03 2994.1 917.03 2997.1 915.03 3000.1 915.03 3003.1 915.03 3006.1 903.03 3009.1 891.029 3012.1 881.029 3015.1 868.028 3018.1 860.028 3021.1 842.028 3024.1 827.027 3027.1 812.027 3030.1 802.026 3033.1 792.026 3036.1 779.026 3039.1 768.025 3043.1 759.025 3046.1 754.025 3049.1 747.025 3052.1 741.024 3055.1 738.024 3058.1 740.024 3061.1 739.024 3064.1 740.024 3067.1 739.024 3070.1 741.024 3073.1 747.025 3076.1 750.025 3079.1 758.025 3082.1 762.025 3085.1 766.025 3088.1 772.025 3091.1 775.025 3094.1 780.026 3097.1 781.026 3100.1 783.026 3103.1 783.026 3106.1 784.026 3109.1 787.026 3112.1 793.026 3115.1 794.026 3118.1 797.026 3121.1 805.026 3124.1 810.027 3127.1 811.027 3130.1 809.027 3133.1 812.027 3136.1 813.027 3139.1 812.027 3142.1 814.027 3145.1 809.027 3148.1 808.026 3151.1 806.026 3154.1 803.026 3157.1 804.026 3160.1 797.026 3163.1 792.026 3166.1 784.026 3169.1 779.026 3172.1 772.025 3175.1 768.025 3178.1 770.025 3181.1 766.025 3184.1 763.025 3187.1 759.025 3190.1 757.025 3193.1 754.025 3196.1 752.025 3199.1 757.025 3202.1 754.025 3205.1 747.025 3209.11 742.024 3212.11 739.024 3215.11 735.024 3218.11 735.024 3221.11 734.024 3224.11 735.024 3227.11 737.024 3230.11 741.024 3233.11 745.024 3236.11 747.025 3239.11 753.025 3242.11 756.025 3245.11 758.025 3248.11 758.025 3251.11 769.025 3254.11 757.025 3257.11 760.025 3260.11 763.025 3263.11 769.025 3266.11 772.025 3269.11 782.026 3272.11 789.026 3275.11 795.026 3278.11 799.026 3281.11 819.027 3284.11 823.027 3287.11 832.027 3290.11 848.028 3293.11 857.028 3296.11 863.028 3299.11 867.028 3302.11 870.029 3305.11 874.029 3308.11 873.029 3311.11 875.029 3314.11 876.029 3317.11 881.029 3320.11 887.029 3323.11 897.029 3326.11 899.03 3329.11 902.03 3332.11 898.029 3335.11 898.029 3338.11 899.03 3341.11 900.03 3344.11 905.03 3347.11 908.03 3350.11 909.03 3353.11 908.03 3356.11 907.03 3359.11 904.03 3362.11 902.03 3365.11 903.03 3368.11 906.03 3371.11 907.03 3374.11 910.03 3378.11 911.03 3381.11 910.03 3384.11 907.03 3387.11 906.03 3390.11 903.03 3393.11 901.03 3396.11 895.029 3399.11 894.029 3402.11 890.029 3405.11 885.029 3408.11 881.029 3411.11 875.029 3414.11 872.029 3417.11 865.028 3420.11 861.028 3423.11 857.028 3426.11 851.028 3429.11 847.028 3432.11 841.028 3435.11 840.028 3438.11 841.028 3441.11 839.028 3444.11 841.028 3447.11 843.028 3450.11 847.028 3453.11 844.028 3456.11 843.028 3459.11 847.028 3462.11 848.028 3465.11 845.028 3468.11 848.028 3471.11 845.028 3474.11 850.028 3477.11 849.028 3480.11 846.028 3483.11 846.028 3486.11 846.028 3489.11 842.028 3492.11 842.028 3495.11 840.028 3498.11 839.028 3501.11 838.027 3504.11 836.027 3507.12 834.027 3510.12 830.027 3513.12 829.027 3516.12 828.027 3519.12 824.027 3522.12 824.027 3525.12 816.027 3528.12 814.027 3531.12 807.026 3534.12 802.026 3537.12 797.026 3540.12 793.026 3544.12 792.026 3547.12 791.026 3550.12 791.026 3553.12 793.026 3556.12 795.026 3559.12 820.027 3562.12 801.026 3565.12 801.026 3568.12 807.026 3571.12 814.027 3574.12 816.027 3577.12 819.027 3580.12 823.027 3583.12 827.027 3586.12 830.027 3589.12 831.027 3592.12 836.027 3595.12 835.027 3598.12 838.027 3601.12 838.027 3604.12 840.028 3607.12 838.027 3610.12 838.027 3613.12 838.027 3616.12 838.027 3619.12 836.027 3622.12 836.027 3625.12 839.028 3628.12 836.027 3631.12 833.027 3634.12 838.027 3637.12 845.028 3640.12 847.028 3643.12 849.028 3646.12 852.028 3649.12 862.028 3652.12 872.029 3655.12 884.029 3658.12 902.03 3661.12 921.03 3664.12 941.031 3667.12 958.031 3670.12 978.032 3673.12 994.033 3676.12 1013.03 3679.12 1033.03 3682.12 1048.03 3685.12 1065.03 3688.12 1074.04 3691.12 1084.04 3694.12 1091.04 3697.12 1098.04 3700.12 1103.04 3703.12 1109.04 3706.12 1120.04 3709.12 1127.04 3713.12 1135.04 3716.12 1144.04 3719.12 1155.04 3722.12 1161.04 3725.12 1172.04 3728.12 1180.04 3731.12 1195.04 3734.12 1202.04 3737.12 1211.04 3740.12 1223.04 3743.12 1226.04 3746.12 1230.04 3749.12 1232.04 3752.12 1234.04 3755.12 1237.04 3758.12 1238.04 3761.12 1239.04 3764.12 1238.04 3767.12 1235.04 3770.12 1231.04 3773.12 1232.04 3776.12 1233.04 3779.12 1231.04 3782.12 1232.04 3785.12 1232.04 3788.12 1236.04 3791.12 1238.04 3794.12 1242.04 3797.12 1240.04 3800.12 1241.04 3803.12 1243.04 3806.12 1242.04 3809.12 1246.04 3812.12 1246.04 3815.12 1250.04 3818.13 1253.04 3821.13 1251.04 3824.13 1252.04 3827.13 1251.04 3830.13 1249.04 3833.13 1249.04 3836.13 1248.04 3839.13 1246.04 3842.13 1250.04 3845.13 1248.04 3848.13 1252.04 3851.13 1255.04 3854.13 1260.04 3857.13 1267.04 3860.13 1271.04 3863.13 1275.04 3866.13 1276.04 3869.13 1277.04 3872.13 1281.04 3875.13 1284.04 3879.13 1286.04 3882.13 1289.04 3885.13 1291.04 3888.13 1300.04 3891.13 1305.04 3894.13 1308.04 3897.13 1309.04 3900.13 1311.04 3903.13 1313.04 3906.13 1317.04 3909.13 1322.04 3912.13 1330.04 3915.13 1335.04 3918.13 1343.04 3921.13 1353.04 3924.13 1362.04 3927.13 1374.05 3930.13 1391.05 3933.13 1406.05 3936.13 1430.05 3939.13 1469.05 3942.13 1493.05 3945.13 1516.05 3948.13 1540.05 3951.13 1562.05 3954.13 1580.05 3957.13 1588.05 3960.13 1594.05 3963.13 1598.05 3966.13 1606.05 3969.13 1609.05 3972.13 1614.05 3975.13 1616.05 3978.13 1617.05 3981.13 1617.05 3984.13 1612.05 3987.13 1607.05 3990.13 1605.05 3993.13 1602.05 3996.13 1604.05 3999.13 1602.05 4002.13 1602.05 4005.13 1599.05 4008.13 1598.05 4011.13 1594.05 4014.13 1590.05 4017.13 1587.05 4020.13 1583.05 4023.13 1582.05 4026.13 1580.05 4029.13 1578.05 4032.13 1575.05 4035.13 1575.05 4038.13 1573.05 4041.13 1575.05 4045.13 1570.05 4048.13 1565.05 4051.13 1563.05 4054.13 1557.05 4057.13 1555.05 4060.13 1554.05 4063.13 1552.05 4066.13 1549.05 4069.13 1549.05 4072.13 1550.05 4075.13 1549.05 4078.13 1551.05 4081.13 1549.05 4084.13 1546.05 4087.13 1544.05 4090.13 1544.05 4093.13 1544.05 4096.13 1544.05 4099.13 1543.05 4102.13 1546.05 4105.13 1542.05 4108.13 1540.05 4111.13 1536.05 4114.13 1533.05 4117.14 1533.05 4120.14 1533.05 4123.14 1530.05 4126.14 1528.05 4129.14 1526.05 4132.14 1524.05 4135.14 1521.05 4138.14 1519.05 4141.14 1516.05 4144.14 1514.05 4147.14 1509.05 4150.14 1506.05 4153.14 1505.05 4156.14 1505.05 4159.14 1504.05 4162.14 1502.05 4165.14 1501.05 4168.14 1499.05 4171.14 1499.05 4174.14 1497.05 4177.14 1498.05 4180.14 1497.05 4183.14 1495.05 4186.14 1496.05 4189.14 1495.05 4192.14 1493.05 4195.14 1495.05 4198.14 1498.05 4201.14 1497.05 4204.14 1499.05 4207.14 1497.05 4210.14 1494.05 4214.14 1497.05 4217.14 1497.05 4220.14 1498.05 4223.14 1498.05 4226.14 1496.05 4229.14 1495.05 4232.14 1493.05 4235.14 1491.05 4238.14 1490.05 4241.14 1489.05 4244.14 1487.05 4247.14 1487.05 4250.14 1481.05 4253.14 1480.05 4256.14 1478.05 4259.14 1476.05 4262.14 1473.05 4265.14 1469.05 4268.14 1466.05 4271.14 1462.05 4274.14 1460.05 4277.14 1456.05 4280.14 1452.05 4283.14 1449.05 4286.14 1447.05 4289.14 1444.05 4292.14 1441.05 4295.14 1440.05 4298.14 1438.05 4301.14 1433.05 4304.14 1435.05 4307.14 1434.05 4310.14 1434.05 4313.14 1435.05 4316.14 1434.05 4319.14 1433.05 4322.14 1434.05 4325.14 1434.05 4328.14 1441.05 4331.14 1435.05 4334.14 1437.05 4337.14 1439.05 4340.14 1440.05 4343.14 1448.05 4346.14 1621.05 4349.14 1590.05 4352.14 1546.05 4355.14 1541.05 4358.14 1538.05 4361.14 1530.05 4364.14 1527.05 4367.14 1523.05 4370.14 1518.05 4373.14 1519.05 4376.14 1515.05 4380.14 1508.05 4383.14 1513.05 4386.14 1509.05 4389.14 1506.05 4392.14 1497.05 4395.14 1490.05 4398.14 1485.05 4401.14 1477.05 4404.14 1473.05 4407.14 1467.05 4410.14 1463.05 4413.15 1457.05 4416.15 1448.05 4419.15 1441.05 4422.15 1439.05 4425.15 1435.05 4428.15 1430.05 4431.15 1426.05 4434.15 1424.05 4437.15 1420.05 4440.15 1419.05 4443.15 1419.05 4446.15 1418.05 4449.15 1418.05 4452.15 1419.05 4455.15 1418.05 4458.15 1419.05 4461.15 1418.05 4464.15 1418.05 4467.15 1418.05 4470.15 1416.05 4473.15 1421.05 4476.15 1417.05 4479.15 1416.05 4482.15 1415.05 4485.15 1416.05 4488.15 1417.05 4491.15 1416.05 4494.15 1415.05 4497.15 1418.05 4500.15 1417.05 4503 1420.05" stroke="#156082" stroke-width="10.3125" stroke-linecap="round" stroke-linejoin="round" stroke-miterlimit="10" fill="none"/></g><g><text fill="#595959" font-family="Aptos Narrow,Aptos Narrow_MSFontService,sans-serif" font-weight="400" font-stretch="semi-condensed" font-size="41" transform="matrix(1 0 0 1 1280.55 2090)">8000</text></g><g><text fill="#595959" font-family="Aptos Narrow,Aptos Narrow_MSFontService,sans-serif" font-weight="400" font-stretch="semi-condensed" font-size="41" transform="matrix(1 0 0 1 1259.65 1823)">10000</text></g><g><text fill="#595959" font-family="Aptos Narrow,Aptos Narrow_MSFontService,sans-serif" font-weight="400" font-stretch="semi-condensed" font-size="41" transform="matrix(1 0 0 1 1259.65 1555)">12000</text></g><g><text fill="#595959" font-family="Aptos Narrow,Aptos Narrow_MSFontService,sans-serif" font-weight="400" font-stretch="semi-condensed" font-size="41" transform="matrix(1 0 0 1 1259.65 1288)">14000</text></g><g><text fill="#595959" font-family="Aptos Narrow,Aptos Narrow_MSFontService,sans-serif" font-weight="400" font-stretch="semi-condensed" font-size="41" transform="matrix(1 0 0 1 1259.65 1021)">16000</text></g><g><text fill="#595959" font-family="Aptos Narrow,Aptos Narrow_MSFontService,sans-serif" font-weight="400" font-stretch="semi-condensed" font-size="41" transform="matrix(1 0 0 1 1259.65 754)">18000</text></g><g><text fill="#595959" font-family="Aptos Narrow,Aptos Narrow_MSFontService,sans-serif" font-weight="400" font-stretch="semi-condensed" font-size="41" transform="matrix(1 0 0 1 1259.65 487)">20000</text></g><g><text fill="#595959" font-family="Aptos Narrow,Aptos Narrow_MSFontService,sans-serif" font-weight="400" font-stretch="semi-condensed" font-size="41" transform="matrix(6.12323e-17 -1 1 6.12323e-17 1417.57 2249)">Jan 1939</text></g><g><text fill="#595959" font-family="Aptos Narrow,Aptos Narrow_MSFontService,sans-serif" font-weight="400" font-stretch="semi-condensed" font-size="41" transform="matrix(6.12323e-17 -1 1 6.12323e-17 1468.88 2250)">Jun 1940</text></g><g><text fill="#595959" font-family="Aptos Narrow,Aptos Narrow_MSFontService,sans-serif" font-weight="400" font-stretch="semi-condensed" font-size="41" transform="matrix(6.12323e-17 -1 1 6.12323e-17 1520.19 2260)">Nov 1941</text></g><g><text fill="#595959" font-family="Aptos Narrow,Aptos Narrow_MSFontService,sans-serif" font-weight="400" font-stretch="semi-condensed" font-size="41" transform="matrix(6.12323e-17 -1 1 6.12323e-17 1571.5 2251)">Apr 1943</text></g><g><text fill="#595959" font-family="Aptos Narrow,Aptos Narrow_MSFontService,sans-serif" font-weight="400" font-stretch="semi-condensed" font-size="41" transform="matrix(6.12323e-17 -1 1 6.12323e-17 1622.81 2258)">Sep 1944</text></g><g><text fill="#595959" font-family="Aptos Narrow,Aptos Narrow_MSFontService,sans-serif" font-weight="400" font-stretch="semi-condensed" font-size="41" transform="matrix(6.12323e-17 -1 1 6.12323e-17 1674.11 2256)">Feb 1946</text></g><g><text fill="#595959" font-family="Aptos Narrow,Aptos Narrow_MSFontService,sans-serif" font-weight="400" font-stretch="semi-condensed" font-size="41" transform="matrix(6.12323e-17 -1 1 6.12323e-17 1725.42 2239)">Jul 1947</text></g><g><text fill="#595959" font-family="Aptos Narrow,Aptos Narrow_MSFontService,sans-serif" font-weight="400" font-stretch="semi-condensed" font-size="41" transform="matrix(6.12323e-17 -1 1 6.12323e-17 1776.73 2261)">Dec 1948</text></g><g><text fill="#595959" font-family="Aptos Narrow,Aptos Narrow_MSFontService,sans-serif" font-weight="400" font-stretch="semi-condensed" font-size="41" transform="matrix(6.12323e-17 -1 1 6.12323e-17 1828.04 2262)">May 1950</text></g><g><text fill="#595959" font-family="Aptos Narrow,Aptos Narrow_MSFontService,sans-serif" font-weight="400" font-stretch="semi-condensed" font-size="41" transform="matrix(6.12323e-17 -1 1 6.12323e-17 1879.35 2255)">Oct 1951</text></g><g><text fill="#595959" font-family="Aptos Narrow,Aptos Narrow_MSFontService,sans-serif" font-weight="400" font-stretch="semi-condensed" font-size="41" transform="matrix(6.12323e-17 -1 1 6.12323e-17 1930.66 2258)">Mar 1953</text></g><g><text fill="#595959" font-family="Aptos Narrow,Aptos Narrow_MSFontService,sans-serif" font-weight="400" font-stretch="semi-condensed" font-size="41" transform="matrix(6.12323e-17 -1 1 6.12323e-17 1981.97 2257)">Aug 1954</text></g><g><text fill="#595959" font-family="Aptos Narrow,Aptos Narrow_MSFontService,sans-serif" font-weight="400" font-stretch="semi-condensed" font-size="41" transform="matrix(6.12323e-17 -1 1 6.12323e-17 2033.28 2249)">Jan 1956</text></g><g><text fill="#595959" font-family="Aptos Narrow,Aptos Narrow_MSFontService,sans-serif" font-weight="400" font-stretch="semi-condensed" font-size="41" transform="matrix(6.12323e-17 -1 1 6.12323e-17 2084.58 2250)">Jun 1957</text></g><g><text fill="#595959" font-family="Aptos Narrow,Aptos Narrow_MSFontService,sans-serif" font-weight="400" font-stretch="semi-condensed" font-size="41" transform="matrix(6.12323e-17 -1 1 6.12323e-17 2135.89 2260)">Nov 1958</text></g><g><text fill="#595959" font-family="Aptos Narrow,Aptos Narrow_MSFontService,sans-serif" font-weight="400" font-stretch="semi-condensed" font-size="41" transform="matrix(6.12323e-17 -1 1 6.12323e-17 2187.2 2251)">Apr 1960</text></g><g><text fill="#595959" font-family="Aptos Narrow,Aptos Narrow_MSFontService,sans-serif" font-weight="400" font-stretch="semi-condensed" font-size="41" transform="matrix(6.12323e-17 -1 1 6.12323e-17 2238.51 2258)">Sep 1961</text></g><g><text fill="#595959" font-family="Aptos Narrow,Aptos Narrow_MSFontService,sans-serif" font-weight="400" font-stretch="semi-condensed" font-size="41" transform="matrix(6.12323e-17 -1 1 6.12323e-17 2289.82 2256)">Feb 1963</text></g><g><text fill="#595959" font-family="Aptos Narrow,Aptos Narrow_MSFontService,sans-serif" font-weight="400" font-stretch="semi-condensed" font-size="41" transform="matrix(6.12323e-17 -1 1 6.12323e-17 2341.13 2239)">Jul 1964</text></g><g><text fill="#595959" font-family="Aptos Narrow,Aptos Narrow_MSFontService,sans-serif" font-weight="400" font-stretch="semi-condensed" font-size="41" transform="matrix(6.12323e-17 -1 1 6.12323e-17 2392.44 2261)">Dec 1965</text></g><g><text fill="#595959" font-family="Aptos Narrow,Aptos Narrow_MSFontService,sans-serif" font-weight="400" font-stretch="semi-condensed" font-size="41" transform="matrix(6.12323e-17 -1 1 6.12323e-17 2443.75 2262)">May 1967</text></g><g><text fill="#595959" font-family="Aptos Narrow,Aptos Narrow_MSFontService,sans-serif" font-weight="400" font-stretch="semi-condensed" font-size="41" transform="matrix(6.12323e-17 -1 1 6.12323e-17 2495.06 2255)">Oct 1968</text></g><g><text fill="#595959" font-family="Aptos Narrow,Aptos Narrow_MSFontService,sans-serif" font-weight="400" font-stretch="semi-condensed" font-size="41" transform="matrix(6.12323e-17 -1 1 6.12323e-17 2546.36 2258)">Mar 1970</text></g><g><text fill="#595959" font-family="Aptos Narrow,Aptos Narrow_MSFontService,sans-serif" font-weight="400" font-stretch="semi-condensed" font-size="41" transform="matrix(6.12323e-17 -1 1 6.12323e-17 2597.67 2257)">Aug 1971</text></g><g><text fill="#595959" font-family="Aptos Narrow,Aptos Narrow_MSFontService,sans-serif" font-weight="400" font-stretch="semi-condensed" font-size="41" transform="matrix(6.12323e-17 -1 1 6.12323e-17 2648.98 2249)">Jan 1973</text></g><g><text fill="#595959" font-family="Aptos Narrow,Aptos Narrow_MSFontService,sans-serif" font-weight="400" font-stretch="semi-condensed" font-size="41" transform="matrix(6.12323e-17 -1 1 6.12323e-17 2700.29 2250)">Jun 1974</text></g><g><text fill="#595959" font-family="Aptos Narrow,Aptos Narrow_MSFontService,sans-serif" font-weight="400" font-stretch="semi-condensed" font-size="41" transform="matrix(6.12323e-17 -1 1 6.12323e-17 2751.6 2260)">Nov 1975</text></g><g><text fill="#595959" font-family="Aptos Narrow,Aptos Narrow_MSFontService,sans-serif" font-weight="400" font-stretch="semi-condensed" font-size="41" transform="matrix(6.12323e-17 -1 1 6.12323e-17 2802.91 2251)">Apr 1977</text></g><g><text fill="#595959" font-family="Aptos Narrow,Aptos Narrow_MSFontService,sans-serif" font-weight="400" font-stretch="semi-condensed" font-size="41" transform="matrix(6.12323e-17 -1 1 6.12323e-17 2854.22 2258)">Sep 1978</text></g><g><text fill="#595959" font-family="Aptos Narrow,Aptos Narrow_MSFontService,sans-serif" font-weight="400" font-stretch="semi-condensed" font-size="41" transform="matrix(6.12323e-17 -1 1 6.12323e-17 2905.53 2256)">Feb 1980</text></g><g><text fill="#595959" font-family="Aptos Narrow,Aptos Narrow_MSFontService,sans-serif" font-weight="400" font-stretch="semi-condensed" font-size="41" transform="matrix(6.12323e-17 -1 1 6.12323e-17 2956.83 2239)">Jul 1981</text></g><g><text fill="#595959" font-family="Aptos Narrow,Aptos Narrow_MSFontService,sans-serif" font-weight="400" font-stretch="semi-condensed" font-size="41" transform="matrix(6.12323e-17 -1 1 6.12323e-17 3008.14 2261)">Dec 1982</text></g><g><text fill="#595959" font-family="Aptos Narrow,Aptos Narrow_MSFontService,sans-serif" font-weight="400" font-stretch="semi-condensed" font-size="41" transform="matrix(6.12323e-17 -1 1 6.12323e-17 3059.45 2262)">May 1984</text></g><g><text fill="#595959" font-family="Aptos Narrow,Aptos Narrow_MSFontService,sans-serif" font-weight="400" font-stretch="semi-condensed" font-size="41" transform="matrix(6.12323e-17 -1 1 6.12323e-17 3110.76 2255)">Oct 1985</text></g><g><text fill="#595959" font-family="Aptos Narrow,Aptos Narrow_MSFontService,sans-serif" font-weight="400" font-stretch="semi-condensed" font-size="41" transform="matrix(6.12323e-17 -1 1 6.12323e-17 3162.07 2258)">Mar 1987</text></g><g><text fill="#595959" font-family="Aptos Narrow,Aptos Narrow_MSFontService,sans-serif" font-weight="400" font-stretch="semi-condensed" font-size="41" transform="matrix(6.12323e-17 -1 1 6.12323e-17 3213.38 2257)">Aug 1988</text></g><g><text fill="#595959" font-family="Aptos Narrow,Aptos Narrow_MSFontService,sans-serif" font-weight="400" font-stretch="semi-condensed" font-size="41" transform="matrix(6.12323e-17 -1 1 6.12323e-17 3264.69 2249)">Jan 1990</text></g><g><text fill="#595959" font-family="Aptos Narrow,Aptos Narrow_MSFontService,sans-serif" font-weight="400" font-stretch="semi-condensed" font-size="41" transform="matrix(6.12323e-17 -1 1 6.12323e-17 3316 2250)">Jun 1991</text></g><g><text fill="#595959" font-family="Aptos Narrow,Aptos Narrow_MSFontService,sans-serif" font-weight="400" font-stretch="semi-condensed" font-size="41" transform="matrix(6.12323e-17 -1 1 6.12323e-17 3367.3 2260)">Nov 1992</text></g><g><text fill="#595959" font-family="Aptos Narrow,Aptos Narrow_MSFontService,sans-serif" font-weight="400" font-stretch="semi-condensed" font-size="41" transform="matrix(6.12323e-17 -1 1 6.12323e-17 3418.61 2251)">Apr 1994</text></g><g><text fill="#595959" font-family="Aptos Narrow,Aptos Narrow_MSFontService,sans-serif" font-weight="400" font-stretch="semi-condensed" font-size="41" transform="matrix(6.12323e-17 -1 1 6.12323e-17 3469.92 2258)">Sep 1995</text></g><g><text fill="#595959" font-family="Aptos Narrow,Aptos Narrow_MSFontService,sans-serif" font-weight="400" font-stretch="semi-condensed" font-size="41" transform="matrix(6.12323e-17 -1 1 6.12323e-17 3521.23 2256)">Feb 1997</text></g><g><text fill="#595959" font-family="Aptos Narrow,Aptos Narrow_MSFontService,sans-serif" font-weight="400" font-stretch="semi-condensed" font-size="41" transform="matrix(6.12323e-17 -1 1 6.12323e-17 3572.54 2239)">Jul 1998</text></g><g><text fill="#595959" font-family="Aptos Narrow,Aptos Narrow_MSFontService,sans-serif" font-weight="400" font-stretch="semi-condensed" font-size="41" transform="matrix(6.12323e-17 -1 1 6.12323e-17 3623.85 2261)">Dec 1999</text></g><g><text fill="#595959" font-family="Aptos Narrow,Aptos Narrow_MSFontService,sans-serif" font-weight="400" font-stretch="semi-condensed" font-size="41" transform="matrix(6.12323e-17 -1 1 6.12323e-17 3675.16 2262)">May 2001</text></g><g><text fill="#595959" font-family="Aptos Narrow,Aptos Narrow_MSFontService,sans-serif" font-weight="400" font-stretch="semi-condensed" font-size="41" transform="matrix(6.12323e-17 -1 1 6.12323e-17 3726.47 2255)">Oct 2002</text></g><g><text fill="#595959" font-family="Aptos Narrow,Aptos Narrow_MSFontService,sans-serif" font-weight="400" font-stretch="semi-condensed" font-size="41" transform="matrix(6.12323e-17 -1 1 6.12323e-17 3777.77 2258)">Mar 2004</text></g><g><text fill="#595959" font-family="Aptos Narrow,Aptos Narrow_MSFontService,sans-serif" font-weight="400" font-stretch="semi-condensed" font-size="41" transform="matrix(6.12323e-17 -1 1 6.12323e-17 3829.08 2257)">Aug 2005</text></g><g><text fill="#595959" font-family="Aptos Narrow,Aptos Narrow_MSFontService,sans-serif" font-weight="400" font-stretch="semi-condensed" font-size="41" transform="matrix(6.12323e-17 -1 1 6.12323e-17 3880.39 2249)">Jan 2007</text></g><g><text fill="#595959" font-family="Aptos Narrow,Aptos Narrow_MSFontService,sans-serif" font-weight="400" font-stretch="semi-condensed" font-size="41" transform="matrix(6.12323e-17 -1 1 6.12323e-17 3931.7 2250)">Jun 2008</text></g><g><text fill="#595959" font-family="Aptos Narrow,Aptos Narrow_MSFontService,sans-serif" font-weight="400" font-stretch="semi-condensed" font-size="41" transform="matrix(6.12323e-17 -1 1 6.12323e-17 3983.01 2260)">Nov 2009</text></g><g><text fill="#595959" font-family="Aptos Narrow,Aptos Narrow_MSFontService,sans-serif" font-weight="400" font-stretch="semi-condensed" font-size="41" transform="matrix(6.12323e-17 -1 1 6.12323e-17 4034.32 2251)">Apr 2011</text></g><g><text fill="#595959" font-family="Aptos Narrow,Aptos Narrow_MSFontService,sans-serif" font-weight="400" font-stretch="semi-condensed" font-size="41" transform="matrix(6.12323e-17 -1 1 6.12323e-17 4085.63 2258)">Sep 2012</text></g><g><text fill="#595959" font-family="Aptos Narrow,Aptos Narrow_MSFontService,sans-serif" font-weight="400" font-stretch="semi-condensed" font-size="41" transform="matrix(6.12323e-17 -1 1 6.12323e-17 4136.94 2256)">Feb 2014</text></g><g><text fill="#595959" font-family="Aptos Narrow,Aptos Narrow_MSFontService,sans-serif" font-weight="400" font-stretch="semi-condensed" font-size="41" transform="matrix(6.12323e-17 -1 1 6.12323e-17 4188.24 2239)">Jul 2015</text></g><g><text fill="#595959" font-family="Aptos Narrow,Aptos Narrow_MSFontService,sans-serif" font-weight="400" font-stretch="semi-condensed" font-size="41" transform="matrix(6.12323e-17 -1 1 6.12323e-17 4239.55 2261)">Dec 2016</text></g><g><text fill="#595959" font-family="Aptos Narrow,Aptos Narrow_MSFontService,sans-serif" font-weight="400" font-stretch="semi-condensed" font-size="41" transform="matrix(6.12323e-17 -1 1 6.12323e-17 4290.86 2262)">May 2018</text></g><g><text fill="#595959" font-family="Aptos Narrow,Aptos Narrow_MSFontService,sans-serif" font-weight="400" font-stretch="semi-condensed" font-size="41" transform="matrix(6.12323e-17 -1 1 6.12323e-17 4342.17 2255)">Oct 2019</text></g><g><text fill="#595959" font-family="Aptos Narrow,Aptos Narrow_MSFontService,sans-serif" font-weight="400" font-stretch="semi-condensed" font-size="41" transform="matrix(6.12323e-17 -1 1 6.12323e-17 4393.48 2258)">Mar 2021</text></g><g><text fill="#595959" font-family="Aptos Narrow,Aptos Narrow_MSFontService,sans-serif" font-weight="400" font-stretch="semi-condensed" font-size="41" transform="matrix(6.12323e-17 -1 1 6.12323e-17 4444.79 2257)">Aug 2022</text></g><g><text fill="#595959" font-family="Aptos Narrow,Aptos Narrow_MSFontService,sans-serif" font-weight="400" font-stretch="semi-condensed" font-size="41" transform="matrix(6.12323e-17 -1 1 6.12323e-17 4496.1 2249)">Jan 2024</text></g><rect x="1230.5" y="425.5" width="3325" height="1867" stroke="#D9D9D9" stroke-width="3.4375" stroke-linejoin="round" stroke-miterlimit="10" fill="none"/></g></svg>