<svg version="1.1" xmlns="http://www.w3.org/2000/svg" viewBox="0 0 795.3641782384614 708.9047360929344" width="795.3641782384614" height="708.9047360929344" class="excalidraw-svg">
  <!-- svg-source:excalidraw -->
  
  <defs>
    <style class="style-fonts">
      @font-face {
        font-family: "Virgil";
        src: url("https://excalidraw.com/Virgil.woff2");
      }
      @font-face {
        font-family: "Cascadia";
        src: url("https://excalidraw.com/Cascadia.woff2");
      }
      @font-face {
        font-family: "Assistant";
        src: url("https://excalidraw.com/Assistant-Regular.woff2");
      }
    </style>
    
  </defs>
  <g stroke-linecap="round" transform="translate(10.00000005840883 349.1194969142599) rotate(0 191.33337402343747 36.108187589337184)"><path d="M18.05 0 C132.45 0, 246.85 0, 364.61 0 C376.65 0, 382.67 6.02, 382.67 18.05 C382.67 26.03, 382.67 34.01, 382.67 54.16 C382.67 66.2, 376.65 72.22, 364.61 72.22 C289.8 72.22, 214.98 72.22, 18.05 72.22 C6.02 72.22, 0 66.2, 0 54.16 C0 41.81, 0 29.46, 0 18.05 C0 6.02, 6.02 0, 18.05 0" stroke="none" stroke-width="0" fill="#228be6"/><path d="M18.05 0 C127.41 0, 236.77 0, 364.61 0 M18.05 0 C110.43 0, 202.81 0, 364.61 0 M364.61 0 C376.65 0, 382.67 6.02, 382.67 18.05 M364.61 0 C376.65 0, 382.67 6.02, 382.67 18.05 M382.67 18.05 C382.67 29.69, 382.67 41.32, 382.67 54.16 M382.67 18.05 C382.67 31.18, 382.67 44.32, 382.67 54.16 M382.67 54.16 C382.67 66.2, 376.65 72.22, 364.61 72.22 M382.67 54.16 C382.67 66.2, 376.65 72.22, 364.61 72.22 M364.61 72.22 C280.46 72.22, 196.31 72.22, 18.05 72.22 M364.61 72.22 C232.08 72.22, 99.54 72.22, 18.05 72.22 M18.05 72.22 C6.02 72.22, 0 66.2, 0 54.16 M18.05 72.22 C6.02 72.22, 0 66.2, 0 54.16 M0 54.16 C0 43.13, 0 32.1, 0 18.05 M0 54.16 C0 43.85, 0 33.54, 0 18.05 M0 18.05 C0 6.02, 6.02 0, 18.05 0 M0 18.05 C0 6.02, 6.02 0, 18.05 0" stroke="#1e1e1e" stroke-width="2" fill="none"/></g><g transform="translate(124.9739990818463 364.5276845035971) rotate(0 76.359375 20.699999999999996)"><text x="76.359375" y="33.120703125" font-family="Helvetica, Segoe UI Emoji" font-size="36px" fill="#1e1e1e" text-anchor="middle" style="white-space: pre;" direction="ltr" dominant-baseline="alphabetic">Transport</text></g><g stroke-linecap="round" transform="translate(10.00000045110221 453.3371641258887) rotate(0 191.33337402343747 37.374453911385615)"><path d="M18.69 0 C102.39 0, 186.09 0, 363.98 0 C376.44 0, 382.67 6.23, 382.67 18.69 C382.67 32.14, 382.67 45.59, 382.67 56.06 C382.67 68.52, 376.44 74.75, 363.98 74.75 C263.36 74.75, 162.74 74.75, 18.69 74.75 C6.23 74.75, 0 68.52, 0 56.06 C0 46.78, 0 37.49, 0 18.69 C0 6.23, 6.23 0, 18.69 0" stroke="none" stroke-width="0" fill="#ff9e01"/><path d="M18.69 0 C93.56 0, 168.43 0, 363.98 0 M18.69 0 C143.94 0, 269.19 0, 363.98 0 M363.98 0 C376.44 0, 382.67 6.23, 382.67 18.69 M363.98 0 C376.44 0, 382.67 6.23, 382.67 18.69 M382.67 18.69 C382.67 28.62, 382.67 38.55, 382.67 56.06 M382.67 18.69 C382.67 28.21, 382.67 37.74, 382.67 56.06 M382.67 56.06 C382.67 68.52, 376.44 74.75, 363.98 74.75 M382.67 56.06 C382.67 68.52, 376.44 74.75, 363.98 74.75 M363.98 74.75 C292.06 74.75, 220.14 74.75, 18.69 74.75 M363.98 74.75 C247.76 74.75, 131.54 74.75, 18.69 74.75 M18.69 74.75 C6.23 74.75, 0 68.52, 0 56.06 M18.69 74.75 C6.23 74.75, 0 68.52, 0 56.06 M0 56.06 C0 44.93, 0 33.79, 0 18.69 M0 56.06 C0 47.14, 0 38.21, 0 18.69 M0 18.69 C0 6.23, 6.23 0, 18.69 0 M0 18.69 C0 6.23, 6.23 0, 18.69 0" stroke="#1e1e1e" stroke-width="2" fill="none"/></g><g transform="translate(140.29333541203968 470.01161803727433) rotate(0 61.0400390625 20.700000000000003)"><text x="61.0400390625" y="33.120703125" font-family="Helvetica, Segoe UI Emoji" font-size="36px" fill="#1e1e1e" text-anchor="middle" style="white-space: pre;" direction="ltr" dominant-baseline="alphabetic">Internet</text></g><g stroke-linecap="round" transform="translate(10 560.0873641714783) rotate(0 191.33337402343747 69.40868596072805)"><path d="M32 0 C146.14 0, 260.27 0, 350.67 0 C372 0, 382.67 10.67, 382.67 32 C382.67 59.15, 382.67 86.29, 382.67 106.82 C382.67 128.15, 372 138.82, 350.67 138.82 C278.98 138.82, 207.29 138.82, 32 138.82 C10.67 138.82, 0 128.15, 0 106.82 C0 84.42, 0 62.02, 0 32 C0 10.67, 10.67 0, 32 0" stroke="none" stroke-width="0" fill="#d050a5"/><path d="M32 0 C132.38 0, 232.75 0, 350.67 0 M32 0 C116.61 0, 201.21 0, 350.67 0 M350.67 0 C372 0, 382.67 10.67, 382.67 32 M350.67 0 C372 0, 382.67 10.67, 382.67 32 M382.67 32 C382.67 49.29, 382.67 66.58, 382.67 106.82 M382.67 32 C382.67 54.09, 382.67 76.18, 382.67 106.82 M382.67 106.82 C382.67 128.15, 372 138.82, 350.67 138.82 M382.67 106.82 C382.67 128.15, 372 138.82, 350.67 138.82 M350.67 138.82 C272.1 138.82, 193.53 138.82, 32 138.82 M350.67 138.82 C275.02 138.82, 199.37 138.82, 32 138.82 M32 138.82 C10.67 138.82, 0 128.15, 0 106.82 M32 138.82 C10.67 138.82, 0 128.15, 0 106.82 M0 106.82 C0 89.77, 0 72.72, 0 32 M0 106.82 C0 91.57, 0 76.32, 0 32 M0 32 C0 10.67, 10.67 0, 32 0 M0 32 C0 10.67, 10.67 0, 32 0" stroke="#1e1e1e" stroke-width="2" fill="none"/></g><g transform="translate(105.26892089843747 608.7960501322063) rotate(0 96.064453125 20.69999999999999)"><text x="96.064453125" y="33.120703125" font-family="Helvetica, Segoe UI Emoji" font-size="36px" fill="#1e1e1e" text-anchor="middle" style="white-space: pre;" direction="ltr" dominant-baseline="alphabetic">Netzzugang</text></g><g stroke-linecap="round" transform="translate(10.000000491416472 81.51296766637881) rotate(0 191.33337402343747 123.18432271327774)"><path d="M32 0 C127.26 0, 222.52 0, 350.67 0 C372 0, 382.67 10.67, 382.67 32 C382.67 102.97, 382.67 173.94, 382.67 214.37 C382.67 235.7, 372 246.37, 350.67 246.37 C281.64 246.37, 212.62 246.37, 32 246.37 C10.67 246.37, 0 235.7, 0 214.37 C0 151.48, 0 88.59, 0 32 C0 10.67, 10.67 0, 32 0" stroke="none" stroke-width="0" fill="#fa5252"/><path d="M32 0 C141.14 0, 250.27 0, 350.67 0 M32 0 C101.95 0, 171.9 0, 350.67 0 M350.67 0 C372 0, 382.67 10.67, 382.67 32 M350.67 0 C372 0, 382.67 10.67, 382.67 32 M382.67 32 C382.67 82.9, 382.67 133.81, 382.67 214.37 M382.67 32 C382.67 76.6, 382.67 121.2, 382.67 214.37 M382.67 214.37 C382.67 235.7, 372 246.37, 350.67 246.37 M382.67 214.37 C382.67 235.7, 372 246.37, 350.67 246.37 M350.67 246.37 C251.99 246.37, 153.3 246.37, 32 246.37 M350.67 246.37 C224.01 246.37, 97.34 246.37, 32 246.37 M32 246.37 C10.67 246.37, 0 235.7, 0 214.37 M32 246.37 C10.67 246.37, 0 235.7, 0 214.37 M0 214.37 C0 159.49, 0 104.62, 0 32 M0 214.37 C0 162.67, 0 110.96, 0 32 M0 32 C0 10.67, 10.67 0, 32 0 M0 32 C0 10.67, 10.67 0, 32 0" stroke="#1e1e1e" stroke-width="2" fill="none"/></g><g transform="translate(106.25329638985394 183.99729037965653) rotate(0 95.080078125 20.700000000000003)"><text x="95.080078125" y="33.120703125" font-family="Helvetica, Segoe UI Emoji" font-size="36px" fill="#1e1e1e" text-anchor="middle" style="white-space: pre;" direction="ltr" dominant-baseline="alphabetic">Anwendung</text></g><g transform="translate(85.87553842805036 10) rotate(0 117.0263671875 20.69999999999999)"><text x="0" y="33.120703125" font-family="Helvetica, Segoe UI Emoji" font-size="36px" fill="#1e1e1e" text-anchor="start" style="white-space: pre;" direction="ltr" dominant-baseline="alphabetic">TCP/IP-Modell</text></g><g transform="translate(417.1727719884613 10.000000454377755) rotate(0 184.09570312500003 20.69999999999999)"><text x="0" y="33.120703125" font-family="Helvetica, Segoe UI Emoji" font-size="36px" fill="#1e1e1e" text-anchor="start" style="white-space: pre;" direction="ltr" dominant-baseline="alphabetic">Beispiele für Protokolle</text></g><g stroke-linecap="round" transform="translate(443.2463724425405 560.0873640739436) rotate(0 158.02210281030108 69.40868596072805)"><path d="M32 0 C86.41 0, 140.82 0, 284.04 0 C305.38 0, 316.04 10.67, 316.04 32 C316.04 57.6, 316.04 83.19, 316.04 106.82 C316.04 128.15, 305.38 138.82, 284.04 138.82 C226.36 138.82, 168.69 138.82, 32 138.82 C10.67 138.82, 0 128.15, 0 106.82 C0 79.88, 0 52.94, 0 32 C0 10.67, 10.67 0, 32 0" stroke="none" stroke-width="0" fill="#d050a5"/><path d="M32 0 C113.21 0, 194.42 0, 284.04 0 M32 0 C123.66 0, 215.31 0, 284.04 0 M284.04 0 C305.38 0, 316.04 10.67, 316.04 32 M284.04 0 C305.38 0, 316.04 10.67, 316.04 32 M316.04 32 C316.04 50.17, 316.04 68.33, 316.04 106.82 M316.04 32 C316.04 60.61, 316.04 89.22, 316.04 106.82 M316.04 106.82 C316.04 128.15, 305.38 138.82, 284.04 138.82 M316.04 106.82 C316.04 128.15, 305.38 138.82, 284.04 138.82 M284.04 138.82 C207.05 138.82, 130.06 138.82, 32 138.82 M284.04 138.82 C212.06 138.82, 140.08 138.82, 32 138.82 M32 138.82 C10.67 138.82, 0 128.15, 0 106.82 M32 138.82 C10.67 138.82, 0 128.15, 0 106.82 M0 106.82 C0 82.12, 0 57.42, 0 32 M0 106.82 C0 86.22, 0 65.62, 0 32 M0 32 C0 10.67, 10.67 0, 32 0 M0 32 C0 10.67, 10.67 0, 32 0" stroke="#1e1e1e" stroke-width="2" fill="none"/></g><g transform="translate(466.21574087784165 608.7960500346717) rotate(0 135.052734375 20.69999999999999)"><text x="135.052734375" y="33.120703125" font-family="Helvetica, Segoe UI Emoji" font-size="36px" fill="#1e1e1e" text-anchor="middle" style="white-space: pre;" direction="ltr" dominant-baseline="alphabetic">Ethernet / WLAN</text></g><g stroke-linecap="round" transform="translate(443.24637214602524 453.3371638318655) rotate(0 158.02210295855872 37.37445391138563)"><path d="M18.69 0 C99.89 0, 181.1 0, 297.36 0 C309.82 0, 316.04 6.23, 316.04 18.69 C316.04 27.97, 316.04 37.25, 316.04 56.06 C316.04 68.52, 309.82 74.75, 297.36 74.75 C207.13 74.75, 116.89 74.75, 18.69 74.75 C6.23 74.75, 0 68.52, 0 56.06 C0 46.81, 0 37.55, 0 18.69 C0 6.23, 6.23 0, 18.69 0" stroke="none" stroke-width="0" fill="#ff9e01"/><path d="M18.69 0 C92.75 0, 166.81 0, 297.36 0 M18.69 0 C89.72 0, 160.76 0, 297.36 0 M297.36 0 C309.82 0, 316.04 6.23, 316.04 18.69 M297.36 0 C309.82 0, 316.04 6.23, 316.04 18.69 M316.04 18.69 C316.04 26.47, 316.04 34.26, 316.04 56.06 M316.04 18.69 C316.04 31.27, 316.04 43.85, 316.04 56.06 M316.04 56.06 C316.04 68.52, 309.82 74.75, 297.36 74.75 M316.04 56.06 C316.04 68.52, 309.82 74.75, 297.36 74.75 M297.36 74.75 C214.34 74.75, 131.33 74.75, 18.69 74.75 M297.36 74.75 C230.81 74.75, 164.26 74.75, 18.69 74.75 M18.69 74.75 C6.23 74.75, 0 68.52, 0 56.06 M18.69 74.75 C6.23 74.75, 0 68.52, 0 56.06 M0 56.06 C0 47, 0 37.94, 0 18.69 M0 56.06 C0 42.25, 0 28.43, 0 18.69 M0 18.69 C0 6.23, 6.23 0, 18.69 0 M0 18.69 C0 6.23, 6.23 0, 18.69 0" stroke="#1e1e1e" stroke-width="2" fill="none"/></g><g transform="translate(584.261639167084 470.0116177432511) rotate(0 17.0068359375 20.700000000000003)"><text x="17.0068359375" y="33.120703125" font-family="Helvetica, Segoe UI Emoji" font-size="36px" fill="#1e1e1e" text-anchor="middle" style="white-space: pre;" direction="ltr" dominant-baseline="alphabetic">IP</text></g><g stroke-linecap="round" transform="translate(443.24637179173567 349.1194970929343) rotate(0 87.5073111357035 36.10818750279175)"><path d="M18.05 0 C49.3 0, 80.55 0, 156.96 0 C169 0, 175.01 6.02, 175.01 18.05 C175.01 28.86, 175.01 39.68, 175.01 54.16 C175.01 66.2, 169 72.22, 156.96 72.22 C114.24 72.22, 71.53 72.22, 18.05 72.22 C6.02 72.22, 0 66.2, 0 54.16 C0 41.86, 0 29.56, 0 18.05 C0 6.02, 6.02 0, 18.05 0" stroke="none" stroke-width="0" fill="#228be6"/><path d="M18.05 0 C50.15 0, 82.25 0, 156.96 0 M18.05 0 C59.07 0, 100.08 0, 156.96 0 M156.96 0 C169 0, 175.01 6.02, 175.01 18.05 M156.96 0 C169 0, 175.01 6.02, 175.01 18.05 M175.01 18.05 C175.01 26.96, 175.01 35.86, 175.01 54.16 M175.01 18.05 C175.01 26.63, 175.01 35.2, 175.01 54.16 M175.01 54.16 C175.01 66.2, 169 72.22, 156.96 72.22 M175.01 54.16 C175.01 66.2, 169 72.22, 156.96 72.22 M156.96 72.22 C125.31 72.22, 93.66 72.22, 18.05 72.22 M156.96 72.22 C128.65 72.22, 100.33 72.22, 18.05 72.22 M18.05 72.22 C6.02 72.22, 0 66.2, 0 54.16 M18.05 72.22 C6.02 72.22, 0 66.2, 0 54.16 M0 54.16 C0 41.23, 0 28.3, 0 18.05 M0 54.16 C0 46.18, 0 38.21, 0 18.05 M0 18.05 C0 6.02, 6.02 0, 18.05 0 M0 18.05 C0 6.02, 6.02 0, 18.05 0" stroke="#1e1e1e" stroke-width="2" fill="none"/></g><g transform="translate(494.7536829274392 364.52768459572604) rotate(0 36 20.700000000000003)"><text x="36" y="33.120703125" font-family="Helvetica, Segoe UI Emoji" font-size="36px" fill="#1e1e1e" text-anchor="middle" style="white-space: pre;" direction="ltr" dominant-baseline="alphabetic">TCP</text></g><g stroke-opacity="0.4" fill-opacity="0.4" stroke-linecap="round" transform="translate(643.5323076247953 349.11949712363645) rotate(0 57.87913521917369 36.10818750279175)"><path d="M18.05 0 C35.31 0, 52.56 0, 97.7 0 C109.74 0, 115.76 6.02, 115.76 18.05 C115.76 30.51, 115.76 42.96, 115.76 54.16 C115.76 66.2, 109.74 72.22, 97.7 72.22 C72.13 72.22, 46.55 72.22, 18.05 72.22 C6.02 72.22, 0 66.2, 0 54.16 C0 46.33, 0 38.51, 0 18.05 C0 6.02, 6.02 0, 18.05 0" stroke="none" stroke-width="0" fill="#228be6"/><path d="M18.05 0 C40.29 0, 62.52 0, 97.7 0 M18.05 0 C37.53 0, 57.01 0, 97.7 0 M97.7 0 C109.74 0, 115.76 6.02, 115.76 18.05 M97.7 0 C109.74 0, 115.76 6.02, 115.76 18.05 M115.76 18.05 C115.76 29.24, 115.76 40.42, 115.76 54.16 M115.76 18.05 C115.76 32.41, 115.76 46.76, 115.76 54.16 M115.76 54.16 C115.76 66.2, 109.74 72.22, 97.7 72.22 M115.76 54.16 C115.76 66.2, 109.74 72.22, 97.7 72.22 M97.7 72.22 C73.74 72.22, 49.77 72.22, 18.05 72.22 M97.7 72.22 C75.12 72.22, 52.54 72.22, 18.05 72.22 M18.05 72.22 C6.02 72.22, 0 66.2, 0 54.16 M18.05 72.22 C6.02 72.22, 0 66.2, 0 54.16 M0 54.16 C0 43.37, 0 32.57, 0 18.05 M0 54.16 C0 41.17, 0 28.17, 0 18.05 M0 18.05 C0 6.02, 6.02 0, 18.05 0 M0 18.05 C0 6.02, 6.02 0, 18.05 0" stroke="#1e1e1e" stroke-width="2" fill="none"/></g><g stroke-opacity="0.4" fill-opacity="0.4" transform="translate(663.407536593969 364.5276846264282) rotate(0 38.00390625 20.699999999999996)"><text x="38.00390625" y="33.120703125" font-family="Helvetica, Segoe UI Emoji" font-size="36px" fill="#1e1e1e" text-anchor="middle" style="white-space: pre;" direction="ltr" dominant-baseline="alphabetic">UDP</text></g><g stroke-linecap="round" transform="translate(347.4891282971238 178.07817034371993) rotate(270 122.78034320007532 27.023099872848803)"><path d="M13.51 0 C65.84 0, 118.17 0, 232.05 0 C241.06 0, 245.56 4.5, 245.56 13.51 C245.56 20.75, 245.56 27.98, 245.56 40.53 C245.56 49.54, 241.06 54.05, 232.05 54.05 C152.03 54.05, 72 54.05, 13.51 54.05 C4.5 54.05, 0 49.54, 0 40.53 C0 29.75, 0 18.96, 0 13.51 C0 4.5, 4.5 0, 13.51 0" stroke="none" stroke-width="0" fill="#fa5252"/><path d="M13.51 0 C77.75 0, 142 0, 232.05 0 M13.51 0 C94.58 0, 175.65 0, 232.05 0 M232.05 0 C241.06 0, 245.56 4.5, 245.56 13.51 M232.05 0 C241.06 0, 245.56 4.5, 245.56 13.51 M245.56 13.51 C245.56 20.54, 245.56 27.57, 245.56 40.53 M245.56 13.51 C245.56 22.97, 245.56 32.44, 245.56 40.53 M245.56 40.53 C245.56 49.54, 241.06 54.05, 232.05 54.05 M245.56 40.53 C245.56 49.54, 241.06 54.05, 232.05 54.05 M232.05 54.05 C161.98 54.05, 91.92 54.05, 13.51 54.05 M232.05 54.05 C163.44 54.05, 94.84 54.05, 13.51 54.05 M13.51 54.05 C4.5 54.05, 0 49.54, 0 40.53 M13.51 54.05 C4.5 54.05, 0 49.54, 0 40.53 M0 40.53 C0 30.49, 0 20.44, 0 13.51 M0 40.53 C0 30.73, 0 20.93, 0 13.51 M0 13.51 C0 4.5, 4.5 0, 13.51 0 M0 13.51 C0 4.5, 4.5 0, 13.51 0" stroke="#1e1e1e" stroke-width="2" fill="none"/></g><g transform="translate(423.2743543096991 184.40127021656872) rotate(270 46.9951171875 20.700000000000003)"><text x="46.9951171875" y="33.120703125" font-family="Helvetica, Segoe UI Emoji" font-size="36px" fill="#1e1e1e" text-anchor="middle" style="white-space: pre;" direction="ltr" dominant-baseline="alphabetic">HTTP</text></g><g stroke-opacity="0.4" fill-opacity="0.4" stroke-linecap="round" transform="translate(407.9733392779069 178.07816999951262) rotate(270 122.7803432000751 27.023099872848803)"><path d="M13.51 0 C79.54 0, 145.57 0, 232.05 0 C241.06 0, 245.56 4.5, 245.56 13.51 C245.56 22.2, 245.56 30.89, 245.56 40.53 C245.56 49.54, 241.06 54.05, 232.05 54.05 C151.76 54.05, 71.47 54.05, 13.51 54.05 C4.5 54.05, 0 49.54, 0 40.53 C0 32.59, 0 24.64, 0 13.51 C0 4.5, 4.5 0, 13.51 0" stroke="none" stroke-width="0" fill="#fa5252"/><path d="M13.51 0 C67.1 0, 120.68 0, 232.05 0 M13.51 0 C98.36 0, 183.21 0, 232.05 0 M232.05 0 C241.06 0, 245.56 4.5, 245.56 13.51 M232.05 0 C241.06 0, 245.56 4.5, 245.56 13.51 M245.56 13.51 C245.56 22.53, 245.56 31.54, 245.56 40.53 M245.56 13.51 C245.56 23.97, 245.56 34.43, 245.56 40.53 M245.56 40.53 C245.56 49.54, 241.06 54.05, 232.05 54.05 M245.56 40.53 C245.56 49.54, 241.06 54.05, 232.05 54.05 M232.05 54.05 C155.32 54.05, 78.6 54.05, 13.51 54.05 M232.05 54.05 C187.93 54.05, 143.81 54.05, 13.51 54.05 M13.51 54.05 C4.5 54.05, 0 49.54, 0 40.53 M13.51 54.05 C4.5 54.05, 0 49.54, 0 40.53 M0 40.53 C0 34.27, 0 28, 0 13.51 M0 40.53 C0 30.02, 0 19.5, 0 13.51 M0 13.51 C0 4.5, 4.5 0, 13.51 0 M0 13.51 C0 4.5, 4.5 0, 13.51 0" stroke="#1e1e1e" stroke-width="2" fill="none"/></g><g stroke-opacity="0.4" fill-opacity="0.4" transform="translate(427.737080915482 184.4012698723614) rotate(270 103.0166015625 20.700000000000003)"><text x="103.0166015625" y="33.120703125" font-family="Helvetica, Segoe UI Emoji" font-size="36px" fill="#1e1e1e" text-anchor="middle" style="white-space: pre;" direction="ltr" dominant-baseline="alphabetic">SMTP / POP</text></g><g stroke-opacity="0.4" fill-opacity="0.4" stroke-linecap="round" transform="translate(468.4575506076974 178.0781705101513) rotate(270 122.78034320007521 27.023099872848817)"><path d="M13.51 0 C81.56 0, 149.62 0, 232.05 0 C241.06 0, 245.56 4.5, 245.56 13.51 C245.56 20.76, 245.56 28.02, 245.56 40.53 C245.56 49.54, 241.06 54.05, 232.05 54.05 C180.7 54.05, 129.35 54.05, 13.51 54.05 C4.5 54.05, 0 49.54, 0 40.53 C0 31.65, 0 22.77, 0 13.51 C0 4.5, 4.5 0, 13.51 0" stroke="none" stroke-width="0" fill="#fa5252"/><path d="M13.51 0 C68.25 0, 122.98 0, 232.05 0 M13.51 0 C99.5 0, 185.48 0, 232.05 0 M232.05 0 C241.06 0, 245.56 4.5, 245.56 13.51 M232.05 0 C241.06 0, 245.56 4.5, 245.56 13.51 M245.56 13.51 C245.56 18.95, 245.56 24.39, 245.56 40.53 M245.56 13.51 C245.56 21.49, 245.56 29.47, 245.56 40.53 M245.56 40.53 C245.56 49.54, 241.06 54.05, 232.05 54.05 M245.56 40.53 C245.56 49.54, 241.06 54.05, 232.05 54.05 M232.05 54.05 C149.11 54.05, 66.17 54.05, 13.51 54.05 M232.05 54.05 C174.73 54.05, 117.4 54.05, 13.51 54.05 M13.51 54.05 C4.5 54.05, 0 49.54, 0 40.53 M13.51 54.05 C4.5 54.05, 0 49.54, 0 40.53 M0 40.53 C0 31.22, 0 21.9, 0 13.51 M0 40.53 C0 31.91, 0 23.28, 0 13.51 M0 13.51 C0 4.5, 4.5 0, 13.51 0 M0 13.51 C0 4.5, 4.5 0, 13.51 0" stroke="#1e1e1e" stroke-width="2" fill="none"/></g><g stroke-opacity="0.4" fill-opacity="0.4" transform="translate(554.2271516202726 184.4012703830001) rotate(270 37.0107421875 20.700000000000003)"><text x="37.0107421875" y="33.120703125" font-family="Helvetica, Segoe UI Emoji" font-size="36px" fill="#1e1e1e" text-anchor="middle" style="white-space: pre;" direction="ltr" dominant-baseline="alphabetic">SSH</text></g><g stroke-opacity="0.4" fill-opacity="0.4" stroke-linecap="round" transform="translate(547.7750646630227 177.05507025696397) rotate(270 122.78034320007521 27.02309987284869)"><path d="M13.51 0 C86.6 0, 159.7 0, 232.05 0 C241.06 0, 245.56 4.5, 245.56 13.51 C245.56 22.04, 245.56 30.57, 245.56 40.53 C245.56 49.54, 241.06 54.05, 232.05 54.05 C160.55 54.05, 89.04 54.05, 13.51 54.05 C4.5 54.05, 0 49.54, 0 40.53 C0 32.74, 0 24.95, 0 13.51 C0 4.5, 4.5 0, 13.51 0" stroke="none" stroke-width="0" fill="#fa5252"/><path d="M13.51 0 C65.51 0, 117.51 0, 232.05 0 M13.51 0 C58.15 0, 102.79 0, 232.05 0 M232.05 0 C241.06 0, 245.56 4.5, 245.56 13.51 M232.05 0 C241.06 0, 245.56 4.5, 245.56 13.51 M245.56 13.51 C245.56 19.79, 245.56 26.07, 245.56 40.53 M245.56 13.51 C245.56 21.5, 245.56 29.48, 245.56 40.53 M245.56 40.53 C245.56 49.54, 241.06 54.05, 232.05 54.05 M245.56 40.53 C245.56 49.54, 241.06 54.05, 232.05 54.05 M232.05 54.05 C149.31 54.05, 66.57 54.05, 13.51 54.05 M232.05 54.05 C154.27 54.05, 76.49 54.05, 13.51 54.05 M13.51 54.05 C4.5 54.05, 0 49.54, 0 40.53 M13.51 54.05 C4.5 54.05, 0 49.54, 0 40.53 M0 40.53 C0 33.79, 0 27.05, 0 13.51 M0 40.53 C0 32.66, 0 24.79, 0 13.51 M0 13.51 C0 4.5, 4.5 0, 13.51 0 M0 13.51 C0 4.5, 4.5 0, 13.51 0" stroke="#1e1e1e" stroke-width="2" fill="none"/></g><g stroke-opacity="0.4" fill-opacity="0.4" transform="translate(619.5524781755979 183.37817012981264) rotate(270 51.0029296875 20.700000000000003)"><text x="51.0029296875" y="33.120703125" font-family="Helvetica, Segoe UI Emoji" font-size="36px" fill="#1e1e1e" text-anchor="middle" style="white-space: pre;" direction="ltr" dominant-baseline="alphabetic">DHCP</text></g><g stroke-opacity="0.4" fill-opacity="0.4" stroke-linecap="round" transform="translate(610.5102344247274 178.0781702420718) rotate(270 122.78034320007521 26.00000000000003)"><path d="M13 0 C70.44 0, 127.88 0, 232.56 0 C241.23 0, 245.56 4.33, 245.56 13 C245.56 19.61, 245.56 26.22, 245.56 39 C245.56 47.67, 241.23 52, 232.56 52 C163.87 52, 95.18 52, 13 52 C4.33 52, 0 47.67, 0 39 C0 32.4, 0 25.8, 0 13 C0 4.33, 4.33 0, 13 0" stroke="none" stroke-width="0" fill="#fa5252"/><path d="M13 0 C58.86 0, 104.71 0, 232.56 0 M13 0 C78.12 0, 143.24 0, 232.56 0 M232.56 0 C241.23 0, 245.56 4.33, 245.56 13 M232.56 0 C241.23 0, 245.56 4.33, 245.56 13 M245.56 13 C245.56 22.27, 245.56 31.53, 245.56 39 M245.56 13 C245.56 22.84, 245.56 32.69, 245.56 39 M245.56 39 C245.56 47.67, 241.23 52, 232.56 52 M245.56 39 C245.56 47.67, 241.23 52, 232.56 52 M232.56 52 C151.52 52, 70.47 52, 13 52 M232.56 52 C182.81 52, 133.06 52, 13 52 M13 52 C4.33 52, 0 47.67, 0 39 M13 52 C4.33 52, 0 47.67, 0 39 M0 39 C0 33.28, 0 27.56, 0 13 M0 39 C0 32.77, 0 26.55, 0 13 M0 13 C0 4.33, 4.33 0, 13 0 M0 13 C0 4.33, 4.33 0, 13 0" stroke="#1e1e1e" stroke-width="2" fill="none"/></g><g stroke-opacity="0.4" fill-opacity="0.4" transform="translate(695.2603041873026 183.3781702420718) rotate(270 38.0302734375 20.700000000000003)"><text x="38.0302734375" y="33.120703125" font-family="Helvetica, Segoe UI Emoji" font-size="36px" fill="#1e1e1e" text-anchor="middle" style="white-space: pre;" direction="ltr" dominant-baseline="alphabetic">VoIP</text></g></svg>