<svg version="1.1" xmlns="http://www.w3.org/2000/svg" viewBox="0 0 1074.896318594607 401.75020022772054" width="1074.896318594607" height="401.75020022772054" filter="invert(93%) hue-rotate(180deg)" class="excalidraw-svg">
  <!-- svg-source:excalidraw -->
  
  <defs>
    <style class="style-fonts">
      @font-face {
        font-family: "Virgil";
        src: url("https://excalidraw.com/Virgil.woff2");
      }
      @font-face {
        font-family: "Cascadia";
        src: url("https://excalidraw.com/Cascadia.woff2");
      }
      @font-face {
        font-family: "Assistant";
        src: url("https://excalidraw.com/Assistant-Regular.woff2");
      }
    </style>
    
  </defs>
  <g stroke-linecap="round" transform="translate(10.00000045110221 10.000000474469132) rotate(0 191.33337402343747 108.5)"><path d="M32 0 C133.36 0, 234.71 0, 350.67 0 C372 0, 382.67 10.67, 382.67 32 C382.67 81.09, 382.67 130.18, 382.67 185 C382.67 206.33, 372 217, 350.67 217 C242.45 217, 134.23 217, 32 217 C10.67 217, 0 206.33, 0 185 C0 138.72, 0 92.44, 0 32 C0 10.67, 10.67 0, 32 0" stroke="none" stroke-width="0" fill="#ff9e01"/><path d="M32 0 C147.37 0, 262.74 0, 350.67 0 M32 0 C97.26 0, 162.52 0, 350.67 0 M350.67 0 C372 0, 382.67 10.67, 382.67 32 M350.67 0 C372 0, 382.67 10.67, 382.67 32 M382.67 32 C382.67 78.1, 382.67 124.2, 382.67 185 M382.67 32 C382.67 89.57, 382.67 147.14, 382.67 185 M382.67 185 C382.67 206.33, 372 217, 350.67 217 M382.67 185 C382.67 206.33, 372 217, 350.67 217 M350.67 217 C253.54 217, 156.42 217, 32 217 M350.67 217 C275.23 217, 199.79 217, 32 217 M32 217 C10.67 217, 0 206.33, 0 185 M32 217 C10.67 217, 0 206.33, 0 185 M0 185 C0 153.38, 0 121.76, 0 32 M0 185 C0 152.22, 0 119.44, 0 32 M0 32 C0 10.67, 10.67 0, 32 0 M0 32 C0 10.67, 10.67 0, 32 0" stroke="#1e1e1e" stroke-width="2" fill="none"/></g><g transform="translate(140.2933354120397 97.80000047446913) rotate(0 61.0400390625 20.7)"><text x="61.0400390625" y="33.120703125" font-family="Helvetica, Segoe UI Emoji" font-size="36px" fill="#1e1e1e" text-anchor="middle" style="white-space: pre;" direction="ltr" dominant-baseline="alphabetic">Internet</text></g><g stroke-linecap="round" transform="translate(10 246.75020049920096) rotate(0 191.33337402343747 69.40868596072804)"><path d="M32 0 C136.32 0, 240.64 0, 350.67 0 C372 0, 382.67 10.67, 382.67 32 C382.67 61.82, 382.67 91.63, 382.67 106.82 C382.67 128.15, 372 138.82, 350.67 138.82 C252.87 138.82, 155.07 138.82, 32 138.82 C10.67 138.82, 0 128.15, 0 106.82 C0 89.53, 0 72.25, 0 32 C0 10.67, 10.67 0, 32 0" stroke="none" stroke-width="0" fill="#d050a5"/><path d="M32 0 C133.93 0, 235.86 0, 350.67 0 M32 0 C149.36 0, 266.72 0, 350.67 0 M350.67 0 C372 0, 382.67 10.67, 382.67 32 M350.67 0 C372 0, 382.67 10.67, 382.67 32 M382.67 32 C382.67 50.21, 382.67 68.42, 382.67 106.82 M382.67 32 C382.67 54.39, 382.67 76.77, 382.67 106.82 M382.67 106.82 C382.67 128.15, 372 138.82, 350.67 138.82 M382.67 106.82 C382.67 128.15, 372 138.82, 350.67 138.82 M350.67 138.82 C258.83 138.82, 166.98 138.82, 32 138.82 M350.67 138.82 C253.62 138.82, 156.57 138.82, 32 138.82 M32 138.82 C10.67 138.82, 0 128.15, 0 106.82 M32 138.82 C10.67 138.82, 0 128.15, 0 106.82 M0 106.82 C0 87.16, 0 67.5, 0 32 M0 106.82 C0 88.06, 0 69.31, 0 32 M0 32 C0 10.67, 10.67 0, 32 0 M0 32 C0 10.67, 10.67 0, 32 0" stroke="#1e1e1e" stroke-width="2" fill="none"/></g><g transform="translate(105.2689208984375 295.458886459929) rotate(0 96.064453125 20.700000000000003)"><text x="96.064453125" y="33.120703125" font-family="Helvetica, Segoe UI Emoji" font-size="36px" fill="#1e1e1e" text-anchor="middle" style="white-space: pre;" direction="ltr" dominant-baseline="alphabetic">Netzzugang</text></g><g stroke-linecap="round" transform="translate(561.4295214091238 10) rotate(0 251.7333985927416 108.5)"><path d="M32 0 C130.13 0, 228.27 0, 471.47 0 C492.8 0, 503.47 10.67, 503.47 32 C503.47 87.41, 503.47 142.81, 503.47 185 C503.47 206.33, 492.8 217, 471.47 217 C340.6 217, 209.73 217, 32 217 C10.67 217, 0 206.33, 0 185 C0 142.81, 0 100.62, 0 32 C0 10.67, 10.67 0, 32 0" stroke="none" stroke-width="0" fill="#ff9e01"/><path d="M32 0 C123.86 0, 215.72 0, 471.47 0 M32 0 C181.45 0, 330.9 0, 471.47 0 M471.47 0 C492.8 0, 503.47 10.67, 503.47 32 M471.47 0 C492.8 0, 503.47 10.67, 503.47 32 M503.47 32 C503.47 90.88, 503.47 149.77, 503.47 185 M503.47 32 C503.47 71.73, 503.47 111.47, 503.47 185 M503.47 185 C503.47 206.33, 492.8 217, 471.47 217 M503.47 185 C503.47 206.33, 492.8 217, 471.47 217 M471.47 217 C380.21 217, 288.96 217, 32 217 M471.47 217 C300.13 217, 128.8 217, 32 217 M32 217 C10.67 217, 0 206.33, 0 185 M32 217 C10.67 217, 0 206.33, 0 185 M0 185 C0 141.13, 0 97.26, 0 32 M0 185 C0 152.56, 0 120.11, 0 32 M0 32 C0 10.67, 10.67 0, 32 0 M0 32 C0 10.67, 10.67 0, 32 0" stroke="#1e1e1e" stroke-width="2" fill="none"/></g><g transform="translate(646.0301075018654 15) rotate(0 167.1328125 103.5)"><text x="167.1328125" y="33.120703125" font-family="Helvetica, Segoe UI Emoji" font-size="36px" fill="#1e1e1e" text-anchor="middle" style="white-space: pre;" direction="ltr" dominant-baseline="alphabetic">Quelle: 192.168.0.10</text><text x="167.1328125" y="74.520703125" font-family="Helvetica, Segoe UI Emoji" font-size="36px" fill="#1e1e1e" text-anchor="middle" style="white-space: pre;" direction="ltr" dominant-baseline="alphabetic">Ziel: 192.168.0.12</text><text x="167.1328125" y="115.92070312499999" font-family="Helvetica, Segoe UI Emoji" font-size="36px" fill="#1e1e1e" text-anchor="middle" style="white-space: pre;" direction="ltr" dominant-baseline="alphabetic"/><text x="167.1328125" y="157.320703125" font-family="Helvetica, Segoe UI Emoji" font-size="36px" fill="#1e1e1e" text-anchor="middle" style="white-space: pre;" direction="ltr" dominant-baseline="alphabetic">Hallo, was ist deine </text><text x="167.1328125" y="198.720703125" font-family="Helvetica, Segoe UI Emoji" font-size="36px" fill="#1e1e1e" text-anchor="middle" style="white-space: pre;" direction="ltr" dominant-baseline="alphabetic">MAC-Adresse?</text></g><g stroke-linecap="round" transform="translate(561.4295216996353 246.75020022772054) rotate(0 251.73339844748585 72.5)"><path d="M32 0 C124.08 0, 216.15 0, 471.47 0 C492.8 0, 503.47 10.67, 503.47 32 C503.47 64.07, 503.47 96.14, 503.47 113 C503.47 134.33, 492.8 145, 471.47 145 C383.12 145, 294.78 145, 32 145 C10.67 145, 0 134.33, 0 113 C0 94.5, 0 76, 0 32 C0 10.67, 10.67 0, 32 0" stroke="none" stroke-width="0" fill="#d050a5"/><path d="M32 0 C187.9 0, 343.8 0, 471.47 0 M32 0 C141.69 0, 251.39 0, 471.47 0 M471.47 0 C492.8 0, 503.47 10.67, 503.47 32 M471.47 0 C492.8 0, 503.47 10.67, 503.47 32 M503.47 32 C503.47 49.5, 503.47 67.01, 503.47 113 M503.47 32 C503.47 57.44, 503.47 82.88, 503.47 113 M503.47 113 C503.47 134.33, 492.8 145, 471.47 145 M503.47 113 C503.47 134.33, 492.8 145, 471.47 145 M471.47 145 C318.15 145, 164.83 145, 32 145 M471.47 145 C330.89 145, 190.31 145, 32 145 M32 145 C10.67 145, 0 134.33, 0 113 M32 145 C10.67 145, 0 134.33, 0 113 M0 113 C0 87.91, 0 62.83, 0 32 M0 113 C0 85.06, 0 57.11, 0 32 M0 32 C0 10.67, 10.67 0, 32 0 M0 32 C0 10.67, 10.67 0, 32 0" stroke="#1e1e1e" stroke-width="2" fill="none"/></g><g transform="translate(568.3435842096212 277.8502002277205) rotate(0 244.81933593750003 41.39999999999999)"><text x="244.8193359375" y="33.120703125" font-family="Helvetica, Segoe UI Emoji" font-size="36px" fill="#1e1e1e" text-anchor="middle" style="white-space: pre;" direction="ltr" dominant-baseline="alphabetic">Quelle: z.B. 04:24:F1:02:A7:11</text><text x="244.8193359375" y="74.520703125" font-family="Helvetica, Segoe UI Emoji" font-size="36px" fill="#1e1e1e" text-anchor="middle" style="white-space: pre;" direction="ltr" dominant-baseline="alphabetic">Ziel: FF:FF:FF:FF:FF:FF</text></g><g stroke-linecap="round" transform="translate(416.28772285780747 10.000000474469132) rotate(0 60.76041170566911 108.50000007174624)"><path d="M30.38 0 C42.56 0, 54.74 0, 91.14 0 C111.39 0, 121.52 10.13, 121.52 30.38 C121.52 82.75, 121.52 135.11, 121.52 186.62 C121.52 206.87, 111.39 217, 91.14 217 C68.81 217, 46.49 217, 30.38 217 C10.13 217, 0 206.87, 0 186.62 C0 130.64, 0 74.67, 0 30.38 C0 10.13, 10.13 0, 30.38 0" stroke="none" stroke-width="0" fill="#ff9e01"/><path d="M30.38 0 C52.07 0, 73.76 0, 91.14 0 M30.38 0 C44.35 0, 58.33 0, 91.14 0 M91.14 0 C111.39 0, 121.52 10.13, 121.52 30.38 M91.14 0 C111.39 0, 121.52 10.13, 121.52 30.38 M121.52 30.38 C121.52 69.72, 121.52 109.05, 121.52 186.62 M121.52 30.38 C121.52 63.09, 121.52 95.8, 121.52 186.62 M121.52 186.62 C121.52 206.87, 111.39 217, 91.14 217 M121.52 186.62 C121.52 206.87, 111.39 217, 91.14 217 M91.14 217 C76.72 217, 62.3 217, 30.38 217 M91.14 217 C68.42 217, 45.71 217, 30.38 217 M30.38 217 C10.13 217, 0 206.87, 0 186.62 M30.38 217 C10.13 217, 0 206.87, 0 186.62 M0 186.62 C0 133.6, 0 80.58, 0 30.38 M0 186.62 C0 135.68, 0 84.73, 0 30.38 M0 30.38 C0 10.13, 10.13 0, 30.38 0 M0 30.38 C0 10.13, 10.13 0, 30.38 0" stroke="#1e1e1e" stroke-width="2" fill="none"/></g><g transform="translate(440.0373923759766 97.80000054621537) rotate(0 37.0107421875 20.7)"><text x="37.0107421875" y="33.120703125" font-family="Helvetica, Segoe UI Emoji" font-size="36px" fill="#1e1e1e" text-anchor="middle" style="white-space: pre;" direction="ltr" dominant-baseline="alphabetic">ARP</text></g><g stroke-linecap="round" transform="translate(416.28772240670526 246.75020064269336) rotate(0 60.76041201952356 69.40868596072806)"><path d="M30.38 0 C53.2 0, 76.01 0, 91.14 0 C111.39 0, 121.52 10.13, 121.52 30.38 C121.52 50.56, 121.52 70.73, 121.52 108.44 C121.52 128.69, 111.39 138.82, 91.14 138.82 C74.39 138.82, 57.65 138.82, 30.38 138.82 C10.13 138.82, 0 128.69, 0 108.44 C0 88.28, 0 68.13, 0 30.38 C0 10.13, 10.13 0, 30.38 0" stroke="none" stroke-width="0" fill="#d050a5"/><path d="M30.38 0 C42.8 0, 55.21 0, 91.14 0 M30.38 0 C52.79 0, 75.21 0, 91.14 0 M91.14 0 C111.39 0, 121.52 10.13, 121.52 30.38 M91.14 0 C111.39 0, 121.52 10.13, 121.52 30.38 M121.52 30.38 C121.52 47.31, 121.52 64.24, 121.52 108.44 M121.52 30.38 C121.52 57.81, 121.52 85.25, 121.52 108.44 M121.52 108.44 C121.52 128.69, 111.39 138.82, 91.14 138.82 M121.52 108.44 C121.52 128.69, 111.39 138.82, 91.14 138.82 M91.14 138.82 C71.9 138.82, 52.66 138.82, 30.38 138.82 M91.14 138.82 C71.46 138.82, 51.77 138.82, 30.38 138.82 M30.38 138.82 C10.13 138.82, 0 128.69, 0 108.44 M30.38 138.82 C10.13 138.82, 0 128.69, 0 108.44 M0 108.44 C0 83.65, 0 58.86, 0 30.38 M0 108.44 C0 85.95, 0 63.46, 0 30.38 M0 30.38 C0 10.13, 10.13 0, 30.38 0 M0 30.38 C0 10.13, 10.13 0, 30.38 0" stroke="#1e1e1e" stroke-width="2" fill="none"/></g><g transform="translate(425.0432516137288 295.4588866034214) rotate(0 52.0048828125 20.700000000000003)"><text x="52.0048828125" y="33.120703125" font-family="Helvetica, Segoe UI Emoji" font-size="36px" fill="#1e1e1e" text-anchor="middle" style="white-space: pre;" direction="ltr" dominant-baseline="alphabetic">WLAN</text></g></svg>