<svg version="1.1" xmlns="http://www.w3.org/2000/svg" viewBox="0 0 1649.111308517914 599.336845768167" width="1649.111308517914" height="599.336845768167" class="excalidraw-svg">
  <!-- svg-source:excalidraw -->
  
  <defs>
    <style class="style-fonts">
      @font-face {
        font-family: "Virgil";
        src: url("https://excalidraw.com/Virgil.woff2");
      }
      @font-face {
        font-family: "Cascadia";
        src: url("https://excalidraw.com/Cascadia.woff2");
      }
      @font-face {
        font-family: "Assistant";
        src: url("https://excalidraw.com/Assistant-Regular.woff2");
      }
    </style>
    
  </defs>
  <g stroke-linecap="round" transform="translate(940.9866806605277 242.0035317681669) rotate(0 45.33337402343753 173.6666565)"><path d="M22.67 0 C33.52 0, 44.37 0, 68 0 C83.11 0, 90.67 7.56, 90.67 22.67 C90.67 120.92, 90.67 219.18, 90.67 324.67 C90.67 339.78, 83.11 347.33, 68 347.33 C55.67 347.33, 43.34 347.33, 22.67 347.33 C7.56 347.33, 0 339.78, 0 324.67 C0 264.03, 0 203.4, 0 22.67 C0 7.56, 7.56 0, 22.67 0" stroke="none" stroke-width="0" fill="#b2f2bb"/><path d="M22.67 0 C39.06 0, 55.44 0, 68 0 M22.67 0 C38.18 0, 53.69 0, 68 0 M68 0 C83.11 0, 90.67 7.56, 90.67 22.67 M68 0 C83.11 0, 90.67 7.56, 90.67 22.67 M90.67 22.67 C90.67 121.22, 90.67 219.77, 90.67 324.67 M90.67 22.67 C90.67 111.81, 90.67 200.96, 90.67 324.67 M90.67 324.67 C90.67 339.78, 83.11 347.33, 68 347.33 M90.67 324.67 C90.67 339.78, 83.11 347.33, 68 347.33 M68 347.33 C52.17 347.33, 36.34 347.33, 22.67 347.33 M68 347.33 C51.27 347.33, 34.55 347.33, 22.67 347.33 M22.67 347.33 C7.56 347.33, 0 339.78, 0 324.67 M22.67 347.33 C7.56 347.33, 0 339.78, 0 324.67 M0 324.67 C0 207.35, 0 90.03, 0 22.67 M0 324.67 C0 248.7, 0 172.73, 0 22.67 M0 22.67 C0 7.56, 7.56 0, 22.67 0 M0 22.67 C0 7.56, 7.56 0, 22.67 0" stroke="#1e1e1e" stroke-width="1" fill="none"/></g><g stroke-linecap="round" transform="translate(589.3201156956839 241.51144985984263) rotate(0 166.33337402343753 173.91269795416213)"><path d="M32 0 C121.08 0, 210.16 0, 300.67 0 C322 0, 332.67 10.67, 332.67 32 C332.67 110.31, 332.67 188.63, 332.67 315.83 C332.67 337.16, 322 347.83, 300.67 347.83 C226.15 347.83, 151.64 347.83, 32 347.83 C10.67 347.83, 0 337.16, 0 315.83 C0 205.89, 0 95.96, 0 32 C0 10.67, 10.67 0, 32 0" stroke="none" stroke-width="0" fill="#ffec99"/><path d="M32 0 C86.44 0, 140.88 0, 300.67 0 M32 0 C115.07 0, 198.14 0, 300.67 0 M300.67 0 C322 0, 332.67 10.67, 332.67 32 M300.67 0 C322 0, 332.67 10.67, 332.67 32 M332.67 32 C332.67 119.3, 332.67 206.6, 332.67 315.83 M332.67 32 C332.67 143.32, 332.67 254.65, 332.67 315.83 M332.67 315.83 C332.67 337.16, 322 347.83, 300.67 347.83 M332.67 315.83 C332.67 337.16, 322 347.83, 300.67 347.83 M300.67 347.83 C244.41 347.83, 188.15 347.83, 32 347.83 M300.67 347.83 C200.96 347.83, 101.25 347.83, 32 347.83 M32 347.83 C10.67 347.83, 0 337.16, 0 315.83 M32 347.83 C10.67 347.83, 0 337.16, 0 315.83 M0 315.83 C0 251.21, 0 186.59, 0 32 M0 315.83 C0 233.13, 0 150.43, 0 32 M0 32 C0 10.67, 10.67 0, 32 0 M0 32 C0 10.67, 10.67 0, 32 0" stroke="#1e1e1e" stroke-width="1" fill="none"/></g><g transform="translate(596.6534897191215 254.0035317681669) rotate(0 212.79745483398438 167.6666564941404)"><text x="0" y="67.06808639738861" font-family="Helvetica, Segoe UI Emoji" font-size="72.89854630180018px" fill="#1e1e1e" text-anchor="start" style="white-space: pre;" direction="ltr" dominant-baseline="alphabetic">192.168.1.1</text><text x="0" y="150.9014146444588" font-family="Helvetica, Segoe UI Emoji" font-size="72.89854630180018px" fill="#1e1e1e" text-anchor="start" style="white-space: pre;" direction="ltr" dominant-baseline="alphabetic">192.168.1.12</text><text x="0" y="234.734742891529" font-family="Helvetica, Segoe UI Emoji" font-size="72.89854630180018px" fill="#1e1e1e" text-anchor="start" style="white-space: pre;" direction="ltr" dominant-baseline="alphabetic">192.168.1.33</text><text x="0" y="318.5680711385992" font-family="Helvetica, Segoe UI Emoji" font-size="72.89854630180018px" fill="#1e1e1e" text-anchor="start" style="white-space: pre;" direction="ltr" dominant-baseline="alphabetic">192.168.2.54</text></g><g transform="translate(657.6290756956839 180.4701877681669) rotate(0 98.0244140625 20.69999999999999)"><text x="0" y="33.120703125" font-family="Helvetica, Segoe UI Emoji" font-size="36px" fill="#f08c00" text-anchor="start" style="white-space: pre;" direction="ltr" dominant-baseline="alphabetic">Netzwerkteil</text></g><g transform="translate(929.2996689183402 180.47018826230754) rotate(0 60.0205078125 20.69999999999999)"><text x="0" y="33.120703125" font-family="Helvetica, Segoe UI Emoji" font-size="36px" fill="#2f9e44" text-anchor="start" style="white-space: pre;" direction="ltr" dominant-baseline="alphabetic">Hostteil</text></g><g transform="translate(602.9295121625629 102.22577264002018) rotate(0 161.13092041015625 33.323898804896146)"><text x="0" y="53.319370013744326" font-family="Helvetica, Segoe UI Emoji" font-size="57.95460661721069px" fill="#f08c00" text-anchor="start" style="white-space: pre;" direction="ltr" dominant-baseline="alphabetic">255.255.255</text></g><g transform="translate(10.000000644017518 100.55913149929523) rotate(0 177.17471313476562 33.323898804896146)"><text x="0" y="53.319370013744326" font-family="Helvetica, Segoe UI Emoji" font-size="57.95460661721069px" fill="#1e1e1e" text-anchor="start" style="white-space: pre;" direction="ltr" dominant-baseline="alphabetic">Subnetmaske</text></g><g transform="translate(10.000000644017518 375.3739915253371) rotate(0 215.770263671875 33.323898804896146)"><text x="0" y="53.319370013744326" font-family="Helvetica, Segoe UI Emoji" font-size="57.95460661721069px" fill="#1e1e1e" text-anchor="start" style="white-space: pre;" direction="ltr" dominant-baseline="alphabetic">Ziel-IP-Adressen</text></g><g transform="translate(970.2055449622494 102.22577317160807) rotate(0 16.11450958251953 33.323898804896146)"><text x="0" y="53.319370013744326" font-family="Helvetica, Segoe UI Emoji" font-size="57.95460661721069px" fill="#2f9e44" text-anchor="start" style="white-space: pre;" direction="ltr" dominant-baseline="alphabetic">0</text></g><g transform="translate(925.1913532561948 102.22577193625648) rotate(0 8.050178527832031 33.323898804896146)"><text x="0" y="53.319370013744326" font-family="Helvetica, Segoe UI Emoji" font-size="57.95460661721069px" fill="#1e1e1e" text-anchor="start" style="white-space: pre;" direction="ltr" dominant-baseline="alphabetic">.</text></g><g stroke-linecap="round" transform="translate(1489.007901630528 242.00353259639786) rotate(0 75.05170344369293 173.6666565)"><path d="M32 0 C61.71 0, 91.43 0, 118.1 0 C139.44 0, 150.1 10.67, 150.1 32 C150.1 116.68, 150.1 201.37, 150.1 315.33 C150.1 336.67, 139.44 347.33, 118.1 347.33 C96.57 347.33, 75.04 347.33, 32 347.33 C10.67 347.33, 0 336.67, 0 315.33 C0 247.68, 0 180.02, 0 32 C0 10.67, 10.67 0, 32 0" stroke="none" stroke-width="0" fill="#b2f2bb"/><path d="M32 0 C51.37 0, 70.73 0, 118.1 0 M32 0 C66.11 0, 100.23 0, 118.1 0 M118.1 0 C139.44 0, 150.1 10.67, 150.1 32 M118.1 0 C139.44 0, 150.1 10.67, 150.1 32 M150.1 32 C150.1 142.46, 150.1 252.92, 150.1 315.33 M150.1 32 C150.1 94.55, 150.1 157.1, 150.1 315.33 M150.1 315.33 C150.1 336.67, 139.44 347.33, 118.1 347.33 M150.1 315.33 C150.1 336.67, 139.44 347.33, 118.1 347.33 M118.1 347.33 C93.07 347.33, 68.04 347.33, 32 347.33 M118.1 347.33 C86.14 347.33, 54.17 347.33, 32 347.33 M32 347.33 C10.67 347.33, 0 336.67, 0 315.33 M32 347.33 C10.67 347.33, 0 336.67, 0 315.33 M0 315.33 C0 226.91, 0 138.48, 0 32 M0 315.33 C0 206.97, 0 98.61, 0 32 M0 32 C0 10.67, 10.67 0, 32 0 M0 32 C0 10.67, 10.67 0, 32 0" stroke="#1e1e1e" stroke-width="1" fill="none"/></g><g stroke-linecap="round" transform="translate(1196.777995506195 242.00353259639786) rotate(0 136.97314020908095 173.66665658588454)"><path d="M32 0 C100.67 0, 169.34 0, 241.95 0 C263.28 0, 273.95 10.67, 273.95 32 C273.95 132.81, 273.95 233.61, 273.95 315.33 C273.95 336.67, 263.28 347.33, 241.95 347.33 C165.97 347.33, 90 347.33, 32 347.33 C10.67 347.33, 0 336.67, 0 315.33 C0 217.89, 0 120.45, 0 32 C0 10.67, 10.67 0, 32 0" stroke="none" stroke-width="0" fill="#ffec99"/><path d="M32 0 C83.22 0, 134.45 0, 241.95 0 M32 0 C100.23 0, 168.45 0, 241.95 0 M241.95 0 C263.28 0, 273.95 10.67, 273.95 32 M241.95 0 C263.28 0, 273.95 10.67, 273.95 32 M273.95 32 C273.95 120.13, 273.95 208.25, 273.95 315.33 M273.95 32 C273.95 127.45, 273.95 222.91, 273.95 315.33 M273.95 315.33 C273.95 336.67, 263.28 347.33, 241.95 347.33 M273.95 315.33 C273.95 336.67, 263.28 347.33, 241.95 347.33 M241.95 347.33 C193.96 347.33, 145.97 347.33, 32 347.33 M241.95 347.33 C169.89 347.33, 97.84 347.33, 32 347.33 M32 347.33 C10.67 347.33, 0 336.67, 0 315.33 M32 347.33 C10.67 347.33, 0 336.67, 0 315.33 M0 315.33 C0 244.2, 0 173.06, 0 32 M0 315.33 C0 204.83, 0 94.32, 0 32 M0 32 C0 10.67, 10.67 0, 32 0 M0 32 C0 10.67, 10.67 0, 32 0" stroke="#1e1e1e" stroke-width="1" fill="none"/></g><g transform="translate(1204.1113695296326 254.00353259639786) rotate(0 212.79745483398435 167.6666564941404)"><text x="0" y="67.06808639738861" font-family="Helvetica, Segoe UI Emoji" font-size="72.89854630180018px" fill="#1e1e1e" text-anchor="start" style="white-space: pre;" direction="ltr" dominant-baseline="alphabetic">192.168.1.1</text><text x="0" y="150.9014146444588" font-family="Helvetica, Segoe UI Emoji" font-size="72.89854630180018px" fill="#1e1e1e" text-anchor="start" style="white-space: pre;" direction="ltr" dominant-baseline="alphabetic">192.168.1.12</text><text x="0" y="234.734742891529" font-family="Helvetica, Segoe UI Emoji" font-size="72.89854630180018px" fill="#1e1e1e" text-anchor="start" style="white-space: pre;" direction="ltr" dominant-baseline="alphabetic">192.168.1.33</text><text x="0" y="318.5680711385992" font-family="Helvetica, Segoe UI Emoji" font-size="72.89854630180018px" fill="#1e1e1e" text-anchor="start" style="white-space: pre;" direction="ltr" dominant-baseline="alphabetic">192.168.2.54</text></g><g transform="translate(1242.439543506195 180.47018759639786) rotate(0 98.0244140625 20.69999999999999)"><text x="0" y="33.120703125" font-family="Helvetica, Segoe UI Emoji" font-size="36px" fill="#f08c00" text-anchor="start" style="white-space: pre;" direction="ltr" dominant-baseline="alphabetic">Netzwerkteil</text></g><g transform="translate(1509.6652637288514 180.47018809053844) rotate(0 60.0205078125 20.69999999999999)"><text x="0" y="33.120703125" font-family="Helvetica, Segoe UI Emoji" font-size="36px" fill="#2f9e44" text-anchor="start" style="white-space: pre;" direction="ltr" dominant-baseline="alphabetic">Hostteil</text></g><g transform="translate(1209.720576973074 100.55913146825117) rotate(0 120.83759307861328 33.323898804896146)"><text x="0" y="53.319370013744326" font-family="Helvetica, Segoe UI Emoji" font-size="57.95460661721069px" fill="#f08c00" text-anchor="start" style="white-space: pre;" direction="ltr" dominant-baseline="alphabetic">255 . 255</text></g><g transform="translate(1513.3062167727603 102.22577199983897) rotate(0 56.379554748535156 33.323898804896146)"><text x="0" y="53.319370013744326" font-family="Helvetica, Segoe UI Emoji" font-size="57.95460661721069px" fill="#2f9e44" text-anchor="start" style="white-space: pre;" direction="ltr" dominant-baseline="alphabetic">0 . 0</text></g><g transform="translate(1470.724276066706 102.22577176448749) rotate(0 8.050178527832031 33.323898804896146)"><text x="0" y="53.319370013744326" font-family="Helvetica, Segoe UI Emoji" font-size="57.95460661721069px" fill="#1e1e1e" text-anchor="start" style="white-space: pre;" direction="ltr" dominant-baseline="alphabetic">.</text></g><g transform="translate(524.396072962388 340.5378348268757) rotate(0 17.961956992034004 -43.25638476993629)" stroke="none"><path fill="#2f9e44" d="M -0.40,-36.62 Q -0.40,-36.62 1.00,-36.92 2.41,-37.22 3.60,-36.06 4.79,-34.91 5.80,-33.43 6.82,-31.95 7.64,-30.49 8.46,-29.03 9.07,-27.86 9.69,-26.70 10.48,-25.06 11.27,-23.42 11.39,-23.20 11.52,-22.99 11.62,-22.59 11.71,-22.19 11.71,-21.78 11.71,-21.37 11.61,-20.97 11.51,-20.57 11.32,-20.21 11.12,-19.85 10.85,-19.54 10.58,-19.23 10.24,-19.00 9.90,-18.77 9.51,-18.63 9.13,-18.48 8.72,-18.44 8.32,-18.39 7.91,-18.44 7.50,-18.49 7.12,-18.64 6.74,-18.79 6.40,-19.02 6.06,-19.26 5.79,-19.56 5.52,-19.87 5.33,-20.24 5.14,-20.60 5.59,-22.44 6.04,-24.29 6.53,-26.35 7.02,-28.42 8.97,-32.50 10.91,-36.57 15.23,-42.62 19.55,-48.66 23.64,-53.19 27.74,-57.71 30.58,-60.05 33.42,-62.39 34.49,-63.50 35.56,-64.61 35.73,-64.74 35.89,-64.88 36.08,-64.96 36.28,-65.04 36.49,-65.05 36.70,-65.07 36.91,-65.01 37.11,-64.96 37.29,-64.84 37.47,-64.72 37.60,-64.55 37.73,-64.38 37.80,-64.18 37.86,-63.98 37.87,-63.77 37.87,-63.56 37.80,-63.35 37.73,-63.15 37.61,-62.98 37.48,-62.81 37.30,-62.69 37.13,-62.57 36.92,-62.51 36.72,-62.46 36.51,-62.47 36.30,-62.48 36.10,-62.55 35.90,-62.63 35.74,-62.77 35.57,-62.91 35.46,-63.09 35.35,-63.27 35.31,-63.48 35.26,-63.68 35.28,-63.89 35.30,-64.11 35.39,-64.30 35.48,-64.49 35.62,-64.65 35.77,-64.80 35.96,-64.90 36.14,-65.00 36.35,-65.04 36.56,-65.07 36.77,-65.04 36.98,-65.01 37.17,-64.91 37.36,-64.81 37.51,-64.66 37.65,-64.50 37.74,-64.31 37.83,-64.12 37.86,-63.91 37.88,-63.70 37.84,-63.49 37.79,-63.28 37.68,-63.10 37.58,-62.92 37.58,-62.92 37.58,-62.92 36.67,-61.67 35.77,-60.42 33.95,-57.21 32.14,-54.00 28.56,-49.41 24.97,-44.81 21.03,-39.21 17.10,-33.60 15.33,-29.91 13.57,-26.21 12.78,-23.89 12.00,-21.57 11.42,-20.54 10.85,-19.50 11.18,-21.24 11.52,-22.99 11.62,-22.59 11.71,-22.19 11.71,-21.78 11.71,-21.37 11.61,-20.97 11.51,-20.57 11.32,-20.21 11.12,-19.85 10.85,-19.54 10.58,-19.23 10.24,-19.00 9.90,-18.77 9.52,-18.63 9.13,-18.48 8.72,-18.44 8.32,-18.39 7.91,-18.44 7.50,-18.49 7.12,-18.64 6.74,-18.79 6.40,-19.02 6.06,-19.26 5.79,-19.56 5.52,-19.87 5.33,-20.24 5.14,-20.60 5.01,-20.80 4.87,-21.00 4.26,-22.25 3.65,-23.49 3.06,-24.59 2.48,-25.69 1.78,-26.94 1.08,-28.20 -0.14,-29.89 -1.37,-31.58 -1.62,-32.99 -1.88,-34.40 -2.00,-34.51 -2.12,-34.61 -2.22,-34.74 -2.31,-34.87 -2.37,-35.02 -2.43,-35.17 -2.45,-35.33 -2.47,-35.49 -2.46,-35.65 -2.44,-35.81 -2.38,-35.96 -2.33,-36.11 -2.24,-36.25 -2.15,-36.38 -2.03,-36.49 -1.91,-36.60 -1.77,-36.67 -1.63,-36.75 -1.48,-36.79 -1.32,-36.83 -1.16,-36.83 -1.00,-36.84 -0.84,-36.80 -0.69,-36.76 -0.55,-36.69 -0.40,-36.62 -0.40,-36.62 L -0.40,-36.62 Z"/></g><g transform="translate(567.7160157569818 516.9874570096216) rotate(0 -25.357985802559938 25.88639103651201)" stroke="none"><path fill="#e03131" d="M 1.02,1.28 Q 1.02,1.28 -0.00,3.10 -1.03,4.92 -4.24,8.34 -7.46,11.75 -12.22,16.90 -16.98,22.04 -22.41,27.33 -27.84,32.62 -32.22,37.21 -36.60,41.79 -40.09,45.44 -43.58,49.09 -46.68,50.93 -49.78,52.77 -49.96,52.89 -50.13,53.01 -50.34,53.06 -50.54,53.12 -50.76,53.10 -50.97,53.09 -51.16,53.01 -51.36,52.93 -51.52,52.79 -51.68,52.65 -51.79,52.46 -51.90,52.28 -51.94,52.07 -51.98,51.87 -51.96,51.65 -51.93,51.44 -51.84,51.25 -51.75,51.06 -51.60,50.91 -51.45,50.75 -51.26,50.66 -51.08,50.56 -50.87,50.53 -50.66,50.50 -50.45,50.53 -50.24,50.57 -50.05,50.67 -49.86,50.77 -49.72,50.93 -49.58,51.09 -49.49,51.28 -49.40,51.47 -49.38,51.69 -49.36,51.90 -49.41,52.10 -49.46,52.31 -49.57,52.49 -49.68,52.67 -49.84,52.81 -50.01,52.94 -50.21,53.02 -50.40,53.10 -50.62,53.10 -50.83,53.11 -51.03,53.05 -51.24,52.99 -51.41,52.87 -51.59,52.75 -51.71,52.58 -51.84,52.41 -51.90,52.21 -51.97,52.01 -51.97,51.79 -51.96,51.58 -51.89,51.38 -51.82,51.18 -51.69,51.01 -51.56,50.85 -51.56,50.85 -51.56,50.85 -49.68,48.08 -47.81,45.32 -44.51,41.37 -41.22,37.42 -36.78,32.70 -32.34,27.99 -27.03,22.82 -21.72,17.65 -16.92,12.48 -12.13,7.31 -8.58,3.62 -5.04,-0.06 -3.03,-0.67 -1.02,-1.28 -0.85,-1.39 -0.69,-1.49 -0.50,-1.55 -0.31,-1.61 -0.11,-1.63 0.08,-1.64 0.27,-1.61 0.47,-1.57 0.65,-1.49 0.83,-1.41 0.99,-1.29 1.15,-1.17 1.27,-1.02 1.40,-0.86 1.48,-0.68 1.56,-0.50 1.60,-0.31 1.64,-0.11 1.63,0.08 1.62,0.28 1.56,0.47 1.50,0.66 1.40,0.83 1.30,1.00 1.16,1.14 1.02,1.28 1.02,1.28 L 1.02,1.28 Z"/></g><g transform="translate(518.0565644200949 526.496719823061) rotate(0 24.30146553432695 20.075142628335584)" stroke="none"><path fill="#e03131" d="M -1.26,0.50 Q -1.26,0.50 -2.31,-0.82 -3.37,-2.15 -4.01,-2.34 -4.66,-2.54 -4.76,-2.91 -4.86,-3.28 -4.86,-3.66 -4.87,-4.04 -4.79,-4.41 -4.70,-4.78 -4.53,-5.12 -4.36,-5.46 -4.11,-5.75 -3.86,-6.04 -3.56,-6.27 -3.25,-6.49 -2.89,-6.63 -2.54,-6.77 -2.16,-6.82 -1.78,-6.88 -1.40,-6.84 -1.03,-6.80 -0.67,-6.67 -0.31,-6.54 0.00,-6.33 0.32,-6.12 0.57,-5.84 0.83,-5.56 1.02,-5.22 1.20,-4.89 1.93,-3.76 2.67,-2.62 6.47,1.27 10.27,5.18 15.56,10.26 20.85,15.33 26.62,19.84 32.40,24.36 37.84,28.52 43.29,32.68 45.68,36.29 48.08,39.89 49.05,41.29 50.01,42.69 50.13,42.87 50.24,43.05 50.29,43.26 50.35,43.46 50.33,43.68 50.31,43.89 50.23,44.08 50.15,44.28 50.00,44.44 49.86,44.59 49.68,44.70 49.49,44.80 49.29,44.85 49.08,44.89 48.87,44.86 48.66,44.83 48.47,44.74 48.27,44.64 48.12,44.49 47.97,44.34 47.88,44.15 47.78,43.96 47.75,43.75 47.73,43.54 47.76,43.33 47.80,43.12 47.91,42.94 48.01,42.75 48.17,42.61 48.33,42.47 48.52,42.38 48.72,42.30 48.93,42.28 49.14,42.26 49.35,42.31 49.55,42.37 49.73,42.48 49.91,42.59 50.05,42.76 50.18,42.92 50.25,43.12 50.33,43.32 50.33,43.54 50.34,43.75 50.28,43.95 50.22,44.15 50.09,44.33 49.97,44.50 49.80,44.62 49.62,44.75 49.42,44.81 49.22,44.87 49.01,44.87 48.79,44.86 48.59,44.79 48.39,44.72 48.23,44.59 48.06,44.45 48.06,44.45 48.06,44.45 46.77,43.35 45.47,42.24 42.54,39.94 39.61,37.63 33.95,33.62 28.30,29.61 22.24,24.90 16.19,20.18 10.79,14.98 5.40,9.78 1.24,5.23 -2.92,0.68 -3.79,-0.93 -4.66,-2.54 -4.76,-2.91 -4.86,-3.28 -4.86,-3.66 -4.87,-4.04 -4.79,-4.41 -4.70,-4.78 -4.53,-5.12 -4.36,-5.46 -4.11,-5.75 -3.87,-6.04 -3.56,-6.27 -3.25,-6.49 -2.89,-6.63 -2.54,-6.77 -2.16,-6.82 -1.78,-6.88 -1.40,-6.84 -1.03,-6.80 -0.67,-6.67 -0.31,-6.54 0.00,-6.33 0.32,-6.12 0.57,-5.84 0.83,-5.56 1.02,-5.22 1.20,-4.89 1.07,-4.40 0.94,-3.92 1.10,-2.21 1.26,-0.50 1.30,-0.34 1.34,-0.18 1.35,-0.02 1.35,0.13 1.31,0.29 1.28,0.45 1.20,0.60 1.13,0.75 1.02,0.87 0.92,1.00 0.78,1.09 0.65,1.19 0.50,1.25 0.34,1.31 0.18,1.33 0.02,1.36 -0.13,1.34 -0.30,1.32 -0.45,1.27 -0.61,1.21 -0.74,1.12 -0.88,1.03 -0.99,0.91 -1.10,0.79 -1.18,0.64 -1.26,0.50 -1.26,0.50 L -1.26,0.50 Z"/></g><g transform="translate(524.396072962388 420.77465384911295) rotate(0 17.961956992034004 -43.256384769936275)" stroke="none"><path fill="#2f9e44" d="M -0.40,-36.62 Q -0.40,-36.62 1.00,-36.92 2.41,-37.22 3.60,-36.06 4.79,-34.91 5.80,-33.43 6.82,-31.95 7.64,-30.49 8.46,-29.03 9.07,-27.86 9.69,-26.70 10.48,-25.06 11.27,-23.42 11.39,-23.20 11.52,-22.99 11.62,-22.59 11.71,-22.19 11.71,-21.78 11.71,-21.37 11.61,-20.97 11.51,-20.57 11.32,-20.21 11.12,-19.85 10.85,-19.54 10.58,-19.23 10.24,-19.00 9.90,-18.77 9.51,-18.63 9.13,-18.48 8.72,-18.44 8.32,-18.39 7.91,-18.44 7.50,-18.49 7.12,-18.64 6.74,-18.79 6.40,-19.02 6.06,-19.26 5.79,-19.56 5.52,-19.87 5.33,-20.24 5.14,-20.60 5.59,-22.44 6.04,-24.29 6.53,-26.35 7.02,-28.42 8.97,-32.50 10.91,-36.57 15.23,-42.62 19.55,-48.66 23.64,-53.19 27.74,-57.71 30.58,-60.05 33.42,-62.39 34.49,-63.50 35.56,-64.61 35.73,-64.74 35.89,-64.88 36.08,-64.96 36.28,-65.04 36.49,-65.05 36.70,-65.07 36.91,-65.01 37.11,-64.96 37.29,-64.84 37.47,-64.72 37.60,-64.55 37.73,-64.38 37.80,-64.18 37.86,-63.98 37.87,-63.77 37.87,-63.56 37.80,-63.35 37.73,-63.15 37.61,-62.98 37.48,-62.81 37.30,-62.69 37.13,-62.57 36.92,-62.51 36.72,-62.46 36.51,-62.47 36.30,-62.48 36.10,-62.55 35.90,-62.63 35.74,-62.77 35.57,-62.91 35.46,-63.09 35.35,-63.27 35.31,-63.48 35.26,-63.68 35.28,-63.89 35.30,-64.11 35.39,-64.30 35.48,-64.49 35.62,-64.65 35.77,-64.80 35.96,-64.90 36.14,-65.00 36.35,-65.04 36.56,-65.07 36.77,-65.04 36.98,-65.01 37.17,-64.91 37.36,-64.81 37.51,-64.66 37.65,-64.50 37.74,-64.31 37.83,-64.12 37.86,-63.91 37.88,-63.70 37.84,-63.49 37.79,-63.28 37.68,-63.10 37.58,-62.92 37.58,-62.92 37.58,-62.92 36.67,-61.67 35.77,-60.42 33.95,-57.21 32.14,-54.00 28.56,-49.41 24.97,-44.81 21.03,-39.21 17.10,-33.60 15.33,-29.91 13.57,-26.21 12.78,-23.89 12.00,-21.57 11.42,-20.54 10.85,-19.50 11.18,-21.24 11.52,-22.99 11.62,-22.59 11.71,-22.19 11.71,-21.78 11.71,-21.37 11.61,-20.97 11.51,-20.57 11.32,-20.21 11.12,-19.85 10.85,-19.54 10.58,-19.23 10.24,-19.00 9.90,-18.77 9.52,-18.63 9.13,-18.48 8.72,-18.44 8.32,-18.39 7.91,-18.44 7.50,-18.49 7.12,-18.64 6.74,-18.79 6.40,-19.02 6.06,-19.26 5.79,-19.56 5.52,-19.87 5.33,-20.24 5.14,-20.60 5.01,-20.80 4.87,-21.00 4.26,-22.25 3.65,-23.49 3.06,-24.59 2.48,-25.69 1.78,-26.94 1.08,-28.20 -0.14,-29.89 -1.37,-31.58 -1.62,-32.99 -1.88,-34.40 -2.00,-34.51 -2.12,-34.61 -2.22,-34.74 -2.31,-34.87 -2.37,-35.02 -2.43,-35.17 -2.45,-35.33 -2.47,-35.49 -2.46,-35.65 -2.44,-35.81 -2.38,-35.96 -2.33,-36.11 -2.24,-36.25 -2.15,-36.38 -2.03,-36.49 -1.91,-36.60 -1.77,-36.67 -1.63,-36.75 -1.48,-36.79 -1.32,-36.83 -1.16,-36.83 -1.00,-36.84 -0.84,-36.80 -0.69,-36.76 -0.55,-36.69 -0.40,-36.62 -0.40,-36.62 L -0.40,-36.62 Z"/></g><g transform="translate(524.396072962388 501.6033877633482) rotate(0 17.961956992034004 -43.256384769936275)" stroke="none"><path fill="#2f9e44" d="M -0.40,-36.62 Q -0.40,-36.62 1.00,-36.92 2.41,-37.22 3.60,-36.06 4.79,-34.91 5.80,-33.43 6.82,-31.95 7.64,-30.49 8.46,-29.03 9.07,-27.86 9.69,-26.70 10.48,-25.06 11.27,-23.42 11.39,-23.20 11.52,-22.99 11.62,-22.59 11.71,-22.19 11.71,-21.78 11.71,-21.37 11.61,-20.97 11.51,-20.57 11.32,-20.21 11.12,-19.85 10.85,-19.54 10.58,-19.23 10.24,-19.00 9.90,-18.77 9.51,-18.63 9.13,-18.48 8.72,-18.44 8.32,-18.39 7.91,-18.44 7.50,-18.49 7.12,-18.64 6.74,-18.79 6.40,-19.02 6.06,-19.26 5.79,-19.56 5.52,-19.87 5.33,-20.24 5.14,-20.60 5.59,-22.44 6.04,-24.29 6.53,-26.35 7.02,-28.42 8.97,-32.50 10.91,-36.57 15.23,-42.62 19.55,-48.66 23.64,-53.19 27.74,-57.71 30.58,-60.05 33.42,-62.39 34.49,-63.50 35.56,-64.61 35.73,-64.74 35.89,-64.88 36.08,-64.96 36.28,-65.04 36.49,-65.05 36.70,-65.07 36.91,-65.01 37.11,-64.96 37.29,-64.84 37.47,-64.72 37.60,-64.55 37.73,-64.38 37.80,-64.18 37.86,-63.98 37.87,-63.77 37.87,-63.56 37.80,-63.35 37.73,-63.15 37.61,-62.98 37.48,-62.81 37.30,-62.69 37.13,-62.57 36.92,-62.51 36.72,-62.46 36.51,-62.47 36.30,-62.48 36.10,-62.55 35.90,-62.63 35.74,-62.77 35.57,-62.91 35.46,-63.09 35.35,-63.27 35.31,-63.48 35.26,-63.68 35.28,-63.89 35.30,-64.11 35.39,-64.30 35.48,-64.49 35.62,-64.65 35.77,-64.80 35.96,-64.90 36.14,-65.00 36.35,-65.04 36.56,-65.07 36.77,-65.04 36.98,-65.01 37.17,-64.91 37.36,-64.81 37.51,-64.66 37.65,-64.50 37.74,-64.31 37.83,-64.12 37.86,-63.91 37.88,-63.70 37.84,-63.49 37.79,-63.28 37.68,-63.10 37.58,-62.92 37.58,-62.92 37.58,-62.92 36.67,-61.67 35.77,-60.42 33.95,-57.21 32.14,-54.00 28.56,-49.41 24.97,-44.81 21.03,-39.21 17.10,-33.60 15.33,-29.91 13.57,-26.21 12.78,-23.89 12.00,-21.57 11.42,-20.54 10.85,-19.50 11.18,-21.24 11.52,-22.99 11.62,-22.59 11.71,-22.19 11.71,-21.78 11.71,-21.37 11.61,-20.97 11.51,-20.57 11.32,-20.21 11.12,-19.85 10.85,-19.54 10.58,-19.23 10.24,-19.00 9.90,-18.77 9.52,-18.63 9.13,-18.48 8.72,-18.44 8.32,-18.39 7.91,-18.44 7.50,-18.49 7.12,-18.64 6.74,-18.79 6.40,-19.02 6.06,-19.26 5.79,-19.56 5.52,-19.87 5.33,-20.24 5.14,-20.60 5.01,-20.80 4.87,-21.00 4.26,-22.25 3.65,-23.49 3.06,-24.59 2.48,-25.69 1.78,-26.94 1.08,-28.20 -0.14,-29.89 -1.37,-31.58 -1.62,-32.99 -1.88,-34.40 -2.00,-34.51 -2.12,-34.61 -2.22,-34.74 -2.31,-34.87 -2.37,-35.02 -2.43,-35.17 -2.45,-35.33 -2.47,-35.49 -2.46,-35.65 -2.44,-35.81 -2.38,-35.96 -2.33,-36.11 -2.24,-36.25 -2.15,-36.38 -2.03,-36.49 -1.91,-36.60 -1.77,-36.67 -1.63,-36.75 -1.48,-36.79 -1.32,-36.83 -1.16,-36.83 -1.00,-36.84 -0.84,-36.80 -0.69,-36.76 -0.55,-36.69 -0.40,-36.62 -0.40,-36.62 L -0.40,-36.62 Z"/></g><g transform="translate(1137.2151191952792 345.5248172883249) rotate(0 17.961956992034004 -43.25638476993629)" stroke="none"><path fill="#2f9e44" d="M -0.40,-36.62 Q -0.40,-36.62 1.00,-36.92 2.41,-37.22 3.60,-36.06 4.79,-34.91 5.80,-33.43 6.82,-31.95 7.64,-30.49 8.46,-29.03 9.07,-27.86 9.69,-26.70 10.48,-25.06 11.27,-23.42 11.39,-23.20 11.52,-22.99 11.62,-22.59 11.71,-22.19 11.71,-21.78 11.71,-21.37 11.61,-20.97 11.51,-20.57 11.32,-20.21 11.12,-19.85 10.85,-19.54 10.58,-19.23 10.24,-19.00 9.90,-18.77 9.51,-18.63 9.13,-18.48 8.72,-18.44 8.32,-18.39 7.91,-18.44 7.50,-18.49 7.12,-18.64 6.74,-18.79 6.40,-19.02 6.06,-19.26 5.79,-19.56 5.52,-19.87 5.33,-20.24 5.14,-20.60 5.59,-22.44 6.04,-24.29 6.53,-26.35 7.02,-28.42 8.97,-32.50 10.91,-36.57 15.23,-42.62 19.55,-48.66 23.64,-53.19 27.74,-57.71 30.58,-60.05 33.42,-62.39 34.49,-63.50 35.56,-64.61 35.73,-64.74 35.89,-64.88 36.08,-64.96 36.28,-65.04 36.49,-65.05 36.70,-65.07 36.91,-65.01 37.11,-64.96 37.29,-64.84 37.47,-64.72 37.60,-64.55 37.73,-64.38 37.80,-64.18 37.86,-63.98 37.87,-63.77 37.87,-63.56 37.80,-63.35 37.73,-63.15 37.61,-62.98 37.48,-62.81 37.30,-62.69 37.13,-62.57 36.92,-62.51 36.72,-62.46 36.51,-62.47 36.30,-62.48 36.10,-62.55 35.90,-62.63 35.74,-62.77 35.57,-62.91 35.46,-63.09 35.35,-63.27 35.31,-63.48 35.26,-63.68 35.28,-63.89 35.30,-64.11 35.39,-64.30 35.48,-64.49 35.62,-64.65 35.77,-64.80 35.96,-64.90 36.14,-65.00 36.35,-65.04 36.56,-65.07 36.77,-65.04 36.98,-65.01 37.17,-64.91 37.36,-64.81 37.51,-64.66 37.65,-64.50 37.74,-64.31 37.83,-64.12 37.86,-63.91 37.88,-63.70 37.84,-63.49 37.79,-63.28 37.68,-63.10 37.58,-62.92 37.58,-62.92 37.58,-62.92 36.67,-61.67 35.77,-60.42 33.95,-57.21 32.14,-54.00 28.56,-49.41 24.97,-44.81 21.03,-39.21 17.10,-33.60 15.33,-29.91 13.57,-26.21 12.78,-23.89 12.00,-21.57 11.42,-20.54 10.85,-19.50 11.18,-21.24 11.52,-22.99 11.62,-22.59 11.71,-22.19 11.71,-21.78 11.71,-21.37 11.61,-20.97 11.51,-20.57 11.32,-20.21 11.12,-19.85 10.85,-19.54 10.58,-19.23 10.24,-19.00 9.90,-18.77 9.52,-18.63 9.13,-18.48 8.72,-18.44 8.32,-18.39 7.91,-18.44 7.50,-18.49 7.12,-18.64 6.74,-18.79 6.40,-19.02 6.06,-19.26 5.79,-19.56 5.52,-19.87 5.33,-20.24 5.14,-20.60 5.01,-20.80 4.87,-21.00 4.26,-22.25 3.65,-23.49 3.06,-24.59 2.48,-25.69 1.78,-26.94 1.08,-28.20 -0.14,-29.89 -1.37,-31.58 -1.62,-32.99 -1.88,-34.40 -2.00,-34.51 -2.12,-34.61 -2.22,-34.74 -2.31,-34.87 -2.37,-35.02 -2.43,-35.17 -2.45,-35.33 -2.47,-35.49 -2.46,-35.65 -2.44,-35.81 -2.38,-35.96 -2.33,-36.11 -2.24,-36.25 -2.15,-36.38 -2.03,-36.49 -1.91,-36.60 -1.77,-36.67 -1.63,-36.75 -1.48,-36.79 -1.32,-36.83 -1.16,-36.83 -1.00,-36.84 -0.84,-36.80 -0.69,-36.76 -0.55,-36.69 -0.40,-36.62 -0.40,-36.62 L -0.40,-36.62 Z"/></g><g transform="translate(1137.2151191952792 425.76163631056204) rotate(0 17.961956992034004 -43.256384769936275)" stroke="none"><path fill="#2f9e44" d="M -0.40,-36.62 Q -0.40,-36.62 1.00,-36.92 2.41,-37.22 3.60,-36.06 4.79,-34.91 5.80,-33.43 6.82,-31.95 7.64,-30.49 8.46,-29.03 9.07,-27.86 9.69,-26.70 10.48,-25.06 11.27,-23.42 11.39,-23.20 11.52,-22.99 11.62,-22.59 11.71,-22.19 11.71,-21.78 11.71,-21.37 11.61,-20.97 11.51,-20.57 11.32,-20.21 11.12,-19.85 10.85,-19.54 10.58,-19.23 10.24,-19.00 9.90,-18.77 9.51,-18.63 9.13,-18.48 8.72,-18.44 8.32,-18.39 7.91,-18.44 7.50,-18.49 7.12,-18.64 6.74,-18.79 6.40,-19.02 6.06,-19.26 5.79,-19.56 5.52,-19.87 5.33,-20.24 5.14,-20.60 5.59,-22.44 6.04,-24.29 6.53,-26.35 7.02,-28.42 8.97,-32.50 10.91,-36.57 15.23,-42.62 19.55,-48.66 23.64,-53.19 27.74,-57.71 30.58,-60.05 33.42,-62.39 34.49,-63.50 35.56,-64.61 35.73,-64.74 35.89,-64.88 36.08,-64.96 36.28,-65.04 36.49,-65.05 36.70,-65.07 36.91,-65.01 37.11,-64.96 37.29,-64.84 37.47,-64.72 37.60,-64.55 37.73,-64.38 37.80,-64.18 37.86,-63.98 37.87,-63.77 37.87,-63.56 37.80,-63.35 37.73,-63.15 37.61,-62.98 37.48,-62.81 37.30,-62.69 37.13,-62.57 36.92,-62.51 36.72,-62.46 36.51,-62.47 36.30,-62.48 36.10,-62.55 35.90,-62.63 35.74,-62.77 35.57,-62.91 35.46,-63.09 35.35,-63.27 35.31,-63.48 35.26,-63.68 35.28,-63.89 35.30,-64.11 35.39,-64.30 35.48,-64.49 35.62,-64.65 35.77,-64.80 35.96,-64.90 36.14,-65.00 36.35,-65.04 36.56,-65.07 36.77,-65.04 36.98,-65.01 37.17,-64.91 37.36,-64.81 37.51,-64.66 37.65,-64.50 37.74,-64.31 37.83,-64.12 37.86,-63.91 37.88,-63.70 37.84,-63.49 37.79,-63.28 37.68,-63.10 37.58,-62.92 37.58,-62.92 37.58,-62.92 36.67,-61.67 35.77,-60.42 33.95,-57.21 32.14,-54.00 28.56,-49.41 24.97,-44.81 21.03,-39.21 17.10,-33.60 15.33,-29.91 13.57,-26.21 12.78,-23.89 12.00,-21.57 11.42,-20.54 10.85,-19.50 11.18,-21.24 11.52,-22.99 11.62,-22.59 11.71,-22.19 11.71,-21.78 11.71,-21.37 11.61,-20.97 11.51,-20.57 11.32,-20.21 11.12,-19.85 10.85,-19.54 10.58,-19.23 10.24,-19.00 9.90,-18.77 9.52,-18.63 9.13,-18.48 8.72,-18.44 8.32,-18.39 7.91,-18.44 7.50,-18.49 7.12,-18.64 6.74,-18.79 6.40,-19.02 6.06,-19.26 5.79,-19.56 5.52,-19.87 5.33,-20.24 5.14,-20.60 5.01,-20.80 4.87,-21.00 4.26,-22.25 3.65,-23.49 3.06,-24.59 2.48,-25.69 1.78,-26.94 1.08,-28.20 -0.14,-29.89 -1.37,-31.58 -1.62,-32.99 -1.88,-34.40 -2.00,-34.51 -2.12,-34.61 -2.22,-34.74 -2.31,-34.87 -2.37,-35.02 -2.43,-35.17 -2.45,-35.33 -2.47,-35.49 -2.46,-35.65 -2.44,-35.81 -2.38,-35.96 -2.33,-36.11 -2.24,-36.25 -2.15,-36.38 -2.03,-36.49 -1.91,-36.60 -1.77,-36.67 -1.63,-36.75 -1.48,-36.79 -1.32,-36.83 -1.16,-36.83 -1.00,-36.84 -0.84,-36.80 -0.69,-36.76 -0.55,-36.69 -0.40,-36.62 -0.40,-36.62 L -0.40,-36.62 Z"/></g><g transform="translate(1137.2151191952792 506.59037022479737) rotate(0 17.961956992034004 -43.256384769936275)" stroke="none"><path fill="#2f9e44" d="M -0.40,-36.62 Q -0.40,-36.62 1.00,-36.92 2.41,-37.22 3.60,-36.06 4.79,-34.91 5.80,-33.43 6.82,-31.95 7.64,-30.49 8.46,-29.03 9.07,-27.86 9.69,-26.70 10.48,-25.06 11.27,-23.42 11.39,-23.20 11.52,-22.99 11.62,-22.59 11.71,-22.19 11.71,-21.78 11.71,-21.37 11.61,-20.97 11.51,-20.57 11.32,-20.21 11.12,-19.85 10.85,-19.54 10.58,-19.23 10.24,-19.00 9.90,-18.77 9.51,-18.63 9.13,-18.48 8.72,-18.44 8.32,-18.39 7.91,-18.44 7.50,-18.49 7.12,-18.64 6.74,-18.79 6.40,-19.02 6.06,-19.26 5.79,-19.56 5.52,-19.87 5.33,-20.24 5.14,-20.60 5.59,-22.44 6.04,-24.29 6.53,-26.35 7.02,-28.42 8.97,-32.50 10.91,-36.57 15.23,-42.62 19.55,-48.66 23.64,-53.19 27.74,-57.71 30.58,-60.05 33.42,-62.39 34.49,-63.50 35.56,-64.61 35.73,-64.74 35.89,-64.88 36.08,-64.96 36.28,-65.04 36.49,-65.05 36.70,-65.07 36.91,-65.01 37.11,-64.96 37.29,-64.84 37.47,-64.72 37.60,-64.55 37.73,-64.38 37.80,-64.18 37.86,-63.98 37.87,-63.77 37.87,-63.56 37.80,-63.35 37.73,-63.15 37.61,-62.98 37.48,-62.81 37.30,-62.69 37.13,-62.57 36.92,-62.51 36.72,-62.46 36.51,-62.47 36.30,-62.48 36.10,-62.55 35.90,-62.63 35.74,-62.77 35.57,-62.91 35.46,-63.09 35.35,-63.27 35.31,-63.48 35.26,-63.68 35.28,-63.89 35.30,-64.11 35.39,-64.30 35.48,-64.49 35.62,-64.65 35.77,-64.80 35.96,-64.90 36.14,-65.00 36.35,-65.04 36.56,-65.07 36.77,-65.04 36.98,-65.01 37.17,-64.91 37.36,-64.81 37.51,-64.66 37.65,-64.50 37.74,-64.31 37.83,-64.12 37.86,-63.91 37.88,-63.70 37.84,-63.49 37.79,-63.28 37.68,-63.10 37.58,-62.92 37.58,-62.92 37.58,-62.92 36.67,-61.67 35.77,-60.42 33.95,-57.21 32.14,-54.00 28.56,-49.41 24.97,-44.81 21.03,-39.21 17.10,-33.60 15.33,-29.91 13.57,-26.21 12.78,-23.89 12.00,-21.57 11.42,-20.54 10.85,-19.50 11.18,-21.24 11.52,-22.99 11.62,-22.59 11.71,-22.19 11.71,-21.78 11.71,-21.37 11.61,-20.97 11.51,-20.57 11.32,-20.21 11.12,-19.85 10.85,-19.54 10.58,-19.23 10.24,-19.00 9.90,-18.77 9.52,-18.63 9.13,-18.48 8.72,-18.44 8.32,-18.39 7.91,-18.44 7.50,-18.49 7.12,-18.64 6.74,-18.79 6.40,-19.02 6.06,-19.26 5.79,-19.56 5.52,-19.87 5.33,-20.24 5.14,-20.60 5.01,-20.80 4.87,-21.00 4.26,-22.25 3.65,-23.49 3.06,-24.59 2.48,-25.69 1.78,-26.94 1.08,-28.20 -0.14,-29.89 -1.37,-31.58 -1.62,-32.99 -1.88,-34.40 -2.00,-34.51 -2.12,-34.61 -2.22,-34.74 -2.31,-34.87 -2.37,-35.02 -2.43,-35.17 -2.45,-35.33 -2.47,-35.49 -2.46,-35.65 -2.44,-35.81 -2.38,-35.96 -2.33,-36.11 -2.24,-36.25 -2.15,-36.38 -2.03,-36.49 -1.91,-36.60 -1.77,-36.67 -1.63,-36.75 -1.48,-36.79 -1.32,-36.83 -1.16,-36.83 -1.00,-36.84 -0.84,-36.80 -0.69,-36.76 -0.55,-36.69 -0.40,-36.62 -0.40,-36.62 L -0.40,-36.62 Z"/></g><g transform="translate(1140.9132303337658 588.7716302198763) rotate(0 17.961956992034004 -43.256384769936275)" stroke="none"><path fill="#2f9e44" d="M -0.40,-36.62 Q -0.40,-36.62 1.00,-36.92 2.41,-37.22 3.60,-36.06 4.79,-34.91 5.80,-33.43 6.82,-31.95 7.64,-30.49 8.46,-29.03 9.07,-27.86 9.69,-26.70 10.48,-25.06 11.27,-23.42 11.39,-23.20 11.52,-22.99 11.62,-22.59 11.71,-22.19 11.71,-21.78 11.71,-21.37 11.61,-20.97 11.51,-20.57 11.32,-20.21 11.12,-19.85 10.85,-19.54 10.58,-19.23 10.24,-19.00 9.90,-18.77 9.51,-18.63 9.13,-18.48 8.72,-18.44 8.32,-18.39 7.91,-18.44 7.50,-18.49 7.12,-18.64 6.74,-18.79 6.40,-19.02 6.06,-19.26 5.79,-19.56 5.52,-19.87 5.33,-20.24 5.14,-20.60 5.59,-22.44 6.04,-24.29 6.53,-26.35 7.02,-28.42 8.97,-32.50 10.91,-36.57 15.23,-42.62 19.55,-48.66 23.64,-53.19 27.74,-57.71 30.58,-60.05 33.42,-62.39 34.49,-63.50 35.56,-64.61 35.73,-64.74 35.89,-64.88 36.08,-64.96 36.28,-65.04 36.49,-65.05 36.70,-65.07 36.91,-65.01 37.11,-64.96 37.29,-64.84 37.47,-64.72 37.60,-64.55 37.73,-64.38 37.80,-64.18 37.86,-63.98 37.87,-63.77 37.87,-63.56 37.80,-63.35 37.73,-63.15 37.61,-62.98 37.48,-62.81 37.30,-62.69 37.13,-62.57 36.92,-62.51 36.72,-62.46 36.51,-62.47 36.30,-62.48 36.10,-62.55 35.90,-62.63 35.74,-62.77 35.57,-62.91 35.46,-63.09 35.35,-63.27 35.31,-63.48 35.26,-63.68 35.28,-63.89 35.30,-64.11 35.39,-64.30 35.48,-64.49 35.62,-64.65 35.77,-64.80 35.96,-64.90 36.14,-65.00 36.35,-65.04 36.56,-65.07 36.77,-65.04 36.98,-65.01 37.17,-64.91 37.36,-64.81 37.51,-64.66 37.65,-64.50 37.74,-64.31 37.83,-64.12 37.86,-63.91 37.88,-63.70 37.84,-63.49 37.79,-63.28 37.68,-63.10 37.58,-62.92 37.58,-62.92 37.58,-62.92 36.67,-61.67 35.77,-60.42 33.95,-57.21 32.14,-54.00 28.56,-49.41 24.97,-44.81 21.03,-39.21 17.10,-33.60 15.33,-29.91 13.57,-26.21 12.78,-23.89 12.00,-21.57 11.42,-20.54 10.85,-19.50 11.18,-21.24 11.52,-22.99 11.62,-22.59 11.71,-22.19 11.71,-21.78 11.71,-21.37 11.61,-20.97 11.51,-20.57 11.32,-20.21 11.12,-19.85 10.85,-19.54 10.58,-19.23 10.24,-19.00 9.90,-18.77 9.52,-18.63 9.13,-18.48 8.72,-18.44 8.32,-18.39 7.91,-18.44 7.50,-18.49 7.12,-18.64 6.74,-18.79 6.40,-19.02 6.06,-19.26 5.79,-19.56 5.52,-19.87 5.33,-20.24 5.14,-20.60 5.01,-20.80 4.87,-21.00 4.26,-22.25 3.65,-23.49 3.06,-24.59 2.48,-25.69 1.78,-26.94 1.08,-28.20 -0.14,-29.89 -1.37,-31.58 -1.62,-32.99 -1.88,-34.40 -2.00,-34.51 -2.12,-34.61 -2.22,-34.74 -2.31,-34.87 -2.37,-35.02 -2.43,-35.17 -2.45,-35.33 -2.47,-35.49 -2.46,-35.65 -2.44,-35.81 -2.38,-35.96 -2.33,-36.11 -2.24,-36.25 -2.15,-36.38 -2.03,-36.49 -1.91,-36.60 -1.77,-36.67 -1.63,-36.75 -1.48,-36.79 -1.32,-36.83 -1.16,-36.83 -1.00,-36.84 -0.84,-36.80 -0.69,-36.76 -0.55,-36.69 -0.40,-36.62 -0.40,-36.62 L -0.40,-36.62 Z"/></g><g transform="translate(10 10) rotate(0 241.59030151367188 33.323898804896146)"><text x="0" y="53.319370013744326" font-family="Helvetica, Segoe UI Emoji" font-size="57.95460661721069px" fill="#1e1e1e" text-anchor="start" style="white-space: pre;" direction="ltr" dominant-baseline="alphabetic">Eigene IP-Adresse</text></g><g transform="translate(595.0211004096532 17.851622799823645) rotate(0 118.02293395996094 34.87362355200122)"><text x="0" y="55.798982249219335" font-family="Helvetica, Segoe UI Emoji" font-size="60.64978009043689px" fill="#f08c00" text-anchor="start" style="white-space: pre;" direction="ltr" dominant-baseline="alphabetic">192.168.</text></g><g transform="translate(973.2056671802644 17.851622363636352) rotate(0 16.11450958251953 33.323898804896146)"><text x="0" y="53.319370013744326" font-family="Helvetica, Segoe UI Emoji" font-size="57.95460661721069px" fill="#2f9e44" text-anchor="start" style="white-space: pre;" direction="ltr" dominant-baseline="alphabetic">5</text></g><g transform="translate(925.1913541440429 19.401347818181875) rotate(0 8.050178527832031 33.323898804896146)"><text x="0" y="53.319370013744326" font-family="Helvetica, Segoe UI Emoji" font-size="57.95460661721069px" fill="#1e1e1e" text-anchor="start" style="white-space: pre;" direction="ltr" dominant-baseline="alphabetic">.</text></g><g transform="translate(859.5523313361379 17.85162298016735) rotate(0 16.862533569335938 34.87362355200122)"><text x="0" y="55.798982249219335" font-family="Helvetica, Segoe UI Emoji" font-size="60.64978009043689px" fill="#f08c00" text-anchor="start" style="white-space: pre;" direction="ltr" dominant-baseline="alphabetic">1</text></g><g transform="translate(1204.1113691877658 19.401347354456902) rotate(0 126.4468002319336 34.87362355200122)"><text x="0" y="55.798982249219335" font-family="Helvetica, Segoe UI Emoji" font-size="60.64978009043689px" fill="#f08c00" text-anchor="start" style="white-space: pre;" direction="ltr" dominant-baseline="alphabetic">192 . 168</text></g><g transform="translate(1470.7242759835312 25.40134801065301) rotate(0 8.050178527832031 33.323898804896146)"><text x="0" y="53.319370013744326" font-family="Helvetica, Segoe UI Emoji" font-size="57.95460661721069px" fill="#1e1e1e" text-anchor="start" style="white-space: pre;" direction="ltr" dominant-baseline="alphabetic">.</text></g><g transform="translate(1513.3062163639465 25.401348283380344) rotate(0 56.379554748535156 33.323898804896146)"><text x="0" y="53.319370013744326" font-family="Helvetica, Segoe UI Emoji" font-size="57.95460661721069px" fill="#2f9e44" text-anchor="start" style="white-space: pre;" direction="ltr" dominant-baseline="alphabetic">1 . 5</text></g></svg>