<svg version="1.1" xmlns="http://www.w3.org/2000/svg" viewBox="0 0 1330.2067158788975 736.8452501863669" width="1330.2067158788975" height="736.8452501863669" filter="invert(93%) hue-rotate(180deg)" class="excalidraw-svg">
  <!-- svg-source:excalidraw -->
  
  <defs>
    <style class="style-fonts">
      @font-face {
        font-family: "Virgil";
        src: url("https://excalidraw.com/Virgil.woff2");
      }
      @font-face {
        font-family: "Cascadia";
        src: url("https://excalidraw.com/Cascadia.woff2");
      }
      @font-face {
        font-family: "Assistant";
        src: url("https://excalidraw.com/Assistant-Regular.woff2");
      }
    </style>
    
  </defs>
  <g stroke-linecap="round" transform="translate(515.6320496988451 377.0600110076925) rotate(0 191.33337402343747 36.108187589337184)"><path d="M18.05 0 C132.45 0, 246.85 0, 364.61 0 C376.65 0, 382.67 6.02, 382.67 18.05 C382.67 26.03, 382.67 34.01, 382.67 54.16 C382.67 66.2, 376.65 72.22, 364.61 72.22 C289.8 72.22, 214.98 72.22, 18.05 72.22 C6.02 72.22, 0 66.2, 0 54.16 C0 41.81, 0 29.46, 0 18.05 C0 6.02, 6.02 0, 18.05 0" stroke="none" stroke-width="0" fill="#228be6"/><path d="M18.05 0 C127.41 0, 236.77 0, 364.61 0 M18.05 0 C110.43 0, 202.81 0, 364.61 0 M364.61 0 C376.65 0, 382.67 6.02, 382.67 18.05 M364.61 0 C376.65 0, 382.67 6.02, 382.67 18.05 M382.67 18.05 C382.67 29.69, 382.67 41.32, 382.67 54.16 M382.67 18.05 C382.67 31.18, 382.67 44.32, 382.67 54.16 M382.67 54.16 C382.67 66.2, 376.65 72.22, 364.61 72.22 M382.67 54.16 C382.67 66.2, 376.65 72.22, 364.61 72.22 M364.61 72.22 C280.46 72.22, 196.31 72.22, 18.05 72.22 M364.61 72.22 C232.08 72.22, 99.54 72.22, 18.05 72.22 M18.05 72.22 C6.02 72.22, 0 66.2, 0 54.16 M18.05 72.22 C6.02 72.22, 0 66.2, 0 54.16 M0 54.16 C0 43.13, 0 32.1, 0 18.05 M0 54.16 C0 43.85, 0 33.54, 0 18.05 M0 18.05 C0 6.02, 6.02 0, 18.05 0 M0 18.05 C0 6.02, 6.02 0, 18.05 0" stroke="#1e1e1e" stroke-width="2" fill="none"/></g><g transform="translate(630.6060487222825 392.46819859702964) rotate(0 76.359375 20.699999999999996)"><text x="76.359375" y="33.120703125" font-family="Helvetica, Segoe UI Emoji" font-size="36px" fill="#1e1e1e" text-anchor="middle" style="white-space: pre;" direction="ltr" dominant-baseline="alphabetic">Transport</text></g><g stroke-linecap="round" transform="translate(515.6320500915384 481.2776782193213) rotate(0 191.33337402343747 37.374453911385615)"><path d="M18.69 0 C102.39 0, 186.09 0, 363.98 0 C376.44 0, 382.67 6.23, 382.67 18.69 C382.67 32.14, 382.67 45.59, 382.67 56.06 C382.67 68.52, 376.44 74.75, 363.98 74.75 C263.36 74.75, 162.74 74.75, 18.69 74.75 C6.23 74.75, 0 68.52, 0 56.06 C0 46.78, 0 37.49, 0 18.69 C0 6.23, 6.23 0, 18.69 0" stroke="none" stroke-width="0" fill="#ff9e01"/><path d="M18.69 0 C93.56 0, 168.43 0, 363.98 0 M18.69 0 C143.94 0, 269.19 0, 363.98 0 M363.98 0 C376.44 0, 382.67 6.23, 382.67 18.69 M363.98 0 C376.44 0, 382.67 6.23, 382.67 18.69 M382.67 18.69 C382.67 28.62, 382.67 38.55, 382.67 56.06 M382.67 18.69 C382.67 28.21, 382.67 37.74, 382.67 56.06 M382.67 56.06 C382.67 68.52, 376.44 74.75, 363.98 74.75 M382.67 56.06 C382.67 68.52, 376.44 74.75, 363.98 74.75 M363.98 74.75 C292.06 74.75, 220.14 74.75, 18.69 74.75 M363.98 74.75 C247.76 74.75, 131.54 74.75, 18.69 74.75 M18.69 74.75 C6.23 74.75, 0 68.52, 0 56.06 M18.69 74.75 C6.23 74.75, 0 68.52, 0 56.06 M0 56.06 C0 44.93, 0 33.79, 0 18.69 M0 56.06 C0 47.14, 0 38.21, 0 18.69 M0 18.69 C0 6.23, 6.23 0, 18.69 0 M0 18.69 C0 6.23, 6.23 0, 18.69 0" stroke="#1e1e1e" stroke-width="2" fill="none"/></g><g transform="translate(645.9253850524759 497.9521321307069) rotate(0 61.0400390625 20.700000000000003)"><text x="61.0400390625" y="33.120703125" font-family="Helvetica, Segoe UI Emoji" font-size="36px" fill="#1e1e1e" text-anchor="middle" style="white-space: pre;" direction="ltr" dominant-baseline="alphabetic">Internet</text></g><g stroke-linecap="round" transform="translate(515.6320496404362 588.0278782649108) rotate(0 191.33337402343747 69.40868596072805)"><path d="M32 0 C146.14 0, 260.27 0, 350.67 0 C372 0, 382.67 10.67, 382.67 32 C382.67 59.15, 382.67 86.29, 382.67 106.82 C382.67 128.15, 372 138.82, 350.67 138.82 C278.98 138.82, 207.29 138.82, 32 138.82 C10.67 138.82, 0 128.15, 0 106.82 C0 84.42, 0 62.02, 0 32 C0 10.67, 10.67 0, 32 0" stroke="none" stroke-width="0" fill="#d050a5"/><path d="M32 0 C132.38 0, 232.75 0, 350.67 0 M32 0 C116.61 0, 201.21 0, 350.67 0 M350.67 0 C372 0, 382.67 10.67, 382.67 32 M350.67 0 C372 0, 382.67 10.67, 382.67 32 M382.67 32 C382.67 49.29, 382.67 66.58, 382.67 106.82 M382.67 32 C382.67 54.09, 382.67 76.18, 382.67 106.82 M382.67 106.82 C382.67 128.15, 372 138.82, 350.67 138.82 M382.67 106.82 C382.67 128.15, 372 138.82, 350.67 138.82 M350.67 138.82 C272.1 138.82, 193.53 138.82, 32 138.82 M350.67 138.82 C275.02 138.82, 199.37 138.82, 32 138.82 M32 138.82 C10.67 138.82, 0 128.15, 0 106.82 M32 138.82 C10.67 138.82, 0 128.15, 0 106.82 M0 106.82 C0 89.77, 0 72.72, 0 32 M0 106.82 C0 91.57, 0 76.32, 0 32 M0 32 C0 10.67, 10.67 0, 32 0 M0 32 C0 10.67, 10.67 0, 32 0" stroke="#1e1e1e" stroke-width="2" fill="none"/></g><g transform="translate(610.9009705388737 636.7365642256389) rotate(0 96.064453125 20.69999999999999)"><text x="96.064453125" y="33.120703125" font-family="Helvetica, Segoe UI Emoji" font-size="36px" fill="#1e1e1e" text-anchor="middle" style="white-space: pre;" direction="ltr" dominant-baseline="alphabetic">Netzzugang</text></g><g stroke-linecap="round" transform="translate(515.6320501318527 109.45348175981138) rotate(0 191.33337402343747 123.18432271327774)"><path d="M32 0 C127.26 0, 222.52 0, 350.67 0 C372 0, 382.67 10.67, 382.67 32 C382.67 102.97, 382.67 173.94, 382.67 214.37 C382.67 235.7, 372 246.37, 350.67 246.37 C281.64 246.37, 212.62 246.37, 32 246.37 C10.67 246.37, 0 235.7, 0 214.37 C0 151.48, 0 88.59, 0 32 C0 10.67, 10.67 0, 32 0" stroke="none" stroke-width="0" fill="#fa5252"/><path d="M32 0 C141.14 0, 250.27 0, 350.67 0 M32 0 C101.95 0, 171.9 0, 350.67 0 M350.67 0 C372 0, 382.67 10.67, 382.67 32 M350.67 0 C372 0, 382.67 10.67, 382.67 32 M382.67 32 C382.67 82.9, 382.67 133.81, 382.67 214.37 M382.67 32 C382.67 76.6, 382.67 121.2, 382.67 214.37 M382.67 214.37 C382.67 235.7, 372 246.37, 350.67 246.37 M382.67 214.37 C382.67 235.7, 372 246.37, 350.67 246.37 M350.67 246.37 C251.99 246.37, 153.3 246.37, 32 246.37 M350.67 246.37 C224.01 246.37, 97.34 246.37, 32 246.37 M32 246.37 C10.67 246.37, 0 235.7, 0 214.37 M32 246.37 C10.67 246.37, 0 235.7, 0 214.37 M0 214.37 C0 159.49, 0 104.62, 0 32 M0 214.37 C0 162.67, 0 110.96, 0 32 M0 32 C0 10.67, 10.67 0, 32 0 M0 32 C0 10.67, 10.67 0, 32 0" stroke="#1e1e1e" stroke-width="2" fill="none"/></g><g transform="translate(611.8853460302902 211.9378044730891) rotate(0 95.080078125 20.700000000000003)"><text x="95.080078125" y="33.120703125" font-family="Helvetica, Segoe UI Emoji" font-size="36px" fill="#1e1e1e" text-anchor="middle" style="white-space: pre;" direction="ltr" dominant-baseline="alphabetic">Anwendung</text></g><g stroke-linecap="round" transform="translate(53.17518967906517 109.45348187844832) rotate(0 191.33337402343747 36.108187896005276)"><path d="M18.05 0 C146.9 0, 275.74 0, 364.61 0 C376.65 0, 382.67 6.02, 382.67 18.05 C382.67 29.58, 382.67 41.1, 382.67 54.16 C382.67 66.2, 376.65 72.22, 364.61 72.22 C281.63 72.22, 198.65 72.22, 18.05 72.22 C6.02 72.22, 0 66.2, 0 54.16 C0 44.5, 0 34.83, 0 18.05 C0 6.02, 6.02 0, 18.05 0" stroke="none" stroke-width="0" fill="#fa5252"/><path d="M18.05 0 C145.36 0, 272.67 0, 364.61 0 M18.05 0 C109.95 0, 201.84 0, 364.61 0 M364.61 0 C376.65 0, 382.67 6.02, 382.67 18.05 M364.61 0 C376.65 0, 382.67 6.02, 382.67 18.05 M382.67 18.05 C382.67 28.67, 382.67 39.28, 382.67 54.16 M382.67 18.05 C382.67 31.45, 382.67 44.84, 382.67 54.16 M382.67 54.16 C382.67 66.2, 376.65 72.22, 364.61 72.22 M382.67 54.16 C382.67 66.2, 376.65 72.22, 364.61 72.22 M364.61 72.22 C274.45 72.22, 184.29 72.22, 18.05 72.22 M364.61 72.22 C243.25 72.22, 121.89 72.22, 18.05 72.22 M18.05 72.22 C6.02 72.22, 0 66.2, 0 54.16 M18.05 72.22 C6.02 72.22, 0 66.2, 0 54.16 M0 54.16 C0 42.59, 0 31.01, 0 18.05 M0 54.16 C0 42.83, 0 31.49, 0 18.05 M0 18.05 C0 6.02, 6.02 0, 18.05 0 M0 18.05 C0 6.02, 6.02 0, 18.05 0" stroke="#1e1e1e" stroke-width="2" fill="none"/></g><g transform="translate(149.42848557750267 124.86166977445362) rotate(0 95.080078125 20.700000000000003)"><text x="95.080078125" y="33.120703125" font-family="Helvetica, Segoe UI Emoji" font-size="36px" fill="#1e1e1e" text-anchor="middle" style="white-space: pre;" direction="ltr" dominant-baseline="alphabetic">Anwendung</text></g><g stroke-linecap="round" transform="translate(53.17518974827044 196.52961633927669) rotate(0 191.33337402343747 36.108187896005276)"><path d="M18.05 0 C98.41 0, 178.76 0, 364.61 0 C376.65 0, 382.67 6.02, 382.67 18.05 C382.67 28.57, 382.67 39.09, 382.67 54.16 C382.67 66.2, 376.65 72.22, 364.61 72.22 C259.9 72.22, 155.19 72.22, 18.05 72.22 C6.02 72.22, 0 66.2, 0 54.16 C0 42.55, 0 30.94, 0 18.05 C0 6.02, 6.02 0, 18.05 0" stroke="none" stroke-width="0" fill="#fa5252"/><path d="M18.05 0 C106.66 0, 195.26 0, 364.61 0 M18.05 0 C148.36 0, 278.66 0, 364.61 0 M364.61 0 C376.65 0, 382.67 6.02, 382.67 18.05 M364.61 0 C376.65 0, 382.67 6.02, 382.67 18.05 M382.67 18.05 C382.67 26.91, 382.67 35.76, 382.67 54.16 M382.67 18.05 C382.67 32.07, 382.67 46.09, 382.67 54.16 M382.67 54.16 C382.67 66.2, 376.65 72.22, 364.61 72.22 M382.67 54.16 C382.67 66.2, 376.65 72.22, 364.61 72.22 M364.61 72.22 C248.98 72.22, 133.35 72.22, 18.05 72.22 M364.61 72.22 C230.47 72.22, 96.34 72.22, 18.05 72.22 M18.05 72.22 C6.02 72.22, 0 66.2, 0 54.16 M18.05 72.22 C6.02 72.22, 0 66.2, 0 54.16 M0 54.16 C0 41.49, 0 28.81, 0 18.05 M0 54.16 C0 46.87, 0 39.58, 0 18.05 M0 18.05 C0 6.02, 6.02 0, 18.05 0 M0 18.05 C0 6.02, 6.02 0, 18.05 0" stroke="#1e1e1e" stroke-width="2" fill="none"/></g><g transform="translate(143.44313408420794 211.93780423528196) rotate(0 101.0654296875 20.700000000000003)"><text x="101.0654296875" y="33.120703125" font-family="Helvetica, Segoe UI Emoji" font-size="36px" fill="#1e1e1e" text-anchor="middle" style="white-space: pre;" direction="ltr" dominant-baseline="alphabetic">Presentation</text></g><g stroke-linecap="round" transform="translate(53.175190008069876 283.6057513725068) rotate(0 191.33337402343747 36.108187896005276)"><path d="M18.05 0 C137.57 0, 257.09 0, 364.61 0 C376.65 0, 382.67 6.02, 382.67 18.05 C382.67 26.7, 382.67 35.35, 382.67 54.16 C382.67 66.2, 376.65 72.22, 364.61 72.22 C256.69 72.22, 148.78 72.22, 18.05 72.22 C6.02 72.22, 0 66.2, 0 54.16 C0 44.47, 0 34.78, 0 18.05 C0 6.02, 6.02 0, 18.05 0" stroke="none" stroke-width="0" fill="#fa5252"/><path d="M18.05 0 C133.82 0, 249.59 0, 364.61 0 M18.05 0 C155.39 0, 292.73 0, 364.61 0 M364.61 0 C376.65 0, 382.67 6.02, 382.67 18.05 M364.61 0 C376.65 0, 382.67 6.02, 382.67 18.05 M382.67 18.05 C382.67 27.1, 382.67 36.14, 382.67 54.16 M382.67 18.05 C382.67 32.26, 382.67 46.47, 382.67 54.16 M382.67 54.16 C382.67 66.2, 376.65 72.22, 364.61 72.22 M382.67 54.16 C382.67 66.2, 376.65 72.22, 364.61 72.22 M364.61 72.22 C294.85 72.22, 225.09 72.22, 18.05 72.22 M364.61 72.22 C262.26 72.22, 159.91 72.22, 18.05 72.22 M18.05 72.22 C6.02 72.22, 0 66.2, 0 54.16 M18.05 72.22 C6.02 72.22, 0 66.2, 0 54.16 M0 54.16 C0 40.46, 0 26.76, 0 18.05 M0 54.16 C0 44.69, 0 35.22, 0 18.05 M0 18.05 C0 6.02, 6.02 0, 18.05 0 M0 18.05 C0 6.02, 6.02 0, 18.05 0" stroke="#1e1e1e" stroke-width="2" fill="none"/></g><g transform="translate(180.47145465650738 299.0139392685121) rotate(0 64.037109375 20.7)"><text x="64.037109375" y="33.120703125" font-family="Helvetica, Segoe UI Emoji" font-size="36px" fill="#1e1e1e" text-anchor="middle" style="white-space: pre;" direction="ltr" dominant-baseline="alphabetic">Session</text></g><g stroke-linecap="round" transform="translate(53.175189944630574 377.06001131961017) rotate(0 191.33337402343747 36.108187589337184)"><path d="M18.05 0 C104.52 0, 190.99 0, 364.61 0 C376.65 0, 382.67 6.02, 382.67 18.05 C382.67 26.41, 382.67 34.76, 382.67 54.16 C382.67 66.2, 376.65 72.22, 364.61 72.22 C248.7 72.22, 132.79 72.22, 18.05 72.22 C6.02 72.22, 0 66.2, 0 54.16 C0 42.76, 0 31.37, 0 18.05 C0 6.02, 6.02 0, 18.05 0" stroke="none" stroke-width="0" fill="#228be6"/><path d="M18.05 0 C105.45 0, 192.85 0, 364.61 0 M18.05 0 C149.24 0, 280.42 0, 364.61 0 M364.61 0 C376.65 0, 382.67 6.02, 382.67 18.05 M364.61 0 C376.65 0, 382.67 6.02, 382.67 18.05 M382.67 18.05 C382.67 26.65, 382.67 35.24, 382.67 54.16 M382.67 18.05 C382.67 25.43, 382.67 32.8, 382.67 54.16 M382.67 54.16 C382.67 66.2, 376.65 72.22, 364.61 72.22 M382.67 54.16 C382.67 66.2, 376.65 72.22, 364.61 72.22 M364.61 72.22 C284.11 72.22, 203.61 72.22, 18.05 72.22 M364.61 72.22 C262.21 72.22, 159.81 72.22, 18.05 72.22 M18.05 72.22 C6.02 72.22, 0 66.2, 0 54.16 M18.05 72.22 C6.02 72.22, 0 66.2, 0 54.16 M0 54.16 C0 40.49, 0 26.82, 0 18.05 M0 54.16 C0 41.31, 0 28.46, 0 18.05 M0 18.05 C0 6.02, 6.02 0, 18.05 0 M0 18.05 C0 6.02, 6.02 0, 18.05 0" stroke="#1e1e1e" stroke-width="2" fill="none"/></g><g transform="translate(168.14918896806807 392.4681989089474) rotate(0 76.359375 20.700000000000003)"><text x="76.359375" y="33.120703125" font-family="Helvetica, Segoe UI Emoji" font-size="36px" fill="#1e1e1e" text-anchor="middle" style="white-space: pre;" direction="ltr" dominant-baseline="alphabetic">Transport</text></g><g stroke-linecap="round" transform="translate(53.17518954579373 481.2776783268422) rotate(0 191.33337402343747 37.37445391138563)"><path d="M18.69 0 C94.68 0, 170.68 0, 363.98 0 C376.44 0, 382.67 6.23, 382.67 18.69 C382.67 26.33, 382.67 33.98, 382.67 56.06 C382.67 68.52, 376.44 74.75, 363.98 74.75 C273.64 74.75, 183.31 74.75, 18.69 74.75 C6.23 74.75, 0 68.52, 0 56.06 C0 46.56, 0 37.06, 0 18.69 C0 6.23, 6.23 0, 18.69 0" stroke="none" stroke-width="0" fill="#ff9e01"/><path d="M18.69 0 C103.38 0, 188.07 0, 363.98 0 M18.69 0 C129.49 0, 240.3 0, 363.98 0 M363.98 0 C376.44 0, 382.67 6.23, 382.67 18.69 M363.98 0 C376.44 0, 382.67 6.23, 382.67 18.69 M382.67 18.69 C382.67 26.49, 382.67 34.3, 382.67 56.06 M382.67 18.69 C382.67 29.77, 382.67 40.86, 382.67 56.06 M382.67 56.06 C382.67 68.52, 376.44 74.75, 363.98 74.75 M382.67 56.06 C382.67 68.52, 376.44 74.75, 363.98 74.75 M363.98 74.75 C240.92 74.75, 117.86 74.75, 18.69 74.75 M363.98 74.75 C233.25 74.75, 102.51 74.75, 18.69 74.75 M18.69 74.75 C6.23 74.75, 0 68.52, 0 56.06 M18.69 74.75 C6.23 74.75, 0 68.52, 0 56.06 M0 56.06 C0 42.27, 0 28.47, 0 18.69 M0 56.06 C0 47.59, 0 39.13, 0 18.69 M0 18.69 C0 6.23, 6.23 0, 18.69 0 M0 18.69 C0 6.23, 6.23 0, 18.69 0" stroke="#1e1e1e" stroke-width="2" fill="none"/></g><g transform="translate(154.46461825673123 497.9521322382278) rotate(0 90.0439453125 20.700000000000003)"><text x="90.0439453125" y="33.120703125" font-family="Helvetica, Segoe UI Emoji" font-size="36px" fill="#1e1e1e" text-anchor="middle" style="white-space: pre;" direction="ltr" dominant-baseline="alphabetic">Vermittlung</text></g><g stroke-linecap="round" transform="translate(53.17518952279215 588.0278781644251) rotate(0 191.33337402343747 31.505570077607103)"><path d="M15.75 0 C131.26 0, 246.76 0, 366.91 0 C377.42 0, 382.67 5.25, 382.67 15.75 C382.67 25.38, 382.67 35.02, 382.67 47.26 C382.67 57.76, 377.42 63.01, 366.91 63.01 C272.55 63.01, 178.19 63.01, 15.75 63.01 C5.25 63.01, 0 57.76, 0 47.26 C0 34.8, 0 22.35, 0 15.75 C0 5.25, 5.25 0, 15.75 0" stroke="none" stroke-width="0" fill="#d050a5"/><path d="M15.75 0 C155.02 0, 294.3 0, 366.91 0 M15.75 0 C122.78 0, 229.82 0, 366.91 0 M366.91 0 C377.42 0, 382.67 5.25, 382.67 15.75 M366.91 0 C377.42 0, 382.67 5.25, 382.67 15.75 M382.67 15.75 C382.67 25.2, 382.67 34.66, 382.67 47.26 M382.67 15.75 C382.67 26.53, 382.67 37.31, 382.67 47.26 M382.67 47.26 C382.67 57.76, 377.42 63.01, 366.91 63.01 M382.67 47.26 C382.67 57.76, 377.42 63.01, 366.91 63.01 M366.91 63.01 C252.3 63.01, 137.69 63.01, 15.75 63.01 M366.91 63.01 C281.19 63.01, 195.47 63.01, 15.75 63.01 M15.75 63.01 C5.25 63.01, 0 57.76, 0 47.26 M15.75 63.01 C5.25 63.01, 0 57.76, 0 47.26 M0 47.26 C0 38.36, 0 29.47, 0 15.75 M0 47.26 C0 39.73, 0 32.21, 0 15.75 M0 15.75 C0 5.25, 5.25 0, 15.75 0 M0 15.75 C0 5.25, 5.25 0, 15.75 0" stroke="#1e1e1e" stroke-width="2" fill="none"/></g><g transform="translate(163.45582917122965 598.8334482420323) rotate(0 81.052734375 20.700000000000003)"><text x="81.052734375" y="33.120703125" font-family="Helvetica, Segoe UI Emoji" font-size="36px" fill="#1e1e1e" text-anchor="middle" style="white-space: pre;" direction="ltr" dominant-baseline="alphabetic">Sicherung</text></g><g stroke-linecap="round" transform="translate(53.17518945075119 663.8341098935449) rotate(0 191.33337402343747 31.505570077607103)"><path d="M15.75 0 C124.22 0, 232.68 0, 366.91 0 C377.42 0, 382.67 5.25, 382.67 15.75 C382.67 22.89, 382.67 30.02, 382.67 47.26 C382.67 57.76, 377.42 63.01, 366.91 63.01 C268.71 63.01, 170.51 63.01, 15.75 63.01 C5.25 63.01, 0 57.76, 0 47.26 C0 37.53, 0 27.8, 0 15.75 C0 5.25, 5.25 0, 15.75 0" stroke="none" stroke-width="0" fill="#d050a5"/><path d="M15.75 0 C121.09 0, 226.42 0, 366.91 0 M15.75 0 C97.32 0, 178.89 0, 366.91 0 M366.91 0 C377.42 0, 382.67 5.25, 382.67 15.75 M366.91 0 C377.42 0, 382.67 5.25, 382.67 15.75 M382.67 15.75 C382.67 23.51, 382.67 31.27, 382.67 47.26 M382.67 15.75 C382.67 26.64, 382.67 37.52, 382.67 47.26 M382.67 47.26 C382.67 57.76, 377.42 63.01, 366.91 63.01 M382.67 47.26 C382.67 57.76, 377.42 63.01, 366.91 63.01 M366.91 63.01 C233.26 63.01, 99.6 63.01, 15.75 63.01 M366.91 63.01 C283.68 63.01, 200.45 63.01, 15.75 63.01 M15.75 63.01 C5.25 63.01, 0 57.76, 0 47.26 M15.75 63.01 C5.25 63.01, 0 57.76, 0 47.26 M0 47.26 C0 40.24, 0 33.22, 0 15.75 M0 47.26 C0 37.31, 0 27.37, 0 15.75 M0 15.75 C0 5.25, 5.25 0, 15.75 0 M0 15.75 C0 5.25, 5.25 0, 15.75 0" stroke="#1e1e1e" stroke-width="2" fill="none"/></g><g transform="translate(126.42750878668869 674.639679971152) rotate(0 118.0810546875 20.69999999999999)"><text x="118.0810546875" y="33.120703125" font-family="Helvetica, Segoe UI Emoji" font-size="36px" fill="#1e1e1e" text-anchor="middle" style="white-space: pre;" direction="ltr" dominant-baseline="alphabetic">Bitübertragung</text></g><g transform="translate(156.0507280153601 10) rotate(0 90.0263671875 20.69999999999999)"><text x="0" y="33.120703125" font-family="Helvetica, Segoe UI Emoji" font-size="36px" fill="#1e1e1e" text-anchor="start" style="white-space: pre;" direction="ltr" dominant-baseline="alphabetic">OSI-Modell</text></g><g transform="translate(591.5075880684866 10.000000093432561) rotate(0 117.0263671875 20.69999999999999)"><text x="0" y="33.120703125" font-family="Helvetica, Segoe UI Emoji" font-size="36px" fill="#1e1e1e" text-anchor="start" style="white-space: pre;" direction="ltr" dominant-baseline="alphabetic">TCP/IP-Modell</text></g><g transform="translate(952.0153096288975 10.000000547810316) rotate(0 184.095703125 20.69999999999999)"><text x="0" y="33.120703125" font-family="Helvetica, Segoe UI Emoji" font-size="36px" fill="#1e1e1e" text-anchor="start" style="white-space: pre;" direction="ltr" dominant-baseline="alphabetic">Beispiele für Protokolle</text></g><g stroke-linecap="round" transform="translate(978.0889100829768 588.0278781673761) rotate(0 158.02210281030113 69.40868596072805)"><path d="M32 0 C86.41 0, 140.82 0, 284.04 0 C305.38 0, 316.04 10.67, 316.04 32 C316.04 57.6, 316.04 83.19, 316.04 106.82 C316.04 128.15, 305.38 138.82, 284.04 138.82 C226.36 138.82, 168.69 138.82, 32 138.82 C10.67 138.82, 0 128.15, 0 106.82 C0 79.88, 0 52.94, 0 32 C0 10.67, 10.67 0, 32 0" stroke="none" stroke-width="0" fill="#d050a5"/><path d="M32 0 C113.21 0, 194.42 0, 284.04 0 M32 0 C123.66 0, 215.31 0, 284.04 0 M284.04 0 C305.38 0, 316.04 10.67, 316.04 32 M284.04 0 C305.38 0, 316.04 10.67, 316.04 32 M316.04 32 C316.04 50.17, 316.04 68.33, 316.04 106.82 M316.04 32 C316.04 60.61, 316.04 89.22, 316.04 106.82 M316.04 106.82 C316.04 128.15, 305.38 138.82, 284.04 138.82 M316.04 106.82 C316.04 128.15, 305.38 138.82, 284.04 138.82 M284.04 138.82 C207.05 138.82, 130.06 138.82, 32 138.82 M284.04 138.82 C212.06 138.82, 140.08 138.82, 32 138.82 M32 138.82 C10.67 138.82, 0 128.15, 0 106.82 M32 138.82 C10.67 138.82, 0 128.15, 0 106.82 M0 106.82 C0 82.12, 0 57.42, 0 32 M0 106.82 C0 86.22, 0 65.62, 0 32 M0 32 C0 10.67, 10.67 0, 32 0 M0 32 C0 10.67, 10.67 0, 32 0" stroke="#1e1e1e" stroke-width="2" fill="none"/></g><g transform="translate(1001.0582785182779 636.7365641281042) rotate(0 135.052734375 20.69999999999999)"><text x="135.052734375" y="33.120703125" font-family="Helvetica, Segoe UI Emoji" font-size="36px" fill="#1e1e1e" text-anchor="middle" style="white-space: pre;" direction="ltr" dominant-baseline="alphabetic">Ethernet / WLAN</text></g><g stroke-linecap="round" transform="translate(978.0889097864615 481.2776779252981) rotate(0 158.02210295855878 37.37445391138563)"><path d="M18.69 0 C99.89 0, 181.1 0, 297.36 0 C309.82 0, 316.04 6.23, 316.04 18.69 C316.04 27.97, 316.04 37.25, 316.04 56.06 C316.04 68.52, 309.82 74.75, 297.36 74.75 C207.13 74.75, 116.89 74.75, 18.69 74.75 C6.23 74.75, 0 68.52, 0 56.06 C0 46.81, 0 37.55, 0 18.69 C0 6.23, 6.23 0, 18.69 0" stroke="none" stroke-width="0" fill="#ff9e01"/><path d="M18.69 0 C92.75 0, 166.81 0, 297.36 0 M18.69 0 C89.72 0, 160.76 0, 297.36 0 M297.36 0 C309.82 0, 316.04 6.23, 316.04 18.69 M297.36 0 C309.82 0, 316.04 6.23, 316.04 18.69 M316.04 18.69 C316.04 26.47, 316.04 34.26, 316.04 56.06 M316.04 18.69 C316.04 31.27, 316.04 43.85, 316.04 56.06 M316.04 56.06 C316.04 68.52, 309.82 74.75, 297.36 74.75 M316.04 56.06 C316.04 68.52, 309.82 74.75, 297.36 74.75 M297.36 74.75 C214.34 74.75, 131.33 74.75, 18.69 74.75 M297.36 74.75 C230.81 74.75, 164.26 74.75, 18.69 74.75 M18.69 74.75 C6.23 74.75, 0 68.52, 0 56.06 M18.69 74.75 C6.23 74.75, 0 68.52, 0 56.06 M0 56.06 C0 47, 0 37.94, 0 18.69 M0 56.06 C0 42.25, 0 28.43, 0 18.69 M0 18.69 C0 6.23, 6.23 0, 18.69 0 M0 18.69 C0 6.23, 6.23 0, 18.69 0" stroke="#1e1e1e" stroke-width="2" fill="none"/></g><g transform="translate(1119.1041768075202 497.95213183668375) rotate(0 17.0068359375 20.700000000000003)"><text x="17.0068359375" y="33.120703125" font-family="Helvetica, Segoe UI Emoji" font-size="36px" fill="#1e1e1e" text-anchor="middle" style="white-space: pre;" direction="ltr" dominant-baseline="alphabetic">IP</text></g><g stroke-linecap="round" transform="translate(978.0889094321719 377.06001118636686) rotate(0 87.5073111357035 36.10818750279175)"><path d="M18.05 0 C49.3 0, 80.55 0, 156.96 0 C169 0, 175.01 6.02, 175.01 18.05 C175.01 28.86, 175.01 39.68, 175.01 54.16 C175.01 66.2, 169 72.22, 156.96 72.22 C114.24 72.22, 71.53 72.22, 18.05 72.22 C6.02 72.22, 0 66.2, 0 54.16 C0 41.86, 0 29.56, 0 18.05 C0 6.02, 6.02 0, 18.05 0" stroke="none" stroke-width="0" fill="#228be6"/><path d="M18.05 0 C50.15 0, 82.25 0, 156.96 0 M18.05 0 C59.07 0, 100.08 0, 156.96 0 M156.96 0 C169 0, 175.01 6.02, 175.01 18.05 M156.96 0 C169 0, 175.01 6.02, 175.01 18.05 M175.01 18.05 C175.01 26.96, 175.01 35.86, 175.01 54.16 M175.01 18.05 C175.01 26.63, 175.01 35.2, 175.01 54.16 M175.01 54.16 C175.01 66.2, 169 72.22, 156.96 72.22 M175.01 54.16 C175.01 66.2, 169 72.22, 156.96 72.22 M156.96 72.22 C125.31 72.22, 93.66 72.22, 18.05 72.22 M156.96 72.22 C128.65 72.22, 100.33 72.22, 18.05 72.22 M18.05 72.22 C6.02 72.22, 0 66.2, 0 54.16 M18.05 72.22 C6.02 72.22, 0 66.2, 0 54.16 M0 54.16 C0 41.23, 0 28.3, 0 18.05 M0 54.16 C0 46.18, 0 38.21, 0 18.05 M0 18.05 C0 6.02, 6.02 0, 18.05 0 M0 18.05 C0 6.02, 6.02 0, 18.05 0" stroke="#1e1e1e" stroke-width="2" fill="none"/></g><g transform="translate(1029.5962205678754 392.4681986891586) rotate(0 36 20.700000000000003)"><text x="36" y="33.120703125" font-family="Helvetica, Segoe UI Emoji" font-size="36px" fill="#1e1e1e" text-anchor="middle" style="white-space: pre;" direction="ltr" dominant-baseline="alphabetic">TCP</text></g><g stroke-linecap="round" transform="translate(1178.3748452652317 377.060011217069) rotate(0 57.87913521917369 36.10818750279175)"><path d="M18.05 0 C35.31 0, 52.56 0, 97.7 0 C109.74 0, 115.76 6.02, 115.76 18.05 C115.76 30.51, 115.76 42.96, 115.76 54.16 C115.76 66.2, 109.74 72.22, 97.7 72.22 C72.13 72.22, 46.55 72.22, 18.05 72.22 C6.02 72.22, 0 66.2, 0 54.16 C0 46.33, 0 38.51, 0 18.05 C0 6.02, 6.02 0, 18.05 0" stroke="none" stroke-width="0" fill="#228be6"/><path d="M18.05 0 C40.29 0, 62.52 0, 97.7 0 M18.05 0 C37.53 0, 57.01 0, 97.7 0 M97.7 0 C109.74 0, 115.76 6.02, 115.76 18.05 M97.7 0 C109.74 0, 115.76 6.02, 115.76 18.05 M115.76 18.05 C115.76 29.24, 115.76 40.42, 115.76 54.16 M115.76 18.05 C115.76 32.41, 115.76 46.76, 115.76 54.16 M115.76 54.16 C115.76 66.2, 109.74 72.22, 97.7 72.22 M115.76 54.16 C115.76 66.2, 109.74 72.22, 97.7 72.22 M97.7 72.22 C73.74 72.22, 49.77 72.22, 18.05 72.22 M97.7 72.22 C75.12 72.22, 52.54 72.22, 18.05 72.22 M18.05 72.22 C6.02 72.22, 0 66.2, 0 54.16 M18.05 72.22 C6.02 72.22, 0 66.2, 0 54.16 M0 54.16 C0 43.37, 0 32.57, 0 18.05 M0 54.16 C0 41.17, 0 28.17, 0 18.05 M0 18.05 C0 6.02, 6.02 0, 18.05 0 M0 18.05 C0 6.02, 6.02 0, 18.05 0" stroke="#1e1e1e" stroke-width="2" fill="none"/></g><g transform="translate(1198.2500742344052 392.46819871986077) rotate(0 38.00390625 20.699999999999996)"><text x="38.00390625" y="33.120703125" font-family="Helvetica, Segoe UI Emoji" font-size="36px" fill="#1e1e1e" text-anchor="middle" style="white-space: pre;" direction="ltr" dominant-baseline="alphabetic">UDP</text></g><g stroke-linecap="round" transform="translate(882.33166593756 206.01868443715256) rotate(270 122.78034320007532 27.023099872848746)"><path d="M13.51 0 C65.84 0, 118.17 0, 232.05 0 C241.06 0, 245.56 4.5, 245.56 13.51 C245.56 20.75, 245.56 27.98, 245.56 40.53 C245.56 49.54, 241.06 54.05, 232.05 54.05 C152.03 54.05, 72 54.05, 13.51 54.05 C4.5 54.05, 0 49.54, 0 40.53 C0 29.75, 0 18.96, 0 13.51 C0 4.5, 4.5 0, 13.51 0" stroke="none" stroke-width="0" fill="#fa5252"/><path d="M13.51 0 C77.75 0, 142 0, 232.05 0 M13.51 0 C94.58 0, 175.65 0, 232.05 0 M232.05 0 C241.06 0, 245.56 4.5, 245.56 13.51 M232.05 0 C241.06 0, 245.56 4.5, 245.56 13.51 M245.56 13.51 C245.56 20.54, 245.56 27.57, 245.56 40.53 M245.56 13.51 C245.56 22.97, 245.56 32.44, 245.56 40.53 M245.56 40.53 C245.56 49.54, 241.06 54.05, 232.05 54.05 M245.56 40.53 C245.56 49.54, 241.06 54.05, 232.05 54.05 M232.05 54.05 C161.98 54.05, 91.92 54.05, 13.51 54.05 M232.05 54.05 C163.44 54.05, 94.84 54.05, 13.51 54.05 M13.51 54.05 C4.5 54.05, 0 49.54, 0 40.53 M13.51 54.05 C4.5 54.05, 0 49.54, 0 40.53 M0 40.53 C0 30.49, 0 20.44, 0 13.51 M0 40.53 C0 30.73, 0 20.93, 0 13.51 M0 13.51 C0 4.5, 4.5 0, 13.51 0 M0 13.51 C0 4.5, 4.5 0, 13.51 0" stroke="#1e1e1e" stroke-width="2" fill="none"/></g><g transform="translate(946.1110325751354 212.3417843100013) rotate(270 59.0009765625 20.700000000000003)"><text x="59.0009765625" y="33.120703125" font-family="Helvetica, Segoe UI Emoji" font-size="36px" fill="#1e1e1e" text-anchor="middle" style="white-space: pre;" direction="ltr" dominant-baseline="alphabetic">HTTPS</text></g><g stroke-linecap="round" transform="translate(942.8158769183431 206.01868409294525) rotate(270 122.78034320007521 27.023099872848746)"><path d="M13.51 0 C79.54 0, 145.57 0, 232.05 0 C241.06 0, 245.56 4.5, 245.56 13.51 C245.56 22.2, 245.56 30.89, 245.56 40.53 C245.56 49.54, 241.06 54.05, 232.05 54.05 C151.76 54.05, 71.47 54.05, 13.51 54.05 C4.5 54.05, 0 49.54, 0 40.53 C0 32.59, 0 24.64, 0 13.51 C0 4.5, 4.5 0, 13.51 0" stroke="none" stroke-width="0" fill="#fa5252"/><path d="M13.51 0 C67.1 0, 120.68 0, 232.05 0 M13.51 0 C98.36 0, 183.21 0, 232.05 0 M232.05 0 C241.06 0, 245.56 4.5, 245.56 13.51 M232.05 0 C241.06 0, 245.56 4.5, 245.56 13.51 M245.56 13.51 C245.56 22.53, 245.56 31.54, 245.56 40.53 M245.56 13.51 C245.56 23.97, 245.56 34.43, 245.56 40.53 M245.56 40.53 C245.56 49.54, 241.06 54.05, 232.05 54.05 M245.56 40.53 C245.56 49.54, 241.06 54.05, 232.05 54.05 M232.05 54.05 C155.32 54.05, 78.6 54.05, 13.51 54.05 M232.05 54.05 C187.93 54.05, 143.81 54.05, 13.51 54.05 M13.51 54.05 C4.5 54.05, 0 49.54, 0 40.53 M13.51 54.05 C4.5 54.05, 0 49.54, 0 40.53 M0 40.53 C0 34.27, 0 28, 0 13.51 M0 40.53 C0 30.02, 0 19.5, 0 13.51 M0 13.51 C0 4.5, 4.5 0, 13.51 0 M0 13.51 C0 4.5, 4.5 0, 13.51 0" stroke="#1e1e1e" stroke-width="2" fill="none"/></g><g transform="translate(962.5796185559183 212.34178396579398) rotate(270 103.0166015625 20.700000000000003)"><text x="103.0166015625" y="33.120703125" font-family="Helvetica, Segoe UI Emoji" font-size="36px" fill="#1e1e1e" text-anchor="middle" style="white-space: pre;" direction="ltr" dominant-baseline="alphabetic">SMTP / POP</text></g><g stroke-linecap="round" transform="translate(1003.3000882481336 206.01868460358403) rotate(270 122.78034320007521 27.02309987284869)"><path d="M13.51 0 C81.56 0, 149.62 0, 232.05 0 C241.06 0, 245.56 4.5, 245.56 13.51 C245.56 20.76, 245.56 28.02, 245.56 40.53 C245.56 49.54, 241.06 54.05, 232.05 54.05 C180.7 54.05, 129.35 54.05, 13.51 54.05 C4.5 54.05, 0 49.54, 0 40.53 C0 31.65, 0 22.77, 0 13.51 C0 4.5, 4.5 0, 13.51 0" stroke="none" stroke-width="0" fill="#fa5252"/><path d="M13.51 0 C68.25 0, 122.98 0, 232.05 0 M13.51 0 C99.5 0, 185.48 0, 232.05 0 M232.05 0 C241.06 0, 245.56 4.5, 245.56 13.51 M232.05 0 C241.06 0, 245.56 4.5, 245.56 13.51 M245.56 13.51 C245.56 18.95, 245.56 24.39, 245.56 40.53 M245.56 13.51 C245.56 21.49, 245.56 29.47, 245.56 40.53 M245.56 40.53 C245.56 49.54, 241.06 54.05, 232.05 54.05 M245.56 40.53 C245.56 49.54, 241.06 54.05, 232.05 54.05 M232.05 54.05 C149.11 54.05, 66.17 54.05, 13.51 54.05 M232.05 54.05 C174.73 54.05, 117.4 54.05, 13.51 54.05 M13.51 54.05 C4.5 54.05, 0 49.54, 0 40.53 M13.51 54.05 C4.5 54.05, 0 49.54, 0 40.53 M0 40.53 C0 31.22, 0 21.9, 0 13.51 M0 40.53 C0 31.91, 0 23.28, 0 13.51 M0 13.51 C0 4.5, 4.5 0, 13.51 0 M0 13.51 C0 4.5, 4.5 0, 13.51 0" stroke="#1e1e1e" stroke-width="2" fill="none"/></g><g transform="translate(1089.0696892607089 212.34178447643274) rotate(270 37.0107421875 20.700000000000003)"><text x="37.0107421875" y="33.120703125" font-family="Helvetica, Segoe UI Emoji" font-size="36px" fill="#1e1e1e" text-anchor="middle" style="white-space: pre;" direction="ltr" dominant-baseline="alphabetic">SSH</text></g><g stroke-linecap="round" transform="translate(1082.617602303459 204.99558435039654) rotate(270 122.78034320007521 27.02309987284869)"><path d="M13.51 0 C86.6 0, 159.7 0, 232.05 0 C241.06 0, 245.56 4.5, 245.56 13.51 C245.56 22.04, 245.56 30.57, 245.56 40.53 C245.56 49.54, 241.06 54.05, 232.05 54.05 C160.55 54.05, 89.04 54.05, 13.51 54.05 C4.5 54.05, 0 49.54, 0 40.53 C0 32.74, 0 24.95, 0 13.51 C0 4.5, 4.5 0, 13.51 0" stroke="none" stroke-width="0" fill="#fa5252"/><path d="M13.51 0 C65.51 0, 117.51 0, 232.05 0 M13.51 0 C58.15 0, 102.79 0, 232.05 0 M232.05 0 C241.06 0, 245.56 4.5, 245.56 13.51 M232.05 0 C241.06 0, 245.56 4.5, 245.56 13.51 M245.56 13.51 C245.56 19.79, 245.56 26.07, 245.56 40.53 M245.56 13.51 C245.56 21.5, 245.56 29.48, 245.56 40.53 M245.56 40.53 C245.56 49.54, 241.06 54.05, 232.05 54.05 M245.56 40.53 C245.56 49.54, 241.06 54.05, 232.05 54.05 M232.05 54.05 C149.31 54.05, 66.57 54.05, 13.51 54.05 M232.05 54.05 C154.27 54.05, 76.49 54.05, 13.51 54.05 M13.51 54.05 C4.5 54.05, 0 49.54, 0 40.53 M13.51 54.05 C4.5 54.05, 0 49.54, 0 40.53 M0 40.53 C0 33.79, 0 27.05, 0 13.51 M0 40.53 C0 32.66, 0 24.79, 0 13.51 M0 13.51 C0 4.5, 4.5 0, 13.51 0 M0 13.51 C0 4.5, 4.5 0, 13.51 0" stroke="#1e1e1e" stroke-width="2" fill="none"/></g><g transform="translate(1154.3950158160342 211.3186842232452) rotate(270 51.0029296875 20.700000000000003)"><text x="51.0029296875" y="33.120703125" font-family="Helvetica, Segoe UI Emoji" font-size="36px" fill="#1e1e1e" text-anchor="middle" style="white-space: pre;" direction="ltr" dominant-baseline="alphabetic">DHCP</text></g><g stroke-linecap="round" transform="translate(1145.3527720651637 206.01868433550436) rotate(270 122.78034320007521 26.00000000000003)"><path d="M13 0 C70.44 0, 127.88 0, 232.56 0 C241.23 0, 245.56 4.33, 245.56 13 C245.56 19.61, 245.56 26.22, 245.56 39 C245.56 47.67, 241.23 52, 232.56 52 C163.87 52, 95.18 52, 13 52 C4.33 52, 0 47.67, 0 39 C0 32.4, 0 25.8, 0 13 C0 4.33, 4.33 0, 13 0" stroke="none" stroke-width="0" fill="#fa5252"/><path d="M13 0 C58.86 0, 104.71 0, 232.56 0 M13 0 C78.12 0, 143.24 0, 232.56 0 M232.56 0 C241.23 0, 245.56 4.33, 245.56 13 M232.56 0 C241.23 0, 245.56 4.33, 245.56 13 M245.56 13 C245.56 22.27, 245.56 31.53, 245.56 39 M245.56 13 C245.56 22.84, 245.56 32.69, 245.56 39 M245.56 39 C245.56 47.67, 241.23 52, 232.56 52 M245.56 39 C245.56 47.67, 241.23 52, 232.56 52 M232.56 52 C151.52 52, 70.47 52, 13 52 M232.56 52 C182.81 52, 133.06 52, 13 52 M13 52 C4.33 52, 0 47.67, 0 39 M13 52 C4.33 52, 0 47.67, 0 39 M0 39 C0 33.28, 0 27.56, 0 13 M0 39 C0 32.77, 0 26.55, 0 13 M0 13 C0 4.33, 4.33 0, 13 0 M0 13 C0 4.33, 4.33 0, 13 0" stroke="#1e1e1e" stroke-width="2" fill="none"/></g><g transform="translate(1230.1028418277388 211.31868433550437) rotate(270 38.0302734375 20.700000000000003)"><text x="38.0302734375" y="33.120703125" font-family="Helvetica, Segoe UI Emoji" font-size="36px" fill="#1e1e1e" text-anchor="middle" style="white-space: pre;" direction="ltr" dominant-baseline="alphabetic">VoIP</text></g><g transform="translate(10.00000074958416 126.00738758365867) rotate(0 10.0107421875 20.700000000000003)"><text x="0" y="33.120703125" font-family="Helvetica, Segoe UI Emoji" font-size="36px" fill="#1e1e1e" text-anchor="start" style="white-space: pre;" direction="ltr" dominant-baseline="alphabetic">7</text></g><g transform="translate(10.000001121359446 211.31868409926233) rotate(0 10.0107421875 20.700000000000003)"><text x="0" y="33.120703125" font-family="Helvetica, Segoe UI Emoji" font-size="36px" fill="#1e1e1e" text-anchor="start" style="white-space: pre;" direction="ltr" dominant-baseline="alphabetic">6</text></g><g transform="translate(10.000001924584353 299.01393869062883) rotate(0 10.0107421875 20.7)"><text x="0" y="33.120703125" font-family="Helvetica, Segoe UI Emoji" font-size="36px" fill="#1e1e1e" text-anchor="start" style="white-space: pre;" direction="ltr" dominant-baseline="alphabetic">5</text></g><g transform="translate(10.0000019396673 392.46819778147477) rotate(0 10.0107421875 20.7)"><text x="0" y="33.120703125" font-family="Helvetica, Segoe UI Emoji" font-size="36px" fill="#1e1e1e" text-anchor="start" style="white-space: pre;" direction="ltr" dominant-baseline="alphabetic">4</text></g><g transform="translate(10.00000263661616 497.95213250928373) rotate(0 10.0107421875 20.699999999999996)"><text x="0" y="33.120703125" font-family="Helvetica, Segoe UI Emoji" font-size="36px" fill="#1e1e1e" text-anchor="start" style="white-space: pre;" direction="ltr" dominant-baseline="alphabetic">3</text></g><g transform="translate(10.000003121359327 598.833447812682) rotate(0 10.0107421875 20.700000000000003)"><text x="0" y="33.120703125" font-family="Helvetica, Segoe UI Emoji" font-size="36px" fill="#1e1e1e" text-anchor="start" style="white-space: pre;" direction="ltr" dominant-baseline="alphabetic">2</text></g><g transform="translate(10 674.6396799645547) rotate(0 10.0107421875 20.69999999999999)"><text x="0" y="33.120703125" font-family="Helvetica, Segoe UI Emoji" font-size="36px" fill="#1e1e1e" text-anchor="start" style="white-space: pre;" direction="ltr" dominant-baseline="alphabetic">1</text></g></svg>