<svg version="1.1" xmlns="http://www.w3.org/2000/svg" viewBox="0 0 1074.896318594607 687.2861866215003" width="1074.896318594607" height="687.2861866215003" filter="invert(93%) hue-rotate(180deg)" class="excalidraw-svg">
  <!-- svg-source:excalidraw -->
  
  <defs>
    <style class="style-fonts">
      @font-face {
        font-family: "Virgil";
        src: url("https://excalidraw.com/Virgil.woff2");
      }
      @font-face {
        font-family: "Cascadia";
        src: url("https://excalidraw.com/Cascadia.woff2");
      }
      @font-face {
        font-family: "Assistant";
        src: url("https://excalidraw.com/Assistant-Regular.woff2");
      }
    </style>
    
  </defs>
  <g stroke-linecap="round" transform="translate(10.000000058408887 301.3183196357624) rotate(0 191.33337402343747 45.55387120060315)"><path d="M22.78 0 C106.05 0, 189.32 0, 359.89 0 C375.07 0, 382.67 7.59, 382.67 22.78 C382.67 37.75, 382.67 52.72, 382.67 68.33 C382.67 83.52, 375.07 91.11, 359.89 91.11 C263.2 91.11, 166.52 91.11, 22.78 91.11 C7.59 91.11, 0 83.52, 0 68.33 C0 55.61, 0 42.88, 0 22.78 C0 7.59, 7.59 0, 22.78 0" stroke="none" stroke-width="0" fill="#228be6"/><path d="M22.78 0 C103.93 0, 185.08 0, 359.89 0 M22.78 0 C124.43 0, 226.08 0, 359.89 0 M359.89 0 C375.07 0, 382.67 7.59, 382.67 22.78 M359.89 0 C375.07 0, 382.67 7.59, 382.67 22.78 M382.67 22.78 C382.67 40.58, 382.67 58.37, 382.67 68.33 M382.67 22.78 C382.67 38.11, 382.67 53.45, 382.67 68.33 M382.67 68.33 C382.67 83.52, 375.07 91.11, 359.89 91.11 M382.67 68.33 C382.67 83.52, 375.07 91.11, 359.89 91.11 M359.89 91.11 C235.79 91.11, 111.69 91.11, 22.78 91.11 M359.89 91.11 C248.69 91.11, 137.49 91.11, 22.78 91.11 M22.78 91.11 C7.59 91.11, 0 83.52, 0 68.33 M22.78 91.11 C7.59 91.11, 0 83.52, 0 68.33 M0 68.33 C0 55.44, 0 42.55, 0 22.78 M0 68.33 C0 58.26, 0 48.19, 0 22.78 M0 22.78 C0 7.59, 7.59 0, 22.78 0 M0 22.78 C0 7.59, 7.59 0, 22.78 0" stroke="#1e1e1e" stroke-width="2" fill="none"/></g><g transform="translate(124.97399908184639 326.17219083636553) rotate(0 76.359375 20.7)"><text x="76.359375" y="33.120703125" font-family="Helvetica, Segoe UI Emoji" font-size="36px" fill="#1e1e1e" text-anchor="middle" style="white-space: pre;" direction="ltr" dominant-baseline="alphabetic">Transport</text></g><g stroke-linecap="round" transform="translate(10.00000045110221 419.5359868473912) rotate(0 191.33337402343747 46.500000010428856)"><path d="M23.25 0 C130.17 0, 237.09 0, 359.42 0 C374.92 0, 382.67 7.75, 382.67 23.25 C382.67 38.17, 382.67 53.09, 382.67 69.75 C382.67 85.25, 374.92 93, 359.42 93 C245.25 93, 131.09 93, 23.25 93 C7.75 93, 0 85.25, 0 69.75 C0 55.68, 0 41.62, 0 23.25 C0 7.75, 7.75 0, 23.25 0" stroke="none" stroke-width="0" fill="#ff9e01"/><path d="M23.25 0 C144.96 0, 266.66 0, 359.42 0 M23.25 0 C92.09 0, 160.93 0, 359.42 0 M359.42 0 C374.92 0, 382.67 7.75, 382.67 23.25 M359.42 0 C374.92 0, 382.67 7.75, 382.67 23.25 M382.67 23.25 C382.67 37.26, 382.67 51.27, 382.67 69.75 M382.67 23.25 C382.67 40.75, 382.67 58.24, 382.67 69.75 M382.67 69.75 C382.67 85.25, 374.92 93, 359.42 93 M382.67 69.75 C382.67 85.25, 374.92 93, 359.42 93 M359.42 93 C256.96 93, 154.5 93, 23.25 93 M359.42 93 C279.83 93, 200.25 93, 23.25 93 M23.25 93 C7.75 93, 0 85.25, 0 69.75 M23.25 93 C7.75 93, 0 85.25, 0 69.75 M0 69.75 C0 60.14, 0 50.53, 0 23.25 M0 69.75 C0 59.79, 0 49.83, 0 23.25 M0 23.25 C0 7.75, 7.75 0, 23.25 0 M0 23.25 C0 7.75, 7.75 0, 23.25 0" stroke="#1e1e1e" stroke-width="2" fill="none"/></g><g transform="translate(140.2933354120397 445.33598685782005) rotate(0 61.0400390625 20.699999999999996)"><text x="61.0400390625" y="33.120703125" font-family="Helvetica, Segoe UI Emoji" font-size="36px" fill="#1e1e1e" text-anchor="middle" style="white-space: pre;" direction="ltr" dominant-baseline="alphabetic">Internet</text></g><g stroke-linecap="round" transform="translate(10 532.2861868929807) rotate(0 191.33337402343747 69.40868596072804)"><path d="M32 0 C136.32 0, 240.64 0, 350.67 0 C372 0, 382.67 10.67, 382.67 32 C382.67 61.82, 382.67 91.63, 382.67 106.82 C382.67 128.15, 372 138.82, 350.67 138.82 C252.87 138.82, 155.07 138.82, 32 138.82 C10.67 138.82, 0 128.15, 0 106.82 C0 89.53, 0 72.25, 0 32 C0 10.67, 10.67 0, 32 0" stroke="none" stroke-width="0" fill="#d050a5"/><path d="M32 0 C133.93 0, 235.86 0, 350.67 0 M32 0 C149.36 0, 266.72 0, 350.67 0 M350.67 0 C372 0, 382.67 10.67, 382.67 32 M350.67 0 C372 0, 382.67 10.67, 382.67 32 M382.67 32 C382.67 50.21, 382.67 68.42, 382.67 106.82 M382.67 32 C382.67 54.39, 382.67 76.77, 382.67 106.82 M382.67 106.82 C382.67 128.15, 372 138.82, 350.67 138.82 M382.67 106.82 C382.67 128.15, 372 138.82, 350.67 138.82 M350.67 138.82 C258.83 138.82, 166.98 138.82, 32 138.82 M350.67 138.82 C253.62 138.82, 156.57 138.82, 32 138.82 M32 138.82 C10.67 138.82, 0 128.15, 0 106.82 M32 138.82 C10.67 138.82, 0 128.15, 0 106.82 M0 106.82 C0 87.16, 0 67.5, 0 32 M0 106.82 C0 88.06, 0 69.31, 0 32 M0 32 C0 10.67, 10.67 0, 32 0 M0 32 C0 10.67, 10.67 0, 32 0" stroke="#1e1e1e" stroke-width="2" fill="none"/></g><g transform="translate(105.2689208984375 580.9948728537088) rotate(0 96.064453125 20.700000000000003)"><text x="96.064453125" y="33.120703125" font-family="Helvetica, Segoe UI Emoji" font-size="36px" fill="#1e1e1e" text-anchor="middle" style="white-space: pre;" direction="ltr" dominant-baseline="alphabetic">Netzzugang</text></g><g stroke-linecap="round" transform="translate(561.4295214379714 10.317027390767748) rotate(0 251.73339843749994 129.5)"><path d="M32 0 C143 0, 254 0, 471.47 0 C492.8 0, 503.47 10.67, 503.47 32 C503.47 97.45, 503.47 162.91, 503.47 227 C503.47 248.33, 492.8 259, 471.47 259 C322.85 259, 174.23 259, 32 259 C10.67 259, 0 248.33, 0 227 C0 165.18, 0 103.35, 0 32 C0 10.67, 10.67 0, 32 0" stroke="none" stroke-width="0" fill="#fa5252"/><path d="M32 0 C121.8 0, 211.59 0, 471.47 0 M32 0 C157.12 0, 282.24 0, 471.47 0 M471.47 0 C492.8 0, 503.47 10.67, 503.47 32 M471.47 0 C492.8 0, 503.47 10.67, 503.47 32 M503.47 32 C503.47 86.39, 503.47 140.79, 503.47 227 M503.47 32 C503.47 85.85, 503.47 139.71, 503.47 227 M503.47 227 C503.47 248.33, 492.8 259, 471.47 259 M503.47 227 C503.47 248.33, 492.8 259, 471.47 259 M471.47 259 C360.6 259, 249.74 259, 32 259 M471.47 259 C347.45 259, 223.42 259, 32 259 M32 259 C10.67 259, 0 248.33, 0 227 M32 259 C10.67 259, 0 248.33, 0 227 M0 227 C0 157.39, 0 87.79, 0 32 M0 227 C0 157.29, 0 87.57, 0 32 M0 32 C0 10.67, 10.67 0, 32 0 M0 32 C0 10.67, 10.67 0, 32 0" stroke="#1e1e1e" stroke-width="2" fill="none"/></g><g transform="translate(602.4187792504713 57.01702739076774) rotate(0 210.74414062499997 82.8)"><text x="210.744140625" y="33.120703125" font-family="Helvetica, Segoe UI Emoji" font-size="36px" fill="#1e1e1e" text-anchor="middle" style="white-space: pre;" direction="ltr" dominant-baseline="alphabetic">DHCP Discovery:</text><text x="210.744140625" y="74.520703125" font-family="Helvetica, Segoe UI Emoji" font-size="36px" fill="#1e1e1e" text-anchor="middle" style="white-space: pre;" direction="ltr" dominant-baseline="alphabetic">Hallo? Ist da jemand? Ich</text><text x="210.744140625" y="115.92070312499999" font-family="Helvetica, Segoe UI Emoji" font-size="36px" fill="#1e1e1e" text-anchor="middle" style="white-space: pre;" direction="ltr" dominant-baseline="alphabetic">brauche IP, Subnetmaske,</text><text x="210.744140625" y="157.320703125" font-family="Helvetica, Segoe UI Emoji" font-size="36px" fill="#1e1e1e" text-anchor="middle" style="white-space: pre;" direction="ltr" dominant-baseline="alphabetic">Gateway, DNS, Domäne..!</text></g><g stroke-linecap="round" transform="translate(10.000000750760364 10.31702774650239) rotate(0 191.33337375919265 129.5)"><path d="M32 0 C121.42 0, 210.84 0, 350.67 0 C372 0, 382.67 10.67, 382.67 32 C382.67 96.15, 382.67 160.29, 382.67 227 C382.67 248.33, 372 259, 350.67 259 C249.45 259, 148.24 259, 32 259 C10.67 259, 0 248.33, 0 227 C0 178.93, 0 130.85, 0 32 C0 10.67, 10.67 0, 32 0" stroke="none" stroke-width="0" fill="#fa5252"/><path d="M32 0 C141.72 0, 251.44 0, 350.67 0 M32 0 C126.28 0, 220.56 0, 350.67 0 M350.67 0 C372 0, 382.67 10.67, 382.67 32 M350.67 0 C372 0, 382.67 10.67, 382.67 32 M382.67 32 C382.67 74.24, 382.67 116.47, 382.67 227 M382.67 32 C382.67 103.12, 382.67 174.23, 382.67 227 M382.67 227 C382.67 248.33, 372 259, 350.67 259 M382.67 227 C382.67 248.33, 372 259, 350.67 259 M350.67 259 C264.71 259, 178.76 259, 32 259 M350.67 259 C238.44 259, 126.21 259, 32 259 M32 259 C10.67 259, 0 248.33, 0 227 M32 259 C10.67 259, 0 248.33, 0 227 M0 227 C0 150.33, 0 73.67, 0 32 M0 227 C0 172.71, 0 118.41, 0 32 M0 32 C0 10.67, 10.67 0, 32 0 M0 32 C0 10.67, 10.67 0, 32 0" stroke="#1e1e1e" stroke-width="2" fill="none"/></g><g transform="translate(113.27575732245305 119.1170277465024) rotate(0 88.0576171875 20.700000000000003)"><text x="88.0576171875" y="33.120703125" font-family="Helvetica, Segoe UI Emoji" font-size="36px" fill="#1e1e1e" text-anchor="middle" style="white-space: pre;" direction="ltr" dominant-baseline="alphabetic">Application</text></g><g stroke-linecap="round" transform="translate(561.4295220544547 301.3183184770769) rotate(0 251.73339827007618 46.5)"><path d="M23.25 0 C137.49 0, 251.73 0, 480.22 0 C495.72 0, 503.47 7.75, 503.47 23.25 C503.47 41.23, 503.47 59.21, 503.47 69.75 C503.47 85.25, 495.72 93, 480.22 93 C328.31 93, 176.4 93, 23.25 93 C7.75 93, 0 85.25, 0 69.75 C0 59.73, 0 49.72, 0 23.25 C0 7.75, 7.75 0, 23.25 0" stroke="none" stroke-width="0" fill="#228be6"/><path d="M23.25 0 C180.59 0, 337.92 0, 480.22 0 M23.25 0 C127.73 0, 232.21 0, 480.22 0 M480.22 0 C495.72 0, 503.47 7.75, 503.47 23.25 M480.22 0 C495.72 0, 503.47 7.75, 503.47 23.25 M503.47 23.25 C503.47 39.72, 503.47 56.2, 503.47 69.75 M503.47 23.25 C503.47 33.08, 503.47 42.92, 503.47 69.75 M503.47 69.75 C503.47 85.25, 495.72 93, 480.22 93 M503.47 69.75 C503.47 85.25, 495.72 93, 480.22 93 M480.22 93 C298.95 93, 117.69 93, 23.25 93 M480.22 93 C334.85 93, 189.49 93, 23.25 93 M23.25 93 C7.75 93, 0 85.25, 0 69.75 M23.25 93 C7.75 93, 0 85.25, 0 69.75 M0 69.75 C0 51.41, 0 33.07, 0 23.25 M0 69.75 C0 51.27, 0 32.78, 0 23.25 M0 23.25 C0 7.75, 7.75 0, 23.25 0 M0 23.25 C0 7.75, 7.75 0, 23.25 0" stroke="#1e1e1e" stroke-width="2" fill="none"/></g><g transform="translate(707.1140921995308 306.4183184770769) rotate(0 106.048828125 41.4)"><text x="106.048828125" y="33.120703125" font-family="Helvetica, Segoe UI Emoji" font-size="36px" fill="#1e1e1e" text-anchor="middle" style="white-space: pre;" direction="ltr" dominant-baseline="alphabetic">Quell-Port:67</text><text x="106.048828125" y="74.520703125" font-family="Helvetica, Segoe UI Emoji" font-size="36px" fill="#1e1e1e" text-anchor="middle" style="white-space: pre;" direction="ltr" dominant-baseline="alphabetic">Ziel-Port: 68</text></g><g stroke-linecap="round" transform="translate(561.4295214091238 419.5359862839444) rotate(0 251.7333985927416 46.5)"><path d="M23.25 0 C125.29 0, 227.33 0, 480.22 0 C495.72 0, 503.47 7.75, 503.47 23.25 C503.47 40.09, 503.47 56.93, 503.47 69.75 C503.47 85.25, 495.72 93, 480.22 93 C344.13 93, 208.05 93, 23.25 93 C7.75 93, 0 85.25, 0 69.75 C0 56.93, 0 44.11, 0 23.25 C0 7.75, 7.75 0, 23.25 0" stroke="none" stroke-width="0" fill="#ff9e01"/><path d="M23.25 0 C118.77 0, 214.29 0, 480.22 0 M23.25 0 C178.65 0, 334.05 0, 480.22 0 M480.22 0 C495.72 0, 503.47 7.75, 503.47 23.25 M480.22 0 C495.72 0, 503.47 7.75, 503.47 23.25 M503.47 23.25 C503.47 41.15, 503.47 59.04, 503.47 69.75 M503.47 23.25 C503.47 35.33, 503.47 47.4, 503.47 69.75 M503.47 69.75 C503.47 85.25, 495.72 93, 480.22 93 M503.47 69.75 C503.47 85.25, 495.72 93, 480.22 93 M480.22 93 C385.33 93, 290.44 93, 23.25 93 M480.22 93 C302.06 93, 123.91 93, 23.25 93 M23.25 93 C7.75 93, 0 85.25, 0 69.75 M23.25 93 C7.75 93, 0 85.25, 0 69.75 M0 69.75 C0 56.42, 0 43.08, 0 23.25 M0 69.75 C0 59.89, 0 50.03, 0 23.25 M0 23.25 C0 7.75, 7.75 0, 23.25 0 M0 23.25 C0 7.75, 7.75 0, 23.25 0" stroke="#1e1e1e" stroke-width="2" fill="none"/></g><g transform="translate(639.0252246893654 424.6359862839444) rotate(0 174.1376953125 41.39999999999999)"><text x="174.1376953125" y="33.120703125" font-family="Helvetica, Segoe UI Emoji" font-size="36px" fill="#1e1e1e" text-anchor="middle" style="white-space: pre;" direction="ltr" dominant-baseline="alphabetic">Quelle: 0.0.0.0</text><text x="174.1376953125" y="74.520703125" font-family="Helvetica, Segoe UI Emoji" font-size="36px" fill="#1e1e1e" text-anchor="middle" style="white-space: pre;" direction="ltr" dominant-baseline="alphabetic">Ziel: 255.255.255.255</text></g><g stroke-linecap="round" transform="translate(561.4295216996353 532.2861866215003) rotate(0 251.73339844748585 72.5)"><path d="M32 0 C124.08 0, 216.15 0, 471.47 0 C492.8 0, 503.47 10.67, 503.47 32 C503.47 64.07, 503.47 96.14, 503.47 113 C503.47 134.33, 492.8 145, 471.47 145 C383.12 145, 294.78 145, 32 145 C10.67 145, 0 134.33, 0 113 C0 94.5, 0 76, 0 32 C0 10.67, 10.67 0, 32 0" stroke="none" stroke-width="0" fill="#d050a5"/><path d="M32 0 C187.9 0, 343.8 0, 471.47 0 M32 0 C141.69 0, 251.39 0, 471.47 0 M471.47 0 C492.8 0, 503.47 10.67, 503.47 32 M471.47 0 C492.8 0, 503.47 10.67, 503.47 32 M503.47 32 C503.47 49.5, 503.47 67.01, 503.47 113 M503.47 32 C503.47 57.44, 503.47 82.88, 503.47 113 M503.47 113 C503.47 134.33, 492.8 145, 471.47 145 M503.47 113 C503.47 134.33, 492.8 145, 471.47 145 M471.47 145 C318.15 145, 164.83 145, 32 145 M471.47 145 C330.89 145, 190.31 145, 32 145 M32 145 C10.67 145, 0 134.33, 0 113 M32 145 C10.67 145, 0 134.33, 0 113 M0 113 C0 87.91, 0 62.83, 0 32 M0 113 C0 85.06, 0 57.11, 0 32 M0 32 C0 10.67, 10.67 0, 32 0 M0 32 C0 10.67, 10.67 0, 32 0" stroke="#1e1e1e" stroke-width="2" fill="none"/></g><g transform="translate(568.3435842096212 563.3861866215003) rotate(0 244.81933593750003 41.39999999999999)"><text x="244.8193359375" y="33.120703125" font-family="Helvetica, Segoe UI Emoji" font-size="36px" fill="#1e1e1e" text-anchor="middle" style="white-space: pre;" direction="ltr" dominant-baseline="alphabetic">Quelle: z.B. 04:24:F1:02:A7:11</text><text x="244.8193359375" y="74.520703125" font-family="Helvetica, Segoe UI Emoji" font-size="36px" fill="#1e1e1e" text-anchor="middle" style="white-space: pre;" direction="ltr" dominant-baseline="alphabetic">Ziel: FF:FF:FF:FF:FF:FF</text></g><g stroke-linecap="round" transform="translate(416.28772246511414 301.31831977925486) rotate(0 60.76041190201577 45.55387120060315)"><path d="M22.78 0 C40.67 0, 58.57 0, 98.74 0 C113.93 0, 121.52 7.59, 121.52 22.78 C121.52 35.67, 121.52 48.56, 121.52 68.33 C121.52 83.52, 113.93 91.11, 98.74 91.11 C81.51 91.11, 64.28 91.11, 22.78 91.11 C7.59 91.11, 0 83.52, 0 68.33 C0 50.63, 0 32.94, 0 22.78 C0 7.59, 7.59 0, 22.78 0" stroke="none" stroke-width="0" fill="#228be6"/><path d="M22.78 0 C40.79 0, 58.8 0, 98.74 0 M22.78 0 C47.35 0, 71.92 0, 98.74 0 M98.74 0 C113.93 0, 121.52 7.59, 121.52 22.78 M98.74 0 C113.93 0, 121.52 7.59, 121.52 22.78 M121.52 22.78 C121.52 34.29, 121.52 45.81, 121.52 68.33 M121.52 22.78 C121.52 36.69, 121.52 50.61, 121.52 68.33 M121.52 68.33 C121.52 83.52, 113.93 91.11, 98.74 91.11 M121.52 68.33 C121.52 83.52, 113.93 91.11, 98.74 91.11 M98.74 91.11 C74.63 91.11, 50.51 91.11, 22.78 91.11 M98.74 91.11 C80.65 91.11, 62.55 91.11, 22.78 91.11 M22.78 91.11 C7.59 91.11, 0 83.52, 0 68.33 M22.78 91.11 C7.59 91.11, 0 83.52, 0 68.33 M0 68.33 C0 58.37, 0 48.41, 0 22.78 M0 68.33 C0 51.25, 0 34.16, 0 22.78 M0 22.78 C0 7.59, 7.59 0, 22.78 0 M0 22.78 C0 7.59, 7.59 0, 22.78 0" stroke="#1e1e1e" stroke-width="2" fill="none"/></g><g transform="translate(439.04422811712993 326.172190979858) rotate(0 38.00390625 20.7)"><text x="38.00390625" y="33.120703125" font-family="Helvetica, Segoe UI Emoji" font-size="36px" fill="#1e1e1e" text-anchor="middle" style="white-space: pre;" direction="ltr" dominant-baseline="alphabetic">UDP</text></g><g stroke-linecap="round" transform="translate(416.28772285780747 419.53598699088366) rotate(0 60.76041170566911 46.500000010428856)"><path d="M23.25 0 C38.29 0, 53.33 0, 98.27 0 C113.77 0, 121.52 7.75, 121.52 23.25 C121.52 38.83, 121.52 54.42, 121.52 69.75 C121.52 85.25, 113.77 93, 98.27 93 C70.7 93, 43.14 93, 23.25 93 C7.75 93, 0 85.25, 0 69.75 C0 53.09, 0 36.43, 0 23.25 C0 7.75, 7.75 0, 23.25 0" stroke="none" stroke-width="0" fill="#ff9e01"/><path d="M23.25 0 C50.03 0, 76.81 0, 98.27 0 M23.25 0 C40.5 0, 57.76 0, 98.27 0 M98.27 0 C113.77 0, 121.52 7.75, 121.52 23.25 M98.27 0 C113.77 0, 121.52 7.75, 121.52 23.25 M121.52 23.25 C121.52 34.96, 121.52 46.66, 121.52 69.75 M121.52 23.25 C121.52 32.98, 121.52 42.72, 121.52 69.75 M121.52 69.75 C121.52 85.25, 113.77 93, 98.27 93 M121.52 69.75 C121.52 85.25, 113.77 93, 98.27 93 M98.27 93 C80.47 93, 62.66 93, 23.25 93 M98.27 93 C70.22 93, 42.18 93, 23.25 93 M23.25 93 C7.75 93, 0 85.25, 0 69.75 M23.25 93 C7.75 93, 0 85.25, 0 69.75 M0 69.75 C0 53.97, 0 38.19, 0 23.25 M0 69.75 C0 54.59, 0 39.43, 0 23.25 M0 23.25 C0 7.75, 7.75 0, 23.25 0 M0 23.25 C0 7.75, 7.75 0, 23.25 0" stroke="#1e1e1e" stroke-width="2" fill="none"/></g><g transform="translate(460.0412986259766 445.3359870013125) rotate(0 17.0068359375 20.699999999999996)"><text x="17.0068359375" y="33.120703125" font-family="Helvetica, Segoe UI Emoji" font-size="36px" fill="#1e1e1e" text-anchor="middle" style="white-space: pre;" direction="ltr" dominant-baseline="alphabetic">IP</text></g><g stroke-linecap="round" transform="translate(416.28772240670526 532.2861870364732) rotate(0 60.76041201952356 69.40868596072806)"><path d="M30.38 0 C53.2 0, 76.01 0, 91.14 0 C111.39 0, 121.52 10.13, 121.52 30.38 C121.52 50.56, 121.52 70.73, 121.52 108.44 C121.52 128.69, 111.39 138.82, 91.14 138.82 C74.39 138.82, 57.65 138.82, 30.38 138.82 C10.13 138.82, 0 128.69, 0 108.44 C0 88.28, 0 68.13, 0 30.38 C0 10.13, 10.13 0, 30.38 0" stroke="none" stroke-width="0" fill="#d050a5"/><path d="M30.38 0 C42.8 0, 55.21 0, 91.14 0 M30.38 0 C52.79 0, 75.21 0, 91.14 0 M91.14 0 C111.39 0, 121.52 10.13, 121.52 30.38 M91.14 0 C111.39 0, 121.52 10.13, 121.52 30.38 M121.52 30.38 C121.52 47.31, 121.52 64.24, 121.52 108.44 M121.52 30.38 C121.52 57.81, 121.52 85.25, 121.52 108.44 M121.52 108.44 C121.52 128.69, 111.39 138.82, 91.14 138.82 M121.52 108.44 C121.52 128.69, 111.39 138.82, 91.14 138.82 M91.14 138.82 C71.9 138.82, 52.66 138.82, 30.38 138.82 M91.14 138.82 C71.46 138.82, 51.77 138.82, 30.38 138.82 M30.38 138.82 C10.13 138.82, 0 128.69, 0 108.44 M30.38 138.82 C10.13 138.82, 0 128.69, 0 108.44 M0 108.44 C0 83.65, 0 58.86, 0 30.38 M0 108.44 C0 85.95, 0 63.46, 0 30.38 M0 30.38 C0 10.13, 10.13 0, 30.38 0 M0 30.38 C0 10.13, 10.13 0, 30.38 0" stroke="#1e1e1e" stroke-width="2" fill="none"/></g><g transform="translate(425.0432516137288 580.9948729972011) rotate(0 52.0048828125 20.700000000000003)"><text x="52.0048828125" y="33.120703125" font-family="Helvetica, Segoe UI Emoji" font-size="36px" fill="#1e1e1e" text-anchor="middle" style="white-space: pre;" direction="ltr" dominant-baseline="alphabetic">WLAN</text></g><g stroke-linecap="round" transform="translate(346.1198226977309 80.16790021892734) rotate(270 129.65851382459363 59.49061360566628)"><path d="M29.75 0 C101.61 0, 173.47 0, 229.57 0 C249.4 0, 259.32 9.92, 259.32 29.75 C259.32 52.2, 259.32 74.66, 259.32 89.24 C259.32 109.07, 249.4 118.98, 229.57 118.98 C183.94 118.98, 138.32 118.98, 29.75 118.98 C9.92 118.98, 0 109.07, 0 89.24 C0 72.3, 0 55.36, 0 29.75 C0 9.92, 9.92 0, 29.75 0" stroke="none" stroke-width="0" fill="#fa5252"/><path d="M29.75 0 C82.83 0, 135.92 0, 229.57 0 M29.75 0 C78.88 0, 128.02 0, 229.57 0 M229.57 0 C249.4 0, 259.32 9.92, 259.32 29.75 M229.57 0 C249.4 0, 259.32 9.92, 259.32 29.75 M259.32 29.75 C259.32 48.35, 259.32 66.96, 259.32 89.24 M259.32 29.75 C259.32 48.16, 259.32 66.57, 259.32 89.24 M259.32 89.24 C259.32 109.07, 249.4 118.98, 229.57 118.98 M259.32 89.24 C259.32 109.07, 249.4 118.98, 229.57 118.98 M229.57 118.98 C170 118.98, 110.43 118.98, 29.75 118.98 M229.57 118.98 C182 118.98, 134.43 118.98, 29.75 118.98 M29.75 118.98 C9.92 118.98, 0 109.07, 0 89.24 M29.75 118.98 C9.92 118.98, 0 109.07, 0 89.24 M0 89.24 C0 66.99, 0 44.73, 0 29.75 M0 89.24 C0 72.43, 0 55.62, 0 29.75 M0 29.75 C0 9.92, 9.92 0, 29.75 0 M0 29.75 C0 9.92, 9.92 0, 29.75 0" stroke="#1e1e1e" stroke-width="2" fill="none"/></g><g transform="translate(424.77540683482454 118.95851382459364) rotate(270 51.0029296875 20.700000000000003)"><text x="51.0029296875" y="33.120703125" font-family="Helvetica, Segoe UI Emoji" font-size="36px" fill="#1e1e1e" text-anchor="middle" style="white-space: pre;" direction="ltr" dominant-baseline="alphabetic">DHCP</text></g></svg>