<svg xmlns="http://www.w3.org/2000/svg" id="Layer_2" data-name="Layer 2" viewBox="0 0 38.22 125.02" width="50" height="50">
  <defs>
    <style>
      .cls-1 {
        fill: #fff;
      }

      .cls-2 {
        fill: #5f9653;
      }

      .cls-3 {
        fill: #64b044;
      }

      .cls-4 {
        fill: #aa1313;
      }

      .cls-5 {
        fill: #7a2804;
      }

      .cls-6 {
        fill: #5b1902;
      }

      .cls-7 {
        fill: #1a1a1a;
      }

      .cls-8 {
        fill: #c6221e;
      }

      .cls-9 {
        fill: #8d370a;
      }
    </style>
  </defs>
  <g id="Layer_1-2" data-name="Layer 1">
    <g>
      <path class="cls-5" d="m30.74,67.78s2.11-1.3,2.69-.53c.58.77-1.67,1.9-2.11,2.16-1.06.62-.58-1.63-.58-1.63Z"/>
      <g>
        <path class="cls-5" d="m29.46,63.65c.04-.07.08-.14.13-.2-.08-.39-.14-.79-.19-1.19-.29-2.49-.2-8.07-.28-10.76-.08.18-.14.28-.14.28l-14.35,1.17c.12.33.23.65.33.95,1.07,3.22.51,7.04.15,8.43-.73,2.76,14.09.29,14.09.29l.26,1.03Z"/>
        <path class="cls-5" d="m31.7,38.35c-.77-1.31-2.63-2.45-3.76-2.8.3.97.03,4.14.97,6.75.48,1.32.32,1.84.13,3.2.97,2.31,3.66,5.95,4.82,7.49-1.54,2.75-4.82,10.11-4.82,10.11l1.86,5.31s1.34-1.6,1.67-4.96c1.48-2.07,3.23-5.77,4.84-8.36,1.47-2.37.54-3.9.29-4.7-.77-2.42-3.5-7.82-6-12.05Z"/>
      </g>
      <g>
        <path class="cls-5" d="m22.29,37.35c2.79-.33,3.31-1.81,3.4-2.53-1.42-.99-1.47-3.23-1.22-5.61.29-2.76-6.5-1.74-6.5-1.74,0,0,.86,5.86-.26,7.12-.2.22-.5.39-.88.54.54.76,2.2,2.61,5.46,2.23Z"/>
        <path class="cls-5" d="m13.56,36.35c-.53.26-1.09.58-1.66.99-1.14.83-8.21,8.94-9.88,10.97-1.67,2.03-2.62,4.29-1.6,6.32.96,1.92,8.01,10.71,8.79,11.68-.17,2.24,1.75,4.25,1.75,4.25,0,0-2.21-.38-2.4.48-.19.86,4.32,1.15,4.32,1.15,0,0,1.54-5.28,1.63-5.57s-2.24-2.6-2.89-3.55c-1.63-2.38-5.1-10.34-5.1-10.34l5.96-5.52s.21.53.52,1.33c.81-.87,2.72-3.3,2.57-6.6-.08-1.65-1.35-4.32-2.01-5.6Z"/>
      </g>
      <g>
        <path class="cls-7" d="m24.72,8.71s1.39-.46.93-1.58c-.46-1.11-1.95-.37-1.95-.37,0,0,1.3-1.21,1.02-1.86-.28-.65-1.39-.46-1.39-.46,0,0,.84-2.04-.65-3.25-1.48-1.21-3.43.46-3.43.46,0,0-3.01-2.58-5.38-1.3-2.23,1.21-1.48,3.9-1.48,3.9,0,0-1.58-1.21-2.6-.09-1.02,1.11,0,2.51,0,2.51,0,0-2.6-.37-3.16,2.23-.67,3.15,2,3.83,3.34,5.01,2.32,2.04.72,3.62-.02,3.82-.98.26-2.74-.89-3.32-1.68-1.39,1.11,1.86,7.89,8.26,1.95.72-.67,8.26-4.92,8.26-4.92l1.58-4.36Z"/>
        <path class="cls-3" d="m21,8.34s-.54-3.36-3.27-2.34c-2.73,1.02-1.58,3.01-1.54,3.51s4.81-1.17,4.81-1.17Z"/>
        <g>
          <path class="cls-9" d="m15.68,26.58s2.21,3.85,6.16,4.99c3.37.98,4.54-.81,5.58-2.39,1.23-1.87,2.67-4.93,2.76-7.41.09-2.48.77-6.92-2.27-9.5-3.03-2.57-10.17.27-12.13,2.82-3.49,4.53-1.19,7.26-1.19,7.26,0,0-2.1.02-1.65,1.93.28,1.19,1.01,2.02,2.76,2.3Z"/>
          <path class="cls-1" d="m17.88,22.55s-.31-1.5.61-2.13c.92-.63,1.9-.78,2.33-.37.43.41.61,1.53.02,2.27-.64.79-2.11.93-2.96.23Z"/>
          <path class="cls-1" d="m26.25,19.61s-.63.26-.54,1.33c.09,1.01.8,1.36,1.5,1.36.89,0,1.53-.55,1.53-1.26s-.15-1-.72-1.38-1.13-.37-1.78-.06Z"/>
          <path class="cls-7" d="m20.9,19.9c-.71-.58-1.9-.22-2.54.34-.5.44-1.09,1.45-.68,2.31.09.18.37.1.32-.08-.15-.62.1-1.33.52-1.78.6-.63,1.46-.75,2.24-.51.18.06.26-.17.13-.28Z"/>
          <path class="cls-7" d="m27.85,19.31c-.61-.29-1.64-.09-2.04.46-.06.08.03.24.13.19.54-.25,1.09-.47,1.71-.24.52.2.75.57.92,1.05.06.19.25.25.27,0,.08-.69-.49-1.23-.99-1.47Z"/>
          <path class="cls-7" d="m21.29,16.81c-.65-.49-1.5-.34-2.16-.02-1,.49-1.84,1.46-2.11,2.54-.09.37.07.41.18.19.54-1.08,1.21-1.83,1.79-2.14.75-.4,1.3-.41,2.18-.24.17.03.27-.21.12-.33Z"/>
          <path class="cls-7" d="m28.24,16.64c-.7-.47-1.73-.55-2.51-.17-.19.09-.39.42.23.29,2.07-.43,2.75,1.06,3.08,1.41.31.33.37.03.25-.31-.13-.37-.63-.95-1.04-1.23Z"/>
          <path class="cls-7" d="m20.61,21.61c0,.49-.39.88-.88.88s-.88-.39-.88-.88.39-.88.88-.88.88.39.88.88Z"/>
          <circle class="cls-7" cx="26.97" cy="21.15" r=".85"/>
          <path class="cls-1" d="m20,21.43c0,.2-.16.36-.36.36s-.36-.16-.36-.36.16-.36.36-.36.36.16.36.36Z"/>
          <circle class="cls-1" cx="26.84" cy="20.91" r=".34"/>
          <path class="cls-5" d="m26.29,24.84c-.04-.3-.22-.46-.38-.7-.21-.31-.47-.55-.55-.91-.07-.34-.6-.57-.37.66.05.25.21.56.28.75.12.33-.02.63-.18.91-.1.17,0,.38.19.36.48-.06,1.08-.54,1.01-1.07Z"/>
          <path class="cls-5" d="m25.23,27.26c-.14.04-.28.13-.41.24-.26-.18-.62-.16-.96-.11-.38.07-.75.24-1.1.38-.62.26-.96.29-1.42.13-.26-.09-.44.02-.05.31.23.17.64.32,1.09.33.77.88,2.91,1.36,3.03-.29.16-.08.31-.17.41-.32.3-.45-.17-.8-.58-.67Z"/>
          <path class="cls-7" d="m14.92,21.14s.79-.62.32-1.65c.6-.02,1.02-.83.64-1.68.76.09,1.39-1.03.96-1.84.7.44,2.11-.27,1.92-1.3.58.86,2.36.64,2.51-.4.31.74,2.17.8,2.39-.15.49.8,2.25.69,2.3-.15.49.92,1.72,1.1,2.39.34-.06.8,1.65,1.75,1.65,1.75,0,0,1.64-1.66-2.42-5.45-4.06-3.79-9.06-3-11.43-1.36-2.36,1.64-5.37,5.6-3.97,11.56.15.65.94,1.5,1.24,1.89.48-.25.83-.34,1.36-.25.39.07.73-.72.11-1.31Z"/>
        </g>
      </g>
      <ellipse class="cls-6" cx="25.39" cy="60.35" rx=".45" ry=".7"/>
      <path class="cls-2" d="m14.42,72.77c-.1-4.03,1.9-9,2.67-10.76-.59-.16-1.19-.34-1.81-.57,0,0-3.01,7.49-2.5,13.12s2.18,14.34,2.3,16.64c.13,2.3-.38,20.86-.38,20.86,0,0,.39.3.94.68.19-3.41.87-16.05.98-19.36.13-3.84-2.08-15.62-2.21-20.61Z"/>
      <g>
        <path class="cls-3" d="m35.12,84.99c-.29-1.51-5.76-23.49-5.76-23.49,0,0-5.13,2.45-12.27.5-.78,1.76-2.78,6.73-2.67,10.76.13,4.99,2.34,16.77,2.21,20.61-.11,3.31-.79,15.95-.98,19.36,1.2.81,3.15,1.95,3.41.99.38-1.41,3.84-17.79,3.84-22.02,0-3.96.45-14.88.51-16.24,0-.34,0-.7.04-1.07l.19-1.73s5.95,14.02,6.43,16.03c.48,2.02-.31,2.07-1.02,3.78-.93,2.22-3.22,6.79-4.42,11.26-1.21,4.5-1.07,8.87-1.44,10.38.49.57,2.08.43,3.24.25,1.11-3.6,1.92-7.1,3.07-9.28,1.43-2.7,4.84-10.93,5.5-11.9.62-.92.89-2.11.86-3.71-.02-1.19-.4-2.79-.73-4.48Z"/>
        <path class="cls-2" d="m30.06,88.7c-.48-2.02-6.43-16.03-6.43-16.03l-.19,1.73c-.04.37-.05.73-.04,1.07,0-.09,0-.14,0-.14,0,0,4.35,11.65,4.86,13.25.7,2.18.55,2.39-.51,3.9-2.24,3.2-3.39,9.65-4.1,13.18-.96,4.8-1.22,7.1-1.22,7.1,0,0,.2.72.73,1.35.74-3,2.21-14.92,6.15-21.29.97-1.57,1.22-2.11.74-4.13Z"/>
      </g>
      <g>
        <path class="cls-8" d="m30.26,42.58c-.94-2.61-2.02-6.05-2.32-7.02-.69-.22-1.27-.31-1.47-.37-.3-.09-.56-.22-.78-.37-.09.72-.61,2.21-3.4,2.53-3.26.38-4.92-1.47-5.46-2.23-.8.32-1.97.6-3.27,1.23.66,1.28,1.94,3.96,2.01,5.6.1,2.18-.7,3.97-1.48,5.19.56,1.16,1.66,3.6,1.99,5.69l12.9-1.05s2.72-5.22,1.28-9.2Z"/>
        <path class="cls-4" d="m13,48.55c.45,1.16,1.1,2.89,1.63,4.4l1.45-.12c-.33-2.09-1.43-4.53-1.99-5.69-.41.63-.81,1.11-1.09,1.41Z"/>
      </g>
      <g>
        <path class="cls-8" d="m23.3,117.5c.67,2.02,3.22,2.88,4.8,3.6,1.62.74,3.17,1.15,4.8-.24.59-.5,1.06-.66,1.42-.61-.03-.04-.05-.09-.09-.13-.5-.46-4.22-4.03-4.93-5.06-.7-1.02-1.34-3.97-2.56-3.52-1.22.45-2.3,2.56-2.94,2.37-.64-.19-.83-1.48-1.34-1.66-.53-.19-.92,1.77-1.05,3.35.61.18,1.48.66,1.89,1.9Z"/>
        <path class="cls-4" d="m21.36,116.93c.06,1.41,1.66,2.24,2.88,3.01,1.22.77,2.75,2.05,5.76,3.07,2.88.98,4.93-1.78,4.32-2.75-.36-.05-.83.11-1.42.61-1.63,1.39-3.18.98-4.8.24-1.58-.72-4.13-1.58-4.8-3.6-.42-1.25-1.29-1.72-1.89-1.9-.04.51-.06.98-.04,1.33Z"/>
      </g>
      <g>
        <path class="cls-8" d="m11.92,123.07c1.06.67,1.85.58,2.54.19.77-.43,1.87-2.3,2.35-2.93s1.15-1.49,1.49-2.88c.25-1.05,1.03-1.55,1.39-1.74.11-1.45.11-2.97-.64-2.5-1.02.64-.83-2.11-3.14-2.37-2.3-.26-2.05,1.65-2.56,2.88-1.09,2.62-2.68,6.5-3.52,8.58-.06.14-.09.27-.12.4.68-.33,1.22-.26,2.2.37Z"/>
        <path class="cls-4" d="m13.94,124.61c1.66-.71,2.36-2.52,3.71-4.1,1.54-1.79,1.86-2.6,1.92-3.33.03-.41.09-.93.13-1.47-.36.18-1.14.69-1.39,1.74-.34,1.39-1.01,2.26-1.49,2.88s-1.58,2.5-2.35,2.93c-.7.39-1.49.48-2.54-.19-.99-.63-1.52-.7-2.2-.37-.41,1.83,1.71,2.98,4.22,1.91Z"/>
      </g>
      <path class="cls-4" d="m26.03,115.98c-.07,0-.14-.02-.2-.06-.19-.11-.25-.36-.14-.55.05-.09,1.31-2.14,3.28-1.87.22.03.37.23.34.45-.03.22-.24.37-.45.34-1.45-.2-2.47,1.47-2.48,1.49-.07.12-.21.19-.34.19Z"/>
      <path class="cls-4" d="m27.28,117.47c-.07,0-.14-.02-.2-.05-.19-.11-.26-.35-.15-.54.04-.08,1.11-1.9,2.9-1.83.22,0,.39.19.39.41,0,.22-.19.38-.41.39-.02,0-.04,0-.05,0-1.3,0-2.12,1.42-2.13,1.43-.07.13-.21.2-.35.2Z"/>
      <path class="cls-4" d="m28.86,118.53c-.08,0-.16-.02-.23-.08-.18-.13-.22-.38-.09-.56.04-.05.97-1.32,2.68-1.32.03,0,.07,0,.11,0,.22,0,.39.19.39.41,0,.22-.19.38-.41.39-1.37-.07-2.1.98-2.11.99-.08.11-.2.17-.32.17Z"/>
      <path class="cls-4" d="m16.77,115.55c-.14,0-.27-.07-.35-.2-1.14-1.99-3.23-1.03-3.32-.99-.2.09-.44,0-.53-.19-.09-.2-.01-.44.19-.53.98-.47,3.15-.8,4.36,1.31.11.19.04.43-.15.54-.06.04-.13.05-.2.05Z"/>
      <path class="cls-4" d="m16.14,117.42c-.14,0-.27-.07-.35-.2-1.15-2.01-3.28-1.03-3.37-.99-.2.09-.44,0-.53-.19-.09-.2,0-.44.19-.53,1-.47,3.2-.8,4.4,1.31.11.19.04.43-.15.54-.06.04-.13.05-.2.05Z"/>
      <path class="cls-4" d="m15.28,119.25c-.14,0-.27-.07-.35-.2-1.14-2-3.13-.99-3.21-.95-.2.1-.44.03-.54-.17-.1-.19-.03-.44.17-.54.95-.49,3.06-.86,4.27,1.26.11.19.04.43-.15.54-.06.04-.13.05-.2.05Z"/>
    </g>
  </g>
</svg>