<svg xmlns="http://www.w3.org/2000/svg" id="Layer_2" data-name="Layer 2" viewBox="0 0 55.86 131.1" width="50" height="50">
  <defs>
    <style>
      .cls-1 {
        fill: #fff;
      }

      .cls-2 {
        fill: #2a4093;
      }

      .cls-3 {
        fill: #e49306;
      }

      .cls-4 {
        fill: #bc7206;
      }

      .cls-5 {
        fill: #7a2804;
      }

      .cls-6 {
        fill: #4152a4;
      }

      .cls-7 {
        fill: #1a1a1a;
      }

      .cls-8 {
        fill: #8d370a;
      }
    </style>
  </defs>
  <g id="Layer_1-2" data-name="Layer 1">
    <g>
      <path class="cls-8" d="m4.97,42.57L.01,51.35s-.37,2.9,2.77,5.48c2.59,2.13,9.25,5.11,10.5,6.1,1.25,1-.65,2.55.78,5.05-.56.93-2.88,1.32-2.09,2.24.56.65,4.2-1.4,4.2-1.4l1.43-5.64s-1.12-3.55-2.37-4.55c-1.25-1-7.01-6.17-7.01-6.17,0,0,2.99-2.62,3.92-5.14.72-1.95-7.19-4.76-7.19-4.76Z"/>
      <path class="cls-8" d="m50.9,42.57l4.95,8.78s.37,2.9-2.77,5.48c-2.59,2.13-9.25,5.11-10.5,6.1-1.25,1,.81,2.49-.74,4.73.56.93,2.84,1.63,2.05,2.55-.56.65-4.2-1.4-4.2-1.4l-1.43-5.64s1.12-3.55,2.37-4.55c1.25-1,7.01-6.17,7.01-6.17,0,0-2.99-2.62-3.92-5.14-.72-1.95,7.19-4.76,7.19-4.76Z"/>
      <path class="cls-5" d="m27.89,33.29c3.72,0,5.57-1.9,6.31-2.97-.25-.07-.48-.15-.68-.27-1.49-.87-1.08-5.36-1.08-5.36l-4.54.68-4.8-.61s.75,4.42-.75,5.29c-.29.17-.64.28-1.04.35.79.96,2.85,2.89,6.58,2.89Z"/>
      <g>
        <path class="cls-8" d="m37.47,16.1c-.61-.56-1.15-.32-1.46-.07.03-.92.04-1.82.05-2.71.02-1.28-.6-5.1-.6-5.1l-7.49-1.92-7.91,1.92s-.62,3.82-.6,5.1c.01.86.02,1.72.05,2.6-.32-.2-.8-.33-1.32.17-1.18,1.14-.57,2.92.59,3.81.48.37.97.57,1.23.62.12.58.25,1.18.42,1.81.29,1.04.78,1.81,1.22,2.36,1.35,1.65,3.83,2.94,6.1,2.97h0c2.26-.03,4.75-1.32,6.1-2.97.45-.55.94-1.32,1.22-2.36.17-.62.36-1.41.47-1.99.27-.03.67-.23,1.26-.59.98-.59,1.63-2.77.65-3.67Z"/>
        <g>
          <path class="cls-1" d="m22.27,16.89s.37-.87,1.37-1.09c1.01-.22,1.37-.19,1.79.05.34.19.53,1.74-.75,2.09-.64.18-1.55.1-2.03-.14-.5-.24-.73-.41-.39-.92Z"/>
          <path class="cls-7" d="m25.32,15.62c-.49-.16-1.07-.18-1.51-.08-.6.14-1.34.58-1.67,1.28-.34.71-.07.79.08.49.13-.27.66-1.27,1.9-1.44.58-.08,1.06,0,1.32.07.46.14.16-.22-.12-.31Z"/>
          <path class="cls-7" d="m25.22,12.56c-.04-.21-.09-.31-.2-.49-.05-.09-.18-.08-.46.02-.99.38-2.5.91-3.06,1.18-.19.09-.05.33-.01.57.02.13.19.19.61.07.41-.12,2.04-.61,2.73-.93.32-.15.43-.28.4-.42Z"/>
          <path class="cls-7" d="m24.83,16.91c0,.42-.34.75-.75.75s-.75-.34-.75-.75.34-.75.75-.75.75.34.75.75Z"/>
          <path class="cls-1" d="m24.43,16.78c0,.17-.13.3-.3.3s-.3-.13-.3-.3.13-.3.3-.3.3.13.3.3Z"/>
        </g>
        <g>
          <path class="cls-1" d="m33.64,16.89s-.37-.87-1.37-1.09c-1.01-.22-1.37-.19-1.79.05-.34.19-.53,1.74.75,2.09.64.18,1.55.1,2.03-.14.5-.24.73-.41.39-.92Z"/>
          <path class="cls-7" d="m30.6,15.62c.49-.16,1.07-.18,1.51-.08.6.14,1.34.58,1.67,1.28.34.71.07.79-.08.49-.13-.27-.66-1.27-1.9-1.44-.58-.08-1.06,0-1.32.07-.46.14-.16-.22.12-.31Z"/>
          <path class="cls-7" d="m30.69,12.56c.04-.21.09-.31.2-.49.05-.09.18-.08.46.02.99.38,2.5.91,3.06,1.18.19.09.05.33.01.57-.02.13-.19.19-.61.07-.42-.12-2.04-.61-2.73-.93-.32-.15-.43-.28-.4-.42Z"/>
          <path class="cls-7" d="m31.09,16.91c0,.42.34.75.75.75s.75-.34.75-.75-.34-.75-.75-.75-.75.34-.75.75Z"/>
          <path class="cls-1" d="m31.48,16.78c0,.17.13.3.3.3s.3-.13.3-.3-.13-.3-.3-.3-.3.13-.3.3Z"/>
        </g>
        <path class="cls-5" d="m29.04,17.48c-.05-.33-.38-.3-.35.3.05,1,.1,1.73.16,2.53.08,1.16-1.49.62-2.26.59-.16,0-.2.18-.12.29.39.55,2.15.57,2.64.26.42-.27.46-.53.42-1.07-.06-.74-.34-2-.49-2.9Z"/>
        <path class="cls-5" d="m19.85,19.48l-.31-2.51s-.69-.67-1.06.18c-.34.78.14,2.04,1.37,2.33Z"/>
        <path class="cls-5" d="m35.63,19.42l.31-2.51s.69-.67,1.06.18c.34.78-.14,2.04-1.37,2.33Z"/>
        <path class="cls-7" d="m38.14,7.61c.95-1.28.87-2.88-.87-3.47-.11-1.64-1.58-3.05-3.59-2.18-.27-1.41-2.12-2.07-3.32-.87-.27-1.2-2.39-1.63-3.15-.11-1.09-1.36-3.37-.65-3.43.71-1.25-1.36-3.15-.16-2.88,1.03-1.69-.71-3.1.71-2.56,2.23-1.7-.01-2.04,1.66-1.09,2.94-1.43.58-1.21,2.03-.16,2.77-1.2,1.14-.67,2.47.33,2.77-.49.97-.76,2.45.73,2.69.79-.68,1.21-.15,1.21-.15l.23,1.54.46.08s.23-3.06.29-5.29c.79-.82,1.11-1.82,1.59-3.01,3.59.71,9.36.71,11.53-.11.48,1.18.86,2.36,1.64,3.18.05,2.23.29,5.29.29,5.29l.46-.08.23-1.54s.62-.58,1.41.1c1.24-.37,1.35-1.62.29-2.38.99-.3,1.77-1.89.57-3.03,1.05-.75,1.21-2.53-.22-3.11Z"/>
        <path class="cls-5" d="m30.8,22.88c-.91.67-1.89.24-3.18.24-.77,0-2.22.35-3.18-.32-.32-.23-.38-.03-.3.11.15.31,1.25,1.8,3.48,1.82,2.55.02,3.23-1.31,3.49-1.72.13-.21,0-.37-.31-.14Z"/>
      </g>
      <g>
        <path class="cls-3" d="m9.95,128.83c1.68.56,1.87,1.35,2.62,1.43,1.62.19,4.17-2.43,5.05-3.24s1.37-1.49,1.68-3.49c.23-1.45,1.28-2.8,1.83-3.43-.06-.98-.22-1.68-.22-1.68l-6.98-.75-.44,1.43s-2.82,5.64-4.55,8.41c-.25.41-.38.78-.42,1.12.26-.05.71-.05,1.42.18Z"/>
        <path class="cls-4" d="m13.44,130.83c2.93-1.06,6.6-5.05,7.35-7.29.38-1.14.41-2.43.34-3.43-.55.63-1.61,1.98-1.83,3.43-.31,1.99-.81,2.68-1.68,3.49s-3.43,3.43-5.05,3.24c-.74-.09-.93-.87-2.62-1.43-.71-.24-1.15-.24-1.42-.18-.26,2.03,2.76,2.96,4.91,2.18Z"/>
      </g>
      <g>
        <path class="cls-3" d="m45.69,128.83c-1.68.56-1.87,1.35-2.62,1.43-1.62.19-4.17-2.43-5.05-3.24s-1.37-1.49-1.68-3.49c-.23-1.45-1.28-2.8-1.83-3.43.06-.98.22-1.68.22-1.68l6.98-.75.44,1.43s2.82,5.64,4.55,8.41c.25.41.38.78.42,1.12-.26-.05-.71-.05-1.42.18Z"/>
        <path class="cls-4" d="m42.2,130.83c-2.93-1.06-6.6-5.05-7.35-7.29-.38-1.14-.41-2.43-.34-3.43.55.63,1.61,1.98,1.83,3.43.31,1.99.81,2.68,1.68,3.49s3.43,3.43,5.05,3.24c.74-.09.93-.87,2.62-1.43.71-.24,1.15-.24,1.42-.18.26,2.03-2.76,2.96-4.91,2.18Z"/>
      </g>
      <g>
        <path class="cls-6" d="m41.22,92.09c0-5.79-1.12-22.05-1.12-22.05l-11.58-.75h-1.12l-11.59.75s-1.12,16.26-1.12,22.05-.75,25.97-.75,25.97c0,0,1.34.79,3.74,1.31.84.18,1.62.19,2.26.14l5.78-42.74-1.4-2.24s4.67.84,8.03-.28c-.62,1.31-2.24,2.71-2.24,2.71l5.53,42.52c.7.09,1.6.12,2.6-.1,2.4-.52,3.74-1.31,3.74-1.31,0,0-.75-20.18-.75-25.97Z"/>
        <path class="cls-2" d="m32.34,74.24c-3.36,1.12-8.03.28-8.03.28l1.4,2.24-5.78,42.74c1-.08,1.66-.32,1.66-.32l3.18-24.85,3.18-17.55,3.18,17.55,3.18,24.85s.52.18,1.32.29l-5.53-42.52s1.62-1.4,2.24-2.71Z"/>
      </g>
      <g>
        <path class="cls-3" d="m42.36,31.92c-3.87-1.54-6.55-1.16-8.17-1.6-.74,1.07-2.59,2.97-6.31,2.97s-5.79-1.92-6.58-2.89c-1.64.31-4.21.08-7.8,1.52-6.57,2.62-10.31,12.8-10.31,12.8l6.16,3.99,4.96-6.14s1.87,4.73,3.24,5.85c2.06,1.68,5.98,1.43,5.98,1.43,0,0-3.55,1.37-6.23.44-.12,1.93.19,4.42.37,8.35.1,2.12-.21,10.11-.33,13.08h22.9s-.42-4.19-1.04-9.67c-.43-3.75,2.36-16.75,2.36-16.75l3.15,4.65,7.95-5.23s-3.74-10.18-10.31-12.8Z"/>
        <path class="cls-4" d="m17.67,58.64c-.19-3.92-.5-6.42-.37-8.35,2.68.93,6.23-.44,6.23-.44,0,0-3.92.25-5.98-1.43-1.37-1.12-3.24-5.85-3.24-5.85l-4.96,6.14,2.06,1.34,2.9-4.3s2.61,12.01,2.18,15.76c-.62,5.48-.87,10.21-.87,10.21h1.73c.12-2.97.43-10.96.33-13.08Z"/>
        <path class="cls-4" d="m38.31,58.64c.19-3.92.5-6.42.37-8.35-2.68.93-6.23-.44-6.23-.44,0,0,3.92.25,5.98-1.43,1.37-1.12,3.24-5.85,3.24-5.85l4.96,6.14-2.06,1.34-2.9-4.3s-2.61,12.01-2.18,15.76c.62,5.48.87,10.21.87,10.21h-1.73c-.12-2.97-.43-10.96-.33-13.08Z"/>
      </g>
      <g>
        <path class="cls-4" d="m17.07,120.46c.18-1.44.38-3.6-2.26-3.9-2.01-.23-1.94,1.69-1.69,2.77,1.89-.26,3.15.36,3.95,1.13Z"/>
        <path class="cls-4" d="m13,120.09s-.02,0-.04,0c-.61,1.26-1.7,3.25-2.52,5-.75,1.74,1.18,2.14,2.8,1,1.12-.79,2.7-2.84,3.54-4.84-.91-1.04-2.18-1.44-3.79-1.17Z"/>
        <path class="cls-3" d="m17.07,120.46c-.81-.77-2.06-1.39-3.95-1.13.02.1-.07.59-.15.77.01,0,.02,0,.04,0,1.62-.27,2.89.12,3.79,1.17.09-.22.18-.43.25-.64,0-.05.01-.1.02-.15Z"/>
      </g>
      <g>
        <path class="cls-4" d="m38.57,120.46c-.19-1.44-.38-3.6,2.26-3.9,2.01-.23,1.94,1.69,1.69,2.77-1.89-.26-3.15.36-3.95,1.13Z"/>
        <path class="cls-4" d="m42.64,120.09s.02,0,.04,0c.61,1.26,1.7,3.25,2.52,5,.75,1.74-1.18,2.14-2.8,1-1.12-.79-2.7-2.84-3.54-4.84.91-1.04,2.18-1.44,3.79-1.17Z"/>
        <path class="cls-3" d="m38.57,120.46c.81-.77,2.06-1.39,3.95-1.13-.02.1.07.59.15.77-.01,0-.02,0-.04,0-1.62-.27-2.89.12-3.79,1.17-.09-.22-.18-.43-.25-.64,0-.05-.01-.1-.02-.15Z"/>
      </g>
    </g>
  </g>
</svg>