<svg version="1.1" xmlns="http://www.w3.org/2000/svg" viewBox="0 0 445.974822625 122.26023395502787" width="445.974822625" height="122.26023395502787" class="excalidraw-svg">
  <!-- svg-source:excalidraw -->
  
  <defs>
    <style class="style-fonts">
      @font-face {
        font-family: "Virgil";
        src: url("https://excalidraw.com/Virgil.woff2");
      }
      @font-face {
        font-family: "Cascadia";
        src: url("https://excalidraw.com/Cascadia.woff2");
      }
      @font-face {
        font-family: "Assistant";
        src: url("https://excalidraw.com/Assistant-Regular.woff2");
      }
    </style>
    
  </defs>
  <g stroke-linecap="round" transform="translate(158.3531958675697 10.049642784885009) rotate(0 138.81081337871515 17.475178731092683)"><path d="M8.74 0 C70.16 0, 131.58 0, 268.88 0 M8.74 0 C68.62 0, 128.5 0, 268.88 0 M268.88 0 C274.71 0, 277.62 2.91, 277.62 8.74 M268.88 0 C274.71 0, 277.62 2.91, 277.62 8.74 M277.62 8.74 C277.62 14.97, 277.62 21.21, 277.62 26.21 M277.62 8.74 C277.62 12.94, 277.62 17.14, 277.62 26.21 M277.62 26.21 C277.62 32.04, 274.71 34.95, 268.88 34.95 M277.62 26.21 C277.62 32.04, 274.71 34.95, 268.88 34.95 M268.88 34.95 C194.34 34.95, 119.8 34.95, 8.74 34.95 M268.88 34.95 C185.79 34.95, 102.71 34.95, 8.74 34.95 M8.74 34.95 C2.91 34.95, 0 32.04, 0 26.21 M8.74 34.95 C2.91 34.95, 0 32.04, 0 26.21 M0 26.21 C0 19.64, 0 13.06, 0 8.74 M0 26.21 C0 20.99, 0 15.77, 0 8.74 M0 8.74 C0 2.91, 2.91 0, 8.74 0 M0 8.74 C0 2.91, 2.91 0, 8.74 0" stroke="#1e1e1e" stroke-width="2" fill="none"/></g><g stroke-linecap="round" transform="translate(157.308103625 10.000000729492285) rotate(0 17.333343505859375 17.5)"><path d="M8.67 0 C15.28 0, 21.89 0, 26 0 C31.78 0, 34.67 2.89, 34.67 8.67 C34.67 15.55, 34.67 22.43, 34.67 26.33 C34.67 32.11, 31.78 35, 26 35 C21.54 35, 17.09 35, 8.67 35 C2.89 35, 0 32.11, 0 26.33 C0 20.77, 0 15.21, 0 8.67 C0 2.89, 2.89 0, 8.67 0" stroke="none" stroke-width="0" fill="#b2f2bb"/><path d="M8.67 0 C12.91 0, 17.15 0, 26 0 M8.67 0 C12.47 0, 16.28 0, 26 0 M26 0 C31.78 0, 34.67 2.89, 34.67 8.67 M26 0 C31.78 0, 34.67 2.89, 34.67 8.67 M34.67 8.67 C34.67 12.93, 34.67 17.19, 34.67 26.33 M34.67 8.67 C34.67 15.31, 34.67 21.95, 34.67 26.33 M34.67 26.33 C34.67 32.11, 31.78 35, 26 35 M34.67 26.33 C34.67 32.11, 31.78 35, 26 35 M26 35 C20.47 35, 14.94 35, 8.67 35 M26 35 C21.33 35, 16.67 35, 8.67 35 M8.67 35 C2.89 35, 0 32.11, 0 26.33 M8.67 35 C2.89 35, 0 32.11, 0 26.33 M0 26.33 C0 21.94, 0 17.54, 0 8.67 M0 26.33 C0 19.65, 0 12.96, 0 8.67 M0 8.67 C0 2.89, 2.89 0, 8.67 0 M0 8.67 C0 2.89, 2.89 0, 8.67 0" stroke="#1e1e1e" stroke-width="2" fill="none"/></g><g transform="translate(169.07992369335938 16.000000729492285) rotate(0 5.5615234375 11.5)"><text x="5.5615234375" y="18.400390625" font-family="Helvetica, Segoe UI Emoji" font-size="20px" fill="#1e1e1e" text-anchor="middle" style="white-space: pre;" direction="ltr" dominant-baseline="alphabetic">1</text></g><g stroke-linecap="round" transform="translate(191.97479111914066 10.049643235351652) rotate(0 17.333343505859375 17.5)"><path d="M8.67 0 C12.64 0, 16.61 0, 26 0 C31.78 0, 34.67 2.89, 34.67 8.67 C34.67 14.05, 34.67 19.44, 34.67 26.33 C34.67 32.11, 31.78 35, 26 35 C20.1 35, 14.19 35, 8.67 35 C2.89 35, 0 32.11, 0 26.33 C0 21.13, 0 15.93, 0 8.67 C0 2.89, 2.89 0, 8.67 0" stroke="none" stroke-width="0" fill="#ffc9c9"/><path d="M8.67 0 C13.26 0, 17.84 0, 26 0 M8.67 0 C14.09 0, 19.51 0, 26 0 M26 0 C31.78 0, 34.67 2.89, 34.67 8.67 M26 0 C31.78 0, 34.67 2.89, 34.67 8.67 M34.67 8.67 C34.67 15.49, 34.67 22.32, 34.67 26.33 M34.67 8.67 C34.67 12.22, 34.67 15.78, 34.67 26.33 M34.67 26.33 C34.67 32.11, 31.78 35, 26 35 M34.67 26.33 C34.67 32.11, 31.78 35, 26 35 M26 35 C22.12 35, 18.25 35, 8.67 35 M26 35 C22.04 35, 18.07 35, 8.67 35 M8.67 35 C2.89 35, 0 32.11, 0 26.33 M8.67 35 C2.89 35, 0 32.11, 0 26.33 M0 26.33 C0 22.12, 0 17.92, 0 8.67 M0 26.33 C0 21.62, 0 16.91, 0 8.67 M0 8.67 C0 2.89, 2.89 0, 8.67 0 M0 8.67 C0 2.89, 2.89 0, 8.67 0" stroke="#1e1e1e" stroke-width="2" fill="none"/></g><g transform="translate(203.74661118750004 16.049643235351652) rotate(0 5.5615234375 11.5)"><text x="5.5615234375" y="18.400390625" font-family="Helvetica, Segoe UI Emoji" font-size="20px" fill="#1e1e1e" text-anchor="middle" style="white-space: pre;" direction="ltr" dominant-baseline="alphabetic">0</text></g><g stroke-linecap="round" transform="translate(226.6414788720703 10.000000494140693) rotate(0 17.333343505859375 17.5)"><path d="M8.67 0 C12.23 0, 15.79 0, 26 0 C31.78 0, 34.67 2.89, 34.67 8.67 C34.67 15.22, 34.67 21.77, 34.67 26.33 C34.67 32.11, 31.78 35, 26 35 C21.07 35, 16.14 35, 8.67 35 C2.89 35, 0 32.11, 0 26.33 C0 19.58, 0 12.83, 0 8.67 C0 2.89, 2.89 0, 8.67 0" stroke="none" stroke-width="0" fill="#b2f2bb"/><path d="M8.67 0 C13.8 0, 18.94 0, 26 0 M8.67 0 C13.1 0, 17.54 0, 26 0 M26 0 C31.78 0, 34.67 2.89, 34.67 8.67 M26 0 C31.78 0, 34.67 2.89, 34.67 8.67 M34.67 8.67 C34.67 12.66, 34.67 16.66, 34.67 26.33 M34.67 8.67 C34.67 13.84, 34.67 19.02, 34.67 26.33 M34.67 26.33 C34.67 32.11, 31.78 35, 26 35 M34.67 26.33 C34.67 32.11, 31.78 35, 26 35 M26 35 C22.33 35, 18.66 35, 8.67 35 M26 35 C19.57 35, 13.14 35, 8.67 35 M8.67 35 C2.89 35, 0 32.11, 0 26.33 M8.67 35 C2.89 35, 0 32.11, 0 26.33 M0 26.33 C0 20.27, 0 14.2, 0 8.67 M0 26.33 C0 22.5, 0 18.66, 0 8.67 M0 8.67 C0 2.89, 2.89 0, 8.67 0 M0 8.67 C0 2.89, 2.89 0, 8.67 0" stroke="#1e1e1e" stroke-width="2" fill="none"/></g><g transform="translate(238.41329894042968 16.000000494140693) rotate(0 5.5615234375 11.5)"><text x="5.5615234375" y="18.400390625" font-family="Helvetica, Segoe UI Emoji" font-size="20px" fill="#1e1e1e" text-anchor="middle" style="white-space: pre;" direction="ltr" dominant-baseline="alphabetic">1</text></g><g stroke-linecap="round" transform="translate(261.30816536621097 10.04964300000006) rotate(0 17.333343505859375 17.5)"><path d="M8.67 0 C13.53 0, 18.4 0, 26 0 C31.78 0, 34.67 2.89, 34.67 8.67 C34.67 14.58, 34.67 20.49, 34.67 26.33 C34.67 32.11, 31.78 35, 26 35 C20.26 35, 14.52 35, 8.67 35 C2.89 35, 0 32.11, 0 26.33 C0 20.32, 0 14.31, 0 8.67 C0 2.89, 2.89 0, 8.67 0" stroke="none" stroke-width="0" fill="#ffc9c9"/><path d="M8.67 0 C13.32 0, 17.98 0, 26 0 M8.67 0 C14.26 0, 19.85 0, 26 0 M26 0 C31.78 0, 34.67 2.89, 34.67 8.67 M26 0 C31.78 0, 34.67 2.89, 34.67 8.67 M34.67 8.67 C34.67 13.31, 34.67 17.95, 34.67 26.33 M34.67 8.67 C34.67 15.54, 34.67 22.42, 34.67 26.33 M34.67 26.33 C34.67 32.11, 31.78 35, 26 35 M34.67 26.33 C34.67 32.11, 31.78 35, 26 35 M26 35 C19.37 35, 12.73 35, 8.67 35 M26 35 C21.24 35, 16.48 35, 8.67 35 M8.67 35 C2.89 35, 0 32.11, 0 26.33 M8.67 35 C2.89 35, 0 32.11, 0 26.33 M0 26.33 C0 21.27, 0 16.21, 0 8.67 M0 26.33 C0 22.38, 0 18.44, 0 8.67 M0 8.67 C0 2.89, 2.89 0, 8.67 0 M0 8.67 C0 2.89, 2.89 0, 8.67 0" stroke="#1e1e1e" stroke-width="2" fill="none"/></g><g transform="translate(273.07998543457035 16.04964300000006) rotate(0 5.5615234375 11.5)"><text x="5.5615234375" y="18.400390625" font-family="Helvetica, Segoe UI Emoji" font-size="20px" fill="#1e1e1e" text-anchor="middle" style="white-space: pre;" direction="ltr" dominant-baseline="alphabetic">0</text></g><g stroke-linecap="round" transform="translate(297.30807487207034 10.000000494140636) rotate(0 17.333343505859375 17.5)"><path d="M8.67 0 C13.61 0, 18.56 0, 26 0 C31.78 0, 34.67 2.89, 34.67 8.67 C34.67 12.32, 34.67 15.98, 34.67 26.33 C34.67 32.11, 31.78 35, 26 35 C20.21 35, 14.43 35, 8.67 35 C2.89 35, 0 32.11, 0 26.33 C0 22.01, 0 17.69, 0 8.67 C0 2.89, 2.89 0, 8.67 0" stroke="none" stroke-width="0" fill="#b2f2bb"/><path d="M8.67 0 C15.11 0, 21.56 0, 26 0 M8.67 0 C14.73 0, 20.8 0, 26 0 M26 0 C31.78 0, 34.67 2.89, 34.67 8.67 M26 0 C31.78 0, 34.67 2.89, 34.67 8.67 M34.67 8.67 C34.67 12.34, 34.67 16.02, 34.67 26.33 M34.67 8.67 C34.67 12.95, 34.67 17.23, 34.67 26.33 M34.67 26.33 C34.67 32.11, 31.78 35, 26 35 M34.67 26.33 C34.67 32.11, 31.78 35, 26 35 M26 35 C19.12 35, 12.23 35, 8.67 35 M26 35 C19.39 35, 12.77 35, 8.67 35 M8.67 35 C2.89 35, 0 32.11, 0 26.33 M8.67 35 C2.89 35, 0 32.11, 0 26.33 M0 26.33 C0 21.03, 0 15.72, 0 8.67 M0 26.33 C0 19.4, 0 12.46, 0 8.67 M0 8.67 C0 2.89, 2.89 0, 8.67 0 M0 8.67 C0 2.89, 2.89 0, 8.67 0" stroke="#1e1e1e" stroke-width="2" fill="none"/></g><g transform="translate(309.0798949404297 16.000000494140636) rotate(0 5.5615234375 11.5)"><text x="5.5615234375" y="18.400390625" font-family="Helvetica, Segoe UI Emoji" font-size="20px" fill="#1e1e1e" text-anchor="middle" style="white-space: pre;" direction="ltr" dominant-baseline="alphabetic">1</text></g><g stroke-linecap="round" transform="translate(366.6414483662109 10.049642988281335) rotate(0 17.333343505859375 17.5)"><path d="M8.67 0 C12.33 0, 15.98 0, 26 0 C31.78 0, 34.67 2.89, 34.67 8.67 C34.67 15.08, 34.67 21.5, 34.67 26.33 C34.67 32.11, 31.78 35, 26 35 C21.54 35, 17.08 35, 8.67 35 C2.89 35, 0 32.11, 0 26.33 C0 19.53, 0 12.73, 0 8.67 C0 2.89, 2.89 0, 8.67 0" stroke="none" stroke-width="0" fill="#ffc9c9"/><path d="M8.67 0 C14.85 0, 21.04 0, 26 0 M8.67 0 C12.83 0, 17 0, 26 0 M26 0 C31.78 0, 34.67 2.89, 34.67 8.67 M26 0 C31.78 0, 34.67 2.89, 34.67 8.67 M34.67 8.67 C34.67 13.73, 34.67 18.79, 34.67 26.33 M34.67 8.67 C34.67 14.31, 34.67 19.95, 34.67 26.33 M34.67 26.33 C34.67 32.11, 31.78 35, 26 35 M34.67 26.33 C34.67 32.11, 31.78 35, 26 35 M26 35 C19.48 35, 12.96 35, 8.67 35 M26 35 C20.82 35, 15.65 35, 8.67 35 M8.67 35 C2.89 35, 0 32.11, 0 26.33 M8.67 35 C2.89 35, 0 32.11, 0 26.33 M0 26.33 C0 22.28, 0 18.23, 0 8.67 M0 26.33 C0 21.99, 0 17.64, 0 8.67 M0 8.67 C0 2.89, 2.89 0, 8.67 0 M0 8.67 C0 2.89, 2.89 0, 8.67 0" stroke="#1e1e1e" stroke-width="2" fill="none"/></g><g transform="translate(378.4132684345703 16.049642988281335) rotate(0 5.5615234375 11.5)"><text x="5.5615234375" y="18.400390625" font-family="Helvetica, Segoe UI Emoji" font-size="20px" fill="#1e1e1e" text-anchor="middle" style="white-space: pre;" direction="ltr" dominant-baseline="alphabetic">0</text></g><g stroke-linecap="round" transform="translate(331.9747618603516 10.000000494140693) rotate(0 17.333343505859375 17.5)"><path d="M8.67 0 C14.05 0, 19.42 0, 26 0 C31.78 0, 34.67 2.89, 34.67 8.67 C34.67 12.95, 34.67 17.23, 34.67 26.33 C34.67 32.11, 31.78 35, 26 35 C21.21 35, 16.42 35, 8.67 35 C2.89 35, 0 32.11, 0 26.33 C0 19.87, 0 13.41, 0 8.67 C0 2.89, 2.89 0, 8.67 0" stroke="none" stroke-width="0" fill="#b2f2bb"/><path d="M8.67 0 C12.75 0, 16.83 0, 26 0 M8.67 0 C13.16 0, 17.65 0, 26 0 M26 0 C31.78 0, 34.67 2.89, 34.67 8.67 M26 0 C31.78 0, 34.67 2.89, 34.67 8.67 M34.67 8.67 C34.67 14.54, 34.67 20.41, 34.67 26.33 M34.67 8.67 C34.67 13.98, 34.67 19.29, 34.67 26.33 M34.67 26.33 C34.67 32.11, 31.78 35, 26 35 M34.67 26.33 C34.67 32.11, 31.78 35, 26 35 M26 35 C22.49 35, 18.99 35, 8.67 35 M26 35 C20.87 35, 15.73 35, 8.67 35 M8.67 35 C2.89 35, 0 32.11, 0 26.33 M8.67 35 C2.89 35, 0 32.11, 0 26.33 M0 26.33 C0 22.3, 0 18.27, 0 8.67 M0 26.33 C0 22.47, 0 18.6, 0 8.67 M0 8.67 C0 2.89, 2.89 0, 8.67 0 M0 8.67 C0 2.89, 2.89 0, 8.67 0" stroke="#1e1e1e" stroke-width="2" fill="none"/></g><g transform="translate(343.74658192871095 16.000000494140693) rotate(0 5.5615234375 11.5)"><text x="5.5615234375" y="18.400390625" font-family="Helvetica, Segoe UI Emoji" font-size="20px" fill="#1e1e1e" text-anchor="middle" style="white-space: pre;" direction="ltr" dominant-baseline="alphabetic">1</text></g><g stroke-linecap="round" transform="translate(401.3081353544922 10) rotate(0 17.333343505859375 17.5)"><path d="M8.67 0 C15.54 0, 22.42 0, 26 0 C31.78 0, 34.67 2.89, 34.67 8.67 C34.67 13.05, 34.67 17.44, 34.67 26.33 C34.67 32.11, 31.78 35, 26 35 C21.2 35, 16.39 35, 8.67 35 C2.89 35, 0 32.11, 0 26.33 C0 22.71, 0 19.09, 0 8.67 C0 2.89, 2.89 0, 8.67 0" stroke="none" stroke-width="0" fill="#ffc9c9"/><path d="M8.67 0 C15.27 0, 21.87 0, 26 0 M8.67 0 C14.5 0, 20.33 0, 26 0 M26 0 C31.78 0, 34.67 2.89, 34.67 8.67 M26 0 C31.78 0, 34.67 2.89, 34.67 8.67 M34.67 8.67 C34.67 13.81, 34.67 18.95, 34.67 26.33 M34.67 8.67 C34.67 15.4, 34.67 22.13, 34.67 26.33 M34.67 26.33 C34.67 32.11, 31.78 35, 26 35 M34.67 26.33 C34.67 32.11, 31.78 35, 26 35 M26 35 C22.21 35, 18.42 35, 8.67 35 M26 35 C22.38 35, 18.77 35, 8.67 35 M8.67 35 C2.89 35, 0 32.11, 0 26.33 M8.67 35 C2.89 35, 0 32.11, 0 26.33 M0 26.33 C0 21.69, 0 17.05, 0 8.67 M0 26.33 C0 19.96, 0 13.6, 0 8.67 M0 8.67 C0 2.89, 2.89 0, 8.67 0 M0 8.67 C0 2.89, 2.89 0, 8.67 0" stroke="#1e1e1e" stroke-width="2" fill="none"/></g><g transform="translate(413.0799554228516 16) rotate(0 5.5615234375 11.5)"><text x="5.5615234375" y="18.400390625" font-family="Helvetica, Segoe UI Emoji" font-size="20px" fill="#1e1e1e" text-anchor="middle" style="white-space: pre;" direction="ltr" dominant-baseline="alphabetic">0</text></g><g transform="translate(29.641463148437538 15.999999617675826) rotate(0 41.689453125 11.5)"><text x="0" y="18.400390625" font-family="Helvetica, Segoe UI Emoji" font-size="20px" fill="#1e1e1e" text-anchor="start" style="white-space: pre;" direction="ltr" dominant-baseline="alphabetic">Binärzahl</text></g><g transform="translate(10 64.90695161767587) rotate(0 61.316497802734375 7.8333282470703125)"><text x="0" y="12.533591273038283" font-family="Helvetica, Segoe UI Emoji" font-size="13.623179560122283px" fill="#1e1e1e" text-anchor="start" style="white-space: pre;" direction="ltr" dominant-baseline="alphabetic">Stellenwert (Potenz)</text></g><g transform="translate(307.0808311699441 61.2402795516216) rotate(0 5.5615234375 11.5)"><text x="0" y="18.400390625" font-family="Helvetica, Segoe UI Emoji" font-size="20px" fill="#1e1e1e" text-anchor="start" style="white-space: pre;" direction="ltr" dominant-baseline="alphabetic">2</text></g><g transform="translate(411.08089173244406 61.24027953990287) rotate(0 5.5615234375 11.5)"><text x="0" y="18.400390625" font-family="Helvetica, Segoe UI Emoji" font-size="20px" fill="#1e1e1e" text-anchor="start" style="white-space: pre;" direction="ltr" dominant-baseline="alphabetic">2</text></g><g transform="translate(341.74751773244407 61.24027953990287) rotate(0 5.5615234375 11.5)"><text x="0" y="18.400390625" font-family="Helvetica, Segoe UI Emoji" font-size="20px" fill="#1e1e1e" text-anchor="start" style="white-space: pre;" direction="ltr" dominant-baseline="alphabetic">2</text></g><g transform="translate(376.4142046855691 61.240279551621626) rotate(0 5.5615234375 11.5)"><text x="0" y="18.400390625" font-family="Helvetica, Segoe UI Emoji" font-size="20px" fill="#1e1e1e" text-anchor="start" style="white-space: pre;" direction="ltr" dominant-baseline="alphabetic">2</text></g><g transform="translate(168.41408335552748 61.240279228343695) rotate(0 5.5615234375 11.5)"><text x="0" y="18.400390625" font-family="Helvetica, Segoe UI Emoji" font-size="20px" fill="#1e1e1e" text-anchor="start" style="white-space: pre;" direction="ltr" dominant-baseline="alphabetic">2</text></g><g transform="translate(272.41414391802743 61.24027921662497) rotate(0 5.5615234375 11.5)"><text x="0" y="18.400390625" font-family="Helvetica, Segoe UI Emoji" font-size="20px" fill="#1e1e1e" text-anchor="start" style="white-space: pre;" direction="ltr" dominant-baseline="alphabetic">2</text></g><g transform="translate(203.08076991802747 61.24027921662497) rotate(0 5.5615234375 11.5)"><text x="0" y="18.400390625" font-family="Helvetica, Segoe UI Emoji" font-size="20px" fill="#1e1e1e" text-anchor="start" style="white-space: pre;" direction="ltr" dominant-baseline="alphabetic">2</text></g><g transform="translate(237.74745687115248 61.240279228343695) rotate(0 5.5615234375 11.5)"><text x="0" y="18.400390625" font-family="Helvetica, Segoe UI Emoji" font-size="20px" fill="#1e1e1e" text-anchor="start" style="white-space: pre;" direction="ltr" dominant-baseline="alphabetic">2</text></g><g transform="translate(421.248990319359 53.42038632774006) rotate(0 4.44921875 9.200000000000003)"><text x="0" y="14.720312499999999" font-family="Helvetica, Segoe UI Emoji" font-size="16px" fill="#f08c00" text-anchor="start" style="white-space: pre;" direction="ltr" dominant-baseline="alphabetic">0</text></g><g transform="translate(387.193183030825 53.42038632774006) rotate(0 4.44921875 9.200000000000003)"><text x="0" y="14.720312499999999" font-family="Helvetica, Segoe UI Emoji" font-size="16px" fill="#f08c00" text-anchor="start" style="white-space: pre;" direction="ltr" dominant-baseline="alphabetic">1</text></g><g transform="translate(352.29775012247137 53.42038632774006) rotate(0 4.44921875 9.200000000000003)"><text x="0" y="14.720312499999999" font-family="Helvetica, Segoe UI Emoji" font-size="16px" fill="#f08c00" text-anchor="start" style="white-space: pre;" direction="ltr" dominant-baseline="alphabetic">2</text></g><g transform="translate(316.17547356260695 53.42038632774006) rotate(0 4.44921875 9.200000000000003)"><text x="0" y="14.720312499999999" font-family="Helvetica, Segoe UI Emoji" font-size="16px" fill="#f08c00" text-anchor="start" style="white-space: pre;" direction="ltr" dominant-baseline="alphabetic">3</text></g><g transform="translate(283.0520427676654 53.42038632774006) rotate(0 4.44921875 9.200000000000003)"><text x="0" y="14.720312499999999" font-family="Helvetica, Segoe UI Emoji" font-size="16px" fill="#f08c00" text-anchor="start" style="white-space: pre;" direction="ltr" dominant-baseline="alphabetic">4</text></g><g transform="translate(247.61135156068082 53.42038632774006) rotate(0 4.44921875 9.200000000000003)"><text x="0" y="14.720312499999999" font-family="Helvetica, Segoe UI Emoji" font-size="16px" fill="#f08c00" text-anchor="start" style="white-space: pre;" direction="ltr" dominant-baseline="alphabetic">5</text></g><g transform="translate(212.5795666388958 53.42038632774006) rotate(0 4.44921875 9.200000000000003)"><text x="0" y="14.720312499999999" font-family="Helvetica, Segoe UI Emoji" font-size="16px" fill="#f08c00" text-anchor="start" style="white-space: pre;" direction="ltr" dominant-baseline="alphabetic">6</text></g><g transform="translate(177.68410877135977 53.42038632774006) rotate(0 4.44921875 9.200000000000003)"><text x="0" y="14.720312499999999" font-family="Helvetica, Segoe UI Emoji" font-size="16px" fill="#f08c00" text-anchor="start" style="white-space: pre;" direction="ltr" dominant-baseline="alphabetic">7</text></g><g transform="translate(16.949653525230758 95.22690554045926) rotate(0 54.366844177246094 7.8333282470703125)"><text x="0" y="12.533591273038283" font-family="Helvetica, Segoe UI Emoji" font-size="13.623179560122283px" fill="#1e1e1e" text-anchor="start" style="white-space: pre;" direction="ltr" dominant-baseline="alphabetic">Stellenwert (Wert)</text></g><g transform="translate(308.19313519431773 93.86023395502787) rotate(0 4.44921875 9.200000000000003)"><text x="4.44921875" y="14.720312499999999" font-family="Helvetica, Segoe UI Emoji" font-size="16px" fill="#1e1e1e" text-anchor="middle" style="white-space: pre;" direction="ltr" dominant-baseline="alphabetic">8</text></g><g transform="translate(412.1931957568177 93.86023394330914) rotate(0 4.44921875 9.200000000000003)"><text x="4.44921875" y="14.720312499999999" font-family="Helvetica, Segoe UI Emoji" font-size="16px" fill="#1e1e1e" text-anchor="middle" style="white-space: pre;" direction="ltr" dominant-baseline="alphabetic">1</text></g><g transform="translate(342.8598217568177 93.86023394330914) rotate(0 4.44921875 9.200000000000003)"><text x="4.44921875" y="14.720312499999999" font-family="Helvetica, Segoe UI Emoji" font-size="16px" fill="#1e1e1e" text-anchor="middle" style="white-space: pre;" direction="ltr" dominant-baseline="alphabetic">4</text></g><g transform="translate(377.5265087099427 93.86023395502787) rotate(0 4.44921875 9.200000000000003)"><text x="4.44921875" y="14.720312499999999" font-family="Helvetica, Segoe UI Emoji" font-size="16px" fill="#1e1e1e" text-anchor="middle" style="white-space: pre;" direction="ltr" dominant-baseline="alphabetic">2</text></g><g transform="translate(160.6279498799011 93.86023363174996) rotate(0 13.34765625 9.200000000000003)"><text x="13.34765625" y="14.720312499999999" font-family="Helvetica, Segoe UI Emoji" font-size="16px" fill="#1e1e1e" text-anchor="middle" style="white-space: pre;" direction="ltr" dominant-baseline="alphabetic">128</text></g><g transform="translate(269.0772291924011 93.86023362003124) rotate(0 8.8984375 9.200000000000003)"><text x="8.8984375" y="14.720312499999999" font-family="Helvetica, Segoe UI Emoji" font-size="16px" fill="#1e1e1e" text-anchor="middle" style="white-space: pre;" direction="ltr" dominant-baseline="alphabetic">16</text></g><g transform="translate(199.7438551924011 93.86023362003124) rotate(0 8.8984375 9.200000000000003)"><text x="8.8984375" y="14.720312499999999" font-family="Helvetica, Segoe UI Emoji" font-size="16px" fill="#1e1e1e" text-anchor="middle" style="white-space: pre;" direction="ltr" dominant-baseline="alphabetic">64</text></g><g transform="translate(234.4105421455261 93.86023363174996) rotate(0 8.8984375 9.200000000000003)"><text x="8.8984375" y="14.720312499999999" font-family="Helvetica, Segoe UI Emoji" font-size="16px" fill="#1e1e1e" text-anchor="middle" style="white-space: pre;" direction="ltr" dominant-baseline="alphabetic">32</text></g></svg>