<svg version="1.1" xmlns="http://www.w3.org/2000/svg" viewBox="0 0 303.2029813875634 300.76485639515397" width="303.2029813875634" height="300.76485639515397" class="excalidraw-svg">
  <!-- svg-source:excalidraw -->
  
  <defs>
    <style class="style-fonts">
      @font-face {
        font-family: "Virgil";
        src: url("https://excalidraw.com/Virgil.woff2");
      }
      @font-face {
        font-family: "Cascadia";
        src: url("https://excalidraw.com/Cascadia.woff2");
      }
      @font-face {
        font-family: "Assistant";
        src: url("https://excalidraw.com/Assistant-Regular.woff2");
      }
    </style>
    
  </defs>
  <g stroke-linecap="round" transform="translate(11.045092242569694 10.049642784885009) rotate(0 138.81081337871515 17.475178731092683)"><path d="M8.74 0 C105.64 0, 202.54 0, 268.88 0 M8.74 0 C68.98 0, 129.22 0, 268.88 0 M268.88 0 C274.71 0, 277.62 2.91, 277.62 8.74 M268.88 0 C274.71 0, 277.62 2.91, 277.62 8.74 M277.62 8.74 C277.62 13.74, 277.62 18.75, 277.62 26.21 M277.62 8.74 C277.62 15.15, 277.62 21.55, 277.62 26.21 M277.62 26.21 C277.62 32.04, 274.71 34.95, 268.88 34.95 M277.62 26.21 C277.62 32.04, 274.71 34.95, 268.88 34.95 M268.88 34.95 C211.43 34.95, 153.98 34.95, 8.74 34.95 M268.88 34.95 C203.69 34.95, 138.49 34.95, 8.74 34.95 M8.74 34.95 C2.91 34.95, 0 32.04, 0 26.21 M8.74 34.95 C2.91 34.95, 0 32.04, 0 26.21 M0 26.21 C0 20.27, 0 14.33, 0 8.74 M0 26.21 C0 19.89, 0 13.56, 0 8.74 M0 8.74 C0 2.91, 2.91 0, 8.74 0 M0 8.74 C0 2.91, 2.91 0, 8.74 0" stroke="#1e1e1e" stroke-width="2" fill="none"/></g><g stroke-linecap="round" transform="translate(10 10.000000729492285) rotate(0 17.333343505859375 17.5)"><path d="M8.67 0 C12.91 0, 17.16 0, 26 0 C31.78 0, 34.67 2.89, 34.67 8.67 C34.67 12.83, 34.67 16.99, 34.67 26.33 C34.67 32.11, 31.78 35, 26 35 C20.85 35, 15.71 35, 8.67 35 C2.89 35, 0 32.11, 0 26.33 C0 21, 0 15.66, 0 8.67 C0 2.89, 2.89 0, 8.67 0" stroke="none" stroke-width="0" fill="#b2f2bb"/><path d="M8.67 0 C14.88 0, 21.09 0, 26 0 M8.67 0 C15.02 0, 21.38 0, 26 0 M26 0 C31.78 0, 34.67 2.89, 34.67 8.67 M26 0 C31.78 0, 34.67 2.89, 34.67 8.67 M34.67 8.67 C34.67 12.21, 34.67 15.76, 34.67 26.33 M34.67 8.67 C34.67 13.53, 34.67 18.39, 34.67 26.33 M34.67 26.33 C34.67 32.11, 31.78 35, 26 35 M34.67 26.33 C34.67 32.11, 31.78 35, 26 35 M26 35 C20.56 35, 15.13 35, 8.67 35 M26 35 C22.44 35, 18.88 35, 8.67 35 M8.67 35 C2.89 35, 0 32.11, 0 26.33 M8.67 35 C2.89 35, 0 32.11, 0 26.33 M0 26.33 C0 21.87, 0 17.4, 0 8.67 M0 26.33 C0 19.93, 0 13.53, 0 8.67 M0 8.67 C0 2.89, 2.89 0, 8.67 0 M0 8.67 C0 2.89, 2.89 0, 8.67 0" stroke="#1e1e1e" stroke-width="2" fill="none"/></g><g transform="translate(21.771820068359375 16.000000729492285) rotate(0 5.5615234375 11.5)"><text x="5.5615234375" y="18.400390625" font-family="Helvetica, Segoe UI Emoji" font-size="20px" fill="#1e1e1e" text-anchor="middle" style="white-space: pre;" direction="ltr" dominant-baseline="alphabetic">1</text></g><g stroke-linecap="round" transform="translate(44.66668749414066 10.049643235351596) rotate(0 17.333343505859375 17.5)"><path d="M8.67 0 C13.03 0, 17.4 0, 26 0 C31.78 0, 34.67 2.89, 34.67 8.67 C34.67 14.71, 34.67 20.76, 34.67 26.33 C34.67 32.11, 31.78 35, 26 35 C20.81 35, 15.63 35, 8.67 35 C2.89 35, 0 32.11, 0 26.33 C0 20.72, 0 15.11, 0 8.67 C0 2.89, 2.89 0, 8.67 0" stroke="none" stroke-width="0" fill="#ffc9c9"/><path d="M8.67 0 C15.53 0, 22.39 0, 26 0 M8.67 0 C14 0, 19.34 0, 26 0 M26 0 C31.78 0, 34.67 2.89, 34.67 8.67 M26 0 C31.78 0, 34.67 2.89, 34.67 8.67 M34.67 8.67 C34.67 13.12, 34.67 17.57, 34.67 26.33 M34.67 8.67 C34.67 14.23, 34.67 19.79, 34.67 26.33 M34.67 26.33 C34.67 32.11, 31.78 35, 26 35 M34.67 26.33 C34.67 32.11, 31.78 35, 26 35 M26 35 C22.28 35, 18.55 35, 8.67 35 M26 35 C19.78 35, 13.56 35, 8.67 35 M8.67 35 C2.89 35, 0 32.11, 0 26.33 M8.67 35 C2.89 35, 0 32.11, 0 26.33 M0 26.33 C0 19.7, 0 13.07, 0 8.67 M0 26.33 C0 21.14, 0 15.95, 0 8.67 M0 8.67 C0 2.89, 2.89 0, 8.67 0 M0 8.67 C0 2.89, 2.89 0, 8.67 0" stroke="#1e1e1e" stroke-width="2" fill="none"/></g><g transform="translate(56.438507562500035 16.049643235351596) rotate(0 5.5615234375 11.5)"><text x="5.5615234375" y="18.400390625" font-family="Helvetica, Segoe UI Emoji" font-size="20px" fill="#1e1e1e" text-anchor="middle" style="white-space: pre;" direction="ltr" dominant-baseline="alphabetic">0</text></g><g stroke-linecap="round" transform="translate(79.33337524707031 10.000000494140636) rotate(0 17.333343505859375 17.5)"><path d="M8.67 0 C14.47 0, 20.27 0, 26 0 C31.78 0, 34.67 2.89, 34.67 8.67 C34.67 12.76, 34.67 16.86, 34.67 26.33 C34.67 32.11, 31.78 35, 26 35 C22.26 35, 18.53 35, 8.67 35 C2.89 35, 0 32.11, 0 26.33 C0 19.51, 0 12.69, 0 8.67 C0 2.89, 2.89 0, 8.67 0" stroke="none" stroke-width="0" fill="#b2f2bb"/><path d="M8.67 0 C15.44 0, 22.21 0, 26 0 M8.67 0 C13.83 0, 18.99 0, 26 0 M26 0 C31.78 0, 34.67 2.89, 34.67 8.67 M26 0 C31.78 0, 34.67 2.89, 34.67 8.67 M34.67 8.67 C34.67 12.2, 34.67 15.74, 34.67 26.33 M34.67 8.67 C34.67 14.96, 34.67 21.26, 34.67 26.33 M34.67 26.33 C34.67 32.11, 31.78 35, 26 35 M34.67 26.33 C34.67 32.11, 31.78 35, 26 35 M26 35 C20.44 35, 14.88 35, 8.67 35 M26 35 C20.7 35, 15.4 35, 8.67 35 M8.67 35 C2.89 35, 0 32.11, 0 26.33 M8.67 35 C2.89 35, 0 32.11, 0 26.33 M0 26.33 C0 20.74, 0 15.15, 0 8.67 M0 26.33 C0 20.84, 0 15.35, 0 8.67 M0 8.67 C0 2.89, 2.89 0, 8.67 0 M0 8.67 C0 2.89, 2.89 0, 8.67 0" stroke="#1e1e1e" stroke-width="2" fill="none"/></g><g transform="translate(91.10519531542968 16.000000494140636) rotate(0 5.5615234375 11.5)"><text x="5.5615234375" y="18.400390625" font-family="Helvetica, Segoe UI Emoji" font-size="20px" fill="#1e1e1e" text-anchor="middle" style="white-space: pre;" direction="ltr" dominant-baseline="alphabetic">1</text></g><g stroke-linecap="round" transform="translate(114.00006174121097 10.04964300000006) rotate(0 17.333343505859375 17.5)"><path d="M8.67 0 C15.01 0, 21.34 0, 26 0 C31.78 0, 34.67 2.89, 34.67 8.67 C34.67 13.29, 34.67 17.92, 34.67 26.33 C34.67 32.11, 31.78 35, 26 35 C19.66 35, 13.32 35, 8.67 35 C2.89 35, 0 32.11, 0 26.33 C0 20.95, 0 15.57, 0 8.67 C0 2.89, 2.89 0, 8.67 0" stroke="none" stroke-width="0" fill="#ffc9c9"/><path d="M8.67 0 C13.41 0, 18.16 0, 26 0 M8.67 0 C15.08 0, 21.49 0, 26 0 M26 0 C31.78 0, 34.67 2.89, 34.67 8.67 M26 0 C31.78 0, 34.67 2.89, 34.67 8.67 M34.67 8.67 C34.67 14.39, 34.67 20.12, 34.67 26.33 M34.67 8.67 C34.67 14.39, 34.67 20.11, 34.67 26.33 M34.67 26.33 C34.67 32.11, 31.78 35, 26 35 M34.67 26.33 C34.67 32.11, 31.78 35, 26 35 M26 35 C21.09 35, 16.18 35, 8.67 35 M26 35 C21.94 35, 17.87 35, 8.67 35 M8.67 35 C2.89 35, 0 32.11, 0 26.33 M8.67 35 C2.89 35, 0 32.11, 0 26.33 M0 26.33 C0 20.58, 0 14.82, 0 8.67 M0 26.33 C0 22.08, 0 17.82, 0 8.67 M0 8.67 C0 2.89, 2.89 0, 8.67 0 M0 8.67 C0 2.89, 2.89 0, 8.67 0" stroke="#1e1e1e" stroke-width="2" fill="none"/></g><g transform="translate(125.77188180957035 16.04964300000006) rotate(0 5.5615234375 11.5)"><text x="5.5615234375" y="18.400390625" font-family="Helvetica, Segoe UI Emoji" font-size="20px" fill="#1e1e1e" text-anchor="middle" style="white-space: pre;" direction="ltr" dominant-baseline="alphabetic">0</text></g><g stroke-linecap="round" transform="translate(149.99997124707033 10.000000494140636) rotate(0 17.333343505859375 17.5)"><path d="M8.67 0 C14.35 0, 20.03 0, 26 0 C31.78 0, 34.67 2.89, 34.67 8.67 C34.67 12.26, 34.67 15.85, 34.67 26.33 C34.67 32.11, 31.78 35, 26 35 C20.27 35, 14.54 35, 8.67 35 C2.89 35, 0 32.11, 0 26.33 C0 20.43, 0 14.53, 0 8.67 C0 2.89, 2.89 0, 8.67 0" stroke="none" stroke-width="0" fill="#b2f2bb"/><path d="M8.67 0 C13.66 0, 18.65 0, 26 0 M8.67 0 C13.39 0, 18.1 0, 26 0 M26 0 C31.78 0, 34.67 2.89, 34.67 8.67 M26 0 C31.78 0, 34.67 2.89, 34.67 8.67 M34.67 8.67 C34.67 15.1, 34.67 21.53, 34.67 26.33 M34.67 8.67 C34.67 14.05, 34.67 19.43, 34.67 26.33 M34.67 26.33 C34.67 32.11, 31.78 35, 26 35 M34.67 26.33 C34.67 32.11, 31.78 35, 26 35 M26 35 C19.67 35, 13.34 35, 8.67 35 M26 35 C19.97 35, 13.95 35, 8.67 35 M8.67 35 C2.89 35, 0 32.11, 0 26.33 M8.67 35 C2.89 35, 0 32.11, 0 26.33 M0 26.33 C0 22.56, 0 18.78, 0 8.67 M0 26.33 C0 19.67, 0 13.01, 0 8.67 M0 8.67 C0 2.89, 2.89 0, 8.67 0 M0 8.67 C0 2.89, 2.89 0, 8.67 0" stroke="#1e1e1e" stroke-width="2" fill="none"/></g><g transform="translate(161.7717913154297 16.000000494140636) rotate(0 5.5615234375 11.5)"><text x="5.5615234375" y="18.400390625" font-family="Helvetica, Segoe UI Emoji" font-size="20px" fill="#1e1e1e" text-anchor="middle" style="white-space: pre;" direction="ltr" dominant-baseline="alphabetic">1</text></g><g stroke-linecap="round" transform="translate(219.3333447412109 10.049642988281335) rotate(0 17.333343505859375 17.5)"><path d="M8.67 0 C12.39 0, 16.12 0, 26 0 C31.78 0, 34.67 2.89, 34.67 8.67 C34.67 14.7, 34.67 20.73, 34.67 26.33 C34.67 32.11, 31.78 35, 26 35 C21.64 35, 17.28 35, 8.67 35 C2.89 35, 0 32.11, 0 26.33 C0 21.04, 0 15.74, 0 8.67 C0 2.89, 2.89 0, 8.67 0" stroke="none" stroke-width="0" fill="#ffc9c9"/><path d="M8.67 0 C13.63 0, 18.6 0, 26 0 M8.67 0 C15.02 0, 21.38 0, 26 0 M26 0 C31.78 0, 34.67 2.89, 34.67 8.67 M26 0 C31.78 0, 34.67 2.89, 34.67 8.67 M34.67 8.67 C34.67 12.57, 34.67 16.47, 34.67 26.33 M34.67 8.67 C34.67 13.09, 34.67 17.52, 34.67 26.33 M34.67 26.33 C34.67 32.11, 31.78 35, 26 35 M34.67 26.33 C34.67 32.11, 31.78 35, 26 35 M26 35 C20.11 35, 14.21 35, 8.67 35 M26 35 C19.73 35, 13.45 35, 8.67 35 M8.67 35 C2.89 35, 0 32.11, 0 26.33 M8.67 35 C2.89 35, 0 32.11, 0 26.33 M0 26.33 C0 21.89, 0 17.44, 0 8.67 M0 26.33 C0 19.7, 0 13.06, 0 8.67 M0 8.67 C0 2.89, 2.89 0, 8.67 0 M0 8.67 C0 2.89, 2.89 0, 8.67 0" stroke="#1e1e1e" stroke-width="2" fill="none"/></g><g transform="translate(231.10516480957028 16.049642988281335) rotate(0 5.5615234375 11.5)"><text x="5.5615234375" y="18.400390625" font-family="Helvetica, Segoe UI Emoji" font-size="20px" fill="#1e1e1e" text-anchor="middle" style="white-space: pre;" direction="ltr" dominant-baseline="alphabetic">0</text></g><g stroke-linecap="round" transform="translate(184.66665823535158 10.000000494140636) rotate(0 17.333343505859375 17.5)"><path d="M8.67 0 C14.42 0, 20.18 0, 26 0 C31.78 0, 34.67 2.89, 34.67 8.67 C34.67 15.31, 34.67 21.95, 34.67 26.33 C34.67 32.11, 31.78 35, 26 35 C20.26 35, 14.51 35, 8.67 35 C2.89 35, 0 32.11, 0 26.33 C0 21.19, 0 16.05, 0 8.67 C0 2.89, 2.89 0, 8.67 0" stroke="none" stroke-width="0" fill="#b2f2bb"/><path d="M8.67 0 C12.72 0, 16.77 0, 26 0 M8.67 0 C14.37 0, 20.08 0, 26 0 M26 0 C31.78 0, 34.67 2.89, 34.67 8.67 M26 0 C31.78 0, 34.67 2.89, 34.67 8.67 M34.67 8.67 C34.67 13.2, 34.67 17.74, 34.67 26.33 M34.67 8.67 C34.67 13.57, 34.67 18.47, 34.67 26.33 M34.67 26.33 C34.67 32.11, 31.78 35, 26 35 M34.67 26.33 C34.67 32.11, 31.78 35, 26 35 M26 35 C19.2 35, 12.39 35, 8.67 35 M26 35 C22.4 35, 18.79 35, 8.67 35 M8.67 35 C2.89 35, 0 32.11, 0 26.33 M8.67 35 C2.89 35, 0 32.11, 0 26.33 M0 26.33 C0 21.54, 0 16.74, 0 8.67 M0 26.33 C0 20.03, 0 13.72, 0 8.67 M0 8.67 C0 2.89, 2.89 0, 8.67 0 M0 8.67 C0 2.89, 2.89 0, 8.67 0" stroke="#1e1e1e" stroke-width="2" fill="none"/></g><g transform="translate(196.43847830371095 16.000000494140636) rotate(0 5.5615234375 11.5)"><text x="5.5615234375" y="18.400390625" font-family="Helvetica, Segoe UI Emoji" font-size="20px" fill="#1e1e1e" text-anchor="middle" style="white-space: pre;" direction="ltr" dominant-baseline="alphabetic">1</text></g><g stroke-linecap="round" transform="translate(254.0000317294922 10) rotate(0 17.333343505859375 17.5)"><path d="M8.67 0 C15.52 0, 22.37 0, 26 0 C31.78 0, 34.67 2.89, 34.67 8.67 C34.67 14.32, 34.67 19.97, 34.67 26.33 C34.67 32.11, 31.78 35, 26 35 C20.22 35, 14.44 35, 8.67 35 C2.89 35, 0 32.11, 0 26.33 C0 19.96, 0 13.58, 0 8.67 C0 2.89, 2.89 0, 8.67 0" stroke="none" stroke-width="0" fill="#ffc9c9"/><path d="M8.67 0 C13.95 0, 19.22 0, 26 0 M8.67 0 C13 0, 17.33 0, 26 0 M26 0 C31.78 0, 34.67 2.89, 34.67 8.67 M26 0 C31.78 0, 34.67 2.89, 34.67 8.67 M34.67 8.67 C34.67 15.63, 34.67 22.6, 34.67 26.33 M34.67 8.67 C34.67 15.12, 34.67 21.56, 34.67 26.33 M34.67 26.33 C34.67 32.11, 31.78 35, 26 35 M34.67 26.33 C34.67 32.11, 31.78 35, 26 35 M26 35 C22.22 35, 18.44 35, 8.67 35 M26 35 C20.28 35, 14.56 35, 8.67 35 M8.67 35 C2.89 35, 0 32.11, 0 26.33 M8.67 35 C2.89 35, 0 32.11, 0 26.33 M0 26.33 C0 19.86, 0 13.38, 0 8.67 M0 26.33 C0 22.7, 0 19.07, 0 8.67 M0 8.67 C0 2.89, 2.89 0, 8.67 0 M0 8.67 C0 2.89, 2.89 0, 8.67 0" stroke="#1e1e1e" stroke-width="2" fill="none"/></g><g transform="translate(265.7718517978516 16) rotate(0 5.5615234375 11.5)"><text x="5.5615234375" y="18.400390625" font-family="Helvetica, Segoe UI Emoji" font-size="20px" fill="#1e1e1e" text-anchor="middle" style="white-space: pre;" direction="ltr" dominant-baseline="alphabetic">0</text></g><g stroke-linecap="round" transform="translate(12.090185242569646 45.09928678488501) rotate(0 138.81081337871515 17.475178731092683)"><path d="M8.74 0 C78.69 0, 148.65 0, 268.88 0 M8.74 0 C76.45 0, 144.17 0, 268.88 0 M268.88 0 C274.71 0, 277.62 2.91, 277.62 8.74 M268.88 0 C274.71 0, 277.62 2.91, 277.62 8.74 M277.62 8.74 C277.62 14.09, 277.62 19.44, 277.62 26.21 M277.62 8.74 C277.62 13.58, 277.62 18.41, 277.62 26.21 M277.62 26.21 C277.62 32.04, 274.71 34.95, 268.88 34.95 M277.62 26.21 C277.62 32.04, 274.71 34.95, 268.88 34.95 M268.88 34.95 C176.39 34.95, 83.91 34.95, 8.74 34.95 M268.88 34.95 C174.51 34.95, 80.14 34.95, 8.74 34.95 M8.74 34.95 C2.91 34.95, 0 32.04, 0 26.21 M8.74 34.95 C2.91 34.95, 0 32.04, 0 26.21 M0 26.21 C0 20.32, 0 14.42, 0 8.74 M0 26.21 C0 20.94, 0 15.67, 0 8.74 M0 8.74 C0 2.91, 2.91 0, 8.74 0 M0 8.74 C0 2.91, 2.91 0, 8.74 0" stroke="#1e1e1e" stroke-width="2" fill="none"/></g><g stroke-linecap="round" transform="translate(11.045092999999952 45.049644729492286) rotate(0 17.333343505859375 17.5)"><path d="M8.67 0 C12.82 0, 16.98 0, 26 0 C31.78 0, 34.67 2.89, 34.67 8.67 C34.67 14.58, 34.67 20.49, 34.67 26.33 C34.67 32.11, 31.78 35, 26 35 C19.6 35, 13.19 35, 8.67 35 C2.89 35, 0 32.11, 0 26.33 C0 20.37, 0 14.41, 0 8.67 C0 2.89, 2.89 0, 8.67 0" stroke="none" stroke-width="0" fill="#b2f2bb"/><path d="M8.67 0 C14.85 0, 21.04 0, 26 0 M8.67 0 C14.35 0, 20.03 0, 26 0 M26 0 C31.78 0, 34.67 2.89, 34.67 8.67 M26 0 C31.78 0, 34.67 2.89, 34.67 8.67 M34.67 8.67 C34.67 14.7, 34.67 20.73, 34.67 26.33 M34.67 8.67 C34.67 14.51, 34.67 20.35, 34.67 26.33 M34.67 26.33 C34.67 32.11, 31.78 35, 26 35 M34.67 26.33 C34.67 32.11, 31.78 35, 26 35 M26 35 C20.8 35, 15.61 35, 8.67 35 M26 35 C21.49 35, 16.97 35, 8.67 35 M8.67 35 C2.89 35, 0 32.11, 0 26.33 M8.67 35 C2.89 35, 0 32.11, 0 26.33 M0 26.33 C0 20.47, 0 14.61, 0 8.67 M0 26.33 C0 21.39, 0 16.46, 0 8.67 M0 8.67 C0 2.89, 2.89 0, 8.67 0 M0 8.67 C0 2.89, 2.89 0, 8.67 0" stroke="#1e1e1e" stroke-width="2" fill="none"/></g><g transform="translate(22.816913068359327 51.049644729492286) rotate(0 5.5615234375 11.5)"><text x="5.5615234375" y="18.400390625" font-family="Helvetica, Segoe UI Emoji" font-size="20px" fill="#1e1e1e" text-anchor="middle" style="white-space: pre;" direction="ltr" dominant-baseline="alphabetic">1</text></g><g stroke-linecap="round" transform="translate(80.37846824707026 45.04964449414064) rotate(0 17.333343505859375 17.5)"><path d="M8.67 0 C13.84 0, 19 0, 26 0 C31.78 0, 34.67 2.89, 34.67 8.67 C34.67 14.12, 34.67 19.57, 34.67 26.33 C34.67 32.11, 31.78 35, 26 35 C19.92 35, 13.83 35, 8.67 35 C2.89 35, 0 32.11, 0 26.33 C0 21.21, 0 16.08, 0 8.67 C0 2.89, 2.89 0, 8.67 0" stroke="none" stroke-width="0" fill="#b2f2bb"/><path d="M8.67 0 C13.35 0, 18.03 0, 26 0 M8.67 0 C14.42 0, 20.18 0, 26 0 M26 0 C31.78 0, 34.67 2.89, 34.67 8.67 M26 0 C31.78 0, 34.67 2.89, 34.67 8.67 M34.67 8.67 C34.67 14.32, 34.67 19.97, 34.67 26.33 M34.67 8.67 C34.67 14.52, 34.67 20.38, 34.67 26.33 M34.67 26.33 C34.67 32.11, 31.78 35, 26 35 M34.67 26.33 C34.67 32.11, 31.78 35, 26 35 M26 35 C19.74 35, 13.49 35, 8.67 35 M26 35 C19.88 35, 13.77 35, 8.67 35 M8.67 35 C2.89 35, 0 32.11, 0 26.33 M8.67 35 C2.89 35, 0 32.11, 0 26.33 M0 26.33 C0 21.63, 0 16.93, 0 8.67 M0 26.33 C0 20.73, 0 15.13, 0 8.67 M0 8.67 C0 2.89, 2.89 0, 8.67 0 M0 8.67 C0 2.89, 2.89 0, 8.67 0" stroke="#1e1e1e" stroke-width="2" fill="none"/></g><g transform="translate(92.15028831542963 51.04964449414064) rotate(0 5.5615234375 11.5)"><text x="5.5615234375" y="18.400390625" font-family="Helvetica, Segoe UI Emoji" font-size="20px" fill="#1e1e1e" text-anchor="middle" style="white-space: pre;" direction="ltr" dominant-baseline="alphabetic">1</text></g><g stroke-linecap="round" transform="translate(115.04515474121092 45.09928700000006) rotate(0 17.333343505859375 17.5)"><path d="M8.67 0 C13.68 0, 18.69 0, 26 0 C31.78 0, 34.67 2.89, 34.67 8.67 C34.67 13.18, 34.67 17.69, 34.67 26.33 C34.67 32.11, 31.78 35, 26 35 C21.26 35, 16.51 35, 8.67 35 C2.89 35, 0 32.11, 0 26.33 C0 19.51, 0 12.68, 0 8.67 C0 2.89, 2.89 0, 8.67 0" stroke="none" stroke-width="0" fill="#ffc9c9"/><path d="M8.67 0 C13.23 0, 17.79 0, 26 0 M8.67 0 C15.52 0, 22.37 0, 26 0 M26 0 C31.78 0, 34.67 2.89, 34.67 8.67 M26 0 C31.78 0, 34.67 2.89, 34.67 8.67 M34.67 8.67 C34.67 12.22, 34.67 15.77, 34.67 26.33 M34.67 8.67 C34.67 14.56, 34.67 20.45, 34.67 26.33 M34.67 26.33 C34.67 32.11, 31.78 35, 26 35 M34.67 26.33 C34.67 32.11, 31.78 35, 26 35 M26 35 C22.07 35, 18.13 35, 8.67 35 M26 35 C20.9 35, 15.81 35, 8.67 35 M8.67 35 C2.89 35, 0 32.11, 0 26.33 M8.67 35 C2.89 35, 0 32.11, 0 26.33 M0 26.33 C0 19.37, 0 12.41, 0 8.67 M0 26.33 C0 19.57, 0 12.8, 0 8.67 M0 8.67 C0 2.89, 2.89 0, 8.67 0 M0 8.67 C0 2.89, 2.89 0, 8.67 0" stroke="#1e1e1e" stroke-width="2" fill="none"/></g><g transform="translate(126.8169748095703 51.09928700000006) rotate(0 5.5615234375 11.5)"><text x="5.5615234375" y="18.400390625" font-family="Helvetica, Segoe UI Emoji" font-size="20px" fill="#1e1e1e" text-anchor="middle" style="white-space: pre;" direction="ltr" dominant-baseline="alphabetic">0</text></g><g stroke-linecap="round" transform="translate(220.37843824707033 45.04964349414064) rotate(0 17.333343505859375 17.5)"><path d="M8.67 0 C13.54 0, 18.42 0, 26 0 C31.78 0, 34.67 2.89, 34.67 8.67 C34.67 12.37, 34.67 16.07, 34.67 26.33 C34.67 32.11, 31.78 35, 26 35 C21.71 35, 17.41 35, 8.67 35 C2.89 35, 0 32.11, 0 26.33 C0 22.62, 0 18.92, 0 8.67 C0 2.89, 2.89 0, 8.67 0" stroke="none" stroke-width="0" fill="#b2f2bb"/><path d="M8.67 0 C14.94 0, 21.2 0, 26 0 M8.67 0 C12.67 0, 16.67 0, 26 0 M26 0 C31.78 0, 34.67 2.89, 34.67 8.67 M26 0 C31.78 0, 34.67 2.89, 34.67 8.67 M34.67 8.67 C34.67 15.05, 34.67 21.43, 34.67 26.33 M34.67 8.67 C34.67 13.65, 34.67 18.63, 34.67 26.33 M34.67 26.33 C34.67 32.11, 31.78 35, 26 35 M34.67 26.33 C34.67 32.11, 31.78 35, 26 35 M26 35 C19.58 35, 13.15 35, 8.67 35 M26 35 C22.11 35, 18.22 35, 8.67 35 M8.67 35 C2.89 35, 0 32.11, 0 26.33 M8.67 35 C2.89 35, 0 32.11, 0 26.33 M0 26.33 C0 21.28, 0 16.22, 0 8.67 M0 26.33 C0 21.28, 0 16.22, 0 8.67 M0 8.67 C0 2.89, 2.89 0, 8.67 0 M0 8.67 C0 2.89, 2.89 0, 8.67 0" stroke="#1e1e1e" stroke-width="2" fill="none"/></g><g transform="translate(232.1502583154297 51.04964349414064) rotate(0 5.5615234375 11.5)"><text x="5.5615234375" y="18.400390625" font-family="Helvetica, Segoe UI Emoji" font-size="20px" fill="#1e1e1e" text-anchor="middle" style="white-space: pre;" direction="ltr" dominant-baseline="alphabetic">1</text></g><g stroke-linecap="round" transform="translate(150.1116437274635 45.09931636323313) rotate(0 17.333343505859375 17.5)"><path d="M8.67 0 C14.3 0, 19.94 0, 26 0 C31.78 0, 34.67 2.89, 34.67 8.67 C34.67 13.26, 34.67 17.86, 34.67 26.33 C34.67 32.11, 31.78 35, 26 35 C21.87 35, 17.75 35, 8.67 35 C2.89 35, 0 32.11, 0 26.33 C0 21.95, 0 17.57, 0 8.67 C0 2.89, 2.89 0, 8.67 0" stroke="none" stroke-width="0" fill="#ffc9c9"/><path d="M8.67 0 C13.98 0, 19.29 0, 26 0 M8.67 0 C13.47 0, 18.26 0, 26 0 M26 0 C31.78 0, 34.67 2.89, 34.67 8.67 M26 0 C31.78 0, 34.67 2.89, 34.67 8.67 M34.67 8.67 C34.67 14.95, 34.67 21.23, 34.67 26.33 M34.67 8.67 C34.67 15.08, 34.67 21.48, 34.67 26.33 M34.67 26.33 C34.67 32.11, 31.78 35, 26 35 M34.67 26.33 C34.67 32.11, 31.78 35, 26 35 M26 35 C20.15 35, 14.31 35, 8.67 35 M26 35 C20.77 35, 15.54 35, 8.67 35 M8.67 35 C2.89 35, 0 32.11, 0 26.33 M8.67 35 C2.89 35, 0 32.11, 0 26.33 M0 26.33 C0 21.86, 0 17.39, 0 8.67 M0 26.33 C0 19.57, 0 12.81, 0 8.67 M0 8.67 C0 2.89, 2.89 0, 8.67 0 M0 8.67 C0 2.89, 2.89 0, 8.67 0" stroke="#1e1e1e" stroke-width="2" fill="none"/></g><g transform="translate(161.88346379582288 51.09931636323313) rotate(0 5.5615234375 11.5)"><text x="5.5615234375" y="18.400390625" font-family="Helvetica, Segoe UI Emoji" font-size="20px" fill="#1e1e1e" text-anchor="middle" style="white-space: pre;" direction="ltr" dominant-baseline="alphabetic">0</text></g><g stroke-linecap="round" transform="translate(255.0451247294922 45.049644) rotate(0 17.333343505859375 17.5)"><path d="M8.67 0 C15.39 0, 22.12 0, 26 0 C31.78 0, 34.67 2.89, 34.67 8.67 C34.67 15.09, 34.67 21.51, 34.67 26.33 C34.67 32.11, 31.78 35, 26 35 C19.1 35, 12.21 35, 8.67 35 C2.89 35, 0 32.11, 0 26.33 C0 22.45, 0 18.56, 0 8.67 C0 2.89, 2.89 0, 8.67 0" stroke="none" stroke-width="0" fill="#ffc9c9"/><path d="M8.67 0 C14.17 0, 19.68 0, 26 0 M8.67 0 C12.23 0, 15.79 0, 26 0 M26 0 C31.78 0, 34.67 2.89, 34.67 8.67 M26 0 C31.78 0, 34.67 2.89, 34.67 8.67 M34.67 8.67 C34.67 14.68, 34.67 20.69, 34.67 26.33 M34.67 8.67 C34.67 13.38, 34.67 18.09, 34.67 26.33 M34.67 26.33 C34.67 32.11, 31.78 35, 26 35 M34.67 26.33 C34.67 32.11, 31.78 35, 26 35 M26 35 C21.81 35, 17.61 35, 8.67 35 M26 35 C21.07 35, 16.13 35, 8.67 35 M8.67 35 C2.89 35, 0 32.11, 0 26.33 M8.67 35 C2.89 35, 0 32.11, 0 26.33 M0 26.33 C0 22.41, 0 18.5, 0 8.67 M0 26.33 C0 21.35, 0 16.37, 0 8.67 M0 8.67 C0 2.89, 2.89 0, 8.67 0 M0 8.67 C0 2.89, 2.89 0, 8.67 0" stroke="#1e1e1e" stroke-width="2" fill="none"/></g><g transform="translate(266.81694479785153 51.049644) rotate(0 5.5615234375 11.5)"><text x="5.5615234375" y="18.400390625" font-family="Helvetica, Segoe UI Emoji" font-size="20px" fill="#1e1e1e" text-anchor="middle" style="white-space: pre;" direction="ltr" dominant-baseline="alphabetic">0</text></g><g stroke-linecap="round" transform="translate(185.46839075147903 45.18385490582216) rotate(0 17.333343505859375 17.5)"><path d="M8.67 0 C15.15 0, 21.64 0, 26 0 C31.78 0, 34.67 2.89, 34.67 8.67 C34.67 15.27, 34.67 21.87, 34.67 26.33 C34.67 32.11, 31.78 35, 26 35 C19.33 35, 12.65 35, 8.67 35 C2.89 35, 0 32.11, 0 26.33 C0 20.74, 0 15.14, 0 8.67 C0 2.89, 2.89 0, 8.67 0" stroke="none" stroke-width="0" fill="#ffc9c9"/><path d="M8.67 0 C14.81 0, 20.96 0, 26 0 M8.67 0 C13.77 0, 18.88 0, 26 0 M26 0 C31.78 0, 34.67 2.89, 34.67 8.67 M26 0 C31.78 0, 34.67 2.89, 34.67 8.67 M34.67 8.67 C34.67 14.21, 34.67 19.75, 34.67 26.33 M34.67 8.67 C34.67 14.18, 34.67 19.7, 34.67 26.33 M34.67 26.33 C34.67 32.11, 31.78 35, 26 35 M34.67 26.33 C34.67 32.11, 31.78 35, 26 35 M26 35 C21.65 35, 17.3 35, 8.67 35 M26 35 C20.26 35, 14.51 35, 8.67 35 M8.67 35 C2.89 35, 0 32.11, 0 26.33 M8.67 35 C2.89 35, 0 32.11, 0 26.33 M0 26.33 C0 20.17, 0 14, 0 8.67 M0 26.33 C0 19.29, 0 12.25, 0 8.67 M0 8.67 C0 2.89, 2.89 0, 8.67 0 M0 8.67 C0 2.89, 2.89 0, 8.67 0" stroke="#1e1e1e" stroke-width="2" fill="none"/></g><g transform="translate(197.2402108198384 51.18385490582216) rotate(0 5.5615234375 11.5)"><text x="5.5615234375" y="18.400390625" font-family="Helvetica, Segoe UI Emoji" font-size="20px" fill="#1e1e1e" text-anchor="middle" style="white-space: pre;" direction="ltr" dominant-baseline="alphabetic">0</text></g><g stroke-linecap="round" transform="translate(45.711780385026714 45.049643504696974) rotate(0 17.333343505859375 17.5)"><path d="M8.67 0 C14.16 0, 19.65 0, 26 0 C31.78 0, 34.67 2.89, 34.67 8.67 C34.67 14.28, 34.67 19.89, 34.67 26.33 C34.67 32.11, 31.78 35, 26 35 C20.09 35, 14.17 35, 8.67 35 C2.89 35, 0 32.11, 0 26.33 C0 19.83, 0 13.33, 0 8.67 C0 2.89, 2.89 0, 8.67 0" stroke="none" stroke-width="0" fill="#b2f2bb"/><path d="M8.67 0 C14.88 0, 21.09 0, 26 0 M8.67 0 C14.79 0, 20.92 0, 26 0 M26 0 C31.78 0, 34.67 2.89, 34.67 8.67 M26 0 C31.78 0, 34.67 2.89, 34.67 8.67 M34.67 8.67 C34.67 13.93, 34.67 19.19, 34.67 26.33 M34.67 8.67 C34.67 12.22, 34.67 15.77, 34.67 26.33 M34.67 26.33 C34.67 32.11, 31.78 35, 26 35 M34.67 26.33 C34.67 32.11, 31.78 35, 26 35 M26 35 C20.68 35, 15.35 35, 8.67 35 M26 35 C19.43 35, 12.86 35, 8.67 35 M8.67 35 C2.89 35, 0 32.11, 0 26.33 M8.67 35 C2.89 35, 0 32.11, 0 26.33 M0 26.33 C0 22.63, 0 18.93, 0 8.67 M0 26.33 C0 22.73, 0 19.13, 0 8.67 M0 8.67 C0 2.89, 2.89 0, 8.67 0 M0 8.67 C0 2.89, 2.89 0, 8.67 0" stroke="#1e1e1e" stroke-width="2" fill="none"/></g><g transform="translate(57.48360045338609 51.049643504696974) rotate(0 5.5615234375 11.5)"><text x="5.5615234375" y="18.400390625" font-family="Helvetica, Segoe UI Emoji" font-size="20px" fill="#1e1e1e" text-anchor="middle" style="white-space: pre;" direction="ltr" dominant-baseline="alphabetic">1</text></g><g stroke-linecap="round" transform="translate(13.135277630133146 80.14892972712778) rotate(0 138.81081337871515 17.475178731092683)"><path d="M8.74 0 C81.22 0, 153.7 0, 268.88 0 M8.74 0 C75.4 0, 142.06 0, 268.88 0 M268.88 0 C274.71 0, 277.62 2.91, 277.62 8.74 M268.88 0 C274.71 0, 277.62 2.91, 277.62 8.74 M277.62 8.74 C277.62 12.71, 277.62 16.69, 277.62 26.21 M277.62 8.74 C277.62 14.66, 277.62 20.58, 277.62 26.21 M277.62 26.21 C277.62 32.04, 274.71 34.95, 268.88 34.95 M277.62 26.21 C277.62 32.04, 274.71 34.95, 268.88 34.95 M268.88 34.95 C216 34.95, 163.11 34.95, 8.74 34.95 M268.88 34.95 C216.78 34.95, 164.68 34.95, 8.74 34.95 M8.74 34.95 C2.91 34.95, 0 32.04, 0 26.21 M8.74 34.95 C2.91 34.95, 0 32.04, 0 26.21 M0 26.21 C0 21.75, 0 17.29, 0 8.74 M0 26.21 C0 21.56, 0 16.91, 0 8.74 M0 8.74 C0 2.91, 2.91 0, 8.74 0 M0 8.74 C0 2.91, 2.91 0, 8.74 0" stroke="#1e1e1e" stroke-width="2" fill="none"/></g><g stroke-linecap="round" transform="translate(46.75687288170411 80.14893017759437) rotate(0 17.333343505859375 17.5)"><path d="M8.67 0 C14.69 0, 20.72 0, 26 0 C31.78 0, 34.67 2.89, 34.67 8.67 C34.67 13.79, 34.67 18.92, 34.67 26.33 C34.67 32.11, 31.78 35, 26 35 C22.1 35, 18.19 35, 8.67 35 C2.89 35, 0 32.11, 0 26.33 C0 21.04, 0 15.75, 0 8.67 C0 2.89, 2.89 0, 8.67 0" stroke="none" stroke-width="0" fill="#ffc9c9"/><path d="M8.67 0 C12.89 0, 17.12 0, 26 0 M8.67 0 C15.05 0, 21.43 0, 26 0 M26 0 C31.78 0, 34.67 2.89, 34.67 8.67 M26 0 C31.78 0, 34.67 2.89, 34.67 8.67 M34.67 8.67 C34.67 12.21, 34.67 15.75, 34.67 26.33 M34.67 8.67 C34.67 13.48, 34.67 18.3, 34.67 26.33 M34.67 26.33 C34.67 32.11, 31.78 35, 26 35 M34.67 26.33 C34.67 32.11, 31.78 35, 26 35 M26 35 C20.35 35, 14.71 35, 8.67 35 M26 35 C22.08 35, 18.16 35, 8.67 35 M8.67 35 C2.89 35, 0 32.11, 0 26.33 M8.67 35 C2.89 35, 0 32.11, 0 26.33 M0 26.33 C0 21.47, 0 16.6, 0 8.67 M0 26.33 C0 22.43, 0 18.52, 0 8.67 M0 8.67 C0 2.89, 2.89 0, 8.67 0 M0 8.67 C0 2.89, 2.89 0, 8.67 0" stroke="#1e1e1e" stroke-width="2" fill="none"/></g><g transform="translate(58.52869295006349 86.14893017759437) rotate(0 5.5615234375 11.5)"><text x="5.5615234375" y="18.400390625" font-family="Helvetica, Segoe UI Emoji" font-size="20px" fill="#1e1e1e" text-anchor="middle" style="white-space: pre;" direction="ltr" dominant-baseline="alphabetic">0</text></g><g stroke-linecap="round" transform="translate(81.42356063463376 80.0992874363834) rotate(0 17.333343505859375 17.5)"><path d="M8.67 0 C12.84 0, 17.02 0, 26 0 C31.78 0, 34.67 2.89, 34.67 8.67 C34.67 15.38, 34.67 22.09, 34.67 26.33 C34.67 32.11, 31.78 35, 26 35 C21.71 35, 17.41 35, 8.67 35 C2.89 35, 0 32.11, 0 26.33 C0 22.02, 0 17.7, 0 8.67 C0 2.89, 2.89 0, 8.67 0" stroke="none" stroke-width="0" fill="#b2f2bb"/><path d="M8.67 0 C12.25 0, 15.84 0, 26 0 M8.67 0 C14.79 0, 20.91 0, 26 0 M26 0 C31.78 0, 34.67 2.89, 34.67 8.67 M26 0 C31.78 0, 34.67 2.89, 34.67 8.67 M34.67 8.67 C34.67 14.74, 34.67 20.81, 34.67 26.33 M34.67 8.67 C34.67 13.7, 34.67 18.73, 34.67 26.33 M34.67 26.33 C34.67 32.11, 31.78 35, 26 35 M34.67 26.33 C34.67 32.11, 31.78 35, 26 35 M26 35 C20.9 35, 15.81 35, 8.67 35 M26 35 C19.14 35, 12.29 35, 8.67 35 M8.67 35 C2.89 35, 0 32.11, 0 26.33 M8.67 35 C2.89 35, 0 32.11, 0 26.33 M0 26.33 C0 20.81, 0 15.29, 0 8.67 M0 26.33 C0 20.25, 0 14.16, 0 8.67 M0 8.67 C0 2.89, 2.89 0, 8.67 0 M0 8.67 C0 2.89, 2.89 0, 8.67 0" stroke="#1e1e1e" stroke-width="2" fill="none"/></g><g transform="translate(93.19538070299313 86.0992874363834) rotate(0 5.5615234375 11.5)"><text x="5.5615234375" y="18.400390625" font-family="Helvetica, Segoe UI Emoji" font-size="20px" fill="#1e1e1e" text-anchor="middle" style="white-space: pre;" direction="ltr" dominant-baseline="alphabetic">1</text></g><g stroke-linecap="round" transform="translate(116.09024712877442 80.14892994224283) rotate(0 17.333343505859375 17.5)"><path d="M8.67 0 C12.23 0, 15.8 0, 26 0 C31.78 0, 34.67 2.89, 34.67 8.67 C34.67 15.59, 34.67 22.5, 34.67 26.33 C34.67 32.11, 31.78 35, 26 35 C19.94 35, 13.87 35, 8.67 35 C2.89 35, 0 32.11, 0 26.33 C0 19.85, 0 13.37, 0 8.67 C0 2.89, 2.89 0, 8.67 0" stroke="none" stroke-width="0" fill="#ffc9c9"/><path d="M8.67 0 C12.79 0, 16.91 0, 26 0 M8.67 0 C14 0, 19.32 0, 26 0 M26 0 C31.78 0, 34.67 2.89, 34.67 8.67 M26 0 C31.78 0, 34.67 2.89, 34.67 8.67 M34.67 8.67 C34.67 12.84, 34.67 17.01, 34.67 26.33 M34.67 8.67 C34.67 13.98, 34.67 19.3, 34.67 26.33 M34.67 26.33 C34.67 32.11, 31.78 35, 26 35 M34.67 26.33 C34.67 32.11, 31.78 35, 26 35 M26 35 C21.99 35, 17.99 35, 8.67 35 M26 35 C19.77 35, 13.54 35, 8.67 35 M8.67 35 C2.89 35, 0 32.11, 0 26.33 M8.67 35 C2.89 35, 0 32.11, 0 26.33 M0 26.33 C0 20.35, 0 14.36, 0 8.67 M0 26.33 C0 20.22, 0 14.11, 0 8.67 M0 8.67 C0 2.89, 2.89 0, 8.67 0 M0 8.67 C0 2.89, 2.89 0, 8.67 0" stroke="#1e1e1e" stroke-width="2" fill="none"/></g><g transform="translate(127.8620671971338 86.14892994224283) rotate(0 5.5615234375 11.5)"><text x="5.5615234375" y="18.400390625" font-family="Helvetica, Segoe UI Emoji" font-size="20px" fill="#1e1e1e" text-anchor="middle" style="white-space: pre;" direction="ltr" dominant-baseline="alphabetic">0</text></g><g stroke-linecap="round" transform="translate(152.30198264635254 115.01474893052404) rotate(0 17.333343505859375 17.5)"><path d="M8.67 0 C14.8 0, 20.94 0, 26 0 C31.78 0, 34.67 2.89, 34.67 8.67 C34.67 14.24, 34.67 19.81, 34.67 26.33 C34.67 32.11, 31.78 35, 26 35 C21.95 35, 17.9 35, 8.67 35 C2.89 35, 0 32.11, 0 26.33 C0 19.62, 0 12.91, 0 8.67 C0 2.89, 2.89 0, 8.67 0" stroke="none" stroke-width="0" fill="#b2f2bb"/><path d="M8.67 0 C12.81 0, 16.96 0, 26 0 M8.67 0 C14.21 0, 19.74 0, 26 0 M26 0 C31.78 0, 34.67 2.89, 34.67 8.67 M26 0 C31.78 0, 34.67 2.89, 34.67 8.67 M34.67 8.67 C34.67 13.45, 34.67 18.23, 34.67 26.33 M34.67 8.67 C34.67 13.65, 34.67 18.63, 34.67 26.33 M34.67 26.33 C34.67 32.11, 31.78 35, 26 35 M34.67 26.33 C34.67 32.11, 31.78 35, 26 35 M26 35 C19.16 35, 12.33 35, 8.67 35 M26 35 C19.48 35, 12.96 35, 8.67 35 M8.67 35 C2.89 35, 0 32.11, 0 26.33 M8.67 35 C2.89 35, 0 32.11, 0 26.33 M0 26.33 C0 21.9, 0 17.47, 0 8.67 M0 26.33 C0 22.67, 0 19.01, 0 8.67 M0 8.67 C0 2.89, 2.89 0, 8.67 0 M0 8.67 C0 2.89, 2.89 0, 8.67 0" stroke="#1e1e1e" stroke-width="2" fill="none"/></g><g transform="translate(164.07380271471192 121.01474893052404) rotate(0 5.5615234375 11.5)"><text x="5.5615234375" y="18.400390625" font-family="Helvetica, Segoe UI Emoji" font-size="20px" fill="#1e1e1e" text-anchor="middle" style="white-space: pre;" direction="ltr" dominant-baseline="alphabetic">1</text></g><g stroke-linecap="round" transform="translate(221.42353012877433 80.1489299305241) rotate(0 17.333343505859375 17.5)"><path d="M8.67 0 C14.07 0, 19.48 0, 26 0 C31.78 0, 34.67 2.89, 34.67 8.67 C34.67 14.01, 34.67 19.35, 34.67 26.33 C34.67 32.11, 31.78 35, 26 35 C19.68 35, 13.36 35, 8.67 35 C2.89 35, 0 32.11, 0 26.33 C0 20.91, 0 15.49, 0 8.67 C0 2.89, 2.89 0, 8.67 0" stroke="none" stroke-width="0" fill="#ffc9c9"/><path d="M8.67 0 C12.61 0, 16.55 0, 26 0 M8.67 0 C14.54 0, 20.41 0, 26 0 M26 0 C31.78 0, 34.67 2.89, 34.67 8.67 M26 0 C31.78 0, 34.67 2.89, 34.67 8.67 M34.67 8.67 C34.67 12.26, 34.67 15.85, 34.67 26.33 M34.67 8.67 C34.67 12.2, 34.67 15.74, 34.67 26.33 M34.67 26.33 C34.67 32.11, 31.78 35, 26 35 M34.67 26.33 C34.67 32.11, 31.78 35, 26 35 M26 35 C21.58 35, 17.15 35, 8.67 35 M26 35 C21.39 35, 16.77 35, 8.67 35 M8.67 35 C2.89 35, 0 32.11, 0 26.33 M8.67 35 C2.89 35, 0 32.11, 0 26.33 M0 26.33 C0 22.63, 0 18.92, 0 8.67 M0 26.33 C0 22.44, 0 18.54, 0 8.67 M0 8.67 C0 2.89, 2.89 0, 8.67 0 M0 8.67 C0 2.89, 2.89 0, 8.67 0" stroke="#1e1e1e" stroke-width="2" fill="none"/></g><g transform="translate(233.1953501971337 86.1489299305241) rotate(0 5.5615234375 11.5)"><text x="5.5615234375" y="18.400390625" font-family="Helvetica, Segoe UI Emoji" font-size="20px" fill="#1e1e1e" text-anchor="middle" style="white-space: pre;" direction="ltr" dominant-baseline="alphabetic">0</text></g><g stroke-linecap="round" transform="translate(187.301982622915 115.01474893052404) rotate(0 17.333343505859375 17.5)"><path d="M8.67 0 C14.2 0, 19.73 0, 26 0 C31.78 0, 34.67 2.89, 34.67 8.67 C34.67 15.1, 34.67 21.53, 34.67 26.33 C34.67 32.11, 31.78 35, 26 35 C21.27 35, 16.54 35, 8.67 35 C2.89 35, 0 32.11, 0 26.33 C0 19.57, 0 12.81, 0 8.67 C0 2.89, 2.89 0, 8.67 0" stroke="none" stroke-width="0" fill="#b2f2bb"/><path d="M8.67 0 C12.71 0, 16.76 0, 26 0 M8.67 0 C13.45 0, 18.23 0, 26 0 M26 0 C31.78 0, 34.67 2.89, 34.67 8.67 M26 0 C31.78 0, 34.67 2.89, 34.67 8.67 M34.67 8.67 C34.67 13.17, 34.67 17.67, 34.67 26.33 M34.67 8.67 C34.67 14.65, 34.67 20.64, 34.67 26.33 M34.67 26.33 C34.67 32.11, 31.78 35, 26 35 M34.67 26.33 C34.67 32.11, 31.78 35, 26 35 M26 35 C19.09 35, 12.18 35, 8.67 35 M26 35 C20.63 35, 15.26 35, 8.67 35 M8.67 35 C2.89 35, 0 32.11, 0 26.33 M8.67 35 C2.89 35, 0 32.11, 0 26.33 M0 26.33 C0 20.31, 0 14.28, 0 8.67 M0 26.33 C0 21.22, 0 16.11, 0 8.67 M0 8.67 C0 2.89, 2.89 0, 8.67 0 M0 8.67 C0 2.89, 2.89 0, 8.67 0" stroke="#1e1e1e" stroke-width="2" fill="none"/></g><g transform="translate(199.07380269127438 121.01474893052404) rotate(0 5.5615234375 11.5)"><text x="5.5615234375" y="18.400390625" font-family="Helvetica, Segoe UI Emoji" font-size="20px" fill="#1e1e1e" text-anchor="middle" style="white-space: pre;" direction="ltr" dominant-baseline="alphabetic">1</text></g><g stroke-linecap="round" transform="translate(256.09021711705566 80.09928694224277) rotate(0 17.333343505859375 17.5)"><path d="M8.67 0 C14.39 0, 20.1 0, 26 0 C31.78 0, 34.67 2.89, 34.67 8.67 C34.67 13.5, 34.67 18.34, 34.67 26.33 C34.67 32.11, 31.78 35, 26 35 C21.63 35, 17.26 35, 8.67 35 C2.89 35, 0 32.11, 0 26.33 C0 20.1, 0 13.87, 0 8.67 C0 2.89, 2.89 0, 8.67 0" stroke="none" stroke-width="0" fill="#ffc9c9"/><path d="M8.67 0 C12.16 0, 15.65 0, 26 0 M8.67 0 C13.89 0, 19.12 0, 26 0 M26 0 C31.78 0, 34.67 2.89, 34.67 8.67 M26 0 C31.78 0, 34.67 2.89, 34.67 8.67 M34.67 8.67 C34.67 12.37, 34.67 16.06, 34.67 26.33 M34.67 8.67 C34.67 15.58, 34.67 22.49, 34.67 26.33 M34.67 26.33 C34.67 32.11, 31.78 35, 26 35 M34.67 26.33 C34.67 32.11, 31.78 35, 26 35 M26 35 C22.11 35, 18.22 35, 8.67 35 M26 35 C19.96 35, 13.92 35, 8.67 35 M8.67 35 C2.89 35, 0 32.11, 0 26.33 M8.67 35 C2.89 35, 0 32.11, 0 26.33 M0 26.33 C0 22.21, 0 18.08, 0 8.67 M0 26.33 C0 22.31, 0 18.29, 0 8.67 M0 8.67 C0 2.89, 2.89 0, 8.67 0 M0 8.67 C0 2.89, 2.89 0, 8.67 0" stroke="#1e1e1e" stroke-width="2" fill="none"/></g><g transform="translate(267.86203718541503 86.09928694224277) rotate(0 5.5615234375 11.5)"><text x="5.5615234375" y="18.400390625" font-family="Helvetica, Segoe UI Emoji" font-size="20px" fill="#1e1e1e" text-anchor="middle" style="white-space: pre;" direction="ltr" dominant-baseline="alphabetic">0</text></g><g stroke-linecap="round" transform="translate(14.180370630133098 115.19857372712784) rotate(0 138.81081337871515 17.475178731092683)"><path d="M8.74 0 C84.38 0, 160.02 0, 268.88 0 M8.74 0 C99.42 0, 190.1 0, 268.88 0 M268.88 0 C274.71 0, 277.62 2.91, 277.62 8.74 M268.88 0 C274.71 0, 277.62 2.91, 277.62 8.74 M277.62 8.74 C277.62 14.26, 277.62 19.78, 277.62 26.21 M277.62 8.74 C277.62 15.08, 277.62 21.42, 277.62 26.21 M277.62 26.21 C277.62 32.04, 274.71 34.95, 268.88 34.95 M277.62 26.21 C277.62 32.04, 274.71 34.95, 268.88 34.95 M268.88 34.95 C205 34.95, 141.12 34.95, 8.74 34.95 M268.88 34.95 C194.74 34.95, 120.6 34.95, 8.74 34.95 M8.74 34.95 C2.91 34.95, 0 32.04, 0 26.21 M8.74 34.95 C2.91 34.95, 0 32.04, 0 26.21 M0 26.21 C0 22, 0 17.79, 0 8.74 M0 26.21 C0 21.65, 0 17.09, 0 8.74 M0 8.74 C0 2.91, 2.91 0, 8.74 0 M0 8.74 C0 2.91, 2.91 0, 8.74 0" stroke="#1e1e1e" stroke-width="2" fill="none"/></g><g stroke-linecap="round" transform="translate(82.46865363463371 115.14893143638346) rotate(0 17.333343505859375 17.5)"><path d="M8.67 0 C12.72 0, 16.77 0, 26 0 C31.78 0, 34.67 2.89, 34.67 8.67 C34.67 15.38, 34.67 22.09, 34.67 26.33 C34.67 32.11, 31.78 35, 26 35 C21.24 35, 16.49 35, 8.67 35 C2.89 35, 0 32.11, 0 26.33 C0 20.51, 0 14.68, 0 8.67 C0 2.89, 2.89 0, 8.67 0" stroke="none" stroke-width="0" fill="#b2f2bb"/><path d="M8.67 0 C13.36 0, 18.05 0, 26 0 M8.67 0 C13.55 0, 18.44 0, 26 0 M26 0 C31.78 0, 34.67 2.89, 34.67 8.67 M26 0 C31.78 0, 34.67 2.89, 34.67 8.67 M34.67 8.67 C34.67 15.64, 34.67 22.6, 34.67 26.33 M34.67 8.67 C34.67 15.31, 34.67 21.96, 34.67 26.33 M34.67 26.33 C34.67 32.11, 31.78 35, 26 35 M34.67 26.33 C34.67 32.11, 31.78 35, 26 35 M26 35 C21.65 35, 17.31 35, 8.67 35 M26 35 C22.41 35, 18.81 35, 8.67 35 M8.67 35 C2.89 35, 0 32.11, 0 26.33 M8.67 35 C2.89 35, 0 32.11, 0 26.33 M0 26.33 C0 20.08, 0 13.82, 0 8.67 M0 26.33 C0 19.41, 0 12.5, 0 8.67 M0 8.67 C0 2.89, 2.89 0, 8.67 0 M0 8.67 C0 2.89, 2.89 0, 8.67 0" stroke="#1e1e1e" stroke-width="2" fill="none"/></g><g transform="translate(94.24047370299309 121.14893143638346) rotate(0 5.5615234375 11.5)"><text x="5.5615234375" y="18.400390625" font-family="Helvetica, Segoe UI Emoji" font-size="20px" fill="#1e1e1e" text-anchor="middle" style="white-space: pre;" direction="ltr" dominant-baseline="alphabetic">1</text></g><g stroke-linecap="round" transform="translate(117.13534012877437 115.19857394224289) rotate(0 17.333343505859375 17.5)"><path d="M8.67 0 C14.99 0, 21.31 0, 26 0 C31.78 0, 34.67 2.89, 34.67 8.67 C34.67 14.09, 34.67 19.51, 34.67 26.33 C34.67 32.11, 31.78 35, 26 35 C19.57 35, 13.14 35, 8.67 35 C2.89 35, 0 32.11, 0 26.33 C0 20.95, 0 15.57, 0 8.67 C0 2.89, 2.89 0, 8.67 0" stroke="none" stroke-width="0" fill="#ffc9c9"/><path d="M8.67 0 C12.19 0, 15.71 0, 26 0 M8.67 0 C12.14 0, 15.61 0, 26 0 M26 0 C31.78 0, 34.67 2.89, 34.67 8.67 M26 0 C31.78 0, 34.67 2.89, 34.67 8.67 M34.67 8.67 C34.67 13.17, 34.67 17.68, 34.67 26.33 M34.67 8.67 C34.67 13.37, 34.67 18.07, 34.67 26.33 M34.67 26.33 C34.67 32.11, 31.78 35, 26 35 M34.67 26.33 C34.67 32.11, 31.78 35, 26 35 M26 35 C22.36 35, 18.73 35, 8.67 35 M26 35 C22.18 35, 18.35 35, 8.67 35 M8.67 35 C2.89 35, 0 32.11, 0 26.33 M8.67 35 C2.89 35, 0 32.11, 0 26.33 M0 26.33 C0 20.82, 0 15.32, 0 8.67 M0 26.33 C0 20.76, 0 15.19, 0 8.67 M0 8.67 C0 2.89, 2.89 0, 8.67 0 M0 8.67 C0 2.89, 2.89 0, 8.67 0" stroke="#1e1e1e" stroke-width="2" fill="none"/></g><g transform="translate(128.90716019713375 121.19857394224289) rotate(0 5.5615234375 11.5)"><text x="5.5615234375" y="18.400390625" font-family="Helvetica, Segoe UI Emoji" font-size="20px" fill="#1e1e1e" text-anchor="middle" style="white-space: pre;" direction="ltr" dominant-baseline="alphabetic">0</text></g><g stroke-linecap="round" transform="translate(222.46862363463373 115.14893043638347) rotate(0 17.333343505859375 17.5)"><path d="M8.67 0 C13.4 0, 18.13 0, 26 0 C31.78 0, 34.67 2.89, 34.67 8.67 C34.67 15.43, 34.67 22.19, 34.67 26.33 C34.67 32.11, 31.78 35, 26 35 C21.05 35, 16.11 35, 8.67 35 C2.89 35, 0 32.11, 0 26.33 C0 20.9, 0 15.47, 0 8.67 C0 2.89, 2.89 0, 8.67 0" stroke="none" stroke-width="0" fill="#b2f2bb"/><path d="M8.67 0 C13.08 0, 17.5 0, 26 0 M8.67 0 C14.54 0, 20.41 0, 26 0 M26 0 C31.78 0, 34.67 2.89, 34.67 8.67 M26 0 C31.78 0, 34.67 2.89, 34.67 8.67 M34.67 8.67 C34.67 15.71, 34.67 22.75, 34.67 26.33 M34.67 8.67 C34.67 14.14, 34.67 19.61, 34.67 26.33 M34.67 26.33 C34.67 32.11, 31.78 35, 26 35 M34.67 26.33 C34.67 32.11, 31.78 35, 26 35 M26 35 C20.09 35, 14.18 35, 8.67 35 M26 35 C20.99 35, 15.97 35, 8.67 35 M8.67 35 C2.89 35, 0 32.11, 0 26.33 M8.67 35 C2.89 35, 0 32.11, 0 26.33 M0 26.33 C0 20.7, 0 15.06, 0 8.67 M0 26.33 C0 20.99, 0 15.65, 0 8.67 M0 8.67 C0 2.89, 2.89 0, 8.67 0 M0 8.67 C0 2.89, 2.89 0, 8.67 0" stroke="#1e1e1e" stroke-width="2" fill="none"/></g><g transform="translate(234.2404437029931 121.14893043638347) rotate(0 5.5615234375 11.5)"><text x="5.5615234375" y="18.400390625" font-family="Helvetica, Segoe UI Emoji" font-size="20px" fill="#1e1e1e" text-anchor="middle" style="white-space: pre;" direction="ltr" dominant-baseline="alphabetic">1</text></g><g stroke-linecap="round" transform="translate(151.07851511502693 80.0147483054759) rotate(0 17.333343505859375 17.5)"><path d="M8.67 0 C13.04 0, 17.41 0, 26 0 C31.78 0, 34.67 2.89, 34.67 8.67 C34.67 14.9, 34.67 21.13, 34.67 26.33 C34.67 32.11, 31.78 35, 26 35 C22.08 35, 18.16 35, 8.67 35 C2.89 35, 0 32.11, 0 26.33 C0 21.35, 0 16.37, 0 8.67 C0 2.89, 2.89 0, 8.67 0" stroke="none" stroke-width="0" fill="#ffc9c9"/><path d="M8.67 0 C12.3 0, 15.92 0, 26 0 M8.67 0 C15.45 0, 22.23 0, 26 0 M26 0 C31.78 0, 34.67 2.89, 34.67 8.67 M26 0 C31.78 0, 34.67 2.89, 34.67 8.67 M34.67 8.67 C34.67 12.63, 34.67 16.59, 34.67 26.33 M34.67 8.67 C34.67 14.82, 34.67 20.98, 34.67 26.33 M34.67 26.33 C34.67 32.11, 31.78 35, 26 35 M34.67 26.33 C34.67 32.11, 31.78 35, 26 35 M26 35 C21.95 35, 17.9 35, 8.67 35 M26 35 C22.05 35, 18.11 35, 8.67 35 M8.67 35 C2.89 35, 0 32.11, 0 26.33 M8.67 35 C2.89 35, 0 32.11, 0 26.33 M0 26.33 C0 20.5, 0 14.68, 0 8.67 M0 26.33 C0 19.9, 0 13.47, 0 8.67 M0 8.67 C0 2.89, 2.89 0, 8.67 0 M0 8.67 C0 2.89, 2.89 0, 8.67 0" stroke="#1e1e1e" stroke-width="2" fill="none"/></g><g transform="translate(162.8503351833863 86.0147483054759) rotate(0 5.5615234375 11.5)"><text x="5.5615234375" y="18.400390625" font-family="Helvetica, Segoe UI Emoji" font-size="20px" fill="#1e1e1e" text-anchor="middle" style="white-space: pre;" direction="ltr" dominant-baseline="alphabetic">0</text></g><g stroke-linecap="round" transform="translate(257.1353101170556 115.14893094224283) rotate(0 17.333343505859375 17.5)"><path d="M8.67 0 C13.18 0, 17.7 0, 26 0 C31.78 0, 34.67 2.89, 34.67 8.67 C34.67 15.26, 34.67 21.86, 34.67 26.33 C34.67 32.11, 31.78 35, 26 35 C20.51 35, 15.03 35, 8.67 35 C2.89 35, 0 32.11, 0 26.33 C0 20.47, 0 14.61, 0 8.67 C0 2.89, 2.89 0, 8.67 0" stroke="none" stroke-width="0" fill="#ffc9c9"/><path d="M8.67 0 C14.14 0, 19.62 0, 26 0 M8.67 0 C14.96 0, 21.25 0, 26 0 M26 0 C31.78 0, 34.67 2.89, 34.67 8.67 M26 0 C31.78 0, 34.67 2.89, 34.67 8.67 M34.67 8.67 C34.67 13, 34.67 17.34, 34.67 26.33 M34.67 8.67 C34.67 13.7, 34.67 18.74, 34.67 26.33 M34.67 26.33 C34.67 32.11, 31.78 35, 26 35 M34.67 26.33 C34.67 32.11, 31.78 35, 26 35 M26 35 C21.82 35, 17.65 35, 8.67 35 M26 35 C21.48 35, 16.95 35, 8.67 35 M8.67 35 C2.89 35, 0 32.11, 0 26.33 M8.67 35 C2.89 35, 0 32.11, 0 26.33 M0 26.33 C0 20.81, 0 15.29, 0 8.67 M0 26.33 C0 21.5, 0 16.66, 0 8.67 M0 8.67 C0 2.89, 2.89 0, 8.67 0 M0 8.67 C0 2.89, 2.89 0, 8.67 0" stroke="#1e1e1e" stroke-width="2" fill="none"/></g><g transform="translate(268.907130185415 121.14893094224283) rotate(0 5.5615234375 11.5)"><text x="5.5615234375" y="18.400390625" font-family="Helvetica, Segoe UI Emoji" font-size="20px" fill="#1e1e1e" text-anchor="middle" style="white-space: pre;" direction="ltr" dominant-baseline="alphabetic">0</text></g><g stroke-linecap="round" transform="translate(186.43526213904244 80.09928684806493) rotate(0 17.333343505859375 17.5)"><path d="M8.67 0 C12.48 0, 16.3 0, 26 0 C31.78 0, 34.67 2.89, 34.67 8.67 C34.67 14.18, 34.67 19.69, 34.67 26.33 C34.67 32.11, 31.78 35, 26 35 C20.92 35, 15.84 35, 8.67 35 C2.89 35, 0 32.11, 0 26.33 C0 22.41, 0 18.48, 0 8.67 C0 2.89, 2.89 0, 8.67 0" stroke="none" stroke-width="0" fill="#ffc9c9"/><path d="M8.67 0 C15.38 0, 22.08 0, 26 0 M8.67 0 C13.34 0, 18.01 0, 26 0 M26 0 C31.78 0, 34.67 2.89, 34.67 8.67 M26 0 C31.78 0, 34.67 2.89, 34.67 8.67 M34.67 8.67 C34.67 15.56, 34.67 22.44, 34.67 26.33 M34.67 8.67 C34.67 15.43, 34.67 22.19, 34.67 26.33 M34.67 26.33 C34.67 32.11, 31.78 35, 26 35 M34.67 26.33 C34.67 32.11, 31.78 35, 26 35 M26 35 C19.41 35, 12.82 35, 8.67 35 M26 35 C20.36 35, 14.72 35, 8.67 35 M8.67 35 C2.89 35, 0 32.11, 0 26.33 M8.67 35 C2.89 35, 0 32.11, 0 26.33 M0 26.33 C0 20.17, 0 14.01, 0 8.67 M0 26.33 C0 21.65, 0 16.96, 0 8.67 M0 8.67 C0 2.89, 2.89 0, 8.67 0 M0 8.67 C0 2.89, 2.89 0, 8.67 0" stroke="#1e1e1e" stroke-width="2" fill="none"/></g><g transform="translate(198.2070822074018 86.09928684806493) rotate(0 5.5615234375 11.5)"><text x="5.5615234375" y="18.400390625" font-family="Helvetica, Segoe UI Emoji" font-size="20px" fill="#1e1e1e" text-anchor="middle" style="white-space: pre;" direction="ltr" dominant-baseline="alphabetic">0</text></g><g stroke-linecap="round" transform="translate(47.801965772590165 115.14893044693974) rotate(0 17.333343505859375 17.5)"><path d="M8.67 0 C14.16 0, 19.65 0, 26 0 C31.78 0, 34.67 2.89, 34.67 8.67 C34.67 13.03, 34.67 17.4, 34.67 26.33 C34.67 32.11, 31.78 35, 26 35 C22.42 35, 18.83 35, 8.67 35 C2.89 35, 0 32.11, 0 26.33 C0 21.4, 0 16.47, 0 8.67 C0 2.89, 2.89 0, 8.67 0" stroke="none" stroke-width="0" fill="#b2f2bb"/><path d="M8.67 0 C13.86 0, 19.05 0, 26 0 M8.67 0 C12.79 0, 16.91 0, 26 0 M26 0 C31.78 0, 34.67 2.89, 34.67 8.67 M26 0 C31.78 0, 34.67 2.89, 34.67 8.67 M34.67 8.67 C34.67 13.95, 34.67 19.23, 34.67 26.33 M34.67 8.67 C34.67 15.14, 34.67 21.62, 34.67 26.33 M34.67 26.33 C34.67 32.11, 31.78 35, 26 35 M34.67 26.33 C34.67 32.11, 31.78 35, 26 35 M26 35 C21.96 35, 17.92 35, 8.67 35 M26 35 C19.62 35, 13.25 35, 8.67 35 M8.67 35 C2.89 35, 0 32.11, 0 26.33 M8.67 35 C2.89 35, 0 32.11, 0 26.33 M0 26.33 C0 20.41, 0 14.48, 0 8.67 M0 26.33 C0 20.45, 0 14.56, 0 8.67 M0 8.67 C0 2.89, 2.89 0, 8.67 0 M0 8.67 C0 2.89, 2.89 0, 8.67 0" stroke="#1e1e1e" stroke-width="2" fill="none"/></g><g transform="translate(59.57378584094954 121.14893044693974) rotate(0 5.5615234375 11.5)"><text x="5.5615234375" y="18.400390625" font-family="Helvetica, Segoe UI Emoji" font-size="20px" fill="#1e1e1e" text-anchor="middle" style="white-space: pre;" direction="ltr" dominant-baseline="alphabetic">1</text></g><g stroke-linecap="round" transform="translate(12.090185009298693 80.28314138063035) rotate(0 17.333343505859375 17.5)"><path d="M8.67 0 C15.12 0, 21.57 0, 26 0 C31.78 0, 34.67 2.89, 34.67 8.67 C34.67 14.02, 34.67 19.37, 34.67 26.33 C34.67 32.11, 31.78 35, 26 35 C21.66 35, 17.33 35, 8.67 35 C2.89 35, 0 32.11, 0 26.33 C0 22.51, 0 18.69, 0 8.67 C0 2.89, 2.89 0, 8.67 0" stroke="none" stroke-width="0" fill="#ffc9c9"/><path d="M8.67 0 C13.03 0, 17.39 0, 26 0 M8.67 0 C13.34 0, 18.02 0, 26 0 M26 0 C31.78 0, 34.67 2.89, 34.67 8.67 M26 0 C31.78 0, 34.67 2.89, 34.67 8.67 M34.67 8.67 C34.67 14.12, 34.67 19.58, 34.67 26.33 M34.67 8.67 C34.67 15.64, 34.67 22.61, 34.67 26.33 M34.67 26.33 C34.67 32.11, 31.78 35, 26 35 M34.67 26.33 C34.67 32.11, 31.78 35, 26 35 M26 35 C20.03 35, 14.06 35, 8.67 35 M26 35 C21.59 35, 17.17 35, 8.67 35 M8.67 35 C2.89 35, 0 32.11, 0 26.33 M8.67 35 C2.89 35, 0 32.11, 0 26.33 M0 26.33 C0 19.62, 0 12.9, 0 8.67 M0 26.33 C0 21.26, 0 16.19, 0 8.67 M0 8.67 C0 2.89, 2.89 0, 8.67 0 M0 8.67 C0 2.89, 2.89 0, 8.67 0" stroke="#1e1e1e" stroke-width="2" fill="none"/></g><g transform="translate(23.86200507765807 86.28314138063035) rotate(0 5.5615234375 11.5)"><text x="5.5615234375" y="18.400390625" font-family="Helvetica, Segoe UI Emoji" font-size="20px" fill="#1e1e1e" text-anchor="middle" style="white-space: pre;" direction="ltr" dominant-baseline="alphabetic">0</text></g><g stroke-linecap="round" transform="translate(12.090185249964748 115.09928628384682) rotate(0 17.333343505859375 17.5)"><path d="M8.67 0 C14.72 0, 20.77 0, 26 0 C31.78 0, 34.67 2.89, 34.67 8.67 C34.67 12.35, 34.67 16.04, 34.67 26.33 C34.67 32.11, 31.78 35, 26 35 C20.18 35, 14.35 35, 8.67 35 C2.89 35, 0 32.11, 0 26.33 C0 19.84, 0 13.34, 0 8.67 C0 2.89, 2.89 0, 8.67 0" stroke="none" stroke-width="0" fill="#ffc9c9"/><path d="M8.67 0 C15.6 0, 22.53 0, 26 0 M8.67 0 C14.76 0, 20.85 0, 26 0 M26 0 C31.78 0, 34.67 2.89, 34.67 8.67 M26 0 C31.78 0, 34.67 2.89, 34.67 8.67 M34.67 8.67 C34.67 12.72, 34.67 16.78, 34.67 26.33 M34.67 8.67 C34.67 12.48, 34.67 16.29, 34.67 26.33 M34.67 26.33 C34.67 32.11, 31.78 35, 26 35 M34.67 26.33 C34.67 32.11, 31.78 35, 26 35 M26 35 C20.07 35, 14.14 35, 8.67 35 M26 35 C22.26 35, 18.52 35, 8.67 35 M8.67 35 C2.89 35, 0 32.11, 0 26.33 M8.67 35 C2.89 35, 0 32.11, 0 26.33 M0 26.33 C0 20.82, 0 15.3, 0 8.67 M0 26.33 C0 19.53, 0 12.72, 0 8.67 M0 8.67 C0 2.89, 2.89 0, 8.67 0 M0 8.67 C0 2.89, 2.89 0, 8.67 0" stroke="#1e1e1e" stroke-width="2" fill="none"/></g><g transform="translate(23.862005318324123 121.09928628384682) rotate(0 5.5615234375 11.5)"><text x="5.5615234375" y="18.400390625" font-family="Helvetica, Segoe UI Emoji" font-size="20px" fill="#1e1e1e" text-anchor="middle" style="white-space: pre;" direction="ltr" dominant-baseline="alphabetic">0</text></g><g stroke-linecap="round" transform="translate(12.446076242569688 150.61592523779603) rotate(0 138.81081337871515 17.475178731092683)"><path d="M8.74 0 C72.24 0, 135.74 0, 268.88 0 M8.74 0 C108.61 0, 208.49 0, 268.88 0 M268.88 0 C274.71 0, 277.62 2.91, 277.62 8.74 M268.88 0 C274.71 0, 277.62 2.91, 277.62 8.74 M277.62 8.74 C277.62 13.08, 277.62 17.42, 277.62 26.21 M277.62 8.74 C277.62 13.94, 277.62 19.14, 277.62 26.21 M277.62 26.21 C277.62 32.04, 274.71 34.95, 268.88 34.95 M277.62 26.21 C277.62 32.04, 274.71 34.95, 268.88 34.95 M268.88 34.95 C195.11 34.95, 121.33 34.95, 8.74 34.95 M268.88 34.95 C169.64 34.95, 70.4 34.95, 8.74 34.95 M8.74 34.95 C2.91 34.95, 0 32.04, 0 26.21 M8.74 34.95 C2.91 34.95, 0 32.04, 0 26.21 M0 26.21 C0 20.08, 0 13.94, 0 8.74 M0 26.21 C0 19.85, 0 13.48, 0 8.74 M0 8.74 C0 2.91, 2.91 0, 8.74 0 M0 8.74 C0 2.91, 2.91 0, 8.74 0" stroke="#1e1e1e" stroke-width="2" fill="none"/></g><g stroke-linecap="round" transform="translate(11.400983999999994 150.5662831824033) rotate(0 17.333343505859375 17.5)"><path d="M8.67 0 C12.72 0, 16.77 0, 26 0 C31.78 0, 34.67 2.89, 34.67 8.67 C34.67 12.32, 34.67 15.97, 34.67 26.33 C34.67 32.11, 31.78 35, 26 35 C22.41 35, 18.82 35, 8.67 35 C2.89 35, 0 32.11, 0 26.33 C0 19.54, 0 12.75, 0 8.67 C0 2.89, 2.89 0, 8.67 0" stroke="none" stroke-width="0" fill="#b2f2bb"/><path d="M8.67 0 C12.54 0, 16.42 0, 26 0 M8.67 0 C12.22 0, 15.77 0, 26 0 M26 0 C31.78 0, 34.67 2.89, 34.67 8.67 M26 0 C31.78 0, 34.67 2.89, 34.67 8.67 M34.67 8.67 C34.67 12.38, 34.67 16.09, 34.67 26.33 M34.67 8.67 C34.67 13.48, 34.67 18.28, 34.67 26.33 M34.67 26.33 C34.67 32.11, 31.78 35, 26 35 M34.67 26.33 C34.67 32.11, 31.78 35, 26 35 M26 35 C19.16 35, 12.31 35, 8.67 35 M26 35 C21.83 35, 17.66 35, 8.67 35 M8.67 35 C2.89 35, 0 32.11, 0 26.33 M8.67 35 C2.89 35, 0 32.11, 0 26.33 M0 26.33 C0 19.93, 0 13.53, 0 8.67 M0 26.33 C0 19.88, 0 13.43, 0 8.67 M0 8.67 C0 2.89, 2.89 0, 8.67 0 M0 8.67 C0 2.89, 2.89 0, 8.67 0" stroke="#1e1e1e" stroke-width="2" fill="none"/></g><g transform="translate(23.17280406835937 156.5662831824033) rotate(0 5.5615234375 11.5)"><text x="5.5615234375" y="18.400390625" font-family="Helvetica, Segoe UI Emoji" font-size="20px" fill="#1e1e1e" text-anchor="middle" style="white-space: pre;" direction="ltr" dominant-baseline="alphabetic">1</text></g><g stroke-linecap="round" transform="translate(46.067671494140654 150.61592568826262) rotate(0 17.333343505859375 17.5)"><path d="M8.67 0 C13.31 0, 17.96 0, 26 0 C31.78 0, 34.67 2.89, 34.67 8.67 C34.67 12.35, 34.67 16.02, 34.67 26.33 C34.67 32.11, 31.78 35, 26 35 C22.02 35, 18.04 35, 8.67 35 C2.89 35, 0 32.11, 0 26.33 C0 22.01, 0 17.68, 0 8.67 C0 2.89, 2.89 0, 8.67 0" stroke="none" stroke-width="0" fill="#ffc9c9"/><path d="M8.67 0 C12.19 0, 15.72 0, 26 0 M8.67 0 C15.24 0, 21.81 0, 26 0 M26 0 C31.78 0, 34.67 2.89, 34.67 8.67 M26 0 C31.78 0, 34.67 2.89, 34.67 8.67 M34.67 8.67 C34.67 15.55, 34.67 22.43, 34.67 26.33 M34.67 8.67 C34.67 14.62, 34.67 20.58, 34.67 26.33 M34.67 26.33 C34.67 32.11, 31.78 35, 26 35 M34.67 26.33 C34.67 32.11, 31.78 35, 26 35 M26 35 C21.06 35, 16.12 35, 8.67 35 M26 35 C20.72 35, 15.44 35, 8.67 35 M8.67 35 C2.89 35, 0 32.11, 0 26.33 M8.67 35 C2.89 35, 0 32.11, 0 26.33 M0 26.33 C0 22.17, 0 18, 0 8.67 M0 26.33 C0 22.1, 0 17.87, 0 8.67 M0 8.67 C0 2.89, 2.89 0, 8.67 0 M0 8.67 C0 2.89, 2.89 0, 8.67 0" stroke="#1e1e1e" stroke-width="2" fill="none"/></g><g transform="translate(57.83949156250003 156.61592568826262) rotate(0 5.5615234375 11.5)"><text x="5.5615234375" y="18.400390625" font-family="Helvetica, Segoe UI Emoji" font-size="20px" fill="#1e1e1e" text-anchor="middle" style="white-space: pre;" direction="ltr" dominant-baseline="alphabetic">0</text></g><g stroke-linecap="round" transform="translate(80.7343592470703 150.56628294705177) rotate(0 17.333343505859375 17.5)"><path d="M8.67 0 C14.16 0, 19.66 0, 26 0 C31.78 0, 34.67 2.89, 34.67 8.67 C34.67 12.76, 34.67 16.84, 34.67 26.33 C34.67 32.11, 31.78 35, 26 35 C20.22 35, 14.45 35, 8.67 35 C2.89 35, 0 32.11, 0 26.33 C0 20.39, 0 14.45, 0 8.67 C0 2.89, 2.89 0, 8.67 0" stroke="none" stroke-width="0" fill="#b2f2bb"/><path d="M8.67 0 C14.04 0, 19.41 0, 26 0 M8.67 0 C12.27 0, 15.87 0, 26 0 M26 0 C31.78 0, 34.67 2.89, 34.67 8.67 M26 0 C31.78 0, 34.67 2.89, 34.67 8.67 M34.67 8.67 C34.67 14.6, 34.67 20.53, 34.67 26.33 M34.67 8.67 C34.67 15.65, 34.67 22.64, 34.67 26.33 M34.67 26.33 C34.67 32.11, 31.78 35, 26 35 M34.67 26.33 C34.67 32.11, 31.78 35, 26 35 M26 35 C20.89 35, 15.77 35, 8.67 35 M26 35 C21.13 35, 16.26 35, 8.67 35 M8.67 35 C2.89 35, 0 32.11, 0 26.33 M8.67 35 C2.89 35, 0 32.11, 0 26.33 M0 26.33 C0 20.02, 0 13.7, 0 8.67 M0 26.33 C0 21.66, 0 16.98, 0 8.67 M0 8.67 C0 2.89, 2.89 0, 8.67 0 M0 8.67 C0 2.89, 2.89 0, 8.67 0" stroke="#1e1e1e" stroke-width="2" fill="none"/></g><g transform="translate(92.50617931542968 156.56628294705177) rotate(0 5.5615234375 11.5)"><text x="5.5615234375" y="18.400390625" font-family="Helvetica, Segoe UI Emoji" font-size="20px" fill="#1e1e1e" text-anchor="middle" style="white-space: pre;" direction="ltr" dominant-baseline="alphabetic">1</text></g><g stroke-linecap="round" transform="translate(115.40104574121096 150.61592545291109) rotate(0 17.333343505859375 17.5)"><path d="M8.67 0 C12.47 0, 16.27 0, 26 0 C31.78 0, 34.67 2.89, 34.67 8.67 C34.67 12.46, 34.67 16.26, 34.67 26.33 C34.67 32.11, 31.78 35, 26 35 C19.13 35, 12.25 35, 8.67 35 C2.89 35, 0 32.11, 0 26.33 C0 21.56, 0 16.78, 0 8.67 C0 2.89, 2.89 0, 8.67 0" stroke="none" stroke-width="0" fill="#ffc9c9"/><path d="M8.67 0 C15.11 0, 21.55 0, 26 0 M8.67 0 C12.63 0, 16.59 0, 26 0 M26 0 C31.78 0, 34.67 2.89, 34.67 8.67 M26 0 C31.78 0, 34.67 2.89, 34.67 8.67 M34.67 8.67 C34.67 12.51, 34.67 16.35, 34.67 26.33 M34.67 8.67 C34.67 12.32, 34.67 15.98, 34.67 26.33 M34.67 26.33 C34.67 32.11, 31.78 35, 26 35 M34.67 26.33 C34.67 32.11, 31.78 35, 26 35 M26 35 C20.65 35, 15.31 35, 8.67 35 M26 35 C19.46 35, 12.91 35, 8.67 35 M8.67 35 C2.89 35, 0 32.11, 0 26.33 M8.67 35 C2.89 35, 0 32.11, 0 26.33 M0 26.33 C0 21.02, 0 15.7, 0 8.67 M0 26.33 C0 20.68, 0 15.03, 0 8.67 M0 8.67 C0 2.89, 2.89 0, 8.67 0 M0 8.67 C0 2.89, 2.89 0, 8.67 0" stroke="#1e1e1e" stroke-width="2" fill="none"/></g><g transform="translate(127.17286580957034 156.61592545291109) rotate(0 5.5615234375 11.5)"><text x="5.5615234375" y="18.400390625" font-family="Helvetica, Segoe UI Emoji" font-size="20px" fill="#1e1e1e" text-anchor="middle" style="white-space: pre;" direction="ltr" dominant-baseline="alphabetic">0</text></g><g stroke-linecap="round" transform="translate(151.40095524707033 150.56628294705177) rotate(0 17.333343505859375 17.5)"><path d="M8.67 0 C12.6 0, 16.53 0, 26 0 C31.78 0, 34.67 2.89, 34.67 8.67 C34.67 14.99, 34.67 21.3, 34.67 26.33 C34.67 32.11, 31.78 35, 26 35 C19.73 35, 13.45 35, 8.67 35 C2.89 35, 0 32.11, 0 26.33 C0 21.58, 0 16.83, 0 8.67 C0 2.89, 2.89 0, 8.67 0" stroke="none" stroke-width="0" fill="#b2f2bb"/><path d="M8.67 0 C12.69 0, 16.72 0, 26 0 M8.67 0 C14.54 0, 20.42 0, 26 0 M26 0 C31.78 0, 34.67 2.89, 34.67 8.67 M26 0 C31.78 0, 34.67 2.89, 34.67 8.67 M34.67 8.67 C34.67 13.4, 34.67 18.13, 34.67 26.33 M34.67 8.67 C34.67 12.94, 34.67 17.21, 34.67 26.33 M34.67 26.33 C34.67 32.11, 31.78 35, 26 35 M34.67 26.33 C34.67 32.11, 31.78 35, 26 35 M26 35 C20.4 35, 14.8 35, 8.67 35 M26 35 C21.45 35, 16.91 35, 8.67 35 M8.67 35 C2.89 35, 0 32.11, 0 26.33 M8.67 35 C2.89 35, 0 32.11, 0 26.33 M0 26.33 C0 22.73, 0 19.13, 0 8.67 M0 26.33 C0 21.09, 0 15.85, 0 8.67 M0 8.67 C0 2.89, 2.89 0, 8.67 0 M0 8.67 C0 2.89, 2.89 0, 8.67 0" stroke="#1e1e1e" stroke-width="2" fill="none"/></g><g transform="translate(163.1727753154297 156.56628294705177) rotate(0 5.5615234375 11.5)"><text x="5.5615234375" y="18.400390625" font-family="Helvetica, Segoe UI Emoji" font-size="20px" fill="#1e1e1e" text-anchor="middle" style="white-space: pre;" direction="ltr" dominant-baseline="alphabetic">1</text></g><g stroke-linecap="round" transform="translate(220.7343287412109 150.61592544119247) rotate(0 17.333343505859375 17.5)"><path d="M8.67 0 C13.98 0, 19.3 0, 26 0 C31.78 0, 34.67 2.89, 34.67 8.67 C34.67 12.56, 34.67 16.46, 34.67 26.33 C34.67 32.11, 31.78 35, 26 35 C20.18 35, 14.37 35, 8.67 35 C2.89 35, 0 32.11, 0 26.33 C0 21.65, 0 16.97, 0 8.67 C0 2.89, 2.89 0, 8.67 0" stroke="none" stroke-width="0" fill="#ffc9c9"/><path d="M8.67 0 C12.98 0, 17.28 0, 26 0 M8.67 0 C13.83 0, 18.99 0, 26 0 M26 0 C31.78 0, 34.67 2.89, 34.67 8.67 M26 0 C31.78 0, 34.67 2.89, 34.67 8.67 M34.67 8.67 C34.67 13.68, 34.67 18.69, 34.67 26.33 M34.67 8.67 C34.67 15.41, 34.67 22.15, 34.67 26.33 M34.67 26.33 C34.67 32.11, 31.78 35, 26 35 M34.67 26.33 C34.67 32.11, 31.78 35, 26 35 M26 35 C19.91 35, 13.83 35, 8.67 35 M26 35 C19.69 35, 13.37 35, 8.67 35 M8.67 35 C2.89 35, 0 32.11, 0 26.33 M8.67 35 C2.89 35, 0 32.11, 0 26.33 M0 26.33 C0 21.6, 0 16.87, 0 8.67 M0 26.33 C0 19.33, 0 12.33, 0 8.67 M0 8.67 C0 2.89, 2.89 0, 8.67 0 M0 8.67 C0 2.89, 2.89 0, 8.67 0" stroke="#1e1e1e" stroke-width="2" fill="none"/></g><g transform="translate(232.50614880957028 156.61592544119247) rotate(0 5.5615234375 11.5)"><text x="5.5615234375" y="18.400390625" font-family="Helvetica, Segoe UI Emoji" font-size="20px" fill="#1e1e1e" text-anchor="middle" style="white-space: pre;" direction="ltr" dominant-baseline="alphabetic">0</text></g><g stroke-linecap="round" transform="translate(186.06764223535157 150.56628294705177) rotate(0 17.333343505859375 17.5)"><path d="M8.67 0 C12.81 0, 16.95 0, 26 0 C31.78 0, 34.67 2.89, 34.67 8.67 C34.67 12.64, 34.67 16.6, 34.67 26.33 C34.67 32.11, 31.78 35, 26 35 C21 35, 16.01 35, 8.67 35 C2.89 35, 0 32.11, 0 26.33 C0 22.76, 0 19.18, 0 8.67 C0 2.89, 2.89 0, 8.67 0" stroke="none" stroke-width="0" fill="#b2f2bb"/><path d="M8.67 0 C15.46 0, 22.26 0, 26 0 M8.67 0 C12.56 0, 16.46 0, 26 0 M26 0 C31.78 0, 34.67 2.89, 34.67 8.67 M26 0 C31.78 0, 34.67 2.89, 34.67 8.67 M34.67 8.67 C34.67 14.43, 34.67 20.19, 34.67 26.33 M34.67 8.67 C34.67 12.53, 34.67 16.39, 34.67 26.33 M34.67 26.33 C34.67 32.11, 31.78 35, 26 35 M34.67 26.33 C34.67 32.11, 31.78 35, 26 35 M26 35 C20.48 35, 14.97 35, 8.67 35 M26 35 C19.52 35, 13.05 35, 8.67 35 M8.67 35 C2.89 35, 0 32.11, 0 26.33 M8.67 35 C2.89 35, 0 32.11, 0 26.33 M0 26.33 C0 21.76, 0 17.18, 0 8.67 M0 26.33 C0 22.24, 0 18.15, 0 8.67 M0 8.67 C0 2.89, 2.89 0, 8.67 0 M0 8.67 C0 2.89, 2.89 0, 8.67 0" stroke="#1e1e1e" stroke-width="2" fill="none"/></g><g transform="translate(197.83946230371095 156.56628294705177) rotate(0 5.5615234375 11.5)"><text x="5.5615234375" y="18.400390625" font-family="Helvetica, Segoe UI Emoji" font-size="20px" fill="#1e1e1e" text-anchor="middle" style="white-space: pre;" direction="ltr" dominant-baseline="alphabetic">1</text></g><g stroke-linecap="round" transform="translate(255.4010157294922 150.56628245291103) rotate(0 17.333343505859375 17.5)"><path d="M8.67 0 C14.2 0, 19.73 0, 26 0 C31.78 0, 34.67 2.89, 34.67 8.67 C34.67 14.89, 34.67 21.11, 34.67 26.33 C34.67 32.11, 31.78 35, 26 35 C19.86 35, 13.72 35, 8.67 35 C2.89 35, 0 32.11, 0 26.33 C0 20.39, 0 14.45, 0 8.67 C0 2.89, 2.89 0, 8.67 0" stroke="none" stroke-width="0" fill="#ffc9c9"/><path d="M8.67 0 C14.7 0, 20.73 0, 26 0 M8.67 0 C13.88 0, 19.09 0, 26 0 M26 0 C31.78 0, 34.67 2.89, 34.67 8.67 M26 0 C31.78 0, 34.67 2.89, 34.67 8.67 M34.67 8.67 C34.67 12.56, 34.67 16.46, 34.67 26.33 M34.67 8.67 C34.67 14.97, 34.67 21.27, 34.67 26.33 M34.67 26.33 C34.67 32.11, 31.78 35, 26 35 M34.67 26.33 C34.67 32.11, 31.78 35, 26 35 M26 35 C19.68 35, 13.37 35, 8.67 35 M26 35 C20.08 35, 14.16 35, 8.67 35 M8.67 35 C2.89 35, 0 32.11, 0 26.33 M8.67 35 C2.89 35, 0 32.11, 0 26.33 M0 26.33 C0 22.67, 0 19.02, 0 8.67 M0 26.33 C0 20.57, 0 14.8, 0 8.67 M0 8.67 C0 2.89, 2.89 0, 8.67 0 M0 8.67 C0 2.89, 2.89 0, 8.67 0" stroke="#1e1e1e" stroke-width="2" fill="none"/></g><g transform="translate(267.1728357978516 156.56628245291103) rotate(0 5.5615234375 11.5)"><text x="5.5615234375" y="18.400390625" font-family="Helvetica, Segoe UI Emoji" font-size="20px" fill="#1e1e1e" text-anchor="middle" style="white-space: pre;" direction="ltr" dominant-baseline="alphabetic">0</text></g><g stroke-linecap="round" transform="translate(13.49116924256964 185.6655692377961) rotate(0 138.81081337871515 17.475178731092683)"><path d="M8.74 0 C64.86 0, 120.98 0, 268.88 0 M8.74 0 C78.29 0, 147.85 0, 268.88 0 M268.88 0 C274.71 0, 277.62 2.91, 277.62 8.74 M268.88 0 C274.71 0, 277.62 2.91, 277.62 8.74 M277.62 8.74 C277.62 13.21, 277.62 17.69, 277.62 26.21 M277.62 8.74 C277.62 14.15, 277.62 19.55, 277.62 26.21 M277.62 26.21 C277.62 32.04, 274.71 34.95, 268.88 34.95 M277.62 26.21 C277.62 32.04, 274.71 34.95, 268.88 34.95 M268.88 34.95 C179.4 34.95, 89.92 34.95, 8.74 34.95 M268.88 34.95 C170.14 34.95, 71.4 34.95, 8.74 34.95 M8.74 34.95 C2.91 34.95, 0 32.04, 0 26.21 M8.74 34.95 C2.91 34.95, 0 32.04, 0 26.21 M0 26.21 C0 20.87, 0 15.52, 0 8.74 M0 26.21 C0 22.46, 0 18.7, 0 8.74 M0 8.74 C0 2.91, 2.91 0, 8.74 0 M0 8.74 C0 2.91, 2.91 0, 8.74 0" stroke="#1e1e1e" stroke-width="2" fill="none"/></g><g stroke-linecap="round" transform="translate(12.446076999999946 185.61592718240337) rotate(0 17.333343505859375 17.5)"><path d="M8.67 0 C15.54 0, 22.41 0, 26 0 C31.78 0, 34.67 2.89, 34.67 8.67 C34.67 13.44, 34.67 18.22, 34.67 26.33 C34.67 32.11, 31.78 35, 26 35 C20.54 35, 15.07 35, 8.67 35 C2.89 35, 0 32.11, 0 26.33 C0 22.62, 0 18.91, 0 8.67 C0 2.89, 2.89 0, 8.67 0" stroke="none" stroke-width="0" fill="#b2f2bb"/><path d="M8.67 0 C12.44 0, 16.21 0, 26 0 M8.67 0 C12.25 0, 15.84 0, 26 0 M26 0 C31.78 0, 34.67 2.89, 34.67 8.67 M26 0 C31.78 0, 34.67 2.89, 34.67 8.67 M34.67 8.67 C34.67 14.12, 34.67 19.56, 34.67 26.33 M34.67 8.67 C34.67 15.34, 34.67 22.01, 34.67 26.33 M34.67 26.33 C34.67 32.11, 31.78 35, 26 35 M34.67 26.33 C34.67 32.11, 31.78 35, 26 35 M26 35 C20.78 35, 15.57 35, 8.67 35 M26 35 C20.45 35, 14.91 35, 8.67 35 M8.67 35 C2.89 35, 0 32.11, 0 26.33 M8.67 35 C2.89 35, 0 32.11, 0 26.33 M0 26.33 C0 22.46, 0 18.59, 0 8.67 M0 26.33 C0 22.24, 0 18.16, 0 8.67 M0 8.67 C0 2.89, 2.89 0, 8.67 0 M0 8.67 C0 2.89, 2.89 0, 8.67 0" stroke="#1e1e1e" stroke-width="2" fill="none"/></g><g transform="translate(24.21789706835932 191.61592718240337) rotate(0 5.5615234375 11.5)"><text x="5.5615234375" y="18.400390625" font-family="Helvetica, Segoe UI Emoji" font-size="20px" fill="#1e1e1e" text-anchor="middle" style="white-space: pre;" direction="ltr" dominant-baseline="alphabetic">1</text></g><g stroke-linecap="round" transform="translate(81.77945224707025 185.61592694705172) rotate(0 17.333343505859375 17.5)"><path d="M8.67 0 C14.94 0, 21.21 0, 26 0 C31.78 0, 34.67 2.89, 34.67 8.67 C34.67 13.42, 34.67 18.17, 34.67 26.33 C34.67 32.11, 31.78 35, 26 35 C21.29 35, 16.59 35, 8.67 35 C2.89 35, 0 32.11, 0 26.33 C0 19.28, 0 12.23, 0 8.67 C0 2.89, 2.89 0, 8.67 0" stroke="none" stroke-width="0" fill="#b2f2bb"/><path d="M8.67 0 C13.31 0, 17.95 0, 26 0 M8.67 0 C12.86 0, 17.05 0, 26 0 M26 0 C31.78 0, 34.67 2.89, 34.67 8.67 M26 0 C31.78 0, 34.67 2.89, 34.67 8.67 M34.67 8.67 C34.67 14.38, 34.67 20.09, 34.67 26.33 M34.67 8.67 C34.67 13.3, 34.67 17.93, 34.67 26.33 M34.67 26.33 C34.67 32.11, 31.78 35, 26 35 M34.67 26.33 C34.67 32.11, 31.78 35, 26 35 M26 35 C22.47 35, 18.93 35, 8.67 35 M26 35 C20.86 35, 15.72 35, 8.67 35 M8.67 35 C2.89 35, 0 32.11, 0 26.33 M8.67 35 C2.89 35, 0 32.11, 0 26.33 M0 26.33 C0 22.33, 0 18.32, 0 8.67 M0 26.33 C0 22.54, 0 18.74, 0 8.67 M0 8.67 C0 2.89, 2.89 0, 8.67 0 M0 8.67 C0 2.89, 2.89 0, 8.67 0" stroke="#1e1e1e" stroke-width="2" fill="none"/></g><g transform="translate(93.55127231542963 191.61592694705172) rotate(0 5.5615234375 11.5)"><text x="5.5615234375" y="18.400390625" font-family="Helvetica, Segoe UI Emoji" font-size="20px" fill="#1e1e1e" text-anchor="middle" style="white-space: pre;" direction="ltr" dominant-baseline="alphabetic">1</text></g><g stroke-linecap="round" transform="translate(116.44613874121092 185.66556945291114) rotate(0 17.333343505859375 17.5)"><path d="M8.67 0 C14.48 0, 20.3 0, 26 0 C31.78 0, 34.67 2.89, 34.67 8.67 C34.67 13.35, 34.67 18.03, 34.67 26.33 C34.67 32.11, 31.78 35, 26 35 C21.49 35, 16.97 35, 8.67 35 C2.89 35, 0 32.11, 0 26.33 C0 21.13, 0 15.93, 0 8.67 C0 2.89, 2.89 0, 8.67 0" stroke="none" stroke-width="0" fill="#ffc9c9"/><path d="M8.67 0 C13.58 0, 18.5 0, 26 0 M8.67 0 C15.28 0, 21.89 0, 26 0 M26 0 C31.78 0, 34.67 2.89, 34.67 8.67 M26 0 C31.78 0, 34.67 2.89, 34.67 8.67 M34.67 8.67 C34.67 14.87, 34.67 21.07, 34.67 26.33 M34.67 8.67 C34.67 15.1, 34.67 21.54, 34.67 26.33 M34.67 26.33 C34.67 32.11, 31.78 35, 26 35 M34.67 26.33 C34.67 32.11, 31.78 35, 26 35 M26 35 C21.36 35, 16.71 35, 8.67 35 M26 35 C19.13 35, 12.27 35, 8.67 35 M8.67 35 C2.89 35, 0 32.11, 0 26.33 M8.67 35 C2.89 35, 0 32.11, 0 26.33 M0 26.33 C0 20.92, 0 15.5, 0 8.67 M0 26.33 C0 20.01, 0 13.7, 0 8.67 M0 8.67 C0 2.89, 2.89 0, 8.67 0 M0 8.67 C0 2.89, 2.89 0, 8.67 0" stroke="#1e1e1e" stroke-width="2" fill="none"/></g><g transform="translate(128.2179588095703 191.66556945291114) rotate(0 5.5615234375 11.5)"><text x="5.5615234375" y="18.400390625" font-family="Helvetica, Segoe UI Emoji" font-size="20px" fill="#1e1e1e" text-anchor="middle" style="white-space: pre;" direction="ltr" dominant-baseline="alphabetic">0</text></g><g stroke-linecap="round" transform="translate(221.77942224707033 185.61592594705172) rotate(0 17.333343505859375 17.5)"><path d="M8.67 0 C13.66 0, 18.66 0, 26 0 C31.78 0, 34.67 2.89, 34.67 8.67 C34.67 12.24, 34.67 15.82, 34.67 26.33 C34.67 32.11, 31.78 35, 26 35 C22.23 35, 18.47 35, 8.67 35 C2.89 35, 0 32.11, 0 26.33 C0 19.49, 0 12.65, 0 8.67 C0 2.89, 2.89 0, 8.67 0" stroke="none" stroke-width="0" fill="#b2f2bb"/><path d="M8.67 0 C14.32 0, 19.97 0, 26 0 M8.67 0 C12.46 0, 16.25 0, 26 0 M26 0 C31.78 0, 34.67 2.89, 34.67 8.67 M26 0 C31.78 0, 34.67 2.89, 34.67 8.67 M34.67 8.67 C34.67 14.29, 34.67 19.91, 34.67 26.33 M34.67 8.67 C34.67 15.27, 34.67 21.87, 34.67 26.33 M34.67 26.33 C34.67 32.11, 31.78 35, 26 35 M34.67 26.33 C34.67 32.11, 31.78 35, 26 35 M26 35 C21.51 35, 17.02 35, 8.67 35 M26 35 C21.99 35, 17.97 35, 8.67 35 M8.67 35 C2.89 35, 0 32.11, 0 26.33 M8.67 35 C2.89 35, 0 32.11, 0 26.33 M0 26.33 C0 22.11, 0 17.89, 0 8.67 M0 26.33 C0 22.44, 0 18.54, 0 8.67 M0 8.67 C0 2.89, 2.89 0, 8.67 0 M0 8.67 C0 2.89, 2.89 0, 8.67 0" stroke="#1e1e1e" stroke-width="2" fill="none"/></g><g transform="translate(233.5512423154297 191.61592594705172) rotate(0 5.5615234375 11.5)"><text x="5.5615234375" y="18.400390625" font-family="Helvetica, Segoe UI Emoji" font-size="20px" fill="#1e1e1e" text-anchor="middle" style="white-space: pre;" direction="ltr" dominant-baseline="alphabetic">1</text></g><g stroke-linecap="round" transform="translate(151.5126277274635 185.66559881614415) rotate(0 17.333343505859375 17.5)"><path d="M8.67 0 C14.81 0, 20.95 0, 26 0 C31.78 0, 34.67 2.89, 34.67 8.67 C34.67 14.61, 34.67 20.55, 34.67 26.33 C34.67 32.11, 31.78 35, 26 35 C20.95 35, 15.9 35, 8.67 35 C2.89 35, 0 32.11, 0 26.33 C0 22.26, 0 18.2, 0 8.67 C0 2.89, 2.89 0, 8.67 0" stroke="none" stroke-width="0" fill="#ffc9c9"/><path d="M8.67 0 C12.49 0, 16.31 0, 26 0 M8.67 0 C14.85 0, 21.03 0, 26 0 M26 0 C31.78 0, 34.67 2.89, 34.67 8.67 M26 0 C31.78 0, 34.67 2.89, 34.67 8.67 M34.67 8.67 C34.67 15.11, 34.67 21.54, 34.67 26.33 M34.67 8.67 C34.67 14.7, 34.67 20.73, 34.67 26.33 M34.67 26.33 C34.67 32.11, 31.78 35, 26 35 M34.67 26.33 C34.67 32.11, 31.78 35, 26 35 M26 35 C22.41 35, 18.82 35, 8.67 35 M26 35 C20.34 35, 14.69 35, 8.67 35 M8.67 35 C2.89 35, 0 32.11, 0 26.33 M8.67 35 C2.89 35, 0 32.11, 0 26.33 M0 26.33 C0 20.7, 0 15.06, 0 8.67 M0 26.33 C0 22.36, 0 18.4, 0 8.67 M0 8.67 C0 2.89, 2.89 0, 8.67 0 M0 8.67 C0 2.89, 2.89 0, 8.67 0" stroke="#1e1e1e" stroke-width="2" fill="none"/></g><g transform="translate(163.28444779582287 191.66559881614415) rotate(0 5.5615234375 11.5)"><text x="5.5615234375" y="18.400390625" font-family="Helvetica, Segoe UI Emoji" font-size="20px" fill="#1e1e1e" text-anchor="middle" style="white-space: pre;" direction="ltr" dominant-baseline="alphabetic">0</text></g><g stroke-linecap="round" transform="translate(256.44610872949215 185.61592645291108) rotate(0 17.333343505859375 17.5)"><path d="M8.67 0 C14.43 0, 20.19 0, 26 0 C31.78 0, 34.67 2.89, 34.67 8.67 C34.67 14.54, 34.67 20.42, 34.67 26.33 C34.67 32.11, 31.78 35, 26 35 C20 35, 14 35, 8.67 35 C2.89 35, 0 32.11, 0 26.33 C0 20.38, 0 14.43, 0 8.67 C0 2.89, 2.89 0, 8.67 0" stroke="none" stroke-width="0" fill="#ffc9c9"/><path d="M8.67 0 C13.1 0, 17.54 0, 26 0 M8.67 0 C14.03 0, 19.4 0, 26 0 M26 0 C31.78 0, 34.67 2.89, 34.67 8.67 M26 0 C31.78 0, 34.67 2.89, 34.67 8.67 M34.67 8.67 C34.67 14.74, 34.67 20.82, 34.67 26.33 M34.67 8.67 C34.67 15.37, 34.67 22.08, 34.67 26.33 M34.67 26.33 C34.67 32.11, 31.78 35, 26 35 M34.67 26.33 C34.67 32.11, 31.78 35, 26 35 M26 35 C20.7 35, 15.4 35, 8.67 35 M26 35 C22.27 35, 18.55 35, 8.67 35 M8.67 35 C2.89 35, 0 32.11, 0 26.33 M8.67 35 C2.89 35, 0 32.11, 0 26.33 M0 26.33 C0 21.83, 0 17.32, 0 8.67 M0 26.33 C0 20.11, 0 13.89, 0 8.67 M0 8.67 C0 2.89, 2.89 0, 8.67 0 M0 8.67 C0 2.89, 2.89 0, 8.67 0" stroke="#1e1e1e" stroke-width="2" fill="none"/></g><g transform="translate(268.2179287978515 191.61592645291108) rotate(0 5.5615234375 11.5)"><text x="5.5615234375" y="18.400390625" font-family="Helvetica, Segoe UI Emoji" font-size="20px" fill="#1e1e1e" text-anchor="middle" style="white-space: pre;" direction="ltr" dominant-baseline="alphabetic">0</text></g><g stroke-linecap="round" transform="translate(186.86937475147903 185.7501373587333) rotate(0 17.333343505859375 17.5)"><path d="M8.67 0 C15.34 0, 22.02 0, 26 0 C31.78 0, 34.67 2.89, 34.67 8.67 C34.67 15.16, 34.67 21.66, 34.67 26.33 C34.67 32.11, 31.78 35, 26 35 C21.5 35, 17.01 35, 8.67 35 C2.89 35, 0 32.11, 0 26.33 C0 21.36, 0 16.38, 0 8.67 C0 2.89, 2.89 0, 8.67 0" stroke="none" stroke-width="0" fill="#ffc9c9"/><path d="M8.67 0 C13.62 0, 18.58 0, 26 0 M8.67 0 C12.18 0, 15.69 0, 26 0 M26 0 C31.78 0, 34.67 2.89, 34.67 8.67 M26 0 C31.78 0, 34.67 2.89, 34.67 8.67 M34.67 8.67 C34.67 14.41, 34.67 20.14, 34.67 26.33 M34.67 8.67 C34.67 15.04, 34.67 21.42, 34.67 26.33 M34.67 26.33 C34.67 32.11, 31.78 35, 26 35 M34.67 26.33 C34.67 32.11, 31.78 35, 26 35 M26 35 C22.3 35, 18.6 35, 8.67 35 M26 35 C20.05 35, 14.1 35, 8.67 35 M8.67 35 C2.89 35, 0 32.11, 0 26.33 M8.67 35 C2.89 35, 0 32.11, 0 26.33 M0 26.33 C0 21.56, 0 16.78, 0 8.67 M0 26.33 C0 21.98, 0 17.62, 0 8.67 M0 8.67 C0 2.89, 2.89 0, 8.67 0 M0 8.67 C0 2.89, 2.89 0, 8.67 0" stroke="#1e1e1e" stroke-width="2" fill="none"/></g><g transform="translate(198.6411948198384 191.7501373587333) rotate(0 5.5615234375 11.5)"><text x="5.5615234375" y="18.400390625" font-family="Helvetica, Segoe UI Emoji" font-size="20px" fill="#1e1e1e" text-anchor="middle" style="white-space: pre;" direction="ltr" dominant-baseline="alphabetic">0</text></g><g stroke-linecap="round" transform="translate(47.11276438502671 185.6159259576081) rotate(0 17.333343505859375 17.5)"><path d="M8.67 0 C14.55 0, 20.43 0, 26 0 C31.78 0, 34.67 2.89, 34.67 8.67 C34.67 12.73, 34.67 16.78, 34.67 26.33 C34.67 32.11, 31.78 35, 26 35 C22.15 35, 18.29 35, 8.67 35 C2.89 35, 0 32.11, 0 26.33 C0 19.27, 0 12.21, 0 8.67 C0 2.89, 2.89 0, 8.67 0" stroke="none" stroke-width="0" fill="#b2f2bb"/><path d="M8.67 0 C12.61 0, 16.56 0, 26 0 M8.67 0 C13.38 0, 18.1 0, 26 0 M26 0 C31.78 0, 34.67 2.89, 34.67 8.67 M26 0 C31.78 0, 34.67 2.89, 34.67 8.67 M34.67 8.67 C34.67 13.78, 34.67 18.89, 34.67 26.33 M34.67 8.67 C34.67 12.54, 34.67 16.41, 34.67 26.33 M34.67 26.33 C34.67 32.11, 31.78 35, 26 35 M34.67 26.33 C34.67 32.11, 31.78 35, 26 35 M26 35 C19.9 35, 13.8 35, 8.67 35 M26 35 C19.63 35, 13.26 35, 8.67 35 M8.67 35 C2.89 35, 0 32.11, 0 26.33 M8.67 35 C2.89 35, 0 32.11, 0 26.33 M0 26.33 C0 22.77, 0 19.22, 0 8.67 M0 26.33 C0 20.83, 0 15.32, 0 8.67 M0 8.67 C0 2.89, 2.89 0, 8.67 0 M0 8.67 C0 2.89, 2.89 0, 8.67 0" stroke="#1e1e1e" stroke-width="2" fill="none"/></g><g transform="translate(58.88458445338608 191.6159259576081) rotate(0 5.5615234375 11.5)"><text x="5.5615234375" y="18.400390625" font-family="Helvetica, Segoe UI Emoji" font-size="20px" fill="#1e1e1e" text-anchor="middle" style="white-space: pre;" direction="ltr" dominant-baseline="alphabetic">1</text></g><g stroke-linecap="round" transform="translate(14.53626163013314 220.71521218003886) rotate(0 138.81081337871515 17.475178731092683)"><path d="M8.74 0 C103 0, 197.27 0, 268.88 0 M8.74 0 C103.73 0, 198.72 0, 268.88 0 M268.88 0 C274.71 0, 277.62 2.91, 277.62 8.74 M268.88 0 C274.71 0, 277.62 2.91, 277.62 8.74 M277.62 8.74 C277.62 12.82, 277.62 16.9, 277.62 26.21 M277.62 8.74 C277.62 13.09, 277.62 17.45, 277.62 26.21 M277.62 26.21 C277.62 32.04, 274.71 34.95, 268.88 34.95 M277.62 26.21 C277.62 32.04, 274.71 34.95, 268.88 34.95 M268.88 34.95 C215 34.95, 161.11 34.95, 8.74 34.95 M268.88 34.95 C202.53 34.95, 136.17 34.95, 8.74 34.95 M8.74 34.95 C2.91 34.95, 0 32.04, 0 26.21 M8.74 34.95 C2.91 34.95, 0 32.04, 0 26.21 M0 26.21 C0 19.23, 0 12.25, 0 8.74 M0 26.21 C0 22.49, 0 18.77, 0 8.74 M0 8.74 C0 2.91, 2.91 0, 8.74 0 M0 8.74 C0 2.91, 2.91 0, 8.74 0" stroke="#1e1e1e" stroke-width="2" fill="none"/></g><g stroke-linecap="round" transform="translate(48.157856881704106 220.71521263050545) rotate(0 17.333343505859375 17.5)"><path d="M8.67 0 C12.43 0, 16.2 0, 26 0 C31.78 0, 34.67 2.89, 34.67 8.67 C34.67 15.51, 34.67 22.35, 34.67 26.33 C34.67 32.11, 31.78 35, 26 35 C19.79 35, 13.58 35, 8.67 35 C2.89 35, 0 32.11, 0 26.33 C0 21.43, 0 16.52, 0 8.67 C0 2.89, 2.89 0, 8.67 0" stroke="none" stroke-width="0" fill="#ffc9c9"/><path d="M8.67 0 C14.18 0, 19.7 0, 26 0 M8.67 0 C15.14 0, 21.62 0, 26 0 M26 0 C31.78 0, 34.67 2.89, 34.67 8.67 M26 0 C31.78 0, 34.67 2.89, 34.67 8.67 M34.67 8.67 C34.67 13.24, 34.67 17.82, 34.67 26.33 M34.67 8.67 C34.67 12.76, 34.67 16.85, 34.67 26.33 M34.67 26.33 C34.67 32.11, 31.78 35, 26 35 M34.67 26.33 C34.67 32.11, 31.78 35, 26 35 M26 35 C21.86 35, 17.71 35, 8.67 35 M26 35 C22.18 35, 18.35 35, 8.67 35 M8.67 35 C2.89 35, 0 32.11, 0 26.33 M8.67 35 C2.89 35, 0 32.11, 0 26.33 M0 26.33 C0 21.24, 0 16.15, 0 8.67 M0 26.33 C0 21.65, 0 16.97, 0 8.67 M0 8.67 C0 2.89, 2.89 0, 8.67 0 M0 8.67 C0 2.89, 2.89 0, 8.67 0" stroke="#1e1e1e" stroke-width="2" fill="none"/></g><g transform="translate(59.92967695006348 226.71521263050545) rotate(0 5.5615234375 11.5)"><text x="5.5615234375" y="18.400390625" font-family="Helvetica, Segoe UI Emoji" font-size="20px" fill="#1e1e1e" text-anchor="middle" style="white-space: pre;" direction="ltr" dominant-baseline="alphabetic">0</text></g><g stroke-linecap="round" transform="translate(82.82454463463375 220.6655698892945) rotate(0 17.333343505859375 17.5)"><path d="M8.67 0 C13.72 0, 18.77 0, 26 0 C31.78 0, 34.67 2.89, 34.67 8.67 C34.67 12.74, 34.67 16.8, 34.67 26.33 C34.67 32.11, 31.78 35, 26 35 C19.52 35, 13.04 35, 8.67 35 C2.89 35, 0 32.11, 0 26.33 C0 22.38, 0 18.42, 0 8.67 C0 2.89, 2.89 0, 8.67 0" stroke="none" stroke-width="0" fill="#b2f2bb"/><path d="M8.67 0 C14.98 0, 21.3 0, 26 0 M8.67 0 C14.59 0, 20.5 0, 26 0 M26 0 C31.78 0, 34.67 2.89, 34.67 8.67 M26 0 C31.78 0, 34.67 2.89, 34.67 8.67 M34.67 8.67 C34.67 12.33, 34.67 15.98, 34.67 26.33 M34.67 8.67 C34.67 14.43, 34.67 20.2, 34.67 26.33 M34.67 26.33 C34.67 32.11, 31.78 35, 26 35 M34.67 26.33 C34.67 32.11, 31.78 35, 26 35 M26 35 C20.47 35, 14.94 35, 8.67 35 M26 35 C22.11 35, 18.21 35, 8.67 35 M8.67 35 C2.89 35, 0 32.11, 0 26.33 M8.67 35 C2.89 35, 0 32.11, 0 26.33 M0 26.33 C0 20.07, 0 13.82, 0 8.67 M0 26.33 C0 22.76, 0 19.18, 0 8.67 M0 8.67 C0 2.89, 2.89 0, 8.67 0 M0 8.67 C0 2.89, 2.89 0, 8.67 0" stroke="#1e1e1e" stroke-width="2" fill="none"/></g><g transform="translate(94.59636470299313 226.6655698892945) rotate(0 5.5615234375 11.5)"><text x="5.5615234375" y="18.400390625" font-family="Helvetica, Segoe UI Emoji" font-size="20px" fill="#1e1e1e" text-anchor="middle" style="white-space: pre;" direction="ltr" dominant-baseline="alphabetic">1</text></g><g stroke-linecap="round" transform="translate(117.49123112877442 220.7152123951539) rotate(0 17.333343505859375 17.5)"><path d="M8.67 0 C14.67 0, 20.67 0, 26 0 C31.78 0, 34.67 2.89, 34.67 8.67 C34.67 14.62, 34.67 20.57, 34.67 26.33 C34.67 32.11, 31.78 35, 26 35 C20.55 35, 15.1 35, 8.67 35 C2.89 35, 0 32.11, 0 26.33 C0 21.41, 0 16.48, 0 8.67 C0 2.89, 2.89 0, 8.67 0" stroke="none" stroke-width="0" fill="#ffc9c9"/><path d="M8.67 0 C14.63 0, 20.59 0, 26 0 M8.67 0 C15.25 0, 21.83 0, 26 0 M26 0 C31.78 0, 34.67 2.89, 34.67 8.67 M26 0 C31.78 0, 34.67 2.89, 34.67 8.67 M34.67 8.67 C34.67 14.07, 34.67 19.48, 34.67 26.33 M34.67 8.67 C34.67 12.46, 34.67 16.26, 34.67 26.33 M34.67 26.33 C34.67 32.11, 31.78 35, 26 35 M34.67 26.33 C34.67 32.11, 31.78 35, 26 35 M26 35 C21.58 35, 17.16 35, 8.67 35 M26 35 C19.89 35, 13.79 35, 8.67 35 M8.67 35 C2.89 35, 0 32.11, 0 26.33 M8.67 35 C2.89 35, 0 32.11, 0 26.33 M0 26.33 C0 20.46, 0 14.59, 0 8.67 M0 26.33 C0 20.39, 0 14.45, 0 8.67 M0 8.67 C0 2.89, 2.89 0, 8.67 0 M0 8.67 C0 2.89, 2.89 0, 8.67 0" stroke="#1e1e1e" stroke-width="2" fill="none"/></g><g transform="translate(129.2630511971338 226.7152123951539) rotate(0 5.5615234375 11.5)"><text x="5.5615234375" y="18.400390625" font-family="Helvetica, Segoe UI Emoji" font-size="20px" fill="#1e1e1e" text-anchor="middle" style="white-space: pre;" direction="ltr" dominant-baseline="alphabetic">0</text></g><g stroke-linecap="round" transform="translate(153.70296664635254 255.58103138343512) rotate(0 17.333343505859375 17.5)"><path d="M8.67 0 C13.16 0, 17.66 0, 26 0 C31.78 0, 34.67 2.89, 34.67 8.67 C34.67 13.64, 34.67 18.62, 34.67 26.33 C34.67 32.11, 31.78 35, 26 35 C19.98 35, 13.97 35, 8.67 35 C2.89 35, 0 32.11, 0 26.33 C0 22.11, 0 17.89, 0 8.67 C0 2.89, 2.89 0, 8.67 0" stroke="none" stroke-width="0" fill="#b2f2bb"/><path d="M8.67 0 C14.3 0, 19.93 0, 26 0 M8.67 0 C14.92 0, 21.18 0, 26 0 M26 0 C31.78 0, 34.67 2.89, 34.67 8.67 M26 0 C31.78 0, 34.67 2.89, 34.67 8.67 M34.67 8.67 C34.67 12.44, 34.67 16.21, 34.67 26.33 M34.67 8.67 C34.67 14.73, 34.67 20.79, 34.67 26.33 M34.67 26.33 C34.67 32.11, 31.78 35, 26 35 M34.67 26.33 C34.67 32.11, 31.78 35, 26 35 M26 35 C21.31 35, 16.63 35, 8.67 35 M26 35 C21.73 35, 17.45 35, 8.67 35 M8.67 35 C2.89 35, 0 32.11, 0 26.33 M8.67 35 C2.89 35, 0 32.11, 0 26.33 M0 26.33 C0 19.53, 0 12.73, 0 8.67 M0 26.33 C0 20.46, 0 14.58, 0 8.67 M0 8.67 C0 2.89, 2.89 0, 8.67 0 M0 8.67 C0 2.89, 2.89 0, 8.67 0" stroke="#1e1e1e" stroke-width="2" fill="none"/></g><g transform="translate(165.4747867147119 261.5810313834351) rotate(0 5.5615234375 11.5)"><text x="5.5615234375" y="18.400390625" font-family="Helvetica, Segoe UI Emoji" font-size="20px" fill="#1e1e1e" text-anchor="middle" style="white-space: pre;" direction="ltr" dominant-baseline="alphabetic">1</text></g><g stroke-linecap="round" transform="translate(222.82451412877435 220.7152123834352) rotate(0 17.333343505859375 17.5)"><path d="M8.67 0 C12.52 0, 16.38 0, 26 0 C31.78 0, 34.67 2.89, 34.67 8.67 C34.67 15.73, 34.67 22.79, 34.67 26.33 C34.67 32.11, 31.78 35, 26 35 C22.47 35, 18.94 35, 8.67 35 C2.89 35, 0 32.11, 0 26.33 C0 22.57, 0 18.81, 0 8.67 C0 2.89, 2.89 0, 8.67 0" stroke="none" stroke-width="0" fill="#ffc9c9"/><path d="M8.67 0 C13.68 0, 18.7 0, 26 0 M8.67 0 C12.47 0, 16.26 0, 26 0 M26 0 C31.78 0, 34.67 2.89, 34.67 8.67 M26 0 C31.78 0, 34.67 2.89, 34.67 8.67 M34.67 8.67 C34.67 14.88, 34.67 21.1, 34.67 26.33 M34.67 8.67 C34.67 15.16, 34.67 21.65, 34.67 26.33 M34.67 26.33 C34.67 32.11, 31.78 35, 26 35 M34.67 26.33 C34.67 32.11, 31.78 35, 26 35 M26 35 C22.51 35, 19.02 35, 8.67 35 M26 35 C20.6 35, 15.19 35, 8.67 35 M8.67 35 C2.89 35, 0 32.11, 0 26.33 M8.67 35 C2.89 35, 0 32.11, 0 26.33 M0 26.33 C0 20.34, 0 14.34, 0 8.67 M0 26.33 C0 19.84, 0 13.34, 0 8.67 M0 8.67 C0 2.89, 2.89 0, 8.67 0 M0 8.67 C0 2.89, 2.89 0, 8.67 0" stroke="#1e1e1e" stroke-width="2" fill="none"/></g><g transform="translate(234.59633419713373 226.7152123834352) rotate(0 5.5615234375 11.5)"><text x="5.5615234375" y="18.400390625" font-family="Helvetica, Segoe UI Emoji" font-size="20px" fill="#1e1e1e" text-anchor="middle" style="white-space: pre;" direction="ltr" dominant-baseline="alphabetic">0</text></g><g stroke-linecap="round" transform="translate(188.70296662291503 255.58103138343512) rotate(0 17.333343505859375 17.5)"><path d="M8.67 0 C12.84 0, 17.02 0, 26 0 C31.78 0, 34.67 2.89, 34.67 8.67 C34.67 13.75, 34.67 18.83, 34.67 26.33 C34.67 32.11, 31.78 35, 26 35 C21.16 35, 16.33 35, 8.67 35 C2.89 35, 0 32.11, 0 26.33 C0 20.69, 0 15.06, 0 8.67 C0 2.89, 2.89 0, 8.67 0" stroke="none" stroke-width="0" fill="#b2f2bb"/><path d="M8.67 0 C12.72 0, 16.77 0, 26 0 M8.67 0 C12.99 0, 17.31 0, 26 0 M26 0 C31.78 0, 34.67 2.89, 34.67 8.67 M26 0 C31.78 0, 34.67 2.89, 34.67 8.67 M34.67 8.67 C34.67 12.33, 34.67 15.99, 34.67 26.33 M34.67 8.67 C34.67 13.17, 34.67 17.68, 34.67 26.33 M34.67 26.33 C34.67 32.11, 31.78 35, 26 35 M34.67 26.33 C34.67 32.11, 31.78 35, 26 35 M26 35 C19.08 35, 12.15 35, 8.67 35 M26 35 C22.31 35, 18.62 35, 8.67 35 M8.67 35 C2.89 35, 0 32.11, 0 26.33 M8.67 35 C2.89 35, 0 32.11, 0 26.33 M0 26.33 C0 19.52, 0 12.7, 0 8.67 M0 26.33 C0 22.27, 0 18.22, 0 8.67 M0 8.67 C0 2.89, 2.89 0, 8.67 0 M0 8.67 C0 2.89, 2.89 0, 8.67 0" stroke="#1e1e1e" stroke-width="2" fill="none"/></g><g transform="translate(200.4747866912744 261.5810313834351) rotate(0 5.5615234375 11.5)"><text x="5.5615234375" y="18.400390625" font-family="Helvetica, Segoe UI Emoji" font-size="20px" fill="#1e1e1e" text-anchor="middle" style="white-space: pre;" direction="ltr" dominant-baseline="alphabetic">1</text></g><g stroke-linecap="round" transform="translate(257.49120111705565 220.66556939515385) rotate(0 17.333343505859375 17.5)"><path d="M8.67 0 C12.73 0, 16.8 0, 26 0 C31.78 0, 34.67 2.89, 34.67 8.67 C34.67 14.01, 34.67 19.36, 34.67 26.33 C34.67 32.11, 31.78 35, 26 35 C20.22 35, 14.45 35, 8.67 35 C2.89 35, 0 32.11, 0 26.33 C0 19.48, 0 12.63, 0 8.67 C0 2.89, 2.89 0, 8.67 0" stroke="none" stroke-width="0" fill="#ffc9c9"/><path d="M8.67 0 C13.31 0, 17.96 0, 26 0 M8.67 0 C12.25 0, 15.83 0, 26 0 M26 0 C31.78 0, 34.67 2.89, 34.67 8.67 M26 0 C31.78 0, 34.67 2.89, 34.67 8.67 M34.67 8.67 C34.67 12.72, 34.67 16.78, 34.67 26.33 M34.67 8.67 C34.67 15.46, 34.67 22.25, 34.67 26.33 M34.67 26.33 C34.67 32.11, 31.78 35, 26 35 M34.67 26.33 C34.67 32.11, 31.78 35, 26 35 M26 35 C22.02 35, 18.05 35, 8.67 35 M26 35 C19.49 35, 12.97 35, 8.67 35 M8.67 35 C2.89 35, 0 32.11, 0 26.33 M8.67 35 C2.89 35, 0 32.11, 0 26.33 M0 26.33 C0 19.63, 0 12.93, 0 8.67 M0 26.33 C0 22.5, 0 18.66, 0 8.67 M0 8.67 C0 2.89, 2.89 0, 8.67 0 M0 8.67 C0 2.89, 2.89 0, 8.67 0" stroke="#1e1e1e" stroke-width="2" fill="none"/></g><g transform="translate(269.263021185415 226.66556939515385) rotate(0 5.5615234375 11.5)"><text x="5.5615234375" y="18.400390625" font-family="Helvetica, Segoe UI Emoji" font-size="20px" fill="#1e1e1e" text-anchor="middle" style="white-space: pre;" direction="ltr" dominant-baseline="alphabetic">0</text></g><g stroke-linecap="round" transform="translate(15.581354630133092 255.76485618003892) rotate(0 138.81081337871515 17.475178731092683)"><path d="M8.74 0 C91.25 0, 173.77 0, 268.88 0 M8.74 0 C62.91 0, 117.09 0, 268.88 0 M268.88 0 C274.71 0, 277.62 2.91, 277.62 8.74 M268.88 0 C274.71 0, 277.62 2.91, 277.62 8.74 M277.62 8.74 C277.62 14.56, 277.62 20.38, 277.62 26.21 M277.62 8.74 C277.62 13.02, 277.62 17.29, 277.62 26.21 M277.62 26.21 C277.62 32.04, 274.71 34.95, 268.88 34.95 M277.62 26.21 C277.62 32.04, 274.71 34.95, 268.88 34.95 M268.88 34.95 C172.57 34.95, 76.25 34.95, 8.74 34.95 M268.88 34.95 C194.08 34.95, 119.29 34.95, 8.74 34.95 M8.74 34.95 C2.91 34.95, 0 32.04, 0 26.21 M8.74 34.95 C2.91 34.95, 0 32.04, 0 26.21 M0 26.21 C0 20.29, 0 14.36, 0 8.74 M0 26.21 C0 22.03, 0 17.84, 0 8.74 M0 8.74 C0 2.91, 2.91 0, 8.74 0 M0 8.74 C0 2.91, 2.91 0, 8.74 0" stroke="#1e1e1e" stroke-width="2" fill="none"/></g><g stroke-linecap="round" transform="translate(83.8696376346337 255.71521388929455) rotate(0 17.333343505859375 17.5)"><path d="M8.67 0 C14.12 0, 19.56 0, 26 0 C31.78 0, 34.67 2.89, 34.67 8.67 C34.67 13.59, 34.67 18.52, 34.67 26.33 C34.67 32.11, 31.78 35, 26 35 C20.74 35, 15.48 35, 8.67 35 C2.89 35, 0 32.11, 0 26.33 C0 19.79, 0 13.25, 0 8.67 C0 2.89, 2.89 0, 8.67 0" stroke="none" stroke-width="0" fill="#b2f2bb"/><path d="M8.67 0 C13.97 0, 19.27 0, 26 0 M8.67 0 C12.39 0, 16.12 0, 26 0 M26 0 C31.78 0, 34.67 2.89, 34.67 8.67 M26 0 C31.78 0, 34.67 2.89, 34.67 8.67 M34.67 8.67 C34.67 13.17, 34.67 17.68, 34.67 26.33 M34.67 8.67 C34.67 14.89, 34.67 21.11, 34.67 26.33 M34.67 26.33 C34.67 32.11, 31.78 35, 26 35 M34.67 26.33 C34.67 32.11, 31.78 35, 26 35 M26 35 C20.24 35, 14.48 35, 8.67 35 M26 35 C20.17 35, 14.34 35, 8.67 35 M8.67 35 C2.89 35, 0 32.11, 0 26.33 M8.67 35 C2.89 35, 0 32.11, 0 26.33 M0 26.33 C0 20.22, 0 14.1, 0 8.67 M0 26.33 C0 22.26, 0 18.2, 0 8.67 M0 8.67 C0 2.89, 2.89 0, 8.67 0 M0 8.67 C0 2.89, 2.89 0, 8.67 0" stroke="#1e1e1e" stroke-width="2" fill="none"/></g><g transform="translate(95.64145770299308 261.71521388929455) rotate(0 5.5615234375 11.5)"><text x="5.5615234375" y="18.400390625" font-family="Helvetica, Segoe UI Emoji" font-size="20px" fill="#1e1e1e" text-anchor="middle" style="white-space: pre;" direction="ltr" dominant-baseline="alphabetic">1</text></g><g stroke-linecap="round" transform="translate(118.53632412877437 255.76485639515397) rotate(0 17.333343505859375 17.5)"><path d="M8.67 0 C14.68 0, 20.7 0, 26 0 C31.78 0, 34.67 2.89, 34.67 8.67 C34.67 12.89, 34.67 17.11, 34.67 26.33 C34.67 32.11, 31.78 35, 26 35 C20.88 35, 15.76 35, 8.67 35 C2.89 35, 0 32.11, 0 26.33 C0 19.71, 0 13.08, 0 8.67 C0 2.89, 2.89 0, 8.67 0" stroke="none" stroke-width="0" fill="#ffc9c9"/><path d="M8.67 0 C12.37 0, 16.07 0, 26 0 M8.67 0 C14.62 0, 20.57 0, 26 0 M26 0 C31.78 0, 34.67 2.89, 34.67 8.67 M26 0 C31.78 0, 34.67 2.89, 34.67 8.67 M34.67 8.67 C34.67 13.44, 34.67 18.22, 34.67 26.33 M34.67 8.67 C34.67 13.02, 34.67 17.38, 34.67 26.33 M34.67 26.33 C34.67 32.11, 31.78 35, 26 35 M34.67 26.33 C34.67 32.11, 31.78 35, 26 35 M26 35 C19.32 35, 12.65 35, 8.67 35 M26 35 C20.24 35, 14.47 35, 8.67 35 M8.67 35 C2.89 35, 0 32.11, 0 26.33 M8.67 35 C2.89 35, 0 32.11, 0 26.33 M0 26.33 C0 21.75, 0 17.17, 0 8.67 M0 26.33 C0 20.38, 0 14.43, 0 8.67 M0 8.67 C0 2.89, 2.89 0, 8.67 0 M0 8.67 C0 2.89, 2.89 0, 8.67 0" stroke="#1e1e1e" stroke-width="2" fill="none"/></g><g transform="translate(130.30814419713374 261.76485639515397) rotate(0 5.5615234375 11.5)"><text x="5.5615234375" y="18.400390625" font-family="Helvetica, Segoe UI Emoji" font-size="20px" fill="#1e1e1e" text-anchor="middle" style="white-space: pre;" direction="ltr" dominant-baseline="alphabetic">0</text></g><g stroke-linecap="round" transform="translate(223.86960763463372 255.71521288929455) rotate(0 17.333343505859375 17.5)"><path d="M8.67 0 C12.19 0, 15.72 0, 26 0 C31.78 0, 34.67 2.89, 34.67 8.67 C34.67 12.43, 34.67 16.19, 34.67 26.33 C34.67 32.11, 31.78 35, 26 35 C19.54 35, 13.08 35, 8.67 35 C2.89 35, 0 32.11, 0 26.33 C0 21.66, 0 17, 0 8.67 C0 2.89, 2.89 0, 8.67 0" stroke="none" stroke-width="0" fill="#b2f2bb"/><path d="M8.67 0 C14.77 0, 20.86 0, 26 0 M8.67 0 C15.04 0, 21.41 0, 26 0 M26 0 C31.78 0, 34.67 2.89, 34.67 8.67 M26 0 C31.78 0, 34.67 2.89, 34.67 8.67 M34.67 8.67 C34.67 12.23, 34.67 15.78, 34.67 26.33 M34.67 8.67 C34.67 14.17, 34.67 19.68, 34.67 26.33 M34.67 26.33 C34.67 32.11, 31.78 35, 26 35 M34.67 26.33 C34.67 32.11, 31.78 35, 26 35 M26 35 C20.12 35, 14.24 35, 8.67 35 M26 35 C19.62 35, 13.25 35, 8.67 35 M8.67 35 C2.89 35, 0 32.11, 0 26.33 M8.67 35 C2.89 35, 0 32.11, 0 26.33 M0 26.33 C0 22.4, 0 18.48, 0 8.67 M0 26.33 C0 21.36, 0 16.38, 0 8.67 M0 8.67 C0 2.89, 2.89 0, 8.67 0 M0 8.67 C0 2.89, 2.89 0, 8.67 0" stroke="#1e1e1e" stroke-width="2" fill="none"/></g><g transform="translate(235.6414277029931 261.71521288929455) rotate(0 5.5615234375 11.5)"><text x="5.5615234375" y="18.400390625" font-family="Helvetica, Segoe UI Emoji" font-size="20px" fill="#1e1e1e" text-anchor="middle" style="white-space: pre;" direction="ltr" dominant-baseline="alphabetic">1</text></g><g stroke-linecap="round" transform="translate(152.4794991150269 220.581030758387) rotate(0 17.333343505859375 17.5)"><path d="M8.67 0 C13.5 0, 18.34 0, 26 0 C31.78 0, 34.67 2.89, 34.67 8.67 C34.67 14.31, 34.67 19.94, 34.67 26.33 C34.67 32.11, 31.78 35, 26 35 C20.88 35, 15.76 35, 8.67 35 C2.89 35, 0 32.11, 0 26.33 C0 20.95, 0 15.57, 0 8.67 C0 2.89, 2.89 0, 8.67 0" stroke="none" stroke-width="0" fill="#ffc9c9"/><path d="M8.67 0 C12.26 0, 15.85 0, 26 0 M8.67 0 C13.09 0, 17.51 0, 26 0 M26 0 C31.78 0, 34.67 2.89, 34.67 8.67 M26 0 C31.78 0, 34.67 2.89, 34.67 8.67 M34.67 8.67 C34.67 15.72, 34.67 22.78, 34.67 26.33 M34.67 8.67 C34.67 12.43, 34.67 16.19, 34.67 26.33 M34.67 26.33 C34.67 32.11, 31.78 35, 26 35 M34.67 26.33 C34.67 32.11, 31.78 35, 26 35 M26 35 C19.31 35, 12.62 35, 8.67 35 M26 35 C22.02 35, 18.04 35, 8.67 35 M8.67 35 C2.89 35, 0 32.11, 0 26.33 M8.67 35 C2.89 35, 0 32.11, 0 26.33 M0 26.33 C0 22.08, 0 17.82, 0 8.67 M0 26.33 C0 19.27, 0 12.21, 0 8.67 M0 8.67 C0 2.89, 2.89 0, 8.67 0 M0 8.67 C0 2.89, 2.89 0, 8.67 0" stroke="#1e1e1e" stroke-width="2" fill="none"/></g><g transform="translate(164.25131918338627 226.581030758387) rotate(0 5.5615234375 11.5)"><text x="5.5615234375" y="18.400390625" font-family="Helvetica, Segoe UI Emoji" font-size="20px" fill="#1e1e1e" text-anchor="middle" style="white-space: pre;" direction="ltr" dominant-baseline="alphabetic">0</text></g><g stroke-linecap="round" transform="translate(258.5362941170556 255.7152133951539) rotate(0 17.333343505859375 17.5)"><path d="M8.67 0 C14.44 0, 20.22 0, 26 0 C31.78 0, 34.67 2.89, 34.67 8.67 C34.67 15.52, 34.67 22.37, 34.67 26.33 C34.67 32.11, 31.78 35, 26 35 C21.87 35, 17.74 35, 8.67 35 C2.89 35, 0 32.11, 0 26.33 C0 22.38, 0 18.43, 0 8.67 C0 2.89, 2.89 0, 8.67 0" stroke="none" stroke-width="0" fill="#ffc9c9"/><path d="M8.67 0 C12.65 0, 16.62 0, 26 0 M8.67 0 C15.33 0, 21.99 0, 26 0 M26 0 C31.78 0, 34.67 2.89, 34.67 8.67 M26 0 C31.78 0, 34.67 2.89, 34.67 8.67 M34.67 8.67 C34.67 12.72, 34.67 16.77, 34.67 26.33 M34.67 8.67 C34.67 15.31, 34.67 21.94, 34.67 26.33 M34.67 26.33 C34.67 32.11, 31.78 35, 26 35 M34.67 26.33 C34.67 32.11, 31.78 35, 26 35 M26 35 C19.42 35, 12.85 35, 8.67 35 M26 35 C22.24 35, 18.47 35, 8.67 35 M8.67 35 C2.89 35, 0 32.11, 0 26.33 M8.67 35 C2.89 35, 0 32.11, 0 26.33 M0 26.33 C0 22.19, 0 18.05, 0 8.67 M0 26.33 C0 21.25, 0 16.17, 0 8.67 M0 8.67 C0 2.89, 2.89 0, 8.67 0 M0 8.67 C0 2.89, 2.89 0, 8.67 0" stroke="#1e1e1e" stroke-width="2" fill="none"/></g><g transform="translate(270.308114185415 261.7152133951539) rotate(0 5.5615234375 11.5)"><text x="5.5615234375" y="18.400390625" font-family="Helvetica, Segoe UI Emoji" font-size="20px" fill="#1e1e1e" text-anchor="middle" style="white-space: pre;" direction="ltr" dominant-baseline="alphabetic">0</text></g><g stroke-linecap="round" transform="translate(187.83624613904243 220.66556930097602) rotate(0 17.333343505859375 17.5)"><path d="M8.67 0 C15.42 0, 22.17 0, 26 0 C31.78 0, 34.67 2.89, 34.67 8.67 C34.67 13.26, 34.67 17.85, 34.67 26.33 C34.67 32.11, 31.78 35, 26 35 C20.98 35, 15.95 35, 8.67 35 C2.89 35, 0 32.11, 0 26.33 C0 20.86, 0 15.39, 0 8.67 C0 2.89, 2.89 0, 8.67 0" stroke="none" stroke-width="0" fill="#ffc9c9"/><path d="M8.67 0 C14.44 0, 20.22 0, 26 0 M8.67 0 C12.91 0, 17.15 0, 26 0 M26 0 C31.78 0, 34.67 2.89, 34.67 8.67 M26 0 C31.78 0, 34.67 2.89, 34.67 8.67 M34.67 8.67 C34.67 15.21, 34.67 21.75, 34.67 26.33 M34.67 8.67 C34.67 13.75, 34.67 18.83, 34.67 26.33 M34.67 26.33 C34.67 32.11, 31.78 35, 26 35 M34.67 26.33 C34.67 32.11, 31.78 35, 26 35 M26 35 C20.12 35, 14.25 35, 8.67 35 M26 35 C21.85 35, 17.7 35, 8.67 35 M8.67 35 C2.89 35, 0 32.11, 0 26.33 M8.67 35 C2.89 35, 0 32.11, 0 26.33 M0 26.33 C0 20.38, 0 14.42, 0 8.67 M0 26.33 C0 20.99, 0 15.64, 0 8.67 M0 8.67 C0 2.89, 2.89 0, 8.67 0 M0 8.67 C0 2.89, 2.89 0, 8.67 0" stroke="#1e1e1e" stroke-width="2" fill="none"/></g><g transform="translate(199.6080662074018 226.66556930097602) rotate(0 5.5615234375 11.5)"><text x="5.5615234375" y="18.400390625" font-family="Helvetica, Segoe UI Emoji" font-size="20px" fill="#1e1e1e" text-anchor="middle" style="white-space: pre;" direction="ltr" dominant-baseline="alphabetic">0</text></g><g stroke-linecap="round" transform="translate(49.20294977259016 255.71521289985083) rotate(0 17.333343505859375 17.5)"><path d="M8.67 0 C12.76 0, 16.85 0, 26 0 C31.78 0, 34.67 2.89, 34.67 8.67 C34.67 13.74, 34.67 18.81, 34.67 26.33 C34.67 32.11, 31.78 35, 26 35 C19.9 35, 13.79 35, 8.67 35 C2.89 35, 0 32.11, 0 26.33 C0 20.81, 0 15.29, 0 8.67 C0 2.89, 2.89 0, 8.67 0" stroke="none" stroke-width="0" fill="#b2f2bb"/><path d="M8.67 0 C15.54 0, 22.41 0, 26 0 M8.67 0 C14.5 0, 20.33 0, 26 0 M26 0 C31.78 0, 34.67 2.89, 34.67 8.67 M26 0 C31.78 0, 34.67 2.89, 34.67 8.67 M34.67 8.67 C34.67 14.24, 34.67 19.81, 34.67 26.33 M34.67 8.67 C34.67 15.66, 34.67 22.66, 34.67 26.33 M34.67 26.33 C34.67 32.11, 31.78 35, 26 35 M34.67 26.33 C34.67 32.11, 31.78 35, 26 35 M26 35 C19.98 35, 13.95 35, 8.67 35 M26 35 C20.5 35, 15 35, 8.67 35 M8.67 35 C2.89 35, 0 32.11, 0 26.33 M8.67 35 C2.89 35, 0 32.11, 0 26.33 M0 26.33 C0 19.33, 0 12.32, 0 8.67 M0 26.33 C0 21.69, 0 17.04, 0 8.67 M0 8.67 C0 2.89, 2.89 0, 8.67 0 M0 8.67 C0 2.89, 2.89 0, 8.67 0" stroke="#1e1e1e" stroke-width="2" fill="none"/></g><g transform="translate(60.974769840949534 261.7152128998508) rotate(0 5.5615234375 11.5)"><text x="5.5615234375" y="18.400390625" font-family="Helvetica, Segoe UI Emoji" font-size="20px" fill="#1e1e1e" text-anchor="middle" style="white-space: pre;" direction="ltr" dominant-baseline="alphabetic">1</text></g><g stroke-linecap="round" transform="translate(13.491169009298687 220.84942383354144) rotate(0 17.333343505859375 17.5)"><path d="M8.67 0 C14.29 0, 19.9 0, 26 0 C31.78 0, 34.67 2.89, 34.67 8.67 C34.67 12.76, 34.67 16.85, 34.67 26.33 C34.67 32.11, 31.78 35, 26 35 C21.8 35, 17.6 35, 8.67 35 C2.89 35, 0 32.11, 0 26.33 C0 20.29, 0 14.24, 0 8.67 C0 2.89, 2.89 0, 8.67 0" stroke="none" stroke-width="0" fill="#ffc9c9"/><path d="M8.67 0 C14.94 0, 21.21 0, 26 0 M8.67 0 C13.35 0, 18.04 0, 26 0 M26 0 C31.78 0, 34.67 2.89, 34.67 8.67 M26 0 C31.78 0, 34.67 2.89, 34.67 8.67 M34.67 8.67 C34.67 13.46, 34.67 18.26, 34.67 26.33 M34.67 8.67 C34.67 12.38, 34.67 16.09, 34.67 26.33 M34.67 26.33 C34.67 32.11, 31.78 35, 26 35 M34.67 26.33 C34.67 32.11, 31.78 35, 26 35 M26 35 C21.63 35, 17.26 35, 8.67 35 M26 35 C21.11 35, 16.22 35, 8.67 35 M8.67 35 C2.89 35, 0 32.11, 0 26.33 M8.67 35 C2.89 35, 0 32.11, 0 26.33 M0 26.33 C0 21.48, 0 16.63, 0 8.67 M0 26.33 C0 20.2, 0 14.06, 0 8.67 M0 8.67 C0 2.89, 2.89 0, 8.67 0 M0 8.67 C0 2.89, 2.89 0, 8.67 0" stroke="#1e1e1e" stroke-width="2" fill="none"/></g><g transform="translate(25.262989077658062 226.84942383354144) rotate(0 5.5615234375 11.5)"><text x="5.5615234375" y="18.400390625" font-family="Helvetica, Segoe UI Emoji" font-size="20px" fill="#1e1e1e" text-anchor="middle" style="white-space: pre;" direction="ltr" dominant-baseline="alphabetic">0</text></g><g stroke-linecap="round" transform="translate(13.491169249964742 255.6655687367579) rotate(0 17.333343505859375 17.5)"><path d="M8.67 0 C13.34 0, 18.02 0, 26 0 C31.78 0, 34.67 2.89, 34.67 8.67 C34.67 15.17, 34.67 21.67, 34.67 26.33 C34.67 32.11, 31.78 35, 26 35 C19.23 35, 12.47 35, 8.67 35 C2.89 35, 0 32.11, 0 26.33 C0 19.79, 0 13.25, 0 8.67 C0 2.89, 2.89 0, 8.67 0" stroke="none" stroke-width="0" fill="#ffc9c9"/><path d="M8.67 0 C14.48 0, 20.3 0, 26 0 M8.67 0 C13.33 0, 17.99 0, 26 0 M26 0 C31.78 0, 34.67 2.89, 34.67 8.67 M26 0 C31.78 0, 34.67 2.89, 34.67 8.67 M34.67 8.67 C34.67 13.27, 34.67 17.87, 34.67 26.33 M34.67 8.67 C34.67 15.72, 34.67 22.77, 34.67 26.33 M34.67 26.33 C34.67 32.11, 31.78 35, 26 35 M34.67 26.33 C34.67 32.11, 31.78 35, 26 35 M26 35 C19.69 35, 13.38 35, 8.67 35 M26 35 C21.21 35, 16.41 35, 8.67 35 M8.67 35 C2.89 35, 0 32.11, 0 26.33 M8.67 35 C2.89 35, 0 32.11, 0 26.33 M0 26.33 C0 20.2, 0 14.07, 0 8.67 M0 26.33 C0 19.33, 0 12.33, 0 8.67 M0 8.67 C0 2.89, 2.89 0, 8.67 0 M0 8.67 C0 2.89, 2.89 0, 8.67 0" stroke="#1e1e1e" stroke-width="2" fill="none"/></g><g transform="translate(25.262989318324117 261.6655687367579) rotate(0 5.5615234375 11.5)"><text x="5.5615234375" y="18.400390625" font-family="Helvetica, Segoe UI Emoji" font-size="20px" fill="#1e1e1e" text-anchor="middle" style="white-space: pre;" direction="ltr" dominant-baseline="alphabetic">0</text></g></svg>