<svg version="1.1" xmlns="http://www.w3.org/2000/svg" viewBox="0 0 601.3921123898184 73.09964062406951" width="601.3921123898184" height="73.09964062406951" class="excalidraw-svg">
  <!-- svg-source:excalidraw -->
  
  <defs>
    <style class="style-fonts">
      
    </style>
    
  </defs>
  <g transform="translate(10 21.699640284453892) rotate(0 10.0107421875 20.700000000000003)"><text x="0" y="30.420703125" font-family="Helvetica, Segoe UI Emoji" font-size="36px" fill="#1e1e1e" text-anchor="start" style="white-space: pre;" direction="ltr" dominant-baseline="alphabetic">2</text></g><g transform="translate(29.694177890262495 18.297827634701974) rotate(0 20.7982177734375 6.040480152889188)"><text x="0" y="8.877084708381474" font-family="Helvetica, Segoe UI Emoji" font-size="10.505182874589888px" fill="#e03131" text-anchor="start" style="white-space: pre;" direction="ltr" dominant-baseline="alphabetic">Farbtiefe</text></g><g transform="translate(73.14079754331064 10) rotate(0 26.3455810546875 6.040480152889188)"><text x="0" y="8.877084708381474" font-family="Helvetica, Segoe UI Emoji" font-size="10.505182874589888px" fill="#1971c2" text-anchor="start" style="white-space: pre;" direction="ltr" dominant-baseline="alphabetic">Farbkanäle</text></g><g transform="translate(191.09850694808546 18.29782781231455) rotate(0 10.5465087890625 6.040480152889188)"><text x="0" y="8.877084708381474" font-family="Helvetica, Segoe UI Emoji" font-size="10.505182874589888px" fill="#e03131" text-anchor="start" style="white-space: pre;" direction="ltr" dominant-baseline="alphabetic">8 Bit</text></g><g transform="translate(214.31727262631588 10.000000177052982) rotate(0 30.7239990234375 6.040480152889188)"><text x="0" y="8.877084708381474" font-family="Helvetica, Segoe UI Emoji" font-size="10.505182874589888px" fill="#1971c2" text-anchor="start" style="white-space: pre;" direction="ltr" dominant-baseline="alphabetic">3 Farbkanäle</text></g><g transform="translate(168.95127420867 21.699640624069502) rotate(0 10.0107421875 20.700000000000003)"><text x="0" y="30.420703125" font-family="Helvetica, Segoe UI Emoji" font-size="36px" fill="#1e1e1e" text-anchor="start" style="white-space: pre;" direction="ltr" dominant-baseline="alphabetic">2</text></g><g stroke-linecap="round"><g transform="translate(131.24900496863913 38.724069626867504) rotate(0 14.392301980973372 0)"><path d="M0 0 C4.8 0, 23.99 0, 28.78 0 M0 0 C4.8 0, 23.99 0, 28.78 0" stroke="#1e1e1e" stroke-width="2" fill="none"></path></g><g transform="translate(131.24900496863913 38.724069626867504) rotate(0 14.392301980973372 0)"><path d="M15.26 4.92 C18.43 3.77, 21.6 2.61, 28.78 0 M15.26 4.92 C20.39 3.05, 25.52 1.19, 28.78 0" stroke="#1e1e1e" stroke-width="2" fill="none"></path></g><g transform="translate(131.24900496863913 38.724069626867504) rotate(0 14.392301980973372 0)"><path d="M15.26 -4.92 C18.43 -3.77, 21.6 -2.61, 28.78 0 M15.26 -4.92 C20.39 -3.05, 25.52 -1.19, 28.78 0" stroke="#1e1e1e" stroke-width="2" fill="none"></path></g></g><mask></mask><g transform="translate(319.2475811398184 21.699640616235) rotate(0 136.072265625 20.700000000000003)"><text x="0" y="30.420703125" font-family="Helvetica, Segoe UI Emoji" font-size="36px" fill="#1e1e1e" text-anchor="start" style="white-space: pre;" direction="ltr" dominant-baseline="alphabetic">16,8 Mio. Farben</text></g><g stroke-linecap="round"><g transform="translate(281.54531189978746 38.724069619033) rotate(0 14.392301980973373 0)"><path d="M0 0 C4.8 0, 23.99 0, 28.78 0 M0 0 C4.8 0, 23.99 0, 28.78 0" stroke="#1e1e1e" stroke-width="2" fill="none"></path></g><g transform="translate(281.54531189978746 38.724069619033) rotate(0 14.392301980973373 0)"><path d="M15.26 4.92 C18.98 3.57, 22.7 2.21, 28.78 0 M15.26 4.92 C18.19 3.86, 21.11 2.79, 28.78 0" stroke="#1e1e1e" stroke-width="2" fill="none"></path></g><g transform="translate(281.54531189978746 38.724069619033) rotate(0 14.392301980973373 0)"><path d="M15.26 -4.92 C18.98 -3.57, 22.7 -2.21, 28.78 0 M15.26 -4.92 C18.19 -3.86, 21.11 -2.79, 28.78 0" stroke="#1e1e1e" stroke-width="2" fill="none"></path></g></g><mask></mask></svg>