<?xml version="1.0" encoding="UTF-8" standalone="no"?>
<!-- Created with Inkscape (http://www.inkscape.org/) -->

<svg
   width="162.19215mm"
   height="142.993mm"
   viewBox="0 0 162.19215 142.993"
   version="1.1"
   id="svg1"
   xml:space="preserve"
   xmlns="http://www.w3.org/2000/svg"
   xmlns:svg="http://www.w3.org/2000/svg"><defs
     id="defs1" /><g
     id="layer1"
     transform="translate(-17.83076,-15.746263)"><path
       style="fill:#1a1a1a"
       d="m 79.041215,158.32633 c -0.606071,-0.44319 -0.828914,-42.40981 -0.228385,-43.01029 0.569491,-0.56944 10.387589,-0.42707 10.829829,0.15704 0.74368,0.98226 0.5568,42.29127 -0.1937,42.81694 -0.82393,0.5771 -9.626213,0.60781 -10.407744,0.0363 z m 38.327755,-0.0216 c -0.52118,-0.36505 -0.57406,-0.67343 -0.65418,-3.81517 -0.10975,-4.3036 1.36588,-3.83673 -12.61053,-3.98976 -12.539051,-0.13728 -15.956551,-3.05779 -11.181801,-9.55566 1.27589,-1.73633 2.96712,-3.91165 3.34909,-4.30772 0.727592,-0.75445 3.555034,-4.11371 3.555034,-4.22371 0,-0.0683 0.234807,-0.40221 0.521787,-0.74199 0.57063,-0.67561 1.87982,-2.32064 2.91779,-3.66627 0.3638,-0.47163 1.22701,-1.55103 1.91823,-2.39866 0.69123,-0.84762 1.25677,-1.59339 1.25677,-1.65726 0,-0.0639 0.54944,-0.69417 1.22097,-1.40066 1.53668,-1.61668 4.32713,-5.0077 4.3602,-5.29862 0.20213,-1.77808 14.54824,-3.59142 16.10629,-2.03582 0.0774,0.0772 0.17561,6.22661 0.21831,13.66526 0.0858,14.93963 -0.0359,14.07438 2.01476,14.33059 1.63729,0.20457 1.75905,0.48741 1.71477,3.98323 -0.0372,2.93723 -0.1507,3.1508 -1.76112,3.31403 -1.85983,0.18851 -1.86265,0.19433 -1.96017,4.05004 -0.0758,2.99808 -0.14597,3.43919 -0.59947,3.77031 -0.76642,0.5596 -9.58301,0.54079 -10.38673,-0.0222 z m -0.88295,-15.72503 c 0.2981,-0.557 0.39566,-14.47345 0.10675,-15.22634 -0.16773,-0.43711 -2.21411,1.46987 -2.21411,2.06329 0,0.13033 -0.30191,0.61135 -0.67092,1.06892 -1.22768,1.52235 -1.44826,1.80527 -3.30693,4.24176 -0.43156,0.56572 -0.78465,1.19079 -0.78465,1.38906 0,0.19828 -0.1127,0.3605 -0.25044,0.3605 -0.13774,0 -0.70038,0.68461 -1.25032,1.52135 -0.54993,0.83675 -1.12806,1.64042 -1.28472,1.78594 -0.71243,0.66174 -1.75941,2.53867 -1.61949,2.90329 0.26693,0.6956 10.89927,0.59397 11.27483,-0.10777 z M 18.070332,108.67146 c -0.298664,-0.21122 -0.192082,-0.17764 -0.06615,-0.41488 0.303738,-0.5722 -0.02208,-0.2027 1.09522,-2.25661 1.551657,-3.04866 2.97186,-5.72143 4.513142,-8.745225 0.606292,-1.20182 1.209978,-2.36373 1.341525,-2.58201 0.131547,-0.21828 0.614461,-1.17078 1.073142,-2.11666 0.458682,-0.94589 1.409845,-2.79136 2.113696,-4.10104 0.703851,-1.30969 1.416672,-2.67891 1.584047,-3.04271 0.962721,-2.092548 5.709618,-11.309198 6.071667,-12.17084 0.152866,-0.3638 0.566642,-1.1377 0.919502,-1.71979 0.352861,-0.58208 0.774003,-1.35599 0.935874,-1.71979 2.022576,-4.54573 1.907448,-4.47085 6.936717,-4.51127 5.597678,-0.045 5.349973,-0.59359 2.449944,5.42601 -2.438827,5.551503 -5.215334,10.731734 -7.731279,16.28318 -0.650215,1.442 -2.636146,5.61403 -5.100754,10.71562 -0.70302,1.45521 -1.632528,3.419735 -2.065572,4.365625 -0.433045,0.94588 -1.156738,2.51849 -1.608206,3.49469 -0.451469,0.9762 -0.820853,1.83327 -0.820853,1.9046 0,1.32096 -10.009897,2.3451 -11.641667,1.1911 z m 43.353474,-0.17425 c -0.211635,-0.25466 -0.715791,-1.17739 -1.120347,-2.05052 -0.777639,-1.67832 -1.207144,-2.60237 -2.552148,-5.49076 -1.281025,-2.750985 -0.492486,-2.579025 -11.826308,-2.579025 -5.424652,0 -9.863004,-0.08 -9.863004,-0.17772 0,-0.27393 3.180718,-6.53423 3.472066,-6.83374 0.149702,-0.15389 2.879605,-0.31993 6.525368,-0.39687 7.529819,-0.15893 7.322089,0.0368 4.774266,-4.49792 -0.122642,-0.21828 -0.296858,-0.57547 -0.387148,-0.79375 -0.207834,-0.50245 -1.300002,-2.94199 -2.01369,-4.49792 -0.300371,-0.65484 -0.688278,-1.36921 -0.862014,-1.5875 -1.145293,-1.43893 -1.098996,-3.64546 0.129313,-6.16316 1.12832,-1.922238 2.986465,-7.084326 3.616088,-7.066 0.527369,0.01535 16.784701,32.566951 21.129409,39.555195 1.93449,3.11156 2.045029,3.04271 -4.885542,3.04271 -5.154661,0 -5.79145,-0.0481 -6.136309,-0.46302 z m 17.245419,-0.0488 c -0.379615,-0.70932 -0.379615,-41.923385 0,-42.632695 0.423175,-0.79071 10.670704,-0.79071 11.093874,0 0.54469,1.01776 0.36192,42.357855 -0.18913,42.776155 -0.8407,0.63818 -10.554817,0.51039 -10.904744,-0.14346 z m 14.335824,0.29119 c -0.25293,-0.16257 -0.32024,-1.05411 -0.26458,-3.50446 0.0747,-3.28642 0.0747,-3.28642 9.996531,-3.43491 11.84859,-0.17733 15.47629,-1.16857 16.74704,-2.798057 1.05316,-1.441979 0.88005,-3.761451 -0.0846,-5.468068 -1.53745,-1.95456 -2.66165,-2.15583 -12.85193,-2.301 -7.331427,-0.10444 -9.378389,-0.20874 -9.723429,-0.49542 -0.447192,-0.37155 -0.668782,-6.00119 -0.276452,-7.02356 0.141912,-0.36983 1.167142,-0.41852 8.812161,-0.41852 11.90924,0 14.57515,-0.85291 14.57515,-4.66306 0,-4.94654 -2.69515,-5.90016 -16.80104,-5.94465 -11.483151,-0.0362 -10.318751,0.3953 -10.318751,-3.82401 0,-3.42765 0,-3.42765 12.303131,-3.55994 19.02804,-0.20461 22.48776,0.76839 25.79687,7.25499 1.25049,2.45124 0.50421,8.94554 -1.24325,10.81903 -0.4328,0.46403 -1.08567,1.22705 -1.4508,1.69561 -0.36514,0.46856 -1.06921,0.99849 -1.56461,1.17763 -1.20699,0.43645 -1.22911,0.38971 1.44211,3.04762 6.71094,6.67753 3.51175,17.347875 -5.65012,18.844975 -1.01864,0.16645 -2.38786,0.41079 -3.0427,0.54296 -1.49099,0.30096 -25.938541,0.34988 -26.400701,0.0528 z m 56.298611,-0.2881 c -1.47829,-0.39722 -2.81141,-1.00222 -5.05289,-2.29315 -0.51342,-0.29568 -3.61335,-2.99934 -4.52043,-3.94256 -1.35497,-1.40895 -3.48541,-5.966535 -3.95889,-8.469145 -0.94664,-5.00351 -0.51074,-13.8129 0.8005,-16.17785 0.1497,-0.26999 0.51843,-1.02668 0.8194,-1.68152 1.96712,-4.28007 6.72643,-8.40835 11.56072,-10.0279 1.60962,-0.53924 29.97047,-0.92264 30.78985,-0.41624 0.13956,0.0863 0.25341,1.63841 0.25341,3.45484 0,4.18927 1.1937,3.81321 -12.12191,3.81889 -14.60502,0.006 -17.55731,0.82421 -18.92373,5.24311 -0.20996,0.67903 -0.60317,1.94896 -0.87379,2.82209 -1.50667,4.86116 -0.14965,15.55182 2.25695,17.78031 1.05956,0.98113 3.82123,2.399325 5.4531,2.800315 0.58209,0.14303 6.23756,0.3334 12.56771,0.42304 11.50938,0.16299 11.50938,0.16299 11.58403,3.44941 0.0557,2.45142 -0.0115,3.34112 -0.26458,3.50168 -0.75042,0.47617 -28.50592,0.2154 -30.36945,-0.28532 z M 78.712832,59.430245 c -0.642284,-0.64229 -0.436961,-42.425536 0.211667,-43.074166 0.814882,-0.81488 9.95873,-0.81229 10.65682,0.003 0.61284,0.71575 0.69711,42.122376 0.0874,42.925616 -0.44165,0.58181 -10.387465,0.71391 -10.955851,0.14553 z m 13.352637,0.14111 c -0.90449,-0.90449 0.005,-15.949916 1.11391,-18.422716 0.2743,-0.6118 0.58219,-1.38566 0.6842,-1.7197 0.24739,-0.81015 3.276632,-3.28291 4.550862,-3.71487 0.558402,-0.1893 1.491512,-0.56397 2.073599,-0.8326 1.89811,-0.87599 3.34794,-1.03183 9.81879,-1.0554 6.79852,-0.0248 7.30167,-0.0908 9.31345,-1.22165 2.83899,-1.59587 2.47618,-5.52119 -0.70037,-7.57754 -2.29082,-1.48297 -3.33128,-1.59624 -15.71759,-1.71108 -12.844151,-0.11908 -11.381941,0.40591 -11.258101,-4.04212 0.0739,-2.65502 0.10482,-2.78491 0.73861,-3.10495 0.78804,-0.39794 26.557421,-0.49819 27.570361,-0.10726 0.33427,0.12901 1.38167,0.37272 2.32756,0.54159 1.98909,0.3551 5.27305,1.84791 6.61458,3.00682 5.67146,4.89944 4.37964,16.95509 -2.10739,19.66683 -0.50423,0.21077 -0.98048,0.47492 -1.05834,0.58698 -0.6113,0.87983 -4.1945,1.36489 -10.07667,1.36406 -3.28149,-4.6e-4 -6.07946,0.10504 -6.2177,0.23445 -0.13825,0.12941 -0.92232,0.42643 -1.74237,0.66003 -3.07623,0.87631 -4.40364,2.81156 -4.63733,6.76078 -0.21497,3.63281 -1.57478,3.30319 14.25893,3.4564 10.72454,0.10378 13.74558,0.20643 14.01524,0.47625 0.37578,0.376 0.50041,5.624536 0.15362,6.469056 -0.19552,0.47615 -39.246521,0.75797 -39.717851,0.28664 z"
       id="path1" /></g></svg>
