<?xml version="1.0" encoding="UTF-8" standalone="no"?>
<!-- Created with Inkscape (http://www.inkscape.org/) -->

<svg
   width="53.293697mm"
   height="43.787277mm"
   viewBox="0 0 53.293696 43.787278"
   version="1.1"
   id="svg1"
   xml:space="preserve"
   xmlns="http://www.w3.org/2000/svg"
   xmlns:svg="http://www.w3.org/2000/svg"><defs
     id="defs1" /><g
     id="layer1"
     transform="translate(-67.334418,-63.51346)"><path
       d="m 67.619126,106.73919 c -0.37961,-0.70932 -0.37961,-41.923388 0,-42.632698 0.42318,-0.79071 10.67071,-0.79071 11.09388,0 0.54469,1.01776 0.36192,42.357858 -0.18913,42.776158 -0.8407,0.63818 -10.55482,0.51039 -10.90475,-0.14346 z m 14.33583,0.29119 c -0.25293,-0.16257 -0.32024,-1.05411 -0.26458,-3.50446 0.0747,-3.28642 0.0747,-3.28642 9.99653,-3.43491 11.848594,-0.177333 15.476294,-1.168573 16.747044,-2.79806 1.05316,-1.441979 0.88005,-3.761451 -0.0846,-5.468068 -1.53745,-1.95456 -2.66165,-2.15583 -12.851934,-2.301 -7.33143,-0.10444 -9.37839,-0.20874 -9.72343,-0.49542 -0.44719,-0.37155 -0.66878,-6.00119 -0.27645,-7.02356 0.14191,-0.36983 1.16714,-0.41852 8.81216,-0.41852 11.909244,0 14.575154,-0.85291 14.575154,-4.66306 0,-4.94654 -2.69515,-5.90016 -16.801044,-5.94465 -11.48315,-0.0362 -10.31875,0.3953 -10.31875,-3.82401 0,-3.42765 0,-3.42765 12.30313,-3.55994 19.028044,-0.20461 22.487764,0.76839 25.796874,7.25499 1.25049,2.45124 0.50421,8.94554 -1.24325,10.81903 -0.4328,0.46403 -1.08567,1.22705 -1.4508,1.69561 -0.36514,0.46856 -1.06921,0.99849 -1.56461,1.17763 -1.20699,0.43645 -1.22911,0.38971 1.44211,3.04762 6.71094,6.67753 3.51175,17.347878 -5.65012,18.844978 -1.01864,0.16645 -2.38786,0.41079 -3.0427,0.54296 -1.49099,0.30096 -25.938544,0.34988 -26.400704,0.0528 z"
       style="fill:#1a1a1a"
       id="path1" /></g></svg>
