<?xml version="1.0" encoding="UTF-8"?>
<svg id="Layer_3" data-name="Layer 3" xmlns="http://www.w3.org/2000/svg" viewBox="0 0 1744 860">
  <defs>
    <style>
      .cls-1 {
        fill: rgba(0, 255, 255, .84);
      }

      .cls-1, .cls-2, .cls-3, .cls-4, .cls-5, .cls-6, .cls-7, .cls-8, .cls-9, .cls-10 {
        stroke: #000;
      }

      .cls-1, .cls-4, .cls-5, .cls-6, .cls-8, .cls-9, .cls-10 {
        stroke-miterlimit: 11.34;
      }

      .cls-1, .cls-4, .cls-5, .cls-6, .cls-9, .cls-10 {
        stroke-width: .75px;
      }

      .cls-11, .cls-6 {
        fill: aqua;
      }

      .cls-2, .cls-3 {
        stroke-linecap: round;
      }

      .cls-2, .cls-3, .cls-7 {
        fill: none;
      }

      .cls-2, .cls-7 {
        stroke-miterlimit: 10;
      }

      .cls-4 {
        fill: rgba(0, 255, 255, .75);
      }

      .cls-5 {
        fill: rgba(0, 255, 255, .83);
      }

      .cls-7 {
        stroke-width: 3px;
      }

      .cls-8 {
        stroke-width: .55px;
      }

      .cls-9 {
        fill: rgba(0, 255, 255, .37);
      }

      .cls-10 {
        fill: rgba(0, 255, 255, .37);
      }
    </style>
  </defs>
  <rect id="rect7395" class="cls-10" x="1066.43" y="96.58" width="96.59" height="94.92"/>
  <rect id="rect7395-9" class="cls-4" x="1162.09" y="96.5" width="96.59" height="95"/>
  <polygon id="rect7395-9-1" class="cls-1" points="1260.53 96.43 1357.12 96.43 1356.12 191.5 1259.53 191.5 1260.53 96.43"/>
  <polygon id="rect7395-9-0" class="cls-4" points="1356.5 96.5 1452.5 96.5 1452.85 190.5 1356.27 190.5 1356.5 96.5"/>
  <polygon id="rect7395-9-5" class="cls-9" points="1452.92 96.28 1549.51 96.28 1549.5 191.5 1453.5 190.5 1452.92 96.28"/>
  <polygon id="rect7395-1" class="cls-5" points="1065.5 191.5 1162.5 191.5 1162.44 286.73 1065.85 286.73 1065.5 191.5"/>
  <polygon id="rect7395-9-7" class="cls-6" points="1162.51 192.43 1259.1 192.43 1259.5 286.5 1162.5 286.5 1162.51 192.43"/>
  <polygon id="rect7395-9-1-0" class="cls-6" points="1259.95 191.43 1356.54 191.43 1356.5 286.5 1259.5 286.5 1259.95 191.43"/>
  <polygon id="rect7395-9-0-3" class="cls-6" points="1355.68 192.36 1452.27 192.36 1453.27 286.5 1356.68 286.5 1355.68 192.36"/>
  <rect id="rect7395-9-5-9" class="cls-5" x="1453.34" y="191.29" width="96.59" height="96.21"/>
  <rect id="rect7395-9-5-8-9" class="cls-9" x="1550" y="191.29" width="96.59" height="96.21"/>
  <polygon id="rect7395-2-9" class="cls-10" points="968.27 191.51 1064.85 191.51 1065.5 286.5 968.5 286.5 968.27 191.51"/>
  <polygon id="rect7395-1-3" class="cls-6" points="1065.82 286.68 1162.41 286.68 1162.5 382.5 1065.5 382.5 1065.82 286.68"/>
  <polygon id="rect7395-9-7-0" class="cls-6" points="1162.48 286.54 1259.07 286.54 1259.5 382.5 1162.5 382.5 1162.48 286.54"/>
  <polygon id="rect7395-9-1-0-0" class="cls-6" points="1259.92 286.54 1356.51 286.54 1356.5 382.5 1259.5 382.5 1259.92 286.54"/>
  <polygon id="rect7395-9-0-3-4" class="cls-6" points="1356.66 287.46 1453.24 287.46 1453.5 382.5 1356.5 382.5 1356.66 287.46"/>
  <polygon id="rect7395-9-5-9-4" class="cls-6" points="1453.31 287.39 1549.9 287.39 1550.5 382.5 1453.5 382.5 1453.31 287.39"/>
  <polygon id="rect7395-9-5-8-9-9" class="cls-4" points="1549.97 287.39 1646.56 287.39 1646.5 382.5 1549.5 382.5 1549.97 287.39"/>
  <polygon id="rect7395-2-9-7" class="cls-4" points="969.24 287.61 1065.82 287.61 1065.5 382.5 968.5 382.5 969.24 287.61"/>
  <polygon id="rect7395-1-3-1" class="cls-6" points="1066.1 382.16 1162.69 382.16 1162.5 478.5 1065.5 478.5 1066.1 382.16"/>
  <polygon id="rect7395-9-7-0-0" class="cls-6" points="1162.76 383.01 1259.35 383.01 1259.5 477.5 1162.5 477.5 1162.76 383.01"/>
  <polygon id="rect7395-9-1-0-0-5" class="cls-6" points="1260.2 383.01 1356.79 383.01 1356.5 477.5 1259.5 478.5 1260.2 383.01"/>
  <polygon id="rect7395-9-0-3-4-0" class="cls-6" points="1356.93 382.94 1453.52 382.94 1453.5 477.5 1356.5 478.5 1356.93 382.94"/>
  <polygon id="rect7395-9-5-9-4-4" class="cls-6" points="1453.59 382.87 1550.18 382.87 1549.5 477.5 1453.5 477.5 1453.59 382.87"/>
  <polygon id="rect7395-9-5-8-9-9-8" class="cls-4" points="1550.25 382.87 1646.84 382.87 1646.5 477.5 1549.5 477.5 1550.25 382.87"/>
  <polygon id="rect7395-2-9-7-6" class="cls-4" points="968.52 382.09 1065.1 382.09 1065.5 477.5 968.5 477.5 968.52 382.09"/>
  <polygon id="rect7395-1-3-1-5" class="cls-5" points="1065.45 478.77 1162.03 478.77 1162.5 573.5 1065.5 573.5 1065.45 478.77"/>
  <polygon id="rect7395-9-7-0-0-4" class="cls-6" points="1162.1 477.63 1258.69 477.63 1259.5 573.5 1162.5 573.5 1162.1 477.63"/>
  <polygon id="rect7395-9-1-0-0-5-1" class="cls-6" points="1259.54 477.63 1356.13 477.63 1356.5 573.5 1259.5 573.5 1259.54 477.63"/>
  <polygon id="rect7395-1-3-1-59" class="cls-9" points="1065.82 574.11 1162.41 574.11 1162.5 668.5 1065.5 669.5 1065.82 574.11"/>
  <polygon id="rect7395-9-7-0-0-44" class="cls-4" points="1161.97 574 1258.55 574 1259.5 668.5 1162.5 668.5 1161.97 574"/>
  <polygon id="rect7395-9-1-0-0-5-4" class="cls-1" points="1259.41 574 1355.99 574 1356.5 668.5 1259.5 668.5 1259.41 574"/>
  <polygon id="rect7395-9-0-3-4-0-08" class="cls-4" points="1356.14 572.93 1452.72 572.93 1453.5 668.5 1356.5 668.5 1356.14 572.93"/>
  <polygon id="rect7395-9-5-9-4-4-2" class="cls-10" points="1453.8 573.86 1550.38 573.86 1550.5 668.5 1453.5 668.5 1453.8 573.86"/>
  <polygon id="rect7395-9-0-3-4-0-0" class="cls-6" points="1356.28 478.56 1452.86 478.56 1453.5 573.5 1356.5 573.5 1356.28 478.56"/>
  <polygon id="rect7395-9-5-9-4-4-7" class="cls-5" points="1452.94 478.48 1549.52 478.48 1549.5 573.5 1453.5 573.5 1452.94 478.48"/>
  <polygon id="rect7395-9-5-8-9-9-8-2" class="cls-10" points="1549.59 478.48 1646.18 478.48 1646.5 573.5 1549.5 573.5 1549.59 478.48"/>
  <polygon id="rect7395-2-9-7-6-7" class="cls-9" points="968.86 478.7 1065.45 478.7 1065.5 573.5 968.5 573.5 968.86 478.7"/>
  <g id="layer1-2">
    <path id="path3336-9" class="cls-2" d="m-231.97.35H1886.18"/>
    <path id="path3336-7" class="cls-2" d="m-231.97,286.97H1886.18"/>
    <path id="path3336-1" class="cls-2" d="m-231.97,478.05H1886.18"/>
    <path id="path3336-8" class="cls-2" d="m-231.97,764.67H1886.18"/>
    <path id="path3336-2" class="cls-2" d="m-231.97,95.89H1886.18"/>
    <path id="path3336-93" class="cls-2" d="m-231.97,191.43H1886.18"/>
    <path id="path3336-98" class="cls-2" d="m-231.97,382.51H1886.18"/>
    <path id="path3336-3" class="cls-2" d="m-231.97,573.59H1886.18"/>
    <path id="path3336-5" class="cls-2" d="m-231.97,669.13H1886.18"/>
    <path id="path3336-0-6" class="cls-2" d="m-231.97,860.21H1886.18"/>
    <g id="g6919">
      <path id="path3336-7-1" class="cls-3" d="m193.32,1277.87V-237.19"/>
      <path id="path3336-1-07" class="cls-3" d="m387.13,1277.87V-237.19"/>
      <path id="path3336-8-7" class="cls-3" d="m677.84,1277.87V-237.19"/>
      <path id="path3336-2-1" class="cls-3" d="m-.49,1277.87V-237.19"/>
      <path id="path3336-93-4" class="cls-3" d="m96.42,1277.87V-237.19"/>
      <path id="path3336-98-8" class="cls-3" d="m290.23,1277.87V-237.19"/>
      <path id="path3336-3-28" class="cls-3" d="m484.04,1277.87V-237.19"/>
      <path id="path3336-5-0" class="cls-3" d="m580.94,1277.87V-237.19"/>
      <path id="path3336-9-6-0" class="cls-3" d="m871.65,1277.87V-237.19"/>
      <path id="path3336-7-6-8" class="cls-3" d="m1162.37,1277.87V-237.19"/>
      <path id="path3336-1-0-9" class="cls-3" d="m1356.17,1277.87V-237.19"/>
      <path id="path3336-8-5-3" class="cls-3" d="m1549.98,1277.87V-237.19"/>
      <path id="path3336-0-6-8" class="cls-3" d="m774.75,1277.87V-237.19"/>
      <path id="path3336-2-4-5" class="cls-3" d="m968.56,1277.87V-237.19"/>
      <path id="path3336-93-3-1" class="cls-3" d="m1065.46,1277.87V-237.19"/>
      <path id="path3336-98-5-7" class="cls-3" d="m1259.27,1277.87V-237.19"/>
      <path id="path3336-3-2-5" class="cls-3" d="m1453.08,1277.87V-237.19"/>
      <path id="path3336-2-4-6-1" class="cls-3" d="m1646.89,1277.87V-237.19"/>
      <path id="path3336-93-3-0-5" class="cls-3" d="m1743.79,1277.87V-237.19"/>
    </g>
  </g>
  <circle id="path2966" class="cls-11" cx="388.31" cy="377.35" r="283.81"/>
  <path id="path3445" class="cls-8" d="m372.14,403.67l42.41-42.41"/>
  <path id="path3445-2" class="cls-8" d="m372.61,360.11l42.41,42.41"/>
  <g>
    <line x1="394.5" y1="381.5" x2="451.63" y2="100.63"/>
    <g>
      <line class="cls-7" x1="394.5" y1="381.5" x2="447.41" y2="121.38"/>
      <polygon points="451.63 100.63 457.63 132.31 447.09 122.94 433.73 127.45 451.63 100.63"/>
    </g>
  </g>
  <path d="m422.42,400.27h8.42c.2,0,.37.07.51.21.14.14.21.31.21.51v40.39c0,.2-.07.37-.21.51-.14.14-.31.21-.51.21h-8.48c-.2,0-.37-.07-.51-.21-.14-.14-.21-.31-.21-.51v-24.02c0-.16-.04-.24-.12-.24s-.16.06-.24.18l-5.14,8.24c-.16.32-.44.48-.84.48h-4.24c-.4,0-.68-.16-.84-.48l-5.2-8.3c-.08-.12-.16-.18-.24-.18s-.12.08-.12.24v24.08c0,.2-.07.37-.21.51-.14.14-.31.21-.51.21h-8.48c-.2,0-.37-.07-.51-.21-.14-.14-.21-.31-.21-.51v-40.39c0-.2.07-.37.21-.51.14-.14.31-.21.51-.21h8.42c.36,0,.64.16.84.48l8.3,13.02c.12.24.24.24.36,0l8.18-13.02c.16-.32.44-.48.84-.48Z"/>
  <path d="m442.67,446.87c-5.46-6.77-8.18-15.03-8.18-24.79s2.73-18.1,8.18-24.79c.24-.28.54-.42.9-.42h8.24c.28,0,.47.08.57.24.1.16.07.36-.09.6-1.99,3.35-3.61,6.99-4.84,10.93-1.24,3.94-1.85,8.42-1.85,13.44s.62,9.5,1.85,13.44c1.23,3.94,2.85,7.59,4.84,10.93.08.16.12.3.12.42,0,.28-.2.42-.6.42h-8.24c-.36,0-.66-.14-.9-.42Z"/>
  <path d="m487.78,428.17c0,2.15-.4,4.16-1.19,6.03-1.04,2.59-2.73,4.63-5.08,6.12-2.35,1.49-5.12,2.24-8.3,2.24s-5.85-.77-8.24-2.3c-2.39-1.53-4.12-3.61-5.2-6.24-.64-1.59-1.02-3.35-1.14-5.26,0-.48.24-.72.72-.72h8.6c.48,0,.74.24.78.72.08,1,.32,1.95.72,2.87.32.8.8,1.4,1.43,1.82.64.42,1.39.63,2.27.63,1.67,0,2.93-.76,3.76-2.27.56-1,.84-2.31.84-3.94s-.28-2.99-.84-4.18c-.84-1.47-2.11-2.21-3.82-2.21-.44,0-.93.15-1.46.45-.54.3-1.22.75-2.06,1.34-.2.12-.36.18-.48.18-.24,0-.42-.12-.54-.36l-4.24-5.97c-.12-.2-.18-.36-.18-.48,0-.24.1-.42.3-.54l9.2-6.99c.08-.08.11-.16.09-.24-.02-.08-.09-.12-.21-.12h-13.08c-.2,0-.37-.07-.51-.21-.14-.14-.21-.31-.21-.51v-7.05c0-.2.07-.37.21-.51.14-.14.31-.21.51-.21h26.05c.2,0,.37.07.51.21.14.14.21.31.21.51v7.95c0,.36-.14.66-.42.9l-7.23,5.68c-.08.08-.11.16-.09.24.02.08.09.14.21.18,3.19.84,5.5,2.87,6.93,6.09.8,1.91,1.19,3.96,1.19,6.15Z"/>
  <path d="m491.06,441.25l16.13-40.45c.12-.36.4-.54.84-.54h8.36c.56,0,.74.28.54.84l-16.07,40.45c-.12.36-.4.54-.84.54h-8.42c-.56,0-.74-.28-.54-.84Z"/>
  <path d="m554.12,423.06c.14.14.21.31.21.51v7.35c0,.2-.07.37-.21.51-.14.14-.31.21-.51.21h-2.57c-.2,0-.3.1-.3.3v9.44c0,.2-.07.37-.21.51s-.31.21-.51.21h-8.48c-.2,0-.37-.07-.51-.21-.14-.14-.21-.31-.21-.51v-9.44c0-.2-.1-.3-.3-.3h-18.64c-.2,0-.37-.07-.51-.21-.14-.14-.21-.31-.21-.51v-5.79c0-.24.06-.54.18-.9l10.28-23.42c.16-.36.44-.54.84-.54h9.08c.28,0,.47.07.57.21.1.14.09.35-.03.63l-9.38,21.39c-.04.08-.04.16,0,.24.04.08.1.12.18.12h7.65c.2,0,.3-.1.3-.3v-6.69c0-.2.07-.37.21-.51.14-.14.31-.21.51-.21h8.48c.2,0,.37.07.51.21.14.14.21.31.21.51v6.69c0,.2.1.3.3.3h2.57c.2,0,.37.07.51.21Z"/>
  <path d="m571.24,397.28c5.46,6.69,8.18,14.94,8.18,24.73s-2.73,18.16-8.18,24.85c-.24.28-.54.42-.9.42h-8.3c-.28,0-.47-.08-.57-.24-.1-.16-.07-.36.09-.6,1.99-3.39,3.61-7.05,4.87-10.99,1.25-3.94,1.88-8.4,1.88-13.38s-.63-9.49-1.88-13.41c-1.25-3.92-2.88-7.58-4.87-10.96-.08-.16-.12-.3-.12-.42,0-.28.2-.42.6-.42h8.3c.36,0,.66.14.9.42Z"/>
  <path d="m461.1,246.42c.32.2.44.5.36.9l-1.37,8.3c-.04.48-.32.62-.84.42-.72-.16-1.39-.24-2.03-.24-.68,0-1.19.04-1.55.12-1.24.16-2.28.64-3.14,1.43-.86.8-1.28,1.85-1.28,3.17v15.71c0,.2-.07.37-.21.51-.14.14-.31.21-.51.21h-8.48c-.2,0-.37-.07-.51-.21-.14-.14-.21-.31-.21-.51v-29.45c0-.2.07-.37.21-.51.14-.14.31-.21.51-.21h8.48c.2,0,.37.07.51.21.14.14.21.31.21.51v1.91c0,.12.04.2.12.24.08.04.14,0,.18-.12,1.59-2.11,3.66-3.17,6.21-3.17,1.43,0,2.55.26,3.35.78Z"/>
  <path d="m463.81,258.04c-.14-.14-.21-.31-.21-.51v-7.05c0-.2.07-.37.21-.51.14-.14.31-.21.51-.21h24.26c.2,0,.37.07.51.21.14.14.21.31.21.51v7.05c0,.2-.07.37-.21.51-.14.14-.31.21-.51.21h-24.26c-.2,0-.37-.07-.51-.21Z"/>
  <path d="m463.81,269.21c-.14-.14-.21-.31-.21-.51v-7.05c0-.2.07-.37.21-.51.14-.14.31-.21.51-.21h24.26c.2,0,.37.07.51.21.14.14.21.31.21.51v7.05c0,.2-.07.37-.21.51-.14.14-.31.21-.51.21h-24.26c-.2,0-.37-.07-.51-.21Z"/>
  <path d="m506.5,268.35c.04.08.12.12.24.12h15.23c.2,0,.37.07.51.21.14.14.21.31.21.51v7.05c0,.2-.07.37-.21.51-.14.14-.31.21-.51.21h-28.02c-.2,0-.37-.07-.51-.21-.14-.14-.21-.31-.21-.51v-6.63c0-.36.12-.66.36-.9,2.39-2.23,5.56-5.44,9.5-9.62l3.58-3.76c3.62-3.74,5.44-6.47,5.44-8.19,0-1.15-.43-2.11-1.28-2.87-.86-.76-1.96-1.13-3.32-1.13s-2.45.38-3.29,1.13c-.84.76-1.25,1.75-1.25,2.99v1.43c0,.2-.07.37-.21.51-.14.14-.31.21-.51.21h-8.6c-.2,0-.37-.07-.51-.21-.14-.14-.21-.31-.21-.51v-2.99c.16-2.23.9-4.18,2.21-5.85s3.05-2.96,5.2-3.85c2.15-.9,4.54-1.34,7.17-1.34,2.95,0,5.53.55,7.74,1.64,2.21,1.1,3.9,2.58,5.08,4.45,1.17,1.87,1.76,3.94,1.76,6.21,0,1.63-.4,3.29-1.19,4.96-.8,1.67-1.99,3.45-3.58,5.32-1.12,1.35-2.37,2.73-3.76,4.12-1.39,1.39-3.33,3.27-5.8,5.62l-1.19,1.14c-.08.08-.1.16-.06.24Z"/>
  <path d="m528.69,275.84c-.98-.98-1.46-2.22-1.46-3.73s.49-2.81,1.46-3.76c.98-.96,2.22-1.43,3.73-1.43s2.75.48,3.7,1.43c.96.96,1.43,2.21,1.43,3.76s-.49,2.76-1.46,3.73c-.98.98-2.2,1.46-3.67,1.46s-2.76-.49-3.73-1.46Z"/>
  <path d="m571.44,263.03c0,2.15-.4,4.16-1.19,6.03-1.04,2.59-2.73,4.63-5.08,6.12-2.35,1.49-5.12,2.24-8.3,2.24s-5.85-.77-8.24-2.3c-2.39-1.53-4.12-3.61-5.2-6.24-.64-1.59-1.02-3.35-1.14-5.26,0-.48.24-.72.72-.72h8.6c.48,0,.74.24.78.72.08,1,.32,1.95.72,2.87.32.8.8,1.4,1.43,1.82.64.42,1.39.63,2.27.63,1.67,0,2.93-.76,3.76-2.27.56-1,.84-2.31.84-3.94s-.28-2.99-.84-4.18c-.84-1.47-2.11-2.21-3.82-2.21-.44,0-.93.15-1.46.45-.54.3-1.22.75-2.06,1.34-.2.12-.36.18-.48.18-.24,0-.42-.12-.54-.36l-4.24-5.97c-.12-.2-.18-.36-.18-.48,0-.24.1-.42.3-.54l9.2-6.99c.08-.08.11-.16.09-.24-.02-.08-.09-.12-.21-.12h-13.08c-.2,0-.37-.07-.51-.21-.14-.14-.21-.31-.21-.51v-7.05c0-.2.07-.37.21-.51.14-.14.31-.21.51-.21h26.05c.2,0,.37.07.51.21.14.14.21.31.21.51v7.95c0,.36-.14.66-.42.9l-7.23,5.68c-.08.08-.11.16-.09.24.02.08.09.14.21.18,3.19.84,5.5,2.87,6.93,6.09.8,1.91,1.19,3.96,1.19,6.15Z"/>
</svg>