<?xml version="1.0" encoding="UTF-8"?>
<svg xmlns="http://www.w3.org/2000/svg" version="1.1" xmlns:xlink="http://www.w3.org/1999/xlink" viewBox="0 0 573 565">
  <defs>
    <style>
      .cls-1 {
        clip-path: url(#clippath-21);
      }

      .cls-2 {
        clip-path: url(#clippath-6);
      }

      .cls-3 {
        clip-path: url(#clippath-7);
      }

      .cls-4 {
        clip-path: url(#clippath-17);
      }

      .cls-5 {
        clip-path: url(#clippath-15);
      }

      .cls-6 {
        clip-path: url(#clippath-18);
      }

      .cls-7 {
        clip-path: url(#clippath-4);
      }

      .cls-8 {
        clip-path: url(#clippath-22);
      }

      .cls-9 {
        clip-path: url(#clippath-23);
      }

      .cls-10 {
        clip-path: url(#clippath-9);
      }

      .cls-11 {
        clip-path: url(#clippath-10);
      }

      .cls-12 {
        fill: #fff;
      }

      .cls-13 {
        stroke: red;
        stroke-linecap: square;
        stroke-width: 2px;
      }

      .cls-13, .cls-14, .cls-15 {
        fill: none;
      }

      .cls-13, .cls-15 {
        stroke-linejoin: round;
      }

      .cls-16 {
        clip-path: url(#clippath-11);
      }

      .cls-17 {
        clip-path: url(#clippath-1);
      }

      .cls-18 {
        clip-path: url(#clippath-5);
      }

      .cls-19 {
        clip-path: url(#clippath-20);
      }

      .cls-20 {
        clip-path: url(#clippath-8);
      }

      .cls-21 {
        clip-path: url(#clippath-3);
      }

      .cls-22 {
        clip-path: url(#clippath-12);
      }

      .cls-23 {
        clip-path: url(#clippath-14);
      }

      .cls-24 {
        clip-path: url(#clippath-19);
      }

      .cls-25 {
        clip-path: url(#clippath-16);
      }

      .cls-26 {
        clip-path: url(#clippath-2);
      }

      .cls-15 {
        stroke: gray;
        stroke-dasharray: 5.6 2.4;
        stroke-opacity: .5;
        stroke-width: 1.5px;
      }

      .cls-27 {
        clip-path: url(#clippath-13);
      }

      .cls-28 {
        clip-path: url(#clippath);
      }
    </style>
    <clipPath id="clippath">
      <path class="cls-14" d="M650.9,280.8c0-48.5-9.6-96.5-28.1-141.3s-45.8-85.5-80-119.8-75-61.5-119.8-80-92.8-28.1-141.3-28.1-96.5,9.6-141.3,28.1C95.5-41.8,54.8-14.6,20.6,19.7s-61.5,75-80,119.8c-18.6,44.8-28.1,92.8-28.1,141.3s9.6,96.5,28.1,141.3c18.6,44.8,45.8,85.5,80,119.8s75,61.5,119.8,80c44.8,18.6,92.8,28.1,141.3,28.1s96.5-9.6,141.3-28.1c44.8-18.6,85.5-45.8,119.8-80s61.5-75,80-119.8c18.6-44.8,28.1-92.8,28.1-141.3M281.6,280.8h0Z"/>
    </clipPath>
    <clipPath id="clippath-1">
      <path class="cls-14" d="M650.9,280.8c0-48.5-9.6-96.5-28.1-141.3s-45.8-85.5-80-119.8-75-61.5-119.8-80-92.8-28.1-141.3-28.1-96.5,9.6-141.3,28.1C95.5-41.8,54.8-14.6,20.6,19.7s-61.5,75-80,119.8c-18.6,44.8-28.1,92.8-28.1,141.3s9.6,96.5,28.1,141.3c18.6,44.8,45.8,85.5,80,119.8s75,61.5,119.8,80c44.8,18.6,92.8,28.1,141.3,28.1s96.5-9.6,141.3-28.1c44.8-18.6,85.5-45.8,119.8-80s61.5-75,80-119.8c18.6-44.8,28.1-92.8,28.1-141.3M281.6,280.8h0Z"/>
    </clipPath>
    <clipPath id="clippath-2">
      <path class="cls-14" d="M650.9,280.8c0-48.5-9.6-96.5-28.1-141.3s-45.8-85.5-80-119.8-75-61.5-119.8-80-92.8-28.1-141.3-28.1-96.5,9.6-141.3,28.1C95.5-41.8,54.8-14.6,20.6,19.7s-61.5,75-80,119.8c-18.6,44.8-28.1,92.8-28.1,141.3s9.6,96.5,28.1,141.3c18.6,44.8,45.8,85.5,80,119.8s75,61.5,119.8,80c44.8,18.6,92.8,28.1,141.3,28.1s96.5-9.6,141.3-28.1c44.8-18.6,85.5-45.8,119.8-80s61.5-75,80-119.8c18.6-44.8,28.1-92.8,28.1-141.3M281.6,280.8h0Z"/>
    </clipPath>
    <clipPath id="clippath-3">
      <path class="cls-14" d="M650.9,280.8c0-48.5-9.6-96.5-28.1-141.3s-45.8-85.5-80-119.8-75-61.5-119.8-80-92.8-28.1-141.3-28.1-96.5,9.6-141.3,28.1C95.5-41.8,54.8-14.6,20.6,19.7s-61.5,75-80,119.8c-18.6,44.8-28.1,92.8-28.1,141.3s9.6,96.5,28.1,141.3c18.6,44.8,45.8,85.5,80,119.8s75,61.5,119.8,80c44.8,18.6,92.8,28.1,141.3,28.1s96.5-9.6,141.3-28.1c44.8-18.6,85.5-45.8,119.8-80s61.5-75,80-119.8c18.6-44.8,28.1-92.8,28.1-141.3M281.6,280.8h0Z"/>
    </clipPath>
    <clipPath id="clippath-4">
      <path class="cls-14" d="M650.9,280.8c0-48.5-9.6-96.5-28.1-141.3s-45.8-85.5-80-119.8-75-61.5-119.8-80-92.8-28.1-141.3-28.1-96.5,9.6-141.3,28.1C95.5-41.8,54.8-14.6,20.6,19.7s-61.5,75-80,119.8c-18.6,44.8-28.1,92.8-28.1,141.3s9.6,96.5,28.1,141.3c18.6,44.8,45.8,85.5,80,119.8s75,61.5,119.8,80c44.8,18.6,92.8,28.1,141.3,28.1s96.5-9.6,141.3-28.1c44.8-18.6,85.5-45.8,119.8-80s61.5-75,80-119.8c18.6-44.8,28.1-92.8,28.1-141.3M281.6,280.8h0Z"/>
    </clipPath>
    <clipPath id="clippath-5">
      <path class="cls-14" d="M650.9,280.8c0-48.5-9.6-96.5-28.1-141.3s-45.8-85.5-80-119.8-75-61.5-119.8-80-92.8-28.1-141.3-28.1-96.5,9.6-141.3,28.1C95.5-41.8,54.8-14.6,20.6,19.7s-61.5,75-80,119.8c-18.6,44.8-28.1,92.8-28.1,141.3s9.6,96.5,28.1,141.3c18.6,44.8,45.8,85.5,80,119.8s75,61.5,119.8,80c44.8,18.6,92.8,28.1,141.3,28.1s96.5-9.6,141.3-28.1c44.8-18.6,85.5-45.8,119.8-80s61.5-75,80-119.8c18.6-44.8,28.1-92.8,28.1-141.3M281.6,280.8h0Z"/>
    </clipPath>
    <clipPath id="clippath-6">
      <path class="cls-14" d="M650.9,280.8c0-48.5-9.6-96.5-28.1-141.3s-45.8-85.5-80-119.8-75-61.5-119.8-80-92.8-28.1-141.3-28.1-96.5,9.6-141.3,28.1C95.5-41.8,54.8-14.6,20.6,19.7s-61.5,75-80,119.8c-18.6,44.8-28.1,92.8-28.1,141.3s9.6,96.5,28.1,141.3c18.6,44.8,45.8,85.5,80,119.8s75,61.5,119.8,80c44.8,18.6,92.8,28.1,141.3,28.1s96.5-9.6,141.3-28.1c44.8-18.6,85.5-45.8,119.8-80s61.5-75,80-119.8c18.6-44.8,28.1-92.8,28.1-141.3M281.6,280.8h0Z"/>
    </clipPath>
    <clipPath id="clippath-7">
      <path class="cls-14" d="M650.9,280.8c0-48.5-9.6-96.5-28.1-141.3s-45.8-85.5-80-119.8-75-61.5-119.8-80-92.8-28.1-141.3-28.1-96.5,9.6-141.3,28.1C95.5-41.8,54.8-14.6,20.6,19.7s-61.5,75-80,119.8c-18.6,44.8-28.1,92.8-28.1,141.3s9.6,96.5,28.1,141.3c18.6,44.8,45.8,85.5,80,119.8s75,61.5,119.8,80c44.8,18.6,92.8,28.1,141.3,28.1s96.5-9.6,141.3-28.1c44.8-18.6,85.5-45.8,119.8-80s61.5-75,80-119.8c18.6-44.8,28.1-92.8,28.1-141.3M281.6,280.8h0Z"/>
    </clipPath>
    <clipPath id="clippath-8">
      <path class="cls-14" d="M650.9,280.8c0-48.5-9.6-96.5-28.1-141.3s-45.8-85.5-80-119.8-75-61.5-119.8-80-92.8-28.1-141.3-28.1-96.5,9.6-141.3,28.1C95.5-41.8,54.8-14.6,20.6,19.7s-61.5,75-80,119.8c-18.6,44.8-28.1,92.8-28.1,141.3s9.6,96.5,28.1,141.3c18.6,44.8,45.8,85.5,80,119.8s75,61.5,119.8,80c44.8,18.6,92.8,28.1,141.3,28.1s96.5-9.6,141.3-28.1c44.8-18.6,85.5-45.8,119.8-80s61.5-75,80-119.8c18.6-44.8,28.1-92.8,28.1-141.3M281.6,280.8h0Z"/>
    </clipPath>
    <clipPath id="clippath-9">
      <path class="cls-14" d="M650.9,280.8c0-48.5-9.6-96.5-28.1-141.3s-45.8-85.5-80-119.8-75-61.5-119.8-80-92.8-28.1-141.3-28.1-96.5,9.6-141.3,28.1C95.5-41.8,54.8-14.6,20.6,19.7s-61.5,75-80,119.8c-18.6,44.8-28.1,92.8-28.1,141.3s9.6,96.5,28.1,141.3c18.6,44.8,45.8,85.5,80,119.8s75,61.5,119.8,80c44.8,18.6,92.8,28.1,141.3,28.1s96.5-9.6,141.3-28.1c44.8-18.6,85.5-45.8,119.8-80s61.5-75,80-119.8c18.6-44.8,28.1-92.8,28.1-141.3M281.6,280.8h0Z"/>
    </clipPath>
    <clipPath id="clippath-10">
      <path class="cls-14" d="M650.9,280.8c0-48.5-9.6-96.5-28.1-141.3s-45.8-85.5-80-119.8-75-61.5-119.8-80-92.8-28.1-141.3-28.1-96.5,9.6-141.3,28.1C95.5-41.8,54.8-14.6,20.6,19.7s-61.5,75-80,119.8c-18.6,44.8-28.1,92.8-28.1,141.3s9.6,96.5,28.1,141.3c18.6,44.8,45.8,85.5,80,119.8s75,61.5,119.8,80c44.8,18.6,92.8,28.1,141.3,28.1s96.5-9.6,141.3-28.1c44.8-18.6,85.5-45.8,119.8-80s61.5-75,80-119.8c18.6-44.8,28.1-92.8,28.1-141.3M281.6,280.8h0Z"/>
    </clipPath>
    <clipPath id="clippath-11">
      <path class="cls-14" d="M650.9,280.8c0-48.5-9.6-96.5-28.1-141.3s-45.8-85.5-80-119.8-75-61.5-119.8-80-92.8-28.1-141.3-28.1-96.5,9.6-141.3,28.1C95.5-41.8,54.8-14.6,20.6,19.7s-61.5,75-80,119.8c-18.6,44.8-28.1,92.8-28.1,141.3s9.6,96.5,28.1,141.3c18.6,44.8,45.8,85.5,80,119.8s75,61.5,119.8,80c44.8,18.6,92.8,28.1,141.3,28.1s96.5-9.6,141.3-28.1c44.8-18.6,85.5-45.8,119.8-80s61.5-75,80-119.8c18.6-44.8,28.1-92.8,28.1-141.3M281.6,280.8h0Z"/>
    </clipPath>
    <clipPath id="clippath-12">
      <path class="cls-14" d="M650.9,280.8c0-48.5-9.6-96.5-28.1-141.3s-45.8-85.5-80-119.8-75-61.5-119.8-80-92.8-28.1-141.3-28.1-96.5,9.6-141.3,28.1C95.5-41.8,54.8-14.6,20.6,19.7s-61.5,75-80,119.8c-18.6,44.8-28.1,92.8-28.1,141.3s9.6,96.5,28.1,141.3c18.6,44.8,45.8,85.5,80,119.8s75,61.5,119.8,80c44.8,18.6,92.8,28.1,141.3,28.1s96.5-9.6,141.3-28.1c44.8-18.6,85.5-45.8,119.8-80s61.5-75,80-119.8c18.6-44.8,28.1-92.8,28.1-141.3M281.6,280.8h0Z"/>
    </clipPath>
    <clipPath id="clippath-13">
      <path class="cls-14" d="M650.9,280.8c0-48.5-9.6-96.5-28.1-141.3s-45.8-85.5-80-119.8-75-61.5-119.8-80-92.8-28.1-141.3-28.1-96.5,9.6-141.3,28.1C95.5-41.8,54.8-14.6,20.6,19.7s-61.5,75-80,119.8c-18.6,44.8-28.1,92.8-28.1,141.3s9.6,96.5,28.1,141.3c18.6,44.8,45.8,85.5,80,119.8s75,61.5,119.8,80c44.8,18.6,92.8,28.1,141.3,28.1s96.5-9.6,141.3-28.1c44.8-18.6,85.5-45.8,119.8-80s61.5-75,80-119.8c18.6-44.8,28.1-92.8,28.1-141.3M281.6,280.8h0Z"/>
    </clipPath>
    <clipPath id="clippath-14">
      <path class="cls-14" d="M650.9,280.8c0-48.5-9.6-96.5-28.1-141.3s-45.8-85.5-80-119.8-75-61.5-119.8-80-92.8-28.1-141.3-28.1-96.5,9.6-141.3,28.1C95.5-41.8,54.8-14.6,20.6,19.7s-61.5,75-80,119.8c-18.6,44.8-28.1,92.8-28.1,141.3s9.6,96.5,28.1,141.3c18.6,44.8,45.8,85.5,80,119.8s75,61.5,119.8,80c44.8,18.6,92.8,28.1,141.3,28.1s96.5-9.6,141.3-28.1c44.8-18.6,85.5-45.8,119.8-80s61.5-75,80-119.8c18.6-44.8,28.1-92.8,28.1-141.3M281.6,280.8h0Z"/>
    </clipPath>
    <clipPath id="clippath-15">
      <path class="cls-14" d="M650.9,280.8c0-48.5-9.6-96.5-28.1-141.3s-45.8-85.5-80-119.8-75-61.5-119.8-80-92.8-28.1-141.3-28.1-96.5,9.6-141.3,28.1C95.5-41.8,54.8-14.6,20.6,19.7s-61.5,75-80,119.8c-18.6,44.8-28.1,92.8-28.1,141.3s9.6,96.5,28.1,141.3c18.6,44.8,45.8,85.5,80,119.8s75,61.5,119.8,80c44.8,18.6,92.8,28.1,141.3,28.1s96.5-9.6,141.3-28.1c44.8-18.6,85.5-45.8,119.8-80s61.5-75,80-119.8c18.6-44.8,28.1-92.8,28.1-141.3M281.6,280.8h0Z"/>
    </clipPath>
    <clipPath id="clippath-16">
      <path class="cls-14" d="M650.9,280.8c0-48.5-9.6-96.5-28.1-141.3s-45.8-85.5-80-119.8-75-61.5-119.8-80-92.8-28.1-141.3-28.1-96.5,9.6-141.3,28.1C95.5-41.8,54.8-14.6,20.6,19.7s-61.5,75-80,119.8c-18.6,44.8-28.1,92.8-28.1,141.3s9.6,96.5,28.1,141.3c18.6,44.8,45.8,85.5,80,119.8s75,61.5,119.8,80c44.8,18.6,92.8,28.1,141.3,28.1s96.5-9.6,141.3-28.1c44.8-18.6,85.5-45.8,119.8-80s61.5-75,80-119.8c18.6-44.8,28.1-92.8,28.1-141.3M281.6,280.8h0Z"/>
    </clipPath>
    <clipPath id="clippath-17">
      <path class="cls-14" d="M650.9,280.8c0-48.5-9.6-96.5-28.1-141.3s-45.8-85.5-80-119.8-75-61.5-119.8-80-92.8-28.1-141.3-28.1-96.5,9.6-141.3,28.1C95.5-41.8,54.8-14.6,20.6,19.7s-61.5,75-80,119.8c-18.6,44.8-28.1,92.8-28.1,141.3s9.6,96.5,28.1,141.3c18.6,44.8,45.8,85.5,80,119.8s75,61.5,119.8,80c44.8,18.6,92.8,28.1,141.3,28.1s96.5-9.6,141.3-28.1c44.8-18.6,85.5-45.8,119.8-80s61.5-75,80-119.8c18.6-44.8,28.1-92.8,28.1-141.3M281.6,280.8h0Z"/>
    </clipPath>
    <clipPath id="clippath-18">
      <path class="cls-14" d="M650.9,280.8c0-48.5-9.6-96.5-28.1-141.3s-45.8-85.5-80-119.8-75-61.5-119.8-80-92.8-28.1-141.3-28.1-96.5,9.6-141.3,28.1C95.5-41.8,54.8-14.6,20.6,19.7s-61.5,75-80,119.8c-18.6,44.8-28.1,92.8-28.1,141.3s9.6,96.5,28.1,141.3c18.6,44.8,45.8,85.5,80,119.8s75,61.5,119.8,80c44.8,18.6,92.8,28.1,141.3,28.1s96.5-9.6,141.3-28.1c44.8-18.6,85.5-45.8,119.8-80s61.5-75,80-119.8c18.6-44.8,28.1-92.8,28.1-141.3M281.6,280.8h0Z"/>
    </clipPath>
    <clipPath id="clippath-19">
      <path class="cls-14" d="M650.9,280.8c0-48.5-9.6-96.5-28.1-141.3s-45.8-85.5-80-119.8-75-61.5-119.8-80-92.8-28.1-141.3-28.1-96.5,9.6-141.3,28.1C95.5-41.8,54.8-14.6,20.6,19.7s-61.5,75-80,119.8c-18.6,44.8-28.1,92.8-28.1,141.3s9.6,96.5,28.1,141.3c18.6,44.8,45.8,85.5,80,119.8s75,61.5,119.8,80c44.8,18.6,92.8,28.1,141.3,28.1s96.5-9.6,141.3-28.1c44.8-18.6,85.5-45.8,119.8-80s61.5-75,80-119.8c18.6-44.8,28.1-92.8,28.1-141.3M281.6,280.8h0Z"/>
    </clipPath>
    <clipPath id="clippath-20">
      <path class="cls-14" d="M650.9,280.8c0-48.5-9.6-96.5-28.1-141.3s-45.8-85.5-80-119.8-75-61.5-119.8-80-92.8-28.1-141.3-28.1-96.5,9.6-141.3,28.1C95.5-41.8,54.8-14.6,20.6,19.7s-61.5,75-80,119.8c-18.6,44.8-28.1,92.8-28.1,141.3s9.6,96.5,28.1,141.3c18.6,44.8,45.8,85.5,80,119.8s75,61.5,119.8,80c44.8,18.6,92.8,28.1,141.3,28.1s96.5-9.6,141.3-28.1c44.8-18.6,85.5-45.8,119.8-80s61.5-75,80-119.8c18.6-44.8,28.1-92.8,28.1-141.3M281.6,280.8h0Z"/>
    </clipPath>
    <clipPath id="clippath-21">
      <path class="cls-14" d="M650.9,280.8c0-48.5-9.6-96.5-28.1-141.3s-45.8-85.5-80-119.8-75-61.5-119.8-80-92.8-28.1-141.3-28.1-96.5,9.6-141.3,28.1C95.5-41.8,54.8-14.6,20.6,19.7s-61.5,75-80,119.8c-18.6,44.8-28.1,92.8-28.1,141.3s9.6,96.5,28.1,141.3c18.6,44.8,45.8,85.5,80,119.8s75,61.5,119.8,80c44.8,18.6,92.8,28.1,141.3,28.1s96.5-9.6,141.3-28.1c44.8-18.6,85.5-45.8,119.8-80s61.5-75,80-119.8c18.6-44.8,28.1-92.8,28.1-141.3M281.6,280.8h0Z"/>
    </clipPath>
    <clipPath id="clippath-22">
      <path class="cls-14" d="M650.9,280.8c0-48.5-9.6-96.5-28.1-141.3s-45.8-85.5-80-119.8-75-61.5-119.8-80-92.8-28.1-141.3-28.1-96.5,9.6-141.3,28.1C95.5-41.8,54.8-14.6,20.6,19.7s-61.5,75-80,119.8c-18.6,44.8-28.1,92.8-28.1,141.3s9.6,96.5,28.1,141.3c18.6,44.8,45.8,85.5,80,119.8s75,61.5,119.8,80c44.8,18.6,92.8,28.1,141.3,28.1s96.5-9.6,141.3-28.1c44.8-18.6,85.5-45.8,119.8-80s61.5-75,80-119.8c18.6-44.8,28.1-92.8,28.1-141.3M281.6,280.8h0Z"/>
    </clipPath>
    <clipPath id="clippath-23">
      <path class="cls-14" d="M650.9,280.8c0-48.5-9.6-96.5-28.1-141.3s-45.8-85.5-80-119.8-75-61.5-119.8-80-92.8-28.1-141.3-28.1-96.5,9.6-141.3,28.1C95.5-41.8,54.8-14.6,20.6,19.7s-61.5,75-80,119.8c-18.6,44.8-28.1,92.8-28.1,141.3s9.6,96.5,28.1,141.3c18.6,44.8,45.8,85.5,80,119.8s75,61.5,119.8,80c44.8,18.6,92.8,28.1,141.3,28.1s96.5-9.6,141.3-28.1c44.8-18.6,85.5-45.8,119.8-80s61.5-75,80-119.8c18.6-44.8,28.1-92.8,28.1-141.3M281.6,280.8h0Z"/>
    </clipPath>
  </defs>
  <!-- Generator: Adobe Illustrator 28.7.3, SVG Export Plug-In . SVG Version: 1.2.0 Build 164)  -->
  <g>
    <g id="Layer_1">
      <g id="figure_1">
        <g id="patch_1">
          <path class="cls-12" d="M-663,755.5h1843.2V-203.6H-663v959Z"/>
        </g>
        <g class="cls-28">
          <path class="cls-15" d="M281.6,280.8l66.4-237"/>
        </g>
        <g class="cls-17">
          <path class="cls-15" d="M281.6,280.8l127.9-210.3"/>
        </g>
        <g class="cls-26">
          <path class="cls-15" d="M281.6,280.8l179.9-168"/>
        </g>
        <g class="cls-21">
          <path class="cls-15" d="M281.6,280.8l218.6-113.2"/>
        </g>
        <g class="cls-7">
          <path class="cls-15" d="M281.6,280.8l241-50.1"/>
        </g>
        <g class="cls-18">
          <path class="cls-15" d="M281.6,280.8l245.6,16.8"/>
        </g>
        <g class="cls-2">
          <path class="cls-15" d="M281.6,280.8l231.9,82.4"/>
        </g>
        <g class="cls-3">
          <path class="cls-15" d="M281.6,280.8l201.1,142"/>
        </g>
        <g class="cls-20">
          <path class="cls-15" d="M281.6,280.8l155.3,190.9"/>
        </g>
        <g class="cls-10">
          <path class="cls-15" d="M281.6,280.8l98.1,225.8"/>
        </g>
        <g class="cls-11">
          <path class="cls-15" d="M281.6,280.8l33.5,243.9"/>
        </g>
        <g class="cls-16">
          <path class="cls-15" d="M281.6,280.8l-33.5,243.9"/>
        </g>
        <g class="cls-22">
          <path class="cls-15" d="M281.6,280.8l-98.1,225.8"/>
        </g>
        <g class="cls-27">
          <path class="cls-15" d="M281.6,280.8l-155.3,190.9"/>
        </g>
        <g class="cls-23">
          <path class="cls-15" d="M281.6,280.8l-201.1,142"/>
        </g>
        <g class="cls-5">
          <path class="cls-15" d="M281.6,280.8l-231.9,82.4"/>
        </g>
        <g class="cls-25">
          <path class="cls-15" d="M281.6,280.8l-245.6,16.8"/>
        </g>
        <g class="cls-4">
          <path class="cls-15" d="M281.6,280.8l-241-50.1"/>
        </g>
        <g class="cls-6">
          <path class="cls-15" d="M281.6,280.8L63.1,167.5"/>
        </g>
        <g class="cls-24">
          <path class="cls-15" d="M281.6,280.8L101.7,112.8"/>
        </g>
        <g class="cls-19">
          <path class="cls-15" d="M281.6,280.8l-127.9-210.3"/>
        </g>
        <g class="cls-1">
          <path class="cls-15" d="M281.6,280.8L215.2,43.7"/>
        </g>
        <g class="cls-8">
          <path class="cls-15" d="M281.6,280.8V34.6"/>
        </g>
        <g class="cls-9">
          <path class="cls-13" d="M453.9,280.8l-.2-10.8-.9-10.8-1.6-10.7-2.3-10.6-2.9-10.5-3.6-10.3-4.2-10-4.9-9.7-5.5-9.4-6-9.1-6.6-8.7-7.1-8.2-7.7-7.8-8.1-7.3-8.6-6.8-9-6.2-9.4-5.6-9.7-5-10-4.4-10.3-3.8-10.5-3.1-10.7-2.5-10.8-1.8-10.9-1.1-11-.4-11,.3-11,1-10.9,1.6-10.8,2.3-10.6,3-10.4,3.7-10.2,4.3-9.9,4.9-9.5,5.6-9.2,6.1-8.8,6.7-8.3,7.3-7.9,7.8-7.4,8.3-6.8,8.7-6.3,9.1-5.7,9.5-5.1,9.9-4.5,10.2-3.8,10.4-3.2,10.7-2.5,10.8-1.8,11-1.1,11.1-.4,11.1.3,11.1,1,11.1,1.7,11,2.4,10.9,3.1,10.7,3.7,10.5,4.4,10.3,5,10,5.7,9.7,6.3,9.3,6.8,8.9,7.4,8.5,7.9,8,8.4,7.5,8.8,6.9,9.3,6.4,9.7,5.8,10,5.2,10.3,4.5,10.6,3.9,10.8,3.2,11,2.5,11.1,1.8,11.2,1.1,11.3.4,11.3-.3,11.3-1,11.2-1.7,11.1-2.4,10.9-3.1,10.7-3.8,10.4-4.5,10.1-5.1,9.8-5.7,9.4-6.4,9-6.9,8.6-7.5,8.1-8,7.6-8.5,7-9,6.4-9.4,5.8-9.8,5.2-10.2,4.6-10.5,3.9-10.7,3.2-11,2.5-11.2,1.8-11.3,1.1-11.4.4-11.4-.3-11.5-1.1-11.4-1.8-11.3-2.5-11.2-3.2-11-3.9-10.8-4.5-10.6-5.2-10.3-5.8-9.9-6.5-9.5-7-9.1-7.6-8.7-8.1-8.2-8.6-7.6-9.1-7.1-9.5-6.5-9.9-5.9-10.3-5.3-10.6-4.6-10.9-3.9-11.1-3.2-11.3-2.5-11.5-1.8-11.5-1.1-11.6-.4-11.6.4-11.6,1.1-11.5,1.8-11.4,2.5-11.2,3.2-11,3.9-10.7,4.6-10.4,5.3-10,5.9-9.7,6.6-9.2,7.2-8.8,7.7-8.3,8.3-7.7,8.8-7.2,9.2-6.6,9.7-6,10.1-5.3,10.4-4.6,10.8-4,11-3.3,11.3-2.6,11.5-1.8,11.6-1.1,11.7-.4,11.8.4,11.8,1.1,11.7,1.9,11.6,2.6,11.5,3.3,11.3,4,11.1,4.7,10.8,5.4,10.5,6,10.2,6.7,9.8,7.3,9.3,7.8,8.9,8.4,8.4,8.9,7.8,9.4,7.2,9.8,6.6,10.2,6,10.6,5.4,10.9,4.7,11.2,4,11.4,3.3,11.6,2.6,11.8,1.8,11.9,1.1,11.9.3,11.9-.4,11.9-1.2,11.8-1.9,11.6-2.6,11.5-3.4,11.2-4.1,11-4.8,10.6-5.5,10.3-6.1,9.9-6.8,9.4-7.4,9-8,8.5-8.5,7.9-9,7.3-9.5,6.7-10,6.1-10.4,5.4-10.7,4.7-11.1,4-11.3,3.3-11.6,2.6-11.8,1.8-11.9,1.1-12,.3-12.1-.4-12.1-1.2-12-1.9-11.9-2.7-11.8-3.4-11.6-4.2-11.4-4.9-11.1-5.6-10.8-6.2-10.4-6.9-10-7.5-9.6-8.1-9.1-8.6-8.5-9.2-8-9.7-7.4-10.1-6.8-10.5-6.1-10.9-5.5-11.2-4.8-11.5-4.1-11.7-3.3-11.9-2.6-12.1-1.8-12.2-1.1-12.2-.3-12.2.5-12.2,1.2-12.1,2-11.9,2.7-11.7,3.5-11.5,4.2-11.2,4.9-10.9,5.6-10.5,6.3-10.1,7-9.7,7.6-9.2,8.2-8.6,8.8-8.1,9.3-7.5,9.8-6.9,10.2-6.2,10.7-5.5,11-4.8,11.4-4.1,11.7-3.4,11.9-2.6,12.1-1.8,12.2-1.1,12.3-.3,12.4.5,12.4,1.3,12.3,2,12.2,2.8,12.1,3.6,11.9,4.3,11.7,5,11.4,5.7,11,6.4,10.7,7.1,10.2,7.7,9.8,8.3,9.3,8.9,8.7,9.4,8.2,9.9,7.6,10.4,6.9,10.8,6.3,11.2,5.6,11.5,4.9,11.8,4.1,12,3.4,12.2,2.6,12.4,1.8,12.5,1.1,12.5.3,12.5-.5,12.5-1.3,12.4-2.1,12.2-2.9,12-3.6,11.8-4.4,11.5-5.1,11.2-5.8,10.8-6.5,10.3-7.2,9.9-7.8,9.4-8.4,8.8-9,8.2-9.6,7.6-10.1,7-10.5,6.3-10.9,5.6-11.3,4.9-11.7,4.2-12,3.4-12.2,2.6-12.4,1.8-12.5,1.1-12.6.3-12.7-.5-12.7-1.3-12.6-2.1-12.5-2.9-12.4-3.7-12.2-4.4-11.9-5.2-11.6-5.9-11.3-6.6-10.9-7.3-10.5-7.9-10-8.6-9.5-9.1-8.9-9.7-8.3-10.2-7.7-10.7-7.1-11.1-6.4-11.5-5.7-11.8-4.9-12.1-4.2-12.4-3.4-12.6-2.6-12.7-1.8-12.8-1-12.8-.2-12.8.6-12.8,1.4-12.7,2.2-12.5,3-12.3,3.8-12.1,4.5-11.8,5.3-11.4,6-11,6.7-10.6,7.4-10.1,8.1-9.6,8.7-9,9.3-8.4,9.8-7.8,10.3-7.1,10.8-6.4,11.2-5.7,11.6-5,12-4.2,12.3-3.4,12.5-2.7,12.7-1.8,12.9-1,13-.2,13,.6,13,1.4,12.9,2.2,12.8,3,12.7,3.8,12.5,4.6,12.2,5.4,11.9,6.1,11.5,6.8,11.1,7.5,10.7,8.2,10.2,8.8,9.7,9.4,9.1,9.9,8.5,10.5,7.9,10.9,7.2,11.4,6.5,11.8,5.8,12.1,5,12.4,4.3,12.7,3.5,12.9,2.7,13,1.8,13.1,1,13.2.2,13.1-.6,13.1-1.5,13-2.3,12.8-3.1,12.6-3.9,12.3-4.7,12-5.4,11.7-6.2,11.3-6.9,10.8-7.6,10.3-8.3,9.8-8.9,9.2-9.5,8.6-10.1,7.9-10.6,7.3-11.1,6.6-11.5,5.8-11.9,5.1-12.3,4.3-12.6,3.5-12.8,2.7-13,1.8-13.2,1-13.3.2-13.3-.7-13.3-1.5-13.2-2.3-13.1-3.1-13-4-12.7-4.7-12.5-5.5-12.2-6.3-11.8-7-11.4-7.7-10.9-8.4-10.4-9-9.9-9.6-9.3-10.2-8.7-10.7-8-11.2-7.3-11.7-6.6-12.1-5.9-12.4-5.1-12.7-4.3-13-3.5-13.2-2.7-13.3-1.8-13.4-1-13.5-.2-13.5.7-13.4,1.5-13.3,2.4-13.1,3.2-12.9,4-12.6,4.8-12.3,5.6-11.9,6.4-11.5,7.1-11,7.8-10.5,8.5-10,9.2-9.4,9.8-8.8,10.3-8.1,10.9-7.4,11.4-6.7,11.8-5.9,12.2-5.1,12.6-4.3,12.9-3.5,13.1-2.7,13.3-1.8,13.5-1,13.6v13.6c-.1,0,.6,13.6.6,13.6l1.6,13.5,2.4,13.4,3.3,13.3,4.1,13,4.9,12.7,5.7,12.4,6.5,12,7.2,11.6,7.9,11.1,8.6,10.6,9.3,10.1,9.9,9.5,10.5,8.8,11,8.2,11.5,7.5,12,6.7,12.4,6,12.7,5.2,13,4.4,13.3,3.5,13.5,2.7,13.6,1.8,13.7,1h13.8c0,.1,13.8-.6,13.8-.6l13.7-1.6,13.6-2.5,13.4-3.3,13.2-4.2,12.9-5,12.6-5.8,12.2-6.6,11.7-7.3,11.3-8,10.7-8.7,10.2-9.4,9.6-10,8.9-10.6,8.2-11.2,7.5-11.7,6.8-12.1,6-12.5,5.2-12.9,4.4-13.2,3.6-13.4,2.7-13.6,1.8-13.8,1-13.9v-13.9c0,0-.7-13.9-.7-13.9l-1.7-13.8-2.5-13.7-3.4-13.5-4.2-13.3-5.1-13-5.9-12.7-6.7-12.3-7.4-11.9-8.2-11.4-8.9-10.8-9.5-10.3-10.2-9.7-10.7-9-11.3-8.3-11.8-7.6-12.3-6.8-12.7-6.1-13-5.2-13.3-4.4-13.6-3.6-13.8-2.7-14-1.8-14-1h-14.1c0,0-14.1.7-14.1.7l-14,1.7-13.9,2.6-13.7,3.4-13.4,4.3-13.2,5.1-12.8,6-12.4,6.7-12,7.5-11.5,8.3-10.9,9-10.4,9.6-9.7,10.3-9.1,10.9-8.4,11.4-7.7,11.9-6.9,12.4-6.1,12.8-5.3,13.2-4.4,13.5-3.6,13.8-2.7,14-1.8,14.1-.9,14.2v14.2c0,0,.8,14.2.8,14.2l1.7,14.1,2.6,14,3.5,13.8,4.4,13.6,5.2,13.3,6,12.9,6.8,12.5,7.6,12.1,8.4,11.6,9.1,11.1,9.8,10.5,10.4,9.8,11,9.2,11.6,8.5,12.1,7.7,12.6,6.9,13,6.1,13.3,5.3,13.7,4.5,13.9,3.6,14.1,2.7,14.3,1.8,14.4.9h14.4s14.4-.8,14.4-.8l14.3-1.8,14.2-2.7,14-3.6,13.7-4.4,13.4-5.3,13.1-6.1,12.7-6.9,12.2-7.7,11.7-8.5,11.2-9.2,10.6-9.9,9.9-10.5,9.2-11.1,8.5-11.7,7.8-12.2,7-12.7,6.2-13.1,5.4-13.5,4.5-13.8,3.6-14.1,2.7-14.3,1.8-14.4.9-14.5v-14.6s-.9-14.5-.9-14.5l-1.8-14.4-2.7-14.3-3.6-14.1-4.5-13.9-5.4-13.6-6.2-13.2-7-12.8-7.8-12.3-8.6-11.8-9.3-11.3-10-10.7-10.7-10-11.3-9.3-11.9-8.6-12.4-7.8-12.8-7.1-13.3-6.2-13.6-5.4-14-4.5-14.2-3.6-14.4-2.7-14.6-1.8-14.7-.9h-14.7s-14.7,1-14.7,1l-14.6,1.9-14.5,2.8-14.3,3.7-14,4.6-13.7,5.4-13.3,6.3-12.9,7.1-12.5,7.9-11.9,8.7-11.4,9.4-10.8,10.1-10.1,10.8-9.4,11.4-8.7,12-7.9,12.5-7.1,13-6.3,13.4-5.4,13.8-4.5,14.1-3.7,14.4-2.7,14.6-1.8,14.7-.9,14.8v14.9s1,14.8,1,14.8l1.9,14.8,2.8,14.6,3.7,14.4,4.6,14.1,5.5,13.8,6.4,13.5,7.2,13,8,12.6,8.8,12,9.6,11.5,10.3,10.9,10.9,10.2,11.6,9.5,12.1,8.7,12.7,8,13.1,7.2,13.6,6.3,13.9,5.5,14.3,4.6,14.5,3.7,14.7,2.7,14.9,1.8,15,.9h15c0,0,15-1.1,15-1.1l14.9-2,14.8-2.9,14.6-3.8,14.3-4.7,14-5.6,13.6-6.5,13.2-7.3,12.7-8.1,12.2-8.9,11.6-9.7,10.9-10.4,10.3-11.1,9.6-11.7,8.8-12.3,8-12.8,7.2-13.3,6.4-13.7,5.5-14.1,4.6-14.4,3.7-14.7,2.8-14.9,1.8-15.1.9-15.1v-15.2c0,0-1.1-15.1-1.1-15.1l-2-15.1-2.9-14.9-3.9-14.7-4.8-14.4-5.7-14.1-6.6-13.7-7.4-13.3-8.2-12.8-9-12.3-9.8-11.7-10.5-11-11.2-10.4-11.8-9.6-12.4-8.9-13-8.1-13.4-7.3-13.9-6.4-14.3-5.5-14.6-4.6-14.8-3.7-15.1-2.8-15.2-1.8-15.3-.8h-15.3c0,.1-15.3,1.2-15.3,1.2l-15.2,2-15,3-14.8,3.9-14.6,4.9-14.2,5.8-13.9,6.7-13.4,7.5-12.9,8.3-12.4,9.1-11.8,9.9-11.1,10.6-10.4,11.3-9.7,12-9,12.6-8.2,13.1-7.3,13.6-6.4,14-5.6,14.4-4.6,14.7-3.7,15-2.8,15.2-1.8,15.4-.8,15.5v15.5c.1,0,1.3,15.4,1.3,15.4l2.1,15.4,3,15.2,4,15,4.9,14.7,5.9,14.4,6.7,14,7.6,13.5,8.5,13,9.3,12.5,10,11.9,10.8,11.2,11.5,10.5,12.1,9.8,12.7,9,13.2,8.2,13.7,7.4,14.2,6.5,14.6,5.6,14.9,4.7,15.2,3.7,15.4,2.8,15.5,1.8,15.6.8,15.6-.2,15.6-1.2,15.5-2.1,15.3-3.1,15.1-4.1,14.8-5,14.5-5.9,14.1-6.8,13.7-7.7,13.2-8.6,12.6-9.4,12-10.2,11.3-10.9,10.6-11.6,9.9-12.2,9.1-12.8,8.3-13.4,7.4-13.9,6.5-14.3,5.6-14.7,4.7-15,3.7-15.3,2.8-15.5,1.8-15.7.8-15.8-.2-15.8-1.2-15.8-2.2-15.7-3.2-15.5-4.1-15.3-5.1-15-6-14.6-6.9-14.2-7.8-13.8-8.7-13.3-9.5-12.7-10.3-12.1-11-11.4-11.7-10.7-12.4-10-13-9.2-13.5-8.3-14-7.5-14.5-6.6-14.9-5.7-15.2-4.7-15.5-3.7-15.7-2.8-15.8-1.8-15.9-.8-15.9.2-15.9,1.2-15.8,2.2-15.6,3.2-15.4,4.2-15.1,5.2-14.8,6.1-14.4,7-13.9,7.9-13.4,8.8-12.8,9.6-12.2,10.4-11.5,11.1-10.8,11.8-10,12.5-9.2,13.1-8.4,13.7-7.5,14.2-6.6,14.6-5.7,15-4.7,15.4-3.8,15.6-2.8,15.8-1.8,16-.8,16.1.3,16.1,1.3,16.1,2.3,16,3.3,15.8,4.3,15.6,5.2,15.3,6.2,14.9,7.1,14.5,8,14,8.9,13.5,9.7,12.9,10.5,12.3,11.3,11.6,12,10.9,12.6,10.1,13.3,9.3,13.8,8.4,14.3,7.6,14.8,6.7,15.2,5.7,15.5,4.7,15.8,3.8,16,2.8,16.1,1.8,16.2.7,16.3-.3,16.2-1.3,16.1-2.3,15.9-3.3,15.7-4.3,15.4-5.3,15-6.3,14.6-7.2,14.1-8.1,13.6-9,13-9.8,12.4-10.6,11.7-11.4,11-12.1,10.2-12.8,9.4-13.4,8.5-14,7.6-14.5,6.7-14.9,5.7-15.3,4.8-15.7,3.8-15.9,2.8-16.2,1.7-16.3.7-16.4-.3-16.4-1.3-16.4-2.4-16.3-3.4-16.1-4.4-15.8-5.4-15.5-6.4-15.2-7.3-14.7-8.2-14.3-9.1-13.7-9.9-13.1-10.8-12.5-11.5-11.8-12.2-11-12.9-10.3-13.5-9.4-14.1-8.6-14.6-7.7-15.1-6.7-15.5-5.8-15.8-4.8-16.1-3.8-16.3-2.8-16.5-1.7-16.5-.7-16.6.3-16.5,1.4-16.4,2.4-16.2,3.4-16,4.5-15.7,5.5-15.3,6.4-14.9,7.4-14.4,8.3-13.8,9.2-13.2,10.1-12.6,10.9-11.9,11.6-11.1,12.4-10.3,13.1-9.5,13.7-8.6,14.3-7.7,14.8-6.8,15.2-5.8,15.6-4.8,16-3.8,16.3-2.8,16.5-1.7,16.6-.7,16.7.4,16.7,1.4,16.7,2.5,16.5,3.5,16.4,4.5,16.1,5.5,15.8,6.5,15.4,7.5,15,8.4,14.5,9.3,14,10.2,13.3,11,12.7,11.8,12,12.5,11.2,13.2,10.4,13.8,9.6,14.4,8.7,14.9,7.8,15.4,6.8,15.8,5.8,16.1,4.8,16.4,3.8,16.6,2.8,16.8,1.7,16.9.7,16.9-.4,16.8-1.5,16.7-2.5,16.5-3.6,16.3-4.6,15.9-5.6,15.6-6.6,15.1-7.6,14.6-8.5,14.1-9.4,13.5-10.3,12.8-11.1,12.1-11.9,11.3-12.6,10.5-13.3,9.6-14,8.7-14.6,7.8-15.1,6.8-15.5,5.9-16,4.8-16.3,3.8-16.6,2.8-16.8,1.7-16.9.6-17h0"/>
        </g>
        <path id="DejaVuSans-30" d="M298.4,155.1c-.5,0-.9.2-1.1.7-.2.5-.4,1.2-.4,2.2s.1,1.7.4,2.2c.2.5.6.7,1.1.7s.9-.2,1.1-.7c.2-.5.4-1.2.4-2.2s-.1-1.7-.4-2.2c-.2-.5-.6-.7-1.1-.7ZM298.4,154.3c.8,0,1.4.3,1.8.9.4.6.6,1.5.6,2.7s-.2,2.1-.6,2.7c-.4.6-1,.9-1.8.9s-1.4-.3-1.8-.9c-.4-.6-.6-1.5-.6-2.7s.2-2.1.6-2.7c.4-.6,1-.9,1.8-.9Z"/>
        <path id="DejaVuSans-31" d="M328.8,169.8h1.6v-5.4l-1.7.3v-.9l1.7-.3h1v6.3h1.6v.8h-4.1v-.8Z"/>
        <path id="DejaVuSans-32" d="M358.1,187.2h3.3v.8h-4.5v-.8c.4-.4.9-.9,1.5-1.5.6-.6,1-1,1.2-1.2.3-.3.5-.6.6-.9.1-.2.2-.5.2-.7,0-.4-.1-.7-.4-.9-.3-.2-.6-.4-1-.4s-.6,0-1,.2c-.3.1-.7.3-1.1.5v-1c.4-.2.7-.3,1.1-.4.3,0,.6-.1.9-.1.7,0,1.3.2,1.8.6.4.4.7.9.7,1.5s0,.6-.2.8c-.1.3-.3.6-.6.9,0,0-.3.4-.8.8-.4.4-1,1.1-1.8,1.8Z"/>
        <path id="DejaVuSans-33" d="M383,208.6c.5,0,.8.3,1.1.6.3.3.4.7.4,1.1,0,.7-.2,1.2-.7,1.6-.5.4-1.2.6-2.1.6s-.6,0-.9,0c-.3,0-.6-.1-1-.3v-.9c.3.2.6.3.9.4.3,0,.6.1,1,.1.6,0,1.1-.1,1.4-.4s.5-.6.5-1-.1-.7-.4-1c-.3-.2-.7-.4-1.2-.4h-.8v-.8h.9c.5,0,.8,0,1.1-.3s.4-.5.4-.8-.1-.6-.4-.8c-.3-.2-.6-.3-1.1-.3s-.5,0-.8,0c-.3,0-.6.1-1,.3v-.9c.4-.1.7-.2,1-.2s.6,0,.9,0c.7,0,1.3.2,1.7.5.4.3.6.8.6,1.3s-.1.7-.3,1-.5.5-1,.6Z"/>
        <path id="DejaVuSans-34" d="M398.2,236l-2.4,3.8h2.4v-3.8ZM397.9,235.1h1.2v4.6h1v.8h-1v1.7h-1v-1.7h-3.2v-.9l2.9-4.5Z"/>
        <path id="DejaVuSans-35" d="M402.4,268h3.8v.8h-2.9v1.7c.1,0,.3,0,.4-.1.1,0,.3,0,.4,0,.8,0,1.4.2,1.9.7.5.4.7,1,.7,1.8s-.2,1.4-.7,1.8c-.5.4-1.1.6-2,.6s-.6,0-.9,0c-.3,0-.6-.1-1-.2v-1c.3.2.6.3.9.3s.6.1,1,.1c.5,0,1-.1,1.3-.4.3-.3.5-.7.5-1.2s-.2-.9-.5-1.2c-.3-.3-.8-.4-1.3-.4s-.5,0-.8,0c-.3,0-.5.1-.8.3v-3.6Z"/>
        <path id="DejaVuSans-36" d="M402.3,304.6c-.4,0-.8.1-1,.4-.3.3-.4.7-.4,1.2s.1.9.4,1.2c.3.3.6.4,1,.4s.8-.1,1-.4c.3-.3.4-.7.4-1.2s-.1-.9-.4-1.2c-.3-.3-.6-.4-1-.4ZM404.2,301.6v.9c-.2-.1-.5-.2-.7-.3-.2,0-.5,0-.7,0-.6,0-1.1.2-1.5.6-.3.4-.5,1.1-.6,1.9.2-.3.4-.5.7-.6.3-.1.6-.2.9-.2.7,0,1.3.2,1.7.6.4.4.6,1,.6,1.8s-.2,1.3-.6,1.8c-.4.4-1,.7-1.7.7s-1.4-.3-1.9-.9c-.4-.6-.7-1.5-.7-2.7s.3-2,.8-2.7c.5-.7,1.2-1,2.1-1s.5,0,.7,0,.5.1.8.2Z"/>
        <path id="DejaVuSans-37" d="M388.6,333h4.6v.4l-2.6,6.7h-1l2.4-6.3h-3.4v-.8Z"/>
        <path id="DejaVuSans-38" d="M371.6,364.1c-.5,0-.8.1-1.1.4-.3.2-.4.6-.4,1s.1.8.4,1c.3.2.6.4,1.1.4s.8-.1,1.1-.4c.3-.2.4-.6.4-1s-.1-.8-.4-1c-.3-.2-.6-.4-1.1-.4ZM370.6,363.7c-.4-.1-.7-.3-1-.6-.2-.3-.3-.6-.3-1s.2-1,.6-1.3c.4-.3,1-.5,1.7-.5s1.3.2,1.7.5.6.8.6,1.3-.1.7-.3,1c-.2.3-.5.5-1,.6.5.1.8.3,1.1.6.3.3.4.7.4,1.1,0,.7-.2,1.2-.6,1.6-.4.4-1,.6-1.8.6s-1.4-.2-1.8-.6c-.4-.4-.6-.9-.6-1.6s.1-.8.4-1.1c.3-.3.6-.5,1.1-.6ZM370.3,362.2c0,.4.1.7.3.9.2.2.6.3,1,.3s.7-.1,1-.3c.2-.2.3-.5.3-.9s-.1-.7-.3-.9c-.2-.2-.6-.3-1-.3s-.7.1-1,.3c-.2.2-.3.5-.3.9Z"/>
        <path id="DejaVuSans-39" d="M343.6,388.5v-.9c.2.1.5.2.7.3.2,0,.5,0,.7,0,.6,0,1.1-.2,1.4-.6.3-.4.5-1.1.6-1.9-.2.3-.4.5-.7.6-.3.1-.6.2-.9.2-.7,0-1.3-.2-1.7-.6-.4-.4-.6-1-.6-1.8s.2-1.3.6-1.8c.4-.4,1-.7,1.7-.7s1.4.3,1.9.9c.4.6.6,1.5.6,2.7s-.3,2-.8,2.7c-.5.7-1.2,1-2.1,1s-.5,0-.7,0c-.2,0-.5-.1-.8-.2ZM345.5,385.5c.4,0,.8-.1,1-.4.3-.3.4-.7.4-1.2s-.1-.9-.4-1.2c-.3-.3-.6-.4-1-.4s-.8.1-1,.4c-.3.3-.4.7-.4,1.2s.1.9.4,1.2c.3.3.6.4,1,.4Z"/>
        <g>
          <path id="DejaVuSans-31-2" data-name="DejaVuSans-31" d="M309.9,401.2h1.6v-5.4l-1.7.3v-.9l1.7-.3h1v6.3h1.6v.8h-4.1v-.8Z"/>
          <path id="DejaVuSans-30-2" data-name="DejaVuSans-30" d="M317.9,395.5c-.5,0-.9.2-1.1.7-.2.5-.4,1.2-.4,2.2s.1,1.7.4,2.2c.2.5.6.7,1.1.7s.9-.2,1.1-.7c.2-.5.4-1.2.4-2.2s-.1-1.7-.4-2.2c-.2-.5-.6-.7-1.1-.7ZM317.9,394.7c.8,0,1.4.3,1.8.9.4.6.6,1.5.6,2.7s-.2,2.1-.6,2.7c-.4.6-1,.9-1.8.9s-1.4-.3-1.8-.9c-.4-.6-.6-1.5-.6-2.7s.2-2.1.6-2.7c.4-.6,1-.9,1.8-.9Z"/>
        </g>
        <g>
          <path id="DejaVuSans-31-3" data-name="DejaVuSans-31" d="M276.7,405.7h1.6v-5.4l-1.7.3v-.9l1.7-.3h1v6.3h1.6v.8h-4.1v-.8Z"/>
          <path id="DejaVuSans-31-4" data-name="DejaVuSans-31" d="M282.8,405.7h1.6v-5.4l-1.7.3v-.9l1.7-.3h1v6.3h1.6v.8h-4.1v-.8Z"/>
        </g>
        <g>
          <path id="DejaVuSans-31-5" data-name="DejaVuSans-31" d="M243.5,401.2h1.6v-5.4l-1.7.3v-.9l1.7-.3h1v6.3h1.6v.8h-4.1v-.8Z"/>
          <path id="DejaVuSans-32-2" data-name="DejaVuSans-32" d="M250.3,401.2h3.3v.8h-4.5v-.8c.4-.4.9-.9,1.5-1.5.6-.6,1-1,1.2-1.2.3-.3.5-.6.6-.9.1-.2.2-.5.2-.7,0-.4-.1-.7-.4-.9-.3-.2-.6-.4-1-.4s-.6,0-1,.2c-.3.1-.7.3-1.1.5v-1c.4-.2.7-.3,1.1-.4.3,0,.6-.1.9-.1.7,0,1.3.2,1.8.6.4.4.7.9.7,1.5s0,.6-.2.8c-.1.3-.3.6-.6.9,0,0-.3.4-.8.8-.4.4-1,1.1-1.8,1.8Z"/>
        </g>
        <g>
          <path id="DejaVuSans-31-6" data-name="DejaVuSans-31" d="M212.7,387.8h1.6v-5.4l-1.7.3v-.9l1.7-.3h1v6.3h1.6v.8h-4.1v-.8Z"/>
          <path id="DejaVuSans-33-2" data-name="DejaVuSans-33" d="M221.6,384.8c.5,0,.8.3,1.1.6.3.3.4.7.4,1.1,0,.7-.2,1.2-.7,1.6-.5.4-1.2.6-2.1.6s-.6,0-.9,0c-.3,0-.6-.1-1-.3v-.9c.3.2.6.3.9.4.3,0,.6.1,1,.1.6,0,1.1-.1,1.4-.4s.5-.6.5-1-.1-.7-.4-1c-.3-.2-.7-.4-1.2-.4h-.8v-.8h.9c.5,0,.8,0,1.1-.3s.4-.5.4-.8-.1-.6-.4-.8c-.3-.2-.6-.3-1.1-.3s-.5,0-.8,0c-.3,0-.6.1-1,.3v-.9c.4-.1.7-.2,1-.2s.6,0,.9,0c.7,0,1.3.2,1.7.5.4.3.6.8.6,1.3s-.1.7-.3,1-.5.5-1,.6Z"/>
        </g>
        <g>
          <path id="DejaVuSans-31-7" data-name="DejaVuSans-31" d="M186.7,366.6h1.6v-5.4l-1.7.3v-.9l1.7-.3h1v6.3h1.6v.8h-4.1v-.8Z"/>
          <path id="DejaVuSans-34-2" data-name="DejaVuSans-34" d="M195.4,361.2l-2.4,3.8h2.4v-3.8ZM195.1,360.4h1.2v4.6h1v.8h-1v1.7h-1v-1.7h-3.2v-.9l2.9-4.5Z"/>
        </g>
        <g>
          <path id="DejaVuSans-31-8" data-name="DejaVuSans-31" d="M167.4,339.3h1.6v-5.4l-1.7.3v-.9l1.7-.3h1v6.3h1.6v.8h-4.1v-.8Z"/>
          <path id="DejaVuSans-35-2" data-name="DejaVuSans-35" d="M173.4,333h3.8v.8h-2.9v1.7c.1,0,.3,0,.4-.1.1,0,.3,0,.4,0,.8,0,1.4.2,1.9.7.5.4.7,1,.7,1.8s-.2,1.4-.7,1.8c-.5.4-1.1.6-2,.6s-.6,0-.9,0c-.3,0-.6-.1-1-.2v-1c.3.2.6.3.9.3s.6.1,1,.1c.5,0,1-.1,1.3-.4.3-.3.5-.7.5-1.2s-.2-.9-.5-1.2c-.3-.3-.8-.4-1.3-.4s-.5,0-.8,0c-.3,0-.5.1-.8.3v-3.6Z"/>
        </g>
        <g>
          <path id="DejaVuSans-31-9" data-name="DejaVuSans-31" d="M156.2,307.7h1.6v-5.4l-1.7.3v-.9l1.7-.3h1v6.3h1.6v.8h-4.1v-.8Z"/>
          <path id="DejaVuSans-36-2" data-name="DejaVuSans-36" d="M164.3,304.6c-.4,0-.8.1-1,.4-.3.3-.4.7-.4,1.2s.1.9.4,1.2c.3.3.6.4,1,.4s.8-.1,1-.4c.3-.3.4-.7.4-1.2s-.1-.9-.4-1.2c-.3-.3-.6-.4-1-.4ZM166.3,301.6v.9c-.2-.1-.5-.2-.7-.3-.2,0-.5,0-.7,0-.6,0-1.1.2-1.5.6-.3.4-.5,1.1-.6,1.9.2-.3.4-.5.7-.6.3-.1.6-.2.9-.2.7,0,1.3.2,1.7.6.4.4.6,1,.6,1.8s-.2,1.3-.6,1.8c-.4.4-1,.7-1.7.7s-1.4-.3-1.9-.9c-.4-.6-.7-1.5-.7-2.7s.3-2,.8-2.7c.5-.7,1.2-1,2.1-1s.5,0,.7,0,.5.1.8.2Z"/>
        </g>
        <g>
          <path id="DejaVuSans-31-10" data-name="DejaVuSans-31" d="M153.9,274.2h1.6v-5.4l-1.7.3v-.9l1.7-.3h1v6.3h1.6v.8h-4.1v-.8Z"/>
          <path id="DejaVuSans-37-2" data-name="DejaVuSans-37" d="M159.6,268h4.6v.4l-2.6,6.7h-1l2.4-6.3h-3.4v-.8Z"/>
        </g>
        <g>
          <path id="DejaVuSans-31-11" data-name="DejaVuSans-31" d="M160.7,241.4h1.6v-5.4l-1.7.3v-.9l1.7-.3h1v6.3h1.6v.8h-4.1v-.8Z"/>
          <path id="DejaVuSans-38-2" data-name="DejaVuSans-38" d="M168.8,238.9c-.5,0-.8.1-1.1.4-.3.2-.4.6-.4,1s.1.8.4,1c.3.2.6.4,1.1.4s.8-.1,1.1-.4c.3-.2.4-.6.4-1s-.1-.8-.4-1c-.3-.2-.6-.4-1.1-.4ZM167.8,238.5c-.4-.1-.7-.3-1-.6-.2-.3-.3-.6-.3-1s.2-1,.6-1.3c.4-.3,1-.5,1.7-.5s1.3.2,1.7.5.6.8.6,1.3-.1.7-.3,1c-.2.3-.5.5-1,.6.5.1.8.3,1.1.6.3.3.4.7.4,1.1,0,.7-.2,1.2-.6,1.6-.4.4-1,.6-1.8.6s-1.4-.2-1.8-.6c-.4-.4-.6-.9-.6-1.6s.1-.8.4-1.1c.3-.3.6-.5,1.1-.6ZM167.5,236.9c0,.4.1.7.3.9.2.2.6.3,1,.3s.7-.1,1-.3c.2-.2.3-.5.3-.9s-.1-.7-.3-.9c-.2-.2-.6-.3-1-.3s-.7.1-1,.3c-.2.2-.3.5-.3.9Z"/>
        </g>
        <g>
          <path id="DejaVuSans-31-12" data-name="DejaVuSans-31" d="M176.1,211.7h1.6v-5.4l-1.7.3v-.9l1.7-.3h1v6.3h1.6v.8h-4.1v-.8Z"/>
          <path id="DejaVuSans-39-2" data-name="DejaVuSans-39" d="M182.2,212.3v-.9c.2.1.5.2.7.3.2,0,.5,0,.7,0,.6,0,1.1-.2,1.4-.6.3-.4.5-1.1.6-1.9-.2.3-.4.5-.7.6-.3.1-.6.2-.9.2-.7,0-1.3-.2-1.7-.6-.4-.4-.6-1-.6-1.8s.2-1.3.6-1.8c.4-.4,1-.7,1.7-.7s1.4.3,1.9.9c.4.6.6,1.5.6,2.7s-.3,2-.8,2.7c-.5.7-1.2,1-2.1,1s-.5,0-.7,0c-.2,0-.5-.1-.8-.2ZM184.1,209.3c.4,0,.8-.1,1-.4.3-.3.4-.7.4-1.2s-.1-.9-.4-1.2c-.3-.3-.6-.4-1-.4s-.8.1-1,.4c-.3.3-.4.7-.4,1.2s.1.9.4,1.2c.3.3.6.4,1,.4Z"/>
        </g>
        <g>
          <path id="DejaVuSans-32-3" data-name="DejaVuSans-32" d="M199.6,187.2h3.3v.8h-4.5v-.8c.4-.4.9-.9,1.5-1.5.6-.6,1-1,1.2-1.2.3-.3.5-.6.6-.9.1-.2.2-.5.2-.7,0-.4-.1-.7-.4-.9-.3-.2-.6-.4-1-.4s-.6,0-1,.2c-.3.1-.7.3-1.1.5v-1c.4-.2.7-.3,1.1-.4.3,0,.6-.1.9-.1.7,0,1.3.2,1.8.6.4.4.7.9.7,1.5s0,.6-.2.8c-.1.3-.3.6-.6.9,0,0-.3.4-.8.8-.4.4-1,1.1-1.8,1.8Z"/>
          <path id="DejaVuSans-30-3" data-name="DejaVuSans-30" d="M207.1,181.5c-.5,0-.9.2-1.1.7-.2.5-.4,1.2-.4,2.2s.1,1.7.4,2.2c.2.5.6.7,1.1.7s.9-.2,1.1-.7c.2-.5.4-1.2.4-2.2s-.1-1.7-.4-2.2c-.2-.5-.6-.7-1.1-.7ZM207.1,180.8c.8,0,1.4.3,1.8.9.4.6.6,1.5.6,2.7s-.2,2.1-.6,2.7c-.4.6-1,.9-1.8.9s-1.4-.3-1.8-.9c-.4-.6-.6-1.5-.6-2.7s.2-2.1.6-2.7c.4-.6,1-.9,1.8-.9Z"/>
        </g>
        <g>
          <path id="DejaVuSans-32-4" data-name="DejaVuSans-32" d="M228.3,169.8h3.3v.8h-4.5v-.8c.4-.4.9-.9,1.5-1.5.6-.6,1-1,1.2-1.2.3-.3.5-.6.6-.9.1-.2.2-.5.2-.7,0-.4-.1-.7-.4-.9-.3-.2-.6-.4-1-.4s-.6,0-1,.2c-.3.1-.7.3-1.1.5v-1c.4-.2.7-.3,1.1-.4.3,0,.6-.1.9-.1.7,0,1.3.2,1.8.6.4.4.7.9.7,1.5s0,.6-.2.8c-.1.3-.3.6-.6.9,0,0-.3.4-.8.8-.4.4-1,1.1-1.8,1.8Z"/>
          <path id="DejaVuSans-31-13" data-name="DejaVuSans-31" d="M233.8,169.8h1.6v-5.4l-1.7.3v-.9l1.7-.3h1v6.3h1.6v.8h-4.1v-.8Z"/>
        </g>
        <g>
          <path id="DejaVuSans-32-5" data-name="DejaVuSans-32" d="M260.6,160.7h3.3v.8h-4.5v-.8c.4-.4.9-.9,1.5-1.5.6-.6,1-1,1.2-1.2.3-.3.5-.6.6-.9.1-.2.2-.5.2-.7,0-.4-.1-.7-.4-.9-.3-.2-.6-.4-1-.4s-.6,0-1,.2c-.3.1-.7.3-1.1.5v-1c.4-.2.7-.3,1.1-.4.3,0,.6-.1.9-.1.7,0,1.3.2,1.8.6.4.4.7.9.7,1.5s0,.6-.2.8c-.1.3-.3.6-.6.9,0,0-.3.4-.8.8-.4.4-1,1.1-1.8,1.8Z"/>
          <path id="DejaVuSans-32-6" data-name="DejaVuSans-32" d="M266.7,160.7h3.3v.8h-4.5v-.8c.4-.4.9-.9,1.5-1.5.6-.6,1-1,1.2-1.2.3-.3.5-.6.6-.9.1-.2.2-.5.2-.7,0-.4-.1-.7-.4-.9-.3-.2-.6-.4-1-.4s-.6,0-1,.2c-.3.1-.7.3-1.1.5v-1c.4-.2.7-.3,1.1-.4.3,0,.6-.1.9-.1.7,0,1.3.2,1.8.6.4.4.7.9.7,1.5s0,.6-.2.8c-.1.3-.3.6-.6.9,0,0-.3.4-.8.8-.4.4-1,1.1-1.8,1.8Z"/>
        </g>
      </g>
    </g>
  </g>
</svg>