<svg xmlns="http://www.w3.org/2000/svg" xmlns:xlink="http://www.w3.org/1999/xlink" fill="#000000" height="800px" width="800px" version="1.1" id="Capa_1" viewBox="0 0 368.242 368.242" xml:space="preserve">
<path d="M210.468,189.11c4.411,0,8-3.589,8-8v-7.261c2.319,0.31,4.68,0.485,7.083,0.485c29.388,0,53.297-23.909,53.297-53.297  c0-24.082-16.059-44.474-38.027-51.056c0.822-3.88,1.261-7.899,1.261-12.02C242.082,26.001,216.081,0,184.121,0  S126.16,26.001,126.16,57.961c0,4.121,0.44,8.14,1.261,12.02c-21.968,6.583-38.027,26.975-38.027,51.056  c0,29.388,23.909,53.297,53.297,53.297c2.403,0,4.764-0.175,7.083-0.485v7.261c0,4.411,3.589,8,8,8h7.347v160.132  c0,10.493,8.507,19,19,19s19-8.507,19-19v-8.133h18.208c8.271,0,15-5.683,15-12.668s-6.078-12.668-13.55-12.668  c-1.892,0-3.551-2.337-3.551-5v-3.233c0-2.663,1.659-5,3.551-5c7.472,0,13.55-5.683,13.55-12.668s-6.729-12.668-15-12.668h-18.208  V189.11H210.468z M184.121,85.922c-13.2,0-24.256-9.149-27.191-21.45c-0.014-0.058-0.027-0.116-0.04-0.173  c-0.098-0.424-0.187-0.852-0.266-1.284c-0.021-0.114-0.041-0.227-0.061-0.341c-0.065-0.384-0.121-0.771-0.171-1.16  c-0.018-0.139-0.037-0.277-0.053-0.417c-0.043-0.387-0.076-0.776-0.103-1.167c-0.009-0.133-0.023-0.265-0.03-0.399  c-0.029-0.52-0.046-1.042-0.046-1.57C156.16,42.518,168.678,30,184.121,30s27.961,12.519,27.961,27.961  c0,0.527-0.018,1.05-0.046,1.57c-0.008,0.134-0.021,0.266-0.03,0.399c-0.027,0.391-0.06,0.781-0.103,1.167  c-0.016,0.14-0.035,0.278-0.053,0.417c-0.05,0.389-0.106,0.776-0.171,1.16c-0.02,0.114-0.04,0.228-0.061,0.341  c-0.079,0.431-0.167,0.858-0.265,1.281c-0.014,0.059-0.027,0.118-0.041,0.177C208.376,76.773,197.32,85.922,184.121,85.922z"/>
</svg>