<svg xmlns="http://www.w3.org/2000/svg" width="622.04168701" height="593" viewBox="355.64584351 147.33334351 622.04168701 593"><g mask="url(#a)"><rect width="544.04168701" height="515" x="394.64584351" y="186.33334351" fill="#1F1F1F" rx="12" ry="12"/><mask id="a"><path fill="#fff" d="M394.64584351 186.33334351h544.04168701v515H394.64584351z"/></mask><g class="button" mask="url(#b)"><mask id="b"><path fill="#fff" d="M852.1875 204.33334351h11v2h-11z"/></mask><path fill="#CCC" d="M862.188 204.583h-9c-.276124 0-.5.22388-.5.5s.223876.5.5.5h9c.2761 0 .5-.22388.5-.5s-.2239-.5-.5-.5" class="svg-content" color="#CCC"/></g><g class="button" mask="url(#c)"><mask id="c"><path fill="#fff" d="M882.1875 199.83334351h11v11h-11z"/></mask><path fill="#CCC" d="M891.12234 200.0205h-6.49368c-.96679 0-1.75316.786366-1.75316 1.75318v6.49366c0 .96678.78637 1.75316 1.75316 1.75316h6.49368c.96679 0 1.75316-.78638 1.75316-1.75316v-6.49366c0-.966814-.78637-1.75318-1.75316-1.75318m.84407 8.24684c0 .46545-.37862.84407-.84407.84407h-6.49368c-.46545 0-.84407-.37862-.84407-.84407v-6.49366c0-.46545.37862-.84409.84407-.84409h6.49368c.46545 0 .84407.37864.84407.84409z" class="svg-content" color="#CCC"/></g><g class="button" mask="url(#d)"><mask id="d"><path fill="#fff" d="M912.6875 200.33334351h10v10h-10z"/></mask><path fill="#CCC" d="m918.572 205.33297 3.933-3.93316c.244-.244072.244-.63985 0-.883757-.244-.2440706-.64-.2440706-.884 0l-3.933 3.932977-3.933-3.932977c-.244-.2440706-.64-.2440706-.884 0-.244.244057-.244.639841 0 .883757l3.9335 3.93316-3.9335 3.93309c-.244.24412-.244.63988 0 .88375.122.12207.282.18319.442.18319s.32-.06112.442-.18319l3.933-3.93296 3.933 3.93296c.122.12207.282.18319.442.18319s.32-.06112.442-.18319c.244-.244.244-.63975 0-.88375z" class="svg-content" color="#CCC"/></g><path fill="#1F1F1F" d="M412.64584351 227.33334351h508.04168701v456H412.64584351z"/><g class="line"><g class="line-code" dominant-baseline="text-after-edge" font-family="Consolas, &quot;Courier New&quot;, monospace" font-size="42" font-stretch="100%" font-variant="none" font-weight="400" word-spacing="0" writing-mode="horizontal-tb"><text fill="#C586C0" color="#C586C0"><tspan xml:space="preserve" x="412.64584351" y="280" lengthAdjust="spacingAndGlyphs">import</tspan></text><text fill="#CCC" color="#CCC"><tspan xml:space="preserve" x="551.19793701" y="280" lengthAdjust="spacingAndGlyphs"> </tspan></text><text fill="#4EC9B0" color="#4EC9B0"><tspan xml:space="preserve" x="574.29168701" y="280" lengthAdjust="spacingAndGlyphs">turtle</tspan></text><text fill="#CCC" color="#CCC"><tspan xml:space="preserve" x="712.84375" y="280" lengthAdjust="spacingAndGlyphs"> </tspan></text></g></g><g class="line"><g fill="#CCC" class="line-code" color="#CCC" dominant-baseline="text-after-edge" font-family="Consolas, &quot;Courier New&quot;, monospace" font-size="42" font-stretch="100%" font-variant="none" font-weight="400" word-spacing="0" writing-mode="horizontal-tb"><text><tspan xml:space="preserve" x="412.64584351" y="337" lengthAdjust="spacingAndGlyphs"> </tspan></text><text><tspan xml:space="preserve" x="435.73959351" y="337" lengthAdjust="spacingAndGlyphs"> </tspan></text></g></g><g class="line"><g class="line-code" dominant-baseline="text-after-edge" font-family="Consolas, &quot;Courier New&quot;, monospace" font-size="42" font-stretch="100%" font-variant="none" font-weight="400" word-spacing="0" writing-mode="horizontal-tb"><text fill="#9CDCFE" color="#9CDCFE"><tspan xml:space="preserve" x="412.64584351" y="394" lengthAdjust="spacingAndGlyphs">eva</tspan></text><text fill="#CCC" color="#CCC"><tspan xml:space="preserve" x="481.92709351" y="394" lengthAdjust="spacingAndGlyphs"> </tspan></text><text fill="#D4D4D4" color="#D4D4D4"><tspan xml:space="preserve" x="505.02084351" y="394" lengthAdjust="spacingAndGlyphs">=</tspan></text><text fill="#CCC" color="#CCC"><tspan xml:space="preserve" x="528.11462402" y="394" lengthAdjust="spacingAndGlyphs"> </tspan></text><text fill="#4EC9B0" color="#4EC9B0"><tspan xml:space="preserve" x="551.20837402" y="394" lengthAdjust="spacingAndGlyphs">turtle</tspan></text><text fill="#CCC" color="#CCC"><tspan xml:space="preserve" x="689.76043701" y="394" lengthAdjust="spacingAndGlyphs">.</tspan></text><text fill="#4EC9B0" color="#4EC9B0"><tspan xml:space="preserve" x="712.85418701" y="394" lengthAdjust="spacingAndGlyphs">Turtle</tspan></text><text fill="#CCC" color="#CCC"><tspan xml:space="preserve" x="851.40625" y="394" lengthAdjust="spacingAndGlyphs">()</tspan></text><text fill="#CCC" color="#CCC"><tspan xml:space="preserve" x="897.59375" y="394" lengthAdjust="spacingAndGlyphs"> </tspan></text></g></g><g class="line"><g fill="#CCC" class="line-code" color="#CCC" dominant-baseline="text-after-edge" font-family="Consolas, &quot;Courier New&quot;, monospace" font-size="42" font-stretch="100%" font-variant="none" font-weight="400" word-spacing="0" writing-mode="horizontal-tb"><text><tspan xml:space="preserve" x="412.64584351" y="451" lengthAdjust="spacingAndGlyphs"> </tspan></text><text><tspan xml:space="preserve" x="435.73959351" y="451" lengthAdjust="spacingAndGlyphs"> </tspan></text></g></g><g class="line"><g class="line-code" dominant-baseline="text-after-edge" font-family="Consolas, &quot;Courier New&quot;, monospace" font-size="42" font-stretch="100%" font-variant="none" font-weight="400" word-spacing="0" writing-mode="horizontal-tb"><text fill="#9CDCFE" color="#9CDCFE"><tspan xml:space="preserve" x="412.64584351" y="508" lengthAdjust="spacingAndGlyphs">strecke</tspan></text><text fill="#CCC" color="#CCC"><tspan xml:space="preserve" x="574.29168701" y="508" lengthAdjust="spacingAndGlyphs"> </tspan></text><text fill="#D4D4D4" color="#D4D4D4"><tspan xml:space="preserve" x="597.38543701" y="508" lengthAdjust="spacingAndGlyphs">=</tspan></text><text fill="#CCC" color="#CCC"><tspan xml:space="preserve" x="620.47918701" y="508" lengthAdjust="spacingAndGlyphs"> </tspan></text><text fill="#B5CEA8" color="#B5CEA8"><tspan xml:space="preserve" x="643.57293701" y="508" lengthAdjust="spacingAndGlyphs">30</tspan></text><text fill="#CCC" color="#CCC"><tspan xml:space="preserve" x="689.76043701" y="508" lengthAdjust="spacingAndGlyphs"> </tspan></text></g></g><g class="line"><g class="line-code" dominant-baseline="text-after-edge" font-family="Consolas, &quot;Courier New&quot;, monospace" font-size="42" font-stretch="100%" font-variant="none" font-weight="400" word-spacing="0" writing-mode="horizontal-tb"><text fill="#DCDCAA" color="#DCDCAA"><tspan xml:space="preserve" x="412.64584351" y="565" lengthAdjust="spacingAndGlyphs">print</tspan></text><text fill="#CCC" color="#CCC"><tspan xml:space="preserve" x="528.11462402" y="565" lengthAdjust="spacingAndGlyphs">(</tspan></text><text fill="#9CDCFE" color="#9CDCFE"><tspan xml:space="preserve" x="551.20837402" y="565" lengthAdjust="spacingAndGlyphs">strecke</tspan></text><text fill="#CCC" color="#CCC"><tspan xml:space="preserve" x="712.85418701" y="565" lengthAdjust="spacingAndGlyphs">)</tspan></text><text fill="#CCC" color="#CCC"><tspan xml:space="preserve" x="735.94793701" y="565" lengthAdjust="spacingAndGlyphs"> </tspan></text></g></g><g class="line"><g fill="#CCC" class="line-code" color="#CCC" dominant-baseline="text-after-edge" font-family="Consolas, &quot;Courier New&quot;, monospace" font-size="42" font-stretch="100%" font-variant="none" font-weight="400" word-spacing="0" writing-mode="horizontal-tb"><text><tspan xml:space="preserve" x="412.64584351" y="622" lengthAdjust="spacingAndGlyphs"> </tspan></text><text><tspan xml:space="preserve" x="435.73959351" y="622" lengthAdjust="spacingAndGlyphs"> </tspan></text></g></g><g class="line"><g class="line-code" dominant-baseline="text-after-edge" font-family="Consolas, &quot;Courier New&quot;, monospace" font-size="42" font-stretch="100%" font-variant="none" font-weight="400" word-spacing="0" writing-mode="horizontal-tb"><text fill="#9CDCFE" color="#9CDCFE"><tspan xml:space="preserve" x="412.64584351" y="679" lengthAdjust="spacingAndGlyphs">eva</tspan></text><text fill="#CCC" color="#CCC"><tspan xml:space="preserve" x="481.92709351" y="679" lengthAdjust="spacingAndGlyphs">.</tspan></text><text fill="#DCDCAA" color="#DCDCAA"><tspan xml:space="preserve" x="505.02084351" y="679" lengthAdjust="spacingAndGlyphs">forward</tspan></text><text fill="#CCC" color="#CCC"><tspan xml:space="preserve" x="666.66668701" y="679" lengthAdjust="spacingAndGlyphs">(</tspan></text><text fill="#9CDCFE" color="#9CDCFE"><tspan xml:space="preserve" x="689.76043701" y="679" lengthAdjust="spacingAndGlyphs">strecke</tspan></text><text fill="#CCC" color="#CCC"><tspan xml:space="preserve" x="851.40625" y="679" lengthAdjust="spacingAndGlyphs">)</tspan></text><text fill="#CCC" color="#CCC"><tspan xml:space="preserve" x="874.5" y="679" lengthAdjust="spacingAndGlyphs"> </tspan></text></g></g></g></svg>