<svg version="1.1" xmlns="http://www.w3.org/2000/svg" viewBox="0 0 1271.9669884416546 544.8724696565228" width="1271.9669884416546" height="544.8724696565228" class="excalidraw-svg"><!-- svg-source:excalidraw --><metadata></metadata><defs><style class="style-fonts">
      </style></defs><g stroke-opacity="0.9" fill-opacity="0.9" stroke-linecap="round" transform="translate(10 10) rotate(0 625.9834942208273 262.4362348282614)"><path d="M32 0 C292.94 0, 553.88 0, 1219.97 0 C1241.3 0, 1251.97 10.67, 1251.97 32 C1251.97 162.33, 1251.97 292.67, 1251.97 492.87 C1251.97 514.21, 1241.3 524.87, 1219.97 524.87 C769.75 524.87, 319.54 524.87, 32 524.87 C10.67 524.87, 0 514.21, 0 492.87 C0 378.66, 0 264.45, 0 32 C0 10.67, 10.67 0, 32 0" stroke="none" stroke-width="0" fill="#ffffff"></path><path d="M32 0 C459.05 0, 886.09 0, 1219.97 0 M32 0 C505.77 0, 979.55 0, 1219.97 0 M1219.97 0 C1241.3 0, 1251.97 10.67, 1251.97 32 M1219.97 0 C1241.3 0, 1251.97 10.67, 1251.97 32 M1251.97 32 C1251.97 124.47, 1251.97 216.93, 1251.97 492.87 M1251.97 32 C1251.97 184.37, 1251.97 336.74, 1251.97 492.87 M1251.97 492.87 C1251.97 514.21, 1241.3 524.87, 1219.97 524.87 M1251.97 492.87 C1251.97 514.21, 1241.3 524.87, 1219.97 524.87 M1219.97 524.87 C946.25 524.87, 672.54 524.87, 32 524.87 M1219.97 524.87 C902.92 524.87, 585.86 524.87, 32 524.87 M32 524.87 C10.67 524.87, 0 514.21, 0 492.87 M32 524.87 C10.67 524.87, 0 514.21, 0 492.87 M0 492.87 C0 351.08, 0 209.29, 0 32 M0 492.87 C0 320.76, 0 148.65, 0 32 M0 32 C0 10.67, 10.67 0, 32 0 M0 32 C0 10.67, 10.67 0, 32 0" stroke="#1971c2" stroke-width="0.5" fill="none"></path></g><g stroke-linecap="round"><g transform="translate(266.9834942208272 254.43623482826143) rotate(0 205 0)"><path d="M0 0 C68.33 0, 341.67 0, 410 0 M0 0 C68.33 0, 341.67 0, 410 0" stroke="#e03131" stroke-width="4" fill="none"></path></g><g transform="translate(266.9834942208272 254.43623482826143) rotate(0 205 0)"><path d="M420.2 0 C420.2 0.59, 420.15 1.19, 420.05 1.77 C419.94 2.35, 419.79 2.93, 419.58 3.49 C419.38 4.04, 419.13 4.59, 418.83 5.1 C418.54 5.61, 418.19 6.1, 417.81 6.56 C417.43 7.01, 417.01 7.43, 416.56 7.81 C416.1 8.19, 415.61 8.54, 415.1 8.83 C414.59 9.13, 414.04 9.38, 413.49 9.58 C412.93 9.79, 412.35 9.94, 411.77 10.05 C411.19 10.15, 410.59 10.2, 410 10.2 C409.41 10.2, 408.81 10.15, 408.23 10.05 C407.65 9.94, 407.07 9.79, 406.51 9.58 C405.96 9.38, 405.41 9.13, 404.9 8.83 C404.39 8.54, 403.9 8.19, 403.44 7.81 C402.99 7.43, 402.57 7.01, 402.19 6.56 C401.81 6.1, 401.46 5.61, 401.17 5.1 C400.87 4.59, 400.62 4.04, 400.42 3.49 C400.21 2.93, 400.06 2.35, 399.95 1.77 C399.85 1.19, 399.8 0.59, 399.8 0 C399.8 -0.59, 399.85 -1.19, 399.95 -1.77 C400.06 -2.35, 400.21 -2.93, 400.42 -3.49 C400.62 -4.04, 400.87 -4.59, 401.17 -5.1 C401.46 -5.61, 401.81 -6.1, 402.19 -6.56 C402.57 -7.01, 402.99 -7.43, 403.44 -7.81 C403.9 -8.19, 404.39 -8.54, 404.9 -8.83 C405.41 -9.13, 405.96 -9.38, 406.51 -9.58 C407.07 -9.79, 407.65 -9.94, 408.23 -10.05 C408.81 -10.15, 409.41 -10.2, 410 -10.2 C410.59 -10.2, 411.19 -10.15, 411.77 -10.05 C412.35 -9.94, 412.93 -9.79, 413.49 -9.58 C414.04 -9.38, 414.59 -9.13, 415.1 -8.83 C415.61 -8.54, 416.1 -8.19, 416.56 -7.81 C417.01 -7.43, 417.43 -7.01, 417.81 -6.56 C418.19 -6.1, 418.54 -5.61, 418.83 -5.1 C419.13 -4.59, 419.38 -4.04, 419.58 -3.49 C419.79 -2.93, 419.94 -2.35, 420.05 -1.77 C420.15 -1.19, 420.17 -0.3, 420.2 0 C420.23 0.3, 420.23 -0.3, 420.2 0" stroke="none" stroke-width="0" fill="#e03131"></path><path d="M420.2 0 C420.2 0.59, 420.15 1.19, 420.05 1.77 C419.94 2.35, 419.79 2.93, 419.58 3.49 C419.38 4.04, 419.13 4.59, 418.83 5.1 C418.54 5.61, 418.19 6.1, 417.81 6.56 C417.43 7.01, 417.01 7.43, 416.56 7.81 C416.1 8.19, 415.61 8.54, 415.1 8.83 C414.59 9.13, 414.04 9.38, 413.49 9.58 C412.93 9.79, 412.35 9.94, 411.77 10.05 C411.19 10.15, 410.59 10.2, 410 10.2 C409.41 10.2, 408.81 10.15, 408.23 10.05 C407.65 9.94, 407.07 9.79, 406.51 9.58 C405.96 9.38, 405.41 9.13, 404.9 8.83 C404.39 8.54, 403.9 8.19, 403.44 7.81 C402.99 7.43, 402.57 7.01, 402.19 6.56 C401.81 6.1, 401.46 5.61, 401.17 5.1 C400.87 4.59, 400.62 4.04, 400.42 3.49 C400.21 2.93, 400.06 2.35, 399.95 1.77 C399.85 1.19, 399.8 0.59, 399.8 0 C399.8 -0.59, 399.85 -1.19, 399.95 -1.77 C400.06 -2.35, 400.21 -2.93, 400.42 -3.49 C400.62 -4.04, 400.87 -4.59, 401.17 -5.1 C401.46 -5.61, 401.81 -6.1, 402.19 -6.56 C402.57 -7.01, 402.99 -7.43, 403.44 -7.81 C403.9 -8.19, 404.39 -8.54, 404.9 -8.83 C405.41 -9.13, 405.96 -9.38, 406.51 -9.58 C407.07 -9.79, 407.65 -9.94, 408.23 -10.05 C408.81 -10.15, 409.41 -10.2, 410 -10.2 C410.59 -10.2, 411.19 -10.15, 411.77 -10.05 C412.35 -9.94, 412.93 -9.79, 413.49 -9.58 C414.04 -9.38, 414.59 -9.13, 415.1 -8.83 C415.61 -8.54, 416.1 -8.19, 416.56 -7.81 C417.01 -7.43, 417.43 -7.01, 417.81 -6.56 C418.19 -6.1, 418.54 -5.61, 418.83 -5.1 C419.13 -4.59, 419.38 -4.04, 419.58 -3.49 C419.79 -2.93, 419.94 -2.35, 420.05 -1.77 C420.15 -1.19, 420.17 -0.3, 420.2 0 C420.23 0.3, 420.23 -0.3, 420.2 0" stroke="#e03131" stroke-width="4" fill="none"></path></g></g><mask></mask><g stroke-linecap="round" transform="translate(650.7009911872105 85.69072488274094) rotate(0 149.55581304851682 177.31504918902502)"><path d="M32 0 C82.27 0, 132.53 0, 267.11 0 C288.44 0, 299.11 10.67, 299.11 32 C299.11 100.8, 299.11 169.6, 299.11 322.63 C299.11 343.96, 288.44 354.63, 267.11 354.63 C187.81 354.63, 108.5 354.63, 32 354.63 C10.67 354.63, 0 343.96, 0 322.63 C0 223.06, 0 123.49, 0 32 C0 10.67, 10.67 0, 32 0" stroke="none" stroke-width="0" fill="#1e1e1e"></path><path d="M32 0 C125.38 0, 218.77 0, 267.11 0 M32 0 C117.56 0, 203.13 0, 267.11 0 M267.11 0 C288.44 0, 299.11 10.67, 299.11 32 M267.11 0 C288.44 0, 299.11 10.67, 299.11 32 M299.11 32 C299.11 107.33, 299.11 182.66, 299.11 322.63 M299.11 32 C299.11 136.5, 299.11 241.01, 299.11 322.63 M299.11 322.63 C299.11 343.96, 288.44 354.63, 267.11 354.63 M299.11 322.63 C299.11 343.96, 288.44 354.63, 267.11 354.63 M267.11 354.63 C195.42 354.63, 123.72 354.63, 32 354.63 M267.11 354.63 C217 354.63, 166.89 354.63, 32 354.63 M32 354.63 C10.67 354.63, 0 343.96, 0 322.63 M32 354.63 C10.67 354.63, 0 343.96, 0 322.63 M0 322.63 C0 247.67, 0 172.72, 0 32 M0 322.63 C0 252.48, 0 182.33, 0 32 M0 32 C0 10.67, 10.67 0, 32 0 M0 32 C0 10.67, 10.67 0, 32 0" stroke="#1e1e1e" stroke-width="2" fill="none"></path></g><g stroke-linecap="round"><g transform="translate(650.7009912208272 254.43623482826143) rotate(0 19.25 0)"><path d="M0 0 C6.42 0, 32.08 0, 38.5 0" stroke="#e03131" stroke-width="4.5" fill="none" stroke-dasharray="8 12"></path></g><g transform="translate(650.7009912208272 254.43623482826143) rotate(0 19.25 0)"><path d="M48.7 0 C48.7 0.59, 48.65 1.19, 48.55 1.77 C48.44 2.35, 48.29 2.93, 48.08 3.49 C47.88 4.04, 47.63 4.59, 47.33 5.1 C47.04 5.61, 46.69 6.1, 46.31 6.56 C45.93 7.01, 45.51 7.43, 45.06 7.81 C44.6 8.19, 44.11 8.54, 43.6 8.83 C43.09 9.13, 42.54 9.38, 41.99 9.58 C41.43 9.79, 40.85 9.94, 40.27 10.05 C39.69 10.15, 39.09 10.2, 38.5 10.2 C37.91 10.2, 37.31 10.15, 36.73 10.05 C36.15 9.94, 35.57 9.79, 35.01 9.58 C34.46 9.38, 33.91 9.13, 33.4 8.83 C32.89 8.54, 32.4 8.19, 31.94 7.81 C31.49 7.43, 31.07 7.01, 30.69 6.56 C30.31 6.1, 29.96 5.61, 29.67 5.1 C29.37 4.59, 29.12 4.04, 28.92 3.49 C28.71 2.93, 28.56 2.35, 28.45 1.77 C28.35 1.19, 28.3 0.59, 28.3 0 C28.3 -0.59, 28.35 -1.19, 28.45 -1.77 C28.56 -2.35, 28.71 -2.93, 28.92 -3.49 C29.12 -4.04, 29.37 -4.59, 29.67 -5.1 C29.96 -5.61, 30.31 -6.1, 30.69 -6.56 C31.07 -7.01, 31.49 -7.43, 31.94 -7.81 C32.4 -8.19, 32.89 -8.54, 33.4 -8.83 C33.91 -9.13, 34.46 -9.38, 35.01 -9.58 C35.57 -9.79, 36.15 -9.94, 36.73 -10.05 C37.31 -10.15, 37.91 -10.2, 38.5 -10.2 C39.09 -10.2, 39.69 -10.15, 40.27 -10.05 C40.85 -9.94, 41.43 -9.79, 41.99 -9.58 C42.54 -9.38, 43.09 -9.13, 43.6 -8.83 C44.11 -8.54, 44.6 -8.19, 45.06 -7.81 C45.51 -7.43, 45.93 -7.01, 46.31 -6.56 C46.69 -6.1, 47.04 -5.61, 47.33 -5.1 C47.63 -4.59, 47.88 -4.04, 48.08 -3.49 C48.29 -2.93, 48.44 -2.35, 48.55 -1.77 C48.65 -1.19, 48.67 -0.3, 48.7 0 C48.73 0.3, 48.73 -0.3, 48.7 0" stroke="none" stroke-width="0" fill="#e03131"></path><path d="M48.7 0 C48.7 0.59, 48.65 1.19, 48.55 1.77 C48.44 2.35, 48.29 2.93, 48.08 3.49 C47.88 4.04, 47.63 4.59, 47.33 5.1 C47.04 5.61, 46.69 6.1, 46.31 6.56 C45.93 7.01, 45.51 7.43, 45.06 7.81 C44.6 8.19, 44.11 8.54, 43.6 8.83 C43.09 9.13, 42.54 9.38, 41.99 9.58 C41.43 9.79, 40.85 9.94, 40.27 10.05 C39.69 10.15, 39.09 10.2, 38.5 10.2 C37.91 10.2, 37.31 10.15, 36.73 10.05 C36.15 9.94, 35.57 9.79, 35.01 9.58 C34.46 9.38, 33.91 9.13, 33.4 8.83 C32.89 8.54, 32.4 8.19, 31.94 7.81 C31.49 7.43, 31.07 7.01, 30.69 6.56 C30.31 6.1, 29.96 5.61, 29.67 5.1 C29.37 4.59, 29.12 4.04, 28.92 3.49 C28.71 2.93, 28.56 2.35, 28.45 1.77 C28.35 1.19, 28.3 0.59, 28.3 0 C28.3 -0.59, 28.35 -1.19, 28.45 -1.77 C28.56 -2.35, 28.71 -2.93, 28.92 -3.49 C29.12 -4.04, 29.37 -4.59, 29.67 -5.1 C29.96 -5.61, 30.31 -6.1, 30.69 -6.56 C31.07 -7.01, 31.49 -7.43, 31.94 -7.81 C32.4 -8.19, 32.89 -8.54, 33.4 -8.83 C33.91 -9.13, 34.46 -9.38, 35.01 -9.58 C35.57 -9.79, 36.15 -9.94, 36.73 -10.05 C37.31 -10.15, 37.91 -10.2, 38.5 -10.2 C39.09 -10.2, 39.69 -10.15, 40.27 -10.05 C40.85 -9.94, 41.43 -9.79, 41.99 -9.58 C42.54 -9.38, 43.09 -9.13, 43.6 -8.83 C44.11 -8.54, 44.6 -8.19, 45.06 -7.81 C45.51 -7.43, 45.93 -7.01, 46.31 -6.56 C46.69 -6.1, 47.04 -5.61, 47.33 -5.1 C47.63 -4.59, 47.88 -4.04, 48.08 -3.49 C48.29 -2.93, 48.44 -2.35, 48.55 -1.77 C48.65 -1.19, 48.67 -0.3, 48.7 0 C48.73 0.3, 48.73 -0.3, 48.7 0" stroke="#e03131" stroke-width="4.5" fill="none"></path></g></g><mask></mask><g stroke-linecap="round"><g transform="translate(266.9834942208273 254.43623582826137) rotate(0 34.99999999999994 0)"><path d="M0 0 C11.67 0, 58.33 0, 70 0 M0 0 C11.67 0, 58.33 0, 70 0" stroke="#e03131" stroke-width="4" fill="none"></path></g><g transform="translate(266.9834942208273 254.43623582826137) rotate(0 34.99999999999994 0)"><path d="M46.51 8.55 C55.8 5.17, 65.08 1.79, 70 0 M46.51 8.55 C53.68 5.94, 60.86 3.33, 70 0" stroke="#e03131" stroke-width="4" fill="none"></path></g><g transform="translate(266.9834942208273 254.43623582826137) rotate(0 34.99999999999994 0)"><path d="M46.51 -8.55 C55.8 -5.17, 65.08 -1.79, 70 0 M46.51 -8.55 C53.68 -5.94, 60.86 -3.33, 70 0" stroke="#e03131" stroke-width="4" fill="none"></path></g></g><mask></mask></svg>