<svg version="1.1" xmlns="http://www.w3.org/2000/svg" viewBox="0 0 744.9024862978922 531.4405691732537" width="744.9024862978922" height="531.4405691732537" filter="invert(93%) hue-rotate(180deg)" class="excalidraw-svg">
  <!-- svg-source:excalidraw -->
  
  <defs>
    <style class="style-fonts">
      
    </style>
    
  </defs>
  <g stroke-linecap="round" transform="translate(99.91865110475896 42.348740741704205) rotate(0 299.3333435058594 182.6666717529297)"><path d="M0 0 C125.67 0, 251.34 0, 598.67 0 M0 0 C132.87 0, 265.74 0, 598.67 0 M598.67 0 C598.67 100.78, 598.67 201.57, 598.67 365.33 M598.67 0 C598.67 73.64, 598.67 147.29, 598.67 365.33 M598.67 365.33 C447.61 365.33, 296.56 365.33, 0 365.33 M598.67 365.33 C365.48 365.33, 132.29 365.33, 0 365.33 M0 365.33 C0 230.71, 0 96.09, 0 0 M0 365.33 C0 229.25, 0 93.17, 0 0" stroke="#1971c2" stroke-width="2" fill="none"></path></g><g transform="translate(107.7513823369357 10) rotate(0 35.0712890625 11.5)"><text x="0" y="16.900390625" font-family="Helvetica, Segoe UI Emoji" font-size="20px" fill="#1971c2" text-anchor="start" style="white-space: pre;" direction="ltr" dominant-baseline="alphabetic">Fenster</text></g><g transform="translate(364.3622160182104 146.6026224353232) rotate(92.3368057055018 34.787187234521255 297.87782889759916)" stroke="none"><path fill="#1971c2" d="M -0.68,9.95 Q -0.68,9.95 -0.40,9.22 -0.12,8.48 0.21,7.42 0.56,6.36 1.05,5.19 1.54,4.02 2.14,3.38 2.75,2.75 3.57,1.83 4.39,0.91 5.81,0.40 7.23,-0.10 8.10,-0.28 8.98,-0.46 12.09,-0.54 15.19,-0.62 16.99,-1.34 18.80,-2.07 20.43,-1.68 22.06,-1.29 22.92,-1.13 23.77,-0.97 24.86,-0.80 25.96,-0.63 26.58,0.24 27.20,1.13 27.94,2.12 28.68,3.11 29.34,4.33 30.00,5.55 30.84,6.74 31.68,7.92 32.12,10.05 32.56,12.18 33.00,13.69 33.45,15.20 33.95,17.33 34.45,19.47 34.66,21.13 34.87,22.79 35.26,24.90 35.65,27.01 36.11,29.35 36.57,31.70 36.77,34.92 36.98,38.15 37.06,41.68 37.15,45.21 37.19,48.88 37.24,52.54 37.25,55.54 37.27,58.55 37.27,61.27 37.28,63.99 37.28,66.59 37.29,69.19 37.29,72.46 37.29,75.73 37.29,78.57 37.29,81.40 37.29,84.05 37.29,86.70 37.29,89.27 37.29,91.84 37.29,94.38 37.29,96.92 37.29,99.44 37.29,101.96 37.29,105.20 37.29,108.44 36.99,111.31 36.69,114.18 36.56,116.80 36.44,119.41 36.39,121.97 36.33,124.53 36.31,127.06 36.29,129.59 36.28,132.83 36.27,136.07 35.96,138.23 35.65,140.40 35.83,142.64 36.01,144.87 36.08,147.33 36.16,149.79 36.19,153.00 36.22,156.22 36.23,159.75 36.24,163.28 36.25,166.94 36.26,170.61 36.27,175.06 36.27,179.51 36.57,183.53 36.88,187.55 37.01,190.73 37.14,193.92 37.19,197.44 37.25,200.97 37.56,203.12 37.88,205.27 38.33,208.38 38.78,211.49 39.28,214.98 39.77,218.47 40.27,220.62 40.77,222.78 41.29,225.17 41.80,227.56 42.31,229.25 42.81,230.95 43.32,232.38 43.83,233.81 44.61,235.06 45.38,236.30 46.05,237.63 46.72,238.96 47.60,240.98 48.48,243.00 49.42,244.50 50.35,246.00 51.60,247.31 52.84,248.61 53.75,250.00 54.67,251.38 55.62,252.63 56.56,253.87 57.31,255.20 58.06,256.53 58.68,257.82 59.30,259.11 60.10,260.29 60.90,261.47 61.46,261.89 62.02,262.31 62.97,263.33 63.91,264.35 64.39,265.66 64.87,266.96 65.57,268.04 66.26,269.12 66.76,269.50 67.27,269.88 67.81,270.15 68.36,270.42 68.78,271.41 69.20,272.40 69.82,273.71 70.44,275.02 70.54,276.23 70.64,277.45 70.31,278.20 69.99,278.96 69.61,279.82 69.23,280.69 68.74,281.81 68.26,282.93 67.64,283.58 67.02,284.23 66.33,285.71 65.64,287.19 64.66,288.68 63.67,290.17 63.01,291.44 62.34,292.72 61.41,294.06 60.48,295.40 59.87,297.25 59.26,299.09 58.33,300.76 57.40,302.43 56.11,304.55 54.83,306.68 54.01,308.26 53.19,309.85 52.25,311.95 51.31,314.05 50.63,316.33 49.95,318.61 49.36,321.02 48.77,323.43 48.53,325.84 48.29,328.24 47.87,330.77 47.46,333.31 47.29,335.76 47.13,338.21 46.75,340.77 46.37,343.32 46.22,345.79 46.06,348.25 46.00,351.46 45.94,354.67 45.60,357.54 45.27,360.42 45.14,363.74 45.00,367.06 44.94,369.92 44.89,372.78 44.86,375.44 44.84,378.10 44.83,380.67 44.82,383.25 44.81,386.51 44.81,389.77 44.80,393.32 44.80,396.88 44.80,399.83 44.80,402.78 44.80,406.21 44.80,409.63 45.09,412.47 45.39,415.31 45.51,418.74 45.64,422.18 45.70,425.08 45.75,427.98 46.07,431.33 46.39,434.68 46.82,438.28 47.25,441.87 47.73,445.56 48.21,449.26 49.01,452.95 49.80,456.65 50.44,460.43 51.09,464.21 51.66,468.72 52.23,473.23 52.77,477.30 53.31,481.37 53.55,485.31 53.78,489.25 54.18,492.31 54.57,495.37 54.75,498.90 54.92,502.43 55.29,506.05 55.65,509.66 55.81,512.69 55.97,515.71 56.04,519.17 56.11,522.63 55.84,526.31 55.56,530.00 55.45,532.96 55.34,535.93 55.29,538.63 55.24,541.33 55.22,543.92 55.20,546.52 54.89,549.13 54.58,551.74 54.15,555.00 53.72,558.26 53.24,560.42 52.75,562.57 51.93,564.97 51.12,567.37 50.49,569.77 49.87,572.17 48.97,574.05 48.06,575.92 47.10,578.09 46.14,580.25 45.10,581.98 44.06,583.70 43.36,585.09 42.66,586.48 41.72,587.89 40.78,589.29 39.99,589.97 39.20,590.66 38.70,591.51 38.20,592.37 37.17,592.96 36.13,593.56 35.67,594.29 35.22,595.02 34.48,595.56 33.74,596.09 33.11,596.27 32.49,596.45 32.18,597.08 31.87,597.71 30.80,598.23 29.73,598.76 27.77,597.59 25.82,596.41 25.76,596.32 25.71,596.23 25.68,596.13 25.66,596.02 25.67,595.92 25.68,595.81 25.73,595.71 25.77,595.62 25.84,595.54 25.91,595.46 26.01,595.41 26.10,595.36 26.20,595.34 26.31,595.32 26.41,595.34 26.52,595.36 26.61,595.41 26.71,595.45 26.78,595.53 26.86,595.61 26.90,595.70 26.95,595.80 26.96,595.90 26.97,596.01 26.95,596.11 26.93,596.22 26.87,596.31 26.82,596.40 26.74,596.47 26.66,596.54 26.56,596.58 26.46,596.62 26.36,596.63 26.25,596.63 26.15,596.61 26.05,596.58 25.96,596.52 25.87,596.46 25.80,596.38 25.74,596.29 25.70,596.19 25.67,596.09 25.67,595.99 25.67,595.88 25.70,595.78 25.73,595.68 25.80,595.59 25.86,595.51 25.95,595.45 26.03,595.39 26.14,595.36 26.24,595.33 26.34,595.33 26.45,595.34 26.55,595.38 26.65,595.41 26.73,595.48 26.81,595.55 26.81,595.55 26.81,595.55 27.79,595.97 28.77,596.40 29.34,596.25 29.92,596.11 30.67,595.15 31.42,594.20 32.30,593.83 33.18,593.46 34.04,592.40 34.90,591.34 35.56,591.12 36.22,590.89 36.90,589.83 37.58,588.76 38.16,588.31 38.74,587.87 39.61,586.61 40.47,585.36 41.23,583.90 41.98,582.44 42.96,580.86 43.93,579.27 44.90,577.06 45.88,574.84 46.71,573.20 47.54,571.55 48.20,569.08 48.85,566.60 49.64,564.32 50.43,562.04 50.90,560.00 51.38,557.95 51.81,554.70 52.24,551.46 52.54,548.98 52.84,546.50 52.87,543.89 52.89,541.29 52.94,538.56 52.99,535.84 53.10,532.83 53.22,529.82 53.49,526.25 53.76,522.67 53.69,519.25 53.63,515.83 53.47,512.87 53.32,509.90 52.94,506.22 52.57,502.54 52.41,499.11 52.24,495.67 51.84,492.53 51.45,489.39 51.22,485.53 51.00,481.67 50.45,477.60 49.91,473.52 49.35,469.06 48.78,464.60 48.14,460.87 47.51,457.14 46.70,453.35 45.88,449.57 45.39,445.86 44.91,442.15 44.47,438.53 44.03,434.90 43.71,431.46 43.38,428.03 43.33,425.15 43.28,422.27 43.15,418.91 43.03,415.55 42.72,412.59 42.42,409.63 42.42,406.21 42.42,402.78 42.42,399.83 42.42,396.87 42.42,393.32 42.42,389.77 42.43,386.50 42.43,383.24 42.44,380.66 42.45,378.08 42.48,375.41 42.51,372.73 42.57,369.85 42.63,366.96 42.77,363.55 42.91,360.14 43.23,357.38 43.56,354.62 43.63,351.36 43.70,348.10 43.86,345.54 44.02,342.98 44.39,340.51 44.76,338.05 44.94,335.49 45.11,332.93 45.51,330.46 45.91,327.99 46.18,325.43 46.45,322.87 47.05,320.39 47.65,317.92 48.38,315.50 49.11,313.07 50.08,310.91 51.05,308.74 51.91,307.09 52.77,305.44 54.02,303.34 55.28,301.24 56.12,299.77 56.96,298.30 57.71,296.17 58.46,294.03 59.32,292.80 60.17,291.57 60.90,290.19 61.63,288.82 62.53,287.46 63.43,286.10 64.74,284.00 66.05,281.89 66.51,280.79 66.98,279.68 67.63,278.53 68.29,277.38 68.24,276.42 68.20,275.45 68.18,274.84 68.16,274.22 67.66,273.71 67.16,273.20 67.10,272.57 67.04,271.93 66.46,271.77 65.89,271.61 65.15,270.96 64.41,270.32 63.59,269.00 62.78,267.67 62.51,266.73 62.25,265.78 61.44,264.90 60.63,264.02 59.87,263.37 59.10,262.73 58.20,261.39 57.30,260.06 56.72,258.83 56.14,257.60 55.48,256.39 54.81,255.18 53.84,253.87 52.87,252.55 52.08,251.31 51.28,250.07 49.91,248.60 48.54,247.13 47.54,245.49 46.54,243.85 45.68,241.88 44.82,239.91 44.20,238.66 43.57,237.40 42.71,235.96 41.85,234.52 41.33,233.04 40.80,231.55 40.27,229.78 39.75,228.00 39.24,225.63 38.73,223.25 38.22,221.00 37.71,218.75 37.24,215.26 36.76,211.77 36.34,208.67 35.92,205.56 35.60,203.28 35.27,201.00 35.22,197.50 35.16,194.00 35.04,190.85 34.92,187.69 34.62,183.60 34.33,179.51 34.33,175.06 34.33,170.61 34.32,166.95 34.32,163.28 34.31,159.76 34.29,156.23 34.26,153.04 34.23,149.85 34.16,147.43 34.09,145.01 33.93,142.58 33.77,140.14 34.06,138.10 34.36,136.06 34.37,132.82 34.38,129.57 34.41,127.03 34.43,124.49 34.48,121.90 34.54,119.32 34.67,116.65 34.80,113.98 35.09,111.21 35.39,108.44 35.39,105.20 35.39,101.96 35.39,99.44 35.38,96.92 35.39,94.38 35.39,91.84 35.39,89.27 35.38,86.70 35.39,84.05 35.39,81.40 35.39,78.57 35.39,75.73 35.39,72.46 35.38,69.19 35.38,66.59 35.38,63.99 35.37,61.27 35.37,58.56 35.35,55.56 35.34,52.56 35.31,48.91 35.29,45.25 35.20,41.76 35.12,38.27 34.93,35.16 34.74,32.06 34.28,29.70 33.81,27.34 33.42,25.19 33.03,23.03 32.83,21.46 32.63,19.89 32.14,17.81 31.66,15.73 31.19,14.13 30.73,12.53 30.43,10.73 30.13,8.94 29.25,7.69 28.36,6.44 27.77,5.33 27.18,4.22 26.37,3.13 25.56,2.03 25.35,1.41 25.14,0.79 24.28,0.81 23.42,0.83 22.49,0.65 21.56,0.47 20.39,0.06 19.23,-0.35 17.25,0.42 15.28,1.20 12.31,1.26 9.34,1.32 8.56,1.48 7.79,1.64 6.72,1.92 5.66,2.20 4.86,3.15 4.07,4.09 3.66,4.44 3.26,4.80 2.79,5.94 2.33,7.09 1.82,8.09 1.32,9.08 1.00,9.80 0.68,10.51 0.64,10.59 0.59,10.67 0.53,10.73 0.47,10.80 0.40,10.85 0.32,10.90 0.24,10.93 0.15,10.95 0.06,10.96 -0.02,10.97 -0.11,10.96 -0.19,10.94 -0.28,10.91 -0.36,10.88 -0.43,10.82 -0.50,10.77 -0.56,10.70 -0.62,10.63 -0.66,10.55 -0.70,10.47 -0.71,10.38 -0.73,10.30 -0.73,10.21 -0.73,10.12 -0.70,10.03 -0.68,9.95 -0.68,9.95 L -0.68,9.95 Z"></path></g><g transform="translate(314.0241661114907 498.4405691732537) rotate(0 105.162109375 11.5)"><text x="0" y="16.900390625" font-family="Helvetica, Segoe UI Emoji" font-size="20px" fill="#1971c2" text-anchor="start" style="white-space: pre;" direction="ltr" dominant-baseline="alphabetic">window.window_width()</text></g><g transform="translate(53.98448109188024 52.95431345243986) rotate(180 17.445747214386216 177.3546103928862)" stroke="none"><path fill="#1971c2" d="M -0.70,4.94 Q -0.70,4.94 -0.50,4.04 -0.30,3.14 -0.02,2.34 0.26,1.53 0.60,1.06 0.94,0.60 1.38,0.02 1.82,-0.55 2.63,-0.93 3.43,-1.31 5.50,-1.48 7.58,-1.66 8.46,-2.08 9.33,-2.49 10.28,-2.27 11.23,-2.05 12.26,-1.79 13.28,-1.54 13.68,-0.96 14.08,-0.37 14.44,0.19 14.80,0.76 15.14,1.52 15.48,2.27 15.89,2.96 16.31,3.66 16.55,4.98 16.79,6.31 17.01,7.21 17.23,8.10 17.48,9.38 17.73,10.66 17.84,11.67 17.95,12.68 18.14,13.93 18.34,15.19 18.57,16.59 18.80,17.99 18.90,19.94 19.01,21.88 19.05,24.00 19.09,26.12 19.12,28.31 19.15,30.51 19.15,32.31 19.16,34.10 19.16,35.73 19.17,37.36 19.17,38.92 19.17,40.48 19.17,42.43 19.17,44.39 19.17,46.09 19.17,47.79 19.17,49.37 19.18,50.96 19.18,52.50 19.17,54.03 19.18,55.55 19.18,57.07 19.17,58.58 19.17,60.09 19.17,62.03 19.17,63.97 19.02,65.70 18.87,67.43 18.81,68.99 18.75,70.55 18.72,72.07 18.69,73.60 18.68,75.11 18.67,76.63 18.67,78.57 18.66,80.51 18.51,81.82 18.35,83.13 18.44,84.44 18.54,85.76 18.57,87.23 18.61,88.71 18.63,90.64 18.64,92.56 18.65,94.68 18.65,96.79 18.66,98.98 18.66,101.18 18.67,103.84 18.67,106.50 18.83,108.90 18.98,111.30 19.05,113.21 19.11,115.12 19.14,117.23 19.17,119.35 19.33,120.62 19.49,121.89 19.72,123.75 19.95,125.61 20.20,127.70 20.45,129.79 20.71,131.07 20.96,132.35 21.22,133.78 21.48,135.21 21.73,136.21 21.98,137.22 22.24,138.07 22.49,138.92 22.87,139.63 23.25,140.34 23.59,141.15 23.93,141.96 24.37,143.18 24.82,144.40 25.28,145.27 25.74,146.15 26.34,146.90 26.95,147.64 27.43,148.50 27.90,149.36 28.38,150.09 28.85,150.83 29.24,151.64 29.63,152.46 29.95,153.24 30.26,154.02 30.65,154.70 31.04,155.38 31.78,156.23 32.52,157.07 32.80,157.91 33.07,158.76 33.40,159.37 33.74,159.97 34.19,160.30 34.65,160.64 34.94,161.32 35.24,162.01 35.56,162.81 35.89,163.62 35.95,164.36 36.02,165.11 35.84,165.65 35.66,166.19 35.48,166.69 35.30,167.20 35.06,167.87 34.82,168.54 34.46,169.00 34.11,169.46 33.80,170.28 33.50,171.10 32.99,172.01 32.49,172.93 32.16,173.67 31.84,174.42 31.36,175.24 30.88,176.07 30.59,177.12 30.31,178.18 29.83,179.21 29.35,180.24 28.70,181.52 28.05,182.79 27.65,183.73 27.24,184.67 26.77,185.91 26.30,187.16 25.97,188.50 25.64,189.85 25.34,191.28 25.04,192.72 24.93,194.14 24.81,195.55 24.60,197.08 24.39,198.60 24.30,200.06 24.22,201.51 24.03,203.05 23.84,204.60 23.77,206.06 23.69,207.52 23.66,209.43 23.63,211.35 23.46,213.08 23.29,214.82 23.22,216.79 23.16,218.77 23.13,220.48 23.10,222.19 23.09,223.78 23.08,225.37 23.07,226.91 23.07,228.45 23.07,230.40 23.06,232.35 23.06,234.48 23.06,236.61 23.06,238.37 23.05,240.14 23.05,242.19 23.05,244.24 23.20,245.92 23.35,247.61 23.41,249.67 23.48,251.74 23.51,253.48 23.53,255.22 23.69,257.21 23.85,259.21 24.07,261.35 24.28,263.50 24.52,265.71 24.76,267.92 25.15,270.12 25.55,272.32 25.87,274.59 26.20,276.86 26.49,279.56 26.78,282.27 27.04,284.70 27.31,287.14 27.43,289.51 27.55,291.88 27.75,293.70 27.95,295.52 28.04,297.65 28.12,299.77 28.31,301.93 28.49,304.08 28.57,305.90 28.65,307.72 28.69,309.79 28.72,311.87 28.58,314.09 28.45,316.30 28.39,318.07 28.34,319.84 28.31,321.46 28.29,323.07 28.28,324.62 28.27,326.17 28.11,327.75 27.96,329.33 27.74,331.28 27.53,333.24 27.28,334.54 27.04,335.85 26.63,337.30 26.22,338.75 25.91,340.18 25.60,341.60 25.14,342.76 24.68,343.91 24.20,345.20 23.72,346.49 23.19,347.55 22.66,348.60 22.31,349.42 21.97,350.24 21.49,351.11 21.01,351.97 20.57,352.44 20.14,352.90 19.32,353.81 18.50,354.72 17.93,355.47 17.35,356.22 15.01,356.19 12.66,356.16 12.62,356.07 12.57,355.97 12.55,355.87 12.54,355.76 12.56,355.66 12.58,355.55 12.63,355.46 12.68,355.37 12.76,355.30 12.84,355.22 12.94,355.18 13.03,355.14 13.14,355.13 13.24,355.12 13.35,355.15 13.45,355.17 13.54,355.23 13.63,355.28 13.70,355.37 13.76,355.45 13.80,355.55 13.84,355.65 13.84,355.75 13.85,355.86 13.82,355.96 13.78,356.06 13.72,356.15 13.66,356.24 13.58,356.30 13.49,356.36 13.39,356.39 13.29,356.43 13.18,356.42 13.07,356.42 12.97,356.39 12.88,356.35 12.79,356.28 12.71,356.22 12.65,356.13 12.59,356.04 12.57,355.94 12.54,355.83 12.55,355.73 12.56,355.62 12.60,355.52 12.64,355.43 12.71,355.35 12.78,355.27 12.87,355.21 12.97,355.16 13.07,355.14 13.17,355.12 13.28,355.13 13.38,355.15 13.48,355.19 13.58,355.24 13.65,355.32 13.73,355.39 13.73,355.39 13.73,355.39 14.90,354.71 16.07,354.04 16.84,353.27 17.61,352.51 18.24,351.61 18.86,350.72 19.29,349.99 19.72,349.27 20.10,348.38 20.49,347.50 20.97,346.57 21.45,345.65 21.94,344.32 22.43,342.98 22.84,342.03 23.25,341.08 23.58,339.59 23.91,338.09 24.31,336.75 24.70,335.40 24.94,334.19 25.17,332.97 25.39,331.04 25.61,329.10 25.76,327.63 25.91,326.16 25.92,324.60 25.94,323.04 25.96,321.40 25.98,319.77 26.04,317.96 26.10,316.16 26.24,314.03 26.37,311.91 26.34,309.86 26.31,307.82 26.23,306.05 26.15,304.28 25.96,302.07 25.78,299.87 25.69,297.82 25.61,295.77 25.41,293.88 25.22,291.99 25.10,289.69 24.99,287.40 24.72,284.96 24.45,282.52 24.16,279.85 23.88,277.19 23.56,274.96 23.25,272.73 22.83,270.46 22.42,268.18 22.18,265.96 21.93,263.74 21.71,261.57 21.49,259.39 21.33,257.32 21.16,255.26 21.14,253.54 21.11,251.82 21.05,249.81 20.99,247.81 20.83,246.03 20.68,244.24 20.68,242.19 20.68,240.14 20.68,238.37 20.68,236.60 20.68,234.48 20.68,232.35 20.68,230.40 20.68,228.44 20.69,226.90 20.69,225.35 20.71,223.75 20.72,222.15 20.75,220.42 20.79,218.69 20.86,216.64 20.93,214.59 21.09,212.95 21.25,211.31 21.28,209.35 21.32,207.39 21.40,205.85 21.49,204.30 21.67,202.84 21.85,201.38 21.94,199.83 22.03,198.28 22.23,196.82 22.43,195.35 22.56,193.79 22.70,192.24 23.01,190.75 23.31,189.26 23.68,187.79 24.05,186.32 24.54,185.01 25.03,183.71 25.47,182.71 25.90,181.71 26.53,180.45 27.16,179.20 27.56,178.35 27.97,177.51 28.37,176.18 28.76,174.85 29.18,174.14 29.60,173.43 29.97,172.58 30.35,171.74 30.79,170.95 31.23,170.16 31.88,168.91 32.53,167.65 32.77,166.99 33.00,166.33 33.32,165.71 33.65,165.10 33.68,164.27 33.72,163.44 33.17,162.68 32.63,161.91 32.21,161.47 31.79,161.03 31.27,159.70 30.74,158.36 30.36,157.87 29.99,157.37 29.56,156.93 29.14,156.49 28.67,155.67 28.21,154.84 27.92,154.12 27.64,153.39 27.32,152.69 27.00,151.99 26.51,151.19 26.02,150.39 25.64,149.68 25.27,148.96 24.56,148.05 23.85,147.13 23.34,146.13 22.83,145.13 22.40,143.96 21.97,142.78 21.66,142.05 21.36,141.31 20.92,140.42 20.48,139.52 20.21,138.63 19.94,137.73 19.68,136.66 19.41,135.58 19.16,134.16 18.90,132.74 18.65,131.39 18.40,130.03 18.16,127.94 17.93,125.85 17.72,123.99 17.52,122.13 17.36,120.75 17.20,119.37 17.17,117.28 17.14,115.19 17.08,113.30 17.02,111.42 16.87,108.96 16.73,106.50 16.73,103.84 16.73,101.18 16.73,98.99 16.73,96.80 16.72,94.69 16.72,92.58 16.70,90.67 16.68,88.76 16.65,87.32 16.62,85.88 16.54,84.39 16.46,82.91 16.61,81.70 16.75,80.50 16.76,78.56 16.77,76.61 16.78,75.09 16.79,73.57 16.82,72.02 16.84,70.47 16.91,68.87 16.98,67.26 17.12,65.62 17.27,63.97 17.27,62.03 17.27,60.09 17.27,58.58 17.27,57.07 17.27,55.55 17.27,54.03 17.27,52.50 17.27,50.96 17.27,49.37 17.27,47.79 17.27,46.09 17.27,44.39 17.27,42.43 17.27,40.48 17.27,38.92 17.27,37.37 17.26,35.74 17.26,34.11 17.25,32.32 17.24,30.52 17.24,28.34 17.23,26.16 17.19,24.07 17.15,21.98 17.05,20.14 16.96,18.29 16.73,16.88 16.49,15.47 16.30,14.17 16.10,12.88 16.00,11.95 15.90,11.02 15.66,9.78 15.42,8.54 15.18,7.57 14.95,6.60 14.82,5.58 14.69,4.56 14.24,3.80 13.79,3.03 13.50,2.39 13.21,1.75 12.42,0.83 11.63,-0.07 10.68,-0.44 9.73,-0.81 8.71,-0.33 7.69,0.15 6.25,0.18 4.81,0.21 4.00,0.41 3.19,0.61 2.62,1.40 2.04,2.18 1.77,2.98 1.50,3.77 1.10,4.60 0.70,5.43 0.66,5.51 0.62,5.59 0.56,5.66 0.50,5.73 0.43,5.78 0.36,5.83 0.28,5.87 0.19,5.90 0.10,5.91 0.02,5.93 -0.06,5.92 -0.15,5.91 -0.24,5.88 -0.32,5.85 -0.40,5.80 -0.47,5.76 -0.53,5.69 -0.59,5.63 -0.64,5.55 -0.68,5.47 -0.70,5.38 -0.73,5.30 -0.73,5.21 -0.73,5.12 -0.71,5.03 -0.70,4.94 -0.70,4.94 L -0.70,4.94 Z"></path></g><g transform="translate(-87.5634765625 213.45457805022681) rotate(270 109.0634765625 11.5)"><text x="0" y="16.900390625" font-family="Helvetica, Segoe UI Emoji" font-size="20px" fill="#1971c2" text-anchor="start" style="white-space: pre;" direction="ltr" dominant-baseline="alphabetic">window.window_height()</text></g><g stroke-linecap="round"><g transform="translate(102.13766037130796 225.09416244092603) rotate(0 298.27319701416525 0)"><path d="M0 0 C99.42 0, 497.12 0, 596.55 0 M0 0 C99.42 0, 497.12 0, 596.55 0" stroke="#e03131" stroke-width="0.5" fill="none"></path></g><g transform="translate(102.13766037130796 225.09416244092603) rotate(0 298.27319701416525 0)"><path d="M596.55 0 L582.95 6.34 L582.95 -6.34 L596.55 0" stroke="none" stroke-width="0" fill="#e03131" fill-rule="evenodd"></path><path d="M596.55 0 C593.22 1.55, 589.89 3.11, 582.95 6.34 M596.55 0 C591.47 2.37, 586.39 4.74, 582.95 6.34 M582.95 6.34 C582.95 3.59, 582.95 0.85, 582.95 -6.34 M582.95 6.34 C582.95 3.41, 582.95 0.48, 582.95 -6.34 M582.95 -6.34 C587.14 -4.39, 591.32 -2.44, 596.55 0 M582.95 -6.34 C587.85 -4.06, 592.74 -1.77, 596.55 0 M596.55 0 C596.55 0, 596.55 0, 596.55 0 M596.55 0 C596.55 0, 596.55 0, 596.55 0" stroke="#e03131" stroke-width="0.5" fill="none"></path></g></g><mask></mask><g stroke-linecap="round"><g transform="translate(411.6275330942658 407.00240148561085) rotate(0 0 -181.3817888360499)"><path d="M0 0 C0 -60.46, 0 -302.3, 0 -362.76 M0 0 C0 -60.46, 0 -302.3, 0 -362.76" stroke="#e03131" stroke-width="0.5" fill="none"></path></g><g transform="translate(411.6275330942658 407.00240148561085) rotate(0 0 -181.3817888360499)"><path d="M0 -362.76 L6.34 -349.17 L-6.34 -349.17 L0 -362.76" stroke="none" stroke-width="0" fill="#e03131" fill-rule="evenodd"></path><path d="M0 -362.76 C2.48 -357.46, 4.95 -352.15, 6.34 -349.17 M0 -362.76 C2.45 -357.51, 4.9 -352.26, 6.34 -349.17 M6.34 -349.17 C2.28 -349.17, -1.79 -349.17, -6.34 -349.17 M6.34 -349.17 C1.47 -349.17, -3.39 -349.17, -6.34 -349.17 M-6.34 -349.17 C-4.13 -353.91, -1.92 -358.65, 0 -362.76 M-6.34 -349.17 C-4.71 -352.66, -3.08 -356.15, 0 -362.76 M0 -362.76 C0 -362.76, 0 -362.76, 0 -362.76 M0 -362.76 C0 -362.76, 0 -362.76, 0 -362.76" stroke="#e03131" stroke-width="0.5" fill="none"></path></g></g><mask></mask><g stroke-opacity="0.5" fill-opacity="0.5" transform="translate(414.74965658588405 212.21594201518036) rotate(0 10.29693603515625 5.540075559932973)"><text x="0" y="8.14169052651155" font-family="Helvetica, Segoe UI Emoji" font-size="9.634914017274735px" fill="#e03131" text-anchor="start" style="white-space: pre;" direction="ltr" dominant-baseline="alphabetic">(0/0)</text></g><g transform="translate(209.8844372213358 391.11648139984624) rotate(0 99.41365814208984 6.365284273063519)"><text x="0" y="9.354416578603708" font-family="Helvetica, Segoe UI Emoji" font-size="11.070059605327861px" fill="#e03131" text-anchor="start" style="white-space: pre;" direction="ltr" dominant-baseline="alphabetic">BOTTOM = -window.window_height() / 2</text></g><g transform="translate(420.8064855177399 47.94308404416984) rotate(0 75.74562072753906 5.597593151183332)"><text x="0" y="8.226218331723741" font-family="Helvetica, Segoe UI Emoji" font-size="9.734944610753624px" fill="#e03131" text-anchor="start" style="white-space: pre;" direction="ltr" dominant-baseline="alphabetic">TOP = window.window_height() / 2</text></g><g transform="translate(102.45293981640225 227.57550296762827) rotate(0 77.17687225341797 5.616389879659465)"><text x="0" y="8.253841988568835" font-family="Helvetica, Segoe UI Emoji" font-size="9.767634573320798px" fill="#e03131" text-anchor="start" style="white-space: pre;" direction="ltr" dominant-baseline="alphabetic">LEFT = -window.window_width() / 2</text></g><g transform="translate(538.2780466349423 209.15290744328058) rotate(0 78.80194854736328 5.616389879659465)"><text x="0" y="8.253841988568835" font-family="Helvetica, Segoe UI Emoji" font-size="9.767634573320798px" fill="#e03131" text-anchor="start" style="white-space: pre;" direction="ltr" dominant-baseline="alphabetic">RIGHT = window.window_width() / 2</text></g><g transform="translate(456.67844204953053 359.4900681670459) rotate(0 97.4765625 9.2)"><text x="0" y="13.5203125" font-family="Helvetica, Segoe UI Emoji" font-size="16px" fill="#2f9e44" text-anchor="start" style="white-space: pre;" direction="ltr" dominant-baseline="alphabetic">GROUND = BOTTOM * 0.9</text></g><g stroke-linecap="round"><g transform="translate(430.4416213560231 382.13493209126295) rotate(0 152.23043247093452 0)"><path d="M0 0 C50.74 0, 253.72 0, 304.46 0 M0 0 C50.74 0, 253.72 0, 304.46 0" stroke="#2f9e44" stroke-width="4" fill="none"></path></g><g transform="translate(430.4416213560231 382.13493209126295) rotate(0 152.23043247093452 0)"><path d="M304.46 0 L290.87 6.34 L290.87 -6.34 L304.46 0" stroke="none" stroke-width="0" fill="#2f9e44" fill-rule="evenodd"></path><path d="M304.46 0 C299.46 2.33, 294.45 4.67, 290.87 6.34 M304.46 0 C300.44 1.87, 296.43 3.75, 290.87 6.34 M290.87 6.34 C290.87 3.15, 290.87 -0.03, 290.87 -6.34 M290.87 6.34 C290.87 3.5, 290.87 0.67, 290.87 -6.34 M290.87 -6.34 C293.61 -5.06, 296.36 -3.78, 304.46 0 M290.87 -6.34 C295.31 -4.27, 299.76 -2.19, 304.46 0 M304.46 0 C304.46 0, 304.46 0, 304.46 0 M304.46 0 C304.46 0, 304.46 0, 304.46 0" stroke="#2f9e44" stroke-width="4" fill="none"></path></g></g><mask></mask><g stroke-linecap="round"><g transform="translate(430.1899931149419 382.13493209126295) rotate(0 -199.15767116645026 0)"><path d="M0 0 C-66.39 0, -331.93 0, -398.32 0 M0 0 C-66.39 0, -331.93 0, -398.32 0" stroke="#2f9e44" stroke-width="4" fill="none"></path></g><g transform="translate(430.1899931149419 382.13493209126295) rotate(0 -199.15767116645026 0)"><path d="M-398.32 0 L-384.72 -6.34 L-384.72 6.34 L-398.32 0" stroke="none" stroke-width="0" fill="#2f9e44" fill-rule="evenodd"></path><path d="M-398.32 0 C-395.53 -1.3, -392.74 -2.6, -384.72 -6.34 M-398.32 0 C-395.31 -1.4, -392.3 -2.81, -384.72 -6.34 M-384.72 -6.34 C-384.72 -2.03, -384.72 2.28, -384.72 6.34 M-384.72 -6.34 C-384.72 -1.92, -384.72 2.49, -384.72 6.34 M-384.72 6.34 C-387.46 5.06, -390.2 3.79, -398.32 0 M-384.72 6.34 C-388.14 4.74, -391.57 3.15, -398.32 0 M-398.32 0 C-398.32 0, -398.32 0, -398.32 0 M-398.32 0 C-398.32 0, -398.32 0, -398.32 0" stroke="#2f9e44" stroke-width="4" fill="none"></path></g></g><mask></mask><g stroke-opacity="0.5" fill-opacity="0.5" stroke-linecap="round" transform="translate(409.6187172804889 223.6173745140912) rotate(0 1.7488446554752741 1.7488446554752812)"><path d="M3.5 1.75 C3.5 1.85, 3.49 1.95, 3.47 2.05 C3.45 2.15, 3.43 2.25, 3.39 2.35 C3.36 2.44, 3.31 2.54, 3.26 2.62 C3.21 2.71, 3.15 2.8, 3.09 2.87 C3.02 2.95, 2.95 3.02, 2.87 3.09 C2.8 3.15, 2.71 3.21, 2.62 3.26 C2.54 3.31, 2.44 3.36, 2.35 3.39 C2.25 3.43, 2.15 3.45, 2.05 3.47 C1.95 3.49, 1.85 3.5, 1.75 3.5 C1.65 3.5, 1.54 3.49, 1.45 3.47 C1.35 3.45, 1.25 3.43, 1.15 3.39 C1.06 3.36, 0.96 3.31, 0.87 3.26 C0.79 3.21, 0.7 3.15, 0.62 3.09 C0.55 3.02, 0.47 2.95, 0.41 2.87 C0.34 2.8, 0.28 2.71, 0.23 2.62 C0.18 2.54, 0.14 2.44, 0.11 2.35 C0.07 2.25, 0.04 2.15, 0.03 2.05 C0.01 1.95, 0 1.85, 0 1.75 C0 1.65, 0.01 1.54, 0.03 1.45 C0.04 1.35, 0.07 1.25, 0.11 1.15 C0.14 1.06, 0.18 0.96, 0.23 0.87 C0.28 0.79, 0.34 0.7, 0.41 0.62 C0.47 0.55, 0.55 0.47, 0.62 0.41 C0.7 0.34, 0.79 0.28, 0.87 0.23 C0.96 0.18, 1.06 0.14, 1.15 0.11 C1.25 0.07, 1.35 0.04, 1.45 0.03 C1.54 0.01, 1.65 0, 1.75 0 C1.85 0, 1.95 0.01, 2.05 0.03 C2.15 0.04, 2.25 0.07, 2.35 0.11 C2.44 0.14, 2.54 0.18, 2.62 0.23 C2.71 0.28, 2.8 0.34, 2.87 0.41 C2.95 0.47, 3.02 0.55, 3.09 0.62 C3.15 0.7, 3.21 0.79, 3.26 0.87 C3.31 0.96, 3.36 1.06, 3.39 1.15 C3.43 1.25, 3.45 1.35, 3.47 1.45 C3.49 1.54, 3.49 1.7, 3.5 1.75 C3.5 1.8, 3.5 1.7, 3.5 1.75" stroke="none" stroke-width="0" fill="#e03131"></path><path d="M3.5 1.75 C3.5 1.85, 3.49 1.95, 3.47 2.05 C3.45 2.15, 3.43 2.25, 3.39 2.35 C3.36 2.44, 3.31 2.54, 3.26 2.62 C3.21 2.71, 3.15 2.8, 3.09 2.87 C3.02 2.95, 2.95 3.02, 2.87 3.09 C2.8 3.15, 2.71 3.21, 2.62 3.26 C2.54 3.31, 2.44 3.36, 2.35 3.39 C2.25 3.43, 2.15 3.45, 2.05 3.47 C1.95 3.49, 1.85 3.5, 1.75 3.5 C1.65 3.5, 1.54 3.49, 1.45 3.47 C1.35 3.45, 1.25 3.43, 1.15 3.39 C1.06 3.36, 0.96 3.31, 0.87 3.26 C0.79 3.21, 0.7 3.15, 0.62 3.09 C0.55 3.02, 0.47 2.95, 0.41 2.87 C0.34 2.8, 0.28 2.71, 0.23 2.62 C0.18 2.54, 0.14 2.44, 0.11 2.35 C0.07 2.25, 0.04 2.15, 0.03 2.05 C0.01 1.95, 0 1.85, 0 1.75 C0 1.65, 0.01 1.54, 0.03 1.45 C0.04 1.35, 0.07 1.25, 0.11 1.15 C0.14 1.06, 0.18 0.96, 0.23 0.87 C0.28 0.79, 0.34 0.7, 0.41 0.62 C0.47 0.55, 0.55 0.47, 0.62 0.41 C0.7 0.34, 0.79 0.28, 0.87 0.23 C0.96 0.18, 1.06 0.14, 1.15 0.11 C1.25 0.07, 1.35 0.04, 1.45 0.03 C1.54 0.01, 1.65 0, 1.75 0 C1.85 0, 1.95 0.01, 2.05 0.03 C2.15 0.04, 2.25 0.07, 2.35 0.11 C2.44 0.14, 2.54 0.18, 2.62 0.23 C2.71 0.28, 2.8 0.34, 2.87 0.41 C2.95 0.47, 3.02 0.55, 3.09 0.62 C3.15 0.7, 3.21 0.79, 3.26 0.87 C3.31 0.96, 3.36 1.06, 3.39 1.15 C3.43 1.25, 3.45 1.35, 3.47 1.45 C3.49 1.54, 3.49 1.7, 3.5 1.75 C3.5 1.8, 3.5 1.7, 3.5 1.75" stroke="#e03131" stroke-width="4" fill="none"></path></g><g stroke-opacity="0.5" fill-opacity="0.5" transform="translate(543.8637667084441 143.03441930416204) rotate(0 21.0084228515625 5.540075559932973)"><text x="0" y="8.14169052651155" font-family="Helvetica, Segoe UI Emoji" font-size="9.634914017274735px" fill="#e03131" text-anchor="start" style="white-space: pre;" direction="ltr" dominant-baseline="alphabetic">(325/213)</text></g><g stroke-opacity="0.5" fill-opacity="0.5" stroke-linecap="round" transform="translate(538.732827403049 154.43585180307286) rotate(0 1.7488446554752741 1.748844655475267)"><path d="M3.5 1.75 C3.5 1.85, 3.49 1.95, 3.47 2.05 C3.45 2.15, 3.43 2.25, 3.39 2.35 C3.36 2.44, 3.31 2.54, 3.26 2.62 C3.21 2.71, 3.15 2.8, 3.09 2.87 C3.02 2.95, 2.95 3.02, 2.87 3.09 C2.8 3.15, 2.71 3.21, 2.62 3.26 C2.54 3.31, 2.44 3.36, 2.35 3.39 C2.25 3.43, 2.15 3.45, 2.05 3.47 C1.95 3.49, 1.85 3.5, 1.75 3.5 C1.65 3.5, 1.54 3.49, 1.45 3.47 C1.35 3.45, 1.25 3.43, 1.15 3.39 C1.06 3.36, 0.96 3.31, 0.87 3.26 C0.79 3.21, 0.7 3.15, 0.62 3.09 C0.55 3.02, 0.47 2.95, 0.41 2.87 C0.34 2.8, 0.28 2.71, 0.23 2.62 C0.18 2.54, 0.14 2.44, 0.11 2.35 C0.07 2.25, 0.04 2.15, 0.03 2.05 C0.01 1.95, 0 1.85, 0 1.75 C0 1.65, 0.01 1.54, 0.03 1.45 C0.04 1.35, 0.07 1.25, 0.11 1.15 C0.14 1.06, 0.18 0.96, 0.23 0.87 C0.28 0.79, 0.34 0.7, 0.41 0.62 C0.47 0.55, 0.55 0.47, 0.62 0.41 C0.7 0.34, 0.79 0.28, 0.87 0.23 C0.96 0.18, 1.06 0.14, 1.15 0.11 C1.25 0.07, 1.35 0.04, 1.45 0.03 C1.54 0.01, 1.65 0, 1.75 0 C1.85 0, 1.95 0.01, 2.05 0.03 C2.15 0.04, 2.25 0.07, 2.35 0.11 C2.44 0.14, 2.54 0.18, 2.62 0.23 C2.71 0.28, 2.8 0.34, 2.87 0.41 C2.95 0.47, 3.02 0.55, 3.09 0.62 C3.15 0.7, 3.21 0.79, 3.26 0.87 C3.31 0.96, 3.36 1.06, 3.39 1.15 C3.43 1.25, 3.45 1.35, 3.47 1.45 C3.49 1.54, 3.49 1.7, 3.5 1.75 C3.5 1.8, 3.5 1.7, 3.5 1.75" stroke="none" stroke-width="0" fill="#e03131"></path><path d="M3.5 1.75 C3.5 1.85, 3.49 1.95, 3.47 2.05 C3.45 2.15, 3.43 2.25, 3.39 2.35 C3.36 2.44, 3.31 2.54, 3.26 2.62 C3.21 2.71, 3.15 2.8, 3.09 2.87 C3.02 2.95, 2.95 3.02, 2.87 3.09 C2.8 3.15, 2.71 3.21, 2.62 3.26 C2.54 3.31, 2.44 3.36, 2.35 3.39 C2.25 3.43, 2.15 3.45, 2.05 3.47 C1.95 3.49, 1.85 3.5, 1.75 3.5 C1.65 3.5, 1.54 3.49, 1.45 3.47 C1.35 3.45, 1.25 3.43, 1.15 3.39 C1.06 3.36, 0.96 3.31, 0.87 3.26 C0.79 3.21, 0.7 3.15, 0.62 3.09 C0.55 3.02, 0.47 2.95, 0.41 2.87 C0.34 2.8, 0.28 2.71, 0.23 2.62 C0.18 2.54, 0.14 2.44, 0.11 2.35 C0.07 2.25, 0.04 2.15, 0.03 2.05 C0.01 1.95, 0 1.85, 0 1.75 C0 1.65, 0.01 1.54, 0.03 1.45 C0.04 1.35, 0.07 1.25, 0.11 1.15 C0.14 1.06, 0.18 0.96, 0.23 0.87 C0.28 0.79, 0.34 0.7, 0.41 0.62 C0.47 0.55, 0.55 0.47, 0.62 0.41 C0.7 0.34, 0.79 0.28, 0.87 0.23 C0.96 0.18, 1.06 0.14, 1.15 0.11 C1.25 0.07, 1.35 0.04, 1.45 0.03 C1.54 0.01, 1.65 0, 1.75 0 C1.85 0, 1.95 0.01, 2.05 0.03 C2.15 0.04, 2.25 0.07, 2.35 0.11 C2.44 0.14, 2.54 0.18, 2.62 0.23 C2.71 0.28, 2.8 0.34, 2.87 0.41 C2.95 0.47, 3.02 0.55, 3.09 0.62 C3.15 0.7, 3.21 0.79, 3.26 0.87 C3.31 0.96, 3.36 1.06, 3.39 1.15 C3.43 1.25, 3.45 1.35, 3.47 1.45 C3.49 1.54, 3.49 1.7, 3.5 1.75 C3.5 1.8, 3.5 1.7, 3.5 1.75" stroke="#e03131" stroke-width="4" fill="none"></path></g><g stroke-opacity="0.5" fill-opacity="0.5" transform="translate(488.9197844390462 232.47883777879144) rotate(0 19.933982849121094 5.540075559932973)"><text x="0" y="8.14169052651155" font-family="Helvetica, Segoe UI Emoji" font-size="9.634914017274735px" fill="#e03131" text-anchor="start" style="white-space: pre;" direction="ltr" dominant-baseline="alphabetic">(164/-58)</text></g><g stroke-opacity="0.5" fill-opacity="0.5" stroke-linecap="round" transform="translate(483.7888451336511 243.88027027770227) rotate(0 1.7488446554752741 1.748844655475267)"><path d="M3.5 1.75 C3.5 1.85, 3.49 1.95, 3.47 2.05 C3.45 2.15, 3.43 2.25, 3.39 2.35 C3.36 2.44, 3.31 2.54, 3.26 2.62 C3.21 2.71, 3.15 2.8, 3.09 2.87 C3.02 2.95, 2.95 3.02, 2.87 3.09 C2.8 3.15, 2.71 3.21, 2.62 3.26 C2.54 3.31, 2.44 3.36, 2.35 3.39 C2.25 3.43, 2.15 3.45, 2.05 3.47 C1.95 3.49, 1.85 3.5, 1.75 3.5 C1.65 3.5, 1.54 3.49, 1.45 3.47 C1.35 3.45, 1.25 3.43, 1.15 3.39 C1.06 3.36, 0.96 3.31, 0.87 3.26 C0.79 3.21, 0.7 3.15, 0.62 3.09 C0.55 3.02, 0.47 2.95, 0.41 2.87 C0.34 2.8, 0.28 2.71, 0.23 2.62 C0.18 2.54, 0.14 2.44, 0.11 2.35 C0.07 2.25, 0.04 2.15, 0.03 2.05 C0.01 1.95, 0 1.85, 0 1.75 C0 1.65, 0.01 1.54, 0.03 1.45 C0.04 1.35, 0.07 1.25, 0.11 1.15 C0.14 1.06, 0.18 0.96, 0.23 0.87 C0.28 0.79, 0.34 0.7, 0.41 0.62 C0.47 0.55, 0.55 0.47, 0.62 0.41 C0.7 0.34, 0.79 0.28, 0.87 0.23 C0.96 0.18, 1.06 0.14, 1.15 0.11 C1.25 0.07, 1.35 0.04, 1.45 0.03 C1.54 0.01, 1.65 0, 1.75 0 C1.85 0, 1.95 0.01, 2.05 0.03 C2.15 0.04, 2.25 0.07, 2.35 0.11 C2.44 0.14, 2.54 0.18, 2.62 0.23 C2.71 0.28, 2.8 0.34, 2.87 0.41 C2.95 0.47, 3.02 0.55, 3.09 0.62 C3.15 0.7, 3.21 0.79, 3.26 0.87 C3.31 0.96, 3.36 1.06, 3.39 1.15 C3.43 1.25, 3.45 1.35, 3.47 1.45 C3.49 1.54, 3.49 1.7, 3.5 1.75 C3.5 1.8, 3.5 1.7, 3.5 1.75" stroke="none" stroke-width="0" fill="#e03131"></path><path d="M3.5 1.75 C3.5 1.85, 3.49 1.95, 3.47 2.05 C3.45 2.15, 3.43 2.25, 3.39 2.35 C3.36 2.44, 3.31 2.54, 3.26 2.62 C3.21 2.71, 3.15 2.8, 3.09 2.87 C3.02 2.95, 2.95 3.02, 2.87 3.09 C2.8 3.15, 2.71 3.21, 2.62 3.26 C2.54 3.31, 2.44 3.36, 2.35 3.39 C2.25 3.43, 2.15 3.45, 2.05 3.47 C1.95 3.49, 1.85 3.5, 1.75 3.5 C1.65 3.5, 1.54 3.49, 1.45 3.47 C1.35 3.45, 1.25 3.43, 1.15 3.39 C1.06 3.36, 0.96 3.31, 0.87 3.26 C0.79 3.21, 0.7 3.15, 0.62 3.09 C0.55 3.02, 0.47 2.95, 0.41 2.87 C0.34 2.8, 0.28 2.71, 0.23 2.62 C0.18 2.54, 0.14 2.44, 0.11 2.35 C0.07 2.25, 0.04 2.15, 0.03 2.05 C0.01 1.95, 0 1.85, 0 1.75 C0 1.65, 0.01 1.54, 0.03 1.45 C0.04 1.35, 0.07 1.25, 0.11 1.15 C0.14 1.06, 0.18 0.96, 0.23 0.87 C0.28 0.79, 0.34 0.7, 0.41 0.62 C0.47 0.55, 0.55 0.47, 0.62 0.41 C0.7 0.34, 0.79 0.28, 0.87 0.23 C0.96 0.18, 1.06 0.14, 1.15 0.11 C1.25 0.07, 1.35 0.04, 1.45 0.03 C1.54 0.01, 1.65 0, 1.75 0 C1.85 0, 1.95 0.01, 2.05 0.03 C2.15 0.04, 2.25 0.07, 2.35 0.11 C2.44 0.14, 2.54 0.18, 2.62 0.23 C2.71 0.28, 2.8 0.34, 2.87 0.41 C2.95 0.47, 3.02 0.55, 3.09 0.62 C3.15 0.7, 3.21 0.79, 3.26 0.87 C3.31 0.96, 3.36 1.06, 3.39 1.15 C3.43 1.25, 3.45 1.35, 3.47 1.45 C3.49 1.54, 3.49 1.7, 3.5 1.75 C3.5 1.8, 3.5 1.7, 3.5 1.75" stroke="#e03131" stroke-width="4" fill="none"></path></g><g stroke-opacity="0.5" fill-opacity="0.5" transform="translate(314.80391401130146 125.44615203920995) rotate(0 22.611854553222656 5.540075559932973)"><text x="0" y="8.14169052651155" font-family="Helvetica, Segoe UI Emoji" font-size="9.634914017274735px" fill="#e03131" text-anchor="start" style="white-space: pre;" direction="ltr" dominant-baseline="alphabetic">(253/-253)</text></g><g stroke-opacity="0.5" fill-opacity="0.5" stroke-linecap="round" transform="translate(309.6729747059063 136.84758453812077) rotate(0 1.7488446554752812 1.748844655475267)"><path d="M3.5 1.75 C3.5 1.85, 3.49 1.95, 3.47 2.05 C3.45 2.15, 3.43 2.25, 3.39 2.35 C3.36 2.44, 3.31 2.54, 3.26 2.62 C3.21 2.71, 3.15 2.8, 3.09 2.87 C3.02 2.95, 2.95 3.02, 2.87 3.09 C2.8 3.15, 2.71 3.21, 2.62 3.26 C2.54 3.31, 2.44 3.36, 2.35 3.39 C2.25 3.43, 2.15 3.45, 2.05 3.47 C1.95 3.49, 1.85 3.5, 1.75 3.5 C1.65 3.5, 1.54 3.49, 1.45 3.47 C1.35 3.45, 1.25 3.43, 1.15 3.39 C1.06 3.36, 0.96 3.31, 0.87 3.26 C0.79 3.21, 0.7 3.15, 0.62 3.09 C0.55 3.02, 0.47 2.95, 0.41 2.87 C0.34 2.8, 0.28 2.71, 0.23 2.62 C0.18 2.54, 0.14 2.44, 0.11 2.35 C0.07 2.25, 0.04 2.15, 0.03 2.05 C0.01 1.95, 0 1.85, 0 1.75 C0 1.65, 0.01 1.54, 0.03 1.45 C0.04 1.35, 0.07 1.25, 0.11 1.15 C0.14 1.06, 0.18 0.96, 0.23 0.87 C0.28 0.79, 0.34 0.7, 0.41 0.62 C0.47 0.55, 0.55 0.47, 0.62 0.41 C0.7 0.34, 0.79 0.28, 0.87 0.23 C0.96 0.18, 1.06 0.14, 1.15 0.11 C1.25 0.07, 1.35 0.04, 1.45 0.03 C1.54 0.01, 1.65 0, 1.75 0 C1.85 0, 1.95 0.01, 2.05 0.03 C2.15 0.04, 2.25 0.07, 2.35 0.11 C2.44 0.14, 2.54 0.18, 2.62 0.23 C2.71 0.28, 2.8 0.34, 2.87 0.41 C2.95 0.47, 3.02 0.55, 3.09 0.62 C3.15 0.7, 3.21 0.79, 3.26 0.87 C3.31 0.96, 3.36 1.06, 3.39 1.15 C3.43 1.25, 3.45 1.35, 3.47 1.45 C3.49 1.54, 3.49 1.7, 3.5 1.75 C3.5 1.8, 3.5 1.7, 3.5 1.75" stroke="none" stroke-width="0" fill="#e03131"></path><path d="M3.5 1.75 C3.5 1.85, 3.49 1.95, 3.47 2.05 C3.45 2.15, 3.43 2.25, 3.39 2.35 C3.36 2.44, 3.31 2.54, 3.26 2.62 C3.21 2.71, 3.15 2.8, 3.09 2.87 C3.02 2.95, 2.95 3.02, 2.87 3.09 C2.8 3.15, 2.71 3.21, 2.62 3.26 C2.54 3.31, 2.44 3.36, 2.35 3.39 C2.25 3.43, 2.15 3.45, 2.05 3.47 C1.95 3.49, 1.85 3.5, 1.75 3.5 C1.65 3.5, 1.54 3.49, 1.45 3.47 C1.35 3.45, 1.25 3.43, 1.15 3.39 C1.06 3.36, 0.96 3.31, 0.87 3.26 C0.79 3.21, 0.7 3.15, 0.62 3.09 C0.55 3.02, 0.47 2.95, 0.41 2.87 C0.34 2.8, 0.28 2.71, 0.23 2.62 C0.18 2.54, 0.14 2.44, 0.11 2.35 C0.07 2.25, 0.04 2.15, 0.03 2.05 C0.01 1.95, 0 1.85, 0 1.75 C0 1.65, 0.01 1.54, 0.03 1.45 C0.04 1.35, 0.07 1.25, 0.11 1.15 C0.14 1.06, 0.18 0.96, 0.23 0.87 C0.28 0.79, 0.34 0.7, 0.41 0.62 C0.47 0.55, 0.55 0.47, 0.62 0.41 C0.7 0.34, 0.79 0.28, 0.87 0.23 C0.96 0.18, 1.06 0.14, 1.15 0.11 C1.25 0.07, 1.35 0.04, 1.45 0.03 C1.54 0.01, 1.65 0, 1.75 0 C1.85 0, 1.95 0.01, 2.05 0.03 C2.15 0.04, 2.25 0.07, 2.35 0.11 C2.44 0.14, 2.54 0.18, 2.62 0.23 C2.71 0.28, 2.8 0.34, 2.87 0.41 C2.95 0.47, 3.02 0.55, 3.09 0.62 C3.15 0.7, 3.21 0.79, 3.26 0.87 C3.31 0.96, 3.36 1.06, 3.39 1.15 C3.43 1.25, 3.45 1.35, 3.47 1.45 C3.49 1.54, 3.49 1.7, 3.5 1.75 C3.5 1.8, 3.5 1.7, 3.5 1.75" stroke="#e03131" stroke-width="4" fill="none"></path></g><g stroke-opacity="0.5" fill-opacity="0.5" transform="translate(203.22736505525825 311.2387329372541) rotate(0 24.215286254882812 5.540075559932973)"><text x="0" y="8.14169052651155" font-family="Helvetica, Segoe UI Emoji" font-size="9.634914017274735px" fill="#e03131" text-anchor="start" style="white-space: pre;" direction="ltr" dominant-baseline="alphabetic">(-564/-348)</text></g><g stroke-opacity="0.5" fill-opacity="0.5" stroke-linecap="round" transform="translate(198.0964257498631 322.6401654361649) rotate(0 1.748844655475267 1.7488446554752741)"><path d="M3.5 1.75 C3.5 1.85, 3.49 1.95, 3.47 2.05 C3.45 2.15, 3.43 2.25, 3.39 2.35 C3.36 2.44, 3.31 2.54, 3.26 2.62 C3.21 2.71, 3.15 2.8, 3.09 2.87 C3.02 2.95, 2.95 3.02, 2.87 3.09 C2.8 3.15, 2.71 3.21, 2.62 3.26 C2.54 3.31, 2.44 3.36, 2.35 3.39 C2.25 3.43, 2.15 3.45, 2.05 3.47 C1.95 3.49, 1.85 3.5, 1.75 3.5 C1.65 3.5, 1.54 3.49, 1.45 3.47 C1.35 3.45, 1.25 3.43, 1.15 3.39 C1.06 3.36, 0.96 3.31, 0.87 3.26 C0.79 3.21, 0.7 3.15, 0.62 3.09 C0.55 3.02, 0.47 2.95, 0.41 2.87 C0.34 2.8, 0.28 2.71, 0.23 2.62 C0.18 2.54, 0.14 2.44, 0.11 2.35 C0.07 2.25, 0.04 2.15, 0.03 2.05 C0.01 1.95, 0 1.85, 0 1.75 C0 1.65, 0.01 1.54, 0.03 1.45 C0.04 1.35, 0.07 1.25, 0.11 1.15 C0.14 1.06, 0.18 0.96, 0.23 0.87 C0.28 0.79, 0.34 0.7, 0.41 0.62 C0.47 0.55, 0.55 0.47, 0.62 0.41 C0.7 0.34, 0.79 0.28, 0.87 0.23 C0.96 0.18, 1.06 0.14, 1.15 0.11 C1.25 0.07, 1.35 0.04, 1.45 0.03 C1.54 0.01, 1.65 0, 1.75 0 C1.85 0, 1.95 0.01, 2.05 0.03 C2.15 0.04, 2.25 0.07, 2.35 0.11 C2.44 0.14, 2.54 0.18, 2.62 0.23 C2.71 0.28, 2.8 0.34, 2.87 0.41 C2.95 0.47, 3.02 0.55, 3.09 0.62 C3.15 0.7, 3.21 0.79, 3.26 0.87 C3.31 0.96, 3.36 1.06, 3.39 1.15 C3.43 1.25, 3.45 1.35, 3.47 1.45 C3.49 1.54, 3.49 1.7, 3.5 1.75 C3.5 1.8, 3.5 1.7, 3.5 1.75" stroke="none" stroke-width="0" fill="#e03131"></path><path d="M3.5 1.75 C3.5 1.85, 3.49 1.95, 3.47 2.05 C3.45 2.15, 3.43 2.25, 3.39 2.35 C3.36 2.44, 3.31 2.54, 3.26 2.62 C3.21 2.71, 3.15 2.8, 3.09 2.87 C3.02 2.95, 2.95 3.02, 2.87 3.09 C2.8 3.15, 2.71 3.21, 2.62 3.26 C2.54 3.31, 2.44 3.36, 2.35 3.39 C2.25 3.43, 2.15 3.45, 2.05 3.47 C1.95 3.49, 1.85 3.5, 1.75 3.5 C1.65 3.5, 1.54 3.49, 1.45 3.47 C1.35 3.45, 1.25 3.43, 1.15 3.39 C1.06 3.36, 0.96 3.31, 0.87 3.26 C0.79 3.21, 0.7 3.15, 0.62 3.09 C0.55 3.02, 0.47 2.95, 0.41 2.87 C0.34 2.8, 0.28 2.71, 0.23 2.62 C0.18 2.54, 0.14 2.44, 0.11 2.35 C0.07 2.25, 0.04 2.15, 0.03 2.05 C0.01 1.95, 0 1.85, 0 1.75 C0 1.65, 0.01 1.54, 0.03 1.45 C0.04 1.35, 0.07 1.25, 0.11 1.15 C0.14 1.06, 0.18 0.96, 0.23 0.87 C0.28 0.79, 0.34 0.7, 0.41 0.62 C0.47 0.55, 0.55 0.47, 0.62 0.41 C0.7 0.34, 0.79 0.28, 0.87 0.23 C0.96 0.18, 1.06 0.14, 1.15 0.11 C1.25 0.07, 1.35 0.04, 1.45 0.03 C1.54 0.01, 1.65 0, 1.75 0 C1.85 0, 1.95 0.01, 2.05 0.03 C2.15 0.04, 2.25 0.07, 2.35 0.11 C2.44 0.14, 2.54 0.18, 2.62 0.23 C2.71 0.28, 2.8 0.34, 2.87 0.41 C2.95 0.47, 3.02 0.55, 3.09 0.62 C3.15 0.7, 3.21 0.79, 3.26 0.87 C3.31 0.96, 3.36 1.06, 3.39 1.15 C3.43 1.25, 3.45 1.35, 3.47 1.45 C3.49 1.54, 3.49 1.7, 3.5 1.75 C3.5 1.8, 3.5 1.7, 3.5 1.75" stroke="#e03131" stroke-width="4" fill="none"></path></g><g stroke-opacity="0.5" fill-opacity="0.5" transform="translate(153.60954387822056 87.81056874802056) rotate(0 62.136474609375 5.540075559932973)"><text x="0" y="8.14169052651155" font-family="Helvetica, Segoe UI Emoji" font-size="9.634914017274735px" fill="#e03131" text-anchor="start" style="white-space: pre;" direction="ltr" dominant-baseline="alphabetic">Punkte mit (x/y) als Beispiele</text></g></svg>