<svg version="1.1" xmlns="http://www.w3.org/2000/svg" viewBox="0 0 1037.3333129882812 524.6666870117188" width="1037.3333129882812" height="524.6666870117188" filter="invert(93%) hue-rotate(180deg)" class="excalidraw-svg">
  <!-- svg-source:excalidraw -->
  
  <defs>
    <style class="style-fonts">
      
    </style>
    
  </defs>
  <g stroke-linecap="round" transform="translate(499.33331298828125 408.6666259765625) rotate(0 78.33334350585938 32.333343505859375)"><path d="M16.17 0 C61.99 0, 107.81 0, 140.5 0 M16.17 0 C47.66 0, 79.15 0, 140.5 0 M140.5 0 C151.28 0, 156.67 5.39, 156.67 16.17 M140.5 0 C151.28 0, 156.67 5.39, 156.67 16.17 M156.67 16.17 C156.67 28.01, 156.67 39.85, 156.67 48.5 M156.67 16.17 C156.67 25, 156.67 33.83, 156.67 48.5 M156.67 48.5 C156.67 59.28, 151.28 64.67, 140.5 64.67 M156.67 48.5 C156.67 59.28, 151.28 64.67, 140.5 64.67 M140.5 64.67 C92.89 64.67, 45.28 64.67, 16.17 64.67 M140.5 64.67 C112.85 64.67, 85.2 64.67, 16.17 64.67 M16.17 64.67 C5.39 64.67, 0 59.28, 0 48.5 M16.17 64.67 C5.39 64.67, 0 59.28, 0 48.5 M0 48.5 C0 36.47, 0 24.43, 0 16.17 M0 48.5 C0 37.6, 0 26.7, 0 16.17 M0 16.17 C0 5.39, 5.39 0, 16.17 0 M0 16.17 C0 5.39, 5.39 0, 16.17 0" stroke="#1e1e1e" stroke-width="2" fill="none"></path></g><g transform="translate(526.6109924316406 429.4999694824219) rotate(0 51.0556640625 11.5)"><text x="51.0556640625" y="16.900390625" font-family="Helvetica, Segoe UI Emoji" font-size="20px" fill="#1e1e1e" text-anchor="middle" style="white-space: pre;" direction="ltr" dominant-baseline="alphabetic">Raumschiff</text></g><g stroke-linecap="round" transform="translate(670.9999694824219 251.66665649414062) rotate(0 78.33334350585938 32.333343505859375)"><path d="M16.17 0 C61.62 0, 107.08 0, 140.5 0 M16.17 0 C49.1 0, 82.03 0, 140.5 0 M140.5 0 C151.28 0, 156.67 5.39, 156.67 16.17 M140.5 0 C151.28 0, 156.67 5.39, 156.67 16.17 M156.67 16.17 C156.67 24.59, 156.67 33.02, 156.67 48.5 M156.67 16.17 C156.67 23.46, 156.67 30.75, 156.67 48.5 M156.67 48.5 C156.67 59.28, 151.28 64.67, 140.5 64.67 M156.67 48.5 C156.67 59.28, 151.28 64.67, 140.5 64.67 M140.5 64.67 C113.74 64.67, 86.97 64.67, 16.17 64.67 M140.5 64.67 C105.74 64.67, 70.99 64.67, 16.17 64.67 M16.17 64.67 C5.39 64.67, 0 59.28, 0 48.5 M16.17 64.67 C5.39 64.67, 0 59.28, 0 48.5 M0 48.5 C0 39.6, 0 30.71, 0 16.17 M0 48.5 C0 38.99, 0 29.49, 0 16.17 M0 16.17 C0 5.39, 5.39 0, 16.17 0 M0 16.17 C0 5.39, 5.39 0, 16.17 0" stroke="#1e1e1e" stroke-width="2" fill="none"></path></g><g transform="translate(723.1487426757812 272.5) rotate(0 26.1845703125 11.5)"><text x="26.1845703125" y="16.900390625" font-family="Helvetica, Segoe UI Emoji" font-size="20px" fill="#1e1e1e" text-anchor="middle" style="white-space: pre;" direction="ltr" dominant-baseline="alphabetic">Laser</text></g><g stroke-linecap="round" transform="translate(283.6666564941406 150.33334350585938) rotate(0 78.33334350585938 32.333343505859375)"><path d="M16.17 0 C47.67 0, 79.17 0, 140.5 0 M16.17 0 C58.24 0, 100.32 0, 140.5 0 M140.5 0 C151.28 0, 156.67 5.39, 156.67 16.17 M140.5 0 C151.28 0, 156.67 5.39, 156.67 16.17 M156.67 16.17 C156.67 23.78, 156.67 31.38, 156.67 48.5 M156.67 16.17 C156.67 24.13, 156.67 32.09, 156.67 48.5 M156.67 48.5 C156.67 59.28, 151.28 64.67, 140.5 64.67 M156.67 48.5 C156.67 59.28, 151.28 64.67, 140.5 64.67 M140.5 64.67 C101.15 64.67, 61.79 64.67, 16.17 64.67 M140.5 64.67 C100.16 64.67, 59.83 64.67, 16.17 64.67 M16.17 64.67 C5.39 64.67, 0 59.28, 0 48.5 M16.17 64.67 C5.39 64.67, 0 59.28, 0 48.5 M0 48.5 C0 40.38, 0 32.26, 0 16.17 M0 48.5 C0 38.13, 0 27.77, 0 16.17 M0 16.17 C0 5.39, 5.39 0, 16.17 0 M0 16.17 C0 5.39, 5.39 0, 16.17 0" stroke="#1e1e1e" stroke-width="2" fill="none"></path></g><g transform="translate(295.125 171.16668701171875) rotate(0 66.875 11.5)"><text x="66.875" y="16.900390625" font-family="Helvetica, Segoe UI Emoji" font-size="20px" fill="#1e1e1e" text-anchor="middle" style="white-space: pre;" direction="ltr" dominant-baseline="alphabetic">Turtle-Invaders</text></g><g stroke-linecap="round" transform="translate(216.33340454101562 345.6666564941406) rotate(0 78.33334350585938 32.333343505859375)"><path d="M16.17 0 C41.33 0, 66.49 0, 140.5 0 M16.17 0 C59.4 0, 102.64 0, 140.5 0 M140.5 0 C151.28 0, 156.67 5.39, 156.67 16.17 M140.5 0 C151.28 0, 156.67 5.39, 156.67 16.17 M156.67 16.17 C156.67 23.18, 156.67 30.2, 156.67 48.5 M156.67 16.17 C156.67 27.02, 156.67 37.87, 156.67 48.5 M156.67 48.5 C156.67 59.28, 151.28 64.67, 140.5 64.67 M156.67 48.5 C156.67 59.28, 151.28 64.67, 140.5 64.67 M140.5 64.67 C113.4 64.67, 86.29 64.67, 16.17 64.67 M140.5 64.67 C92.38 64.67, 44.27 64.67, 16.17 64.67 M16.17 64.67 C5.39 64.67, 0 59.28, 0 48.5 M16.17 64.67 C5.39 64.67, 0 59.28, 0 48.5 M0 48.5 C0 36.58, 0 24.67, 0 16.17 M0 48.5 C0 37.33, 0 26.16, 0 16.17 M0 16.17 C0 5.39, 5.39 0, 16.17 0 M0 16.17 C0 5.39, 5.39 0, 16.17 0" stroke="#1e1e1e" stroke-width="2" fill="none"></path></g><g transform="translate(259.595458984375 366.5) rotate(0 35.0712890625 11.5)"><text x="35.0712890625" y="16.900390625" font-family="Helvetica, Segoe UI Emoji" font-size="20px" fill="#1e1e1e" text-anchor="middle" style="white-space: pre;" direction="ltr" dominant-baseline="alphabetic">Fenster</text></g><g stroke-linecap="round" transform="translate(572.9999694824219 72.33334350585938) rotate(0 78.33334350585938 32.333343505859375)"><path d="M16.17 0 C59.31 0, 102.45 0, 140.5 0 M16.17 0 C48.71 0, 81.25 0, 140.5 0 M140.5 0 C151.28 0, 156.67 5.39, 156.67 16.17 M140.5 0 C151.28 0, 156.67 5.39, 156.67 16.17 M156.67 16.17 C156.67 28.5, 156.67 40.83, 156.67 48.5 M156.67 16.17 C156.67 24.28, 156.67 32.39, 156.67 48.5 M156.67 48.5 C156.67 59.28, 151.28 64.67, 140.5 64.67 M156.67 48.5 C156.67 59.28, 151.28 64.67, 140.5 64.67 M140.5 64.67 C99.99 64.67, 59.48 64.67, 16.17 64.67 M140.5 64.67 C108.1 64.67, 75.7 64.67, 16.17 64.67 M16.17 64.67 C5.39 64.67, 0 59.28, 0 48.5 M16.17 64.67 C5.39 64.67, 0 59.28, 0 48.5 M0 48.5 C0 41.99, 0 35.48, 0 16.17 M0 48.5 C0 41.3, 0 34.09, 0 16.17 M0 16.17 C0 5.39, 5.39 0, 16.17 0 M0 16.17 C0 5.39, 5.39 0, 16.17 0" stroke="#1e1e1e" stroke-width="2" fill="none"></path></g><g transform="translate(590.2942504882812 93.16668701171875) rotate(0 61.0390625 11.5)"><text x="61.0390625" y="16.900390625" font-family="Helvetica, Segoe UI Emoji" font-size="20px" fill="#1e1e1e" text-anchor="middle" style="white-space: pre;" direction="ltr" dominant-baseline="alphabetic">Punktanzeige</text></g><g stroke-linecap="round" transform="translate(10 10) rotate(0 508.6666564941406 252.33334350585938)"><path d="M32 0 C295.04 0, 558.08 0, 985.33 0 M32 0 C387.7 0, 743.4 0, 985.33 0 M985.33 0 C1006.67 0, 1017.33 10.67, 1017.33 32 M985.33 0 C1006.67 0, 1017.33 10.67, 1017.33 32 M1017.33 32 C1017.33 157.14, 1017.33 282.27, 1017.33 472.67 M1017.33 32 C1017.33 182.77, 1017.33 333.55, 1017.33 472.67 M1017.33 472.67 C1017.33 494, 1006.67 504.67, 985.33 504.67 M1017.33 472.67 C1017.33 494, 1006.67 504.67, 985.33 504.67 M985.33 504.67 C636.04 504.67, 286.75 504.67, 32 504.67 M985.33 504.67 C776.85 504.67, 568.37 504.67, 32 504.67 M32 504.67 C10.67 504.67, 0 494, 0 472.67 M32 504.67 C10.67 504.67, 0 494, 0 472.67 M0 472.67 C0 338.15, 0 203.64, 0 32 M0 472.67 C0 329.23, 0 185.8, 0 32 M0 32 C0 10.67, 10.67 0, 32 0 M0 32 C0 10.67, 10.67 0, 32 0" stroke="#1971c2" stroke-width="2" fill="none"></path></g><g stroke-linecap="round"><g transform="translate(494.78177882181706 431.05893837708993) rotate(0 -60.39084363454133 -23.41687443091851)"><path d="M0 0 C-20.13 -7.81, -100.65 -39.03, -120.78 -46.83 M0 0 C-20.13 -7.81, -100.65 -39.03, -120.78 -46.83" stroke="#1971c2" stroke-width="2" fill="none"></path></g><g transform="translate(494.78177882181706 431.05893837708993) rotate(0 -60.39084363454133 -23.41687443091851)"><path d="M-95.79 -46.31 C-103.56 -46.47, -111.32 -46.64, -120.78 -46.83 M-95.79 -46.31 C-104.78 -46.5, -113.78 -46.69, -120.78 -46.83" stroke="#1971c2" stroke-width="2" fill="none"></path></g><g transform="translate(494.78177882181706 431.05893837708993) rotate(0 -60.39084363454133 -23.41687443091851)"><path d="M-101.97 -30.37 C-107.82 -35.49, -113.66 -40.6, -120.78 -46.83 M-101.97 -30.37 C-108.74 -36.29, -115.51 -42.22, -120.78 -46.83" stroke="#1971c2" stroke-width="2" fill="none"></path></g></g><mask></mask><g stroke-linecap="round"><g transform="translate(731.0898838360399 317.3333435058594) rotate(0 -37.04494191801996 47.065325366038124)"><path d="M0 0 C-12.35 15.69, -61.74 78.44, -74.09 94.13 M0 0 C-12.35 15.69, -61.74 78.44, -74.09 94.13" stroke="#1971c2" stroke-width="2" fill="none"></path></g><g transform="translate(731.0898838360399 317.3333435058594) rotate(0 -37.04494191801996 47.065325366038124)"><path d="M-66.28 70.38 C-68.54 77.24, -70.79 84.1, -74.09 94.13 M-66.28 70.38 C-69.05 78.81, -71.82 87.23, -74.09 94.13" stroke="#1971c2" stroke-width="2" fill="none"></path></g><g transform="translate(731.0898838360399 317.3333435058594) rotate(0 -37.04494191801996 47.065325366038124)"><path d="M-52.84 80.96 C-58.98 84.76, -65.12 88.57, -74.09 94.13 M-52.84 80.96 C-60.38 85.63, -67.92 90.3, -74.09 94.13" stroke="#1971c2" stroke-width="2" fill="none"></path></g></g><mask></mask><g stroke-linecap="round"><g transform="translate(643.8110951014684 140.73007743516666) rotate(0 -134.18817062627596 107.28872505001321)"><path d="M0 0 C-44.73 35.76, -223.65 178.81, -268.38 214.58 M0 0 C-44.73 35.76, -223.65 178.81, -268.38 214.58" stroke="#1971c2" stroke-width="2" fill="none"></path></g><g transform="translate(643.8110951014684 140.73007743516666) rotate(0 -134.18817062627596 107.28872505001321)"><path d="M-255.37 193.23 C-258.03 197.59, -260.69 201.96, -268.38 214.58 M-255.37 193.23 C-259.24 199.58, -263.11 205.93, -268.38 214.58" stroke="#1971c2" stroke-width="2" fill="none"></path></g><g transform="translate(643.8110951014684 140.73007743516666) rotate(0 -134.18817062627596 107.28872505001321)"><path d="M-244.69 206.59 C-249.53 208.22, -254.37 209.85, -268.38 214.58 M-244.69 206.59 C-251.73 208.96, -258.78 211.34, -268.38 214.58" stroke="#1971c2" stroke-width="2" fill="none"></path></g></g><mask></mask><g stroke-linecap="round"><g transform="translate(342.6605878637708 218.0274539233916) rotate(0 -22.261605251539635 61.52869107703572)"><path d="M0 0 C-7.42 20.51, -37.1 102.55, -44.52 123.06 M0 0 C-7.42 20.51, -37.1 102.55, -44.52 123.06" stroke="#1971c2" stroke-width="2" fill="none"></path></g><g transform="translate(342.6605878637708 218.0274539233916) rotate(0 -22.261605251539635 61.52869107703572)"><path d="M-44.57 98.06 C-44.56 103.9, -44.55 109.73, -44.52 123.06 M-44.57 98.06 C-44.56 105.82, -44.54 113.58, -44.52 123.06" stroke="#1971c2" stroke-width="2" fill="none"></path></g><g transform="translate(342.6605878637708 218.0274539233916) rotate(0 -22.261605251539635 61.52869107703572)"><path d="M-28.49 103.88 C-32.23 108.35, -35.98 112.83, -44.52 123.06 M-28.49 103.88 C-33.47 109.83, -38.44 115.79, -44.52 123.06" stroke="#1971c2" stroke-width="2" fill="none"></path></g></g><mask></mask><g stroke-linecap="round"><g transform="translate(670.4012852727777 142.5852701793176) rotate(0 38.03031896985968 51.32544236264505)"><path d="M0 0 C12.68 17.11, 63.38 85.54, 76.06 102.65 M0 0 C12.68 17.11, 63.38 85.54, 76.06 102.65" stroke="#1971c2" stroke-width="2" fill="none"></path></g><g transform="translate(670.4012852727777 142.5852701793176) rotate(0 38.03031896985968 51.32544236264505)"><path d="M55.2 88.87 C59.77 91.89, 64.34 94.91, 76.06 102.65 M55.2 88.87 C60.99 92.69, 66.78 96.52, 76.06 102.65" stroke="#1971c2" stroke-width="2" fill="none"></path></g><g transform="translate(670.4012852727777 142.5852701793176) rotate(0 38.03031896985968 51.32544236264505)"><path d="M68.94 78.68 C70.5 83.94, 72.06 89.19, 76.06 102.65 M68.94 78.68 C70.92 85.34, 72.9 91.99, 76.06 102.65" stroke="#1971c2" stroke-width="2" fill="none"></path></g></g><mask></mask><g stroke-linecap="round"><g transform="translate(566.8228890968046 109.5020752462654) rotate(0 -62.744772795472635 23.37552346748771)"><path d="M0 0 C-20.91 7.79, -104.57 38.96, -125.49 46.75 M0 0 C-20.91 7.79, -104.57 38.96, -125.49 46.75" stroke="#1971c2" stroke-width="2" fill="none"></path></g><g transform="translate(566.8228890968046 109.5020752462654) rotate(0 -62.744772795472635 23.37552346748771)"><path d="M-106.46 30.54 C-113.97 36.93, -121.47 43.33, -125.49 46.75 M-106.46 30.54 C-113.56 36.59, -120.66 42.64, -125.49 46.75" stroke="#1971c2" stroke-width="2" fill="none"></path></g><g transform="translate(566.8228890968046 109.5020752462654) rotate(0 -62.744772795472635 23.37552346748771)"><path d="M-100.49 46.56 C-110.35 46.64, -120.21 46.71, -125.49 46.75 M-100.49 46.56 C-109.82 46.63, -119.15 46.7, -125.49 46.75" stroke="#1971c2" stroke-width="2" fill="none"></path></g></g><mask></mask></svg>