<svg version="1.1" xmlns="http://www.w3.org/2000/svg" viewBox="0 0 1037.3333129882812 524.6666870117188" width="1037.3333129882812" height="524.6666870117188" class="excalidraw-svg">
  <!-- svg-source:excalidraw -->
  
  <defs>
    <style class="style-fonts">
      
    </style>
    
  </defs>
  <g stroke-linecap="round" transform="translate(499.33331298828125 408.6666259765625) rotate(0 78.33334350585938 32.333343505859375)"><path d="M16.17 0 C61.99 0, 107.81 0, 140.5 0 M16.17 0 C47.66 0, 79.15 0, 140.5 0 M140.5 0 C151.28 0, 156.67 5.39, 156.67 16.17 M140.5 0 C151.28 0, 156.67 5.39, 156.67 16.17 M156.67 16.17 C156.67 28.01, 156.67 39.85, 156.67 48.5 M156.67 16.17 C156.67 25, 156.67 33.83, 156.67 48.5 M156.67 48.5 C156.67 59.28, 151.28 64.67, 140.5 64.67 M156.67 48.5 C156.67 59.28, 151.28 64.67, 140.5 64.67 M140.5 64.67 C92.89 64.67, 45.28 64.67, 16.17 64.67 M140.5 64.67 C112.85 64.67, 85.2 64.67, 16.17 64.67 M16.17 64.67 C5.39 64.67, 0 59.28, 0 48.5 M16.17 64.67 C5.39 64.67, 0 59.28, 0 48.5 M0 48.5 C0 36.47, 0 24.43, 0 16.17 M0 48.5 C0 37.6, 0 26.7, 0 16.17 M0 16.17 C0 5.39, 5.39 0, 16.17 0 M0 16.17 C0 5.39, 5.39 0, 16.17 0" stroke="#1e1e1e" stroke-width="2" fill="none"></path></g><g transform="translate(526.6109924316406 429.4999694824219) rotate(0 51.0556640625 11.5)"><text x="51.0556640625" y="16.900390625" font-family="Helvetica, Segoe UI Emoji" font-size="20px" fill="#1e1e1e" text-anchor="middle" style="white-space: pre;" direction="ltr" dominant-baseline="alphabetic">Raumschiff</text></g><g stroke-linecap="round" transform="translate(670.9999694824219 251.66665649414062) rotate(0 78.33334350585938 32.333343505859375)"><path d="M16.17 0 C61.62 0, 107.08 0, 140.5 0 M16.17 0 C49.1 0, 82.03 0, 140.5 0 M140.5 0 C151.28 0, 156.67 5.39, 156.67 16.17 M140.5 0 C151.28 0, 156.67 5.39, 156.67 16.17 M156.67 16.17 C156.67 24.59, 156.67 33.02, 156.67 48.5 M156.67 16.17 C156.67 23.46, 156.67 30.75, 156.67 48.5 M156.67 48.5 C156.67 59.28, 151.28 64.67, 140.5 64.67 M156.67 48.5 C156.67 59.28, 151.28 64.67, 140.5 64.67 M140.5 64.67 C113.74 64.67, 86.97 64.67, 16.17 64.67 M140.5 64.67 C105.74 64.67, 70.99 64.67, 16.17 64.67 M16.17 64.67 C5.39 64.67, 0 59.28, 0 48.5 M16.17 64.67 C5.39 64.67, 0 59.28, 0 48.5 M0 48.5 C0 39.6, 0 30.71, 0 16.17 M0 48.5 C0 38.99, 0 29.49, 0 16.17 M0 16.17 C0 5.39, 5.39 0, 16.17 0 M0 16.17 C0 5.39, 5.39 0, 16.17 0" stroke="#1e1e1e" stroke-width="2" fill="none"></path></g><g transform="translate(723.1487426757812 272.5) rotate(0 26.1845703125 11.5)"><text x="26.1845703125" y="16.900390625" font-family="Helvetica, Segoe UI Emoji" font-size="20px" fill="#1e1e1e" text-anchor="middle" style="white-space: pre;" direction="ltr" dominant-baseline="alphabetic">Laser</text></g><g stroke-linecap="round" transform="translate(283.6666564941406 150.33334350585938) rotate(0 78.33334350585938 32.333343505859375)"><path d="M16.17 0 C47.67 0, 79.17 0, 140.5 0 M16.17 0 C58.24 0, 100.32 0, 140.5 0 M140.5 0 C151.28 0, 156.67 5.39, 156.67 16.17 M140.5 0 C151.28 0, 156.67 5.39, 156.67 16.17 M156.67 16.17 C156.67 23.78, 156.67 31.38, 156.67 48.5 M156.67 16.17 C156.67 24.13, 156.67 32.09, 156.67 48.5 M156.67 48.5 C156.67 59.28, 151.28 64.67, 140.5 64.67 M156.67 48.5 C156.67 59.28, 151.28 64.67, 140.5 64.67 M140.5 64.67 C101.15 64.67, 61.79 64.67, 16.17 64.67 M140.5 64.67 C100.16 64.67, 59.83 64.67, 16.17 64.67 M16.17 64.67 C5.39 64.67, 0 59.28, 0 48.5 M16.17 64.67 C5.39 64.67, 0 59.28, 0 48.5 M0 48.5 C0 40.38, 0 32.26, 0 16.17 M0 48.5 C0 38.13, 0 27.77, 0 16.17 M0 16.17 C0 5.39, 5.39 0, 16.17 0 M0 16.17 C0 5.39, 5.39 0, 16.17 0" stroke="#1e1e1e" stroke-width="2" fill="none"></path></g><g transform="translate(295.125 171.16668701171875) rotate(0 66.875 11.5)"><text x="66.875" y="16.900390625" font-family="Helvetica, Segoe UI Emoji" font-size="20px" fill="#1e1e1e" text-anchor="middle" style="white-space: pre;" direction="ltr" dominant-baseline="alphabetic">Turtle-Invaders</text></g><g stroke-linecap="round" transform="translate(216.33340454101562 345.6666564941406) rotate(0 78.33334350585938 32.333343505859375)"><path d="M16.17 0 C41.33 0, 66.49 0, 140.5 0 M16.17 0 C59.4 0, 102.64 0, 140.5 0 M140.5 0 C151.28 0, 156.67 5.39, 156.67 16.17 M140.5 0 C151.28 0, 156.67 5.39, 156.67 16.17 M156.67 16.17 C156.67 23.18, 156.67 30.2, 156.67 48.5 M156.67 16.17 C156.67 27.02, 156.67 37.87, 156.67 48.5 M156.67 48.5 C156.67 59.28, 151.28 64.67, 140.5 64.67 M156.67 48.5 C156.67 59.28, 151.28 64.67, 140.5 64.67 M140.5 64.67 C113.4 64.67, 86.29 64.67, 16.17 64.67 M140.5 64.67 C92.38 64.67, 44.27 64.67, 16.17 64.67 M16.17 64.67 C5.39 64.67, 0 59.28, 0 48.5 M16.17 64.67 C5.39 64.67, 0 59.28, 0 48.5 M0 48.5 C0 36.58, 0 24.67, 0 16.17 M0 48.5 C0 37.33, 0 26.16, 0 16.17 M0 16.17 C0 5.39, 5.39 0, 16.17 0 M0 16.17 C0 5.39, 5.39 0, 16.17 0" stroke="#1e1e1e" stroke-width="2" fill="none"></path></g><g transform="translate(259.595458984375 366.5) rotate(0 35.0712890625 11.5)"><text x="35.0712890625" y="16.900390625" font-family="Helvetica, Segoe UI Emoji" font-size="20px" fill="#1e1e1e" text-anchor="middle" style="white-space: pre;" direction="ltr" dominant-baseline="alphabetic">Fenster</text></g><g stroke-linecap="round" transform="translate(572.9999694824219 72.33334350585938) rotate(0 78.33334350585938 32.333343505859375)"><path d="M16.17 0 C59.31 0, 102.45 0, 140.5 0 M16.17 0 C48.71 0, 81.25 0, 140.5 0 M140.5 0 C151.28 0, 156.67 5.39, 156.67 16.17 M140.5 0 C151.28 0, 156.67 5.39, 156.67 16.17 M156.67 16.17 C156.67 28.5, 156.67 40.83, 156.67 48.5 M156.67 16.17 C156.67 24.28, 156.67 32.39, 156.67 48.5 M156.67 48.5 C156.67 59.28, 151.28 64.67, 140.5 64.67 M156.67 48.5 C156.67 59.28, 151.28 64.67, 140.5 64.67 M140.5 64.67 C99.99 64.67, 59.48 64.67, 16.17 64.67 M140.5 64.67 C108.1 64.67, 75.7 64.67, 16.17 64.67 M16.17 64.67 C5.39 64.67, 0 59.28, 0 48.5 M16.17 64.67 C5.39 64.67, 0 59.28, 0 48.5 M0 48.5 C0 41.99, 0 35.48, 0 16.17 M0 48.5 C0 41.3, 0 34.09, 0 16.17 M0 16.17 C0 5.39, 5.39 0, 16.17 0 M0 16.17 C0 5.39, 5.39 0, 16.17 0" stroke="#1e1e1e" stroke-width="2" fill="none"></path></g><g transform="translate(590.2942504882812 93.16668701171875) rotate(0 61.0390625 11.5)"><text x="61.0390625" y="16.900390625" font-family="Helvetica, Segoe UI Emoji" font-size="20px" fill="#1e1e1e" text-anchor="middle" style="white-space: pre;" direction="ltr" dominant-baseline="alphabetic">Punktanzeige</text></g><g stroke-linecap="round" transform="translate(10 10) rotate(0 508.6666564941406 252.33334350585938)"><path d="M32 0 C295.04 0, 558.08 0, 985.33 0 M32 0 C387.7 0, 743.4 0, 985.33 0 M985.33 0 C1006.67 0, 1017.33 10.67, 1017.33 32 M985.33 0 C1006.67 0, 1017.33 10.67, 1017.33 32 M1017.33 32 C1017.33 157.14, 1017.33 282.27, 1017.33 472.67 M1017.33 32 C1017.33 182.77, 1017.33 333.55, 1017.33 472.67 M1017.33 472.67 C1017.33 494, 1006.67 504.67, 985.33 504.67 M1017.33 472.67 C1017.33 494, 1006.67 504.67, 985.33 504.67 M985.33 504.67 C636.04 504.67, 286.75 504.67, 32 504.67 M985.33 504.67 C776.85 504.67, 568.37 504.67, 32 504.67 M32 504.67 C10.67 504.67, 0 494, 0 472.67 M32 504.67 C10.67 504.67, 0 494, 0 472.67 M0 472.67 C0 338.15, 0 203.64, 0 32 M0 472.67 C0 329.23, 0 185.8, 0 32 M0 32 C0 10.67, 10.67 0, 32 0 M0 32 C0 10.67, 10.67 0, 32 0" stroke="#1971c2" stroke-width="2" fill="none"></path></g></svg>