<svg version="1.1" xmlns="http://www.w3.org/2000/svg" viewBox="0 0 3533.040939099491 2460.181250814041" width="3533.040939099491" height="2460.181250814041" class="excalidraw-svg">
  <!-- svg-source:excalidraw -->
  
  <defs>
    <style class="style-fonts">
      
    </style>
    
  </defs>
  <g stroke-linecap="round" transform="translate(10.000000750666459 10.000000345415174) rotate(0 1475.2454478254565 1003.2411265316462)"><path d="M0 0 C1056.9 0, 2113.79 0, 2950.49 0 M0 0 C972.66 0, 1945.31 0, 2950.49 0 M2950.49 0 C2950.49 537.31, 2950.49 1074.62, 2950.49 2006.48 M2950.49 0 C2950.49 504.97, 2950.49 1009.94, 2950.49 2006.48 M2950.49 2006.48 C1790.7 2006.48, 630.91 2006.48, 0 2006.48 M2950.49 2006.48 C2143.08 2006.48, 1335.68 2006.48, 0 2006.48 M0 2006.48 C0 1488.2, 0 969.92, 0 0 M0 2006.48 C0 1475.74, 0 945, 0 0" stroke="#1e1e1e" stroke-width="2" fill="none"></path></g><g stroke-linecap="round"><g transform="translate(2999.7664667235113 10) rotate(0 96.88043000202867 0)"><path d="M0 0 C43.96 0, 87.92 0, 193.76 0 M0 0 C58.14 0, 116.29 0, 193.76 0" stroke="#1971c2" stroke-width="2" fill="none"></path></g></g><mask></mask><g stroke-linecap="round"><g transform="translate(2999.7664667272966 2016.482253661918) rotate(0 96.88043000202867 0)"><path d="M0 0 C65.06 0, 130.12 0, 193.76 0 M0 0 C71.52 0, 143.03 0, 193.76 0" stroke="#1971c2" stroke-width="2" fill="none"></path></g></g><mask></mask><g stroke-linecap="round"><g transform="translate(3095.646896502785 2016.8102362708607) rotate(0 0 -1003.4051179677147)"><path d="M0 0 C0 -462.24, 0 -924.48, 0 -2006.81 M0 0 C0 -556.73, 0 -1113.47, 0 -2006.81" stroke="#1971c2" stroke-width="2" fill="none"></path></g></g><mask></mask><g transform="translate(3140.7313077518347 933.2892843001578) rotate(0 191.15481567382812 79.9518420064093)"><text x="0" y="117.49716183448703" font-family="Helvetica, Segoe UI Emoji" font-size="139.04668175027703px" fill="#1971c2" text-anchor="start" style="white-space: pre;" direction="ltr" dominant-baseline="alphabetic">600px</text></g><g stroke-linecap="round"><g transform="translate(2863.6104666598903 2194.3971361737727) rotate(89.99999999999994 96.88043000202867 0)"><path d="M0 0 C39.31 0, 78.62 0, 193.76 0 M0 0 C56.45 0, 112.89 0, 193.76 0" stroke="#e03131" stroke-width="2" fill="none"></path></g></g><mask></mask><g stroke-linecap="round"><g transform="translate(-86.88043000202879 2193.397136177592) rotate(89.99999999999994 96.88043000202867 0)"><path d="M0 0 C61.9 0, 123.8 0, 193.76 0 M0 0 C46.8 0, 93.61 0, 193.76 0" stroke="#e03131" stroke-width="2" fill="none"></path></g></g><mask></mask><g stroke-linecap="round"><g transform="translate(1485.5077514598975 3668.380280817622) rotate(89.99999999999994 1.4210854715202004e-12 -1474.9831448665877)"><path d="M0 0 C0 -789.97, 0 -1579.93, 0 -2949.97 M0 0 C0 -742.41, 0 -1484.83, 0 -2949.97" stroke="#e03131" stroke-width="2" fill="none"></path></g></g><mask></mask><g transform="translate(1293.590632329811 2290.2775668012227) rotate(0 191.65481567382812 79.95184200640927)"><text x="0" y="117.49716183448703" font-family="Helvetica, Segoe UI Emoji" font-size="139.04668175027703px" fill="#e03131" text-anchor="start" style="white-space: pre;" direction="ltr" dominant-baseline="alphabetic">800px</text></g><g stroke-linecap="round"><g transform="translate(20.175550098478197 1550.6860783268003) rotate(0 765.4586737355382 0)"><path d="M0 0 C255.15 0, 1275.76 0, 1530.92 0 M0 0 C255.15 0, 1275.76 0, 1530.92 0" stroke="#1e1e1e" stroke-width="2" fill="none"></path></g><g transform="translate(20.175550098478197 1550.6860783268003) rotate(0 765.4586737355382 0)"><path d="M1530.92 0 L1517.32 6.34 L1517.32 -6.34 L1530.92 0" stroke="none" stroke-width="0" fill="#1e1e1e" fill-rule="evenodd"></path><path d="M1530.92 0 C1528 1.36, 1525.08 2.72, 1517.32 6.34 M1530.92 0 C1525.5 2.53, 1520.07 5.06, 1517.32 6.34 M1517.32 6.34 C1517.32 3.31, 1517.32 0.27, 1517.32 -6.34 M1517.32 6.34 C1517.32 3.61, 1517.32 0.89, 1517.32 -6.34 M1517.32 -6.34 C1520.89 -4.67, 1524.47 -3.01, 1530.92 0 M1517.32 -6.34 C1520.4 -4.9, 1523.48 -3.47, 1530.92 0 M1530.92 0 C1530.92 0, 1530.92 0, 1530.92 0 M1530.92 0 C1530.92 0, 1530.92 0, 1530.92 0" stroke="#1e1e1e" stroke-width="2" fill="none"></path></g></g><mask></mask><g stroke-linecap="round"><g transform="translate(10.524606712824152 1013.2411263685716) rotate(0 765.4586737355382 0)"><path d="M0 0 C255.15 0, 1275.76 0, 1530.92 0 M0 0 C255.15 0, 1275.76 0, 1530.92 0" stroke="#1e1e1e" stroke-width="2" fill="none"></path></g><g transform="translate(10.524606712824152 1013.2411263685716) rotate(0 765.4586737355382 0)"><path d="M1530.92 0 L1517.32 6.34 L1517.32 -6.34 L1530.92 0" stroke="none" stroke-width="0" fill="#1e1e1e" fill-rule="evenodd"></path><path d="M1530.92 0 C1526.45 2.09, 1521.97 4.17, 1517.32 6.34 M1530.92 0 C1527.95 1.39, 1524.97 2.77, 1517.32 6.34 M1517.32 6.34 C1517.32 3.52, 1517.32 0.7, 1517.32 -6.34 M1517.32 6.34 C1517.32 1.64, 1517.32 -3.06, 1517.32 -6.34 M1517.32 -6.34 C1522.49 -3.93, 1527.66 -1.52, 1530.92 0 M1517.32 -6.34 C1520.63 -4.8, 1523.94 -3.25, 1530.92 0 M1530.92 0 C1530.92 0, 1530.92 0, 1530.92 0 M1530.92 0 C1530.92 0, 1530.92 0, 1530.92 0" stroke="#1e1e1e" stroke-width="2" fill="none"></path></g></g><mask></mask><g stroke-linecap="round"><g transform="translate(10.00000024495921 71.0211101689149) rotate(0 765.4586737355382 0)"><path d="M0 0 C255.15 0, 1275.76 0, 1530.92 0 M0 0 C255.15 0, 1275.76 0, 1530.92 0" stroke="#1e1e1e" stroke-width="2" fill="none"></path></g><g transform="translate(10.00000024495921 71.0211101689149) rotate(0 765.4586737355382 0)"><path d="M1530.92 0 L1517.32 6.34 L1517.32 -6.34 L1530.92 0" stroke="none" stroke-width="0" fill="#1e1e1e" fill-rule="evenodd"></path><path d="M1530.92 0 C1526.66 1.99, 1522.39 3.97, 1517.32 6.34 M1530.92 0 C1526.03 2.28, 1521.14 4.56, 1517.32 6.34 M1517.32 6.34 C1517.32 3.78, 1517.32 1.22, 1517.32 -6.34 M1517.32 6.34 C1517.32 2.78, 1517.32 -0.78, 1517.32 -6.34 M1517.32 -6.34 C1522.04 -4.14, 1526.76 -1.94, 1530.92 0 M1517.32 -6.34 C1520.26 -4.97, 1523.19 -3.6, 1530.92 0 M1530.92 0 C1530.92 0, 1530.92 0, 1530.92 0 M1530.92 0 C1530.92 0, 1530.92 0, 1530.92 0" stroke="#1e1e1e" stroke-width="2" fill="none"></path></g></g><mask></mask></svg>