<svg version="1.1" xmlns="http://www.w3.org/2000/svg" viewBox="0 0 3869.1984912277876 3080.201171868799" width="3869.1984912277876" height="3080.201171868799" filter="invert(93%) hue-rotate(180deg)" class="excalidraw-svg">
  <!-- svg-source:excalidraw -->
  
  <defs>
    <style class="style-fonts">
      
    </style>
    
  </defs>
  <g stroke-linecap="round" transform="translate(346.1575528789631 455.76870222040793) rotate(0 1475.2454478254565 1003.2411265316462)"><path d="M0 0 C611.23 0, 1222.46 0, 2950.49 0 M0 0 C946.81 0, 1893.62 0, 2950.49 0 M2950.49 0 C2950.49 731.78, 2950.49 1463.56, 2950.49 2006.48 M2950.49 0 C2950.49 405.78, 2950.49 811.56, 2950.49 2006.48 M2950.49 2006.48 C1925.72 2006.48, 900.94 2006.48, 0 2006.48 M2950.49 2006.48 C2205.74 2006.48, 1460.98 2006.48, 0 2006.48 M0 2006.48 C0 1292.38, 0 578.28, 0 0 M0 2006.48 C0 1582.94, 0 1159.4, 0 0" stroke="#1e1e1e" stroke-width="2" fill="none"></path></g><g stroke-linecap="round"><g transform="translate(3335.924018851808 455.76870187499276) rotate(0 96.88043000202867 0)"><path d="M0 0 C73.41 0, 146.83 0, 193.76 0 M0 0 C39.9 0, 79.8 0, 193.76 0" stroke="#1971c2" stroke-width="2" fill="none"></path></g></g><mask></mask><g stroke-linecap="round"><g transform="translate(3335.924018855593 2462.2509555369106) rotate(0 96.88043000202867 0)"><path d="M0 0 C76.54 0, 153.08 0, 193.76 0 M0 0 C58.32 0, 116.65 0, 193.76 0" stroke="#1971c2" stroke-width="2" fill="none"></path></g></g><mask></mask><g stroke-linecap="round"><g transform="translate(3431.8044486310814 2462.5789381458535) rotate(0 0 -1003.4051179677147)"><path d="M0 0 C0 -594.47, 0 -1188.95, 0 -2006.81 M0 0 C0 -673.35, 0 -1346.7, 0 -2006.81" stroke="#1971c2" stroke-width="2" fill="none"></path></g></g><mask></mask><g transform="translate(3476.8888598801313 1379.0579861751505) rotate(0 191.15481567382824 79.9518420064093)"><text x="0" y="117.49716183448703" font-family="Helvetica, Segoe UI Emoji" font-size="139.04668175027703px" fill="#1971c2" text-anchor="start" style="white-space: pre;" direction="ltr" dominant-baseline="alphabetic">600px</text></g><g stroke-linecap="round"><g transform="translate(3199.768018788187 2640.165838048765) rotate(89.99999999999994 96.88043000202867 0)"><path d="M0 0 C58.79 0, 117.58 0, 193.76 0 M0 0 C39.27 0, 78.55 0, 193.76 0" stroke="#e03131" stroke-width="2" fill="none"></path></g></g><mask></mask><g stroke-linecap="round"><g transform="translate(249.27712212626807 2639.165838052585) rotate(89.99999999999994 96.88043000202867 0)"><path d="M0 0 C73.96 0, 147.91 0, 193.76 0 M0 0 C39.77 0, 79.53 0, 193.76 0" stroke="#e03131" stroke-width="2" fill="none"></path></g></g><mask></mask><g stroke-linecap="round"><g transform="translate(1821.665303588194 4114.1489826926145) rotate(89.99999999999994 1.3997691894473974e-12 -1474.9831448665877)"><path d="M0 0 C0 -872.83, 0 -1745.65, 0 -2949.97 M0 0 C0 -1062.22, 0 -2124.43, 0 -2949.97" stroke="#e03131" stroke-width="2" fill="none"></path></g></g><mask></mask><g transform="translate(1629.7481844581075 2736.0462686762153) rotate(0 191.65481567382812 79.95184200640927)"><text x="0" y="117.49716183448703" font-family="Helvetica, Segoe UI Emoji" font-size="139.04668175027703px" fill="#e03131" text-anchor="start" style="white-space: pre;" direction="ltr" dominant-baseline="alphabetic">800px</text></g><g stroke-linecap="round"><g transform="translate(507.3350345582062 181.42213794261147) rotate(0 0 1444.389516963094)"><path d="M0 0 C0 1147.69, 0 2295.38, 0 2888.78" stroke="#2f9e44" stroke-width="2.5" fill="none" stroke-dasharray="8 10"></path></g></g><mask></mask><g transform="translate(10 10) rotate(0 564.5148315429688 85.57123616582965)"><text x="0" y="125.7554189101433" font-family="Helvetica, Segoe UI Emoji" font-size="148.81954115796458px" fill="#2f9e44" text-anchor="start" style="white-space: pre;" direction="ltr" dominant-baseline="alphabetic">GROUND = -350</text></g><g stroke-linecap="round" transform="translate(444.80830252363785 1335.2374449566714) rotate(0 61.37335563679915 61.37335563679915)"><path d="M122.75 61.37 C122.75 63.84, 122.6 66.32, 122.3 68.77 C122 71.22, 121.55 73.67, 120.96 76.06 C120.37 78.46, 119.63 80.83, 118.76 83.14 C117.88 85.44, 116.86 87.71, 115.72 89.89 C114.57 92.08, 113.28 94.21, 111.88 96.24 C110.48 98.27, 108.95 100.23, 107.31 102.07 C105.68 103.92, 103.92 105.68, 102.07 107.31 C100.23 108.95, 98.27 110.48, 96.24 111.88 C94.21 113.28, 92.08 114.57, 89.89 115.72 C87.71 116.86, 85.44 117.88, 83.14 118.76 C80.83 119.63, 78.46 120.37, 76.06 120.96 C73.67 121.55, 71.22 122, 68.77 122.3 C66.32 122.6, 63.84 122.75, 61.37 122.75 C58.91 122.75, 56.42 122.6, 53.98 122.3 C51.53 122, 49.08 121.55, 46.69 120.96 C44.29 120.37, 41.92 119.63, 39.61 118.76 C37.3 117.88, 35.04 116.86, 32.85 115.72 C30.67 114.57, 28.54 113.28, 26.51 111.88 C24.48 110.48, 22.52 108.95, 20.68 107.31 C18.83 105.68, 17.07 103.92, 15.43 102.07 C13.8 100.23, 12.26 98.27, 10.86 96.24 C9.46 94.21, 8.18 92.08, 7.03 89.89 C5.88 87.71, 4.86 85.44, 3.99 83.14 C3.11 80.83, 2.37 78.46, 1.78 76.06 C1.19 73.67, 0.74 71.22, 0.45 68.77 C0.15 66.32, 0 63.84, 0 61.37 C0 58.91, 0.15 56.42, 0.45 53.98 C0.74 51.53, 1.19 49.08, 1.78 46.69 C2.37 44.29, 3.11 41.92, 3.99 39.61 C4.86 37.3, 5.88 35.04, 7.03 32.85 C8.18 30.67, 9.46 28.54, 10.86 26.51 C12.26 24.48, 13.8 22.52, 15.43 20.68 C17.07 18.83, 18.83 17.07, 20.68 15.43 C22.52 13.8, 24.48 12.26, 26.51 10.86 C28.54 9.46, 30.67 8.18, 32.85 7.03 C35.04 5.88, 37.3 4.86, 39.61 3.99 C41.92 3.11, 44.29 2.37, 46.69 1.78 C49.08 1.19, 51.53 0.74, 53.98 0.45 C56.42 0.15, 58.91 0, 61.37 0 C63.84 0, 66.32 0.15, 68.77 0.45 C71.22 0.74, 73.67 1.19, 76.06 1.78 C78.46 2.37, 80.83 3.11, 83.14 3.99 C85.44 4.86, 87.71 5.88, 89.89 7.03 C92.08 8.18, 94.21 9.46, 96.24 10.86 C98.27 12.26, 100.23 13.8, 102.07 15.43 C103.92 17.07, 105.68 18.83, 107.31 20.68 C108.95 22.52, 110.48 24.48, 111.88 26.51 C113.28 28.54, 114.57 30.67, 115.72 32.85 C116.86 35.04, 117.88 37.3, 118.76 39.61 C119.63 41.92, 120.37 44.29, 120.96 46.69 C121.55 49.08, 122 51.53, 122.3 53.98 C122.6 56.42, 122.75 58.91, 122.75 61.37" stroke="none" stroke-width="0" fill="#e8590c"></path><path d="M122.75 61.37 C122.75 63.84, 122.6 66.32, 122.3 68.77 C122 71.22, 121.55 73.67, 120.96 76.06 C120.37 78.46, 119.63 80.83, 118.76 83.14 C117.88 85.44, 116.86 87.71, 115.72 89.89 C114.57 92.08, 113.28 94.21, 111.88 96.24 C110.48 98.27, 108.95 100.23, 107.31 102.07 C105.68 103.92, 103.92 105.68, 102.07 107.31 C100.23 108.95, 98.27 110.48, 96.24 111.88 C94.21 113.28, 92.08 114.57, 89.89 115.72 C87.71 116.86, 85.44 117.88, 83.14 118.76 C80.83 119.63, 78.46 120.37, 76.06 120.96 C73.67 121.55, 71.22 122, 68.77 122.3 C66.32 122.6, 63.84 122.75, 61.37 122.75 C58.91 122.75, 56.42 122.6, 53.98 122.3 C51.53 122, 49.08 121.55, 46.69 120.96 C44.29 120.37, 41.92 119.63, 39.61 118.76 C37.3 117.88, 35.04 116.86, 32.85 115.72 C30.67 114.57, 28.54 113.28, 26.51 111.88 C24.48 110.48, 22.52 108.95, 20.68 107.31 C18.83 105.68, 17.07 103.92, 15.43 102.07 C13.8 100.23, 12.26 98.27, 10.86 96.24 C9.46 94.21, 8.18 92.08, 7.03 89.89 C5.88 87.71, 4.86 85.44, 3.99 83.14 C3.11 80.83, 2.37 78.46, 1.78 76.06 C1.19 73.67, 0.74 71.22, 0.45 68.77 C0.15 66.32, 0 63.84, 0 61.37 C0 58.91, 0.15 56.42, 0.45 53.98 C0.74 51.53, 1.19 49.08, 1.78 46.69 C2.37 44.29, 3.11 41.92, 3.99 39.61 C4.86 37.3, 5.88 35.04, 7.03 32.85 C8.18 30.67, 9.46 28.54, 10.86 26.51 C12.26 24.48, 13.8 22.52, 15.43 20.68 C17.07 18.83, 18.83 17.07, 20.68 15.43 C22.52 13.8, 24.48 12.26, 26.51 10.86 C28.54 9.46, 30.67 8.18, 32.85 7.03 C35.04 5.88, 37.3 4.86, 39.61 3.99 C41.92 3.11, 44.29 2.37, 46.69 1.78 C49.08 1.19, 51.53 0.74, 53.98 0.45 C56.42 0.15, 58.91 0, 61.37 0 C63.84 0, 66.32 0.15, 68.77 0.45 C71.22 0.74, 73.67 1.19, 76.06 1.78 C78.46 2.37, 80.83 3.11, 83.14 3.99 C85.44 4.86, 87.71 5.88, 89.89 7.03 C92.08 8.18, 94.21 9.46, 96.24 10.86 C98.27 12.26, 100.23 13.8, 102.07 15.43 C103.92 17.07, 105.68 18.83, 107.31 20.68 C108.95 22.52, 110.48 24.48, 111.88 26.51 C113.28 28.54, 114.57 30.67, 115.72 32.85 C116.86 35.04, 117.88 37.3, 118.76 39.61 C119.63 41.92, 120.37 44.29, 120.96 46.69 C121.55 49.08, 122 51.53, 122.3 53.98 C122.6 56.42, 122.75 58.91, 122.75 61.37" stroke="#f08c00" stroke-width="2" fill="none"></path></g><g transform="translate(610.7268975310658 1287.4300916509296) rotate(0 357.15673828125 115.19972094441047)"><text x="0" y="169.29741598708966" font-family="Helvetica, Segoe UI Emoji" font-size="200.3473407728878px" fill="#f08c00" text-anchor="start" style="white-space: pre;" direction="ltr" dominant-baseline="alphabetic">Position</text></g></svg>