<svg version="1.1" xmlns="http://www.w3.org/2000/svg" viewBox="0 0 3533.040939099491 2460.181250814041" width="3533.040939099491" height="2460.181250814041" class="excalidraw-svg">
  <!-- svg-source:excalidraw -->
  
  <defs>
    <style class="style-fonts">
      
    </style>
    
  </defs>
  <g stroke-linecap="round" transform="translate(10.000000750666459 10.000000345415174) rotate(0 1475.2454478254565 1003.2411265316462)"><path d="M0 0 C611.23 0, 1222.46 0, 2950.49 0 M0 0 C946.81 0, 1893.62 0, 2950.49 0 M2950.49 0 C2950.49 731.78, 2950.49 1463.56, 2950.49 2006.48 M2950.49 0 C2950.49 405.78, 2950.49 811.56, 2950.49 2006.48 M2950.49 2006.48 C1925.72 2006.48, 900.94 2006.48, 0 2006.48 M2950.49 2006.48 C2205.74 2006.48, 1460.98 2006.48, 0 2006.48 M0 2006.48 C0 1292.38, 0 578.28, 0 0 M0 2006.48 C0 1582.94, 0 1159.4, 0 0" stroke="#1e1e1e" stroke-width="2" fill="none"></path></g><g stroke-linecap="round"><g transform="translate(2999.7664667235113 10) rotate(0 96.88043000202867 0)"><path d="M0 0 C73.41 0, 146.83 0, 193.76 0 M0 0 C39.9 0, 79.8 0, 193.76 0" stroke="#1971c2" stroke-width="2" fill="none"></path></g></g><mask></mask><g stroke-linecap="round"><g transform="translate(2999.7664667272966 2016.482253661918) rotate(0 96.88043000202867 0)"><path d="M0 0 C76.54 0, 153.08 0, 193.76 0 M0 0 C58.32 0, 116.65 0, 193.76 0" stroke="#1971c2" stroke-width="2" fill="none"></path></g></g><mask></mask><g stroke-linecap="round"><g transform="translate(3095.646896502785 2016.8102362708607) rotate(0 0 -1003.4051179677147)"><path d="M0 0 C0 -594.47, 0 -1188.95, 0 -2006.81 M0 0 C0 -673.35, 0 -1346.7, 0 -2006.81" stroke="#1971c2" stroke-width="2" fill="none"></path></g></g><mask></mask><g transform="translate(3140.7313077518347 933.2892843001578) rotate(0 191.15481567382824 79.9518420064093)"><text x="0" y="117.49716183448703" font-family="Helvetica, Segoe UI Emoji" font-size="139.04668175027703px" fill="#1971c2" text-anchor="start" style="white-space: pre;" direction="ltr" dominant-baseline="alphabetic">600px</text></g><g stroke-linecap="round"><g transform="translate(2863.6104666598903 2194.3971361737727) rotate(89.99999999999994 96.88043000202867 0)"><path d="M0 0 C58.79 0, 117.58 0, 193.76 0 M0 0 C39.27 0, 78.55 0, 193.76 0" stroke="#e03131" stroke-width="2" fill="none"></path></g></g><mask></mask><g stroke-linecap="round"><g transform="translate(-86.88043000202856 2193.397136177592) rotate(89.99999999999994 96.88043000202867 0)"><path d="M0 0 C73.96 0, 147.91 0, 193.76 0 M0 0 C39.77 0, 79.53 0, 193.76 0" stroke="#e03131" stroke-width="2" fill="none"></path></g></g><mask></mask><g stroke-linecap="round"><g transform="translate(1485.5077514598975 3668.380280817622) rotate(89.99999999999994 1.3997691894473974e-12 -1474.9831448665877)"><path d="M0 0 C0 -872.83, 0 -1745.65, 0 -2949.97 M0 0 C0 -1062.22, 0 -2124.43, 0 -2949.97" stroke="#e03131" stroke-width="2" fill="none"></path></g></g><mask></mask><g transform="translate(1293.590632329811 2290.2775668012227) rotate(0 191.65481567382812 79.95184200640927)"><text x="0" y="117.49716183448703" font-family="Helvetica, Segoe UI Emoji" font-size="139.04668175027703px" fill="#e03131" text-anchor="start" style="white-space: pre;" direction="ltr" dominant-baseline="alphabetic">800px</text></g></svg>