<svg version="1.1" xmlns="http://www.w3.org/2000/svg" viewBox="0 0 4353.8716883155075 833.6755853161408" width="4353.8716883155075" height="833.6755853161408" filter="invert(93%) hue-rotate(180deg)" class="excalidraw-svg">
  <!-- svg-source:excalidraw -->
  
  <defs>
    <style class="style-fonts">
      
    </style>
    
  </defs>
  <g transform="translate(1340.6070213795588 99.08185553098258) rotate(0 1258.750732421875 58.948977625596186)"><text x="0" y="86.6313694623444" font-family="Helvetica, Segoe UI Emoji" font-size="102.51996108799338px" fill="#1e1e1e" text-anchor="start" style="white-space: pre;" direction="ltr" dominant-baseline="alphabetic">A B C D E F G H I J K L M N O P Q R S T U V W X Y Z</text></g><g transform="translate(1340.6070198778018 615.2699200597642) rotate(0 1258.750732421875 58.9489776255962)"><text x="0" y="86.6313694623444" font-family="Helvetica, Segoe UI Emoji" font-size="102.51996108799338px" fill="#1e1e1e" text-anchor="start" style="white-space: pre;" direction="ltr" dominant-baseline="alphabetic">A B C D E F G H I J K L M N O P Q R S T U V W X Y Z</text></g><g transform="translate(10 68.45785525960389) rotate(0 280.29461669921875 82.52856867583466)"><text x="0" y="121.28391724728216" font-family="Helvetica, Segoe UI Emoji" font-size="143.52794552319074px" fill="#1e1e1e" text-anchor="start" style="white-space: pre;" direction="ltr" dominant-baseline="alphabetic">Plaintext</text></g><g transform="translate(73.8447062361459 584.6459197883855) rotate(0 215.9940185546875 82.52856867583466)"><text x="0" y="121.28391724728216" font-family="Helvetica, Segoe UI Emoji" font-size="143.52794552319074px" fill="#1e1e1e" text-anchor="start" style="white-space: pre;" direction="ltr" dominant-baseline="alphabetic">Cipher</text></g><g stroke-linecap="round"><g transform="translate(1779.039224555976 222.10580883657465) rotate(0 214.8568531175522 186.97465031087455)"><path d="M0 0 C71.62 62.32, 358.09 311.62, 429.71 373.95 M0 0 C71.62 62.32, 358.09 311.62, 429.71 373.95" stroke="#2f9e44" stroke-width="2" fill="none"></path></g><g transform="translate(1779.039224555976 222.10580883657465) rotate(0 214.8568531175522 186.97465031087455)"><path d="M406.38 364.98 C413.48 367.71, 420.58 370.44, 429.71 373.95 M406.38 364.98 C412.45 367.31, 418.52 369.65, 429.71 373.95" stroke="#2f9e44" stroke-width="2" fill="none"></path></g><g transform="translate(1779.039224555976 222.10580883657465) rotate(0 214.8568531175522 186.97465031087455)"><path d="M417.61 352.08 C421.29 358.73, 424.98 365.39, 429.71 373.95 M417.61 352.08 C420.76 357.77, 423.91 363.46, 429.71 373.95" stroke="#2f9e44" stroke-width="2" fill="none"></path></g></g><mask></mask><g transform="translate(2133.1864251420216 318.365883945159) rotate(0 82.9067153930664 82.52856867583466)"><text x="0" y="121.28391724728216" font-family="Helvetica, Segoe UI Emoji" font-size="143.52794552319074px" fill="#2f9e44" text-anchor="start" style="white-space: pre;" direction="ltr" dominant-baseline="alphabetic">+5</text></g><g transform="translate(10.000001544896918 326.5518897751983) rotate(0 307.11737060546875 82.52856867583466)"><text x="0" y="121.28391724728216" font-family="Helvetica, Segoe UI Emoji" font-size="143.52794552319074px" fill="#1e1e1e" text-anchor="start" style="white-space: pre;" direction="ltr" dominant-baseline="alphabetic">Schlüssel</text></g><g stroke-linecap="round"><g transform="translate(1144.3287765068176 222.60808795632155) rotate(0 200.79223732568454 187.3435346329166)"><path d="M0 0 C66.93 62.45, 334.65 312.24, 401.58 374.69 M0 0 C66.93 62.45, 334.65 312.24, 401.58 374.69" stroke="#1971c2" stroke-width="2" fill="none"></path></g><g transform="translate(1144.3287765068176 222.60808795632155) rotate(0 200.79223732568454 187.3435346329166)"><path d="M378.57 364.91 C385.42 367.82, 392.26 370.73, 401.58 374.69 M378.57 364.91 C386.45 368.26, 394.33 371.61, 401.58 374.69" stroke="#1971c2" stroke-width="2" fill="none"></path></g><g transform="translate(1144.3287765068176 222.60808795632155) rotate(0 200.79223732568454 187.3435346329166)"><path d="M390.24 352.41 C393.61 359.03, 396.99 365.66, 401.58 374.69 M390.24 352.41 C394.12 360.04, 398.01 367.67, 401.58 374.69" stroke="#1971c2" stroke-width="2" fill="none"></path></g></g><mask></mask><g transform="translate(1392.5764994910699 303.44288158315675) rotate(0 82.90671539306646 82.52856867583466)"><text x="0" y="121.28391724728216" font-family="Helvetica, Segoe UI Emoji" font-size="143.52794552319074px" fill="#1971c2" text-anchor="start" style="white-space: pre;" direction="ltr" dominant-baseline="alphabetic">+5</text></g><g stroke-opacity="0.4" fill-opacity="0.4" transform="translate(732.4073654957855 96.96857951236814) rotate(0 285.61895751953125 58.948977625596186)"><text x="0" y="86.6313694623444" font-family="Helvetica, Segoe UI Emoji" font-size="102.51996108799338px" fill="#1e1e1e" text-anchor="start" style="white-space: pre;" direction="ltr" dominant-baseline="alphabetic">...V W X Y Z</text></g><g stroke-opacity="0.4" fill-opacity="0.4" transform="translate(3888.182718862419 99.44172006958183) rotate(0 227.844482421875 58.948977625596186)"><text x="0" y="86.6313694623444" font-family="Helvetica, Segoe UI Emoji" font-size="102.51996108799338px" fill="#1e1e1e" text-anchor="start" style="white-space: pre;" direction="ltr" dominant-baseline="alphabetic">A B C D...</text></g><g stroke-opacity="0.4" fill-opacity="0.4" transform="translate(3888.1827234717575 615.2699229399948) rotate(0 227.844482421875 58.9489776255962)"><text x="0" y="86.6313694623444" font-family="Helvetica, Segoe UI Emoji" font-size="102.51996108799338px" fill="#1e1e1e" text-anchor="start" style="white-space: pre;" direction="ltr" dominant-baseline="alphabetic">A B C D...</text></g><g stroke-opacity="0.4" fill-opacity="0.4" transform="translate(732.4073656740653 615.269923091392) rotate(0 285.61895751953125 58.9489776255962)"><text x="0" y="86.6313694623444" font-family="Helvetica, Segoe UI Emoji" font-size="102.51996108799338px" fill="#1e1e1e" text-anchor="start" style="white-space: pre;" direction="ltr" dominant-baseline="alphabetic">...V W X Y Z</text></g><g stroke-linecap="round"><g transform="translate(3697.102774311412 229.49414393053934) rotate(0 200.79223732568448 187.34353463291663)"><path d="M0 0 C66.93 62.45, 334.65 312.24, 401.58 374.69 M0 0 C66.93 62.45, 334.65 312.24, 401.58 374.69" stroke="#1971c2" stroke-width="2" fill="none"></path></g><g transform="translate(3697.102774311412 229.49414393053934) rotate(0 200.79223732568448 187.34353463291663)"><path d="M378.57 364.91 C385.6 367.9, 392.62 370.88, 401.58 374.69 M378.57 364.91 C386.94 368.47, 395.3 372.02, 401.58 374.69" stroke="#1971c2" stroke-width="2" fill="none"></path></g><g transform="translate(3697.102774311412 229.49414393053934) rotate(0 200.79223732568448 187.34353463291663)"><path d="M390.24 352.41 C393.7 359.21, 397.16 366.01, 401.58 374.69 M390.24 352.41 C394.36 360.51, 398.49 368.6, 401.58 374.69" stroke="#1971c2" stroke-width="2" fill="none"></path></g></g><mask></mask><g transform="translate(3945.350497295664 310.3289375573744) rotate(0 82.9067153930664 82.52856867583466)"><text x="0" y="121.28391724728216" font-family="Helvetica, Segoe UI Emoji" font-size="143.52794552319074px" fill="#1971c2" text-anchor="start" style="white-space: pre;" direction="ltr" dominant-baseline="alphabetic">+5</text></g><g stroke-linecap="round"><g stroke-opacity="0.4" fill-opacity="0.4" transform="translate(1318.5762089922098 9.999999999999943) rotate(0 -1.7053025658242404e-13 406.83779177657436)"><path d="M0 0 C0 135.61, 0 678.06, 0 813.68" stroke="#1e1e1e" stroke-width="1" fill="none" stroke-dasharray="8 8.5"></path></g></g><mask></mask><g stroke-linecap="round"><g stroke-opacity="0.4" fill-opacity="0.4" transform="translate(3870.131913850456 10.000001762991872) rotate(0 -2.2737367544323206e-13 406.8377917765745)"><path d="M0 0 C0 135.61, 0 678.06, 0 813.68" stroke="#1e1e1e" stroke-width="1" fill="none" stroke-dasharray="8 8.5"></path></g></g><mask></mask></svg>