<svg version="1.1" xmlns="http://www.w3.org/2000/svg" viewBox="0 0 712.4866434607268 240.80246433940022" width="712.4866434607268" height="240.80246433940022" filter="invert(93%) hue-rotate(180deg)" class="excalidraw-svg">
  <!-- svg-source:excalidraw -->
  
  <defs>
    <style class="style-fonts">
      
    </style>
    
  </defs>
  <g transform="translate(240.49527494130086 109.0879153086849) rotate(0 7.5 11.5)"><text x="0" y="16.900390625" font-family="Helvetica, Segoe UI Emoji" font-size="20px" fill="#1e1e1e" text-anchor="start" style="white-space: pre;" direction="ltr" dominant-baseline="alphabetic">A</text></g><g transform="translate(453.2952625623946 109.08791510165364) rotate(0 11.123046875 11.5)"><text x="0" y="16.900390625" font-family="Helvetica, Segoe UI Emoji" font-size="20px" fill="#1e1e1e" text-anchor="start" style="white-space: pre;" direction="ltr" dominant-baseline="alphabetic">65</text></g><g transform="translate(323.00735990223836 28.787896998138024) rotate(0 35.052734375 11.5)"><text x="0" y="16.900390625" font-family="Helvetica, Segoe UI Emoji" font-size="20px" fill="#2f9e44" text-anchor="start" style="white-space: pre;" direction="ltr" dominant-baseline="alphabetic">ord("A")</text></g><g transform="translate(326.21536771473836 191.98790920516927) rotate(0 31.8447265625 11.5)"><text x="0" y="16.900390625" font-family="Helvetica, Segoe UI Emoji" font-size="20px" fill="#e03131" text-anchor="start" style="white-space: pre;" direction="ltr" dominant-baseline="alphabetic">chr(65)</text></g><g stroke-linecap="round"><g transform="translate(253.2952627342696 102.68792141220052) rotate(0 104.00006103515625 -21.600006103515625)"><path d="M0 0 C8.13 -5.47, 31.73 -25.6, 48.8 -32.8 C65.87 -40, 84.4 -43.47, 102.4 -43.2 C120.4 -42.93, 139.2 -38.13, 156.8 -31.2 C174.4 -24.27, 199.47 -6.53, 208 -1.6 M0 0 C8.13 -5.47, 31.73 -25.6, 48.8 -32.8 C65.87 -40, 84.4 -43.47, 102.4 -43.2 C120.4 -42.93, 139.2 -38.13, 156.8 -31.2 C174.4 -24.27, 199.47 -6.53, 208 -1.6" stroke="#2f9e44" stroke-width="2" fill="none"></path></g><g transform="translate(253.2952627342696 102.68792141220052) rotate(0 104.00006103515625 -21.600006103515625)"><path d="M208 -1.6 L193.12 -3.5 L199.89 -14.22 L208 -1.6" stroke="none" stroke-width="0" fill="#2f9e44" fill-rule="evenodd"></path><path d="M208 -1.6 C203.23 -2.21, 198.47 -2.82, 193.12 -3.5 M208 -1.6 C203.23 -2.21, 198.47 -2.82, 193.12 -3.5 M193.12 -3.5 C195.06 -6.57, 197 -9.63, 199.89 -14.22 M193.12 -3.5 C195.13 -6.68, 197.13 -9.85, 199.89 -14.22 M199.89 -14.22 C202.27 -10.51, 204.65 -6.81, 208 -1.6 M199.89 -14.22 C202.36 -10.37, 204.83 -6.53, 208 -1.6 M208 -1.6 C208 -1.6, 208 -1.6, 208 -1.6 M208 -1.6 C208 -1.6, 208 -1.6, 208 -1.6" stroke="#2f9e44" stroke-width="2" fill="none"></path></g></g><mask></mask><g stroke-linecap="round"><g transform="translate(246.09525052723836 182.69503381759125) rotate(180 104.00006103515625 -21.600006103515625)"><path d="M0 0 C8.13 -5.47, 31.73 -25.6, 48.8 -32.8 C65.87 -40, 84.4 -43.47, 102.4 -43.2 C120.4 -42.93, 139.2 -38.13, 156.8 -31.2 C174.4 -24.27, 199.47 -6.53, 208 -1.6 M0 0 C8.13 -5.47, 31.73 -25.6, 48.8 -32.8 C65.87 -40, 84.4 -43.47, 102.4 -43.2 C120.4 -42.93, 139.2 -38.13, 156.8 -31.2 C174.4 -24.27, 199.47 -6.53, 208 -1.6" stroke="#e03131" stroke-width="2" fill="none"></path></g><g transform="translate(246.09525052723836 182.69503381759125) rotate(180 104.00006103515625 -21.600006103515625)"><path d="M208 -1.6 L193.12 -3.5 L199.89 -14.22 L208 -1.6" stroke="none" stroke-width="0" fill="#e03131" fill-rule="evenodd"></path><path d="M208 -1.6 C203.09 -2.23, 198.19 -2.85, 193.12 -3.5 M208 -1.6 C203.25 -2.21, 198.5 -2.81, 193.12 -3.5 M193.12 -3.5 C194.91 -6.33, 196.7 -9.16, 199.89 -14.22 M193.12 -3.5 C195.62 -7.45, 198.11 -11.4, 199.89 -14.22 M199.89 -14.22 C201.71 -11.38, 203.53 -8.55, 208 -1.6 M199.89 -14.22 C201.85 -11.16, 203.82 -8.11, 208 -1.6 M208 -1.6 C208 -1.6, 208 -1.6, 208 -1.6 M208 -1.6 C208 -1.6, 208 -1.6, 208 -1.6" stroke="#e03131" stroke-width="2" fill="none"></path></g></g><mask></mask><g stroke-linecap="round" transform="translate(10 10) rotate(0 346.2433217303634 110.40123216970011)"><path d="M32 0 C212.97 0, 393.94 0, 660.49 0 M32 0 C282.72 0, 533.43 0, 660.49 0 M660.49 0 C681.82 0, 692.49 10.67, 692.49 32 M660.49 0 C681.82 0, 692.49 10.67, 692.49 32 M692.49 32 C692.49 66.16, 692.49 100.31, 692.49 188.8 M692.49 32 C692.49 89.83, 692.49 147.67, 692.49 188.8 M692.49 188.8 C692.49 210.14, 681.82 220.8, 660.49 220.8 M692.49 188.8 C692.49 210.14, 681.82 220.8, 660.49 220.8 M660.49 220.8 C479.13 220.8, 297.77 220.8, 32 220.8 M660.49 220.8 C523.47 220.8, 386.45 220.8, 32 220.8 M32 220.8 C10.67 220.8, 0 210.14, 0 188.8 M32 220.8 C10.67 220.8, 0 210.14, 0 188.8 M0 188.8 C0 131.02, 0 73.24, 0 32 M0 188.8 C0 128.7, 0 68.59, 0 32 M0 32 C0 10.67, 10.67 0, 32 0 M0 32 C0 10.67, 10.67 0, 32 0" stroke="#1971c2" stroke-width="0.5" fill="none"></path></g></svg>