<svg version="1.1" xmlns="http://www.w3.org/2000/svg" viewBox="0 0 844.5883209089102 607.9999847412109" width="844.5883209089102" height="607.9999847412109" class="excalidraw-svg">
  <!-- svg-source:excalidraw -->
  
  <defs>
    <style class="style-fonts">
      @font-face {
        font-family: "Virgil";
        src: url("https://excalidraw.com/Virgil.woff2");
      }
      @font-face {
        font-family: "Cascadia";
        src: url("https://excalidraw.com/Cascadia.woff2");
      }
      @font-face {
        font-family: "Assistant";
        src: url("https://excalidraw.com/Assistant-Regular.woff2");
      }
    </style>
    
  </defs>
  <g stroke-linecap="round" transform="translate(10 10) rotate(0 247.5999755859375 293.99999237060547)"><path d="M32 0 C199.07 0, 366.14 0, 463.2 0 C484.53 0, 495.2 10.67, 495.2 32 C495.2 165.24, 495.2 298.48, 495.2 556 C495.2 577.33, 484.53 588, 463.2 588 C317.17 588, 171.14 588, 32 588 C10.67 588, 0 577.33, 0 556 C0 370.66, 0 185.33, 0 32 C0 10.67, 10.67 0, 32 0" stroke="none" stroke-width="0" fill="#b2f2bb"/><path d="M32 0 C133.32 0, 234.63 0, 463.2 0 M32 0 C133.46 0, 234.93 0, 463.2 0 M463.2 0 C484.53 0, 495.2 10.67, 495.2 32 M463.2 0 C484.53 0, 495.2 10.67, 495.2 32 M495.2 32 C495.2 148.56, 495.2 265.12, 495.2 556 M495.2 32 C495.2 202.39, 495.2 372.77, 495.2 556 M495.2 556 C495.2 577.33, 484.53 588, 463.2 588 M495.2 556 C495.2 577.33, 484.53 588, 463.2 588 M463.2 588 C298.14 588, 133.09 588, 32 588 M463.2 588 C319.06 588, 174.91 588, 32 588 M32 588 C10.67 588, 0 577.33, 0 556 M32 588 C10.67 588, 0 577.33, 0 556 M0 556 C0 406.87, 0 257.73, 0 32 M0 556 C0 418.47, 0 280.94, 0 32 M0 32 C0 10.67, 10.67 0, 32 0 M0 32 C0 10.67, 10.67 0, 32 0" stroke="#1e1e1e" stroke-width="2" fill="none"/></g><g stroke-linecap="round" transform="translate(111.5999755859375 112.40000915527344) rotate(0 66.39999389648438 69.19999694824219)"><path d="M32 0 C58.69 0, 85.37 0, 100.8 0 C122.13 0, 132.8 10.67, 132.8 32 C132.8 59.28, 132.8 86.57, 132.8 106.4 C132.8 127.73, 122.13 138.4, 100.8 138.4 C79.8 138.4, 58.8 138.4, 32 138.4 C10.67 138.4, 0 127.73, 0 106.4 C0 78.26, 0 50.12, 0 32 C0 10.67, 10.67 0, 32 0" stroke="none" stroke-width="0" fill="#a5d8ff"/><path d="M32 0 C51.1 0, 70.2 0, 100.8 0 M32 0 C51.08 0, 70.16 0, 100.8 0 M100.8 0 C122.13 0, 132.8 10.67, 132.8 32 M100.8 0 C122.13 0, 132.8 10.67, 132.8 32 M132.8 32 C132.8 49.11, 132.8 66.23, 132.8 106.4 M132.8 32 C132.8 59.64, 132.8 87.27, 132.8 106.4 M132.8 106.4 C132.8 127.73, 122.13 138.4, 100.8 138.4 M132.8 106.4 C132.8 127.73, 122.13 138.4, 100.8 138.4 M100.8 138.4 C80.12 138.4, 59.44 138.4, 32 138.4 M100.8 138.4 C80.75 138.4, 60.7 138.4, 32 138.4 M32 138.4 C10.67 138.4, 0 127.73, 0 106.4 M32 138.4 C10.67 138.4, 0 127.73, 0 106.4 M0 106.4 C0 78.72, 0 51.04, 0 32 M0 106.4 C0 87.73, 0 69.06, 0 32 M0 32 C0 10.67, 10.67 0, 32 0 M0 32 C0 10.67, 10.67 0, 32 0" stroke="#1e1e1e" stroke-width="2" fill="none"/></g><g stroke-linecap="round" transform="translate(320.39996337890625 53.19999694824219) rotate(0 14 130)"><path d="M7 0 C11.6 0, 16.2 0, 21 0 C25.67 0, 28 2.33, 28 7 C28 76.65, 28 146.29, 28 253 C28 257.67, 25.67 260, 21 260 C16.97 260, 12.94 260, 7 260 C2.33 260, 0 257.67, 0 253 C0 155.16, 0 57.32, 0 7 C0 2.33, 2.33 0, 7 0" stroke="none" stroke-width="0" fill="#a5d8ff"/><path d="M7 0 C9.86 0, 12.73 0, 21 0 M7 0 C12.48 0, 17.96 0, 21 0 M21 0 C25.67 0, 28 2.33, 28 7 M21 0 C25.67 0, 28 2.33, 28 7 M28 7 C28 99.6, 28 192.2, 28 253 M28 7 C28 99.31, 28 191.62, 28 253 M28 253 C28 257.67, 25.67 260, 21 260 M28 253 C28 257.67, 25.67 260, 21 260 M21 260 C15.65 260, 10.31 260, 7 260 M21 260 C17.25 260, 13.49 260, 7 260 M7 260 C2.33 260, 0 257.67, 0 253 M7 260 C2.33 260, 0 257.67, 0 253 M0 253 C0 201.49, 0 149.98, 0 7 M0 253 C0 201.09, 0 149.19, 0 7 M0 7 C0 2.33, 2.33 0, 7 0 M0 7 C0 2.33, 2.33 0, 7 0" stroke="#1e1e1e" stroke-width="2" fill="none"/></g><g stroke-linecap="round" transform="translate(21.20001220703125 397.04774828346615) rotate(0 187.67473525479159 22.494667897426723)"><path d="M11.25 0 C118.08 0, 224.91 0, 364.1 0 C371.6 0, 375.35 3.75, 375.35 11.25 C375.35 17.15, 375.35 23.06, 375.35 33.74 C375.35 41.24, 371.6 44.99, 364.1 44.99 C272.5 44.99, 180.89 44.99, 11.25 44.99 C3.75 44.99, 0 41.24, 0 33.74 C0 26.08, 0 18.41, 0 11.25 C0 3.75, 3.75 0, 11.25 0" stroke="none" stroke-width="0" fill="#a5d8ff"/><path d="M11.25 0 C146.61 0, 281.98 0, 364.1 0 M11.25 0 C86.45 0, 161.65 0, 364.1 0 M364.1 0 C371.6 0, 375.35 3.75, 375.35 11.25 M364.1 0 C371.6 0, 375.35 3.75, 375.35 11.25 M375.35 11.25 C375.35 18.46, 375.35 25.68, 375.35 33.74 M375.35 11.25 C375.35 16.26, 375.35 21.27, 375.35 33.74 M375.35 33.74 C375.35 41.24, 371.6 44.99, 364.1 44.99 M375.35 33.74 C375.35 41.24, 371.6 44.99, 364.1 44.99 M364.1 44.99 C238.34 44.99, 112.57 44.99, 11.25 44.99 M364.1 44.99 C230.33 44.99, 96.55 44.99, 11.25 44.99 M11.25 44.99 C3.75 44.99, 0 41.24, 0 33.74 M11.25 44.99 C3.75 44.99, 0 41.24, 0 33.74 M0 33.74 C0 27.33, 0 20.91, 0 11.25 M0 33.74 C0 27.67, 0 21.59, 0 11.25 M0 11.25 C0 3.75, 3.75 0, 11.25 0 M0 11.25 C0 3.75, 3.75 0, 11.25 0" stroke="#1e1e1e" stroke-width="2" fill="none"/></g><g stroke-linecap="round" transform="translate(528.4000242070313 455.59996032714844) rotate(0 152.39999389648438 71.20001220703125)"><path d="M32 0 C118.44 0, 204.87 0, 272.8 0 C294.13 0, 304.8 10.67, 304.8 32 C304.8 48.95, 304.8 65.9, 304.8 110.4 C304.8 131.73, 294.13 142.4, 272.8 142.4 C214.14 142.4, 155.49 142.4, 32 142.4 C10.67 142.4, 0 131.73, 0 110.4 C0 85.09, 0 59.78, 0 32 C0 10.67, 10.67 0, 32 0" stroke="none" stroke-width="0" fill="#a5d8ff"/><path d="M32 0 C120.57 0, 209.15 0, 272.8 0 M32 0 C95.18 0, 158.37 0, 272.8 0 M272.8 0 C294.13 0, 304.8 10.67, 304.8 32 M272.8 0 C294.13 0, 304.8 10.67, 304.8 32 M304.8 32 C304.8 51.07, 304.8 70.14, 304.8 110.4 M304.8 32 C304.8 61.52, 304.8 91.05, 304.8 110.4 M304.8 110.4 C304.8 131.73, 294.13 142.4, 272.8 142.4 M304.8 110.4 C304.8 131.73, 294.13 142.4, 272.8 142.4 M272.8 142.4 C201.71 142.4, 130.61 142.4, 32 142.4 M272.8 142.4 C183.27 142.4, 93.74 142.4, 32 142.4 M32 142.4 C10.67 142.4, 0 131.73, 0 110.4 M32 142.4 C10.67 142.4, 0 131.73, 0 110.4 M0 110.4 C0 85.25, 0 60.09, 0 32 M0 110.4 C0 89.29, 0 68.18, 0 32 M0 32 C0 10.67, 10.67 0, 32 0 M0 32 C0 10.67, 10.67 0, 32 0" stroke="#1e1e1e" stroke-width="0.5" fill="none"/></g><g stroke-linecap="round" transform="translate(468.99471164303475 337.45822020156896) rotate(0 10.79998779296875 49.600006103515625)"><path d="M5.4 0 C8.38 0, 11.37 0, 16.2 0 C19.8 0, 21.6 1.8, 21.6 5.4 C21.6 27.41, 21.6 49.43, 21.6 93.8 C21.6 97.4, 19.8 99.2, 16.2 99.2 C12.94 99.2, 9.68 99.2, 5.4 99.2 C1.8 99.2, 0 97.4, 0 93.8 C0 75.49, 0 57.17, 0 5.4 C0 1.8, 1.8 0, 5.4 0" stroke="none" stroke-width="0" fill="#ffec99"/><path d="M5.4 0 C8.95 0, 12.49 0, 16.2 0 M5.4 0 C7.94 0, 10.49 0, 16.2 0 M16.2 0 C19.8 0, 21.6 1.8, 21.6 5.4 M16.2 0 C19.8 0, 21.6 1.8, 21.6 5.4 M21.6 5.4 C21.6 29.64, 21.6 53.88, 21.6 93.8 M21.6 5.4 C21.6 23.37, 21.6 41.35, 21.6 93.8 M21.6 93.8 C21.6 97.4, 19.8 99.2, 16.2 99.2 M21.6 93.8 C21.6 97.4, 19.8 99.2, 16.2 99.2 M16.2 99.2 C12.04 99.2, 7.88 99.2, 5.4 99.2 M16.2 99.2 C12.09 99.2, 7.99 99.2, 5.4 99.2 M5.4 99.2 C1.8 99.2, 0 97.4, 0 93.8 M5.4 99.2 C1.8 99.2, 0 97.4, 0 93.8 M0 93.8 C0 62.12, 0 30.43, 0 5.4 M0 93.8 C0 73.64, 0 53.48, 0 5.4 M0 5.4 C0 1.8, 1.8 0, 5.4 0 M0 5.4 C0 1.8, 1.8 0, 5.4 0" stroke="#1e1e1e" stroke-width="0.5" fill="none"/></g><g stroke-linecap="round" transform="translate(529.7883331159414 174.04707077467413) rotate(0 152.39999389648438 35.258816145639855)"><path d="M17.63 0 C116.75 0, 215.88 0, 287.17 0 C298.92 0, 304.8 5.88, 304.8 17.63 C304.8 29.44, 304.8 41.24, 304.8 52.89 C304.8 64.64, 298.92 70.52, 287.17 70.52 C181.05 70.52, 74.92 70.52, 17.63 70.52 C5.88 70.52, 0 64.64, 0 52.89 C0 40.67, 0 28.45, 0 17.63 C0 5.88, 5.88 0, 17.63 0" stroke="none" stroke-width="0" fill="#a5d8ff"/><path d="M17.63 0 C83.69 0, 149.75 0, 287.17 0 M17.63 0 C101.78 0, 185.93 0, 287.17 0 M287.17 0 C298.92 0, 304.8 5.88, 304.8 17.63 M287.17 0 C298.92 0, 304.8 5.88, 304.8 17.63 M304.8 17.63 C304.8 29.14, 304.8 40.66, 304.8 52.89 M304.8 17.63 C304.8 25.01, 304.8 32.4, 304.8 52.89 M304.8 52.89 C304.8 64.64, 298.92 70.52, 287.17 70.52 M304.8 52.89 C304.8 64.64, 298.92 70.52, 287.17 70.52 M287.17 70.52 C199.72 70.52, 112.27 70.52, 17.63 70.52 M287.17 70.52 C203.25 70.52, 119.33 70.52, 17.63 70.52 M17.63 70.52 C5.88 70.52, 0 64.64, 0 52.89 M17.63 70.52 C5.88 70.52, 0 64.64, 0 52.89 M0 52.89 C0 43.18, 0 33.46, 0 17.63 M0 52.89 C0 42.71, 0 32.54, 0 17.63 M0 17.63 C0 5.88, 5.88 0, 17.63 0 M0 17.63 C0 5.88, 5.88 0, 17.63 0" stroke="#1e1e1e" stroke-width="0.5" fill="none"/></g><g stroke-linecap="round" transform="translate(479.39996337890625 228.44996643066406) rotate(0 4.79998779296875 14.800018310546875)"><path d="M2.4 0 C3.39 0, 4.37 0, 7.2 0 C8.8 0, 9.6 0.8, 9.6 2.4 C9.6 10.64, 9.6 18.88, 9.6 27.2 C9.6 28.8, 8.8 29.6, 7.2 29.6 C5.55 29.6, 3.9 29.6, 2.4 29.6 C0.8 29.6, 0 28.8, 0 27.2 C0 21.93, 0 16.66, 0 2.4 C0 0.8, 0.8 0, 2.4 0" stroke="none" stroke-width="0" fill="#ffec99"/><path d="M2.4 0 C3.83 0, 5.25 0, 7.2 0 M2.4 0 C3.64 0, 4.88 0, 7.2 0 M7.2 0 C8.8 0, 9.6 0.8, 9.6 2.4 M7.2 0 C8.8 0, 9.6 0.8, 9.6 2.4 M9.6 2.4 C9.6 10.4, 9.6 18.4, 9.6 27.2 M9.6 2.4 C9.6 10.13, 9.6 17.87, 9.6 27.2 M9.6 27.2 C9.6 28.8, 8.8 29.6, 7.2 29.6 M9.6 27.2 C9.6 28.8, 8.8 29.6, 7.2 29.6 M7.2 29.6 C5.4 29.6, 3.61 29.6, 2.4 29.6 M7.2 29.6 C5.62 29.6, 4.05 29.6, 2.4 29.6 M2.4 29.6 C0.8 29.6, 0 28.8, 0 27.2 M2.4 29.6 C0.8 29.6, 0 28.8, 0 27.2 M0 27.2 C0 20.84, 0 14.49, 0 2.4 M0 27.2 C0 20.17, 0 13.13, 0 2.4 M0 2.4 C0 0.8, 0.8 0, 2.4 0 M0 2.4 C0 0.8, 0.8 0, 2.4 0" stroke="#1e1e1e" stroke-width="0.5" fill="none"/></g><g stroke-linecap="round" transform="translate(479.39996279296884 195.19999663769534) rotate(0 4.79998779296875 14.800018310546875)"><path d="M2.4 0 C3.6 0, 4.79 0, 7.2 0 C8.8 0, 9.6 0.8, 9.6 2.4 C9.6 10.72, 9.6 19.05, 9.6 27.2 C9.6 28.8, 8.8 29.6, 7.2 29.6 C5.74 29.6, 4.27 29.6, 2.4 29.6 C0.8 29.6, 0 28.8, 0 27.2 C0 21.22, 0 15.23, 0 2.4 C0 0.8, 0.8 0, 2.4 0" stroke="none" stroke-width="0" fill="#ffec99"/><path d="M2.4 0 C3.76 0, 5.13 0, 7.2 0 M2.4 0 C4.08 0, 5.75 0, 7.2 0 M7.2 0 C8.8 0, 9.6 0.8, 9.6 2.4 M7.2 0 C8.8 0, 9.6 0.8, 9.6 2.4 M9.6 2.4 C9.6 7.57, 9.6 12.75, 9.6 27.2 M9.6 2.4 C9.6 7.66, 9.6 12.92, 9.6 27.2 M9.6 27.2 C9.6 28.8, 8.8 29.6, 7.2 29.6 M9.6 27.2 C9.6 28.8, 8.8 29.6, 7.2 29.6 M7.2 29.6 C5.44 29.6, 3.68 29.6, 2.4 29.6 M7.2 29.6 C5.57 29.6, 3.94 29.6, 2.4 29.6 M2.4 29.6 C0.8 29.6, 0 28.8, 0 27.2 M2.4 29.6 C0.8 29.6, 0 28.8, 0 27.2 M0 27.2 C0 22.23, 0 17.26, 0 2.4 M0 27.2 C0 18.73, 0 10.26, 0 2.4 M0 2.4 C0 0.8, 0.8 0, 2.4 0 M0 2.4 C0 0.8, 0.8 0, 2.4 0" stroke="#1e1e1e" stroke-width="0.5" fill="none"/></g><g stroke-linecap="round" transform="translate(467.28960759554315 195.1035249333357) rotate(0 4.79998779296875 14.800018310546875)"><path d="M2.4 0 C4.01 0, 5.61 0, 7.2 0 C8.8 0, 9.6 0.8, 9.6 2.4 C9.6 8.67, 9.6 14.93, 9.6 27.2 C9.6 28.8, 8.8 29.6, 7.2 29.6 C5.49 29.6, 3.78 29.6, 2.4 29.6 C0.8 29.6, 0 28.8, 0 27.2 C0 21.46, 0 15.72, 0 2.4 C0 0.8, 0.8 0, 2.4 0" stroke="none" stroke-width="0" fill="#ffec99"/><path d="M2.4 0 C3.79 0, 5.17 0, 7.2 0 M2.4 0 C3.63 0, 4.86 0, 7.2 0 M7.2 0 C8.8 0, 9.6 0.8, 9.6 2.4 M7.2 0 C8.8 0, 9.6 0.8, 9.6 2.4 M9.6 2.4 C9.6 8.55, 9.6 14.71, 9.6 27.2 M9.6 2.4 C9.6 11.12, 9.6 19.84, 9.6 27.2 M9.6 27.2 C9.6 28.8, 8.8 29.6, 7.2 29.6 M9.6 27.2 C9.6 28.8, 8.8 29.6, 7.2 29.6 M7.2 29.6 C5.37 29.6, 3.54 29.6, 2.4 29.6 M7.2 29.6 C5.95 29.6, 4.7 29.6, 2.4 29.6 M2.4 29.6 C0.8 29.6, 0 28.8, 0 27.2 M2.4 29.6 C0.8 29.6, 0 28.8, 0 27.2 M0 27.2 C0 18.83, 0 10.45, 0 2.4 M0 27.2 C0 17.46, 0 7.72, 0 2.4 M0 2.4 C0 0.8, 0.8 0, 2.4 0 M0 2.4 C0 0.8, 0.8 0, 2.4 0" stroke="#1e1e1e" stroke-width="0.5" fill="none"/></g><g stroke-linecap="round" transform="translate(467.28960845548346 228.44996678551547) rotate(0 4.79998779296875 14.800018310546875)"><path d="M2.4 0 C4.07 0, 5.74 0, 7.2 0 C8.8 0, 9.6 0.8, 9.6 2.4 C9.6 7.49, 9.6 12.59, 9.6 27.2 C9.6 28.8, 8.8 29.6, 7.2 29.6 C5.55 29.6, 3.9 29.6, 2.4 29.6 C0.8 29.6, 0 28.8, 0 27.2 C0 21.5, 0 15.79, 0 2.4 C0 0.8, 0.8 0, 2.4 0" stroke="none" stroke-width="0" fill="#ffec99"/><path d="M2.4 0 C3.72 0, 5.04 0, 7.2 0 M2.4 0 C3.47 0, 4.53 0, 7.2 0 M7.2 0 C8.8 0, 9.6 0.8, 9.6 2.4 M7.2 0 C8.8 0, 9.6 0.8, 9.6 2.4 M9.6 2.4 C9.6 10.71, 9.6 19.01, 9.6 27.2 M9.6 2.4 C9.6 9.41, 9.6 16.43, 9.6 27.2 M9.6 27.2 C9.6 28.8, 8.8 29.6, 7.2 29.6 M9.6 27.2 C9.6 28.8, 8.8 29.6, 7.2 29.6 M7.2 29.6 C5.57 29.6, 3.95 29.6, 2.4 29.6 M7.2 29.6 C5.78 29.6, 4.36 29.6, 2.4 29.6 M2.4 29.6 C0.8 29.6, 0 28.8, 0 27.2 M2.4 29.6 C0.8 29.6, 0 28.8, 0 27.2 M0 27.2 C0 19.92, 0 12.64, 0 2.4 M0 27.2 C0 19.19, 0 11.18, 0 2.4 M0 2.4 C0 0.8, 0.8 0, 2.4 0 M0 2.4 C0 0.8, 0.8 0, 2.4 0" stroke="#1e1e1e" stroke-width="0.5" fill="none"/></g><g stroke-linecap="round" transform="translate(385.72119222750956 501.51518180153585) rotate(0 33.69696414831912 30.5)"><path d="M67.39 30.5 C67.39 32.09, 67.25 33.7, 66.98 35.27 C66.7 36.84, 66.29 38.41, 65.74 39.93 C65.2 41.44, 64.52 42.93, 63.72 44.35 C62.92 45.76, 61.99 47.14, 60.96 48.43 C59.93 49.71, 58.77 50.94, 57.52 52.07 C56.28 53.19, 54.93 54.24, 53.5 55.18 C52.08 56.11, 50.56 56.95, 49 57.68 C47.43 58.4, 45.78 59.02, 44.11 59.51 C42.44 60, 40.7 60.38, 38.97 60.62 C37.23 60.87, 35.45 61, 33.7 61 C31.94 61, 30.16 60.87, 28.43 60.62 C26.69 60.38, 24.96 60, 23.28 59.51 C21.61 59.02, 19.96 58.4, 18.4 57.68 C16.83 56.95, 15.31 56.11, 13.89 55.18 C12.47 54.24, 11.11 53.19, 9.87 52.07 C8.63 50.94, 7.47 49.71, 6.44 48.43 C5.4 47.14, 4.47 45.76, 3.67 44.35 C2.88 42.93, 2.19 41.44, 1.65 39.93 C1.11 38.41, 0.69 36.84, 0.41 35.27 C0.14 33.7, 0 32.09, 0 30.5 C0 28.91, 0.14 27.3, 0.41 25.73 C0.69 24.16, 1.11 22.59, 1.65 21.07 C2.19 19.56, 2.88 18.07, 3.67 16.65 C4.47 15.24, 5.4 13.86, 6.44 12.57 C7.47 11.29, 8.63 10.06, 9.87 8.93 C11.11 7.81, 12.47 6.76, 13.89 5.82 C15.31 4.89, 16.83 4.05, 18.4 3.32 C19.96 2.6, 21.61 1.98, 23.28 1.49 C24.96 1, 26.69 0.62, 28.43 0.38 C30.16 0.13, 31.94 0, 33.7 0 C35.45 0, 37.23 0.13, 38.97 0.38 C40.7 0.62, 42.44 1, 44.11 1.49 C45.78 1.98, 47.43 2.6, 49 3.32 C50.56 4.05, 52.08 4.89, 53.5 5.82 C54.93 6.76, 56.28 7.81, 57.52 8.93 C58.77 10.06, 59.93 11.29, 60.96 12.57 C61.99 13.86, 62.92 15.24, 63.72 16.65 C64.52 18.07, 65.2 19.56, 65.74 21.07 C66.29 22.59, 66.7 24.16, 66.98 25.73 C67.25 27.3, 67.32 29.7, 67.39 30.5 C67.46 31.3, 67.46 29.7, 67.39 30.5" stroke="none" stroke-width="0" fill="#a1a1a1"/><path d="M67.39 30.5 C67.39 32.09, 67.25 33.7, 66.98 35.27 C66.7 36.84, 66.29 38.41, 65.74 39.93 C65.2 41.44, 64.52 42.93, 63.72 44.35 C62.92 45.76, 61.99 47.14, 60.96 48.43 C59.93 49.71, 58.77 50.94, 57.52 52.07 C56.28 53.19, 54.93 54.24, 53.5 55.18 C52.08 56.11, 50.56 56.95, 49 57.68 C47.43 58.4, 45.78 59.02, 44.11 59.51 C42.44 60, 40.7 60.38, 38.97 60.62 C37.23 60.87, 35.45 61, 33.7 61 C31.94 61, 30.16 60.87, 28.43 60.62 C26.69 60.38, 24.96 60, 23.28 59.51 C21.61 59.02, 19.96 58.4, 18.4 57.68 C16.83 56.95, 15.31 56.11, 13.89 55.18 C12.47 54.24, 11.11 53.19, 9.87 52.07 C8.63 50.94, 7.47 49.71, 6.44 48.43 C5.4 47.14, 4.47 45.76, 3.67 44.35 C2.88 42.93, 2.19 41.44, 1.65 39.93 C1.11 38.41, 0.69 36.84, 0.41 35.27 C0.14 33.7, 0 32.09, 0 30.5 C0 28.91, 0.14 27.3, 0.41 25.73 C0.69 24.16, 1.11 22.59, 1.65 21.07 C2.19 19.56, 2.88 18.07, 3.67 16.65 C4.47 15.24, 5.4 13.86, 6.44 12.57 C7.47 11.29, 8.63 10.06, 9.87 8.93 C11.11 7.81, 12.47 6.76, 13.89 5.82 C15.31 4.89, 16.83 4.05, 18.4 3.32 C19.96 2.6, 21.61 1.98, 23.28 1.49 C24.96 1, 26.69 0.62, 28.43 0.38 C30.16 0.13, 31.94 0, 33.7 0 C35.45 0, 37.23 0.13, 38.97 0.38 C40.7 0.62, 42.44 1, 44.11 1.49 C45.78 1.98, 47.43 2.6, 49 3.32 C50.56 4.05, 52.08 4.89, 53.5 5.82 C54.93 6.76, 56.28 7.81, 57.52 8.93 C58.77 10.06, 59.93 11.29, 60.96 12.57 C61.99 13.86, 62.92 15.24, 63.72 16.65 C64.52 18.07, 65.2 19.56, 65.74 21.07 C66.29 22.59, 66.7 24.16, 66.98 25.73 C67.25 27.3, 67.32 29.7, 67.39 30.5 C67.46 31.3, 67.46 29.7, 67.39 30.5" stroke="#1e1e1e" stroke-width="4" fill="none"/></g><g transform="translate(411.8046717086523 515.8484249753461) rotate(0 7.7861328125 16.099999999999994)"><text x="7.7861328125" y="25.760546874999996" font-family="Helvetica, Segoe UI Emoji" font-size="28px" fill="#1e1e1e" text-anchor="middle" style="white-space: pre;" direction="ltr" dominant-baseline="alphabetic">1</text></g><g stroke-linecap="round" transform="translate(142.81211796437032 141.68181517629912) rotate(0 33.696964148319125 30.5)"><path d="M67.39 30.5 C67.39 32.09, 67.25 33.7, 66.98 35.27 C66.7 36.84, 66.29 38.41, 65.74 39.93 C65.2 41.44, 64.52 42.93, 63.72 44.35 C62.92 45.76, 61.99 47.14, 60.96 48.43 C59.93 49.71, 58.77 50.94, 57.52 52.07 C56.28 53.19, 54.93 54.24, 53.5 55.18 C52.08 56.11, 50.56 56.95, 49 57.68 C47.43 58.4, 45.78 59.02, 44.11 59.51 C42.44 60, 40.7 60.38, 38.97 60.62 C37.23 60.87, 35.45 61, 33.7 61 C31.94 61, 30.16 60.87, 28.43 60.62 C26.69 60.38, 24.96 60, 23.28 59.51 C21.61 59.02, 19.96 58.4, 18.4 57.68 C16.83 56.95, 15.31 56.11, 13.89 55.18 C12.47 54.24, 11.11 53.19, 9.87 52.07 C8.63 50.94, 7.47 49.71, 6.44 48.43 C5.4 47.14, 4.47 45.76, 3.67 44.35 C2.88 42.93, 2.19 41.44, 1.65 39.93 C1.11 38.41, 0.69 36.84, 0.41 35.27 C0.14 33.7, 0 32.09, 0 30.5 C0 28.91, 0.14 27.3, 0.41 25.73 C0.69 24.16, 1.11 22.59, 1.65 21.07 C2.19 19.56, 2.88 18.07, 3.67 16.65 C4.47 15.24, 5.4 13.86, 6.44 12.57 C7.47 11.29, 8.63 10.06, 9.87 8.93 C11.11 7.81, 12.47 6.76, 13.89 5.82 C15.31 4.89, 16.83 4.05, 18.4 3.32 C19.96 2.6, 21.61 1.98, 23.28 1.49 C24.96 1, 26.69 0.62, 28.43 0.38 C30.16 0.13, 31.94 0, 33.7 0 C35.45 0, 37.23 0.13, 38.97 0.38 C40.7 0.62, 42.44 1, 44.11 1.49 C45.78 1.98, 47.43 2.6, 49 3.32 C50.56 4.05, 52.08 4.89, 53.5 5.82 C54.93 6.76, 56.28 7.81, 57.52 8.93 C58.77 10.06, 59.93 11.29, 60.96 12.57 C61.99 13.86, 62.92 15.24, 63.72 16.65 C64.52 18.07, 65.2 19.56, 65.74 21.07 C66.29 22.59, 66.7 24.16, 66.98 25.73 C67.25 27.3, 67.32 29.7, 67.39 30.5 C67.46 31.3, 67.46 29.7, 67.39 30.5" stroke="none" stroke-width="0" fill="#a1a1a1"/><path d="M67.39 30.5 C67.39 32.09, 67.25 33.7, 66.98 35.27 C66.7 36.84, 66.29 38.41, 65.74 39.93 C65.2 41.44, 64.52 42.93, 63.72 44.35 C62.92 45.76, 61.99 47.14, 60.96 48.43 C59.93 49.71, 58.77 50.94, 57.52 52.07 C56.28 53.19, 54.93 54.24, 53.5 55.18 C52.08 56.11, 50.56 56.95, 49 57.68 C47.43 58.4, 45.78 59.02, 44.11 59.51 C42.44 60, 40.7 60.38, 38.97 60.62 C37.23 60.87, 35.45 61, 33.7 61 C31.94 61, 30.16 60.87, 28.43 60.62 C26.69 60.38, 24.96 60, 23.28 59.51 C21.61 59.02, 19.96 58.4, 18.4 57.68 C16.83 56.95, 15.31 56.11, 13.89 55.18 C12.47 54.24, 11.11 53.19, 9.87 52.07 C8.63 50.94, 7.47 49.71, 6.44 48.43 C5.4 47.14, 4.47 45.76, 3.67 44.35 C2.88 42.93, 2.19 41.44, 1.65 39.93 C1.11 38.41, 0.69 36.84, 0.41 35.27 C0.14 33.7, 0 32.09, 0 30.5 C0 28.91, 0.14 27.3, 0.41 25.73 C0.69 24.16, 1.11 22.59, 1.65 21.07 C2.19 19.56, 2.88 18.07, 3.67 16.65 C4.47 15.24, 5.4 13.86, 6.44 12.57 C7.47 11.29, 8.63 10.06, 9.87 8.93 C11.11 7.81, 12.47 6.76, 13.89 5.82 C15.31 4.89, 16.83 4.05, 18.4 3.32 C19.96 2.6, 21.61 1.98, 23.28 1.49 C24.96 1, 26.69 0.62, 28.43 0.38 C30.16 0.13, 31.94 0, 33.7 0 C35.45 0, 37.23 0.13, 38.97 0.38 C40.7 0.62, 42.44 1, 44.11 1.49 C45.78 1.98, 47.43 2.6, 49 3.32 C50.56 4.05, 52.08 4.89, 53.5 5.82 C54.93 6.76, 56.28 7.81, 57.52 8.93 C58.77 10.06, 59.93 11.29, 60.96 12.57 C61.99 13.86, 62.92 15.24, 63.72 16.65 C64.52 18.07, 65.2 19.56, 65.74 21.07 C66.29 22.59, 66.7 24.16, 66.98 25.73 C67.25 27.3, 67.32 29.7, 67.39 30.5 C67.46 31.3, 67.46 29.7, 67.39 30.5" stroke="#1e1e1e" stroke-width="4" fill="none"/></g><g transform="translate(168.895597445513 156.01505835010943) rotate(0 7.7861328125 16.099999999999994)"><text x="7.7861328125" y="25.760546874999996" font-family="Helvetica, Segoe UI Emoji" font-size="28px" fill="#1e1e1e" text-anchor="middle" style="white-space: pre;" direction="ltr" dominant-baseline="alphabetic">2</text></g><g stroke-linecap="round" transform="translate(300.99397313719226 140.46972170743075) rotate(0 33.69696414831912 30.5)"><path d="M67.39 30.5 C67.39 32.09, 67.25 33.7, 66.98 35.27 C66.7 36.84, 66.29 38.41, 65.74 39.93 C65.2 41.44, 64.52 42.93, 63.72 44.35 C62.92 45.76, 61.99 47.14, 60.96 48.43 C59.93 49.71, 58.77 50.94, 57.52 52.07 C56.28 53.19, 54.93 54.24, 53.5 55.18 C52.08 56.11, 50.56 56.95, 49 57.68 C47.43 58.4, 45.78 59.02, 44.11 59.51 C42.44 60, 40.7 60.38, 38.97 60.62 C37.23 60.87, 35.45 61, 33.7 61 C31.94 61, 30.16 60.87, 28.43 60.62 C26.69 60.38, 24.96 60, 23.28 59.51 C21.61 59.02, 19.96 58.4, 18.4 57.68 C16.83 56.95, 15.31 56.11, 13.89 55.18 C12.47 54.24, 11.11 53.19, 9.87 52.07 C8.63 50.94, 7.47 49.71, 6.44 48.43 C5.4 47.14, 4.47 45.76, 3.67 44.35 C2.88 42.93, 2.19 41.44, 1.65 39.93 C1.11 38.41, 0.69 36.84, 0.41 35.27 C0.14 33.7, 0 32.09, 0 30.5 C0 28.91, 0.14 27.3, 0.41 25.73 C0.69 24.16, 1.11 22.59, 1.65 21.07 C2.19 19.56, 2.88 18.07, 3.67 16.65 C4.47 15.24, 5.4 13.86, 6.44 12.57 C7.47 11.29, 8.63 10.06, 9.87 8.93 C11.11 7.81, 12.47 6.76, 13.89 5.82 C15.31 4.89, 16.83 4.05, 18.4 3.32 C19.96 2.6, 21.61 1.98, 23.28 1.49 C24.96 1, 26.69 0.62, 28.43 0.38 C30.16 0.13, 31.94 0, 33.7 0 C35.45 0, 37.23 0.13, 38.97 0.38 C40.7 0.62, 42.44 1, 44.11 1.49 C45.78 1.98, 47.43 2.6, 49 3.32 C50.56 4.05, 52.08 4.89, 53.5 5.82 C54.93 6.76, 56.28 7.81, 57.52 8.93 C58.77 10.06, 59.93 11.29, 60.96 12.57 C61.99 13.86, 62.92 15.24, 63.72 16.65 C64.52 18.07, 65.2 19.56, 65.74 21.07 C66.29 22.59, 66.7 24.16, 66.98 25.73 C67.25 27.3, 67.32 29.7, 67.39 30.5 C67.46 31.3, 67.46 29.7, 67.39 30.5" stroke="none" stroke-width="0" fill="#a1a1a1"/><path d="M67.39 30.5 C67.39 32.09, 67.25 33.7, 66.98 35.27 C66.7 36.84, 66.29 38.41, 65.74 39.93 C65.2 41.44, 64.52 42.93, 63.72 44.35 C62.92 45.76, 61.99 47.14, 60.96 48.43 C59.93 49.71, 58.77 50.94, 57.52 52.07 C56.28 53.19, 54.93 54.24, 53.5 55.18 C52.08 56.11, 50.56 56.95, 49 57.68 C47.43 58.4, 45.78 59.02, 44.11 59.51 C42.44 60, 40.7 60.38, 38.97 60.62 C37.23 60.87, 35.45 61, 33.7 61 C31.94 61, 30.16 60.87, 28.43 60.62 C26.69 60.38, 24.96 60, 23.28 59.51 C21.61 59.02, 19.96 58.4, 18.4 57.68 C16.83 56.95, 15.31 56.11, 13.89 55.18 C12.47 54.24, 11.11 53.19, 9.87 52.07 C8.63 50.94, 7.47 49.71, 6.44 48.43 C5.4 47.14, 4.47 45.76, 3.67 44.35 C2.88 42.93, 2.19 41.44, 1.65 39.93 C1.11 38.41, 0.69 36.84, 0.41 35.27 C0.14 33.7, 0 32.09, 0 30.5 C0 28.91, 0.14 27.3, 0.41 25.73 C0.69 24.16, 1.11 22.59, 1.65 21.07 C2.19 19.56, 2.88 18.07, 3.67 16.65 C4.47 15.24, 5.4 13.86, 6.44 12.57 C7.47 11.29, 8.63 10.06, 9.87 8.93 C11.11 7.81, 12.47 6.76, 13.89 5.82 C15.31 4.89, 16.83 4.05, 18.4 3.32 C19.96 2.6, 21.61 1.98, 23.28 1.49 C24.96 1, 26.69 0.62, 28.43 0.38 C30.16 0.13, 31.94 0, 33.7 0 C35.45 0, 37.23 0.13, 38.97 0.38 C40.7 0.62, 42.44 1, 44.11 1.49 C45.78 1.98, 47.43 2.6, 49 3.32 C50.56 4.05, 52.08 4.89, 53.5 5.82 C54.93 6.76, 56.28 7.81, 57.52 8.93 C58.77 10.06, 59.93 11.29, 60.96 12.57 C61.99 13.86, 62.92 15.24, 63.72 16.65 C64.52 18.07, 65.2 19.56, 65.74 21.07 C66.29 22.59, 66.7 24.16, 66.98 25.73 C67.25 27.3, 67.32 29.7, 67.39 30.5 C67.46 31.3, 67.46 29.7, 67.39 30.5" stroke="#1e1e1e" stroke-width="4" fill="none"/></g><g transform="translate(327.077452618335 154.80296488124105) rotate(0 7.7861328125 16.099999999999994)"><text x="7.7861328125" y="25.760546874999996" font-family="Helvetica, Segoe UI Emoji" font-size="28px" fill="#1e1e1e" text-anchor="middle" style="white-space: pre;" direction="ltr" dominant-baseline="alphabetic">3</text></g><g stroke-linecap="round" transform="translate(535.2351633108317 178.8173140424166) rotate(0 33.696964148319125 30.5)"><path d="M67.39 30.5 C67.39 32.09, 67.25 33.7, 66.98 35.27 C66.7 36.84, 66.29 38.41, 65.74 39.93 C65.2 41.44, 64.52 42.93, 63.72 44.35 C62.92 45.76, 61.99 47.14, 60.96 48.43 C59.93 49.71, 58.77 50.94, 57.52 52.07 C56.28 53.19, 54.93 54.24, 53.5 55.18 C52.08 56.11, 50.56 56.95, 49 57.68 C47.43 58.4, 45.78 59.02, 44.11 59.51 C42.44 60, 40.7 60.38, 38.97 60.62 C37.23 60.87, 35.45 61, 33.7 61 C31.94 61, 30.16 60.87, 28.43 60.62 C26.69 60.38, 24.96 60, 23.28 59.51 C21.61 59.02, 19.96 58.4, 18.4 57.68 C16.83 56.95, 15.31 56.11, 13.89 55.18 C12.47 54.24, 11.11 53.19, 9.87 52.07 C8.63 50.94, 7.47 49.71, 6.44 48.43 C5.4 47.14, 4.47 45.76, 3.67 44.35 C2.88 42.93, 2.19 41.44, 1.65 39.93 C1.11 38.41, 0.69 36.84, 0.41 35.27 C0.14 33.7, 0 32.09, 0 30.5 C0 28.91, 0.14 27.3, 0.41 25.73 C0.69 24.16, 1.11 22.59, 1.65 21.07 C2.19 19.56, 2.88 18.07, 3.67 16.65 C4.47 15.24, 5.4 13.86, 6.44 12.57 C7.47 11.29, 8.63 10.06, 9.87 8.93 C11.11 7.81, 12.47 6.76, 13.89 5.82 C15.31 4.89, 16.83 4.05, 18.4 3.32 C19.96 2.6, 21.61 1.98, 23.28 1.49 C24.96 1, 26.69 0.62, 28.43 0.38 C30.16 0.13, 31.94 0, 33.7 0 C35.45 0, 37.23 0.13, 38.97 0.38 C40.7 0.62, 42.44 1, 44.11 1.49 C45.78 1.98, 47.43 2.6, 49 3.32 C50.56 4.05, 52.08 4.89, 53.5 5.82 C54.93 6.76, 56.28 7.81, 57.52 8.93 C58.77 10.06, 59.93 11.29, 60.96 12.57 C61.99 13.86, 62.92 15.24, 63.72 16.65 C64.52 18.07, 65.2 19.56, 65.74 21.07 C66.29 22.59, 66.7 24.16, 66.98 25.73 C67.25 27.3, 67.32 29.7, 67.39 30.5 C67.46 31.3, 67.46 29.7, 67.39 30.5" stroke="none" stroke-width="0" fill="#a1a1a1"/><path d="M67.39 30.5 C67.39 32.09, 67.25 33.7, 66.98 35.27 C66.7 36.84, 66.29 38.41, 65.74 39.93 C65.2 41.44, 64.52 42.93, 63.72 44.35 C62.92 45.76, 61.99 47.14, 60.96 48.43 C59.93 49.71, 58.77 50.94, 57.52 52.07 C56.28 53.19, 54.93 54.24, 53.5 55.18 C52.08 56.11, 50.56 56.95, 49 57.68 C47.43 58.4, 45.78 59.02, 44.11 59.51 C42.44 60, 40.7 60.38, 38.97 60.62 C37.23 60.87, 35.45 61, 33.7 61 C31.94 61, 30.16 60.87, 28.43 60.62 C26.69 60.38, 24.96 60, 23.28 59.51 C21.61 59.02, 19.96 58.4, 18.4 57.68 C16.83 56.95, 15.31 56.11, 13.89 55.18 C12.47 54.24, 11.11 53.19, 9.87 52.07 C8.63 50.94, 7.47 49.71, 6.44 48.43 C5.4 47.14, 4.47 45.76, 3.67 44.35 C2.88 42.93, 2.19 41.44, 1.65 39.93 C1.11 38.41, 0.69 36.84, 0.41 35.27 C0.14 33.7, 0 32.09, 0 30.5 C0 28.91, 0.14 27.3, 0.41 25.73 C0.69 24.16, 1.11 22.59, 1.65 21.07 C2.19 19.56, 2.88 18.07, 3.67 16.65 C4.47 15.24, 5.4 13.86, 6.44 12.57 C7.47 11.29, 8.63 10.06, 9.87 8.93 C11.11 7.81, 12.47 6.76, 13.89 5.82 C15.31 4.89, 16.83 4.05, 18.4 3.32 C19.96 2.6, 21.61 1.98, 23.28 1.49 C24.96 1, 26.69 0.62, 28.43 0.38 C30.16 0.13, 31.94 0, 33.7 0 C35.45 0, 37.23 0.13, 38.97 0.38 C40.7 0.62, 42.44 1, 44.11 1.49 C45.78 1.98, 47.43 2.6, 49 3.32 C50.56 4.05, 52.08 4.89, 53.5 5.82 C54.93 6.76, 56.28 7.81, 57.52 8.93 C58.77 10.06, 59.93 11.29, 60.96 12.57 C61.99 13.86, 62.92 15.24, 63.72 16.65 C64.52 18.07, 65.2 19.56, 65.74 21.07 C66.29 22.59, 66.7 24.16, 66.98 25.73 C67.25 27.3, 67.32 29.7, 67.39 30.5 C67.46 31.3, 67.46 29.7, 67.39 30.5" stroke="#1e1e1e" stroke-width="4" fill="none"/></g><g transform="translate(561.3186427919743 193.1505572162269) rotate(0 7.7861328125 16.099999999999994)"><text x="7.7861328125" y="25.760546874999996" font-family="Helvetica, Segoe UI Emoji" font-size="28px" fill="#1e1e1e" text-anchor="middle" style="white-space: pre;" direction="ltr" dominant-baseline="alphabetic">4</text></g><g stroke-linecap="round" transform="translate(545.6000559378551 495.74244713060784) rotate(0 33.696964148319125 30.5)"><path d="M67.39 30.5 C67.39 32.09, 67.25 33.7, 66.98 35.27 C66.7 36.84, 66.29 38.41, 65.74 39.93 C65.2 41.44, 64.52 42.93, 63.72 44.35 C62.92 45.76, 61.99 47.14, 60.96 48.43 C59.93 49.71, 58.77 50.94, 57.52 52.07 C56.28 53.19, 54.93 54.24, 53.5 55.18 C52.08 56.11, 50.56 56.95, 49 57.68 C47.43 58.4, 45.78 59.02, 44.11 59.51 C42.44 60, 40.7 60.38, 38.97 60.62 C37.23 60.87, 35.45 61, 33.7 61 C31.94 61, 30.16 60.87, 28.43 60.62 C26.69 60.38, 24.96 60, 23.28 59.51 C21.61 59.02, 19.96 58.4, 18.4 57.68 C16.83 56.95, 15.31 56.11, 13.89 55.18 C12.47 54.24, 11.11 53.19, 9.87 52.07 C8.63 50.94, 7.47 49.71, 6.44 48.43 C5.4 47.14, 4.47 45.76, 3.67 44.35 C2.88 42.93, 2.19 41.44, 1.65 39.93 C1.11 38.41, 0.69 36.84, 0.41 35.27 C0.14 33.7, 0 32.09, 0 30.5 C0 28.91, 0.14 27.3, 0.41 25.73 C0.69 24.16, 1.11 22.59, 1.65 21.07 C2.19 19.56, 2.88 18.07, 3.67 16.65 C4.47 15.24, 5.4 13.86, 6.44 12.57 C7.47 11.29, 8.63 10.06, 9.87 8.93 C11.11 7.81, 12.47 6.76, 13.89 5.82 C15.31 4.89, 16.83 4.05, 18.4 3.32 C19.96 2.6, 21.61 1.98, 23.28 1.49 C24.96 1, 26.69 0.62, 28.43 0.38 C30.16 0.13, 31.94 0, 33.7 0 C35.45 0, 37.23 0.13, 38.97 0.38 C40.7 0.62, 42.44 1, 44.11 1.49 C45.78 1.98, 47.43 2.6, 49 3.32 C50.56 4.05, 52.08 4.89, 53.5 5.82 C54.93 6.76, 56.28 7.81, 57.52 8.93 C58.77 10.06, 59.93 11.29, 60.96 12.57 C61.99 13.86, 62.92 15.24, 63.72 16.65 C64.52 18.07, 65.2 19.56, 65.74 21.07 C66.29 22.59, 66.7 24.16, 66.98 25.73 C67.25 27.3, 67.32 29.7, 67.39 30.5 C67.46 31.3, 67.46 29.7, 67.39 30.5" stroke="none" stroke-width="0" fill="#a1a1a1"/><path d="M67.39 30.5 C67.39 32.09, 67.25 33.7, 66.98 35.27 C66.7 36.84, 66.29 38.41, 65.74 39.93 C65.2 41.44, 64.52 42.93, 63.72 44.35 C62.92 45.76, 61.99 47.14, 60.96 48.43 C59.93 49.71, 58.77 50.94, 57.52 52.07 C56.28 53.19, 54.93 54.24, 53.5 55.18 C52.08 56.11, 50.56 56.95, 49 57.68 C47.43 58.4, 45.78 59.02, 44.11 59.51 C42.44 60, 40.7 60.38, 38.97 60.62 C37.23 60.87, 35.45 61, 33.7 61 C31.94 61, 30.16 60.87, 28.43 60.62 C26.69 60.38, 24.96 60, 23.28 59.51 C21.61 59.02, 19.96 58.4, 18.4 57.68 C16.83 56.95, 15.31 56.11, 13.89 55.18 C12.47 54.24, 11.11 53.19, 9.87 52.07 C8.63 50.94, 7.47 49.71, 6.44 48.43 C5.4 47.14, 4.47 45.76, 3.67 44.35 C2.88 42.93, 2.19 41.44, 1.65 39.93 C1.11 38.41, 0.69 36.84, 0.41 35.27 C0.14 33.7, 0 32.09, 0 30.5 C0 28.91, 0.14 27.3, 0.41 25.73 C0.69 24.16, 1.11 22.59, 1.65 21.07 C2.19 19.56, 2.88 18.07, 3.67 16.65 C4.47 15.24, 5.4 13.86, 6.44 12.57 C7.47 11.29, 8.63 10.06, 9.87 8.93 C11.11 7.81, 12.47 6.76, 13.89 5.82 C15.31 4.89, 16.83 4.05, 18.4 3.32 C19.96 2.6, 21.61 1.98, 23.28 1.49 C24.96 1, 26.69 0.62, 28.43 0.38 C30.16 0.13, 31.94 0, 33.7 0 C35.45 0, 37.23 0.13, 38.97 0.38 C40.7 0.62, 42.44 1, 44.11 1.49 C45.78 1.98, 47.43 2.6, 49 3.32 C50.56 4.05, 52.08 4.89, 53.5 5.82 C54.93 6.76, 56.28 7.81, 57.52 8.93 C58.77 10.06, 59.93 11.29, 60.96 12.57 C61.99 13.86, 62.92 15.24, 63.72 16.65 C64.52 18.07, 65.2 19.56, 65.74 21.07 C66.29 22.59, 66.7 24.16, 66.98 25.73 C67.25 27.3, 67.32 29.7, 67.39 30.5 C67.46 31.3, 67.46 29.7, 67.39 30.5" stroke="#1e1e1e" stroke-width="4" fill="none"/></g><g transform="translate(571.6835354189978 510.0756903044181) rotate(0 7.7861328125 16.099999999999994)"><text x="7.7861328125" y="25.760546874999996" font-family="Helvetica, Segoe UI Emoji" font-size="28px" fill="#1e1e1e" text-anchor="middle" style="white-space: pre;" direction="ltr" dominant-baseline="alphabetic">6</text></g><g stroke-linecap="round" transform="translate(132.87274621957863 387.86365925181997) rotate(0 33.696964148319125 30.5)"><path d="M67.39 30.5 C67.39 32.09, 67.25 33.7, 66.98 35.27 C66.7 36.84, 66.29 38.41, 65.74 39.93 C65.2 41.44, 64.52 42.93, 63.72 44.35 C62.92 45.76, 61.99 47.14, 60.96 48.43 C59.93 49.71, 58.77 50.94, 57.52 52.07 C56.28 53.19, 54.93 54.24, 53.5 55.18 C52.08 56.11, 50.56 56.95, 49 57.68 C47.43 58.4, 45.78 59.02, 44.11 59.51 C42.44 60, 40.7 60.38, 38.97 60.62 C37.23 60.87, 35.45 61, 33.7 61 C31.94 61, 30.16 60.87, 28.43 60.62 C26.69 60.38, 24.96 60, 23.28 59.51 C21.61 59.02, 19.96 58.4, 18.4 57.68 C16.83 56.95, 15.31 56.11, 13.89 55.18 C12.47 54.24, 11.11 53.19, 9.87 52.07 C8.63 50.94, 7.47 49.71, 6.44 48.43 C5.4 47.14, 4.47 45.76, 3.67 44.35 C2.88 42.93, 2.19 41.44, 1.65 39.93 C1.11 38.41, 0.69 36.84, 0.41 35.27 C0.14 33.7, 0 32.09, 0 30.5 C0 28.91, 0.14 27.3, 0.41 25.73 C0.69 24.16, 1.11 22.59, 1.65 21.07 C2.19 19.56, 2.88 18.07, 3.67 16.65 C4.47 15.24, 5.4 13.86, 6.44 12.57 C7.47 11.29, 8.63 10.06, 9.87 8.93 C11.11 7.81, 12.47 6.76, 13.89 5.82 C15.31 4.89, 16.83 4.05, 18.4 3.32 C19.96 2.6, 21.61 1.98, 23.28 1.49 C24.96 1, 26.69 0.62, 28.43 0.38 C30.16 0.13, 31.94 0, 33.7 0 C35.45 0, 37.23 0.13, 38.97 0.38 C40.7 0.62, 42.44 1, 44.11 1.49 C45.78 1.98, 47.43 2.6, 49 3.32 C50.56 4.05, 52.08 4.89, 53.5 5.82 C54.93 6.76, 56.28 7.81, 57.52 8.93 C58.77 10.06, 59.93 11.29, 60.96 12.57 C61.99 13.86, 62.92 15.24, 63.72 16.65 C64.52 18.07, 65.2 19.56, 65.74 21.07 C66.29 22.59, 66.7 24.16, 66.98 25.73 C67.25 27.3, 67.32 29.7, 67.39 30.5 C67.46 31.3, 67.46 29.7, 67.39 30.5" stroke="none" stroke-width="0" fill="#a1a1a1"/><path d="M67.39 30.5 C67.39 32.09, 67.25 33.7, 66.98 35.27 C66.7 36.84, 66.29 38.41, 65.74 39.93 C65.2 41.44, 64.52 42.93, 63.72 44.35 C62.92 45.76, 61.99 47.14, 60.96 48.43 C59.93 49.71, 58.77 50.94, 57.52 52.07 C56.28 53.19, 54.93 54.24, 53.5 55.18 C52.08 56.11, 50.56 56.95, 49 57.68 C47.43 58.4, 45.78 59.02, 44.11 59.51 C42.44 60, 40.7 60.38, 38.97 60.62 C37.23 60.87, 35.45 61, 33.7 61 C31.94 61, 30.16 60.87, 28.43 60.62 C26.69 60.38, 24.96 60, 23.28 59.51 C21.61 59.02, 19.96 58.4, 18.4 57.68 C16.83 56.95, 15.31 56.11, 13.89 55.18 C12.47 54.24, 11.11 53.19, 9.87 52.07 C8.63 50.94, 7.47 49.71, 6.44 48.43 C5.4 47.14, 4.47 45.76, 3.67 44.35 C2.88 42.93, 2.19 41.44, 1.65 39.93 C1.11 38.41, 0.69 36.84, 0.41 35.27 C0.14 33.7, 0 32.09, 0 30.5 C0 28.91, 0.14 27.3, 0.41 25.73 C0.69 24.16, 1.11 22.59, 1.65 21.07 C2.19 19.56, 2.88 18.07, 3.67 16.65 C4.47 15.24, 5.4 13.86, 6.44 12.57 C7.47 11.29, 8.63 10.06, 9.87 8.93 C11.11 7.81, 12.47 6.76, 13.89 5.82 C15.31 4.89, 16.83 4.05, 18.4 3.32 C19.96 2.6, 21.61 1.98, 23.28 1.49 C24.96 1, 26.69 0.62, 28.43 0.38 C30.16 0.13, 31.94 0, 33.7 0 C35.45 0, 37.23 0.13, 38.97 0.38 C40.7 0.62, 42.44 1, 44.11 1.49 C45.78 1.98, 47.43 2.6, 49 3.32 C50.56 4.05, 52.08 4.89, 53.5 5.82 C54.93 6.76, 56.28 7.81, 57.52 8.93 C58.77 10.06, 59.93 11.29, 60.96 12.57 C61.99 13.86, 62.92 15.24, 63.72 16.65 C64.52 18.07, 65.2 19.56, 65.74 21.07 C66.29 22.59, 66.7 24.16, 66.98 25.73 C67.25 27.3, 67.32 29.7, 67.39 30.5 C67.46 31.3, 67.46 29.7, 67.39 30.5" stroke="#1e1e1e" stroke-width="4" fill="none"/></g><g transform="translate(158.95622570072132 402.19690242563024) rotate(0 7.7861328125 16.099999999999994)"><text x="7.7861328125" y="25.760546874999996" font-family="Helvetica, Segoe UI Emoji" font-size="28px" fill="#1e1e1e" text-anchor="middle" style="white-space: pre;" direction="ltr" dominant-baseline="alphabetic">5</text></g><g stroke-linecap="round" transform="translate(772.3285285813562 552.5740635022573) rotate(0 24.293932179602052 13.882246959772601)"><path d="M6.94 0 C16.3 0, 25.65 0, 41.65 0 C46.27 0, 48.59 2.31, 48.59 6.94 C48.59 9.91, 48.59 12.88, 48.59 20.82 C48.59 25.45, 46.27 27.76, 41.65 27.76 C33.2 27.76, 24.76 27.76, 6.94 27.76 C2.31 27.76, 0 25.45, 0 20.82 C0 17.6, 0 14.38, 0 6.94 C0 2.31, 2.31 0, 6.94 0" stroke="none" stroke-width="0" fill="#d4d4d4"/><path d="M6.94 0 C14.65 0, 22.36 0, 41.65 0 M6.94 0 C15.28 0, 23.62 0, 41.65 0 M41.65 0 C46.27 0, 48.59 2.31, 48.59 6.94 M41.65 0 C46.27 0, 48.59 2.31, 48.59 6.94 M48.59 6.94 C48.59 11.04, 48.59 15.14, 48.59 20.82 M48.59 6.94 C48.59 11.97, 48.59 17, 48.59 20.82 M48.59 20.82 C48.59 25.45, 46.27 27.76, 41.65 27.76 M48.59 20.82 C48.59 25.45, 46.27 27.76, 41.65 27.76 M41.65 27.76 C30.9 27.76, 20.16 27.76, 6.94 27.76 M41.65 27.76 C33.35 27.76, 25.05 27.76, 6.94 27.76 M6.94 27.76 C2.31 27.76, 0 25.45, 0 20.82 M6.94 27.76 C2.31 27.76, 0 25.45, 0 20.82 M0 20.82 C0 16.24, 0 11.67, 0 6.94 M0 20.82 C0 16.89, 0 12.96, 0 6.94 M0 6.94 C0 2.31, 2.31 0, 6.94 0 M0 6.94 C0 2.31, 2.31 0, 6.94 0" stroke="#1e1e1e" stroke-width="4" fill="none"/></g><g stroke-linecap="round" transform="translate(781.8816832475975 559.9819187285069) rotate(0 3.7047265689639914 3.4731899911826503)"><path d="M7.41 3.47 C7.41 3.67, 7.39 3.88, 7.35 4.08 C7.32 4.27, 7.26 4.47, 7.19 4.66 C7.11 4.85, 7.02 5.04, 6.91 5.21 C6.81 5.38, 6.68 5.55, 6.54 5.71 C6.4 5.86, 6.25 6, 6.09 6.13 C5.92 6.26, 5.74 6.38, 5.56 6.48 C5.37 6.58, 5.17 6.67, 4.97 6.74 C4.77 6.81, 4.56 6.86, 4.35 6.89 C4.14 6.93, 3.92 6.95, 3.7 6.95 C3.49 6.95, 3.27 6.93, 3.06 6.89 C2.85 6.86, 2.64 6.81, 2.44 6.74 C2.24 6.67, 2.04 6.58, 1.85 6.48 C1.67 6.38, 1.49 6.26, 1.32 6.13 C1.16 6, 1 5.86, 0.87 5.71 C0.73 5.55, 0.6 5.38, 0.5 5.21 C0.39 5.04, 0.3 4.85, 0.22 4.66 C0.15 4.47, 0.09 4.27, 0.06 4.08 C0.02 3.88, 0 3.67, 0 3.47 C0 3.27, 0.02 3.07, 0.06 2.87 C0.09 2.67, 0.15 2.47, 0.22 2.29 C0.3 2.1, 0.39 1.91, 0.5 1.74 C0.6 1.56, 0.73 1.39, 0.87 1.24 C1 1.09, 1.16 0.94, 1.32 0.81 C1.49 0.68, 1.67 0.57, 1.85 0.47 C2.04 0.36, 2.24 0.28, 2.44 0.21 C2.64 0.14, 2.85 0.09, 3.06 0.05 C3.27 0.02, 3.49 0, 3.7 0 C3.92 0, 4.14 0.02, 4.35 0.05 C4.56 0.09, 4.77 0.14, 4.97 0.21 C5.17 0.28, 5.37 0.36, 5.56 0.47 C5.74 0.57, 5.92 0.68, 6.09 0.81 C6.25 0.94, 6.4 1.09, 6.54 1.24 C6.68 1.39, 6.81 1.56, 6.91 1.74 C7.02 1.91, 7.11 2.1, 7.19 2.29 C7.26 2.47, 7.32 2.67, 7.35 2.87 C7.39 3.07, 7.4 3.37, 7.41 3.47 C7.42 3.57, 7.42 3.37, 7.41 3.47" stroke="none" stroke-width="0" fill="#d4d4d4"/><path d="M7.41 3.47 C7.41 3.67, 7.39 3.88, 7.35 4.08 C7.32 4.27, 7.26 4.47, 7.19 4.66 C7.11 4.85, 7.02 5.04, 6.91 5.21 C6.81 5.38, 6.68 5.55, 6.54 5.71 C6.4 5.86, 6.25 6, 6.09 6.13 C5.92 6.26, 5.74 6.38, 5.56 6.48 C5.37 6.58, 5.17 6.67, 4.97 6.74 C4.77 6.81, 4.56 6.86, 4.35 6.89 C4.14 6.93, 3.92 6.95, 3.7 6.95 C3.49 6.95, 3.27 6.93, 3.06 6.89 C2.85 6.86, 2.64 6.81, 2.44 6.74 C2.24 6.67, 2.04 6.58, 1.85 6.48 C1.67 6.38, 1.49 6.26, 1.32 6.13 C1.16 6, 1 5.86, 0.87 5.71 C0.73 5.55, 0.6 5.38, 0.5 5.21 C0.39 5.04, 0.3 4.85, 0.22 4.66 C0.15 4.47, 0.09 4.27, 0.06 4.08 C0.02 3.88, 0 3.67, 0 3.47 C0 3.27, 0.02 3.07, 0.06 2.87 C0.09 2.67, 0.15 2.47, 0.22 2.29 C0.3 2.1, 0.39 1.91, 0.5 1.74 C0.6 1.56, 0.73 1.39, 0.87 1.24 C1 1.09, 1.16 0.94, 1.32 0.81 C1.49 0.68, 1.67 0.57, 1.85 0.47 C2.04 0.36, 2.24 0.28, 2.44 0.21 C2.64 0.14, 2.85 0.09, 3.06 0.05 C3.27 0.02, 3.49 0, 3.7 0 C3.92 0, 4.14 0.02, 4.35 0.05 C4.56 0.09, 4.77 0.14, 4.97 0.21 C5.17 0.28, 5.37 0.36, 5.56 0.47 C5.74 0.57, 5.92 0.68, 6.09 0.81 C6.25 0.94, 6.4 1.09, 6.54 1.24 C6.68 1.39, 6.81 1.56, 6.91 1.74 C7.02 1.91, 7.11 2.1, 7.19 2.29 C7.26 2.47, 7.32 2.67, 7.35 2.87 C7.39 3.07, 7.4 3.37, 7.41 3.47 C7.42 3.57, 7.42 3.37, 7.41 3.47" stroke="#1e1e1e" stroke-width="4" fill="none"/></g><g stroke-linecap="round" transform="translate(793.4589596641292 568.5877187728827) rotate(0 3.7047265689639914 3.4731899911826503)"><path d="M7.41 3.47 C7.41 3.67, 7.39 3.88, 7.35 4.08 C7.32 4.27, 7.26 4.47, 7.19 4.66 C7.11 4.85, 7.02 5.04, 6.91 5.21 C6.81 5.38, 6.68 5.55, 6.54 5.71 C6.4 5.86, 6.25 6, 6.09 6.13 C5.92 6.26, 5.74 6.38, 5.56 6.48 C5.37 6.58, 5.17 6.67, 4.97 6.74 C4.77 6.81, 4.56 6.86, 4.35 6.89 C4.14 6.93, 3.92 6.95, 3.7 6.95 C3.49 6.95, 3.27 6.93, 3.06 6.89 C2.85 6.86, 2.64 6.81, 2.44 6.74 C2.24 6.67, 2.04 6.58, 1.85 6.48 C1.67 6.38, 1.49 6.26, 1.32 6.13 C1.16 6, 1 5.86, 0.87 5.71 C0.73 5.55, 0.6 5.38, 0.5 5.21 C0.39 5.04, 0.3 4.85, 0.22 4.66 C0.15 4.47, 0.09 4.27, 0.06 4.08 C0.02 3.88, 0 3.67, 0 3.47 C0 3.27, 0.02 3.07, 0.06 2.87 C0.09 2.67, 0.15 2.47, 0.22 2.29 C0.3 2.1, 0.39 1.91, 0.5 1.74 C0.6 1.56, 0.73 1.39, 0.87 1.24 C1 1.09, 1.16 0.94, 1.32 0.81 C1.49 0.68, 1.67 0.57, 1.85 0.47 C2.04 0.36, 2.24 0.28, 2.44 0.21 C2.64 0.14, 2.85 0.09, 3.06 0.05 C3.27 0.02, 3.49 0, 3.7 0 C3.92 0, 4.14 0.02, 4.35 0.05 C4.56 0.09, 4.77 0.14, 4.97 0.21 C5.17 0.28, 5.37 0.36, 5.56 0.47 C5.74 0.57, 5.92 0.68, 6.09 0.81 C6.25 0.94, 6.4 1.09, 6.54 1.24 C6.68 1.39, 6.81 1.56, 6.91 1.74 C7.02 1.91, 7.11 2.1, 7.19 2.29 C7.26 2.47, 7.32 2.67, 7.35 2.87 C7.39 3.07, 7.4 3.37, 7.41 3.47 C7.42 3.57, 7.42 3.37, 7.41 3.47" stroke="none" stroke-width="0" fill="#d4d4d4"/><path d="M7.41 3.47 C7.41 3.67, 7.39 3.88, 7.35 4.08 C7.32 4.27, 7.26 4.47, 7.19 4.66 C7.11 4.85, 7.02 5.04, 6.91 5.21 C6.81 5.38, 6.68 5.55, 6.54 5.71 C6.4 5.86, 6.25 6, 6.09 6.13 C5.92 6.26, 5.74 6.38, 5.56 6.48 C5.37 6.58, 5.17 6.67, 4.97 6.74 C4.77 6.81, 4.56 6.86, 4.35 6.89 C4.14 6.93, 3.92 6.95, 3.7 6.95 C3.49 6.95, 3.27 6.93, 3.06 6.89 C2.85 6.86, 2.64 6.81, 2.44 6.74 C2.24 6.67, 2.04 6.58, 1.85 6.48 C1.67 6.38, 1.49 6.26, 1.32 6.13 C1.16 6, 1 5.86, 0.87 5.71 C0.73 5.55, 0.6 5.38, 0.5 5.21 C0.39 5.04, 0.3 4.85, 0.22 4.66 C0.15 4.47, 0.09 4.27, 0.06 4.08 C0.02 3.88, 0 3.67, 0 3.47 C0 3.27, 0.02 3.07, 0.06 2.87 C0.09 2.67, 0.15 2.47, 0.22 2.29 C0.3 2.1, 0.39 1.91, 0.5 1.74 C0.6 1.56, 0.73 1.39, 0.87 1.24 C1 1.09, 1.16 0.94, 1.32 0.81 C1.49 0.68, 1.67 0.57, 1.85 0.47 C2.04 0.36, 2.24 0.28, 2.44 0.21 C2.64 0.14, 2.85 0.09, 3.06 0.05 C3.27 0.02, 3.49 0, 3.7 0 C3.92 0, 4.14 0.02, 4.35 0.05 C4.56 0.09, 4.77 0.14, 4.97 0.21 C5.17 0.28, 5.37 0.36, 5.56 0.47 C5.74 0.57, 5.92 0.68, 6.09 0.81 C6.25 0.94, 6.4 1.09, 6.54 1.24 C6.68 1.39, 6.81 1.56, 6.91 1.74 C7.02 1.91, 7.11 2.1, 7.19 2.29 C7.26 2.47, 7.32 2.67, 7.35 2.87 C7.39 3.07, 7.4 3.37, 7.41 3.47 C7.42 3.57, 7.42 3.37, 7.41 3.47" stroke="#1e1e1e" stroke-width="4" fill="none"/></g><g stroke-linecap="round" transform="translate(805.0362831888151 559.9433371502357) rotate(0 3.7047265689639914 3.4731899911826503)"><path d="M7.41 3.47 C7.41 3.67, 7.39 3.88, 7.35 4.08 C7.32 4.27, 7.26 4.47, 7.19 4.66 C7.11 4.85, 7.02 5.04, 6.91 5.21 C6.81 5.38, 6.68 5.55, 6.54 5.71 C6.4 5.86, 6.25 6, 6.09 6.13 C5.92 6.26, 5.74 6.38, 5.56 6.48 C5.37 6.58, 5.17 6.67, 4.97 6.74 C4.77 6.81, 4.56 6.86, 4.35 6.89 C4.14 6.93, 3.92 6.95, 3.7 6.95 C3.49 6.95, 3.27 6.93, 3.06 6.89 C2.85 6.86, 2.64 6.81, 2.44 6.74 C2.24 6.67, 2.04 6.58, 1.85 6.48 C1.67 6.38, 1.49 6.26, 1.32 6.13 C1.16 6, 1 5.86, 0.87 5.71 C0.73 5.55, 0.6 5.38, 0.5 5.21 C0.39 5.04, 0.3 4.85, 0.22 4.66 C0.15 4.47, 0.09 4.27, 0.06 4.08 C0.02 3.88, 0 3.67, 0 3.47 C0 3.27, 0.02 3.07, 0.06 2.87 C0.09 2.67, 0.15 2.47, 0.22 2.29 C0.3 2.1, 0.39 1.91, 0.5 1.74 C0.6 1.56, 0.73 1.39, 0.87 1.24 C1 1.09, 1.16 0.94, 1.32 0.81 C1.49 0.68, 1.67 0.57, 1.85 0.47 C2.04 0.36, 2.24 0.28, 2.44 0.21 C2.64 0.14, 2.85 0.09, 3.06 0.05 C3.27 0.02, 3.49 0, 3.7 0 C3.92 0, 4.14 0.02, 4.35 0.05 C4.56 0.09, 4.77 0.14, 4.97 0.21 C5.17 0.28, 5.37 0.36, 5.56 0.47 C5.74 0.57, 5.92 0.68, 6.09 0.81 C6.25 0.94, 6.4 1.09, 6.54 1.24 C6.68 1.39, 6.81 1.56, 6.91 1.74 C7.02 1.91, 7.11 2.1, 7.19 2.29 C7.26 2.47, 7.32 2.67, 7.35 2.87 C7.39 3.07, 7.4 3.37, 7.41 3.47 C7.42 3.57, 7.42 3.37, 7.41 3.47" stroke="none" stroke-width="0" fill="#d4d4d4"/><path d="M7.41 3.47 C7.41 3.67, 7.39 3.88, 7.35 4.08 C7.32 4.27, 7.26 4.47, 7.19 4.66 C7.11 4.85, 7.02 5.04, 6.91 5.21 C6.81 5.38, 6.68 5.55, 6.54 5.71 C6.4 5.86, 6.25 6, 6.09 6.13 C5.92 6.26, 5.74 6.38, 5.56 6.48 C5.37 6.58, 5.17 6.67, 4.97 6.74 C4.77 6.81, 4.56 6.86, 4.35 6.89 C4.14 6.93, 3.92 6.95, 3.7 6.95 C3.49 6.95, 3.27 6.93, 3.06 6.89 C2.85 6.86, 2.64 6.81, 2.44 6.74 C2.24 6.67, 2.04 6.58, 1.85 6.48 C1.67 6.38, 1.49 6.26, 1.32 6.13 C1.16 6, 1 5.86, 0.87 5.71 C0.73 5.55, 0.6 5.38, 0.5 5.21 C0.39 5.04, 0.3 4.85, 0.22 4.66 C0.15 4.47, 0.09 4.27, 0.06 4.08 C0.02 3.88, 0 3.67, 0 3.47 C0 3.27, 0.02 3.07, 0.06 2.87 C0.09 2.67, 0.15 2.47, 0.22 2.29 C0.3 2.1, 0.39 1.91, 0.5 1.74 C0.6 1.56, 0.73 1.39, 0.87 1.24 C1 1.09, 1.16 0.94, 1.32 0.81 C1.49 0.68, 1.67 0.57, 1.85 0.47 C2.04 0.36, 2.24 0.28, 2.44 0.21 C2.64 0.14, 2.85 0.09, 3.06 0.05 C3.27 0.02, 3.49 0, 3.7 0 C3.92 0, 4.14 0.02, 4.35 0.05 C4.56 0.09, 4.77 0.14, 4.97 0.21 C5.17 0.28, 5.37 0.36, 5.56 0.47 C5.74 0.57, 5.92 0.68, 6.09 0.81 C6.25 0.94, 6.4 1.09, 6.54 1.24 C6.68 1.39, 6.81 1.56, 6.91 1.74 C7.02 1.91, 7.11 2.1, 7.19 2.29 C7.26 2.47, 7.32 2.67, 7.35 2.87 C7.39 3.07, 7.4 3.37, 7.41 3.47 C7.42 3.57, 7.42 3.37, 7.41 3.47" stroke="#1e1e1e" stroke-width="4" fill="none"/></g></svg>