<svg version="1.1" xmlns="http://www.w3.org/2000/svg" viewBox="0 0 1151.5919426305109 825.4710452816989" width="1151.5919426305109" height="825.4710452816989" class="excalidraw-svg">
  <!-- svg-source:excalidraw -->
  
  <defs>
    <style class="style-fonts">
      
    </style>
    
  </defs>
  <g stroke-linecap="round" transform="translate(63.04870928478408 10) rotate(0 538.2148988122403 276.5288584160958)"><path d="M32 0 C351.34 0, 670.67 0, 1044.43 0 C1065.76 0, 1076.43 10.67, 1076.43 32 C1076.43 141.14, 1076.43 250.27, 1076.43 521.06 C1076.43 542.39, 1065.76 553.06, 1044.43 553.06 C688.44 553.06, 332.45 553.06, 32 553.06 C10.67 553.06, 0 542.39, 0 521.06 C0 398.39, 0 275.72, 0 32 C0 10.67, 10.67 0, 32 0" stroke="none" stroke-width="0" fill="#96f2d755"/><path d="M32 0 C424.6 0, 817.2 0, 1044.43 0 M1044.43 0 C1065.76 0, 1076.43 10.67, 1076.43 32 M1076.43 32 C1076.43 190.02, 1076.43 348.04, 1076.43 521.06 M1076.43 521.06 C1076.43 542.39, 1065.76 553.06, 1044.43 553.06 M1044.43 553.06 C664.23 553.06, 284.04 553.06, 32 553.06 M32 553.06 C10.67 553.06, 0 542.39, 0 521.06 M0 521.06 C0 382.71, 0 244.35, 0 32 M0 32 C0 10.67, 10.67 0, 32 0" stroke="transparent" stroke-width="2.5" fill="none" stroke-dasharray="1.5 8"/></g><g stroke-linecap="round" transform="translate(65.16214456622686 572.0455386782355) rotate(0 538.214899032142 121.71275330173174)"><path d="M32 0 C378.39 0, 724.78 0, 1044.43 0 C1065.76 0, 1076.43 10.67, 1076.43 32 C1076.43 69.65, 1076.43 107.3, 1076.43 211.43 C1076.43 232.76, 1065.76 243.43, 1044.43 243.43 C787.1 243.43, 529.77 243.43, 32 243.43 C10.67 243.43, 0 232.76, 0 211.43 C0 175.11, 0 138.8, 0 32 C0 10.67, 10.67 0, 32 0" stroke="none" stroke-width="0" fill="#e396f255"/><path d="M32 0 C326.74 0, 621.49 0, 1044.43 0 M1044.43 0 C1065.76 0, 1076.43 10.67, 1076.43 32 M1076.43 32 C1076.43 73.94, 1076.43 115.88, 1076.43 211.43 M1076.43 211.43 C1076.43 232.76, 1065.76 243.43, 1044.43 243.43 M1044.43 243.43 C812.41 243.43, 580.39 243.43, 32 243.43 M32 243.43 C10.67 243.43, 0 232.76, 0 211.43 M0 211.43 C0 166.46, 0 121.49, 0 32 M0 32 C0 10.67, 10.67 0, 32 0" stroke="transparent" stroke-width="2.5" fill="none" stroke-dasharray="1.5 8"/></g><g stroke-linecap="round" transform="translate(89.03827277325809 118.01586661168733) rotate(0 266.2237211462058 211.9063881335449)"><path d="M32 0 C161.22 0, 290.45 0, 500.45 0 C521.78 0, 532.45 10.67, 532.45 32 C532.45 163.18, 532.45 294.35, 532.45 391.81 C532.45 413.15, 521.78 423.81, 500.45 423.81 C374.15 423.81, 247.85 423.81, 32 423.81 C10.67 423.81, 0 413.15, 0 391.81 C0 283.46, 0 175.11, 0 32 C0 10.67, 10.67 0, 32 0" stroke="none" stroke-width="0" fill="#a5d8ff"/><path d="M32 0 C162.5 0, 293 0, 500.45 0 M32 0 C183.36 0, 334.72 0, 500.45 0 M500.45 0 C521.78 0, 532.45 10.67, 532.45 32 M500.45 0 C521.78 0, 532.45 10.67, 532.45 32 M532.45 32 C532.45 124.1, 532.45 216.2, 532.45 391.81 M532.45 32 C532.45 133.79, 532.45 235.58, 532.45 391.81 M532.45 391.81 C532.45 413.15, 521.78 423.81, 500.45 423.81 M532.45 391.81 C532.45 413.15, 521.78 423.81, 500.45 423.81 M500.45 423.81 C320.81 423.81, 141.18 423.81, 32 423.81 M500.45 423.81 C395.91 423.81, 291.37 423.81, 32 423.81 M32 423.81 C10.67 423.81, 0 413.15, 0 391.81 M32 423.81 C10.67 423.81, 0 413.15, 0 391.81 M0 391.81 C0 317.74, 0 243.66, 0 32 M0 391.81 C0 301.56, 0 211.31, 0 32 M0 32 C0 10.67, 10.67 0, 32 0 M0 32 C0 10.67, 10.67 0, 32 0" stroke="#1e1e1e" stroke-width="2" fill="none"/></g><g stroke-linecap="round" transform="translate(107.35124469560174 190.46516598880942) rotate(0 107.90942313344996 87.86909356100223)"><path d="M32 0 C63.63 0, 95.26 0, 183.82 0 C205.15 0, 215.82 10.67, 215.82 32 C215.82 60.93, 215.82 89.85, 215.82 143.74 C215.82 165.07, 205.15 175.74, 183.82 175.74 C126.38 175.74, 68.95 175.74, 32 175.74 C10.67 175.74, 0 165.07, 0 143.74 C0 103.65, 0 63.56, 0 32 C0 10.67, 10.67 0, 32 0" stroke="none" stroke-width="0" fill="#ffec99"/><path d="M32 0 C66.82 0, 101.64 0, 183.82 0 M32 0 C67.49 0, 102.97 0, 183.82 0 M183.82 0 C205.15 0, 215.82 10.67, 215.82 32 M183.82 0 C205.15 0, 215.82 10.67, 215.82 32 M215.82 32 C215.82 68.86, 215.82 105.73, 215.82 143.74 M215.82 32 C215.82 60.01, 215.82 88.01, 215.82 143.74 M215.82 143.74 C215.82 165.07, 205.15 175.74, 183.82 175.74 M215.82 143.74 C215.82 165.07, 205.15 175.74, 183.82 175.74 M183.82 175.74 C148.88 175.74, 113.94 175.74, 32 175.74 M183.82 175.74 C151.96 175.74, 120.1 175.74, 32 175.74 M32 175.74 C10.67 175.74, 0 165.07, 0 143.74 M32 175.74 C10.67 175.74, 0 165.07, 0 143.74 M0 143.74 C0 106.19, 0 68.64, 0 32 M0 143.74 C0 121.12, 0 98.51, 0 32 M0 32 C0 10.67, 10.67 0, 32 0 M0 32 C0 10.67, 10.67 0, 32 0" stroke="#1e1e1e" stroke-width="2" fill="none"/></g><g transform="translate(142.3412378879275 226.23684839376654) rotate(0 25.4482421875 11.5)"><text x="0" y="16.900390625" font-family="Helvetica, Segoe UI Emoji" font-size="20px" fill="#1e1e1e" text-anchor="start" style="white-space: pre;" direction="ltr" dominant-baseline="alphabetic">Fetch</text></g><g transform="translate(152.9058251952522 248.78933881829323) rotate(0 17.368316650390625 6.479101419128085)"><text x="0" y="9.521682163674477" font-family="Helvetica, Segoe UI Emoji" font-size="11.268002468048845px" fill="#1e1e1e" text-anchor="start" style="white-space: pre;" direction="ltr" dominant-baseline="alphabetic">PC + 1</text></g><g transform="translate(230.3451009793796 227.38660073713777) rotate(0 34.90625 11.5)"><text x="0" y="16.900390625" font-family="Helvetica, Segoe UI Emoji" font-size="20px" fill="#1e1e1e" text-anchor="start" style="white-space: pre;" direction="ltr" dominant-baseline="alphabetic">Decode</text></g><g transform="translate(232.1404421098273 302.753801383932) rotate(0 36.5712890625 11.5)"><text x="0" y="16.900390625" font-family="Helvetica, Segoe UI Emoji" font-size="20px" fill="#1e1e1e" text-anchor="start" style="white-space: pre;" direction="ltr" dominant-baseline="alphabetic">Execute</text></g><g transform="translate(138.17095023776233 300.2516287938331) rotate(0 30.7314453125 11.5)"><text x="0" y="16.900390625" font-family="Helvetica, Segoe UI Emoji" font-size="20px" fill="#1e1e1e" text-anchor="start" style="white-space: pre;" direction="ltr" dominant-baseline="alphabetic">(Store)</text></g><g stroke-linecap="round"><g transform="translate(205.67077703870416 241.5902047031226) rotate(0 7.784445032797322 -0.27801210635632856)"><path d="M0 0 C2.59 -0.09, 12.97 -0.46, 15.57 -0.56 M0 0 C2.59 -0.09, 12.97 -0.46, 15.57 -0.56" stroke="#1e1e1e" stroke-width="2" fill="none"/></g><g transform="translate(205.67077703870416 241.5902047031226) rotate(0 7.784445032797322 -0.27801210635632856)"><path d="M8.35 2.37 C9.96 1.71, 11.57 1.06, 15.57 -0.56 M8.35 2.37 C9.84 1.76, 11.33 1.16, 15.57 -0.56" stroke="#1e1e1e" stroke-width="2" fill="none"/></g><g transform="translate(205.67077703870416 241.5902047031226) rotate(0 7.784445032797322 -0.27801210635632856)"><path d="M8.16 -2.96 C9.81 -2.42, 11.47 -1.88, 15.57 -0.56 M8.16 -2.96 C9.69 -2.46, 11.22 -1.97, 15.57 -0.56" stroke="#1e1e1e" stroke-width="2" fill="none"/></g></g><mask/><g stroke-linecap="round"><g transform="translate(259.942119386669 272.6202815890848) rotate(0 0 8.896514669186672)"><path d="M0 0 C0 2.97, 0 14.83, 0 17.79 M0 0 C0 2.97, 0 14.83, 0 17.79" stroke="#1e1e1e" stroke-width="2" fill="none"/></g><g transform="translate(259.942119386669 272.6202815890848) rotate(0 0 8.896514669186672)"><path d="M-3.04 9.43 C-2.17 11.83, -1.3 14.23, 0 17.79 M-3.04 9.43 C-1.96 12.41, -0.87 15.39, 0 17.79" stroke="#1e1e1e" stroke-width="2" fill="none"/></g><g transform="translate(259.942119386669 272.6202815890848) rotate(0 0 8.896514669186672)"><path d="M3.04 9.43 C2.17 11.83, 1.3 14.23, 0 17.79 M3.04 9.43 C1.96 12.41, 0.87 15.39, 0 17.79" stroke="#1e1e1e" stroke-width="2" fill="none"/></g></g><mask/><g stroke-linecap="round"><g transform="translate(219.3517579516522 314.43047953861014) rotate(0 -5.282314864626386 0.27803331732042125)"><path d="M0 0 C-1.76 0.09, -8.8 0.46, -10.56 0.56 M0 0 C-1.76 0.09, -8.8 0.46, -10.56 0.56" stroke="#1e1e1e" stroke-width="2" fill="none"/></g><g transform="translate(219.3517579516522 314.43047953861014) rotate(0 -5.282314864626386 0.27803331732042125)"><path d="M-5.7 -1.51 C-7.52 -0.74, -9.35 0.04, -10.56 0.56 M-5.7 -1.51 C-6.71 -1.08, -7.73 -0.65, -10.56 0.56" stroke="#1e1e1e" stroke-width="2" fill="none"/></g><g transform="translate(219.3517579516522 314.43047953861014) rotate(0 -5.282314864626386 0.27803331732042125)"><path d="M-5.51 2.1 C-7.41 1.52, -9.31 0.94, -10.56 0.56 M-5.51 2.1 C-6.56 1.78, -7.62 1.46, -10.56 0.56" stroke="#1e1e1e" stroke-width="2" fill="none"/></g></g><mask/><g stroke-linecap="round"><g transform="translate(170.0236930125667 289.7409355310501) rotate(0 0.6830972535058208 -8.618502562830315)"><path d="M0 0 C0.23 -2.87, 1.14 -14.36, 1.37 -17.24 M0 0 C0.23 -2.87, 1.14 -14.36, 1.37 -17.24" stroke="#1e1e1e" stroke-width="2" fill="none"/></g><g transform="translate(170.0236930125667 289.7409355310501) rotate(0 0.6830972535058208 -8.618502562830315)"><path d="M3.67 -8.9 C3.14 -10.81, 2.62 -12.72, 1.37 -17.24 M3.67 -8.9 C2.86 -11.84, 2.04 -14.79, 1.37 -17.24" stroke="#1e1e1e" stroke-width="2" fill="none"/></g><g transform="translate(170.0236930125667 289.7409355310501) rotate(0 0.6830972535058208 -8.618502562830315)"><path d="M-2.22 -9.37 C-1.4 -11.17, -0.58 -12.98, 1.37 -17.24 M-2.22 -9.37 C-0.96 -12.15, 0.31 -14.92, 1.37 -17.24" stroke="#1e1e1e" stroke-width="2" fill="none"/></g></g><mask/><g stroke-linecap="round" transform="translate(377.4461411691876 193.81299954551957) rotate(0 107.90942313344996 87.86909356100223)"><path d="M32 0 C72.93 0, 113.87 0, 183.82 0 C205.15 0, 215.82 10.67, 215.82 32 C215.82 65.65, 215.82 99.3, 215.82 143.74 C215.82 165.07, 205.15 175.74, 183.82 175.74 C153.07 175.74, 122.32 175.74, 32 175.74 C10.67 175.74, 0 165.07, 0 143.74 C0 117.18, 0 90.62, 0 32 C0 10.67, 10.67 0, 32 0" stroke="none" stroke-width="0" fill="#ffec99"/><path d="M32 0 C70.86 0, 109.72 0, 183.82 0 M32 0 C74.95 0, 117.9 0, 183.82 0 M183.82 0 C205.15 0, 215.82 10.67, 215.82 32 M183.82 0 C205.15 0, 215.82 10.67, 215.82 32 M215.82 32 C215.82 74.85, 215.82 117.7, 215.82 143.74 M215.82 32 C215.82 56.94, 215.82 81.87, 215.82 143.74 M215.82 143.74 C215.82 165.07, 205.15 175.74, 183.82 175.74 M215.82 143.74 C215.82 165.07, 205.15 175.74, 183.82 175.74 M183.82 175.74 C152.56 175.74, 121.31 175.74, 32 175.74 M183.82 175.74 C145.74 175.74, 107.66 175.74, 32 175.74 M32 175.74 C10.67 175.74, 0 165.07, 0 143.74 M32 175.74 C10.67 175.74, 0 165.07, 0 143.74 M0 143.74 C0 112.91, 0 82.09, 0 32 M0 143.74 C0 119.89, 0 96.05, 0 32 M0 32 C0 10.67, 10.67 0, 32 0 M0 32 C0 10.67, 10.67 0, 32 0" stroke="#1e1e1e" stroke-width="2" fill="none"/></g><g transform="translate(442.4062320534544 235.68315530270377) rotate(0 43.623046875 11.5)"><text x="43.623046875" y="16.900390625" font-family="Helvetica, Segoe UI Emoji" font-size="20px" fill="#1e1e1e" text-anchor="middle" style="white-space: pre;" direction="ltr" dominant-baseline="alphabetic">+, -, *, / ...</text></g><g transform="translate(409.5026252084907 287.4512750337891) rotate(0 77.453125 11.5)"><text x="77.453125" y="16.900390625" font-family="Helvetica, Segoe UI Emoji" font-size="20px" fill="#1e1e1e" text-anchor="middle" style="white-space: pre;" direction="ltr" dominant-baseline="alphabetic">AND, OR, XOR...</text></g><g stroke-linecap="round" transform="translate(116.79629545694638 457.4349142409427) rotate(0 62.76648699113932 29.776062552216047)"><path d="M14.89 0 C43.84 0, 72.78 0, 110.64 0 C120.57 0, 125.53 4.96, 125.53 14.89 C125.53 21.48, 125.53 28.08, 125.53 44.66 C125.53 54.59, 120.57 59.55, 110.64 59.55 C79.92 59.55, 49.19 59.55, 14.89 59.55 C4.96 59.55, 0 54.59, 0 44.66 C0 36.38, 0 28.09, 0 14.89 C0 4.96, 4.96 0, 14.89 0" stroke="none" stroke-width="0" fill="#ffec99"/><path d="M14.89 0 C46.03 0, 77.18 0, 110.64 0 M14.89 0 C44.94 0, 74.99 0, 110.64 0 M110.64 0 C120.57 0, 125.53 4.96, 125.53 14.89 M110.64 0 C120.57 0, 125.53 4.96, 125.53 14.89 M125.53 14.89 C125.53 25.02, 125.53 35.16, 125.53 44.66 M125.53 14.89 C125.53 21.31, 125.53 27.74, 125.53 44.66 M125.53 44.66 C125.53 54.59, 120.57 59.55, 110.64 59.55 M125.53 44.66 C125.53 54.59, 120.57 59.55, 110.64 59.55 M110.64 59.55 C90.06 59.55, 69.48 59.55, 14.89 59.55 M110.64 59.55 C80.16 59.55, 49.67 59.55, 14.89 59.55 M14.89 59.55 C4.96 59.55, 0 54.59, 0 44.66 M14.89 59.55 C4.96 59.55, 0 54.59, 0 44.66 M0 44.66 C0 37.28, 0 29.9, 0 14.89 M0 44.66 C0 36.96, 0 29.25, 0 14.89 M0 14.89 C0 4.96, 4.96 0, 14.89 0 M0 14.89 C0 4.96, 4.96 0, 14.89 0" stroke="#1e1e1e" stroke-width="2" fill="none"/></g><g stroke-linecap="round" transform="translate(262.6600865326052 456.3749877743451) rotate(0 62.76648699113932 29.56545206679715)"><path d="M14.78 0 C41.15 0, 67.51 0, 110.75 0 C120.61 0, 125.53 4.93, 125.53 14.78 C125.53 23.11, 125.53 31.44, 125.53 44.35 C125.53 54.2, 120.61 59.13, 110.75 59.13 C90.43 59.13, 70.11 59.13, 14.78 59.13 C4.93 59.13, 0 54.2, 0 44.35 C0 32.54, 0 20.72, 0 14.78 C0 4.93, 4.93 0, 14.78 0" stroke="none" stroke-width="0" fill="#ffec99"/><path d="M14.78 0 C43.11 0, 71.44 0, 110.75 0 M14.78 0 C51.21 0, 87.64 0, 110.75 0 M110.75 0 C120.61 0, 125.53 4.93, 125.53 14.78 M110.75 0 C120.61 0, 125.53 4.93, 125.53 14.78 M125.53 14.78 C125.53 21.11, 125.53 27.43, 125.53 44.35 M125.53 14.78 C125.53 23.93, 125.53 33.08, 125.53 44.35 M125.53 44.35 C125.53 54.2, 120.61 59.13, 110.75 59.13 M125.53 44.35 C125.53 54.2, 120.61 59.13, 110.75 59.13 M110.75 59.13 C83.97 59.13, 57.19 59.13, 14.78 59.13 M110.75 59.13 C89.87 59.13, 68.99 59.13, 14.78 59.13 M14.78 59.13 C4.93 59.13, 0 54.2, 0 44.35 M14.78 59.13 C4.93 59.13, 0 54.2, 0 44.35 M0 44.35 C0 34.91, 0 25.46, 0 14.78 M0 44.35 C0 33.8, 0 23.26, 0 14.78 M0 14.78 C0 4.93, 4.93 0, 14.78 0 M0 14.78 C0 4.93, 4.93 0, 14.78 0" stroke="#1e1e1e" stroke-width="2" fill="none"/></g><g transform="translate(307.75665164874454 474.4404398411422) rotate(0 17.669921875 11.5)"><text x="17.669921875" y="16.900390625" font-family="Helvetica, Segoe UI Emoji" font-size="20px" fill="#1e1e1e" text-anchor="middle" style="white-space: pre;" direction="ltr" dominant-baseline="alphabetic">Acc</text></g><g stroke-linecap="round" transform="translate(404.2805021923682 457.2076387743451) rotate(0 76.21721854445681 29.359737052216047)"><path d="M14.68 0 C50.02 0, 85.36 0, 137.75 0 C147.54 0, 152.43 4.89, 152.43 14.68 C152.43 21.11, 152.43 27.54, 152.43 44.04 C152.43 53.83, 147.54 58.72, 137.75 58.72 C103.63 58.72, 69.5 58.72, 14.68 58.72 C4.89 58.72, 0 53.83, 0 44.04 C0 38.03, 0 32.03, 0 14.68 C0 4.89, 4.89 0, 14.68 0" stroke="none" stroke-width="0" fill="#ffec99"/><path d="M14.68 0 C51.98 0, 89.28 0, 137.75 0 M14.68 0 C42.99 0, 71.3 0, 137.75 0 M137.75 0 C147.54 0, 152.43 4.89, 152.43 14.68 M137.75 0 C147.54 0, 152.43 4.89, 152.43 14.68 M152.43 14.68 C152.43 20.75, 152.43 26.82, 152.43 44.04 M152.43 14.68 C152.43 22.57, 152.43 30.46, 152.43 44.04 M152.43 44.04 C152.43 53.83, 147.54 58.72, 137.75 58.72 M152.43 44.04 C152.43 53.83, 147.54 58.72, 137.75 58.72 M137.75 58.72 C107.48 58.72, 77.2 58.72, 14.68 58.72 M137.75 58.72 C88.9 58.72, 40.04 58.72, 14.68 58.72 M14.68 58.72 C4.89 58.72, 0 53.83, 0 44.04 M14.68 58.72 C4.89 58.72, 0 53.83, 0 44.04 M0 44.04 C0 37.57, 0 31.1, 0 14.68 M0 44.04 C0 32.53, 0 21.02, 0 14.68 M0 14.68 C0 4.89, 4.89 0, 14.68 0 M0 14.68 C0 4.89, 4.89 0, 14.68 0" stroke="#1e1e1e" stroke-width="2" fill="none"/></g><g transform="translate(412.35709573682504 468.16737582656117) rotate(0 68.140625 18.4)"><text x="68.140625" y="13.5203125" font-family="Helvetica, Segoe UI Emoji" font-size="16px" fill="#1e1e1e" text-anchor="middle" style="white-space: pre;" direction="ltr" dominant-baseline="alphabetic">Aktuelle Instruktion</text><text x="68.140625" y="31.920312499999998" font-family="Helvetica, Segoe UI Emoji" font-size="16px" fill="#1e1e1e" text-anchor="middle" style="white-space: pre;" direction="ltr" dominant-baseline="alphabetic">(CIR)</text></g><g stroke-linecap="round" transform="translate(880.4278322852927 118.01586719245154) rotate(0 108.85346612032777 211.9063880916107)"><path d="M32 0 C79.13 0, 126.26 0, 185.71 0 C207.04 0, 217.71 10.67, 217.71 32 C217.71 104.44, 217.71 176.88, 217.71 391.81 C217.71 413.15, 207.04 423.81, 185.71 423.81 C139.26 423.81, 92.82 423.81, 32 423.81 C10.67 423.81, 0 413.15, 0 391.81 C0 282.63, 0 173.45, 0 32 C0 10.67, 10.67 0, 32 0" stroke="none" stroke-width="0" fill="#a5d8ff"/><path d="M32 0 C63.17 0, 94.34 0, 185.71 0 M32 0 C64.3 0, 96.59 0, 185.71 0 M185.71 0 C207.04 0, 217.71 10.67, 217.71 32 M185.71 0 C207.04 0, 217.71 10.67, 217.71 32 M217.71 32 C217.71 127.27, 217.71 222.55, 217.71 391.81 M217.71 32 C217.71 156.54, 217.71 281.08, 217.71 391.81 M217.71 391.81 C217.71 413.15, 207.04 423.81, 185.71 423.81 M217.71 391.81 C217.71 413.15, 207.04 423.81, 185.71 423.81 M185.71 423.81 C134.1 423.81, 82.48 423.81, 32 423.81 M185.71 423.81 C153.9 423.81, 122.09 423.81, 32 423.81 M32 423.81 C10.67 423.81, 0 413.15, 0 391.81 M32 423.81 C10.67 423.81, 0 413.15, 0 391.81 M0 391.81 C0 291.67, 0 191.52, 0 32 M0 391.81 C0 266.82, 0 141.82, 0 32 M0 32 C0 10.67, 10.67 0, 32 0 M0 32 C0 10.67, 10.67 0, 32 0" stroke="#1e1e1e" stroke-width="2" fill="none"/></g><g transform="translate(912.1185666886731 147.50589169014495) rotate(0 37.123046875 184)"><text x="37.123046875" y="16.900390625" font-family="Helvetica, Segoe UI Emoji" font-size="20px" fill="#1e1e1e" text-anchor="middle" style="white-space: pre;" direction="ltr" dominant-baseline="alphabetic">Adresse</text><text x="37.123046875" y="39.900390625" font-family="Helvetica, Segoe UI Emoji" font-size="20px" fill="#1e1e1e" text-anchor="middle" style="white-space: pre;" direction="ltr" dominant-baseline="alphabetic"/><text x="37.123046875" y="62.900390625" font-family="Helvetica, Segoe UI Emoji" font-size="20px" fill="#1e1e1e" text-anchor="middle" style="white-space: pre;" direction="ltr" dominant-baseline="alphabetic">0</text><text x="37.123046875" y="85.900390625" font-family="Helvetica, Segoe UI Emoji" font-size="20px" fill="#1e1e1e" text-anchor="middle" style="white-space: pre;" direction="ltr" dominant-baseline="alphabetic">1</text><text x="37.123046875" y="108.900390625" font-family="Helvetica, Segoe UI Emoji" font-size="20px" fill="#1e1e1e" text-anchor="middle" style="white-space: pre;" direction="ltr" dominant-baseline="alphabetic">2</text><text x="37.123046875" y="131.900390625" font-family="Helvetica, Segoe UI Emoji" font-size="20px" fill="#1e1e1e" text-anchor="middle" style="white-space: pre;" direction="ltr" dominant-baseline="alphabetic">3</text><text x="37.123046875" y="154.900390625" font-family="Helvetica, Segoe UI Emoji" font-size="20px" fill="#1e1e1e" text-anchor="middle" style="white-space: pre;" direction="ltr" dominant-baseline="alphabetic">4</text><text x="37.123046875" y="177.900390625" font-family="Helvetica, Segoe UI Emoji" font-size="20px" fill="#1e1e1e" text-anchor="middle" style="white-space: pre;" direction="ltr" dominant-baseline="alphabetic">5</text><text x="37.123046875" y="200.900390625" font-family="Helvetica, Segoe UI Emoji" font-size="20px" fill="#1e1e1e" text-anchor="middle" style="white-space: pre;" direction="ltr" dominant-baseline="alphabetic">6</text><text x="37.123046875" y="223.900390625" font-family="Helvetica, Segoe UI Emoji" font-size="20px" fill="#1e1e1e" text-anchor="middle" style="white-space: pre;" direction="ltr" dominant-baseline="alphabetic">7</text><text x="37.123046875" y="246.900390625" font-family="Helvetica, Segoe UI Emoji" font-size="20px" fill="#1e1e1e" text-anchor="middle" style="white-space: pre;" direction="ltr" dominant-baseline="alphabetic">8</text><text x="37.123046875" y="269.900390625" font-family="Helvetica, Segoe UI Emoji" font-size="20px" fill="#1e1e1e" text-anchor="middle" style="white-space: pre;" direction="ltr" dominant-baseline="alphabetic">9</text><text x="37.123046875" y="292.900390625" font-family="Helvetica, Segoe UI Emoji" font-size="20px" fill="#1e1e1e" text-anchor="middle" style="white-space: pre;" direction="ltr" dominant-baseline="alphabetic">10</text><text x="37.123046875" y="315.900390625" font-family="Helvetica, Segoe UI Emoji" font-size="20px" fill="#1e1e1e" text-anchor="middle" style="white-space: pre;" direction="ltr" dominant-baseline="alphabetic">11</text><text x="37.123046875" y="338.900390625" font-family="Helvetica, Segoe UI Emoji" font-size="20px" fill="#1e1e1e" text-anchor="middle" style="white-space: pre;" direction="ltr" dominant-baseline="alphabetic">12</text><text x="37.123046875" y="361.900390625" font-family="Helvetica, Segoe UI Emoji" font-size="20px" fill="#1e1e1e" text-anchor="middle" style="white-space: pre;" direction="ltr" dominant-baseline="alphabetic">...</text></g><g transform="translate(985.4877069674858 147.505891766766) rotate(0 37.123046875 184)"><text x="37.123046875" y="16.900390625" font-family="Helvetica, Segoe UI Emoji" font-size="20px" fill="#1e1e1e" text-anchor="middle" style="white-space: pre;" direction="ltr" dominant-baseline="alphabetic">Daten</text><text x="37.123046875" y="39.900390625" font-family="Helvetica, Segoe UI Emoji" font-size="20px" fill="#1e1e1e" text-anchor="middle" style="white-space: pre;" direction="ltr" dominant-baseline="alphabetic"/><text x="37.123046875" y="62.900390625" font-family="Helvetica, Segoe UI Emoji" font-size="20px" fill="#1e1e1e" text-anchor="middle" style="white-space: pre;" direction="ltr" dominant-baseline="alphabetic">Befehl</text><text x="37.123046875" y="85.900390625" font-family="Helvetica, Segoe UI Emoji" font-size="20px" fill="#1e1e1e" text-anchor="middle" style="white-space: pre;" direction="ltr" dominant-baseline="alphabetic">Befehl</text><text x="37.123046875" y="108.900390625" font-family="Helvetica, Segoe UI Emoji" font-size="20px" fill="#1e1e1e" text-anchor="middle" style="white-space: pre;" direction="ltr" dominant-baseline="alphabetic">Befehl</text><text x="37.123046875" y="131.900390625" font-family="Helvetica, Segoe UI Emoji" font-size="20px" fill="#1e1e1e" text-anchor="middle" style="white-space: pre;" direction="ltr" dominant-baseline="alphabetic">Adresse</text><text x="37.123046875" y="154.900390625" font-family="Helvetica, Segoe UI Emoji" font-size="20px" fill="#1e1e1e" text-anchor="middle" style="white-space: pre;" direction="ltr" dominant-baseline="alphabetic">Befehl</text><text x="37.123046875" y="177.900390625" font-family="Helvetica, Segoe UI Emoji" font-size="20px" fill="#1e1e1e" text-anchor="middle" style="white-space: pre;" direction="ltr" dominant-baseline="alphabetic">Adresse</text><text x="37.123046875" y="200.900390625" font-family="Helvetica, Segoe UI Emoji" font-size="20px" fill="#1e1e1e" text-anchor="middle" style="white-space: pre;" direction="ltr" dominant-baseline="alphabetic">Wert</text><text x="37.123046875" y="223.900390625" font-family="Helvetica, Segoe UI Emoji" font-size="20px" fill="#1e1e1e" text-anchor="middle" style="white-space: pre;" direction="ltr" dominant-baseline="alphabetic">Wert</text><text x="37.123046875" y="246.900390625" font-family="Helvetica, Segoe UI Emoji" font-size="20px" fill="#1e1e1e" text-anchor="middle" style="white-space: pre;" direction="ltr" dominant-baseline="alphabetic">Adresse</text><text x="37.123046875" y="269.900390625" font-family="Helvetica, Segoe UI Emoji" font-size="20px" fill="#1e1e1e" text-anchor="middle" style="white-space: pre;" direction="ltr" dominant-baseline="alphabetic">Wert</text><text x="37.123046875" y="292.900390625" font-family="Helvetica, Segoe UI Emoji" font-size="20px" fill="#1e1e1e" text-anchor="middle" style="white-space: pre;" direction="ltr" dominant-baseline="alphabetic">Befehl</text><text x="37.123046875" y="315.900390625" font-family="Helvetica, Segoe UI Emoji" font-size="20px" fill="#1e1e1e" text-anchor="middle" style="white-space: pre;" direction="ltr" dominant-baseline="alphabetic">Adresse</text><text x="37.123046875" y="338.900390625" font-family="Helvetica, Segoe UI Emoji" font-size="20px" fill="#1e1e1e" text-anchor="middle" style="white-space: pre;" direction="ltr" dominant-baseline="alphabetic">Wert</text><text x="37.123046875" y="361.900390625" font-family="Helvetica, Segoe UI Emoji" font-size="20px" fill="#1e1e1e" text-anchor="middle" style="white-space: pre;" direction="ltr" dominant-baseline="alphabetic">...</text></g><g stroke-linecap="round" transform="translate(674.8868639363284 258.7449825216555) rotate(0 68.79184031528675 22.19091623073767)"><path d="M0 0 L137.58 0 L137.58 44.38 L0 44.38" stroke="none" stroke-width="0" fill="#ffec99"/><path d="M0 0 C47.07 0, 94.14 0, 137.58 0 M0 0 C47.75 0, 95.49 0, 137.58 0 M137.58 0 C137.58 9.73, 137.58 19.46, 137.58 44.38 M137.58 0 C137.58 13.05, 137.58 26.09, 137.58 44.38 M137.58 44.38 C86.99 44.38, 36.39 44.38, 0 44.38 M137.58 44.38 C96.3 44.38, 55.01 44.38, 0 44.38 M0 44.38 C0 33.62, 0 22.86, 0 0 M0 44.38 C0 33.71, 0 23.03, 0 0" stroke="transparent" stroke-width="1" fill="none"/></g><g stroke-linecap="round"><g transform="translate(808.032361320755 316.441364721573) rotate(0 19.971824607663905 -35.50546596918028)" fill-rule="evenodd"><path d="M0 0 L39.94 -35.51 L0 -71.01 L0 0" stroke="none" stroke-width="0" fill="#ffec99" fill-rule="evenodd"/><path d="M0 0 C15.32 -13.62, 30.63 -27.23, 39.94 -35.51 M0 0 C8.91 -7.92, 17.83 -15.85, 39.94 -35.51 M39.94 -35.51 C29.37 -44.91, 18.79 -54.31, 0 -71.01 M39.94 -35.51 C26.12 -47.79, 12.29 -60.08, 0 -71.01 M0 -71.01 C0 -55.75, 0 -40.48, 0 0 M0 -71.01 C0 -48.4, 0 -25.8, 0 0 M0 0 C0 0, 0 0, 0 0 M0 0 C0 0, 0 0, 0 0" stroke="transparent" stroke-width="1" fill="none"/></g></g><mask/><g stroke-linecap="round"><g transform="translate(686.3032558772794 315.1643582135315) rotate(0 -19.971824607663905 -35.50546596918028)" fill-rule="evenodd"><path d="M0 0 L-39.94 -35.51 L0 -71.01 L0 0" stroke="none" stroke-width="0" fill="#ffec99" fill-rule="evenodd"/><path d="M0 0 C-9.19 -8.17, -18.39 -16.34, -39.94 -35.51 M0 0 C-8.38 -7.45, -16.76 -14.9, -39.94 -35.51 M-39.94 -35.51 C-29.32 -44.95, -18.7 -54.39, 0 -71.01 M-39.94 -35.51 C-31.94 -42.62, -23.94 -49.73, 0 -71.01 M0 -71.01 C0 -51.2, 0 -31.38, 0 0 M0 -71.01 C0 -55.56, 0 -40.11, 0 0 M0 0 C0 0, 0 0, 0 0 M0 0 C0 0, 0 0, 0 0" stroke="transparent" stroke-width="1" fill="none"/></g></g><mask/><g stroke-linecap="round" transform="translate(567.3506535344383 475.9870171458057) rotate(89.99999999999994 184.1793288295491 9.970257102497328)"><path d="M0 0 L368.36 0 L368.36 19.94 L0 19.94" stroke="none" stroke-width="0" fill="#ffec99"/><path d="M0 0 C110.91 0, 221.82 0, 368.36 0 M0 0 C145.58 0, 291.16 0, 368.36 0 M368.36 0 C368.36 7.01, 368.36 14.02, 368.36 19.94 M368.36 0 C368.36 7.95, 368.36 15.9, 368.36 19.94 M368.36 19.94 C277.75 19.94, 187.13 19.94, 0 19.94 M368.36 19.94 C222.13 19.94, 75.91 19.94, 0 19.94 M0 19.94 C0 15.79, 0 11.63, 0 0 M0 19.94 C0 12.7, 0 5.47, 0 0" stroke="transparent" stroke-width="1" fill="none"/></g><g stroke-linecap="round"><g transform="translate(804.8373348588411 766.684517536481) rotate(89.99999999999994 14.305877139143973 -25.20380045948629)" fill-rule="evenodd"><path d="M0 0 L28.61 -25.2 L0 -50.41 L0 0" stroke="none" stroke-width="0" fill="#ffec99" fill-rule="evenodd"/><path d="M0 0 C9.74 -8.58, 19.48 -17.16, 28.61 -25.2 M0 0 C6.17 -5.44, 12.35 -10.88, 28.61 -25.2 M28.61 -25.2 C21.34 -31.61, 14.07 -38.02, 0 -50.41 M28.61 -25.2 C19.92 -32.86, 11.23 -40.51, 0 -50.41 M0 -50.41 C0 -31.1, 0 -11.79, 0 0 M0 -50.41 C0 -37.91, 0 -25.42, 0 0 M0 0 C0 0, 0 0, 0 0 M0 0 C0 0, 0 0, 0 0" stroke="transparent" stroke-width="1" fill="none"/></g></g><mask/><g stroke-linecap="round" transform="translate(185.00871449768533 667.266491213971) rotate(180 394.83954976732673 11.864203363355344)"><path d="M0 0 L789.68 0 L789.68 23.73 L0 23.73" stroke="none" stroke-width="0" fill="#ffec99"/><path d="M0 0 C168.95 0, 337.89 0, 789.68 0 M0 0 C244.34 0, 488.69 0, 789.68 0 M789.68 0 C789.68 4.89, 789.68 9.77, 789.68 23.73 M789.68 0 C789.68 5.95, 789.68 11.9, 789.68 23.73 M789.68 23.73 C524.52 23.73, 259.36 23.73, 0 23.73 M789.68 23.73 C626.25 23.73, 462.82 23.73, 0 23.73 M0 23.73 C0 17.85, 0 11.96, 0 0 M0 23.73 C0 17.59, 0 11.44, 0 0" stroke="transparent" stroke-width="1" fill="none"/></g><g stroke-linecap="round" transform="translate(485.1619553266155 621.3118840103455) rotate(0 68.16187949748964 60.98697265550021)"><path d="M30.49 0 C51.38 0, 72.27 0, 105.83 0 C126.16 0, 136.32 10.16, 136.32 30.49 C136.32 42.97, 136.32 55.44, 136.32 91.48 C136.32 111.81, 126.16 121.97, 105.83 121.97 C82.41 121.97, 59 121.97, 30.49 121.97 C10.16 121.97, 0 111.81, 0 91.48 C0 70, 0 48.52, 0 30.49 C0 10.16, 10.16 0, 30.49 0" stroke="none" stroke-width="0" fill="#a5d8ff"/><path d="M30.49 0 C46.07 0, 61.64 0, 105.83 0 M30.49 0 C50.74 0, 70.98 0, 105.83 0 M105.83 0 C126.16 0, 136.32 10.16, 136.32 30.49 M105.83 0 C126.16 0, 136.32 10.16, 136.32 30.49 M136.32 30.49 C136.32 45.5, 136.32 60.5, 136.32 91.48 M136.32 30.49 C136.32 54.7, 136.32 78.91, 136.32 91.48 M136.32 91.48 C136.32 111.81, 126.16 121.97, 105.83 121.97 M136.32 91.48 C136.32 111.81, 126.16 121.97, 105.83 121.97 M105.83 121.97 C89.23 121.97, 72.63 121.97, 30.49 121.97 M105.83 121.97 C76.3 121.97, 46.77 121.97, 30.49 121.97 M30.49 121.97 C10.16 121.97, 0 111.81, 0 91.48 M30.49 121.97 C10.16 121.97, 0 111.81, 0 91.48 M0 91.48 C0 73.97, 0 56.46, 0 30.49 M0 91.48 C0 77.97, 0 64.46, 0 30.49 M0 30.49 C0 10.16, 10.16 0, 30.49 0 M0 30.49 C0 10.16, 10.16 0, 30.49 0" stroke="#1e1e1e" stroke-width="2" fill="none"/></g><g transform="translate(519.1959051366051 670.7988566658456) rotate(0 34.1279296875 11.5)"><text x="34.1279296875" y="16.900390625" font-family="Helvetica, Segoe UI Emoji" font-size="20px" fill="#1e1e1e" text-anchor="middle" style="white-space: pre;" direction="ltr" dominant-baseline="alphabetic">Chipset</text></g><g transform="translate(771.6764307883725 764.3288585980893) rotate(0 48.9013671875 11.5)"><text x="48.9013671875" y="16.900390625" font-family="Helvetica, Segoe UI Emoji" font-size="20px" fill="#1e1e1e" text-anchor="middle" style="white-space: pre;" direction="ltr" dominant-baseline="alphabetic">Grafikkarte</text></g><g transform="translate(895.4463376250822 764.3288588861387) rotate(0 46.83984375 11.5)"><text x="46.83984375" y="16.900390625" font-family="Helvetica, Segoe UI Emoji" font-size="20px" fill="#1e1e1e" text-anchor="middle" style="white-space: pre;" direction="ltr" dominant-baseline="alphabetic">SSD (M.2)</text></g><g stroke-linecap="round" transform="translate(795.8092943550097 692.3082845814472) rotate(89.99999999999994 22.949401288733895 16.00993264401515)"><path d="M0 0 L45.9 0 L45.9 32.02 L0 32.02" stroke="none" stroke-width="0" fill="#ffec99"/><path d="M0 0 C16.14 0, 32.28 0, 45.9 0 M0 0 C18.3 0, 36.6 0, 45.9 0 M45.9 0 C45.9 7.88, 45.9 15.75, 45.9 32.02 M45.9 0 C45.9 12.71, 45.9 25.42, 45.9 32.02 M45.9 32.02 C36.34 32.02, 26.77 32.02, 0 32.02 M45.9 32.02 C29.24 32.02, 12.58 32.02, 0 32.02 M0 32.02 C0 20, 0 7.98, 0 0 M0 32.02 C0 24.64, 0 17.25, 0 0" stroke="transparent" stroke-width="1" fill="none"/></g><g stroke-linecap="round"><g transform="translate(931.5091879700453 766.684517536481) rotate(89.99999999999994 14.305877139143973 -25.20380045948629)" fill-rule="evenodd"><path d="M0 0 L28.61 -25.2 L0 -50.41 L0 0" stroke="none" stroke-width="0" fill="#ffec99" fill-rule="evenodd"/><path d="M0 0 C7.27 -6.41, 14.54 -12.81, 28.61 -25.2 M0 0 C8.69 -7.65, 17.38 -15.31, 28.61 -25.2 M28.61 -25.2 C17.65 -34.86, 6.69 -44.51, 0 -50.41 M28.61 -25.2 C21.52 -31.45, 14.43 -37.7, 0 -50.41 M0 -50.41 C0 -30.39, 0 -10.37, 0 0 M0 -50.41 C0 -32.03, 0 -13.65, 0 0 M0 0 C0 0, 0 0, 0 0 M0 0 C0 0, 0 0, 0 0" stroke="transparent" stroke-width="1" fill="none"/></g></g><mask/><g stroke-linecap="round" transform="translate(922.481147466214 692.3082845814474) rotate(89.99999999999994 22.949401288733895 16.00993264401515)"><path d="M0 0 L45.9 0 L45.9 32.02 L0 32.02" stroke="none" stroke-width="0" fill="#ffec99"/><path d="M0 0 C9.45 0, 18.9 0, 45.9 0 M0 0 C11.51 0, 23.03 0, 45.9 0 M45.9 0 C45.9 10.75, 45.9 21.5, 45.9 32.02 M45.9 0 C45.9 6.63, 45.9 13.25, 45.9 32.02 M45.9 32.02 C34.52 32.02, 23.14 32.02, 0 32.02 M45.9 32.02 C34.02 32.02, 22.14 32.02, 0 32.02 M0 32.02 C0 19.44, 0 6.86, 0 0 M0 32.02 C0 23.86, 0 15.71, 0 0" stroke="transparent" stroke-width="1" fill="none"/></g><g stroke-linecap="round"><g transform="translate(201.01153000545742 766.684517536481) rotate(89.99999999999994 14.305877139143973 -25.20380045948629)" fill-rule="evenodd"><path d="M0 0 L28.61 -25.2 L0 -50.41 L0 0" stroke="none" stroke-width="0" fill="#ffec99" fill-rule="evenodd"/><path d="M0 0 C9.61 -8.47, 19.23 -16.94, 28.61 -25.2 M0 0 C5.79 -5.1, 11.58 -10.2, 28.61 -25.2 M28.61 -25.2 C22.18 -30.87, 15.75 -36.53, 0 -50.41 M28.61 -25.2 C19.77 -32.99, 10.93 -40.78, 0 -50.41 M0 -50.41 C0 -34.31, 0 -18.21, 0 0 M0 -50.41 C0 -32.43, 0 -14.46, 0 0 M0 0 C0 0, 0 0, 0 0 M0 0 C0 0, 0 0, 0 0" stroke="transparent" stroke-width="1" fill="none"/></g></g><mask/><g transform="translate(195.86039155998878 761.9941838646253) rotate(0 20.8916015625 11.5)"><text x="20.8916015625" y="16.900390625" font-family="Helvetica, Segoe UI Emoji" font-size="20px" fill="#1e1e1e" text-anchor="middle" style="white-space: pre;" direction="ltr" dominant-baseline="alphabetic">USB</text></g><g transform="translate(303.65666558419844 761.9941841526747) rotate(0 54.8037109375 11.5)"><text x="54.8037109375" y="16.900390625" font-family="Helvetica, Segoe UI Emoji" font-size="20px" fill="#1e1e1e" text-anchor="middle" style="white-space: pre;" direction="ltr" dominant-baseline="alphabetic">SSD (SATA)</text></g><g stroke-linecap="round" transform="translate(191.98348950162608 692.3082845814474) rotate(89.99999999999994 22.949401288733895 16.00993264401515)"><path d="M0 0 L45.9 0 L45.9 32.02 L0 32.02" stroke="none" stroke-width="0" fill="#ffec99"/><path d="M0 0 C12.81 0, 25.62 0, 45.9 0 M0 0 C9.99 0, 19.97 0, 45.9 0 M45.9 0 C45.9 8.83, 45.9 17.67, 45.9 32.02 M45.9 0 C45.9 6.83, 45.9 13.67, 45.9 32.02 M45.9 32.02 C33.12 32.02, 20.35 32.02, 0 32.02 M45.9 32.02 C29.95 32.02, 14.01 32.02, 0 32.02 M0 32.02 C0 22.34, 0 12.66, 0 0 M0 32.02 C0 20.53, 0 9.05, 0 0" stroke="transparent" stroke-width="1" fill="none"/></g><g stroke-linecap="round"><g transform="translate(347.6833831166616 766.684517536481) rotate(89.99999999999994 14.305877139143988 -25.20380045948629)" fill-rule="evenodd"><path d="M0 0 L28.61 -25.2 L0 -50.41 L0 0" stroke="none" stroke-width="0" fill="#ffec99" fill-rule="evenodd"/><path d="M0 0 C7.04 -6.2, 14.08 -12.4, 28.61 -25.2 M0 0 C11.36 -10, 22.72 -20.01, 28.61 -25.2 M28.61 -25.2 C22.65 -30.46, 16.69 -35.71, 0 -50.41 M28.61 -25.2 C18.23 -34.35, 7.84 -43.5, 0 -50.41 M0 -50.41 C0 -31.48, 0 -12.56, 0 0 M0 -50.41 C0 -38.78, 0 -27.16, 0 0 M0 0 C0 0, 0 0, 0 0 M0 0 C0 0, 0 0, 0 0" stroke="transparent" stroke-width="1" fill="none"/></g></g><mask/><g stroke-linecap="round" transform="translate(338.6553426128303 692.3082845814474) rotate(89.99999999999994 22.949401288733895 16.00993264401515)"><path d="M0 0 L45.9 0 L45.9 32.02 L0 32.02" stroke="none" stroke-width="0" fill="#ffec99"/><path d="M0 0 C17.58 0, 35.16 0, 45.9 0 M0 0 C11.38 0, 22.76 0, 45.9 0 M45.9 0 C45.9 12.72, 45.9 25.44, 45.9 32.02 M45.9 0 C45.9 11.67, 45.9 23.35, 45.9 32.02 M45.9 32.02 C33.22 32.02, 20.55 32.02, 0 32.02 M45.9 32.02 C28.28 32.02, 10.67 32.02, 0 32.02 M0 32.02 C0 22.83, 0 13.63, 0 0 M0 32.02 C0 24.93, 0 17.84, 0 0" stroke="transparent" stroke-width="1" fill="none"/></g><g transform="translate(571.291624376916 474.65104983678066) rotate(0 8.556640625 11.5)"><text x="8.556640625" y="16.900390625" font-family="Helvetica, Segoe UI Emoji" font-size="20px" fill="#1e1e1e" text-anchor="middle" style="white-space: pre;" direction="ltr" dominant-baseline="alphabetic">...</text></g><g stroke-linecap="round"><g transform="translate(685.7166937251235 766.684517536481) rotate(89.99999999999994 14.305877139143988 -25.20380045948629)" fill-rule="evenodd"><path d="M0 0 L28.61 -25.2 L0 -50.41 L0 0" stroke="none" stroke-width="0" fill="#ffec99" fill-rule="evenodd"/><path d="M0 0 C6.43 -5.66, 12.86 -11.33, 28.61 -25.2 M0 0 C8.84 -7.79, 17.68 -15.58, 28.61 -25.2 M28.61 -25.2 C19.47 -33.25, 10.34 -41.3, 0 -50.41 M28.61 -25.2 C18.41 -34.19, 8.2 -43.18, 0 -50.41 M0 -50.41 C0 -36.82, 0 -23.23, 0 0 M0 -50.41 C0 -33.61, 0 -16.82, 0 0 M0 0 C0 0, 0 0, 0 0 M0 0 C0 0, 0 0, 0 0" stroke="transparent" stroke-width="1" fill="none"/></g></g><mask/><g transform="translate(680.5655552796549 761.9941832817954) rotate(0 20.8916015625 11.5)"><text x="20.8916015625" y="16.900390625" font-family="Helvetica, Segoe UI Emoji" font-size="20px" fill="#1e1e1e" text-anchor="middle" style="white-space: pre;" direction="ltr" dominant-baseline="alphabetic">USB</text></g><g stroke-linecap="round" transform="translate(676.6886532212922 692.3082845814472) rotate(89.99999999999994 22.949401288733895 16.00993264401515)"><path d="M0 0 L45.9 0 L45.9 32.02 L0 32.02" stroke="none" stroke-width="0" fill="#ffec99"/><path d="M0 0 C16.09 0, 32.17 0, 45.9 0 M0 0 C13.42 0, 26.84 0, 45.9 0 M45.9 0 C45.9 6.62, 45.9 13.24, 45.9 32.02 M45.9 0 C45.9 12.02, 45.9 24.05, 45.9 32.02 M45.9 32.02 C35.98 32.02, 26.06 32.02, 0 32.02 M45.9 32.02 C32.08 32.02, 18.26 32.02, 0 32.02 M0 32.02 C0 22.86, 0 13.7, 0 0 M0 32.02 C0 25.57, 0 19.13, 0 0" stroke="transparent" stroke-width="1" fill="none"/></g><g transform="translate(-123.33117187675748 287.9651225242076) rotate(270 166.7998046875 11.5)"><text x="0" y="16.900390625" font-family="Helvetica, Segoe UI Emoji" font-size="20px" fill="#1e1e1e" text-anchor="start" style="white-space: pre;" direction="ltr" dominant-baseline="alphabetic">Klassische Von-Neumann-Architektur</text></g><g transform="translate(-38.095703125 660.3673076788625) rotate(270 71.095703125 23)"><text x="71.095703125" y="16.900390625" font-family="Helvetica, Segoe UI Emoji" font-size="20px" fill="#1e1e1e" text-anchor="middle" style="white-space: pre;" direction="ltr" dominant-baseline="alphabetic">Moderne </text><text x="71.095703125" y="39.900390625" font-family="Helvetica, Segoe UI Emoji" font-size="20px" fill="#1e1e1e" text-anchor="middle" style="white-space: pre;" direction="ltr" dominant-baseline="alphabetic">Inputs / Outputs</text></g><g stroke-linecap="round" transform="translate(182.04938008649287 146.548770535473) rotate(0 34.662073783820716 37)"><path d="M69.32 37 C69.32 38.93, 69.18 40.88, 68.9 42.79 C68.61 44.69, 68.19 46.6, 67.63 48.43 C67.07 50.27, 66.37 52.08, 65.55 53.8 C64.73 55.52, 63.77 57.19, 62.7 58.75 C61.64 60.31, 60.45 61.8, 59.17 63.16 C57.89 64.53, 56.5 65.8, 55.04 66.93 C53.57 68.07, 52.01 69.09, 50.4 69.97 C48.79 70.84, 47.09 71.59, 45.37 72.19 C43.65 72.79, 41.87 73.24, 40.08 73.54 C38.3 73.85, 36.47 74, 34.66 74 C32.85 74, 31.02 73.85, 29.24 73.54 C27.45 73.24, 25.67 72.79, 23.95 72.19 C22.23 71.59, 20.54 70.84, 18.93 69.97 C17.32 69.09, 15.75 68.07, 14.29 66.93 C12.83 65.8, 11.43 64.53, 10.15 63.16 C8.87 61.8, 7.68 60.31, 6.62 58.75 C5.56 57.19, 4.6 55.52, 3.78 53.8 C2.96 52.08, 2.26 50.27, 1.7 48.43 C1.14 46.6, 0.71 44.69, 0.43 42.79 C0.14 40.88, 0 38.93, 0 37 C0 35.07, 0.14 33.12, 0.43 31.21 C0.71 29.31, 1.14 27.4, 1.7 25.57 C2.26 23.73, 2.96 21.92, 3.78 20.2 C4.6 18.48, 5.56 16.81, 6.62 15.25 C7.68 13.69, 8.87 12.2, 10.15 10.84 C11.43 9.47, 12.83 8.2, 14.29 7.07 C15.75 5.93, 17.32 4.91, 18.93 4.03 C20.54 3.16, 22.23 2.41, 23.95 1.81 C25.67 1.21, 27.45 0.76, 29.24 0.46 C31.02 0.15, 32.85 0, 34.66 0 C36.47 0, 38.3 0.15, 40.08 0.46 C41.87 0.76, 43.65 1.21, 45.37 1.81 C47.09 2.41, 48.79 3.16, 50.4 4.03 C52.01 4.91, 53.57 5.93, 55.04 7.07 C56.5 8.2, 57.89 9.47, 59.17 10.84 C60.45 12.2, 61.64 13.69, 62.7 15.25 C63.77 16.81, 64.73 18.48, 65.55 20.2 C66.37 21.92, 67.07 23.73, 67.63 25.57 C68.19 27.4, 68.61 29.31, 68.9 31.21 C69.18 33.12, 69.25 36.04, 69.32 37 C69.4 37.96, 69.4 36.04, 69.32 37" stroke="none" stroke-width="0" fill="#fff5f5"/><path d="M69.32 37 C69.32 38.93, 69.18 40.88, 68.9 42.79 C68.61 44.69, 68.19 46.6, 67.63 48.43 C67.07 50.27, 66.37 52.08, 65.55 53.8 C64.73 55.52, 63.77 57.19, 62.7 58.75 C61.64 60.31, 60.45 61.8, 59.17 63.16 C57.89 64.53, 56.5 65.8, 55.04 66.93 C53.57 68.07, 52.01 69.09, 50.4 69.97 C48.79 70.84, 47.09 71.59, 45.37 72.19 C43.65 72.79, 41.87 73.24, 40.08 73.54 C38.3 73.85, 36.47 74, 34.66 74 C32.85 74, 31.02 73.85, 29.24 73.54 C27.45 73.24, 25.67 72.79, 23.95 72.19 C22.23 71.59, 20.54 70.84, 18.93 69.97 C17.32 69.09, 15.75 68.07, 14.29 66.93 C12.83 65.8, 11.43 64.53, 10.15 63.16 C8.87 61.8, 7.68 60.31, 6.62 58.75 C5.56 57.19, 4.6 55.52, 3.78 53.8 C2.96 52.08, 2.26 50.27, 1.7 48.43 C1.14 46.6, 0.71 44.69, 0.43 42.79 C0.14 40.88, 0 38.93, 0 37 C0 35.07, 0.14 33.12, 0.43 31.21 C0.71 29.31, 1.14 27.4, 1.7 25.57 C2.26 23.73, 2.96 21.92, 3.78 20.2 C4.6 18.48, 5.56 16.81, 6.62 15.25 C7.68 13.69, 8.87 12.2, 10.15 10.84 C11.43 9.47, 12.83 8.2, 14.29 7.07 C15.75 5.93, 17.32 4.91, 18.93 4.03 C20.54 3.16, 22.23 2.41, 23.95 1.81 C25.67 1.21, 27.45 0.76, 29.24 0.46 C31.02 0.15, 32.85 0, 34.66 0 C36.47 0, 38.3 0.15, 40.08 0.46 C41.87 0.76, 43.65 1.21, 45.37 1.81 C47.09 2.41, 48.79 3.16, 50.4 4.03 C52.01 4.91, 53.57 5.93, 55.04 7.07 C56.5 8.2, 57.89 9.47, 59.17 10.84 C60.45 12.2, 61.64 13.69, 62.7 15.25 C63.77 16.81, 64.73 18.48, 65.55 20.2 C66.37 21.92, 67.07 23.73, 67.63 25.57 C68.19 27.4, 68.61 29.31, 68.9 31.21 C69.18 33.12, 69.25 36.04, 69.32 37 C69.4 37.96, 69.4 36.04, 69.32 37" stroke="#e03131" stroke-width="2" fill="none"/></g><g transform="translate(206.6909242602855 162.68581963157078) rotate(0 10.0107421875 20.69999999999999)"><text x="10.0107421875" y="30.420703125" font-family="Helvetica, Segoe UI Emoji" font-size="36px" fill="#e03131" text-anchor="middle" style="white-space: pre;" direction="ltr" dominant-baseline="alphabetic">1</text></g><g stroke-linecap="round" transform="translate(450.41834490562564 145.78645140886198) rotate(0 34.66207378382071 37)"><path d="M69.32 37 C69.32 38.93, 69.18 40.88, 68.9 42.79 C68.61 44.69, 68.19 46.6, 67.63 48.43 C67.07 50.27, 66.37 52.08, 65.55 53.8 C64.73 55.52, 63.77 57.19, 62.7 58.75 C61.64 60.31, 60.45 61.8, 59.17 63.16 C57.89 64.53, 56.5 65.8, 55.04 66.93 C53.57 68.07, 52.01 69.09, 50.4 69.97 C48.79 70.84, 47.09 71.59, 45.37 72.19 C43.65 72.79, 41.87 73.24, 40.08 73.54 C38.3 73.85, 36.47 74, 34.66 74 C32.85 74, 31.02 73.85, 29.24 73.54 C27.45 73.24, 25.67 72.79, 23.95 72.19 C22.23 71.59, 20.54 70.84, 18.93 69.97 C17.32 69.09, 15.75 68.07, 14.29 66.93 C12.83 65.8, 11.43 64.53, 10.15 63.16 C8.87 61.8, 7.68 60.31, 6.62 58.75 C5.56 57.19, 4.6 55.52, 3.78 53.8 C2.96 52.08, 2.26 50.27, 1.7 48.43 C1.14 46.6, 0.71 44.69, 0.43 42.79 C0.14 40.88, 0 38.93, 0 37 C0 35.07, 0.14 33.12, 0.43 31.21 C0.71 29.31, 1.14 27.4, 1.7 25.57 C2.26 23.73, 2.96 21.92, 3.78 20.2 C4.6 18.48, 5.56 16.81, 6.62 15.25 C7.68 13.69, 8.87 12.2, 10.15 10.84 C11.43 9.47, 12.83 8.2, 14.29 7.07 C15.75 5.93, 17.32 4.91, 18.93 4.03 C20.54 3.16, 22.23 2.41, 23.95 1.81 C25.67 1.21, 27.45 0.76, 29.24 0.46 C31.02 0.15, 32.85 0, 34.66 0 C36.47 0, 38.3 0.15, 40.08 0.46 C41.87 0.76, 43.65 1.21, 45.37 1.81 C47.09 2.41, 48.79 3.16, 50.4 4.03 C52.01 4.91, 53.57 5.93, 55.04 7.07 C56.5 8.2, 57.89 9.47, 59.17 10.84 C60.45 12.2, 61.64 13.69, 62.7 15.25 C63.77 16.81, 64.73 18.48, 65.55 20.2 C66.37 21.92, 67.07 23.73, 67.63 25.57 C68.19 27.4, 68.61 29.31, 68.9 31.21 C69.18 33.12, 69.25 36.04, 69.32 37 C69.4 37.96, 69.4 36.04, 69.32 37" stroke="none" stroke-width="0" fill="#fff5f5"/><path d="M69.32 37 C69.32 38.93, 69.18 40.88, 68.9 42.79 C68.61 44.69, 68.19 46.6, 67.63 48.43 C67.07 50.27, 66.37 52.08, 65.55 53.8 C64.73 55.52, 63.77 57.19, 62.7 58.75 C61.64 60.31, 60.45 61.8, 59.17 63.16 C57.89 64.53, 56.5 65.8, 55.04 66.93 C53.57 68.07, 52.01 69.09, 50.4 69.97 C48.79 70.84, 47.09 71.59, 45.37 72.19 C43.65 72.79, 41.87 73.24, 40.08 73.54 C38.3 73.85, 36.47 74, 34.66 74 C32.85 74, 31.02 73.85, 29.24 73.54 C27.45 73.24, 25.67 72.79, 23.95 72.19 C22.23 71.59, 20.54 70.84, 18.93 69.97 C17.32 69.09, 15.75 68.07, 14.29 66.93 C12.83 65.8, 11.43 64.53, 10.15 63.16 C8.87 61.8, 7.68 60.31, 6.62 58.75 C5.56 57.19, 4.6 55.52, 3.78 53.8 C2.96 52.08, 2.26 50.27, 1.7 48.43 C1.14 46.6, 0.71 44.69, 0.43 42.79 C0.14 40.88, 0 38.93, 0 37 C0 35.07, 0.14 33.12, 0.43 31.21 C0.71 29.31, 1.14 27.4, 1.7 25.57 C2.26 23.73, 2.96 21.92, 3.78 20.2 C4.6 18.48, 5.56 16.81, 6.62 15.25 C7.68 13.69, 8.87 12.2, 10.15 10.84 C11.43 9.47, 12.83 8.2, 14.29 7.07 C15.75 5.93, 17.32 4.91, 18.93 4.03 C20.54 3.16, 22.23 2.41, 23.95 1.81 C25.67 1.21, 27.45 0.76, 29.24 0.46 C31.02 0.15, 32.85 0, 34.66 0 C36.47 0, 38.3 0.15, 40.08 0.46 C41.87 0.76, 43.65 1.21, 45.37 1.81 C47.09 2.41, 48.79 3.16, 50.4 4.03 C52.01 4.91, 53.57 5.93, 55.04 7.07 C56.5 8.2, 57.89 9.47, 59.17 10.84 C60.45 12.2, 61.64 13.69, 62.7 15.25 C63.77 16.81, 64.73 18.48, 65.55 20.2 C66.37 21.92, 67.07 23.73, 67.63 25.57 C68.19 27.4, 68.61 29.31, 68.9 31.21 C69.18 33.12, 69.25 36.04, 69.32 37 C69.4 37.96, 69.4 36.04, 69.32 37" stroke="#e03131" stroke-width="2" fill="none"/></g><g transform="translate(475.05988907941827 161.92350050495975) rotate(0 10.0107421875 20.69999999999999)"><text x="10.0107421875" y="30.420703125" font-family="Helvetica, Segoe UI Emoji" font-size="36px" fill="#e03131" text-anchor="middle" style="white-space: pre;" direction="ltr" dominant-baseline="alphabetic">2</text></g><g stroke-linecap="round" transform="translate(317.02164600667663 365.83837483569675) rotate(0 34.662073783820716 37.000000000000014)"><path d="M69.32 37 C69.32 38.93, 69.18 40.88, 68.9 42.79 C68.61 44.69, 68.19 46.6, 67.63 48.43 C67.07 50.27, 66.37 52.08, 65.55 53.8 C64.73 55.52, 63.77 57.19, 62.7 58.75 C61.64 60.31, 60.45 61.8, 59.17 63.16 C57.89 64.53, 56.5 65.8, 55.04 66.93 C53.57 68.07, 52.01 69.09, 50.4 69.97 C48.79 70.84, 47.09 71.59, 45.37 72.19 C43.65 72.79, 41.87 73.24, 40.08 73.54 C38.3 73.85, 36.47 74, 34.66 74 C32.85 74, 31.02 73.85, 29.24 73.54 C27.45 73.24, 25.67 72.79, 23.95 72.19 C22.23 71.59, 20.54 70.84, 18.93 69.97 C17.32 69.09, 15.75 68.07, 14.29 66.93 C12.83 65.8, 11.43 64.53, 10.15 63.16 C8.87 61.8, 7.68 60.31, 6.62 58.75 C5.56 57.19, 4.6 55.52, 3.78 53.8 C2.96 52.08, 2.26 50.27, 1.7 48.43 C1.14 46.6, 0.71 44.69, 0.43 42.79 C0.14 40.88, 0 38.93, 0 37 C0 35.07, 0.14 33.12, 0.43 31.21 C0.71 29.31, 1.14 27.4, 1.7 25.57 C2.26 23.73, 2.96 21.92, 3.78 20.2 C4.6 18.48, 5.56 16.81, 6.62 15.25 C7.68 13.69, 8.87 12.2, 10.15 10.84 C11.43 9.47, 12.83 8.2, 14.29 7.07 C15.75 5.93, 17.32 4.91, 18.93 4.03 C20.54 3.16, 22.23 2.41, 23.95 1.81 C25.67 1.21, 27.45 0.76, 29.24 0.46 C31.02 0.15, 32.85 0, 34.66 0 C36.47 0, 38.3 0.15, 40.08 0.46 C41.87 0.76, 43.65 1.21, 45.37 1.81 C47.09 2.41, 48.79 3.16, 50.4 4.03 C52.01 4.91, 53.57 5.93, 55.04 7.07 C56.5 8.2, 57.89 9.47, 59.17 10.84 C60.45 12.2, 61.64 13.69, 62.7 15.25 C63.77 16.81, 64.73 18.48, 65.55 20.2 C66.37 21.92, 67.07 23.73, 67.63 25.57 C68.19 27.4, 68.61 29.31, 68.9 31.21 C69.18 33.12, 69.25 36.04, 69.32 37 C69.4 37.96, 69.4 36.04, 69.32 37" stroke="none" stroke-width="0" fill="#fff5f5"/><path d="M69.32 37 C69.32 38.93, 69.18 40.88, 68.9 42.79 C68.61 44.69, 68.19 46.6, 67.63 48.43 C67.07 50.27, 66.37 52.08, 65.55 53.8 C64.73 55.52, 63.77 57.19, 62.7 58.75 C61.64 60.31, 60.45 61.8, 59.17 63.16 C57.89 64.53, 56.5 65.8, 55.04 66.93 C53.57 68.07, 52.01 69.09, 50.4 69.97 C48.79 70.84, 47.09 71.59, 45.37 72.19 C43.65 72.79, 41.87 73.24, 40.08 73.54 C38.3 73.85, 36.47 74, 34.66 74 C32.85 74, 31.02 73.85, 29.24 73.54 C27.45 73.24, 25.67 72.79, 23.95 72.19 C22.23 71.59, 20.54 70.84, 18.93 69.97 C17.32 69.09, 15.75 68.07, 14.29 66.93 C12.83 65.8, 11.43 64.53, 10.15 63.16 C8.87 61.8, 7.68 60.31, 6.62 58.75 C5.56 57.19, 4.6 55.52, 3.78 53.8 C2.96 52.08, 2.26 50.27, 1.7 48.43 C1.14 46.6, 0.71 44.69, 0.43 42.79 C0.14 40.88, 0 38.93, 0 37 C0 35.07, 0.14 33.12, 0.43 31.21 C0.71 29.31, 1.14 27.4, 1.7 25.57 C2.26 23.73, 2.96 21.92, 3.78 20.2 C4.6 18.48, 5.56 16.81, 6.62 15.25 C7.68 13.69, 8.87 12.2, 10.15 10.84 C11.43 9.47, 12.83 8.2, 14.29 7.07 C15.75 5.93, 17.32 4.91, 18.93 4.03 C20.54 3.16, 22.23 2.41, 23.95 1.81 C25.67 1.21, 27.45 0.76, 29.24 0.46 C31.02 0.15, 32.85 0, 34.66 0 C36.47 0, 38.3 0.15, 40.08 0.46 C41.87 0.76, 43.65 1.21, 45.37 1.81 C47.09 2.41, 48.79 3.16, 50.4 4.03 C52.01 4.91, 53.57 5.93, 55.04 7.07 C56.5 8.2, 57.89 9.47, 59.17 10.84 C60.45 12.2, 61.64 13.69, 62.7 15.25 C63.77 16.81, 64.73 18.48, 65.55 20.2 C66.37 21.92, 67.07 23.73, 67.63 25.57 C68.19 27.4, 68.61 29.31, 68.9 31.21 C69.18 33.12, 69.25 36.04, 69.32 37 C69.4 37.96, 69.4 36.04, 69.32 37" stroke="#e03131" stroke-width="2" fill="none"/></g><g transform="translate(341.66319018046926 381.97542393179447) rotate(0 10.0107421875 20.7)"><text x="10.0107421875" y="30.420703125" font-family="Helvetica, Segoe UI Emoji" font-size="36px" fill="#e03131" text-anchor="middle" style="white-space: pre;" direction="ltr" dominant-baseline="alphabetic">3</text></g><g stroke-linecap="round" transform="translate(142.13546965633577 406.80271670445546) rotate(0 34.662073783820716 37.000000000000014)"><path d="M69.32 37 C69.32 38.93, 69.18 40.88, 68.9 42.79 C68.61 44.69, 68.19 46.6, 67.63 48.43 C67.07 50.27, 66.37 52.08, 65.55 53.8 C64.73 55.52, 63.77 57.19, 62.7 58.75 C61.64 60.31, 60.45 61.8, 59.17 63.16 C57.89 64.53, 56.5 65.8, 55.04 66.93 C53.57 68.07, 52.01 69.09, 50.4 69.97 C48.79 70.84, 47.09 71.59, 45.37 72.19 C43.65 72.79, 41.87 73.24, 40.08 73.54 C38.3 73.85, 36.47 74, 34.66 74 C32.85 74, 31.02 73.85, 29.24 73.54 C27.45 73.24, 25.67 72.79, 23.95 72.19 C22.23 71.59, 20.54 70.84, 18.93 69.97 C17.32 69.09, 15.75 68.07, 14.29 66.93 C12.83 65.8, 11.43 64.53, 10.15 63.16 C8.87 61.8, 7.68 60.31, 6.62 58.75 C5.56 57.19, 4.6 55.52, 3.78 53.8 C2.96 52.08, 2.26 50.27, 1.7 48.43 C1.14 46.6, 0.71 44.69, 0.43 42.79 C0.14 40.88, 0 38.93, 0 37 C0 35.07, 0.14 33.12, 0.43 31.21 C0.71 29.31, 1.14 27.4, 1.7 25.57 C2.26 23.73, 2.96 21.92, 3.78 20.2 C4.6 18.48, 5.56 16.81, 6.62 15.25 C7.68 13.69, 8.87 12.2, 10.15 10.84 C11.43 9.47, 12.83 8.2, 14.29 7.07 C15.75 5.93, 17.32 4.91, 18.93 4.03 C20.54 3.16, 22.23 2.41, 23.95 1.81 C25.67 1.21, 27.45 0.76, 29.24 0.46 C31.02 0.15, 32.85 0, 34.66 0 C36.47 0, 38.3 0.15, 40.08 0.46 C41.87 0.76, 43.65 1.21, 45.37 1.81 C47.09 2.41, 48.79 3.16, 50.4 4.03 C52.01 4.91, 53.57 5.93, 55.04 7.07 C56.5 8.2, 57.89 9.47, 59.17 10.84 C60.45 12.2, 61.64 13.69, 62.7 15.25 C63.77 16.81, 64.73 18.48, 65.55 20.2 C66.37 21.92, 67.07 23.73, 67.63 25.57 C68.19 27.4, 68.61 29.31, 68.9 31.21 C69.18 33.12, 69.25 36.04, 69.32 37 C69.4 37.96, 69.4 36.04, 69.32 37" stroke="none" stroke-width="0" fill="#fff5f5"/><path d="M69.32 37 C69.32 38.93, 69.18 40.88, 68.9 42.79 C68.61 44.69, 68.19 46.6, 67.63 48.43 C67.07 50.27, 66.37 52.08, 65.55 53.8 C64.73 55.52, 63.77 57.19, 62.7 58.75 C61.64 60.31, 60.45 61.8, 59.17 63.16 C57.89 64.53, 56.5 65.8, 55.04 66.93 C53.57 68.07, 52.01 69.09, 50.4 69.97 C48.79 70.84, 47.09 71.59, 45.37 72.19 C43.65 72.79, 41.87 73.24, 40.08 73.54 C38.3 73.85, 36.47 74, 34.66 74 C32.85 74, 31.02 73.85, 29.24 73.54 C27.45 73.24, 25.67 72.79, 23.95 72.19 C22.23 71.59, 20.54 70.84, 18.93 69.97 C17.32 69.09, 15.75 68.07, 14.29 66.93 C12.83 65.8, 11.43 64.53, 10.15 63.16 C8.87 61.8, 7.68 60.31, 6.62 58.75 C5.56 57.19, 4.6 55.52, 3.78 53.8 C2.96 52.08, 2.26 50.27, 1.7 48.43 C1.14 46.6, 0.71 44.69, 0.43 42.79 C0.14 40.88, 0 38.93, 0 37 C0 35.07, 0.14 33.12, 0.43 31.21 C0.71 29.31, 1.14 27.4, 1.7 25.57 C2.26 23.73, 2.96 21.92, 3.78 20.2 C4.6 18.48, 5.56 16.81, 6.62 15.25 C7.68 13.69, 8.87 12.2, 10.15 10.84 C11.43 9.47, 12.83 8.2, 14.29 7.07 C15.75 5.93, 17.32 4.91, 18.93 4.03 C20.54 3.16, 22.23 2.41, 23.95 1.81 C25.67 1.21, 27.45 0.76, 29.24 0.46 C31.02 0.15, 32.85 0, 34.66 0 C36.47 0, 38.3 0.15, 40.08 0.46 C41.87 0.76, 43.65 1.21, 45.37 1.81 C47.09 2.41, 48.79 3.16, 50.4 4.03 C52.01 4.91, 53.57 5.93, 55.04 7.07 C56.5 8.2, 57.89 9.47, 59.17 10.84 C60.45 12.2, 61.64 13.69, 62.7 15.25 C63.77 16.81, 64.73 18.48, 65.55 20.2 C66.37 21.92, 67.07 23.73, 67.63 25.57 C68.19 27.4, 68.61 29.31, 68.9 31.21 C69.18 33.12, 69.25 36.04, 69.32 37 C69.4 37.96, 69.4 36.04, 69.32 37" stroke="#e03131" stroke-width="2" fill="none"/></g><g transform="translate(166.7770138301284 422.93976580055323) rotate(0 10.0107421875 20.7)"><text x="10.0107421875" y="30.420703125" font-family="Helvetica, Segoe UI Emoji" font-size="36px" fill="#e03131" text-anchor="middle" style="white-space: pre;" direction="ltr" dominant-baseline="alphabetic">4</text></g><g stroke-linecap="round" transform="translate(720.3627966093252 211.43436941973522) rotate(0 34.662073783820716 37.000000000000014)"><path d="M69.32 37 C69.32 38.93, 69.18 40.88, 68.9 42.79 C68.61 44.69, 68.19 46.6, 67.63 48.43 C67.07 50.27, 66.37 52.08, 65.55 53.8 C64.73 55.52, 63.77 57.19, 62.7 58.75 C61.64 60.31, 60.45 61.8, 59.17 63.16 C57.89 64.53, 56.5 65.8, 55.04 66.93 C53.57 68.07, 52.01 69.09, 50.4 69.97 C48.79 70.84, 47.09 71.59, 45.37 72.19 C43.65 72.79, 41.87 73.24, 40.08 73.54 C38.3 73.85, 36.47 74, 34.66 74 C32.85 74, 31.02 73.85, 29.24 73.54 C27.45 73.24, 25.67 72.79, 23.95 72.19 C22.23 71.59, 20.54 70.84, 18.93 69.97 C17.32 69.09, 15.75 68.07, 14.29 66.93 C12.83 65.8, 11.43 64.53, 10.15 63.16 C8.87 61.8, 7.68 60.31, 6.62 58.75 C5.56 57.19, 4.6 55.52, 3.78 53.8 C2.96 52.08, 2.26 50.27, 1.7 48.43 C1.14 46.6, 0.71 44.69, 0.43 42.79 C0.14 40.88, 0 38.93, 0 37 C0 35.07, 0.14 33.12, 0.43 31.21 C0.71 29.31, 1.14 27.4, 1.7 25.57 C2.26 23.73, 2.96 21.92, 3.78 20.2 C4.6 18.48, 5.56 16.81, 6.62 15.25 C7.68 13.69, 8.87 12.2, 10.15 10.84 C11.43 9.47, 12.83 8.2, 14.29 7.07 C15.75 5.93, 17.32 4.91, 18.93 4.03 C20.54 3.16, 22.23 2.41, 23.95 1.81 C25.67 1.21, 27.45 0.76, 29.24 0.46 C31.02 0.15, 32.85 0, 34.66 0 C36.47 0, 38.3 0.15, 40.08 0.46 C41.87 0.76, 43.65 1.21, 45.37 1.81 C47.09 2.41, 48.79 3.16, 50.4 4.03 C52.01 4.91, 53.57 5.93, 55.04 7.07 C56.5 8.2, 57.89 9.47, 59.17 10.84 C60.45 12.2, 61.64 13.69, 62.7 15.25 C63.77 16.81, 64.73 18.48, 65.55 20.2 C66.37 21.92, 67.07 23.73, 67.63 25.57 C68.19 27.4, 68.61 29.31, 68.9 31.21 C69.18 33.12, 69.25 36.04, 69.32 37 C69.4 37.96, 69.4 36.04, 69.32 37" stroke="none" stroke-width="0" fill="#fff5f5"/><path d="M69.32 37 C69.32 38.93, 69.18 40.88, 68.9 42.79 C68.61 44.69, 68.19 46.6, 67.63 48.43 C67.07 50.27, 66.37 52.08, 65.55 53.8 C64.73 55.52, 63.77 57.19, 62.7 58.75 C61.64 60.31, 60.45 61.8, 59.17 63.16 C57.89 64.53, 56.5 65.8, 55.04 66.93 C53.57 68.07, 52.01 69.09, 50.4 69.97 C48.79 70.84, 47.09 71.59, 45.37 72.19 C43.65 72.79, 41.87 73.24, 40.08 73.54 C38.3 73.85, 36.47 74, 34.66 74 C32.85 74, 31.02 73.85, 29.24 73.54 C27.45 73.24, 25.67 72.79, 23.95 72.19 C22.23 71.59, 20.54 70.84, 18.93 69.97 C17.32 69.09, 15.75 68.07, 14.29 66.93 C12.83 65.8, 11.43 64.53, 10.15 63.16 C8.87 61.8, 7.68 60.31, 6.62 58.75 C5.56 57.19, 4.6 55.52, 3.78 53.8 C2.96 52.08, 2.26 50.27, 1.7 48.43 C1.14 46.6, 0.71 44.69, 0.43 42.79 C0.14 40.88, 0 38.93, 0 37 C0 35.07, 0.14 33.12, 0.43 31.21 C0.71 29.31, 1.14 27.4, 1.7 25.57 C2.26 23.73, 2.96 21.92, 3.78 20.2 C4.6 18.48, 5.56 16.81, 6.62 15.25 C7.68 13.69, 8.87 12.2, 10.15 10.84 C11.43 9.47, 12.83 8.2, 14.29 7.07 C15.75 5.93, 17.32 4.91, 18.93 4.03 C20.54 3.16, 22.23 2.41, 23.95 1.81 C25.67 1.21, 27.45 0.76, 29.24 0.46 C31.02 0.15, 32.85 0, 34.66 0 C36.47 0, 38.3 0.15, 40.08 0.46 C41.87 0.76, 43.65 1.21, 45.37 1.81 C47.09 2.41, 48.79 3.16, 50.4 4.03 C52.01 4.91, 53.57 5.93, 55.04 7.07 C56.5 8.2, 57.89 9.47, 59.17 10.84 C60.45 12.2, 61.64 13.69, 62.7 15.25 C63.77 16.81, 64.73 18.48, 65.55 20.2 C66.37 21.92, 67.07 23.73, 67.63 25.57 C68.19 27.4, 68.61 29.31, 68.9 31.21 C69.18 33.12, 69.25 36.04, 69.32 37 C69.4 37.96, 69.4 36.04, 69.32 37" stroke="#e03131" stroke-width="2" fill="none"/></g><g transform="translate(745.0043407831179 227.571418515833) rotate(0 10.0107421875 20.700000000000003)"><text x="10.0107421875" y="30.420703125" font-family="Helvetica, Segoe UI Emoji" font-size="36px" fill="#e03131" text-anchor="middle" style="white-space: pre;" direction="ltr" dominant-baseline="alphabetic">5</text></g><g stroke-linecap="round" transform="translate(967.7243347064443 63.85774763717785) rotate(0 34.662073783820716 37)"><path d="M69.32 37 C69.32 38.93, 69.18 40.88, 68.9 42.79 C68.61 44.69, 68.19 46.6, 67.63 48.43 C67.07 50.27, 66.37 52.08, 65.55 53.8 C64.73 55.52, 63.77 57.19, 62.7 58.75 C61.64 60.31, 60.45 61.8, 59.17 63.16 C57.89 64.53, 56.5 65.8, 55.04 66.93 C53.57 68.07, 52.01 69.09, 50.4 69.97 C48.79 70.84, 47.09 71.59, 45.37 72.19 C43.65 72.79, 41.87 73.24, 40.08 73.54 C38.3 73.85, 36.47 74, 34.66 74 C32.85 74, 31.02 73.85, 29.24 73.54 C27.45 73.24, 25.67 72.79, 23.95 72.19 C22.23 71.59, 20.54 70.84, 18.93 69.97 C17.32 69.09, 15.75 68.07, 14.29 66.93 C12.83 65.8, 11.43 64.53, 10.15 63.16 C8.87 61.8, 7.68 60.31, 6.62 58.75 C5.56 57.19, 4.6 55.52, 3.78 53.8 C2.96 52.08, 2.26 50.27, 1.7 48.43 C1.14 46.6, 0.71 44.69, 0.43 42.79 C0.14 40.88, 0 38.93, 0 37 C0 35.07, 0.14 33.12, 0.43 31.21 C0.71 29.31, 1.14 27.4, 1.7 25.57 C2.26 23.73, 2.96 21.92, 3.78 20.2 C4.6 18.48, 5.56 16.81, 6.62 15.25 C7.68 13.69, 8.87 12.2, 10.15 10.84 C11.43 9.47, 12.83 8.2, 14.29 7.07 C15.75 5.93, 17.32 4.91, 18.93 4.03 C20.54 3.16, 22.23 2.41, 23.95 1.81 C25.67 1.21, 27.45 0.76, 29.24 0.46 C31.02 0.15, 32.85 0, 34.66 0 C36.47 0, 38.3 0.15, 40.08 0.46 C41.87 0.76, 43.65 1.21, 45.37 1.81 C47.09 2.41, 48.79 3.16, 50.4 4.03 C52.01 4.91, 53.57 5.93, 55.04 7.07 C56.5 8.2, 57.89 9.47, 59.17 10.84 C60.45 12.2, 61.64 13.69, 62.7 15.25 C63.77 16.81, 64.73 18.48, 65.55 20.2 C66.37 21.92, 67.07 23.73, 67.63 25.57 C68.19 27.4, 68.61 29.31, 68.9 31.21 C69.18 33.12, 69.25 36.04, 69.32 37 C69.4 37.96, 69.4 36.04, 69.32 37" stroke="none" stroke-width="0" fill="#fff5f5"/><path d="M69.32 37 C69.32 38.93, 69.18 40.88, 68.9 42.79 C68.61 44.69, 68.19 46.6, 67.63 48.43 C67.07 50.27, 66.37 52.08, 65.55 53.8 C64.73 55.52, 63.77 57.19, 62.7 58.75 C61.64 60.31, 60.45 61.8, 59.17 63.16 C57.89 64.53, 56.5 65.8, 55.04 66.93 C53.57 68.07, 52.01 69.09, 50.4 69.97 C48.79 70.84, 47.09 71.59, 45.37 72.19 C43.65 72.79, 41.87 73.24, 40.08 73.54 C38.3 73.85, 36.47 74, 34.66 74 C32.85 74, 31.02 73.85, 29.24 73.54 C27.45 73.24, 25.67 72.79, 23.95 72.19 C22.23 71.59, 20.54 70.84, 18.93 69.97 C17.32 69.09, 15.75 68.07, 14.29 66.93 C12.83 65.8, 11.43 64.53, 10.15 63.16 C8.87 61.8, 7.68 60.31, 6.62 58.75 C5.56 57.19, 4.6 55.52, 3.78 53.8 C2.96 52.08, 2.26 50.27, 1.7 48.43 C1.14 46.6, 0.71 44.69, 0.43 42.79 C0.14 40.88, 0 38.93, 0 37 C0 35.07, 0.14 33.12, 0.43 31.21 C0.71 29.31, 1.14 27.4, 1.7 25.57 C2.26 23.73, 2.96 21.92, 3.78 20.2 C4.6 18.48, 5.56 16.81, 6.62 15.25 C7.68 13.69, 8.87 12.2, 10.15 10.84 C11.43 9.47, 12.83 8.2, 14.29 7.07 C15.75 5.93, 17.32 4.91, 18.93 4.03 C20.54 3.16, 22.23 2.41, 23.95 1.81 C25.67 1.21, 27.45 0.76, 29.24 0.46 C31.02 0.15, 32.85 0, 34.66 0 C36.47 0, 38.3 0.15, 40.08 0.46 C41.87 0.76, 43.65 1.21, 45.37 1.81 C47.09 2.41, 48.79 3.16, 50.4 4.03 C52.01 4.91, 53.57 5.93, 55.04 7.07 C56.5 8.2, 57.89 9.47, 59.17 10.84 C60.45 12.2, 61.64 13.69, 62.7 15.25 C63.77 16.81, 64.73 18.48, 65.55 20.2 C66.37 21.92, 67.07 23.73, 67.63 25.57 C68.19 27.4, 68.61 29.31, 68.9 31.21 C69.18 33.12, 69.25 36.04, 69.32 37 C69.4 37.96, 69.4 36.04, 69.32 37" stroke="#e03131" stroke-width="2" fill="none"/></g><g transform="translate(992.365878880237 79.99479673327562) rotate(0 10.0107421875 20.69999999999999)"><text x="10.0107421875" y="30.420703125" font-family="Helvetica, Segoe UI Emoji" font-size="36px" fill="#e03131" text-anchor="middle" style="white-space: pre;" direction="ltr" dominant-baseline="alphabetic">6</text></g></svg>