<svg version="1.1" xmlns="http://www.w3.org/2000/svg" viewBox="0 0 537.6013881370212 273.65197490216826" width="537.6013881370212" height="273.65197490216826" filter="invert(93%) hue-rotate(180deg)" class="excalidraw-svg">
  <!-- svg-source:excalidraw -->
  
  <defs>
    <style class="style-fonts">
      @font-face {
        font-family: "Virgil";
        src: url("https://excalidraw.com/Virgil.woff2");
      }
      @font-face {
        font-family: "Cascadia";
        src: url("https://excalidraw.com/Cascadia.woff2");
      }
      @font-face {
        font-family: "Assistant";
        src: url("https://excalidraw.com/Assistant-Regular.woff2");
      }
    </style>
    
  </defs>
  <g transform="translate(474.7492479188337 134.1752077754215) rotate(0 21.35944366455078 16.37309990997899)"><text x="0" y="26.197516007457878" font-family="Helvetica, Segoe UI Emoji" font-size="28.47495636518084px" fill="#1e1e1e" text-anchor="start" style="white-space: pre;" direction="ltr" dominant-baseline="alphabetic">low</text></g><g transform="translate(473.77532307354466 84.97618368686483) rotate(0 26.91303253173828 16.373099909978976)"><text x="0" y="26.197516007457878" font-family="Helvetica, Segoe UI Emoji" font-size="28.47495636518084px" fill="#1e1e1e" text-anchor="start" style="white-space: pre;" direction="ltr" dominant-baseline="alphabetic">high</text></g><g transform="translate(12.147393785540544 187.17105291701412) rotate(0 10.280059814453125 16.373099909978983)"><text x="0" y="26.197516007457878" font-family="Helvetica, Segoe UI Emoji" font-size="28.47495636518084px" fill="#1e1e1e" text-anchor="start" style="white-space: pre;" direction="ltr" dominant-baseline="alphabetic">C</text></g><g stroke-linecap="round"><g transform="translate(250.155458436099 250.95903616116755) rotate(379.92344200551145 -0.7208039657371046 -21.19553758647296)" fill-rule="evenodd"><path d="M0 0 L0 0 L-0.69 1.11 L-1.28 1.98 L-2.15 3.11 L-2.65 3.62 L-2.81 3.74 L-7.36 3.74 L-4.87 0.7 L-4.87 0.7 L-4.79 0.6 L-4.57 0.3 L-3.77 -0.87 L-2.64 -2.75 L-1.34 -5.31 L-0.05 -8.48 L1.08 -12.22 L1.88 -16.47 L2.18 -21.2 L1.88 -25.92 L1.08 -30.17 L-0.05 -33.91 L-1.34 -37.08 L-2.64 -39.64 L-3.77 -41.52 L-4.57 -42.69 L-4.79 -42.99 L-4.87 -43.09 L-7.36 -46.13 L-2.81 -46.13 L-2.81 -46.13 L-1.43 -44.45 L-0.04 -42.39 L0.89 -40.78 L1.88 -38.85 L2.87 -36.61 L3.82 -34.07 L4.65 -31.25 L5.32 -28.16 L5.76 -24.8 L5.92 -21.2 L5.76 -17.6 L5.32 -14.25 L4.66 -11.16 L3.83 -8.34 L2.89 -5.8 L1.9 -3.56 L0.92 -1.62 L0 0 L0 0" stroke="none" stroke-width="0" fill="black" fill-rule="evenodd"/><path d="M0 0 C0 0, 0 0, 0 0 M0 0 C0 0, 0 0, 0 0 M0 0 C-0.2 0.32, -0.4 0.64, -0.69 1.11 M0 0 C-0.26 0.42, -0.53 0.84, -0.69 1.11 M-0.69 1.11 C-0.89 1.4, -1.09 1.7, -1.28 1.98 M-0.69 1.11 C-0.86 1.36, -1.03 1.61, -1.28 1.98 M-1.28 1.98 C-1.49 2.25, -1.7 2.53, -2.15 3.11 M-1.28 1.98 C-1.46 2.21, -1.64 2.45, -2.15 3.11 M-2.15 3.11 C-2.27 3.23, -2.39 3.35, -2.65 3.62 M-2.15 3.11 C-2.25 3.21, -2.36 3.32, -2.65 3.62 M-2.65 3.62 C-2.69 3.65, -2.72 3.68, -2.81 3.74 M-2.65 3.62 C-2.71 3.67, -2.77 3.71, -2.81 3.74 M-2.81 3.74 C-3.89 3.74, -4.98 3.74, -7.36 3.74 M-2.81 3.74 C-4.35 3.74, -5.89 3.74, -7.36 3.74 M-7.36 3.74 C-6.59 2.8, -5.82 1.86, -4.87 0.7 M-7.36 3.74 C-6.52 2.71, -5.68 1.69, -4.87 0.7 M-4.87 0.7 C-4.87 0.7, -4.87 0.7, -4.87 0.7 M-4.87 0.7 C-4.87 0.7, -4.87 0.7, -4.87 0.7 M-4.87 0.7 C-4.84 0.66, -4.81 0.63, -4.79 0.6 M-4.87 0.7 C-4.84 0.66, -4.81 0.63, -4.79 0.6 M-4.79 0.6 C-4.75 0.54, -4.7 0.48, -4.57 0.3 M-4.79 0.6 C-4.71 0.49, -4.62 0.37, -4.57 0.3 M-4.57 0.3 C-4.4 0.05, -4.23 -0.2, -3.77 -0.87 M-4.57 0.3 C-4.39 0.05, -4.22 -0.21, -3.77 -0.87 M-3.77 -0.87 C-3.46 -1.39, -3.15 -1.91, -2.64 -2.75 M-3.77 -0.87 C-3.37 -1.53, -2.97 -2.2, -2.64 -2.75 M-2.64 -2.75 C-2.24 -3.55, -1.84 -4.34, -1.34 -5.31 M-2.64 -2.75 C-2.27 -3.49, -1.89 -4.22, -1.34 -5.31 M-1.34 -5.31 C-1 -6.15, -0.66 -6.98, -0.05 -8.48 M-1.34 -5.31 C-1.01 -6.13, -0.67 -6.95, -0.05 -8.48 M-0.05 -8.48 C0.38 -9.89, 0.8 -11.3, 1.08 -12.22 M-0.05 -8.48 C0.18 -9.25, 0.42 -10.03, 1.08 -12.22 M1.08 -12.22 C1.37 -13.74, 1.65 -15.26, 1.88 -16.47 M1.08 -12.22 C1.29 -13.32, 1.49 -14.42, 1.88 -16.47 M1.88 -16.47 C1.95 -17.66, 2.03 -18.84, 2.18 -21.2 M1.88 -16.47 C1.97 -17.89, 2.06 -19.32, 2.18 -21.2 M2.18 -21.2 C2.12 -22.21, 2.05 -23.22, 1.88 -25.92 M2.18 -21.2 C2.1 -22.44, 2.02 -23.68, 1.88 -25.92 M1.88 -25.92 C1.57 -27.58, 1.26 -29.23, 1.08 -30.17 M1.88 -25.92 C1.64 -27.17, 1.41 -28.42, 1.08 -30.17 M1.08 -30.17 C0.77 -31.18, 0.47 -32.19, -0.05 -33.91 M1.08 -30.17 C0.81 -31.06, 0.54 -31.95, -0.05 -33.91 M-0.05 -33.91 C-0.54 -35.11, -1.03 -36.3, -1.34 -37.08 M-0.05 -33.91 C-0.33 -34.59, -0.6 -35.27, -1.34 -37.08 M-1.34 -37.08 C-1.64 -37.67, -1.94 -38.26, -2.64 -39.64 M-1.34 -37.08 C-1.73 -37.84, -2.11 -38.59, -2.64 -39.64 M-2.64 -39.64 C-2.89 -40.05, -3.13 -40.46, -3.77 -41.52 M-2.64 -39.64 C-2.96 -40.18, -3.29 -40.72, -3.77 -41.52 M-3.77 -41.52 C-4.07 -41.96, -4.37 -42.4, -4.57 -42.69 M-3.77 -41.52 C-3.93 -41.76, -4.1 -42, -4.57 -42.69 M-4.57 -42.69 C-4.62 -42.77, -4.68 -42.84, -4.79 -42.99 M-4.57 -42.69 C-4.62 -42.77, -4.68 -42.84, -4.79 -42.99 M-4.79 -42.99 C-4.81 -43.02, -4.83 -43.04, -4.87 -43.09 M-4.79 -42.99 C-4.81 -43.02, -4.84 -43.05, -4.87 -43.09 M-4.87 -43.09 C-5.39 -43.72, -5.91 -44.35, -7.36 -46.13 M-4.87 -43.09 C-5.44 -43.78, -6 -44.47, -7.36 -46.13 M-7.36 -46.13 C-6.41 -46.13, -5.46 -46.13, -2.81 -46.13 M-7.36 -46.13 C-5.97 -46.13, -4.57 -46.13, -2.81 -46.13 M-2.81 -46.13 C-2.81 -46.13, -2.81 -46.13, -2.81 -46.13 M-2.81 -46.13 C-2.81 -46.13, -2.81 -46.13, -2.81 -46.13 M-2.81 -46.13 C-2.5 -45.75, -2.19 -45.38, -1.43 -44.45 M-2.81 -46.13 C-2.27 -45.48, -1.74 -44.83, -1.43 -44.45 M-1.43 -44.45 C-1.05 -43.89, -0.67 -43.33, -0.04 -42.39 M-1.43 -44.45 C-0.91 -43.69, -0.4 -42.92, -0.04 -42.39 M-0.04 -42.39 C0.22 -41.94, 0.48 -41.49, 0.89 -40.78 M-0.04 -42.39 C0.24 -41.9, 0.53 -41.41, 0.89 -40.78 M0.89 -40.78 C1.18 -40.21, 1.47 -39.63, 1.88 -38.85 M0.89 -40.78 C1.19 -40.18, 1.5 -39.59, 1.88 -38.85 M1.88 -38.85 C2.1 -38.34, 2.32 -37.84, 2.87 -36.61 M1.88 -38.85 C2.26 -37.99, 2.64 -37.13, 2.87 -36.61 M2.87 -36.61 C3.16 -35.84, 3.45 -35.07, 3.82 -34.07 M2.87 -36.61 C3.07 -36.09, 3.26 -35.56, 3.82 -34.07 M3.82 -34.07 C4.05 -33.29, 4.28 -32.51, 4.65 -31.25 M3.82 -34.07 C4.15 -32.95, 4.48 -31.83, 4.65 -31.25 M4.65 -31.25 C4.83 -30.44, 5 -29.62, 5.32 -28.16 M4.65 -31.25 C4.85 -30.31, 5.06 -29.37, 5.32 -28.16 M5.32 -28.16 C5.47 -27.04, 5.61 -25.93, 5.76 -24.8 M5.32 -28.16 C5.44 -27.23, 5.56 -26.31, 5.76 -24.8 M5.76 -24.8 C5.82 -23.47, 5.88 -22.14, 5.92 -21.2 M5.76 -24.8 C5.8 -23.93, 5.84 -23.05, 5.92 -21.2 M5.92 -21.2 C5.88 -20.27, 5.84 -19.34, 5.76 -17.6 M5.92 -21.2 C5.86 -19.77, 5.8 -18.34, 5.76 -17.6 M5.76 -17.6 C5.61 -16.46, 5.46 -15.33, 5.32 -14.25 M5.76 -17.6 C5.6 -16.37, 5.44 -15.14, 5.32 -14.25 M5.32 -14.25 C5.06 -13.03, 4.8 -11.81, 4.66 -11.16 M5.32 -14.25 C5.13 -13.34, 4.93 -12.43, 4.66 -11.16 M4.66 -11.16 C4.4 -10.28, 4.14 -9.4, 3.83 -8.34 M4.66 -11.16 C4.48 -10.54, 4.29 -9.92, 3.83 -8.34 M3.83 -8.34 C3.58 -7.68, 3.34 -7.02, 2.89 -5.8 M3.83 -8.34 C3.5 -7.45, 3.17 -6.57, 2.89 -5.8 M2.89 -5.8 C2.54 -5.01, 2.19 -4.22, 1.9 -3.56 M2.89 -5.8 C2.65 -5.25, 2.4 -4.7, 1.9 -3.56 M1.9 -3.56 C1.67 -3.1, 1.43 -2.64, 0.92 -1.62 M1.9 -3.56 C1.61 -2.99, 1.32 -2.41, 0.92 -1.62 M0.92 -1.62 C0.6 -1.05, 0.28 -0.49, 0 0 M0.92 -1.62 C0.65 -1.14, 0.38 -0.67, 0 0 M0 0 C0 0, 0 0, 0 0 M0 0 C0 0, 0 0, 0 0 M0 0 C0 0, 0 0, 0 0 M0 0 C0 0, 0 0, 0 0" stroke="#1e1e1e" stroke-width="0.5" fill="none"/></g></g><mask/><g stroke-linecap="round"><g transform="translate(248.12074312718934 215.3031137305333) rotate(379.92344200551145 30.215322996168865 24.935920976851165)" fill-rule="evenodd"><path d="M0 0 L2.49 3.04 L2.49 3.04 L2.57 3.14 L2.8 3.44 L3.6 4.61 L4.72 6.5 L6.02 9.05 L7.31 12.22 L8.44 15.96 L9.24 20.21 L9.55 24.94 L9.24 29.66 L8.44 33.91 L7.31 37.65 L6.02 40.82 L4.72 43.38 L3.6 45.26 L2.8 46.43 L2.57 46.73 L2.49 46.83 L0 49.87 L3.94 49.87 L21.39 49.87 L21.39 49.87 L22.68 49.87 L24.27 49.83 L26.13 49.72 L28.23 49.51 L30.54 49.15 L33.02 48.62 L35.65 47.87 L38.38 46.87 L41.19 45.58 L44.04 43.98 L46.91 42.02 L49.77 39.67 L52.58 36.91 L55.32 33.71 L57.94 30.02 L60.43 25.83 L58.79 24.94 L60.43 24.04 L60.43 24.04 L57.94 19.85 L55.31 16.18 L52.57 12.99 L49.75 10.26 L46.88 7.93 L44 5.99 L41.13 4.39 L38.32 3.11 L35.58 2.1 L32.96 1.34 L30.49 0.79 L28.19 0.41 L26.09 0.18 L24.24 0.06 L22.66 0.01 L21.39 0 L3.94 0 L0 0 L0 0" stroke="none" stroke-width="0" fill="black" fill-rule="evenodd"/><path d="M0 0 C0.6 0.73, 1.19 1.46, 2.49 3.04 M0 0 C0.97 1.19, 1.95 2.37, 2.49 3.04 M2.49 3.04 C2.49 3.04, 2.49 3.04, 2.49 3.04 M2.49 3.04 C2.49 3.04, 2.49 3.04, 2.49 3.04 M2.49 3.04 C2.52 3.08, 2.55 3.12, 2.57 3.14 M2.49 3.04 C2.52 3.08, 2.55 3.12, 2.57 3.14 M2.57 3.14 C2.65 3.24, 2.72 3.34, 2.8 3.44 M2.57 3.14 C2.65 3.24, 2.72 3.34, 2.8 3.44 M2.8 3.44 C3.01 3.75, 3.22 4.06, 3.6 4.61 M2.8 3.44 C2.96 3.68, 3.13 3.93, 3.6 4.61 M3.6 4.61 C3.87 5.06, 4.14 5.52, 4.72 6.5 M3.6 4.61 C3.98 5.25, 4.36 5.89, 4.72 6.5 M4.72 6.5 C5.04 7.11, 5.35 7.73, 6.02 9.05 M4.72 6.5 C5.04 7.12, 5.36 7.74, 6.02 9.05 M6.02 9.05 C6.44 10.08, 6.86 11.11, 7.31 12.22 M6.02 9.05 C6.44 10.08, 6.86 11.11, 7.31 12.22 M7.31 12.22 C7.64 13.29, 7.96 14.35, 8.44 15.96 M7.31 12.22 C7.59 13.12, 7.86 14.02, 8.44 15.96 M8.44 15.96 C8.64 16.98, 8.83 18, 9.24 20.21 M8.44 15.96 C8.75 17.6, 9.06 19.23, 9.24 20.21 M9.24 20.21 C9.33 21.6, 9.42 22.99, 9.55 24.94 M9.24 20.21 C9.32 21.45, 9.4 22.69, 9.55 24.94 M9.55 24.94 C9.45 26.4, 9.36 27.87, 9.24 29.66 M9.55 24.94 C9.43 26.68, 9.32 28.43, 9.24 29.66 M9.24 29.66 C8.93 31.32, 8.62 32.97, 8.44 33.91 M9.24 29.66 C8.95 31.24, 8.65 32.82, 8.44 33.91 M8.44 33.91 C8.18 34.78, 7.92 35.65, 7.31 37.65 M8.44 33.91 C8.01 35.33, 7.59 36.75, 7.31 37.65 M7.31 37.65 C7.03 38.34, 6.75 39.03, 6.02 40.82 M7.31 37.65 C6.88 38.71, 6.45 39.76, 6.02 40.82 M6.02 40.82 C5.54 41.77, 5.05 42.73, 4.72 43.38 M6.02 40.82 C5.67 41.51, 5.32 42.2, 4.72 43.38 M4.72 43.38 C4.45 43.84, 4.17 44.3, 3.6 45.26 M4.72 43.38 C4.37 43.97, 4.02 44.55, 3.6 45.26 M3.6 45.26 C3.38 45.59, 3.15 45.91, 2.8 46.43 M3.6 45.26 C3.32 45.66, 3.05 46.06, 2.8 46.43 M2.8 46.43 C2.74 46.51, 2.68 46.59, 2.57 46.73 M2.8 46.43 C2.71 46.55, 2.63 46.66, 2.57 46.73 M2.57 46.73 C2.54 46.77, 2.52 46.8, 2.49 46.83 M2.57 46.73 C2.55 46.76, 2.53 46.78, 2.49 46.83 M2.49 46.83 C1.76 47.73, 1.02 48.63, 0 49.87 M2.49 46.83 C1.5 48.05, 0.5 49.26, 0 49.87 M0 49.87 C0.82 49.87, 1.63 49.87, 3.94 49.87 M0 49.87 C1.23 49.87, 2.47 49.87, 3.94 49.87 M3.94 49.87 C8.67 49.87, 13.41 49.87, 21.39 49.87 M3.94 49.87 C10 49.87, 16.06 49.87, 21.39 49.87 M21.39 49.87 C21.39 49.87, 21.39 49.87, 21.39 49.87 M21.39 49.87 C21.39 49.87, 21.39 49.87, 21.39 49.87 M21.39 49.87 C21.85 49.87, 22.31 49.87, 22.68 49.87 M21.39 49.87 C21.9 49.87, 22.41 49.87, 22.68 49.87 M22.68 49.87 C23.06 49.86, 23.44 49.85, 24.27 49.83 M22.68 49.87 C23.25 49.85, 23.83 49.84, 24.27 49.83 M24.27 49.83 C24.71 49.8, 25.15 49.78, 26.13 49.72 M24.27 49.83 C24.67 49.81, 25.07 49.78, 26.13 49.72 M26.13 49.72 C26.9 49.64, 27.67 49.57, 28.23 49.51 M26.13 49.72 C26.81 49.65, 27.49 49.58, 28.23 49.51 M28.23 49.51 C28.74 49.43, 29.25 49.35, 30.54 49.15 M28.23 49.51 C28.89 49.41, 29.54 49.31, 30.54 49.15 M30.54 49.15 C31.42 48.96, 32.29 48.78, 33.02 48.62 M30.54 49.15 C31.48 48.95, 32.42 48.75, 33.02 48.62 M33.02 48.62 C33.92 48.36, 34.81 48.11, 35.65 47.87 M33.02 48.62 C34.01 48.34, 35 48.06, 35.65 47.87 M35.65 47.87 C36.63 47.51, 37.61 47.15, 38.38 46.87 M35.65 47.87 C36.72 47.48, 37.79 47.09, 38.38 46.87 M38.38 46.87 C39.09 46.55, 39.8 46.22, 41.19 45.58 M38.38 46.87 C39.15 46.52, 39.93 46.16, 41.19 45.58 M41.19 45.58 C42.08 45.08, 42.98 44.58, 44.04 43.98 M41.19 45.58 C41.99 45.13, 42.8 44.68, 44.04 43.98 M44.04 43.98 C45.02 43.31, 45.99 42.65, 46.91 42.02 M44.04 43.98 C44.79 43.47, 45.53 42.96, 46.91 42.02 M46.91 42.02 C47.54 41.5, 48.17 40.99, 49.77 39.67 M46.91 42.02 C47.82 41.27, 48.72 40.53, 49.77 39.67 M49.77 39.67 C50.89 38.57, 52.02 37.47, 52.58 36.91 M49.77 39.67 C50.36 39.09, 50.95 38.51, 52.58 36.91 M52.58 36.91 C53.28 36.1, 53.97 35.28, 55.32 33.71 M52.58 36.91 C53.17 36.22, 53.76 35.53, 55.32 33.71 M55.32 33.71 C56.26 32.38, 57.21 31.05, 57.94 30.02 M55.32 33.71 C56.13 32.56, 56.95 31.42, 57.94 30.02 M57.94 30.02 C58.61 28.9, 59.28 27.77, 60.43 25.83 M57.94 30.02 C58.56 28.98, 59.19 27.93, 60.43 25.83 M60.43 25.83 C59.82 25.5, 59.21 25.16, 58.79 24.94 M60.43 25.83 C59.86 25.52, 59.3 25.21, 58.79 24.94 M58.79 24.94 C59.26 24.68, 59.73 24.42, 60.43 24.04 M58.79 24.94 C59.36 24.63, 59.92 24.32, 60.43 24.04 M60.43 24.04 C60.43 24.04, 60.43 24.04, 60.43 24.04 M60.43 24.04 C60.43 24.04, 60.43 24.04, 60.43 24.04 M60.43 24.04 C59.92 23.18, 59.4 22.31, 57.94 19.85 M60.43 24.04 C59.5 22.48, 58.58 20.92, 57.94 19.85 M57.94 19.85 C57.23 18.87, 56.52 17.88, 55.31 16.18 M57.94 19.85 C56.97 18.49, 55.99 17.14, 55.31 16.18 M55.31 16.18 C54.49 15.23, 53.68 14.28, 52.57 12.99 M55.31 16.18 C54.59 15.35, 53.88 14.52, 52.57 12.99 M52.57 12.99 C51.81 12.26, 51.05 11.53, 49.75 10.26 M52.57 12.99 C51.9 12.35, 51.23 11.7, 49.75 10.26 M49.75 10.26 C48.87 9.55, 48 8.84, 46.88 7.93 M49.75 10.26 C48.92 9.58, 48.09 8.91, 46.88 7.93 M46.88 7.93 C45.86 7.25, 44.85 6.56, 44 5.99 M46.88 7.93 C45.74 7.17, 44.61 6.4, 44 5.99 M44 5.99 C43.01 5.43, 42.01 4.88, 41.13 4.39 M44 5.99 C42.9 5.37, 41.79 4.76, 41.13 4.39 M41.13 4.39 C40.32 4.02, 39.51 3.65, 38.32 3.11 M41.13 4.39 C40.19 3.96, 39.25 3.53, 38.32 3.11 M38.32 3.11 C37.74 2.89, 37.16 2.68, 35.58 2.1 M38.32 3.11 C37.69 2.87, 37.06 2.64, 35.58 2.1 M35.58 2.1 C34.89 1.9, 34.19 1.7, 32.96 1.34 M35.58 2.1 C34.66 1.83, 33.74 1.56, 32.96 1.34 M32.96 1.34 C32.3 1.19, 31.63 1.04, 30.49 0.79 M32.96 1.34 C32.08 1.14, 31.2 0.95, 30.49 0.79 M30.49 0.79 C29.57 0.64, 28.65 0.49, 28.19 0.41 M30.49 0.79 C29.92 0.7, 29.36 0.6, 28.19 0.41 M28.19 0.41 C27.45 0.33, 26.71 0.25, 26.09 0.18 M28.19 0.41 C27.67 0.36, 27.14 0.3, 26.09 0.18 M26.09 0.18 C25.68 0.15, 25.26 0.13, 24.24 0.06 M26.09 0.18 C25.71 0.16, 25.32 0.13, 24.24 0.06 M24.24 0.06 C23.81 0.04, 23.37 0.03, 22.66 0.01 M24.24 0.06 C23.86 0.05, 23.47 0.03, 22.66 0.01 M22.66 0.01 C22.4 0.01, 22.14 0.01, 21.39 0 M22.66 0.01 C22.23 0.01, 21.79 0, 21.39 0 M21.39 0 C15.75 0, 10.11 0, 3.94 0 M21.39 0 C17.42 0, 13.45 0, 3.94 0 M3.94 0 C3.06 0, 2.18 0, 0 0 M3.94 0 C2.57 0, 1.21 0, 0 0 M0 0 C0 0, 0 0, 0 0 M0 0 C0 0, 0 0, 0 0 M0 0 C0 0, 0 0, 0 0 M0 0 C0 0, 0 0, 0 0" stroke="#1e1e1e" stroke-width="1" fill="none"/></g></g><mask/><g stroke-linecap="round"><g transform="translate(255.35122611895105 219.5812197407735) rotate(379.92344200551145 24.4683724585352 21.195532830323486)" fill-rule="evenodd"><path d="M0 0 L14.07 0 L14.07 0 L15.29 0 L16.75 0.03 L20.28 0.31 L24.48 1.07 L26.78 1.72 L29.16 2.59 L31.63 3.7 L34.14 5.1 L36.68 6.82 L39.22 8.87 L41.74 11.31 L44.21 14.15 L46.62 17.44 L48.94 21.2 L46.65 24.9 L44.28 28.14 L41.83 30.96 L39.34 33.38 L36.82 35.42 L34.3 37.14 L31.8 38.54 L29.34 39.66 L26.89 40.57 L24.55 41.24 L20.32 42.05 L16.78 42.35 L14.07 42.39 L0.04 42.39 L0.04 42.39 L0.96 40.77 L1.95 38.84 L2.94 36.6 L3.88 34.06 L4.7 31.24 L5.36 28.14 L5.8 24.79 L5.96 21.2 L5.8 17.59 L5.36 14.23 L4.69 11.14 L3.86 8.32 L2.91 5.78 L1.92 3.54 L0.93 1.61 L0 0 L0 0" stroke="none" stroke-width="0" fill="#FFFFFF" fill-rule="evenodd"/><path d="M0 0 C5.51 0, 11.02 0, 14.07 0 M0 0 C4.21 0, 8.42 0, 14.07 0 M14.07 0 C14.07 0, 14.07 0, 14.07 0 M14.07 0 C14.07 0, 14.07 0, 14.07 0 M14.07 0 C14.47 0, 14.87 0, 15.29 0 M14.07 0 C14.37 0, 14.67 0, 15.29 0 M15.29 0 C15.73 0.01, 16.18 0.02, 16.75 0.03 M15.29 0 C15.59 0.01, 15.9 0.02, 16.75 0.03 M16.75 0.03 C17.85 0.12, 18.95 0.21, 20.28 0.31 M16.75 0.03 C17.94 0.13, 19.13 0.22, 20.28 0.31 M20.28 0.31 C21.14 0.47, 22 0.62, 24.48 1.07 M20.28 0.31 C21.17 0.47, 22.06 0.63, 24.48 1.07 M24.48 1.07 C25.16 1.27, 25.84 1.46, 26.78 1.72 M24.48 1.07 C24.97 1.21, 25.45 1.35, 26.78 1.72 M26.78 1.72 C27.3 1.91, 27.83 2.11, 29.16 2.59 M26.78 1.72 C27.47 1.97, 28.17 2.23, 29.16 2.59 M29.16 2.59 C29.94 2.94, 30.72 3.29, 31.63 3.7 M29.16 2.59 C29.8 2.88, 30.44 3.17, 31.63 3.7 M31.63 3.7 C32.34 4.1, 33.06 4.5, 34.14 5.1 M31.63 3.7 C32.51 4.2, 33.39 4.69, 34.14 5.1 M34.14 5.1 C35.09 5.75, 36.04 6.39, 36.68 6.82 M34.14 5.1 C34.95 5.65, 35.76 6.2, 36.68 6.82 M36.68 6.82 C37.31 7.33, 37.94 7.84, 39.22 8.87 M36.68 6.82 C37.69 7.64, 38.71 8.46, 39.22 8.87 M39.22 8.87 C40.11 9.73, 41 10.6, 41.74 11.31 M39.22 8.87 C40.2 9.83, 41.19 10.78, 41.74 11.31 M41.74 11.31 C42.71 12.43, 43.68 13.55, 44.21 14.15 M41.74 11.31 C42.33 11.99, 42.93 12.68, 44.21 14.15 M44.21 14.15 C44.94 15.15, 45.67 16.14, 46.62 17.44 M44.21 14.15 C44.97 15.19, 45.73 16.23, 46.62 17.44 M46.62 17.44 C47.36 18.63, 48.09 19.83, 48.94 21.2 M46.62 17.44 C47.51 18.88, 48.4 20.33, 48.94 21.2 M48.94 21.2 C48.14 22.48, 47.35 23.77, 46.65 24.9 M48.94 21.2 C48.27 22.28, 47.61 23.35, 46.65 24.9 M46.65 24.9 C46.07 25.7, 45.48 26.51, 44.28 28.14 M46.65 24.9 C45.85 26, 45.04 27.1, 44.28 28.14 M44.28 28.14 C43.33 29.24, 42.38 30.33, 41.83 30.96 M44.28 28.14 C43.38 29.17, 42.49 30.2, 41.83 30.96 M41.83 30.96 C41.01 31.76, 40.18 32.56, 39.34 33.38 M41.83 30.96 C41.04 31.73, 40.24 32.5, 39.34 33.38 M39.34 33.38 C38.34 34.19, 37.34 35, 36.82 35.42 M39.34 33.38 C38.49 34.07, 37.63 34.77, 36.82 35.42 M36.82 35.42 C35.96 36.01, 35.1 36.59, 34.3 37.14 M36.82 35.42 C35.98 36, 35.13 36.57, 34.3 37.14 M34.3 37.14 C33.5 37.58, 32.7 38.03, 31.8 38.54 M34.3 37.14 C33.64 37.5, 32.99 37.87, 31.8 38.54 M31.8 38.54 C30.89 38.96, 29.98 39.37, 29.34 39.66 M31.8 38.54 C31.06 38.88, 30.31 39.22, 29.34 39.66 M29.34 39.66 C28.42 40, 27.5 40.34, 26.89 40.57 M29.34 39.66 C28.51 39.97, 27.68 40.27, 26.89 40.57 M26.89 40.57 C26.1 40.8, 25.31 41.03, 24.55 41.24 M26.89 40.57 C26.1 40.8, 25.32 41.02, 24.55 41.24 M24.55 41.24 C23.05 41.53, 21.54 41.82, 20.32 42.05 M24.55 41.24 C23.61 41.42, 22.67 41.6, 20.32 42.05 M20.32 42.05 C19.3 42.14, 18.28 42.22, 16.78 42.35 M20.32 42.05 C19.41 42.13, 18.5 42.21, 16.78 42.35 M16.78 42.35 C15.89 42.36, 14.99 42.38, 14.07 42.39 M16.78 42.35 C15.91 42.36, 15.04 42.38, 14.07 42.39 M14.07 42.39 C10.1 42.39, 6.13 42.39, 0.04 42.39 M14.07 42.39 C10.11 42.39, 6.15 42.39, 0.04 42.39 M0.04 42.39 C0.04 42.39, 0.04 42.39, 0.04 42.39 M0.04 42.39 C0.04 42.39, 0.04 42.39, 0.04 42.39 M0.04 42.39 C0.33 41.88, 0.62 41.38, 0.96 40.77 M0.04 42.39 C0.35 41.85, 0.65 41.32, 0.96 40.77 M0.96 40.77 C1.24 40.23, 1.52 39.68, 1.95 38.84 M0.96 40.77 C1.3 40.12, 1.63 39.47, 1.95 38.84 M1.95 38.84 C2.34 37.96, 2.73 37.08, 2.94 36.6 M1.95 38.84 C2.28 38.09, 2.61 37.35, 2.94 36.6 M2.94 36.6 C3.19 35.93, 3.43 35.26, 3.88 34.06 M2.94 36.6 C3.25 35.76, 3.55 34.93, 3.88 34.06 M3.88 34.06 C4.09 33.34, 4.29 32.63, 4.7 31.24 M3.88 34.06 C4.13 33.2, 4.38 32.35, 4.7 31.24 M4.7 31.24 C4.86 30.51, 5.01 29.79, 5.36 28.14 M4.7 31.24 C4.88 30.39, 5.06 29.55, 5.36 28.14 M5.36 28.14 C5.48 27.28, 5.59 26.42, 5.8 24.79 M5.36 28.14 C5.48 27.23, 5.6 26.32, 5.8 24.79 M5.8 24.79 C5.85 23.61, 5.91 22.42, 5.96 21.2 M5.8 24.79 C5.84 23.95, 5.88 23.11, 5.96 21.2 M5.96 21.2 C5.92 20.17, 5.87 19.14, 5.8 17.59 M5.96 21.2 C5.9 19.88, 5.84 18.56, 5.8 17.59 M5.8 17.59 C5.64 16.39, 5.49 15.2, 5.36 14.23 M5.8 17.59 C5.7 16.82, 5.6 16.06, 5.36 14.23 M5.36 14.23 C5.2 13.48, 5.03 12.72, 4.69 11.14 M5.36 14.23 C5.15 13.26, 4.94 12.29, 4.69 11.14 M4.69 11.14 C4.45 10.31, 4.2 9.48, 3.86 8.32 M4.69 11.14 C4.42 10.23, 4.15 9.32, 3.86 8.32 M3.86 8.32 C3.51 7.4, 3.17 6.47, 2.91 5.78 M3.86 8.32 C3.53 7.44, 3.2 6.57, 2.91 5.78 M2.91 5.78 C2.52 4.89, 2.12 4, 1.92 3.54 M2.91 5.78 C2.58 5.03, 2.24 4.28, 1.92 3.54 M1.92 3.54 C1.62 2.97, 1.33 2.4, 0.93 1.61 M1.92 3.54 C1.63 2.98, 1.34 2.41, 0.93 1.61 M0.93 1.61 C0.65 1.14, 0.38 0.67, 0 0 M0.93 1.61 C0.61 1.07, 0.3 0.52, 0 0 M0 0 C0 0, 0 0, 0 0 M0 0 C0 0, 0 0, 0 0 M0 0 C0 0, 0 0, 0 0 M0 0 C0 0, 0 0, 0 0" stroke="#1e1e1e" stroke-width="1" fill="none"/></g></g><mask/><g stroke-linecap="round"><g transform="translate(304.7408799618239 249.90034253191828) rotate(379.92344200551145 0.2597922393059662 0.05196042994890604)"><path d="M0 0 C0.09 0.02, 0.43 0.09, 0.52 0.1 M0 0 C0.09 0.02, 0.43 0.09, 0.52 0.1" stroke="#1e1e1e" stroke-width="4" fill="none"/></g></g><mask/><g transform="translate(266.32106944690014 233.6883066895606) rotate(379.92344200551145 13.597862243652344 7.217701720996693)"><text x="0" y="11.548567920093388" font-family="Helvetica, Segoe UI Emoji" font-size="12.552524732168168px" fill="#1e1e1e" text-anchor="start" style="white-space: pre;" direction="ltr" dominant-baseline="alphabetic">XOR</text></g><g transform="translate(10.000000000000114 13.556767867611143) rotate(0 9.49462890625 16.373099909978976)"><text x="0" y="26.197516007457878" font-family="Helvetica, Segoe UI Emoji" font-size="28.47495636518084px" fill="#1e1e1e" text-anchor="start" style="white-space: pre;" direction="ltr" dominant-baseline="alphabetic">A</text></g><g transform="translate(10 109.14079124911936) rotate(0 9.49462890625 16.37309990997899)"><text x="0" y="26.197516007457878" font-family="Helvetica, Segoe UI Emoji" font-size="28.47495636518084px" fill="#1e1e1e" text-anchor="start" style="white-space: pre;" direction="ltr" dominant-baseline="alphabetic">B</text></g><g stroke-linecap="round"><g transform="translate(166.97979720469948 20.964256478512027) rotate(33.72953652535139 28.19143199851524 27.85976934296312)" fill-rule="evenodd"><path d="M0 0 L0 1.99 L0 53.73 L0 55.72 L1.99 55.72 L28.52 55.72 L28.52 55.72 L31.42 55.58 L34.23 55.15 L36.92 54.46 L39.5 53.52 L41.94 52.34 L44.24 50.94 L48.34 47.54 L51.71 43.41 L54.24 38.68 L55.16 36.12 L55.83 33.46 L56.24 30.7 L56.38 27.86 L56.24 25.02 L55.83 22.26 L55.16 19.6 L54.24 17.04 L51.71 12.31 L48.34 8.18 L44.24 4.77 L41.94 3.38 L39.5 2.2 L36.92 1.26 L34.23 0.57 L31.42 0.14 L28.52 0 L28.47 0 L28.11 0 L27.12 0 L26.3 0 L25.21 0 L23.8 0 L22.05 0 L19.9 0 L17.33 0 L14.29 0 L10.75 0 L6.66 0 L1.99 0 L0 0 L0 0" stroke="none" stroke-width="0" fill="black" fill-rule="evenodd"/><path d="M0 0 C0 0.64, 0 1.28, 0 1.99 M0 0 C0 0.8, 0 1.59, 0 1.99 M0 1.99 C0 22.62, 0 43.25, 0 53.73 M0 1.99 C0 19.84, 0 37.69, 0 53.73 M0 53.73 C0 54.4, 0 55.07, 0 55.72 M0 53.73 C0 54.28, 0 54.84, 0 55.72 M0 55.72 C0.51 55.72, 1.02 55.72, 1.99 55.72 M0 55.72 C0.5 55.72, 1 55.72, 1.99 55.72 M1.99 55.72 C10.21 55.72, 18.44 55.72, 28.52 55.72 M1.99 55.72 C8.2 55.72, 14.41 55.72, 28.52 55.72 M28.52 55.72 C28.52 55.72, 28.52 55.72, 28.52 55.72 M28.52 55.72 C28.52 55.72, 28.52 55.72, 28.52 55.72 M28.52 55.72 C29.56 55.67, 30.59 55.62, 31.42 55.58 M28.52 55.72 C29.25 55.68, 29.98 55.65, 31.42 55.58 M31.42 55.58 C32.5 55.41, 33.58 55.25, 34.23 55.15 M31.42 55.58 C32.28 55.45, 33.13 55.32, 34.23 55.15 M34.23 55.15 C34.94 54.97, 35.65 54.79, 36.92 54.46 M34.23 55.15 C34.94 54.97, 35.64 54.79, 36.92 54.46 M36.92 54.46 C37.46 54.27, 37.99 54.07, 39.5 53.52 M36.92 54.46 C37.81 54.14, 38.7 53.81, 39.5 53.52 M39.5 53.52 C40.46 53.06, 41.43 52.59, 41.94 52.34 M39.5 53.52 C40.12 53.22, 40.75 52.92, 41.94 52.34 M41.94 52.34 C42.5 52, 43.06 51.66, 44.24 50.94 M41.94 52.34 C42.77 51.84, 43.59 51.34, 44.24 50.94 M44.24 50.94 C45.81 49.64, 47.39 48.33, 48.34 47.54 M44.24 50.94 C45.74 49.7, 47.24 48.45, 48.34 47.54 M48.34 47.54 C49.44 46.19, 50.54 44.84, 51.71 43.41 M48.34 47.54 C49.35 46.3, 50.36 45.06, 51.71 43.41 M51.71 43.41 C52.31 42.28, 52.92 41.15, 54.24 38.68 M51.71 43.41 C52.68 41.59, 53.65 39.78, 54.24 38.68 M54.24 38.68 C54.43 38.13, 54.63 37.59, 55.16 36.12 M54.24 38.68 C54.44 38.12, 54.64 37.57, 55.16 36.12 M55.16 36.12 C55.32 35.48, 55.48 34.83, 55.83 33.46 M55.16 36.12 C55.32 35.46, 55.49 34.8, 55.83 33.46 M55.83 33.46 C55.95 32.67, 56.07 31.88, 56.24 30.7 M55.83 33.46 C55.98 32.45, 56.13 31.45, 56.24 30.7 M56.24 30.7 C56.28 29.99, 56.31 29.29, 56.38 27.86 M56.24 30.7 C56.29 29.7, 56.34 28.69, 56.38 27.86 M56.38 27.86 C56.35 27.16, 56.31 26.46, 56.24 25.02 M56.38 27.86 C56.34 27.02, 56.3 26.17, 56.24 25.02 M56.24 25.02 C56.08 23.96, 55.92 22.89, 55.83 22.26 M56.24 25.02 C56.14 24.36, 56.04 23.69, 55.83 22.26 M55.83 22.26 C55.68 21.66, 55.53 21.06, 55.16 19.6 M55.83 22.26 C55.58 21.27, 55.33 20.27, 55.16 19.6 M55.16 19.6 C54.83 18.68, 54.5 17.77, 54.24 17.04 M55.16 19.6 C54.88 18.82, 54.59 18.03, 54.24 17.04 M54.24 17.04 C53.54 15.74, 52.85 14.45, 51.71 12.31 M54.24 17.04 C53.6 15.86, 52.97 14.67, 51.71 12.31 M51.71 12.31 C50.56 10.91, 49.42 9.5, 48.34 8.18 M51.71 12.31 C50.71 11.09, 49.71 9.86, 48.34 8.18 M48.34 8.18 C47.25 7.28, 46.15 6.37, 44.24 4.77 M48.34 8.18 C46.74 6.86, 45.14 5.53, 44.24 4.77 M44.24 4.77 C43.59 4.38, 42.95 3.99, 41.94 3.38 M44.24 4.77 C43.75 4.48, 43.27 4.19, 41.94 3.38 M41.94 3.38 C41.45 3.14, 40.96 2.9, 39.5 2.2 M41.94 3.38 C41.08 2.96, 40.23 2.55, 39.5 2.2 M39.5 2.2 C38.98 2.01, 38.46 1.82, 36.92 1.26 M39.5 2.2 C38.48 1.83, 37.46 1.45, 36.92 1.26 M36.92 1.26 C36.12 1.05, 35.32 0.85, 34.23 0.57 M36.92 1.26 C36.12 1.05, 35.31 0.85, 34.23 0.57 M34.23 0.57 C33.38 0.44, 32.54 0.31, 31.42 0.14 M34.23 0.57 C33.51 0.46, 32.78 0.35, 31.42 0.14 M31.42 0.14 C30.54 0.1, 29.66 0.06, 28.52 0 M31.42 0.14 C30.56 0.1, 29.7 0.06, 28.52 0 M28.52 0 C28.51 0, 28.5 0, 28.47 0 M28.52 0 C28.51 0, 28.49 0, 28.47 0 M28.47 0 C28.33 0, 28.19 0, 28.11 0 M28.47 0 C28.39 0, 28.32 0, 28.11 0 M28.11 0 C27.83 0, 27.56 0, 27.12 0 M28.11 0 C27.85 0, 27.59 0, 27.12 0 M27.12 0 C26.93 0, 26.73 0, 26.3 0 M27.12 0 C26.95 0, 26.78 0, 26.3 0 M26.3 0 C25.95 0, 25.6 0, 25.21 0 M26.3 0 C25.89 0, 25.49 0, 25.21 0 M25.21 0 C24.68 0, 24.15 0, 23.8 0 M25.21 0 C24.83 0, 24.46 0, 23.8 0 M23.8 0 C23.36 0, 22.91 0, 22.05 0 M23.8 0 C23.32 0, 22.83 0, 22.05 0 M22.05 0 C21.54 0, 21.03 0, 19.9 0 M22.05 0 C21.52 0, 21 0, 19.9 0 M19.9 0 C19.27 0, 18.65 0, 17.33 0 M19.9 0 C19.04 0, 18.18 0, 17.33 0 M17.33 0 C16.47 0, 15.61 0, 14.29 0 M17.33 0 C16.66 0, 16 0, 14.29 0 M14.29 0 C13.48 0, 12.66 0, 10.75 0 M14.29 0 C13.03 0, 11.76 0, 10.75 0 M10.75 0 C9.52 0, 8.29 0, 6.66 0 M10.75 0 C9.25 0, 7.75 0, 6.66 0 M6.66 0 C5.63 0, 4.6 0, 1.99 0 M6.66 0 C5.22 0, 3.78 0, 1.99 0 M1.99 0 C1.4 0, 0.8 0, 0 0 M1.99 0 C1.47 0, 0.95 0, 0 0 M0 0 C0 0, 0 0, 0 0 M0 0 C0 0, 0 0, 0 0 M0 0 C0 0, 0 0, 0 0 M0 0 C0 0, 0 0, 0 0" stroke="#1e1e1e" stroke-width="1" fill="none"/></g></g><mask/><g stroke-linecap="round"><g transform="translate(171.01559419343772 24.760061758251993) rotate(33.72953652535139 23.879804191764578 23.879801866964243)" fill-rule="evenodd"><path d="M0 0 L0 0 L3.98 0 L7.58 0 L10.8 0 L13.64 0 L16.11 0 L18.19 0 L19.9 0 L21.23 0 L22.32 0 L23.14 0 L24.13 0 L24.5 0 L24.54 0 L29.44 0.48 L33.91 1.87 L37.86 4.07 L41.25 6.98 L44 10.51 L46.04 14.56 L47.32 19.05 L47.76 23.88 L47.29 28.71 L45.94 33.2 L43.79 37.25 L40.92 40.78 L37.41 43.69 L33.35 45.89 L28.81 47.28 L23.88 47.76 L0 47.76 L0 0 L0 0" stroke="none" stroke-width="0" fill="#FFFFFF" fill-rule="evenodd"/><path d="M0 0 C0 0, 0 0, 0 0 M0 0 C0 0, 0 0, 0 0 M0 0 C1.21 0, 2.42 0, 3.98 0 M0 0 C0.84 0, 1.67 0, 3.98 0 M3.98 0 C5.1 0, 6.22 0, 7.58 0 M3.98 0 C5.19 0, 6.41 0, 7.58 0 M7.58 0 C8.24 0, 8.9 0, 10.8 0 M7.58 0 C8.26 0, 8.94 0, 10.8 0 M10.8 0 C11.64 0, 12.48 0, 13.64 0 M10.8 0 C11.4 0, 12 0, 13.64 0 M13.64 0 C14.19 0, 14.73 0, 16.11 0 M13.64 0 C14.36 0, 15.08 0, 16.11 0 M16.11 0 C16.77 0, 17.42 0, 18.19 0 M16.11 0 C16.65 0, 17.18 0, 18.19 0 M18.19 0 C18.68 0, 19.16 0, 19.9 0 M18.19 0 C18.79 0, 19.39 0, 19.9 0 M19.9 0 C20.4 0, 20.9 0, 21.23 0 M19.9 0 C20.32 0, 20.75 0, 21.23 0 M21.23 0 C21.5 0, 21.77 0, 22.32 0 M21.23 0 C21.66 0, 22.1 0, 22.32 0 M22.32 0 C22.61 0, 22.9 0, 23.14 0 M22.32 0 C22.64 0, 22.97 0, 23.14 0 M23.14 0 C23.53 0, 23.92 0, 24.13 0 M23.14 0 C23.38 0, 23.62 0, 24.13 0 M24.13 0 C24.24 0, 24.35 0, 24.5 0 M24.13 0 C24.25 0, 24.36 0, 24.5 0 M24.5 0 C24.51 0, 24.53 0, 24.54 0 M24.5 0 C24.52 0, 24.53 0, 24.54 0 M24.54 0 C26.25 0.17, 27.95 0.34, 29.44 0.48 M24.54 0 C25.97 0.14, 27.4 0.28, 29.44 0.48 M29.44 0.48 C30.55 0.83, 31.66 1.17, 33.91 1.87 M29.44 0.48 C30.96 0.95, 32.48 1.43, 33.91 1.87 M33.91 1.87 C35.45 2.72, 36.98 3.58, 37.86 4.07 M33.91 1.87 C35.35 2.67, 36.8 3.48, 37.86 4.07 M37.86 4.07 C38.99 5.03, 40.11 6, 41.25 6.98 M37.86 4.07 C38.94 4.99, 40.02 5.92, 41.25 6.98 M41.25 6.98 C42.34 8.38, 43.43 9.78, 44 10.51 M41.25 6.98 C42.18 8.17, 43.11 9.37, 44 10.51 M44 10.51 C44.7 11.89, 45.39 13.27, 46.04 14.56 M44 10.51 C44.68 11.87, 45.37 13.22, 46.04 14.56 M46.04 14.56 C46.45 16, 46.86 17.43, 47.32 19.05 M46.04 14.56 C46.38 15.74, 46.71 16.92, 47.32 19.05 M47.32 19.05 C47.48 20.84, 47.65 22.62, 47.76 23.88 M47.32 19.05 C47.45 20.51, 47.59 21.97, 47.76 23.88 M47.76 23.88 C47.58 25.69, 47.41 27.5, 47.29 28.71 M47.76 23.88 C47.6 25.51, 47.44 27.15, 47.29 28.71 M47.29 28.71 C46.83 30.23, 46.38 31.74, 45.94 33.2 M47.29 28.71 C46.84 30.22, 46.38 31.73, 45.94 33.2 M45.94 33.2 C45.17 34.64, 44.41 36.08, 43.79 37.25 M45.94 33.2 C45.46 34.1, 44.98 35, 43.79 37.25 M43.79 37.25 C42.96 38.27, 42.14 39.28, 40.92 40.78 M43.79 37.25 C43.05 38.16, 42.31 39.07, 40.92 40.78 M40.92 40.78 C39.77 41.74, 38.61 42.7, 37.41 43.69 M40.92 40.78 C39.8 41.71, 38.68 42.64, 37.41 43.69 M37.41 43.69 C36.26 44.32, 35.11 44.94, 33.35 45.89 M37.41 43.69 C36.26 44.31, 35.12 44.93, 33.35 45.89 M33.35 45.89 C31.84 46.35, 30.32 46.81, 28.81 47.28 M33.35 45.89 C32.04 46.29, 30.73 46.69, 28.81 47.28 M28.81 47.28 C27.26 47.43, 25.72 47.58, 23.88 47.76 M28.81 47.28 C27.17 47.44, 25.53 47.6, 23.88 47.76 M23.88 47.76 C17.14 47.76, 10.4 47.76, 0 47.76 M23.88 47.76 C15.82 47.76, 7.76 47.76, 0 47.76 M0 47.76 C0 29.05, 0 10.33, 0 0 M0 47.76 C0 31.92, 0 16.09, 0 0 M0 0 C0 0, 0 0, 0 0 M0 0 C0 0, 0 0, 0 0 M0 0 C0 0, 0 0, 0 0 M0 0 C0 0, 0 0, 0 0" stroke="#1e1e1e" stroke-width="1" fill="none"/></g></g><mask/><g transform="translate(182.25442290767296 44.19883844636934) rotate(33.72953652535139 11.928993225097656 6.502729939670672)"><text x="0" y="10.404588784245487" font-family="Helvetica, Segoe UI Emoji" font-size="11.30909554725335px" fill="#1e1e1e" text-anchor="start" style="white-space: pre;" direction="ltr" dominant-baseline="alphabetic">AND</text></g><g stroke-linecap="round"><g transform="translate(141.7034733199235 139.59205958036912) rotate(348.97614018063575 -0.7208039657371046 -21.195537586472966)" fill-rule="evenodd"><path d="M0 0 L0 0 L-0.69 1.11 L-1.28 1.98 L-2.15 3.11 L-2.65 3.62 L-2.81 3.74 L-7.36 3.74 L-4.87 0.7 L-4.87 0.7 L-4.79 0.6 L-4.57 0.3 L-3.77 -0.87 L-2.64 -2.75 L-1.34 -5.31 L-0.05 -8.48 L1.08 -12.22 L1.88 -16.47 L2.18 -21.2 L1.88 -25.92 L1.08 -30.17 L-0.05 -33.91 L-1.34 -37.08 L-2.64 -39.64 L-3.77 -41.52 L-4.57 -42.69 L-4.79 -42.99 L-4.87 -43.09 L-7.36 -46.13 L-2.81 -46.13 L-2.81 -46.13 L-1.43 -44.45 L-0.04 -42.39 L0.89 -40.78 L1.88 -38.85 L2.87 -36.61 L3.82 -34.07 L4.65 -31.25 L5.32 -28.16 L5.76 -24.8 L5.92 -21.2 L5.76 -17.6 L5.32 -14.25 L4.66 -11.16 L3.83 -8.34 L2.89 -5.8 L1.9 -3.56 L0.92 -1.62 L0 0 L0 0" stroke="none" stroke-width="0" fill="black" fill-rule="evenodd"/><path d="M0 0 C0 0, 0 0, 0 0 M0 0 C0 0, 0 0, 0 0 M0 0 C-0.21 0.33, -0.42 0.66, -0.69 1.11 M0 0 C-0.24 0.38, -0.48 0.77, -0.69 1.11 M-0.69 1.11 C-0.88 1.38, -1.07 1.66, -1.28 1.98 M-0.69 1.11 C-0.91 1.43, -1.12 1.75, -1.28 1.98 M-1.28 1.98 C-1.48 2.24, -1.69 2.51, -2.15 3.11 M-1.28 1.98 C-1.52 2.29, -1.76 2.6, -2.15 3.11 M-2.15 3.11 C-2.34 3.31, -2.53 3.5, -2.65 3.62 M-2.15 3.11 C-2.32 3.28, -2.49 3.46, -2.65 3.62 M-2.65 3.62 C-2.69 3.65, -2.72 3.68, -2.81 3.74 M-2.65 3.62 C-2.7 3.66, -2.75 3.7, -2.81 3.74 M-2.81 3.74 C-4.51 3.74, -6.21 3.74, -7.36 3.74 M-2.81 3.74 C-4.09 3.74, -5.37 3.74, -7.36 3.74 M-7.36 3.74 C-6.53 2.73, -5.7 1.71, -4.87 0.7 M-7.36 3.74 C-6.72 2.96, -6.08 2.18, -4.87 0.7 M-4.87 0.7 C-4.87 0.7, -4.87 0.7, -4.87 0.7 M-4.87 0.7 C-4.87 0.7, -4.87 0.7, -4.87 0.7 M-4.87 0.7 C-4.84 0.67, -4.81 0.63, -4.79 0.6 M-4.87 0.7 C-4.85 0.67, -4.82 0.64, -4.79 0.6 M-4.79 0.6 C-4.73 0.52, -4.68 0.45, -4.57 0.3 M-4.79 0.6 C-4.74 0.54, -4.7 0.47, -4.57 0.3 M-4.57 0.3 C-4.34 -0.03, -4.12 -0.35, -3.77 -0.87 M-4.57 0.3 C-4.31 -0.07, -4.06 -0.44, -3.77 -0.87 M-3.77 -0.87 C-3.48 -1.35, -3.2 -1.83, -2.64 -2.75 M-3.77 -0.87 C-3.52 -1.28, -3.28 -1.69, -2.64 -2.75 M-2.64 -2.75 C-2.26 -3.5, -1.88 -4.24, -1.34 -5.31 M-2.64 -2.75 C-2.35 -3.32, -2.07 -3.88, -1.34 -5.31 M-1.34 -5.31 C-0.84 -6.55, -0.33 -7.8, -0.05 -8.48 M-1.34 -5.31 C-1.08 -5.96, -0.81 -6.62, -0.05 -8.48 M-0.05 -8.48 C0.3 -9.62, 0.64 -10.77, 1.08 -12.22 M-0.05 -8.48 C0.18 -9.23, 0.41 -9.99, 1.08 -12.22 M1.08 -12.22 C1.32 -13.52, 1.57 -14.82, 1.88 -16.47 M1.08 -12.22 C1.29 -13.34, 1.5 -14.47, 1.88 -16.47 M1.88 -16.47 C1.96 -17.7, 2.04 -18.93, 2.18 -21.2 M1.88 -16.47 C1.96 -17.69, 2.03 -18.9, 2.18 -21.2 M2.18 -21.2 C2.12 -22.16, 2.06 -23.13, 1.88 -25.92 M2.18 -21.2 C2.08 -22.74, 1.98 -24.29, 1.88 -25.92 M1.88 -25.92 C1.71 -26.83, 1.54 -27.74, 1.08 -30.17 M1.88 -25.92 C1.65 -27.13, 1.42 -28.35, 1.08 -30.17 M1.08 -30.17 C0.66 -31.57, 0.23 -32.98, -0.05 -33.91 M1.08 -30.17 C0.76 -31.23, 0.44 -32.29, -0.05 -33.91 M-0.05 -33.91 C-0.38 -34.72, -0.71 -35.52, -1.34 -37.08 M-0.05 -33.91 C-0.55 -35.14, -1.05 -36.37, -1.34 -37.08 M-1.34 -37.08 C-1.7 -37.78, -2.06 -38.49, -2.64 -39.64 M-1.34 -37.08 C-1.69 -37.77, -2.04 -38.46, -2.64 -39.64 M-2.64 -39.64 C-3.08 -40.37, -3.51 -41.09, -3.77 -41.52 M-2.64 -39.64 C-3.05 -40.33, -3.47 -41.02, -3.77 -41.52 M-3.77 -41.52 C-3.96 -41.8, -4.15 -42.08, -4.57 -42.69 M-3.77 -41.52 C-4.07 -41.96, -4.37 -42.4, -4.57 -42.69 M-4.57 -42.69 C-4.62 -42.76, -4.68 -42.84, -4.79 -42.99 M-4.57 -42.69 C-4.62 -42.76, -4.67 -42.83, -4.79 -42.99 M-4.79 -42.99 C-4.82 -43.03, -4.85 -43.06, -4.87 -43.09 M-4.79 -42.99 C-4.82 -43.03, -4.85 -43.06, -4.87 -43.09 M-4.87 -43.09 C-5.81 -44.23, -6.74 -45.38, -7.36 -46.13 M-4.87 -43.09 C-5.54 -43.91, -6.22 -44.73, -7.36 -46.13 M-7.36 -46.13 C-6.28 -46.13, -5.2 -46.13, -2.81 -46.13 M-7.36 -46.13 C-6.1 -46.13, -4.83 -46.13, -2.81 -46.13 M-2.81 -46.13 C-2.81 -46.13, -2.81 -46.13, -2.81 -46.13 M-2.81 -46.13 C-2.81 -46.13, -2.81 -46.13, -2.81 -46.13 M-2.81 -46.13 C-2.52 -45.78, -2.23 -45.43, -1.43 -44.45 M-2.81 -46.13 C-2.38 -45.61, -1.96 -45.09, -1.43 -44.45 M-1.43 -44.45 C-1 -43.81, -0.56 -43.17, -0.04 -42.39 M-1.43 -44.45 C-1.09 -43.95, -0.76 -43.45, -0.04 -42.39 M-0.04 -42.39 C0.24 -41.91, 0.52 -41.42, 0.89 -40.78 M-0.04 -42.39 C0.28 -41.84, 0.59 -41.3, 0.89 -40.78 M0.89 -40.78 C1.22 -40.12, 1.56 -39.46, 1.88 -38.85 M0.89 -40.78 C1.27 -40.03, 1.66 -39.27, 1.88 -38.85 M1.88 -38.85 C2.19 -38.14, 2.51 -37.43, 2.87 -36.61 M1.88 -38.85 C2.19 -38.14, 2.51 -37.43, 2.87 -36.61 M2.87 -36.61 C3.16 -35.85, 3.44 -35.09, 3.82 -34.07 M2.87 -36.61 C3.21 -35.7, 3.55 -34.79, 3.82 -34.07 M3.82 -34.07 C4.09 -33.15, 4.36 -32.24, 4.65 -31.25 M3.82 -34.07 C4.1 -33.11, 4.39 -32.14, 4.65 -31.25 M4.65 -31.25 C4.83 -30.45, 5 -29.64, 5.32 -28.16 M4.65 -31.25 C4.83 -30.44, 5 -29.63, 5.32 -28.16 M5.32 -28.16 C5.49 -26.9, 5.65 -25.64, 5.76 -24.8 M5.32 -28.16 C5.48 -26.93, 5.64 -25.71, 5.76 -24.8 M5.76 -24.8 C5.8 -24.02, 5.83 -23.23, 5.92 -21.2 M5.76 -24.8 C5.81 -23.66, 5.86 -22.52, 5.92 -21.2 M5.92 -21.2 C5.86 -19.81, 5.8 -18.43, 5.76 -17.6 M5.92 -21.2 C5.88 -20.15, 5.83 -19.11, 5.76 -17.6 M5.76 -17.6 C5.59 -16.29, 5.42 -14.98, 5.32 -14.25 M5.76 -17.6 C5.61 -16.47, 5.47 -15.34, 5.32 -14.25 M5.32 -14.25 C5.16 -13.49, 4.99 -12.73, 4.66 -11.16 M5.32 -14.25 C5.14 -13.41, 4.96 -12.58, 4.66 -11.16 M4.66 -11.16 C4.39 -10.25, 4.12 -9.34, 3.83 -8.34 M4.66 -11.16 C4.46 -10.48, 4.26 -9.8, 3.83 -8.34 M3.83 -8.34 C3.52 -7.51, 3.21 -6.68, 2.89 -5.8 M3.83 -8.34 C3.63 -7.8, 3.43 -7.26, 2.89 -5.8 M2.89 -5.8 C2.52 -4.96, 2.15 -4.12, 1.9 -3.56 M2.89 -5.8 C2.54 -5.02, 2.2 -4.24, 1.9 -3.56 M1.9 -3.56 C1.54 -2.85, 1.18 -2.15, 0.92 -1.62 M1.9 -3.56 C1.63 -3.02, 1.36 -2.49, 0.92 -1.62 M0.92 -1.62 C0.7 -1.23, 0.48 -0.84, 0 0 M0.92 -1.62 C0.66 -1.17, 0.4 -0.72, 0 0 M0 0 C0 0, 0 0, 0 0 M0 0 C0 0, 0 0, 0 0 M0 0 C0 0, 0 0, 0 0 M0 0 C0 0, 0 0, 0 0" stroke="#1e1e1e" stroke-width="0.5" fill="none"/></g></g><mask/><g stroke-linecap="round"><g transform="translate(140.94141069316186 87.58231093388264) rotate(348.97614018063575 30.21532299616888 24.935920976851165)" fill-rule="evenodd"><path d="M0 0 L2.49 3.04 L2.49 3.04 L2.57 3.14 L2.8 3.44 L3.6 4.61 L4.72 6.5 L6.02 9.05 L7.31 12.22 L8.44 15.96 L9.24 20.21 L9.55 24.94 L9.24 29.66 L8.44 33.91 L7.31 37.65 L6.02 40.82 L4.72 43.38 L3.6 45.26 L2.8 46.43 L2.57 46.73 L2.49 46.83 L0 49.87 L3.94 49.87 L21.39 49.87 L21.39 49.87 L22.68 49.87 L24.27 49.83 L26.13 49.72 L28.23 49.51 L30.54 49.15 L33.02 48.62 L35.65 47.87 L38.38 46.87 L41.19 45.58 L44.04 43.98 L46.91 42.02 L49.77 39.67 L52.58 36.91 L55.32 33.71 L57.94 30.02 L60.43 25.83 L58.79 24.94 L60.43 24.04 L60.43 24.04 L57.94 19.85 L55.31 16.18 L52.57 12.99 L49.75 10.26 L46.88 7.93 L44 5.99 L41.13 4.39 L38.32 3.11 L35.58 2.1 L32.96 1.34 L30.49 0.79 L28.19 0.41 L26.09 0.18 L24.24 0.06 L22.66 0.01 L21.39 0 L3.94 0 L0 0 L0 0" stroke="none" stroke-width="0" fill="black" fill-rule="evenodd"/><path d="M0 0 C0.98 1.19, 1.96 2.39, 2.49 3.04 M0 0 C0.9 1.1, 1.81 2.21, 2.49 3.04 M2.49 3.04 C2.49 3.04, 2.49 3.04, 2.49 3.04 M2.49 3.04 C2.49 3.04, 2.49 3.04, 2.49 3.04 M2.49 3.04 C2.51 3.06, 2.53 3.08, 2.57 3.14 M2.49 3.04 C2.51 3.07, 2.54 3.09, 2.57 3.14 M2.57 3.14 C2.62 3.21, 2.68 3.28, 2.8 3.44 M2.57 3.14 C2.65 3.24, 2.73 3.34, 2.8 3.44 M2.8 3.44 C3 3.73, 3.2 4.02, 3.6 4.61 M2.8 3.44 C3 3.74, 3.2 4.03, 3.6 4.61 M3.6 4.61 C4.04 5.35, 4.49 6.1, 4.72 6.5 M3.6 4.61 C4.03 5.34, 4.47 6.07, 4.72 6.5 M4.72 6.5 C5.17 7.37, 5.61 8.24, 6.02 9.05 M4.72 6.5 C5.19 7.42, 5.66 8.35, 6.02 9.05 M6.02 9.05 C6.4 9.99, 6.79 10.93, 7.31 12.22 M6.02 9.05 C6.44 10.08, 6.86 11.12, 7.31 12.22 M7.31 12.22 C7.62 13.23, 7.92 14.24, 8.44 15.96 M7.31 12.22 C7.68 13.43, 8.04 14.64, 8.44 15.96 M8.44 15.96 C8.64 16.98, 8.83 18, 9.24 20.21 M8.44 15.96 C8.75 17.57, 9.05 19.18, 9.24 20.21 M9.24 20.21 C9.31 21.32, 9.38 22.43, 9.55 24.94 M9.24 20.21 C9.33 21.5, 9.41 22.78, 9.55 24.94 M9.55 24.94 C9.46 26.34, 9.37 27.74, 9.24 29.66 M9.55 24.94 C9.48 25.96, 9.41 26.99, 9.24 29.66 M9.24 29.66 C8.96 31.18, 8.67 32.71, 8.44 33.91 M9.24 29.66 C9.05 30.69, 8.85 31.73, 8.44 33.91 M8.44 33.91 C8.2 34.71, 7.96 35.52, 7.31 37.65 M8.44 33.91 C8.14 34.92, 7.84 35.92, 7.31 37.65 M7.31 37.65 C6.81 38.89, 6.31 40.12, 6.02 40.82 M7.31 37.65 C6.95 38.53, 6.59 39.42, 6.02 40.82 M6.02 40.82 C5.61 41.63, 5.21 42.43, 4.72 43.38 M6.02 40.82 C5.75 41.35, 5.48 41.88, 4.72 43.38 M4.72 43.38 C4.28 44.12, 3.83 44.87, 3.6 45.26 M4.72 43.38 C4.37 43.97, 4.02 44.56, 3.6 45.26 M3.6 45.26 C3.28 45.72, 2.97 46.18, 2.8 46.43 M3.6 45.26 C3.39 45.57, 3.18 45.87, 2.8 46.43 M2.8 46.43 C2.74 46.51, 2.67 46.6, 2.57 46.73 M2.8 46.43 C2.73 46.52, 2.67 46.61, 2.57 46.73 M2.57 46.73 C2.56 46.75, 2.54 46.77, 2.49 46.83 M2.57 46.73 C2.55 46.76, 2.52 46.79, 2.49 46.83 M2.49 46.83 C1.91 47.55, 1.32 48.27, 0 49.87 M2.49 46.83 C1.85 47.62, 1.21 48.4, 0 49.87 M0 49.87 C0.85 49.87, 1.7 49.87, 3.94 49.87 M0 49.87 C1.53 49.87, 3.06 49.87, 3.94 49.87 M3.94 49.87 C9.63 49.87, 15.32 49.87, 21.39 49.87 M3.94 49.87 C8.35 49.87, 12.77 49.87, 21.39 49.87 M21.39 49.87 C21.39 49.87, 21.39 49.87, 21.39 49.87 M21.39 49.87 C21.39 49.87, 21.39 49.87, 21.39 49.87 M21.39 49.87 C21.79 49.87, 22.18 49.87, 22.68 49.87 M21.39 49.87 C21.68 49.87, 21.97 49.87, 22.68 49.87 M22.68 49.87 C23.18 49.86, 23.68 49.84, 24.27 49.83 M22.68 49.87 C23.16 49.86, 23.65 49.84, 24.27 49.83 M24.27 49.83 C24.95 49.79, 25.64 49.75, 26.13 49.72 M24.27 49.83 C24.87 49.79, 25.46 49.76, 26.13 49.72 M26.13 49.72 C26.88 49.65, 27.64 49.57, 28.23 49.51 M26.13 49.72 C26.68 49.67, 27.23 49.61, 28.23 49.51 M28.23 49.51 C28.73 49.43, 29.23 49.35, 30.54 49.15 M28.23 49.51 C29.13 49.37, 30.02 49.23, 30.54 49.15 M30.54 49.15 C31.25 49, 31.95 48.85, 33.02 48.62 M30.54 49.15 C31.25 49, 31.97 48.85, 33.02 48.62 M33.02 48.62 C34.04 48.33, 35.06 48.04, 35.65 47.87 M33.02 48.62 C33.75 48.41, 34.48 48.2, 35.65 47.87 M35.65 47.87 C36.2 47.67, 36.76 47.46, 38.38 46.87 M35.65 47.87 C36.38 47.6, 37.11 47.34, 38.38 46.87 M38.38 46.87 C39.33 46.43, 40.29 46, 41.19 45.58 M38.38 46.87 C39.34 46.43, 40.31 45.99, 41.19 45.58 M41.19 45.58 C42.04 45.1, 42.89 44.62, 44.04 43.98 M41.19 45.58 C41.88 45.19, 42.58 44.8, 44.04 43.98 M44.04 43.98 C45.06 43.28, 46.08 42.59, 46.91 42.02 M44.04 43.98 C45.01 43.31, 45.99 42.65, 46.91 42.02 M46.91 42.02 C47.84 41.26, 48.76 40.5, 49.77 39.67 M46.91 42.02 C47.79 41.3, 48.67 40.58, 49.77 39.67 M49.77 39.67 C50.43 39.02, 51.09 38.37, 52.58 36.91 M49.77 39.67 C50.66 38.79, 51.56 37.92, 52.58 36.91 M52.58 36.91 C53.42 35.93, 54.26 34.95, 55.32 33.71 M52.58 36.91 C53.41 35.94, 54.24 34.97, 55.32 33.71 M55.32 33.71 C55.87 32.93, 56.42 32.16, 57.94 30.02 M55.32 33.71 C56.21 32.46, 57.1 31.21, 57.94 30.02 M57.94 30.02 C58.56 28.98, 59.19 27.93, 60.43 25.83 M57.94 30.02 C58.75 28.66, 59.56 27.3, 60.43 25.83 M60.43 25.83 C60.05 25.63, 59.68 25.42, 58.79 24.94 M60.43 25.83 C59.84 25.51, 59.25 25.19, 58.79 24.94 M58.79 24.94 C59.17 24.73, 59.55 24.52, 60.43 24.04 M58.79 24.94 C59.15 24.74, 59.51 24.54, 60.43 24.04 M60.43 24.04 C60.43 24.04, 60.43 24.04, 60.43 24.04 M60.43 24.04 C60.43 24.04, 60.43 24.04, 60.43 24.04 M60.43 24.04 C59.7 22.81, 58.96 21.57, 57.94 19.85 M60.43 24.04 C59.72 22.84, 59 21.64, 57.94 19.85 M57.94 19.85 C57.34 19.01, 56.73 18.17, 55.31 16.18 M57.94 19.85 C57.04 18.6, 56.14 17.35, 55.31 16.18 M55.31 16.18 C54.3 15.01, 53.29 13.84, 52.57 12.99 M55.31 16.18 C54.28 14.99, 53.25 13.79, 52.57 12.99 M52.57 12.99 C51.92 12.37, 51.27 11.74, 49.75 10.26 M52.57 12.99 C51.92 12.37, 51.28 11.75, 49.75 10.26 M49.75 10.26 C48.76 9.46, 47.78 8.66, 46.88 7.93 M49.75 10.26 C48.64 9.36, 47.53 8.46, 46.88 7.93 M46.88 7.93 C45.97 7.32, 45.07 6.71, 44 5.99 M46.88 7.93 C45.83 7.23, 44.79 6.52, 44 5.99 M44 5.99 C42.87 5.36, 41.75 4.73, 41.13 4.39 M44 5.99 C42.93 5.39, 41.86 4.8, 41.13 4.39 M41.13 4.39 C40.14 3.94, 39.15 3.49, 38.32 3.11 M41.13 4.39 C40.25 3.99, 39.37 3.59, 38.32 3.11 M38.32 3.11 C37.62 2.85, 36.91 2.59, 35.58 2.1 M38.32 3.11 C37.66 2.87, 37.01 2.62, 35.58 2.1 M35.58 2.1 C34.7 1.84, 33.82 1.59, 32.96 1.34 M35.58 2.1 C34.68 1.84, 33.77 1.57, 32.96 1.34 M32.96 1.34 C32.09 1.14, 31.21 0.95, 30.49 0.79 M32.96 1.34 C32.36 1.21, 31.76 1.07, 30.49 0.79 M30.49 0.79 C29.84 0.68, 29.19 0.58, 28.19 0.41 M30.49 0.79 C29.72 0.66, 28.96 0.54, 28.19 0.41 M28.19 0.41 C27.62 0.35, 27.05 0.29, 26.09 0.18 M28.19 0.41 C27.58 0.35, 26.98 0.28, 26.09 0.18 M26.09 0.18 C25.49 0.14, 24.89 0.1, 24.24 0.06 M26.09 0.18 C25.65 0.15, 25.2 0.12, 24.24 0.06 M24.24 0.06 C23.81 0.04, 23.38 0.03, 22.66 0.01 M24.24 0.06 C23.87 0.05, 23.49 0.03, 22.66 0.01 M22.66 0.01 C22.37 0.01, 22.07 0, 21.39 0 M22.66 0.01 C22.35 0.01, 22.04 0, 21.39 0 M21.39 0 C14.48 0, 7.58 0, 3.94 0 M21.39 0 C17.83 0, 14.27 0, 3.94 0 M3.94 0 C2.8 0, 1.67 0, 0 0 M3.94 0 C3.07 0, 2.2 0, 0 0 M0 0 C0 0, 0 0, 0 0 M0 0 C0 0, 0 0, 0 0 M0 0 C0 0, 0 0, 0 0 M0 0 C0 0, 0 0, 0 0" stroke="#1e1e1e" stroke-width="1" fill="none"/></g></g><mask/><g stroke-linecap="round"><g transform="translate(148.23722009316128 91.02096199638186) rotate(348.97614018063575 24.4683724585352 21.195532830323486)" fill-rule="evenodd"><path d="M0 0 L14.07 0 L14.07 0 L15.29 0 L16.75 0.03 L20.28 0.31 L24.48 1.07 L26.78 1.72 L29.16 2.59 L31.63 3.7 L34.14 5.1 L36.68 6.82 L39.22 8.87 L41.74 11.31 L44.21 14.15 L46.62 17.44 L48.94 21.2 L46.65 24.9 L44.28 28.14 L41.83 30.96 L39.34 33.38 L36.82 35.42 L34.3 37.14 L31.8 38.54 L29.34 39.66 L26.89 40.57 L24.55 41.24 L20.32 42.05 L16.78 42.35 L14.07 42.39 L0.04 42.39 L0.04 42.39 L0.96 40.77 L1.95 38.84 L2.94 36.6 L3.88 34.06 L4.7 31.24 L5.36 28.14 L5.8 24.79 L5.96 21.2 L5.8 17.59 L5.36 14.23 L4.69 11.14 L3.86 8.32 L2.91 5.78 L1.92 3.54 L0.93 1.61 L0 0 L0 0" stroke="none" stroke-width="0" fill="#FFFFFF" fill-rule="evenodd"/><path d="M0 0 C4.73 0, 9.46 0, 14.07 0 M0 0 C2.86 0, 5.71 0, 14.07 0 M14.07 0 C14.07 0, 14.07 0, 14.07 0 M14.07 0 C14.07 0, 14.07 0, 14.07 0 M14.07 0 C14.32 0, 14.57 0, 15.29 0 M14.07 0 C14.53 0, 14.98 0, 15.29 0 M15.29 0 C15.66 0.01, 16.03 0.02, 16.75 0.03 M15.29 0 C15.83 0.02, 16.37 0.03, 16.75 0.03 M16.75 0.03 C17.52 0.09, 18.3 0.15, 20.28 0.31 M16.75 0.03 C17.52 0.09, 18.29 0.15, 20.28 0.31 M20.28 0.31 C21.52 0.53, 22.76 0.76, 24.48 1.07 M20.28 0.31 C21.81 0.59, 23.33 0.86, 24.48 1.07 M24.48 1.07 C25.36 1.32, 26.24 1.57, 26.78 1.72 M24.48 1.07 C25.15 1.26, 25.82 1.45, 26.78 1.72 M26.78 1.72 C27.65 2.04, 28.52 2.35, 29.16 2.59 M26.78 1.72 C27.51 1.99, 28.24 2.25, 29.16 2.59 M29.16 2.59 C29.86 2.9, 30.55 3.22, 31.63 3.7 M29.16 2.59 C29.68 2.82, 30.19 3.05, 31.63 3.7 M31.63 3.7 C32.62 4.26, 33.61 4.81, 34.14 5.1 M31.63 3.7 C32.32 4.09, 33.01 4.48, 34.14 5.1 M34.14 5.1 C35.08 5.74, 36.02 6.37, 36.68 6.82 M34.14 5.1 C34.99 5.68, 35.85 6.25, 36.68 6.82 M36.68 6.82 C37.54 7.52, 38.41 8.22, 39.22 8.87 M36.68 6.82 C37.57 7.54, 38.46 8.26, 39.22 8.87 M39.22 8.87 C39.93 9.56, 40.63 10.24, 41.74 11.31 M39.22 8.87 C39.95 9.58, 40.69 10.29, 41.74 11.31 M41.74 11.31 C42.43 12.11, 43.13 12.91, 44.21 14.15 M41.74 11.31 C42.51 12.2, 43.29 13.09, 44.21 14.15 M44.21 14.15 C44.98 15.2, 45.74 16.24, 46.62 17.44 M44.21 14.15 C44.8 14.95, 45.38 15.75, 46.62 17.44 M46.62 17.44 C47.36 18.65, 48.11 19.85, 48.94 21.2 M46.62 17.44 C47.42 18.73, 48.22 20.03, 48.94 21.2 M48.94 21.2 C48.12 22.51, 47.31 23.83, 46.65 24.9 M48.94 21.2 C48.46 21.97, 47.98 22.75, 46.65 24.9 M46.65 24.9 C45.97 25.83, 45.3 26.75, 44.28 28.14 M46.65 24.9 C45.88 25.96, 45.1 27.02, 44.28 28.14 M44.28 28.14 C43.43 29.12, 42.58 30.1, 41.83 30.96 M44.28 28.14 C43.39 29.17, 42.5 30.19, 41.83 30.96 M41.83 30.96 C41.27 31.5, 40.71 32.05, 39.34 33.38 M41.83 30.96 C40.97 31.79, 40.11 32.63, 39.34 33.38 M39.34 33.38 C38.79 33.82, 38.25 34.26, 36.82 35.42 M39.34 33.38 C38.51 34.05, 37.68 34.73, 36.82 35.42 M36.82 35.42 C36.03 35.96, 35.25 36.49, 34.3 37.14 M36.82 35.42 C35.84 36.09, 34.86 36.75, 34.3 37.14 M34.3 37.14 C33.4 37.64, 32.5 38.15, 31.8 38.54 M34.3 37.14 C33.59 37.53, 32.89 37.93, 31.8 38.54 M31.8 38.54 C30.95 38.93, 30.11 39.31, 29.34 39.66 M31.8 38.54 C31.2 38.81, 30.61 39.08, 29.34 39.66 M29.34 39.66 C28.48 39.98, 27.63 40.29, 26.89 40.57 M29.34 39.66 C28.74 39.89, 28.13 40.11, 26.89 40.57 M26.89 40.57 C26.33 40.73, 25.77 40.89, 24.55 41.24 M26.89 40.57 C25.96 40.84, 25.04 41.1, 24.55 41.24 M24.55 41.24 C23.6 41.43, 22.64 41.61, 20.32 42.05 M24.55 41.24 C22.86 41.57, 21.17 41.89, 20.32 42.05 M20.32 42.05 C19.11 42.16, 17.89 42.26, 16.78 42.35 M20.32 42.05 C19.11 42.16, 17.89 42.26, 16.78 42.35 M16.78 42.35 C16.2 42.36, 15.63 42.37, 14.07 42.39 M16.78 42.35 C15.77 42.37, 14.75 42.38, 14.07 42.39 M14.07 42.39 C9.55 42.39, 5.03 42.39, 0.04 42.39 M14.07 42.39 C10.21 42.39, 6.36 42.39, 0.04 42.39 M0.04 42.39 C0.04 42.39, 0.04 42.39, 0.04 42.39 M0.04 42.39 C0.04 42.39, 0.04 42.39, 0.04 42.39 M0.04 42.39 C0.29 41.96, 0.53 41.53, 0.96 40.77 M0.04 42.39 C0.4 41.77, 0.75 41.14, 0.96 40.77 M0.96 40.77 C1.2 40.3, 1.44 39.83, 1.95 38.84 M0.96 40.77 C1.31 40.09, 1.66 39.4, 1.95 38.84 M1.95 38.84 C2.34 37.96, 2.72 37.09, 2.94 36.6 M1.95 38.84 C2.32 38, 2.69 37.17, 2.94 36.6 M2.94 36.6 C3.21 35.85, 3.49 35.11, 3.88 34.06 M2.94 36.6 C3.3 35.63, 3.65 34.66, 3.88 34.06 M3.88 34.06 C4.15 33.13, 4.42 32.19, 4.7 31.24 M3.88 34.06 C4.15 33.12, 4.42 32.19, 4.7 31.24 M4.7 31.24 C4.87 30.45, 5.04 29.67, 5.36 28.14 M4.7 31.24 C4.88 30.43, 5.05 29.63, 5.36 28.14 M5.36 28.14 C5.47 27.31, 5.58 26.48, 5.8 24.79 M5.36 28.14 C5.48 27.26, 5.59 26.38, 5.8 24.79 M5.8 24.79 C5.85 23.67, 5.9 22.55, 5.96 21.2 M5.8 24.79 C5.86 23.43, 5.92 22.06, 5.96 21.2 M5.96 21.2 C5.91 20.02, 5.86 18.84, 5.8 17.59 M5.96 21.2 C5.9 19.87, 5.84 18.55, 5.8 17.59 M5.8 17.59 C5.7 16.83, 5.6 16.06, 5.36 14.23 M5.8 17.59 C5.63 16.32, 5.47 15.05, 5.36 14.23 M5.36 14.23 C5.17 13.38, 4.99 12.53, 4.69 11.14 M5.36 14.23 C5.13 13.17, 4.9 12.1, 4.69 11.14 M4.69 11.14 C4.5 10.49, 4.31 9.84, 3.86 8.32 M4.69 11.14 C4.48 10.44, 4.28 9.74, 3.86 8.32 M3.86 8.32 C3.65 7.75, 3.44 7.19, 2.91 5.78 M3.86 8.32 C3.57 7.56, 3.29 6.79, 2.91 5.78 M2.91 5.78 C2.59 5.05, 2.26 4.32, 1.92 3.54 M2.91 5.78 C2.68 5.27, 2.46 4.76, 1.92 3.54 M1.92 3.54 C1.69 3.11, 1.47 2.67, 0.93 1.61 M1.92 3.54 C1.68 3.08, 1.44 2.61, 0.93 1.61 M0.93 1.61 C0.56 0.98, 0.2 0.34, 0 0 M0.93 1.61 C0.63 1.1, 0.34 0.59, 0 0 M0 0 C0 0, 0 0, 0 0 M0 0 C0 0, 0 0, 0 0 M0 0 C0 0, 0 0, 0 0 M0 0 C0 0, 0 0, 0 0" stroke="#1e1e1e" stroke-width="1" fill="none"/></g></g><mask/><g stroke-linecap="round"><g transform="translate(198.7606345489193 107.08450556643228) rotate(348.97614018063575 0.2597922393059662 0.05196042994890604)"><path d="M0 0 C0.09 0.02, 0.43 0.09, 0.52 0.1 M0 0 C0.09 0.02, 0.43 0.09, 0.52 0.1" stroke="#1e1e1e" stroke-width="4" fill="none"/></g></g><mask/><g transform="translate(159.2593921706537 105.05856616666242) rotate(348.97614018063575 13.597862243652344 7.2177017209967005)"><text x="0" y="11.548567920093388" font-family="Helvetica, Segoe UI Emoji" font-size="12.552524732168168px" fill="#1e1e1e" text-anchor="start" style="white-space: pre;" direction="ltr" dominant-baseline="alphabetic">XOR</text></g><g stroke-linecap="round"><g transform="translate(271.56438031501176 125.14858263950899) rotate(336.9279228343267 28.19143199851524 27.859769342963133)" fill-rule="evenodd"><path d="M0 0 L0 1.99 L0 53.73 L0 55.72 L1.99 55.72 L28.52 55.72 L28.52 55.72 L31.42 55.58 L34.23 55.15 L36.92 54.46 L39.5 53.52 L41.94 52.34 L44.24 50.94 L48.34 47.54 L51.71 43.41 L54.24 38.68 L55.16 36.12 L55.83 33.46 L56.24 30.7 L56.38 27.86 L56.24 25.02 L55.83 22.26 L55.16 19.6 L54.24 17.04 L51.71 12.31 L48.34 8.18 L44.24 4.77 L41.94 3.38 L39.5 2.2 L36.92 1.26 L34.23 0.57 L31.42 0.14 L28.52 0 L28.47 0 L28.11 0 L27.12 0 L26.3 0 L25.21 0 L23.8 0 L22.05 0 L19.9 0 L17.33 0 L14.29 0 L10.75 0 L6.66 0 L1.99 0 L0 0 L0 0" stroke="none" stroke-width="0" fill="black" fill-rule="evenodd"/><path d="M0 0 C0 0.75, 0 1.51, 0 1.99 M0 0 C0 0.63, 0 1.25, 0 1.99 M0 1.99 C0 13.25, 0 24.5, 0 53.73 M0 1.99 C0 15.7, 0 29.41, 0 53.73 M0 53.73 C0 54.19, 0 54.65, 0 55.72 M0 53.73 C0 54.41, 0 55.08, 0 55.72 M0 55.72 C0.5 55.72, 0.99 55.72, 1.99 55.72 M0 55.72 C0.51 55.72, 1.01 55.72, 1.99 55.72 M1.99 55.72 C12.45 55.72, 22.91 55.72, 28.52 55.72 M1.99 55.72 C12.26 55.72, 22.54 55.72, 28.52 55.72 M28.52 55.72 C28.52 55.72, 28.52 55.72, 28.52 55.72 M28.52 55.72 C28.52 55.72, 28.52 55.72, 28.52 55.72 M28.52 55.72 C29.39 55.68, 30.25 55.63, 31.42 55.58 M28.52 55.72 C29.47 55.67, 30.41 55.63, 31.42 55.58 M31.42 55.58 C32.18 55.46, 32.94 55.35, 34.23 55.15 M31.42 55.58 C32.33 55.44, 33.24 55.3, 34.23 55.15 M34.23 55.15 C34.87 54.99, 35.52 54.82, 36.92 54.46 M34.23 55.15 C35.25 54.89, 36.27 54.63, 36.92 54.46 M36.92 54.46 C37.53 54.24, 38.13 54.02, 39.5 53.52 M36.92 54.46 C37.62 54.21, 38.32 53.95, 39.5 53.52 M39.5 53.52 C40.22 53.17, 40.95 52.82, 41.94 52.34 M39.5 53.52 C40.03 53.27, 40.56 53.01, 41.94 52.34 M41.94 52.34 C42.76 51.84, 43.59 51.34, 44.24 50.94 M41.94 52.34 C42.5 52, 43.06 51.66, 44.24 50.94 M44.24 50.94 C45.12 50.21, 45.99 49.48, 48.34 47.54 M44.24 50.94 C45.34 50.03, 46.44 49.12, 48.34 47.54 M48.34 47.54 C49.65 45.93, 50.96 44.32, 51.71 43.41 M48.34 47.54 C49.28 46.39, 50.21 45.24, 51.71 43.41 M51.71 43.41 C52.5 41.92, 53.3 40.44, 54.24 38.68 M51.71 43.41 C52.23 42.43, 52.75 41.45, 54.24 38.68 M54.24 38.68 C54.6 37.66, 54.97 36.65, 55.16 36.12 M54.24 38.68 C54.53 37.87, 54.81 37.07, 55.16 36.12 M55.16 36.12 C55.42 35.08, 55.68 34.04, 55.83 33.46 M55.16 36.12 C55.33 35.42, 55.51 34.73, 55.83 33.46 M55.83 33.46 C55.94 32.7, 56.05 31.95, 56.24 30.7 M55.83 33.46 C55.95 32.65, 56.07 31.84, 56.24 30.7 M56.24 30.7 C56.27 30.1, 56.3 29.5, 56.38 27.86 M56.24 30.7 C56.29 29.81, 56.33 28.93, 56.38 27.86 M56.38 27.86 C56.35 27.19, 56.32 26.52, 56.24 25.02 M56.38 27.86 C56.35 27.13, 56.31 26.39, 56.24 25.02 M56.24 25.02 C56.15 24.43, 56.06 23.83, 55.83 22.26 M56.24 25.02 C56.08 23.95, 55.92 22.88, 55.83 22.26 M55.83 22.26 C55.61 21.39, 55.39 20.53, 55.16 19.6 M55.83 22.26 C55.66 21.59, 55.49 20.91, 55.16 19.6 M55.16 19.6 C54.95 19.03, 54.75 18.47, 54.24 17.04 M55.16 19.6 C54.81 18.64, 54.47 17.68, 54.24 17.04 M54.24 17.04 C53.46 15.59, 52.68 14.13, 51.71 12.31 M54.24 17.04 C53.67 15.98, 53.1 14.92, 51.71 12.31 M51.71 12.31 C50.65 11.01, 49.59 9.71, 48.34 8.18 M51.71 12.31 C50.68 11.06, 49.66 9.8, 48.34 8.18 M48.34 8.18 C46.83 6.93, 45.33 5.68, 44.24 4.77 M48.34 8.18 C47.03 7.1, 45.72 6.01, 44.24 4.77 M44.24 4.77 C43.42 4.27, 42.6 3.77, 41.94 3.38 M44.24 4.77 C43.63 4.41, 43.03 4.04, 41.94 3.38 M41.94 3.38 C41.41 3.12, 40.89 2.87, 39.5 2.2 M41.94 3.38 C41 2.92, 40.05 2.47, 39.5 2.2 M39.5 2.2 C38.77 1.93, 38.03 1.66, 36.92 1.26 M39.5 2.2 C38.76 1.93, 38.02 1.66, 36.92 1.26 M36.92 1.26 C35.88 0.99, 34.83 0.72, 34.23 0.57 M36.92 1.26 C36.18 1.07, 35.43 0.88, 34.23 0.57 M34.23 0.57 C33.65 0.48, 33.08 0.4, 31.42 0.14 M34.23 0.57 C33.48 0.46, 32.73 0.34, 31.42 0.14 M31.42 0.14 C30.44 0.1, 29.45 0.05, 28.52 0 M31.42 0.14 C30.43 0.09, 29.43 0.05, 28.52 0 M28.52 0 C28.51 0, 28.49 0, 28.47 0 M28.52 0 C28.51 0, 28.5 0, 28.47 0 M28.47 0 C28.34 0, 28.21 0, 28.11 0 M28.47 0 C28.35 0, 28.23 0, 28.11 0 M28.11 0 C27.79 0, 27.47 0, 27.12 0 M28.11 0 C27.81 0, 27.5 0, 27.12 0 M27.12 0 C26.93 0, 26.74 0, 26.3 0 M27.12 0 C26.86 0, 26.6 0, 26.3 0 M26.3 0 C25.97 0, 25.63 0, 25.21 0 M26.3 0 C25.97 0, 25.64 0, 25.21 0 M25.21 0 C24.91 0, 24.62 0, 23.8 0 M25.21 0 C24.73 0, 24.25 0, 23.8 0 M23.8 0 C23.36 0, 22.92 0, 22.05 0 M23.8 0 C23.23 0, 22.66 0, 22.05 0 M22.05 0 C21.55 0, 21.06 0, 19.9 0 M22.05 0 C21.27 0, 20.5 0, 19.9 0 M19.9 0 C19.31 0, 18.72 0, 17.33 0 M19.9 0 C19.34 0, 18.77 0, 17.33 0 M17.33 0 C16.51 0, 15.68 0, 14.29 0 M17.33 0 C16.3 0, 15.27 0, 14.29 0 M14.29 0 C13.25 0, 12.2 0, 10.75 0 M14.29 0 C13.28 0, 12.26 0, 10.75 0 M10.75 0 C9.81 0, 8.87 0, 6.66 0 M10.75 0 C9.35 0, 7.96 0, 6.66 0 M6.66 0 C4.95 0, 3.23 0, 1.99 0 M6.66 0 C4.91 0, 3.16 0, 1.99 0 M1.99 0 C1.53 0, 1.08 0, 0 0 M1.99 0 C1.54 0, 1.09 0, 0 0 M0 0 C0 0, 0 0, 0 0 M0 0 C0 0, 0 0, 0 0 M0 0 C0 0, 0 0, 0 0 M0 0 C0 0, 0 0, 0 0" stroke="#1e1e1e" stroke-width="1" fill="none"/></g></g><mask/><g stroke-linecap="round"><g transform="translate(275.57087661667737 129.2585236485869) rotate(336.9279228343267 23.879804191764578 23.879801866964257)" fill-rule="evenodd"><path d="M0 0 L0 0 L3.98 0 L7.58 0 L10.8 0 L13.64 0 L16.11 0 L18.19 0 L19.9 0 L21.23 0 L22.32 0 L23.14 0 L24.13 0 L24.5 0 L24.54 0 L29.44 0.48 L33.91 1.87 L37.86 4.07 L41.25 6.98 L44 10.51 L46.04 14.56 L47.32 19.05 L47.76 23.88 L47.29 28.71 L45.94 33.2 L43.79 37.25 L40.92 40.78 L37.41 43.69 L33.35 45.89 L28.81 47.28 L23.88 47.76 L0 47.76 L0 0 L0 0" stroke="none" stroke-width="0" fill="#FFFFFF" fill-rule="evenodd"/><path d="M0 0 C0 0, 0 0, 0 0 M0 0 C0 0, 0 0, 0 0 M0 0 C0.82 0, 1.65 0, 3.98 0 M0 0 C1.5 0, 2.99 0, 3.98 0 M3.98 0 C4.89 0, 5.8 0, 7.58 0 M3.98 0 C5.31 0, 6.65 0, 7.58 0 M7.58 0 C8.28 0, 8.99 0, 10.8 0 M7.58 0 C8.28 0, 8.98 0, 10.8 0 M10.8 0 C11.64 0, 12.48 0, 13.64 0 M10.8 0 C11.83 0, 12.86 0, 13.64 0 M13.64 0 C14.59 0, 15.53 0, 16.11 0 M13.64 0 C14.36 0, 15.08 0, 16.11 0 M16.11 0 C16.87 0, 17.63 0, 18.19 0 M16.11 0 C16.75 0, 17.38 0, 18.19 0 M18.19 0 C18.67 0, 19.15 0, 19.9 0 M18.19 0 C18.55 0, 18.9 0, 19.9 0 M19.9 0 C20.42 0, 20.95 0, 21.23 0 M19.9 0 C20.27 0, 20.63 0, 21.23 0 M21.23 0 C21.63 0, 22.04 0, 22.32 0 M21.23 0 C21.59 0, 21.96 0, 22.32 0 M22.32 0 C22.6 0, 22.88 0, 23.14 0 M22.32 0 C22.61 0, 22.9 0, 23.14 0 M23.14 0 C23.42 0, 23.7 0, 24.13 0 M23.14 0 C23.43 0, 23.72 0, 24.13 0 M24.13 0 C24.23 0, 24.34 0, 24.5 0 M24.13 0 C24.25 0, 24.36 0, 24.5 0 M24.5 0 C24.51 0, 24.53 0, 24.54 0 M24.5 0 C24.51 0, 24.52 0, 24.54 0 M24.54 0 C26.12 0.16, 27.69 0.31, 29.44 0.48 M24.54 0 C26.23 0.17, 27.92 0.33, 29.44 0.48 M29.44 0.48 C31.03 0.98, 32.62 1.47, 33.91 1.87 M29.44 0.48 C30.38 0.77, 31.31 1.06, 33.91 1.87 M33.91 1.87 C35.04 2.5, 36.17 3.13, 37.86 4.07 M33.91 1.87 C35.2 2.59, 36.49 3.31, 37.86 4.07 M37.86 4.07 C39.04 5.08, 40.22 6.09, 41.25 6.98 M37.86 4.07 C39.1 5.13, 40.33 6.19, 41.25 6.98 M41.25 6.98 C41.87 7.77, 42.49 8.57, 44 10.51 M41.25 6.98 C42.2 8.2, 43.15 9.42, 44 10.51 M44 10.51 C44.44 11.39, 44.89 12.27, 46.04 14.56 M44 10.51 C44.67 11.85, 45.35 13.19, 46.04 14.56 M46.04 14.56 C46.44 15.96, 46.84 17.36, 47.32 19.05 M46.04 14.56 C46.54 16.31, 47.03 18.05, 47.32 19.05 M47.32 19.05 C47.48 20.79, 47.64 22.53, 47.76 23.88 M47.32 19.05 C47.44 20.41, 47.57 21.77, 47.76 23.88 M47.76 23.88 C47.6 25.54, 47.44 27.19, 47.29 28.71 M47.76 23.88 C47.65 25.05, 47.53 26.21, 47.29 28.71 M47.29 28.71 C46.82 30.27, 46.35 31.84, 45.94 33.2 M47.29 28.71 C46.96 29.81, 46.63 30.91, 45.94 33.2 M45.94 33.2 C45.43 34.17, 44.91 35.14, 43.79 37.25 M45.94 33.2 C45.09 34.8, 44.24 36.41, 43.79 37.25 M43.79 37.25 C43.14 38.05, 42.49 38.85, 40.92 40.78 M43.79 37.25 C42.64 38.66, 41.5 40.07, 40.92 40.78 M40.92 40.78 C39.71 41.78, 38.51 42.78, 37.41 43.69 M40.92 40.78 C39.72 41.78, 38.51 42.78, 37.41 43.69 M37.41 43.69 C36.55 44.16, 35.69 44.63, 33.35 45.89 M37.41 43.69 C35.89 44.51, 34.38 45.33, 33.35 45.89 M33.35 45.89 C31.89 46.34, 30.42 46.78, 28.81 47.28 M33.35 45.89 C32.1 46.27, 30.85 46.65, 28.81 47.28 M28.81 47.28 C26.86 47.47, 24.9 47.66, 23.88 47.76 M28.81 47.28 C27.1 47.44, 25.38 47.61, 23.88 47.76 M23.88 47.76 C17.52 47.76, 11.15 47.76, 0 47.76 M23.88 47.76 C14.67 47.76, 5.45 47.76, 0 47.76 M0 47.76 C0 36.13, 0 24.49, 0 0 M0 47.76 C0 30.78, 0 13.81, 0 0 M0 0 C0 0, 0 0, 0 0 M0 0 C0 0, 0 0, 0 0 M0 0 C0 0, 0 0, 0 0 M0 0 C0 0, 0 0, 0 0" stroke="#1e1e1e" stroke-width="1" fill="none"/></g></g><mask/><g transform="translate(288.85704182847974 148.36023301272914) rotate(336.9279228343267 11.928993225097656 6.502729939670672)"><text x="0" y="10.404588784245487" font-family="Helvetica, Segoe UI Emoji" font-size="11.30909554725335px" fill="#1e1e1e" text-anchor="start" style="white-space: pre;" direction="ltr" dominant-baseline="alphabetic">AND</text></g><g stroke-linecap="round"><g transform="translate(326.12361910027903 39.65977319397189) rotate(0 29.205901472723994 24.102871621590396)" fill-rule="evenodd"><path d="M0 0 L2.41 2.94 L2.41 2.94 L2.49 3.04 L2.7 3.32 L3.48 4.45 L4.57 6.28 L5.82 8.75 L7.07 11.81 L8.16 15.43 L8.93 19.54 L9.23 24.1 L8.93 28.67 L8.16 32.78 L7.07 36.39 L5.82 39.46 L4.57 41.93 L3.48 43.75 L2.7 44.88 L2.49 45.17 L2.41 45.27 L0 48.21 L3.8 48.21 L20.68 48.21 L20.68 48.21 L21.92 48.2 L23.46 48.16 L25.26 48.06 L27.29 47.85 L29.52 47.51 L31.92 46.99 L34.46 46.27 L37.1 45.31 L39.81 44.06 L42.57 42.51 L45.35 40.61 L48.11 38.35 L50.83 35.68 L53.47 32.58 L56.01 29.02 L58.41 24.97 L56.83 24.1 L58.41 23.24 L58.41 23.24 L56 19.19 L53.46 15.64 L50.81 12.56 L48.08 9.91 L45.31 7.67 L42.53 5.79 L39.76 4.24 L37.04 3 L34.39 2.03 L31.86 1.29 L29.47 0.76 L27.24 0.4 L25.22 0.18 L23.43 0.06 L21.91 0.01 L20.68 0 L3.8 0 L0 0 L0 0" stroke="none" stroke-width="0" fill="black" fill-rule="evenodd"/><path d="M0 0 C0.64 0.78, 1.28 1.56, 2.41 2.94 M0 0 C0.5 0.61, 1.01 1.23, 2.41 2.94 M2.41 2.94 C2.41 2.94, 2.41 2.94, 2.41 2.94 M2.41 2.94 C2.41 2.94, 2.41 2.94, 2.41 2.94 M2.41 2.94 C2.43 2.96, 2.45 2.98, 2.49 3.04 M2.41 2.94 C2.43 2.96, 2.45 2.99, 2.49 3.04 M2.49 3.04 C2.56 3.13, 2.63 3.22, 2.7 3.32 M2.49 3.04 C2.56 3.13, 2.63 3.22, 2.7 3.32 M2.7 3.32 C2.92 3.65, 3.14 3.97, 3.48 4.45 M2.7 3.32 C2.89 3.6, 3.08 3.87, 3.48 4.45 M3.48 4.45 C3.74 4.89, 4 5.33, 4.57 6.28 M3.48 4.45 C3.9 5.16, 4.32 5.86, 4.57 6.28 M4.57 6.28 C4.93 7, 5.3 7.73, 5.82 8.75 M4.57 6.28 C4.9 6.93, 5.22 7.57, 5.82 8.75 M5.82 8.75 C6.21 9.7, 6.6 10.65, 7.07 11.81 M5.82 8.75 C6.28 9.88, 6.74 11.01, 7.07 11.81 M7.07 11.81 C7.5 13.22, 7.92 14.63, 8.16 15.43 M7.07 11.81 C7.48 13.15, 7.88 14.5, 8.16 15.43 M8.16 15.43 C8.34 16.38, 8.52 17.33, 8.93 19.54 M8.16 15.43 C8.46 16.99, 8.75 18.55, 8.93 19.54 M8.93 19.54 C9 20.53, 9.06 21.52, 9.23 24.1 M8.93 19.54 C9.03 21.06, 9.13 22.58, 9.23 24.1 M9.23 24.1 C9.12 25.8, 9.01 27.5, 8.93 28.67 M9.23 24.1 C9.15 25.33, 9.07 26.56, 8.93 28.67 M8.93 28.67 C8.74 29.68, 8.55 30.69, 8.16 32.78 M8.93 28.67 C8.69 29.95, 8.45 31.24, 8.16 32.78 M8.16 32.78 C7.86 33.78, 7.56 34.77, 7.07 36.39 M8.16 32.78 C7.79 34.02, 7.41 35.25, 7.07 36.39 M7.07 36.39 C6.74 37.21, 6.4 38.03, 5.82 39.46 M7.07 36.39 C6.6 37.55, 6.12 38.71, 5.82 39.46 M5.82 39.46 C5.37 40.34, 4.92 41.22, 4.57 41.93 M5.82 39.46 C5.5 40.09, 5.18 40.72, 4.57 41.93 M4.57 41.93 C4.24 42.47, 3.92 43.01, 3.48 43.75 M4.57 41.93 C4.13 42.66, 3.69 43.38, 3.48 43.75 M3.48 43.75 C3.32 43.99, 3.15 44.22, 2.7 44.88 M3.48 43.75 C3.23 44.11, 2.99 44.46, 2.7 44.88 M2.7 44.88 C2.64 44.96, 2.59 45.04, 2.49 45.17 M2.7 44.88 C2.63 44.98, 2.55 45.08, 2.49 45.17 M2.49 45.17 C2.46 45.2, 2.44 45.23, 2.41 45.27 M2.49 45.17 C2.46 45.21, 2.43 45.24, 2.41 45.27 M2.41 45.27 C1.55 46.32, 0.69 47.36, 0 48.21 M2.41 45.27 C1.46 46.43, 0.51 47.58, 0 48.21 M0 48.21 C0.91 48.21, 1.81 48.21, 3.8 48.21 M0 48.21 C1.38 48.21, 2.75 48.21, 3.8 48.21 M3.8 48.21 C7.79 48.21, 11.78 48.21, 20.68 48.21 M3.8 48.21 C7.42 48.21, 11.03 48.21, 20.68 48.21 M20.68 48.21 C20.68 48.21, 20.68 48.21, 20.68 48.21 M20.68 48.21 C20.68 48.21, 20.68 48.21, 20.68 48.21 M20.68 48.21 C20.95 48.2, 21.22 48.2, 21.92 48.2 M20.68 48.21 C21.03 48.2, 21.38 48.2, 21.92 48.2 M21.92 48.2 C22.46 48.19, 23.01 48.18, 23.46 48.16 M21.92 48.2 C22.5 48.19, 23.09 48.17, 23.46 48.16 M23.46 48.16 C24.07 48.13, 24.69 48.09, 25.26 48.06 M23.46 48.16 C24.14 48.13, 24.82 48.09, 25.26 48.06 M25.26 48.06 C25.99 47.99, 26.72 47.91, 27.29 47.85 M25.26 48.06 C26.06 47.98, 26.86 47.9, 27.29 47.85 M27.29 47.85 C27.86 47.77, 28.42 47.68, 29.52 47.51 M27.29 47.85 C27.91 47.76, 28.52 47.66, 29.52 47.51 M29.52 47.51 C30.27 47.35, 31.02 47.19, 31.92 46.99 M29.52 47.51 C30.2 47.36, 30.88 47.22, 31.92 46.99 M31.92 46.99 C32.78 46.75, 33.64 46.5, 34.46 46.27 M31.92 46.99 C32.58 46.81, 33.24 46.62, 34.46 46.27 M34.46 46.27 C35.03 46.06, 35.61 45.85, 37.1 45.31 M34.46 46.27 C35.29 45.97, 36.13 45.66, 37.1 45.31 M37.1 45.31 C38.18 44.81, 39.26 44.31, 39.81 44.06 M37.1 45.31 C37.67 45.05, 38.23 44.78, 39.81 44.06 M39.81 44.06 C40.51 43.67, 41.22 43.27, 42.57 42.51 M39.81 44.06 C40.4 43.73, 41 43.39, 42.57 42.51 M42.57 42.51 C43.57 41.82, 44.58 41.14, 45.35 40.61 M42.57 42.51 C43.43 41.92, 44.29 41.33, 45.35 40.61 M45.35 40.61 C46.09 40, 46.83 39.39, 48.11 38.35 M45.35 40.61 C46.04 40.05, 46.73 39.48, 48.11 38.35 M48.11 38.35 C49.12 37.35, 50.14 36.35, 50.83 35.68 M48.11 38.35 C49.05 37.42, 49.99 36.5, 50.83 35.68 M50.83 35.68 C51.58 34.79, 52.34 33.9, 53.47 32.58 M50.83 35.68 C51.73 34.61, 52.64 33.55, 53.47 32.58 M53.47 32.58 C54.26 31.47, 55.05 30.37, 56.01 29.02 M53.47 32.58 C53.98 31.86, 54.5 31.14, 56.01 29.02 M56.01 29.02 C56.5 28.18, 57 27.35, 58.41 24.97 M56.01 29.02 C56.9 27.51, 57.8 26, 58.41 24.97 M58.41 24.97 C57.99 24.74, 57.56 24.5, 56.83 24.1 M58.41 24.97 C57.83 24.65, 57.24 24.33, 56.83 24.1 M56.83 24.1 C57.3 23.85, 57.77 23.59, 58.41 23.24 M56.83 24.1 C57.24 23.88, 57.66 23.65, 58.41 23.24 M58.41 23.24 C58.41 23.24, 58.41 23.24, 58.41 23.24 M58.41 23.24 C58.41 23.24, 58.41 23.24, 58.41 23.24 M58.41 23.24 C57.68 22, 56.94 20.77, 56 19.19 M58.41 23.24 C57.72 22.07, 57.02 20.9, 56 19.19 M56 19.19 C55.11 17.94, 54.21 16.69, 53.46 15.64 M56 19.19 C55 17.79, 54 16.4, 53.46 15.64 M53.46 15.64 C52.54 14.58, 51.63 13.51, 50.81 12.56 M53.46 15.64 C52.44 14.46, 51.42 13.27, 50.81 12.56 M50.81 12.56 C50.03 11.8, 49.24 11.04, 48.08 9.91 M50.81 12.56 C49.9 11.68, 48.99 10.79, 48.08 9.91 M48.08 9.91 C47.49 9.44, 46.91 8.96, 45.31 7.67 M48.08 9.91 C47.45 9.4, 46.81 8.88, 45.31 7.67 M45.31 7.67 C44.57 7.17, 43.84 6.67, 42.53 5.79 M45.31 7.67 C44.33 7, 43.35 6.34, 42.53 5.79 M42.53 5.79 C41.78 5.37, 41.04 4.96, 39.76 4.24 M42.53 5.79 C41.54 5.24, 40.55 4.69, 39.76 4.24 M39.76 4.24 C38.67 3.75, 37.59 3.25, 37.04 3 M39.76 4.24 C39.09 3.94, 38.43 3.64, 37.04 3 M37.04 3 C36.11 2.66, 35.17 2.32, 34.39 2.03 M37.04 3 C36.38 2.76, 35.72 2.52, 34.39 2.03 M34.39 2.03 C33.83 1.86, 33.26 1.7, 31.86 1.29 M34.39 2.03 C33.87 1.88, 33.34 1.72, 31.86 1.29 M31.86 1.29 C31.2 1.15, 30.54 1, 29.47 0.76 M31.86 1.29 C31.28 1.16, 30.69 1.03, 29.47 0.76 M29.47 0.76 C29.01 0.69, 28.56 0.61, 27.24 0.4 M29.47 0.76 C28.71 0.64, 27.95 0.51, 27.24 0.4 M27.24 0.4 C26.59 0.33, 25.94 0.25, 25.22 0.18 M27.24 0.4 C26.78 0.35, 26.32 0.3, 25.22 0.18 M25.22 0.18 C24.82 0.15, 24.42 0.12, 23.43 0.06 M25.22 0.18 C24.6 0.13, 23.98 0.09, 23.43 0.06 M23.43 0.06 C22.9 0.04, 22.36 0.02, 21.91 0.01 M23.43 0.06 C22.92 0.04, 22.4 0.02, 21.91 0.01 M21.91 0.01 C21.55 0.01, 21.2 0, 20.68 0 M21.91 0.01 C21.63 0.01, 21.36 0, 20.68 0 M20.68 0 C15.66 0, 10.64 0, 3.8 0 M20.68 0 C16.13 0, 11.58 0, 3.8 0 M3.8 0 C2.94 0, 2.07 0, 0 0 M3.8 0 C2.37 0, 0.93 0, 0 0 M0 0 C0 0, 0 0, 0 0 M0 0 C0 0, 0 0, 0 0 M0 0 C0 0, 0 0, 0 0 M0 0 C0 0, 0 0, 0 0" stroke="#1e1e1e" stroke-width="1" fill="none"/></g></g><mask/><g stroke-linecap="round"><g transform="translate(333.2038376391212 43.27520393721045) rotate(0 23.650942778685575 20.487440878351833)" fill-rule="evenodd"><path d="M0 0 L13.6 0 L13.6 0 L14.78 0 L16.19 0.03 L19.6 0.3 L23.66 1.04 L25.88 1.66 L28.19 2.5 L30.57 3.58 L33 4.93 L35.45 6.59 L37.91 8.58 L40.34 10.93 L42.74 13.68 L45.06 16.86 L47.3 20.49 L45.1 24.07 L42.8 27.2 L40.44 29.92 L38.02 32.26 L35.59 34.24 L33.15 35.9 L30.74 37.25 L28.36 38.34 L25.99 39.21 L23.73 39.87 L19.64 40.65 L16.22 40.94 L13.6 40.97 L0.04 40.97 L0.04 40.97 L0.93 39.41 L1.88 37.54 L2.84 35.37 L3.75 32.92 L4.55 30.19 L5.19 27.2 L5.61 23.97 L5.76 20.49 L5.61 17 L5.18 13.76 L4.53 10.77 L3.73 8.04 L2.81 5.59 L1.85 3.43 L0.9 1.56 L0 0 L0 0" stroke="none" stroke-width="0" fill="#FFFFFF" fill-rule="evenodd"/><path d="M0 0 C4.23 0, 8.46 0, 13.6 0 M0 0 C4.59 0, 9.18 0, 13.6 0 M13.6 0 C13.6 0, 13.6 0, 13.6 0 M13.6 0 C13.6 0, 13.6 0, 13.6 0 M13.6 0 C13.95 0, 14.29 0, 14.78 0 M13.6 0 C13.85 0, 14.09 0, 14.78 0 M14.78 0 C15.09 0.01, 15.4 0.02, 16.19 0.03 M14.78 0 C15.19 0.01, 15.6 0.02, 16.19 0.03 M16.19 0.03 C17.26 0.12, 18.34 0.2, 19.6 0.3 M16.19 0.03 C17.07 0.1, 17.95 0.17, 19.6 0.3 M19.6 0.3 C20.76 0.51, 21.91 0.72, 23.66 1.04 M19.6 0.3 C21.03 0.56, 22.46 0.82, 23.66 1.04 M23.66 1.04 C24.5 1.27, 25.33 1.51, 25.88 1.66 M23.66 1.04 C24.37 1.24, 25.08 1.44, 25.88 1.66 M25.88 1.66 C26.46 1.87, 27.03 2.08, 28.19 2.5 M25.88 1.66 C26.8 2, 27.73 2.33, 28.19 2.5 M28.19 2.5 C29.03 2.88, 29.87 3.27, 30.57 3.58 M28.19 2.5 C29.12 2.92, 30.05 3.35, 30.57 3.58 M30.57 3.58 C31.52 4.11, 32.48 4.64, 33 4.93 M30.57 3.58 C31.16 3.91, 31.74 4.23, 33 4.93 M33 4.93 C33.74 5.43, 34.48 5.93, 35.45 6.59 M33 4.93 C33.77 5.46, 34.55 5.98, 35.45 6.59 M35.45 6.59 C36.23 7.22, 37.01 7.85, 37.91 8.58 M35.45 6.59 C36.4 7.35, 37.34 8.12, 37.91 8.58 M37.91 8.58 C38.75 9.4, 39.6 10.22, 40.34 10.93 M37.91 8.58 C38.62 9.26, 39.33 9.95, 40.34 10.93 M40.34 10.93 C40.94 11.61, 41.53 12.29, 42.74 13.68 M40.34 10.93 C41.16 11.87, 41.97 12.8, 42.74 13.68 M42.74 13.68 C43.64 14.91, 44.55 16.15, 45.06 16.86 M42.74 13.68 C43.59 14.84, 44.44 16, 45.06 16.86 M45.06 16.86 C45.8 18.06, 46.55 19.26, 47.3 20.49 M45.06 16.86 C45.78 18.01, 46.49 19.17, 47.3 20.49 M47.3 20.49 C46.43 21.91, 45.55 23.33, 45.1 24.07 M47.3 20.49 C46.55 21.7, 45.81 22.91, 45.1 24.07 M45.1 24.07 C44.31 25.13, 43.53 26.2, 42.8 27.2 M45.1 24.07 C44.33 25.12, 43.56 26.17, 42.8 27.2 M42.8 27.2 C42.04 28.07, 41.29 28.94, 40.44 29.92 M42.8 27.2 C42.18 27.92, 41.56 28.63, 40.44 29.92 M40.44 29.92 C39.54 30.79, 38.65 31.65, 38.02 32.26 M40.44 29.92 C39.71 30.63, 38.98 31.33, 38.02 32.26 M38.02 32.26 C37.11 33, 36.2 33.75, 35.59 34.24 M38.02 32.26 C37.2 32.93, 36.38 33.6, 35.59 34.24 M35.59 34.24 C34.77 34.8, 33.94 35.36, 33.15 35.9 M35.59 34.24 C34.77 34.8, 33.95 35.36, 33.15 35.9 M33.15 35.9 C32.29 36.38, 31.43 36.86, 30.74 37.25 M33.15 35.9 C32.62 36.2, 32.08 36.5, 30.74 37.25 M30.74 37.25 C30.05 37.56, 29.37 37.88, 28.36 38.34 M30.74 37.25 C30.12 37.53, 29.51 37.81, 28.36 38.34 M28.36 38.34 C27.58 38.63, 26.8 38.91, 25.99 39.21 M28.36 38.34 C27.6 38.62, 26.84 38.9, 25.99 39.21 M25.99 39.21 C25.35 39.4, 24.71 39.58, 23.73 39.87 M25.99 39.21 C25.35 39.4, 24.72 39.58, 23.73 39.87 M23.73 39.87 C22.37 40.13, 21.01 40.39, 19.64 40.65 M23.73 39.87 C22.55 40.09, 21.38 40.32, 19.64 40.65 M19.64 40.65 C18.57 40.74, 17.49 40.83, 16.22 40.94 M19.64 40.65 C18.5 40.74, 17.36 40.84, 16.22 40.94 M16.22 40.94 C15.48 40.95, 14.74 40.96, 13.6 40.97 M16.22 40.94 C15.33 40.95, 14.45 40.96, 13.6 40.97 M13.6 40.97 C8.28 40.97, 2.97 40.97, 0.04 40.97 M13.6 40.97 C9.1 40.97, 4.6 40.97, 0.04 40.97 M0.04 40.97 C0.04 40.97, 0.04 40.97, 0.04 40.97 M0.04 40.97 C0.04 40.97, 0.04 40.97, 0.04 40.97 M0.04 40.97 C0.26 40.58, 0.49 40.18, 0.93 39.41 M0.04 40.97 C0.31 40.5, 0.58 40.03, 0.93 39.41 M0.93 39.41 C1.15 38.97, 1.38 38.54, 1.88 37.54 M0.93 39.41 C1.19 38.9, 1.45 38.39, 1.88 37.54 M1.88 37.54 C2.13 36.98, 2.38 36.43, 2.84 35.37 M1.88 37.54 C2.14 36.95, 2.4 36.36, 2.84 35.37 M2.84 35.37 C3.14 34.57, 3.44 33.76, 3.75 32.92 M2.84 35.37 C3.05 34.8, 3.26 34.23, 3.75 32.92 M3.75 32.92 C3.97 32.14, 4.2 31.37, 4.55 30.19 M3.75 32.92 C4.04 31.92, 4.33 30.93, 4.55 30.19 M4.55 30.19 C4.77 29.13, 5 28.06, 5.19 27.2 M4.55 30.19 C4.69 29.51, 4.84 28.83, 5.19 27.2 M5.19 27.2 C5.29 26.41, 5.39 25.62, 5.61 23.97 M5.19 27.2 C5.32 26.19, 5.45 25.17, 5.61 23.97 M5.61 23.97 C5.65 22.94, 5.7 21.92, 5.76 20.49 M5.61 23.97 C5.66 22.84, 5.71 21.72, 5.76 20.49 M5.76 20.49 C5.71 19.22, 5.65 17.95, 5.61 17 M5.76 20.49 C5.71 19.28, 5.66 18.08, 5.61 17 M5.61 17 C5.44 15.71, 5.27 14.42, 5.18 13.76 M5.61 17 C5.46 15.91, 5.32 14.82, 5.18 13.76 M5.18 13.76 C4.99 12.87, 4.8 11.98, 4.53 10.77 M5.18 13.76 C4.99 12.88, 4.8 12.01, 4.53 10.77 M4.53 10.77 C4.3 9.97, 4.06 9.17, 3.73 8.04 M4.53 10.77 C4.26 9.85, 3.99 8.93, 3.73 8.04 M3.73 8.04 C3.53 7.5, 3.33 6.96, 2.81 5.59 M3.73 8.04 C3.46 7.33, 3.2 6.62, 2.81 5.59 M2.81 5.59 C2.54 4.98, 2.27 4.37, 1.85 3.43 M2.81 5.59 C2.48 4.83, 2.14 4.08, 1.85 3.43 M1.85 3.43 C1.53 2.81, 1.22 2.19, 0.9 1.56 M1.85 3.43 C1.59 2.92, 1.33 2.41, 0.9 1.56 M0.9 1.56 C0.68 1.19, 0.47 0.82, 0 0 M0.9 1.56 C0.68 1.18, 0.46 0.79, 0 0 M0 0 C0 0, 0 0, 0 0 M0 0 C0 0, 0 0, 0 0 M0 0 C0 0, 0 0, 0 0 M0 0 C0 0, 0 0, 0 0" stroke="#1e1e1e" stroke-width="1" fill="none"/></g></g><mask/><g stroke-linecap="round" transform="translate(381.8266288572161 62.81770748764387) rotate(0 1.2263119359147936 0.9268630146887631)"><path d="M2.45 0.93 C2.45 0.98, 2.45 1.03, 2.43 1.09 C2.42 1.14, 2.4 1.19, 2.38 1.24 C2.35 1.29, 2.32 1.34, 2.29 1.39 C2.25 1.44, 2.21 1.48, 2.17 1.52 C2.12 1.56, 2.07 1.6, 2.01 1.64 C1.96 1.67, 1.9 1.7, 1.84 1.73 C1.78 1.76, 1.71 1.78, 1.65 1.8 C1.58 1.82, 1.51 1.83, 1.44 1.84 C1.37 1.85, 1.3 1.85, 1.23 1.85 C1.16 1.85, 1.08 1.85, 1.01 1.84 C0.94 1.83, 0.87 1.82, 0.81 1.8 C0.74 1.78, 0.67 1.76, 0.61 1.73 C0.55 1.7, 0.49 1.67, 0.44 1.64 C0.38 1.6, 0.33 1.56, 0.29 1.52 C0.24 1.48, 0.2 1.44, 0.16 1.39 C0.13 1.34, 0.1 1.29, 0.07 1.24 C0.05 1.19, 0.03 1.14, 0.02 1.09 C0.01 1.03, 0 0.98, 0 0.93 C0 0.87, 0.01 0.82, 0.02 0.77 C0.03 0.71, 0.05 0.66, 0.07 0.61 C0.1 0.56, 0.13 0.51, 0.16 0.46 C0.2 0.42, 0.24 0.37, 0.29 0.33 C0.33 0.29, 0.38 0.25, 0.44 0.22 C0.49 0.18, 0.55 0.15, 0.61 0.12 C0.67 0.1, 0.74 0.07, 0.81 0.06 C0.87 0.04, 0.94 0.02, 1.01 0.01 C1.08 0, 1.16 0, 1.23 0 C1.3 0, 1.37 0, 1.44 0.01 C1.51 0.02, 1.58 0.04, 1.65 0.06 C1.71 0.07, 1.78 0.1, 1.84 0.12 C1.9 0.15, 1.96 0.18, 2.01 0.22 C2.07 0.25, 2.12 0.29, 2.17 0.33 C2.21 0.37, 2.25 0.42, 2.29 0.46 C2.32 0.51, 2.35 0.56, 2.38 0.61 C2.4 0.66, 2.42 0.71, 2.43 0.77 C2.45 0.82, 2.45 0.9, 2.45 0.93 C2.46 0.95, 2.46 0.9, 2.45 0.93" stroke="none" stroke-width="0" fill="black"/><path d="M2.45 0.93 C2.45 0.98, 2.45 1.03, 2.43 1.09 C2.42 1.14, 2.4 1.19, 2.38 1.24 C2.35 1.29, 2.32 1.34, 2.29 1.39 C2.25 1.44, 2.21 1.48, 2.17 1.52 C2.12 1.56, 2.07 1.6, 2.01 1.64 C1.96 1.67, 1.9 1.7, 1.84 1.73 C1.78 1.76, 1.71 1.78, 1.65 1.8 C1.58 1.82, 1.51 1.83, 1.44 1.84 C1.37 1.85, 1.3 1.85, 1.23 1.85 C1.16 1.85, 1.08 1.85, 1.01 1.84 C0.94 1.83, 0.87 1.82, 0.81 1.8 C0.74 1.78, 0.67 1.76, 0.61 1.73 C0.55 1.7, 0.49 1.67, 0.44 1.64 C0.38 1.6, 0.33 1.56, 0.29 1.52 C0.24 1.48, 0.2 1.44, 0.16 1.39 C0.13 1.34, 0.1 1.29, 0.07 1.24 C0.05 1.19, 0.03 1.14, 0.02 1.09 C0.01 1.03, 0 0.98, 0 0.93 C0 0.87, 0.01 0.82, 0.02 0.77 C0.03 0.71, 0.05 0.66, 0.07 0.61 C0.1 0.56, 0.13 0.51, 0.16 0.46 C0.2 0.42, 0.24 0.37, 0.29 0.33 C0.33 0.29, 0.38 0.25, 0.44 0.22 C0.49 0.18, 0.55 0.15, 0.61 0.12 C0.67 0.1, 0.74 0.07, 0.81 0.06 C0.87 0.04, 0.94 0.02, 1.01 0.01 C1.08 0, 1.16 0, 1.23 0 C1.3 0, 1.37 0, 1.44 0.01 C1.51 0.02, 1.58 0.04, 1.65 0.06 C1.71 0.07, 1.78 0.1, 1.84 0.12 C1.9 0.15, 1.96 0.18, 2.01 0.22 C2.07 0.25, 2.12 0.29, 2.17 0.33 C2.21 0.37, 2.25 0.42, 2.29 0.46 C2.32 0.51, 2.35 0.56, 2.38 0.61 C2.4 0.66, 2.42 0.71, 2.43 0.77 C2.45 0.82, 2.45 0.9, 2.45 0.93 C2.46 0.95, 2.46 0.9, 2.45 0.93" stroke="#1e1e1e" stroke-width="2" fill="none"/></g><g transform="translate(345.8019138340442 58.780301585971586) rotate(0 8.474990844726562 6.502729939670672)"><text x="0" y="10.404588784245487" font-family="Helvetica, Segoe UI Emoji" font-size="11.30909554725335px" fill="#1e1e1e" text-anchor="start" style="white-space: pre;" direction="ltr" dominant-baseline="alphabetic">OR</text></g></svg>