<svg version="1.1" xmlns="http://www.w3.org/2000/svg" viewBox="0 0 724.7916870117188 239.80641879007982" width="724.7916870117188" height="239.80641879007982" class="excalidraw-svg">
  <!-- svg-source:excalidraw -->
  
  <defs>
    <style class="style-fonts">
      
    </style>
    
  </defs>
  <g stroke-linecap="round"><g transform="translate(168.2464796753461 69.579472531914) rotate(301.78936275712533 84.03280953652705 116.57755243198415)"><path d="M0 0 C7.14 4.12, 22.38 24.28, 42.82 24.73 C63.26 25.17, 114.56 -2.45, 122.67 2.67 C130.77 7.79, 95.72 38.69, 91.43 55.45 C87.15 72.22, 90.03 86.43, 96.97 103.27 C103.92 120.11, 122.05 147.71, 133.11 156.49 C144.17 165.26, 162.18 151.14, 163.31 155.91 C164.45 160.68, 139.1 179.63, 139.89 185.1 C140.68 190.57, 167.2 180.74, 168.07 188.75 C168.94 196.76, 148.94 225.75, 145.11 233.16 M0 0 C7.14 4.12, 22.38 24.28, 42.82 24.73 C63.26 25.17, 114.56 -2.45, 122.67 2.67 C130.77 7.79, 95.72 38.69, 91.43 55.45 C87.15 72.22, 90.03 86.43, 96.97 103.27 C103.92 120.11, 122.05 147.71, 133.11 156.49 C144.17 165.26, 162.18 151.14, 163.31 155.91 C164.45 160.68, 139.1 179.63, 139.89 185.1 C140.68 190.57, 167.2 180.74, 168.07 188.75 C168.94 196.76, 148.94 225.75, 145.11 233.16" stroke="#2f9e44" stroke-width="2" fill="none"></path></g></g><mask></mask><g stroke-linecap="round"><g transform="translate(10 195.6157771044995) rotate(0 352.3958435058594 0)"><path d="M0 0 C117.47 0, 587.33 0, 704.79 0" stroke="#1e1e1e" stroke-width="1" fill="none" stroke-dasharray="1.5 6.5"></path></g></g><mask></mask><g transform="translate(217.1165913183238 10) rotate(0 30.029296875 11.5)"><text x="0" y="16.900390625" font-family="Helvetica, Segoe UI Emoji" font-size="20px" fill="#2f9e44" text-anchor="start" style="white-space: pre;" direction="ltr" dominant-baseline="alphabetic">analog</text></g><g stroke-linecap="round"><g transform="translate(454.30285440903117 194.67715386249725) rotate(0 0 -57.781374594100214)"><path d="M0 0 C0 -19.26, 0 -96.3, 0 -115.56 M0 0 C0 -19.26, 0 -96.3, 0 -115.56" stroke="#2f9e44" stroke-width="2" fill="none"></path></g></g><mask></mask><g stroke-linecap="round"><g transform="translate(454.3028545408748 79.11440495009322) rotate(0 9.738433920353941 0)"><path d="M0 0 C3.25 0, 16.23 0, 19.48 0 M0 0 C3.25 0, 16.23 0, 19.48 0" stroke="#2f9e44" stroke-width="2" fill="none"></path></g></g><mask></mask><g stroke-linecap="round"><g transform="translate(473.7797229739426 194.67715466957694) rotate(0 0 -57.781374594100214)"><path d="M0 0 C0 -19.26, 0 -96.3, 0 -115.56 M0 0 C0 -19.26, 0 -96.3, 0 -115.56" stroke="#2f9e44" stroke-width="2" fill="none"></path></g></g><mask></mask><g stroke-linecap="round"><g transform="translate(493.25659043699534 194.45680894230242) rotate(0 0 -57.781374594100214)"><path d="M0 0 C0 -19.26, 0 -96.3, 0 -115.56 M0 0 C0 -19.26, 0 -96.3, 0 -115.56" stroke="#2f9e44" stroke-width="2" fill="none"></path></g></g><mask></mask><g stroke-linecap="round"><g transform="translate(493.2565908159195 78.89406002989836) rotate(0 24.607725581289486 0)"><path d="M0 0 C8.2 0, 41.01 0, 49.22 0 M0 0 C8.2 0, 41.01 0, 49.22 0" stroke="#2f9e44" stroke-width="2" fill="none"></path></g></g><mask></mask><g stroke-linecap="round"><g transform="translate(542.9181290683533 194.4568097493821) rotate(0 0 -57.781374594100214)"><path d="M0 0 C0 -19.26, 0 -96.3, 0 -115.56 M0 0 C0 -19.26, 0 -96.3, 0 -115.56" stroke="#2f9e44" stroke-width="2" fill="none"></path></g></g><mask></mask><g stroke-linecap="round"><g transform="translate(581.9574067427104 194.45680875386097) rotate(0 0 -57.781374594100214)"><path d="M0 0 C0 -19.26, 0 -96.3, 0 -115.56 M0 0 C0 -19.26, 0 -96.3, 0 -115.56" stroke="#2f9e44" stroke-width="2" fill="none"></path></g></g><mask></mask><g stroke-linecap="round"><g transform="translate(581.9574069505791 78.89405984145696) rotate(0 15.353896440469722 0)"><path d="M0 0 C5.12 0, 25.59 0, 30.71 0 M0 0 C5.12 0, 25.59 0, 30.71 0" stroke="#2f9e44" stroke-width="2" fill="none"></path></g></g><mask></mask><g stroke-linecap="round"><g transform="translate(612.6652007654502 194.45680956094066) rotate(0 0 -57.781374594100214)"><path d="M0 0 C0 -19.26, 0 -96.3, 0 -115.56 M0 0 C0 -19.26, 0 -96.3, 0 -115.56" stroke="#2f9e44" stroke-width="2" fill="none"></path></g></g><mask></mask><g stroke-linecap="round"><g transform="translate(473.779722487202 195.6157771047884) rotate(0 9.738433920353941 0)"><path d="M0 0 C3.25 0, 16.23 0, 19.48 0 M0 0 C3.25 0, 16.23 0, 19.48 0" stroke="#2f9e44" stroke-width="2" fill="none"></path></g></g><mask></mask><g stroke-linecap="round"><g transform="translate(542.9337306238134 195.61577716465797) rotate(0 19.739002345154283 0)"><path d="M0 0 C6.58 0, 32.9 0, 39.48 0 M0 0 C6.58 0, 32.9 0, 39.48 0" stroke="#2f9e44" stroke-width="2" fill="none"></path></g></g><mask></mask><g stroke-linecap="round"><g transform="translate(383.5133311743996 195.615776835767) rotate(0 35.35589055117475 0)"><path d="M0 0 C11.79 0, 58.93 0, 70.71 0 M0 0 C11.79 0, 58.93 0, 70.71 0" stroke="#2f9e44" stroke-width="2" fill="none"></path></g></g><mask></mask><g stroke-linecap="round"><g transform="translate(38.21437109428962 196.1802620604439) rotate(0 35.35589055117475 0)"><path d="M0 0 C11.79 0, 58.93 0, 70.71 0 M0 0 C11.79 0, 58.93 0, 70.71 0" stroke="#2f9e44" stroke-width="2" fill="none"></path></g></g><mask></mask><g stroke-linecap="round"><g transform="translate(612.6652006500431 195.61577713804854) rotate(0 35.35589055117475 0)"><path d="M0 0 C11.79 0, 58.93 0, 70.71 0 M0 0 C11.79 0, 58.93 0, 70.71 0" stroke="#2f9e44" stroke-width="2" fill="none"></path></g></g><mask></mask><g transform="translate(495.49619064818546 10.000000513056591) rotate(0 26.1279296875 11.5)"><text x="0" y="16.900390625" font-family="Helvetica, Segoe UI Emoji" font-size="20px" fill="#2f9e44" text-anchor="start" style="white-space: pre;" direction="ltr" dominant-baseline="alphabetic">digital</text></g><g transform="translate(16.42901611328125 206.80641879007982) rotate(0 3 11.5)"><text x="0" y="16.900390625" font-family="Helvetica, Segoe UI Emoji" font-size="20px" fill="#1e1e1e" text-anchor="start" style="white-space: pre;" direction="ltr" dominant-baseline="alphabetic">t</text></g><g stroke-linecap="round"><g transform="translate(14.125015258789062 204.4731363193767) rotate(0 8.833335876464844 0)"><path d="M0 0 C2.94 0, 14.72 0, 17.67 0 M0 0 C2.94 0, 14.72 0, 17.67 0" stroke="#1e1e1e" stroke-width="0.5" fill="none"></path></g><g transform="translate(14.125015258789062 204.4731363193767) rotate(0 8.833335876464844 0)"><path d="M17.67 0 L9.66 3.73 L9.66 -3.73 L17.67 0" stroke="none" stroke-width="0" fill="#1e1e1e" fill-rule="evenodd"></path><path d="M17.67 0 C14.55 1.45, 11.44 2.9, 9.66 3.73 M17.67 0 C14.5 1.48, 11.32 2.96, 9.66 3.73 M9.66 3.73 C9.66 0.82, 9.66 -2.09, 9.66 -3.73 M9.66 3.73 C9.66 1.28, 9.66 -1.18, 9.66 -3.73 M9.66 -3.73 C12.44 -2.44, 15.23 -1.14, 17.67 0 M9.66 -3.73 C11.87 -2.7, 14.07 -1.68, 17.67 0 M17.67 0 C17.67 0, 17.67 0, 17.67 0 M17.67 0 C17.67 0, 17.67 0, 17.67 0" stroke="#1e1e1e" stroke-width="0.5" fill="none"></path></g></g><mask></mask><g transform="translate(242.94846866005355 105.17858470694557) rotate(0 30.5126953125 11.5)"><text x="0" y="16.900390625" font-family="Helvetica, Segoe UI Emoji" font-size="20px" fill="#e03131" text-anchor="start" style="white-space: pre;" direction="ltr" dominant-baseline="alphabetic">≈ 371?</text></g><g stroke-linecap="round"><g transform="translate(268.79273983210214 135.67986687596107) rotate(0 0.7620749402915123 13.170395485187925)"><path d="M0 0 C0.25 4.39, 1.27 21.95, 1.52 26.34 M0 0 C0.25 4.39, 1.27 21.95, 1.52 26.34" stroke="#e03131" stroke-width="0.5" fill="none"></path></g><g transform="translate(268.79273983210214 135.67986687596107) rotate(0 0.7620749402915123 13.170395485187925)"><path d="M1.52 26.34 L-4.73 14.73 L6.4 14.08 L1.52 26.34" stroke="none" stroke-width="0" fill="#e03131" fill-rule="evenodd"></path><path d="M1.52 26.34 C-0.02 23.48, -1.56 20.62, -4.73 14.73 M1.52 26.34 C-0.04 23.43, -1.61 20.52, -4.73 14.73 M-4.73 14.73 C-1.42 14.53, 1.9 14.34, 6.4 14.08 M-4.73 14.73 C-2.25 14.58, 0.23 14.44, 6.4 14.08 M6.4 14.08 C5.04 17.49, 3.69 20.9, 1.52 26.34 M6.4 14.08 C4.85 17.97, 3.3 21.87, 1.52 26.34 M1.52 26.34 C1.52 26.34, 1.52 26.34, 1.52 26.34 M1.52 26.34 C1.52 26.34, 1.52 26.34, 1.52 26.34" stroke="#e03131" stroke-width="0.5" fill="none"></path></g></g><mask></mask><g transform="translate(457.8920272024054 55.46804554164942) rotate(0 5.5615234375 11.5)"><text x="0" y="16.900390625" font-family="Helvetica, Segoe UI Emoji" font-size="20px" fill="#e03131" text-anchor="start" style="white-space: pre;" direction="ltr" dominant-baseline="alphabetic">1</text></g><g transform="translate(477.95663252210124 55.46804554164942) rotate(0 5.5615234375 11.5)"><text x="0" y="16.900390625" font-family="Helvetica, Segoe UI Emoji" font-size="20px" fill="#e03131" text-anchor="start" style="white-space: pre;" direction="ltr" dominant-baseline="alphabetic">0</text></g><g transform="translate(492.9762878417969 55.46804554164942) rotate(0 5.5615234375 11.5)"><text x="0" y="16.900390625" font-family="Helvetica, Segoe UI Emoji" font-size="20px" fill="#e03131" text-anchor="start" style="white-space: pre;" direction="ltr" dominant-baseline="alphabetic">1</text></g><g transform="translate(510.5184181614927 55.46804554164942) rotate(0 5.5615234375 11.5)"><text x="0" y="16.900390625" font-family="Helvetica, Segoe UI Emoji" font-size="20px" fill="#e03131" text-anchor="start" style="white-space: pre;" direction="ltr" dominant-baseline="alphabetic">1</text></g><g transform="translate(528.0605484811883 55.46804554164942) rotate(0 5.5615234375 11.5)"><text x="0" y="16.900390625" font-family="Helvetica, Segoe UI Emoji" font-size="20px" fill="#e03131" text-anchor="start" style="white-space: pre;" direction="ltr" dominant-baseline="alphabetic">1</text></g><g transform="translate(545.6026788008842 55.46804554164942) rotate(0 5.5615234375 11.5)"><text x="0" y="16.900390625" font-family="Helvetica, Segoe UI Emoji" font-size="20px" fill="#e03131" text-anchor="start" style="white-space: pre;" direction="ltr" dominant-baseline="alphabetic">0</text></g><g transform="translate(563.1448091205798 55.46804554164942) rotate(0 5.5615234375 11.5)"><text x="0" y="16.900390625" font-family="Helvetica, Segoe UI Emoji" font-size="20px" fill="#e03131" text-anchor="start" style="white-space: pre;" direction="ltr" dominant-baseline="alphabetic">0</text></g><g transform="translate(580.6869394402756 55.46804554164942) rotate(0 5.5615234375 11.5)"><text x="0" y="16.900390625" font-family="Helvetica, Segoe UI Emoji" font-size="20px" fill="#e03131" text-anchor="start" style="white-space: pre;" direction="ltr" dominant-baseline="alphabetic">1</text></g><g transform="translate(598.2290697599713 55.46804554164942) rotate(0 5.5615234375 11.5)"><text x="0" y="16.900390625" font-family="Helvetica, Segoe UI Emoji" font-size="20px" fill="#e03131" text-anchor="start" style="white-space: pre;" direction="ltr" dominant-baseline="alphabetic">1</text></g><g transform="translate(625.9956977811668 54.65519982909643) rotate(0 25.302734375 11.5)"><text x="0" y="16.900390625" font-family="Helvetica, Segoe UI Emoji" font-size="20px" fill="#e03131" text-anchor="start" style="white-space: pre;" direction="ltr" dominant-baseline="alphabetic">= 371</text></g></svg>