<svg version="1.1" xmlns="http://www.w3.org/2000/svg" viewBox="0 0 537.8970435055664 350.77623541918905" width="537.8970435055664" height="350.77623541918905" filter="invert(93%) hue-rotate(180deg)" class="excalidraw-svg">
  <!-- svg-source:excalidraw -->
  
  <defs>
    <style class="style-fonts">
      
    </style>
    
  </defs>
  <g stroke-linecap="round"><g transform="translate(191.63735292463176 185.3023984847435) rotate(355.9329682052455 27.073455107878477 -6.30682903113744)"><path d="M0 0 C9.02 -2.1, 45.12 -10.51, 54.15 -12.61 M0 0 C9.02 -2.1, 45.12 -10.51, 54.15 -12.61" stroke="#1971c2" stroke-width="1" fill="none"></path></g></g><mask></mask><g stroke-linecap="round"><g transform="translate(192.2809134610301 185.30093502263415) rotate(355.9329682052455 26.6255879097125 3.115454408604588)"><path d="M0 0 C8.88 1.04, 44.38 5.19, 53.25 6.23 M0 0 C8.88 1.04, 44.38 5.19, 53.25 6.23" stroke="#1971c2" stroke-width="1" fill="none"></path></g></g><mask></mask><g stroke-linecap="round"><g transform="translate(192.32126339333487 214.17263553010133) rotate(7.044651099499113 26.390235896891607 -3.8499812562691638)"><path d="M0 0 C8.8 -1.28, 43.98 -6.42, 52.78 -7.7 M0 0 C8.8 -1.28, 43.98 -6.42, 52.78 -7.7" stroke="#1971c2" stroke-width="1" fill="none"></path></g></g><mask></mask><g stroke-linecap="round"><g transform="translate(191.16388335479962 214.23774468195342) rotate(7.044651099499113 27.602206965132105 5.3206926172446245)"><path d="M0 0 C9.2 1.77, 46 8.87, 55.2 10.64 M0 0 C9.2 1.77, 46 8.87, 55.2 10.64" stroke="#1971c2" stroke-width="1" fill="none"></path></g></g><mask></mask><g stroke-linecap="round"><g transform="translate(260.7644368249358 158.97464776122845) rotate(345.2929874413587 29.380953872784573 -6.457178113029464)"><path d="M0 0 C9.79 -2.15, 48.97 -10.76, 58.76 -12.91 M0 0 C9.79 -2.15, 48.97 -10.76, 58.76 -12.91" stroke="#1971c2" stroke-width="1" fill="none"></path></g></g><mask></mask><g stroke-linecap="round"><g transform="translate(263.2578378994664 159.35597089206243) rotate(345.2929874413587 26.625587909712493 3.1154544086045846)"><path d="M0 0 C8.88 1.04, 44.38 5.19, 53.25 6.23 M0 0 C8.88 1.04, 44.38 5.19, 53.25 6.23" stroke="#1971c2" stroke-width="1" fill="none"></path></g></g><mask></mask><g stroke-linecap="round"><g transform="translate(263.3644085200076 192.95590077535243) rotate(7.044651099499113 26.125046930692136 -8.778362692336643)"><path d="M0 0 C8.71 -2.93, 43.54 -14.63, 52.25 -17.56 M0 0 C8.71 -2.93, 43.54 -14.63, 52.25 -17.56" stroke="#1971c2" stroke-width="1" fill="none"></path></g></g><mask></mask><g stroke-linecap="round"><g transform="translate(261.34480551480726 194.17057539139665) rotate(7.044651099499113 27.9067484435607 -0.5622570367485125)"><path d="M0 0 C9.3 -0.19, 46.51 -0.94, 55.81 -1.12 M0 0 C9.3 -0.19, 46.51 -0.94, 55.81 -1.12" stroke="#1971c2" stroke-width="1" fill="none"></path></g></g><mask></mask><g stroke-linecap="round"><g transform="translate(263.2503533618654 207.6170305508247) rotate(355.9329682052455 26.420656263513408 4.936319089964213)"><path d="M0 0 C8.81 1.65, 44.03 8.23, 52.84 9.87 M0 0 C8.81 1.65, 44.03 8.23, 52.84 9.87" stroke="#1971c2" stroke-width="1" fill="none"></path></g></g><mask></mask><g stroke-linecap="round"><g transform="translate(261.92262789129643 210.18150820497289) rotate(355.9329682052455 26.969086609408123 12.718903354257463)"><path d="M0 0 C8.99 4.24, 44.95 21.2, 53.94 25.44 M0 0 C8.99 4.24, 44.95 21.2, 53.94 25.44" stroke="#1971c2" stroke-width="1" fill="none"></path></g></g><mask></mask><g stroke-linecap="round"><g transform="translate(261.42942290020164 235.12979912333932) rotate(7.044651099499113 28.144776012398296 8.360636381993453)"><path d="M0 0 C9.38 2.79, 46.91 13.93, 56.29 16.72 M0 0 C9.38 2.79, 46.91 13.93, 56.29 16.72" stroke="#1971c2" stroke-width="1" fill="none"></path></g></g><mask></mask><g stroke-linecap="round"><g transform="translate(259.9959296116011 235.8269050057184) rotate(7.044651099499113 29.77911328644693 18.16680343622376)"><path d="M0 0 C9.93 6.06, 49.63 30.28, 59.56 36.33 M0 0 C9.93 6.06, 49.63 30.28, 59.56 36.33" stroke="#1971c2" stroke-width="1" fill="none"></path></g></g><mask></mask><g stroke-linecap="round" transform="translate(316.4255055430681 148.20343187638576) rotate(355.9329682052455 8.281992234833638 8.28199223483363)"><path d="M16.56 8.28 C16.56 8.76, 16.52 9.25, 16.44 9.72 C16.35 10.19, 16.23 10.66, 16.06 11.11 C15.9 11.57, 15.69 12.01, 15.45 12.42 C15.21 12.84, 14.93 13.24, 14.63 13.61 C14.32 13.97, 13.97 14.32, 13.61 14.63 C13.24 14.93, 12.84 15.21, 12.42 15.45 C12.01 15.69, 11.57 15.9, 11.11 16.06 C10.66 16.23, 10.19 16.35, 9.72 16.44 C9.25 16.52, 8.76 16.56, 8.28 16.56 C7.8 16.56, 7.32 16.52, 6.84 16.44 C6.37 16.35, 5.9 16.23, 5.45 16.06 C5 15.9, 4.56 15.69, 4.14 15.45 C3.73 15.21, 3.33 14.93, 2.96 14.63 C2.59 14.32, 2.25 13.97, 1.94 13.61 C1.63 13.24, 1.35 12.84, 1.11 12.42 C0.87 12.01, 0.66 11.57, 0.5 11.11 C0.34 10.66, 0.21 10.19, 0.13 9.72 C0.04 9.25, 0 8.76, 0 8.28 C0 7.8, 0.04 7.32, 0.13 6.84 C0.21 6.37, 0.34 5.9, 0.5 5.45 C0.66 5, 0.87 4.56, 1.11 4.14 C1.35 3.73, 1.63 3.33, 1.94 2.96 C2.25 2.59, 2.59 2.25, 2.96 1.94 C3.33 1.63, 3.73 1.35, 4.14 1.11 C4.56 0.87, 5 0.66, 5.45 0.5 C5.9 0.34, 6.37 0.21, 6.84 0.13 C7.32 0.04, 7.8 0, 8.28 0 C8.76 0, 9.25 0.04, 9.72 0.13 C10.19 0.21, 10.66 0.34, 11.11 0.5 C11.57 0.66, 12.01 0.87, 12.42 1.11 C12.84 1.35, 13.24 1.63, 13.61 1.94 C13.97 2.25, 14.32 2.59, 14.63 2.96 C14.93 3.33, 15.21 3.73, 15.45 4.14 C15.69 4.56, 15.9 5, 16.06 5.45 C16.23 5.9, 16.35 6.37, 16.44 6.84 C16.52 7.32, 16.54 8.04, 16.56 8.28 C16.58 8.52, 16.58 8.04, 16.56 8.28" stroke="none" stroke-width="0" fill="#fff0f6"></path><path d="M16.56 8.28 C16.56 8.76, 16.52 9.25, 16.44 9.72 C16.35 10.19, 16.23 10.66, 16.06 11.11 C15.9 11.57, 15.69 12.01, 15.45 12.42 C15.21 12.84, 14.93 13.24, 14.63 13.61 C14.32 13.97, 13.97 14.32, 13.61 14.63 C13.24 14.93, 12.84 15.21, 12.42 15.45 C12.01 15.69, 11.57 15.9, 11.11 16.06 C10.66 16.23, 10.19 16.35, 9.72 16.44 C9.25 16.52, 8.76 16.56, 8.28 16.56 C7.8 16.56, 7.32 16.52, 6.84 16.44 C6.37 16.35, 5.9 16.23, 5.45 16.06 C5 15.9, 4.56 15.69, 4.14 15.45 C3.73 15.21, 3.33 14.93, 2.96 14.63 C2.59 14.32, 2.25 13.97, 1.94 13.61 C1.63 13.24, 1.35 12.84, 1.11 12.42 C0.87 12.01, 0.66 11.57, 0.5 11.11 C0.34 10.66, 0.21 10.19, 0.13 9.72 C0.04 9.25, 0 8.76, 0 8.28 C0 7.8, 0.04 7.32, 0.13 6.84 C0.21 6.37, 0.34 5.9, 0.5 5.45 C0.66 5, 0.87 4.56, 1.11 4.14 C1.35 3.73, 1.63 3.33, 1.94 2.96 C2.25 2.59, 2.59 2.25, 2.96 1.94 C3.33 1.63, 3.73 1.35, 4.14 1.11 C4.56 0.87, 5 0.66, 5.45 0.5 C5.9 0.34, 6.37 0.21, 6.84 0.13 C7.32 0.04, 7.8 0, 8.28 0 C8.76 0, 9.25 0.04, 9.72 0.13 C10.19 0.21, 10.66 0.34, 11.11 0.5 C11.57 0.66, 12.01 0.87, 12.42 1.11 C12.84 1.35, 13.24 1.63, 13.61 1.94 C13.97 2.25, 14.32 2.59, 14.63 2.96 C14.93 3.33, 15.21 3.73, 15.45 4.14 C15.69 4.56, 15.9 5, 16.06 5.45 C16.23 5.9, 16.35 6.37, 16.44 6.84 C16.52 7.32, 16.54 8.04, 16.56 8.28 C16.58 8.52, 16.58 8.04, 16.56 8.28" stroke="#e03131" stroke-width="1" fill="none"></path></g><g stroke-linecap="round" transform="translate(318.8721272497328 130.36534332572666) rotate(355.9329682052455 5.835370528168895 5.8353705281688875)"><path d="M11.67 5.84 C11.67 6.17, 11.64 6.52, 11.58 6.85 C11.52 7.18, 11.43 7.51, 11.32 7.83 C11.2 8.15, 11.06 8.46, 10.89 8.75 C10.72 9.05, 10.52 9.33, 10.31 9.59 C10.09 9.85, 9.85 10.09, 9.59 10.31 C9.33 10.52, 9.05 10.72, 8.75 10.89 C8.46 11.06, 8.15 11.2, 7.83 11.32 C7.51 11.43, 7.18 11.52, 6.85 11.58 C6.52 11.64, 6.17 11.67, 5.84 11.67 C5.5 11.67, 5.15 11.64, 4.82 11.58 C4.49 11.52, 4.16 11.43, 3.84 11.32 C3.52 11.2, 3.21 11.06, 2.92 10.89 C2.63 10.72, 2.34 10.52, 2.08 10.31 C1.83 10.09, 1.58 9.85, 1.37 9.59 C1.15 9.33, 0.95 9.05, 0.78 8.75 C0.61 8.46, 0.47 8.15, 0.35 7.83 C0.24 7.51, 0.15 7.18, 0.09 6.85 C0.03 6.52, 0 6.17, 0 5.84 C0 5.5, 0.03 5.15, 0.09 4.82 C0.15 4.49, 0.24 4.16, 0.35 3.84 C0.47 3.52, 0.61 3.21, 0.78 2.92 C0.95 2.63, 1.15 2.34, 1.37 2.08 C1.58 1.83, 1.83 1.58, 2.08 1.37 C2.34 1.15, 2.63 0.95, 2.92 0.78 C3.21 0.61, 3.52 0.47, 3.84 0.35 C4.16 0.24, 4.49 0.15, 4.82 0.09 C5.15 0.03, 5.5 0, 5.84 0 C6.17 0, 6.52 0.03, 6.85 0.09 C7.18 0.15, 7.51 0.24, 7.83 0.35 C8.15 0.47, 8.46 0.61, 8.75 0.78 C9.05 0.95, 9.33 1.15, 9.59 1.37 C9.85 1.58, 10.09 1.83, 10.31 2.08 C10.52 2.34, 10.72 2.63, 10.89 2.92 C11.06 3.21, 11.2 3.52, 11.32 3.84 C11.43 4.16, 11.52 4.49, 11.58 4.82 C11.64 5.15, 11.66 5.67, 11.67 5.84 C11.69 6, 11.69 5.67, 11.67 5.84" stroke="none" stroke-width="0" fill="#e03131"></path><path d="M11.67 5.84 C11.67 6.17, 11.64 6.52, 11.58 6.85 C11.52 7.18, 11.43 7.51, 11.32 7.83 C11.2 8.15, 11.06 8.46, 10.89 8.75 C10.72 9.05, 10.52 9.33, 10.31 9.59 C10.09 9.85, 9.85 10.09, 9.59 10.31 C9.33 10.52, 9.05 10.72, 8.75 10.89 C8.46 11.06, 8.15 11.2, 7.83 11.32 C7.51 11.43, 7.18 11.52, 6.85 11.58 C6.52 11.64, 6.17 11.67, 5.84 11.67 C5.5 11.67, 5.15 11.64, 4.82 11.58 C4.49 11.52, 4.16 11.43, 3.84 11.32 C3.52 11.2, 3.21 11.06, 2.92 10.89 C2.63 10.72, 2.34 10.52, 2.08 10.31 C1.83 10.09, 1.58 9.85, 1.37 9.59 C1.15 9.33, 0.95 9.05, 0.78 8.75 C0.61 8.46, 0.47 8.15, 0.35 7.83 C0.24 7.51, 0.15 7.18, 0.09 6.85 C0.03 6.52, 0 6.17, 0 5.84 C0 5.5, 0.03 5.15, 0.09 4.82 C0.15 4.49, 0.24 4.16, 0.35 3.84 C0.47 3.52, 0.61 3.21, 0.78 2.92 C0.95 2.63, 1.15 2.34, 1.37 2.08 C1.58 1.83, 1.83 1.58, 2.08 1.37 C2.34 1.15, 2.63 0.95, 2.92 0.78 C3.21 0.61, 3.52 0.47, 3.84 0.35 C4.16 0.24, 4.49 0.15, 4.82 0.09 C5.15 0.03, 5.5 0, 5.84 0 C6.17 0, 6.52 0.03, 6.85 0.09 C7.18 0.15, 7.51 0.24, 7.83 0.35 C8.15 0.47, 8.46 0.61, 8.75 0.78 C9.05 0.95, 9.33 1.15, 9.59 1.37 C9.85 1.58, 10.09 1.83, 10.31 2.08 C10.52 2.34, 10.72 2.63, 10.89 2.92 C11.06 3.21, 11.2 3.52, 11.32 3.84 C11.43 4.16, 11.52 4.49, 11.58 4.82 C11.64 5.15, 11.66 5.67, 11.67 5.84 C11.69 6, 11.69 5.67, 11.67 5.84" stroke="#e03131" stroke-width="4" fill="none"></path></g><g stroke-linecap="round" transform="translate(316.4255055430681 188.77285239103287) rotate(7.044651099499113 8.281992234833638 8.28199223483363)"><path d="M16.56 8.28 C16.56 8.76, 16.52 9.25, 16.44 9.72 C16.35 10.19, 16.23 10.66, 16.06 11.11 C15.9 11.57, 15.69 12.01, 15.45 12.42 C15.21 12.84, 14.93 13.24, 14.63 13.61 C14.32 13.97, 13.97 14.32, 13.61 14.63 C13.24 14.93, 12.84 15.21, 12.42 15.45 C12.01 15.69, 11.57 15.9, 11.11 16.06 C10.66 16.23, 10.19 16.35, 9.72 16.44 C9.25 16.52, 8.76 16.56, 8.28 16.56 C7.8 16.56, 7.32 16.52, 6.84 16.44 C6.37 16.35, 5.9 16.23, 5.45 16.06 C5 15.9, 4.56 15.69, 4.14 15.45 C3.73 15.21, 3.33 14.93, 2.96 14.63 C2.59 14.32, 2.25 13.97, 1.94 13.61 C1.63 13.24, 1.35 12.84, 1.11 12.42 C0.87 12.01, 0.66 11.57, 0.5 11.11 C0.34 10.66, 0.21 10.19, 0.13 9.72 C0.04 9.25, 0 8.76, 0 8.28 C0 7.8, 0.04 7.32, 0.13 6.84 C0.21 6.37, 0.34 5.9, 0.5 5.45 C0.66 5, 0.87 4.56, 1.11 4.14 C1.35 3.73, 1.63 3.33, 1.94 2.96 C2.25 2.59, 2.59 2.25, 2.96 1.94 C3.33 1.63, 3.73 1.35, 4.14 1.11 C4.56 0.87, 5 0.66, 5.45 0.5 C5.9 0.34, 6.37 0.21, 6.84 0.13 C7.32 0.04, 7.8 0, 8.28 0 C8.76 0, 9.25 0.04, 9.72 0.13 C10.19 0.21, 10.66 0.34, 11.11 0.5 C11.57 0.66, 12.01 0.87, 12.42 1.11 C12.84 1.35, 13.24 1.63, 13.61 1.94 C13.97 2.25, 14.32 2.59, 14.63 2.96 C14.93 3.33, 15.21 3.73, 15.45 4.14 C15.69 4.56, 15.9 5, 16.06 5.45 C16.23 5.9, 16.35 6.37, 16.44 6.84 C16.52 7.32, 16.54 8.04, 16.56 8.28 C16.58 8.52, 16.58 8.04, 16.56 8.28" stroke="none" stroke-width="0" fill="#fff0f6"></path><path d="M16.56 8.28 C16.56 8.76, 16.52 9.25, 16.44 9.72 C16.35 10.19, 16.23 10.66, 16.06 11.11 C15.9 11.57, 15.69 12.01, 15.45 12.42 C15.21 12.84, 14.93 13.24, 14.63 13.61 C14.32 13.97, 13.97 14.32, 13.61 14.63 C13.24 14.93, 12.84 15.21, 12.42 15.45 C12.01 15.69, 11.57 15.9, 11.11 16.06 C10.66 16.23, 10.19 16.35, 9.72 16.44 C9.25 16.52, 8.76 16.56, 8.28 16.56 C7.8 16.56, 7.32 16.52, 6.84 16.44 C6.37 16.35, 5.9 16.23, 5.45 16.06 C5 15.9, 4.56 15.69, 4.14 15.45 C3.73 15.21, 3.33 14.93, 2.96 14.63 C2.59 14.32, 2.25 13.97, 1.94 13.61 C1.63 13.24, 1.35 12.84, 1.11 12.42 C0.87 12.01, 0.66 11.57, 0.5 11.11 C0.34 10.66, 0.21 10.19, 0.13 9.72 C0.04 9.25, 0 8.76, 0 8.28 C0 7.8, 0.04 7.32, 0.13 6.84 C0.21 6.37, 0.34 5.9, 0.5 5.45 C0.66 5, 0.87 4.56, 1.11 4.14 C1.35 3.73, 1.63 3.33, 1.94 2.96 C2.25 2.59, 2.59 2.25, 2.96 1.94 C3.33 1.63, 3.73 1.35, 4.14 1.11 C4.56 0.87, 5 0.66, 5.45 0.5 C5.9 0.34, 6.37 0.21, 6.84 0.13 C7.32 0.04, 7.8 0, 8.28 0 C8.76 0, 9.25 0.04, 9.72 0.13 C10.19 0.21, 10.66 0.34, 11.11 0.5 C11.57 0.66, 12.01 0.87, 12.42 1.11 C12.84 1.35, 13.24 1.63, 13.61 1.94 C13.97 2.25, 14.32 2.59, 14.63 2.96 C14.93 3.33, 15.21 3.73, 15.45 4.14 C15.69 4.56, 15.9 5, 16.06 5.45 C16.23 5.9, 16.35 6.37, 16.44 6.84 C16.52 7.32, 16.54 8.04, 16.56 8.28 C16.58 8.52, 16.58 8.04, 16.56 8.28" stroke="#e03131" stroke-width="1" fill="none"></path></g><g stroke-linecap="round" transform="translate(318.8721272497328 170.93476384037393) rotate(7.044651099499113 5.835370528168895 5.8353705281688875)"><path d="M11.67 5.84 C11.67 6.17, 11.64 6.52, 11.58 6.85 C11.52 7.18, 11.43 7.51, 11.32 7.83 C11.2 8.15, 11.06 8.46, 10.89 8.75 C10.72 9.05, 10.52 9.33, 10.31 9.59 C10.09 9.85, 9.85 10.09, 9.59 10.31 C9.33 10.52, 9.05 10.72, 8.75 10.89 C8.46 11.06, 8.15 11.2, 7.83 11.32 C7.51 11.43, 7.18 11.52, 6.85 11.58 C6.52 11.64, 6.17 11.67, 5.84 11.67 C5.5 11.67, 5.15 11.64, 4.82 11.58 C4.49 11.52, 4.16 11.43, 3.84 11.32 C3.52 11.2, 3.21 11.06, 2.92 10.89 C2.63 10.72, 2.34 10.52, 2.08 10.31 C1.83 10.09, 1.58 9.85, 1.37 9.59 C1.15 9.33, 0.95 9.05, 0.78 8.75 C0.61 8.46, 0.47 8.15, 0.35 7.83 C0.24 7.51, 0.15 7.18, 0.09 6.85 C0.03 6.52, 0 6.17, 0 5.84 C0 5.5, 0.03 5.15, 0.09 4.82 C0.15 4.49, 0.24 4.16, 0.35 3.84 C0.47 3.52, 0.61 3.21, 0.78 2.92 C0.95 2.63, 1.15 2.34, 1.37 2.08 C1.58 1.83, 1.83 1.58, 2.08 1.37 C2.34 1.15, 2.63 0.95, 2.92 0.78 C3.21 0.61, 3.52 0.47, 3.84 0.35 C4.16 0.24, 4.49 0.15, 4.82 0.09 C5.15 0.03, 5.5 0, 5.84 0 C6.17 0, 6.52 0.03, 6.85 0.09 C7.18 0.15, 7.51 0.24, 7.83 0.35 C8.15 0.47, 8.46 0.61, 8.75 0.78 C9.05 0.95, 9.33 1.15, 9.59 1.37 C9.85 1.58, 10.09 1.83, 10.31 2.08 C10.52 2.34, 10.72 2.63, 10.89 2.92 C11.06 3.21, 11.2 3.52, 11.32 3.84 C11.43 4.16, 11.52 4.49, 11.58 4.82 C11.64 5.15, 11.66 5.67, 11.67 5.84 C11.69 6, 11.69 5.67, 11.67 5.84" stroke="none" stroke-width="0" fill="#e03131"></path><path d="M11.67 5.84 C11.67 6.17, 11.64 6.52, 11.58 6.85 C11.52 7.18, 11.43 7.51, 11.32 7.83 C11.2 8.15, 11.06 8.46, 10.89 8.75 C10.72 9.05, 10.52 9.33, 10.31 9.59 C10.09 9.85, 9.85 10.09, 9.59 10.31 C9.33 10.52, 9.05 10.72, 8.75 10.89 C8.46 11.06, 8.15 11.2, 7.83 11.32 C7.51 11.43, 7.18 11.52, 6.85 11.58 C6.52 11.64, 6.17 11.67, 5.84 11.67 C5.5 11.67, 5.15 11.64, 4.82 11.58 C4.49 11.52, 4.16 11.43, 3.84 11.32 C3.52 11.2, 3.21 11.06, 2.92 10.89 C2.63 10.72, 2.34 10.52, 2.08 10.31 C1.83 10.09, 1.58 9.85, 1.37 9.59 C1.15 9.33, 0.95 9.05, 0.78 8.75 C0.61 8.46, 0.47 8.15, 0.35 7.83 C0.24 7.51, 0.15 7.18, 0.09 6.85 C0.03 6.52, 0 6.17, 0 5.84 C0 5.5, 0.03 5.15, 0.09 4.82 C0.15 4.49, 0.24 4.16, 0.35 3.84 C0.47 3.52, 0.61 3.21, 0.78 2.92 C0.95 2.63, 1.15 2.34, 1.37 2.08 C1.58 1.83, 1.83 1.58, 2.08 1.37 C2.34 1.15, 2.63 0.95, 2.92 0.78 C3.21 0.61, 3.52 0.47, 3.84 0.35 C4.16 0.24, 4.49 0.15, 4.82 0.09 C5.15 0.03, 5.5 0, 5.84 0 C6.17 0, 6.52 0.03, 6.85 0.09 C7.18 0.15, 7.51 0.24, 7.83 0.35 C8.15 0.47, 8.46 0.61, 8.75 0.78 C9.05 0.95, 9.33 1.15, 9.59 1.37 C9.85 1.58, 10.09 1.83, 10.31 2.08 C10.52 2.34, 10.72 2.63, 10.89 2.92 C11.06 3.21, 11.2 3.52, 11.32 3.84 C11.43 4.16, 11.52 4.49, 11.58 4.82 C11.64 5.15, 11.66 5.67, 11.67 5.84 C11.69 6, 11.69 5.67, 11.67 5.84" stroke="#e03131" stroke-width="4" fill="none"></path></g><g stroke-linecap="round" transform="translate(316.4255055430681 229.34227290568032) rotate(355.9329682052455 8.281992234833638 8.28199223483363)"><path d="M16.56 8.28 C16.56 8.76, 16.52 9.25, 16.44 9.72 C16.35 10.19, 16.23 10.66, 16.06 11.11 C15.9 11.57, 15.69 12.01, 15.45 12.42 C15.21 12.84, 14.93 13.24, 14.63 13.61 C14.32 13.97, 13.97 14.32, 13.61 14.63 C13.24 14.93, 12.84 15.21, 12.42 15.45 C12.01 15.69, 11.57 15.9, 11.11 16.06 C10.66 16.23, 10.19 16.35, 9.72 16.44 C9.25 16.52, 8.76 16.56, 8.28 16.56 C7.8 16.56, 7.32 16.52, 6.84 16.44 C6.37 16.35, 5.9 16.23, 5.45 16.06 C5 15.9, 4.56 15.69, 4.14 15.45 C3.73 15.21, 3.33 14.93, 2.96 14.63 C2.59 14.32, 2.25 13.97, 1.94 13.61 C1.63 13.24, 1.35 12.84, 1.11 12.42 C0.87 12.01, 0.66 11.57, 0.5 11.11 C0.34 10.66, 0.21 10.19, 0.13 9.72 C0.04 9.25, 0 8.76, 0 8.28 C0 7.8, 0.04 7.32, 0.13 6.84 C0.21 6.37, 0.34 5.9, 0.5 5.45 C0.66 5, 0.87 4.56, 1.11 4.14 C1.35 3.73, 1.63 3.33, 1.94 2.96 C2.25 2.59, 2.59 2.25, 2.96 1.94 C3.33 1.63, 3.73 1.35, 4.14 1.11 C4.56 0.87, 5 0.66, 5.45 0.5 C5.9 0.34, 6.37 0.21, 6.84 0.13 C7.32 0.04, 7.8 0, 8.28 0 C8.76 0, 9.25 0.04, 9.72 0.13 C10.19 0.21, 10.66 0.34, 11.11 0.5 C11.57 0.66, 12.01 0.87, 12.42 1.11 C12.84 1.35, 13.24 1.63, 13.61 1.94 C13.97 2.25, 14.32 2.59, 14.63 2.96 C14.93 3.33, 15.21 3.73, 15.45 4.14 C15.69 4.56, 15.9 5, 16.06 5.45 C16.23 5.9, 16.35 6.37, 16.44 6.84 C16.52 7.32, 16.54 8.04, 16.56 8.28 C16.58 8.52, 16.58 8.04, 16.56 8.28" stroke="none" stroke-width="0" fill="#fff0f6"></path><path d="M16.56 8.28 C16.56 8.76, 16.52 9.25, 16.44 9.72 C16.35 10.19, 16.23 10.66, 16.06 11.11 C15.9 11.57, 15.69 12.01, 15.45 12.42 C15.21 12.84, 14.93 13.24, 14.63 13.61 C14.32 13.97, 13.97 14.32, 13.61 14.63 C13.24 14.93, 12.84 15.21, 12.42 15.45 C12.01 15.69, 11.57 15.9, 11.11 16.06 C10.66 16.23, 10.19 16.35, 9.72 16.44 C9.25 16.52, 8.76 16.56, 8.28 16.56 C7.8 16.56, 7.32 16.52, 6.84 16.44 C6.37 16.35, 5.9 16.23, 5.45 16.06 C5 15.9, 4.56 15.69, 4.14 15.45 C3.73 15.21, 3.33 14.93, 2.96 14.63 C2.59 14.32, 2.25 13.97, 1.94 13.61 C1.63 13.24, 1.35 12.84, 1.11 12.42 C0.87 12.01, 0.66 11.57, 0.5 11.11 C0.34 10.66, 0.21 10.19, 0.13 9.72 C0.04 9.25, 0 8.76, 0 8.28 C0 7.8, 0.04 7.32, 0.13 6.84 C0.21 6.37, 0.34 5.9, 0.5 5.45 C0.66 5, 0.87 4.56, 1.11 4.14 C1.35 3.73, 1.63 3.33, 1.94 2.96 C2.25 2.59, 2.59 2.25, 2.96 1.94 C3.33 1.63, 3.73 1.35, 4.14 1.11 C4.56 0.87, 5 0.66, 5.45 0.5 C5.9 0.34, 6.37 0.21, 6.84 0.13 C7.32 0.04, 7.8 0, 8.28 0 C8.76 0, 9.25 0.04, 9.72 0.13 C10.19 0.21, 10.66 0.34, 11.11 0.5 C11.57 0.66, 12.01 0.87, 12.42 1.11 C12.84 1.35, 13.24 1.63, 13.61 1.94 C13.97 2.25, 14.32 2.59, 14.63 2.96 C14.93 3.33, 15.21 3.73, 15.45 4.14 C15.69 4.56, 15.9 5, 16.06 5.45 C16.23 5.9, 16.35 6.37, 16.44 6.84 C16.52 7.32, 16.54 8.04, 16.56 8.28 C16.58 8.52, 16.58 8.04, 16.56 8.28" stroke="#e03131" stroke-width="1" fill="none"></path></g><g stroke-linecap="round" transform="translate(318.87212724973284 211.50418435502124) rotate(355.9329682052455 5.835370528168895 5.8353705281688875)"><path d="M11.67 5.84 C11.67 6.17, 11.64 6.52, 11.58 6.85 C11.52 7.18, 11.43 7.51, 11.32 7.83 C11.2 8.15, 11.06 8.46, 10.89 8.75 C10.72 9.05, 10.52 9.33, 10.31 9.59 C10.09 9.85, 9.85 10.09, 9.59 10.31 C9.33 10.52, 9.05 10.72, 8.75 10.89 C8.46 11.06, 8.15 11.2, 7.83 11.32 C7.51 11.43, 7.18 11.52, 6.85 11.58 C6.52 11.64, 6.17 11.67, 5.84 11.67 C5.5 11.67, 5.15 11.64, 4.82 11.58 C4.49 11.52, 4.16 11.43, 3.84 11.32 C3.52 11.2, 3.21 11.06, 2.92 10.89 C2.63 10.72, 2.34 10.52, 2.08 10.31 C1.83 10.09, 1.58 9.85, 1.37 9.59 C1.15 9.33, 0.95 9.05, 0.78 8.75 C0.61 8.46, 0.47 8.15, 0.35 7.83 C0.24 7.51, 0.15 7.18, 0.09 6.85 C0.03 6.52, 0 6.17, 0 5.84 C0 5.5, 0.03 5.15, 0.09 4.82 C0.15 4.49, 0.24 4.16, 0.35 3.84 C0.47 3.52, 0.61 3.21, 0.78 2.92 C0.95 2.63, 1.15 2.34, 1.37 2.08 C1.58 1.83, 1.83 1.58, 2.08 1.37 C2.34 1.15, 2.63 0.95, 2.92 0.78 C3.21 0.61, 3.52 0.47, 3.84 0.35 C4.16 0.24, 4.49 0.15, 4.82 0.09 C5.15 0.03, 5.5 0, 5.84 0 C6.17 0, 6.52 0.03, 6.85 0.09 C7.18 0.15, 7.51 0.24, 7.83 0.35 C8.15 0.47, 8.46 0.61, 8.75 0.78 C9.05 0.95, 9.33 1.15, 9.59 1.37 C9.85 1.58, 10.09 1.83, 10.31 2.08 C10.52 2.34, 10.72 2.63, 10.89 2.92 C11.06 3.21, 11.2 3.52, 11.32 3.84 C11.43 4.16, 11.52 4.49, 11.58 4.82 C11.64 5.15, 11.66 5.67, 11.67 5.84 C11.69 6, 11.69 5.67, 11.67 5.84" stroke="none" stroke-width="0" fill="#e03131"></path><path d="M11.67 5.84 C11.67 6.17, 11.64 6.52, 11.58 6.85 C11.52 7.18, 11.43 7.51, 11.32 7.83 C11.2 8.15, 11.06 8.46, 10.89 8.75 C10.72 9.05, 10.52 9.33, 10.31 9.59 C10.09 9.85, 9.85 10.09, 9.59 10.31 C9.33 10.52, 9.05 10.72, 8.75 10.89 C8.46 11.06, 8.15 11.2, 7.83 11.32 C7.51 11.43, 7.18 11.52, 6.85 11.58 C6.52 11.64, 6.17 11.67, 5.84 11.67 C5.5 11.67, 5.15 11.64, 4.82 11.58 C4.49 11.52, 4.16 11.43, 3.84 11.32 C3.52 11.2, 3.21 11.06, 2.92 10.89 C2.63 10.72, 2.34 10.52, 2.08 10.31 C1.83 10.09, 1.58 9.85, 1.37 9.59 C1.15 9.33, 0.95 9.05, 0.78 8.75 C0.61 8.46, 0.47 8.15, 0.35 7.83 C0.24 7.51, 0.15 7.18, 0.09 6.85 C0.03 6.52, 0 6.17, 0 5.84 C0 5.5, 0.03 5.15, 0.09 4.82 C0.15 4.49, 0.24 4.16, 0.35 3.84 C0.47 3.52, 0.61 3.21, 0.78 2.92 C0.95 2.63, 1.15 2.34, 1.37 2.08 C1.58 1.83, 1.83 1.58, 2.08 1.37 C2.34 1.15, 2.63 0.95, 2.92 0.78 C3.21 0.61, 3.52 0.47, 3.84 0.35 C4.16 0.24, 4.49 0.15, 4.82 0.09 C5.15 0.03, 5.5 0, 5.84 0 C6.17 0, 6.52 0.03, 6.85 0.09 C7.18 0.15, 7.51 0.24, 7.83 0.35 C8.15 0.47, 8.46 0.61, 8.75 0.78 C9.05 0.95, 9.33 1.15, 9.59 1.37 C9.85 1.58, 10.09 1.83, 10.31 2.08 C10.52 2.34, 10.72 2.63, 10.89 2.92 C11.06 3.21, 11.2 3.52, 11.32 3.84 C11.43 4.16, 11.52 4.49, 11.58 4.82 C11.64 5.15, 11.66 5.67, 11.67 5.84 C11.69 6, 11.69 5.67, 11.67 5.84" stroke="#e03131" stroke-width="4" fill="none"></path></g><g stroke-linecap="round" transform="translate(316.4255055430681 269.9116934203274) rotate(7.044651099499113 8.281992234833638 8.28199223483363)"><path d="M16.56 8.28 C16.56 8.76, 16.52 9.25, 16.44 9.72 C16.35 10.19, 16.23 10.66, 16.06 11.11 C15.9 11.57, 15.69 12.01, 15.45 12.42 C15.21 12.84, 14.93 13.24, 14.63 13.61 C14.32 13.97, 13.97 14.32, 13.61 14.63 C13.24 14.93, 12.84 15.21, 12.42 15.45 C12.01 15.69, 11.57 15.9, 11.11 16.06 C10.66 16.23, 10.19 16.35, 9.72 16.44 C9.25 16.52, 8.76 16.56, 8.28 16.56 C7.8 16.56, 7.32 16.52, 6.84 16.44 C6.37 16.35, 5.9 16.23, 5.45 16.06 C5 15.9, 4.56 15.69, 4.14 15.45 C3.73 15.21, 3.33 14.93, 2.96 14.63 C2.59 14.32, 2.25 13.97, 1.94 13.61 C1.63 13.24, 1.35 12.84, 1.11 12.42 C0.87 12.01, 0.66 11.57, 0.5 11.11 C0.34 10.66, 0.21 10.19, 0.13 9.72 C0.04 9.25, 0 8.76, 0 8.28 C0 7.8, 0.04 7.32, 0.13 6.84 C0.21 6.37, 0.34 5.9, 0.5 5.45 C0.66 5, 0.87 4.56, 1.11 4.14 C1.35 3.73, 1.63 3.33, 1.94 2.96 C2.25 2.59, 2.59 2.25, 2.96 1.94 C3.33 1.63, 3.73 1.35, 4.14 1.11 C4.56 0.87, 5 0.66, 5.45 0.5 C5.9 0.34, 6.37 0.21, 6.84 0.13 C7.32 0.04, 7.8 0, 8.28 0 C8.76 0, 9.25 0.04, 9.72 0.13 C10.19 0.21, 10.66 0.34, 11.11 0.5 C11.57 0.66, 12.01 0.87, 12.42 1.11 C12.84 1.35, 13.24 1.63, 13.61 1.94 C13.97 2.25, 14.32 2.59, 14.63 2.96 C14.93 3.33, 15.21 3.73, 15.45 4.14 C15.69 4.56, 15.9 5, 16.06 5.45 C16.23 5.9, 16.35 6.37, 16.44 6.84 C16.52 7.32, 16.54 8.04, 16.56 8.28 C16.58 8.52, 16.58 8.04, 16.56 8.28" stroke="none" stroke-width="0" fill="#fff0f6"></path><path d="M16.56 8.28 C16.56 8.76, 16.52 9.25, 16.44 9.72 C16.35 10.19, 16.23 10.66, 16.06 11.11 C15.9 11.57, 15.69 12.01, 15.45 12.42 C15.21 12.84, 14.93 13.24, 14.63 13.61 C14.32 13.97, 13.97 14.32, 13.61 14.63 C13.24 14.93, 12.84 15.21, 12.42 15.45 C12.01 15.69, 11.57 15.9, 11.11 16.06 C10.66 16.23, 10.19 16.35, 9.72 16.44 C9.25 16.52, 8.76 16.56, 8.28 16.56 C7.8 16.56, 7.32 16.52, 6.84 16.44 C6.37 16.35, 5.9 16.23, 5.45 16.06 C5 15.9, 4.56 15.69, 4.14 15.45 C3.73 15.21, 3.33 14.93, 2.96 14.63 C2.59 14.32, 2.25 13.97, 1.94 13.61 C1.63 13.24, 1.35 12.84, 1.11 12.42 C0.87 12.01, 0.66 11.57, 0.5 11.11 C0.34 10.66, 0.21 10.19, 0.13 9.72 C0.04 9.25, 0 8.76, 0 8.28 C0 7.8, 0.04 7.32, 0.13 6.84 C0.21 6.37, 0.34 5.9, 0.5 5.45 C0.66 5, 0.87 4.56, 1.11 4.14 C1.35 3.73, 1.63 3.33, 1.94 2.96 C2.25 2.59, 2.59 2.25, 2.96 1.94 C3.33 1.63, 3.73 1.35, 4.14 1.11 C4.56 0.87, 5 0.66, 5.45 0.5 C5.9 0.34, 6.37 0.21, 6.84 0.13 C7.32 0.04, 7.8 0, 8.28 0 C8.76 0, 9.25 0.04, 9.72 0.13 C10.19 0.21, 10.66 0.34, 11.11 0.5 C11.57 0.66, 12.01 0.87, 12.42 1.11 C12.84 1.35, 13.24 1.63, 13.61 1.94 C13.97 2.25, 14.32 2.59, 14.63 2.96 C14.93 3.33, 15.21 3.73, 15.45 4.14 C15.69 4.56, 15.9 5, 16.06 5.45 C16.23 5.9, 16.35 6.37, 16.44 6.84 C16.52 7.32, 16.54 8.04, 16.56 8.28 C16.58 8.52, 16.58 8.04, 16.56 8.28" stroke="#e03131" stroke-width="1" fill="none"></path></g><g stroke-linecap="round" transform="translate(318.87212724973284 252.07360486966866) rotate(7.044651099499113 5.835370528168895 5.8353705281688875)"><path d="M11.67 5.84 C11.67 6.17, 11.64 6.52, 11.58 6.85 C11.52 7.18, 11.43 7.51, 11.32 7.83 C11.2 8.15, 11.06 8.46, 10.89 8.75 C10.72 9.05, 10.52 9.33, 10.31 9.59 C10.09 9.85, 9.85 10.09, 9.59 10.31 C9.33 10.52, 9.05 10.72, 8.75 10.89 C8.46 11.06, 8.15 11.2, 7.83 11.32 C7.51 11.43, 7.18 11.52, 6.85 11.58 C6.52 11.64, 6.17 11.67, 5.84 11.67 C5.5 11.67, 5.15 11.64, 4.82 11.58 C4.49 11.52, 4.16 11.43, 3.84 11.32 C3.52 11.2, 3.21 11.06, 2.92 10.89 C2.63 10.72, 2.34 10.52, 2.08 10.31 C1.83 10.09, 1.58 9.85, 1.37 9.59 C1.15 9.33, 0.95 9.05, 0.78 8.75 C0.61 8.46, 0.47 8.15, 0.35 7.83 C0.24 7.51, 0.15 7.18, 0.09 6.85 C0.03 6.52, 0 6.17, 0 5.84 C0 5.5, 0.03 5.15, 0.09 4.82 C0.15 4.49, 0.24 4.16, 0.35 3.84 C0.47 3.52, 0.61 3.21, 0.78 2.92 C0.95 2.63, 1.15 2.34, 1.37 2.08 C1.58 1.83, 1.83 1.58, 2.08 1.37 C2.34 1.15, 2.63 0.95, 2.92 0.78 C3.21 0.61, 3.52 0.47, 3.84 0.35 C4.16 0.24, 4.49 0.15, 4.82 0.09 C5.15 0.03, 5.5 0, 5.84 0 C6.17 0, 6.52 0.03, 6.85 0.09 C7.18 0.15, 7.51 0.24, 7.83 0.35 C8.15 0.47, 8.46 0.61, 8.75 0.78 C9.05 0.95, 9.33 1.15, 9.59 1.37 C9.85 1.58, 10.09 1.83, 10.31 2.08 C10.52 2.34, 10.72 2.63, 10.89 2.92 C11.06 3.21, 11.2 3.52, 11.32 3.84 C11.43 4.16, 11.52 4.49, 11.58 4.82 C11.64 5.15, 11.66 5.67, 11.67 5.84 C11.69 6, 11.69 5.67, 11.67 5.84" stroke="none" stroke-width="0" fill="#e03131"></path><path d="M11.67 5.84 C11.67 6.17, 11.64 6.52, 11.58 6.85 C11.52 7.18, 11.43 7.51, 11.32 7.83 C11.2 8.15, 11.06 8.46, 10.89 8.75 C10.72 9.05, 10.52 9.33, 10.31 9.59 C10.09 9.85, 9.85 10.09, 9.59 10.31 C9.33 10.52, 9.05 10.72, 8.75 10.89 C8.46 11.06, 8.15 11.2, 7.83 11.32 C7.51 11.43, 7.18 11.52, 6.85 11.58 C6.52 11.64, 6.17 11.67, 5.84 11.67 C5.5 11.67, 5.15 11.64, 4.82 11.58 C4.49 11.52, 4.16 11.43, 3.84 11.32 C3.52 11.2, 3.21 11.06, 2.92 10.89 C2.63 10.72, 2.34 10.52, 2.08 10.31 C1.83 10.09, 1.58 9.85, 1.37 9.59 C1.15 9.33, 0.95 9.05, 0.78 8.75 C0.61 8.46, 0.47 8.15, 0.35 7.83 C0.24 7.51, 0.15 7.18, 0.09 6.85 C0.03 6.52, 0 6.17, 0 5.84 C0 5.5, 0.03 5.15, 0.09 4.82 C0.15 4.49, 0.24 4.16, 0.35 3.84 C0.47 3.52, 0.61 3.21, 0.78 2.92 C0.95 2.63, 1.15 2.34, 1.37 2.08 C1.58 1.83, 1.83 1.58, 2.08 1.37 C2.34 1.15, 2.63 0.95, 2.92 0.78 C3.21 0.61, 3.52 0.47, 3.84 0.35 C4.16 0.24, 4.49 0.15, 4.82 0.09 C5.15 0.03, 5.5 0, 5.84 0 C6.17 0, 6.52 0.03, 6.85 0.09 C7.18 0.15, 7.51 0.24, 7.83 0.35 C8.15 0.47, 8.46 0.61, 8.75 0.78 C9.05 0.95, 9.33 1.15, 9.59 1.37 C9.85 1.58, 10.09 1.83, 10.31 2.08 C10.52 2.34, 10.72 2.63, 10.89 2.92 C11.06 3.21, 11.2 3.52, 11.32 3.84 C11.43 4.16, 11.52 4.49, 11.58 4.82 C11.64 5.15, 11.66 5.67, 11.67 5.84 C11.69 6, 11.69 5.67, 11.67 5.84" stroke="#e03131" stroke-width="4" fill="none"></path></g><g stroke-linecap="round" transform="translate(246.30430715316288 181.30579476736187) rotate(355.9329682052455 8.28199223483363 8.28199223483363)"><path d="M16.56 8.28 C16.56 8.76, 16.52 9.25, 16.44 9.72 C16.35 10.19, 16.23 10.66, 16.06 11.11 C15.9 11.57, 15.69 12.01, 15.45 12.42 C15.21 12.84, 14.93 13.24, 14.63 13.61 C14.32 13.97, 13.97 14.32, 13.61 14.63 C13.24 14.93, 12.84 15.21, 12.42 15.45 C12.01 15.69, 11.57 15.9, 11.11 16.06 C10.66 16.23, 10.19 16.35, 9.72 16.44 C9.25 16.52, 8.76 16.56, 8.28 16.56 C7.8 16.56, 7.32 16.52, 6.84 16.44 C6.37 16.35, 5.9 16.23, 5.45 16.06 C5 15.9, 4.56 15.69, 4.14 15.45 C3.73 15.21, 3.33 14.93, 2.96 14.63 C2.59 14.32, 2.25 13.97, 1.94 13.61 C1.63 13.24, 1.35 12.84, 1.11 12.42 C0.87 12.01, 0.66 11.57, 0.5 11.11 C0.34 10.66, 0.21 10.19, 0.13 9.72 C0.04 9.25, 0 8.76, 0 8.28 C0 7.8, 0.04 7.32, 0.13 6.84 C0.21 6.37, 0.34 5.9, 0.5 5.45 C0.66 5, 0.87 4.56, 1.11 4.14 C1.35 3.73, 1.63 3.33, 1.94 2.96 C2.25 2.59, 2.59 2.25, 2.96 1.94 C3.33 1.63, 3.73 1.35, 4.14 1.11 C4.56 0.87, 5 0.66, 5.45 0.5 C5.9 0.34, 6.37 0.21, 6.84 0.13 C7.32 0.04, 7.8 0, 8.28 0 C8.76 0, 9.25 0.04, 9.72 0.13 C10.19 0.21, 10.66 0.34, 11.11 0.5 C11.57 0.66, 12.01 0.87, 12.42 1.11 C12.84 1.35, 13.24 1.63, 13.61 1.94 C13.97 2.25, 14.32 2.59, 14.63 2.96 C14.93 3.33, 15.21 3.73, 15.45 4.14 C15.69 4.56, 15.9 5, 16.06 5.45 C16.23 5.9, 16.35 6.37, 16.44 6.84 C16.52 7.32, 16.54 8.04, 16.56 8.28 C16.58 8.52, 16.58 8.04, 16.56 8.28" stroke="none" stroke-width="0" fill="#fff0f6"></path><path d="M16.56 8.28 C16.56 8.76, 16.52 9.25, 16.44 9.72 C16.35 10.19, 16.23 10.66, 16.06 11.11 C15.9 11.57, 15.69 12.01, 15.45 12.42 C15.21 12.84, 14.93 13.24, 14.63 13.61 C14.32 13.97, 13.97 14.32, 13.61 14.63 C13.24 14.93, 12.84 15.21, 12.42 15.45 C12.01 15.69, 11.57 15.9, 11.11 16.06 C10.66 16.23, 10.19 16.35, 9.72 16.44 C9.25 16.52, 8.76 16.56, 8.28 16.56 C7.8 16.56, 7.32 16.52, 6.84 16.44 C6.37 16.35, 5.9 16.23, 5.45 16.06 C5 15.9, 4.56 15.69, 4.14 15.45 C3.73 15.21, 3.33 14.93, 2.96 14.63 C2.59 14.32, 2.25 13.97, 1.94 13.61 C1.63 13.24, 1.35 12.84, 1.11 12.42 C0.87 12.01, 0.66 11.57, 0.5 11.11 C0.34 10.66, 0.21 10.19, 0.13 9.72 C0.04 9.25, 0 8.76, 0 8.28 C0 7.8, 0.04 7.32, 0.13 6.84 C0.21 6.37, 0.34 5.9, 0.5 5.45 C0.66 5, 0.87 4.56, 1.11 4.14 C1.35 3.73, 1.63 3.33, 1.94 2.96 C2.25 2.59, 2.59 2.25, 2.96 1.94 C3.33 1.63, 3.73 1.35, 4.14 1.11 C4.56 0.87, 5 0.66, 5.45 0.5 C5.9 0.34, 6.37 0.21, 6.84 0.13 C7.32 0.04, 7.8 0, 8.28 0 C8.76 0, 9.25 0.04, 9.72 0.13 C10.19 0.21, 10.66 0.34, 11.11 0.5 C11.57 0.66, 12.01 0.87, 12.42 1.11 C12.84 1.35, 13.24 1.63, 13.61 1.94 C13.97 2.25, 14.32 2.59, 14.63 2.96 C14.93 3.33, 15.21 3.73, 15.45 4.14 C15.69 4.56, 15.9 5, 16.06 5.45 C16.23 5.9, 16.35 6.37, 16.44 6.84 C16.52 7.32, 16.54 8.04, 16.56 8.28 C16.58 8.52, 16.58 8.04, 16.56 8.28" stroke="#e03131" stroke-width="1" fill="none"></path></g><g stroke-linecap="round" transform="translate(248.75092885982758 163.5663927002134) rotate(355.9329682052455 5.8353705281688875 5.8353705281688875)"><path d="M11.67 5.84 C11.67 6.17, 11.64 6.52, 11.58 6.85 C11.52 7.18, 11.43 7.51, 11.32 7.83 C11.2 8.15, 11.06 8.46, 10.89 8.75 C10.72 9.05, 10.52 9.33, 10.31 9.59 C10.09 9.85, 9.85 10.09, 9.59 10.31 C9.33 10.52, 9.05 10.72, 8.75 10.89 C8.46 11.06, 8.15 11.2, 7.83 11.32 C7.51 11.43, 7.18 11.52, 6.85 11.58 C6.52 11.64, 6.17 11.67, 5.84 11.67 C5.5 11.67, 5.15 11.64, 4.82 11.58 C4.49 11.52, 4.16 11.43, 3.84 11.32 C3.52 11.2, 3.21 11.06, 2.92 10.89 C2.63 10.72, 2.34 10.52, 2.08 10.31 C1.83 10.09, 1.58 9.85, 1.37 9.59 C1.15 9.33, 0.95 9.05, 0.78 8.75 C0.61 8.46, 0.47 8.15, 0.35 7.83 C0.24 7.51, 0.15 7.18, 0.09 6.85 C0.03 6.52, 0 6.17, 0 5.84 C0 5.5, 0.03 5.15, 0.09 4.82 C0.15 4.49, 0.24 4.16, 0.35 3.84 C0.47 3.52, 0.61 3.21, 0.78 2.92 C0.95 2.63, 1.15 2.34, 1.37 2.08 C1.58 1.83, 1.83 1.58, 2.08 1.37 C2.34 1.15, 2.63 0.95, 2.92 0.78 C3.21 0.61, 3.52 0.47, 3.84 0.35 C4.16 0.24, 4.49 0.15, 4.82 0.09 C5.15 0.03, 5.5 0, 5.84 0 C6.17 0, 6.52 0.03, 6.85 0.09 C7.18 0.15, 7.51 0.24, 7.83 0.35 C8.15 0.47, 8.46 0.61, 8.75 0.78 C9.05 0.95, 9.33 1.15, 9.59 1.37 C9.85 1.58, 10.09 1.83, 10.31 2.08 C10.52 2.34, 10.72 2.63, 10.89 2.92 C11.06 3.21, 11.2 3.52, 11.32 3.84 C11.43 4.16, 11.52 4.49, 11.58 4.82 C11.64 5.15, 11.66 5.67, 11.67 5.84 C11.69 6, 11.69 5.67, 11.67 5.84" stroke="none" stroke-width="0" fill="#e03131"></path><path d="M11.67 5.84 C11.67 6.17, 11.64 6.52, 11.58 6.85 C11.52 7.18, 11.43 7.51, 11.32 7.83 C11.2 8.15, 11.06 8.46, 10.89 8.75 C10.72 9.05, 10.52 9.33, 10.31 9.59 C10.09 9.85, 9.85 10.09, 9.59 10.31 C9.33 10.52, 9.05 10.72, 8.75 10.89 C8.46 11.06, 8.15 11.2, 7.83 11.32 C7.51 11.43, 7.18 11.52, 6.85 11.58 C6.52 11.64, 6.17 11.67, 5.84 11.67 C5.5 11.67, 5.15 11.64, 4.82 11.58 C4.49 11.52, 4.16 11.43, 3.84 11.32 C3.52 11.2, 3.21 11.06, 2.92 10.89 C2.63 10.72, 2.34 10.52, 2.08 10.31 C1.83 10.09, 1.58 9.85, 1.37 9.59 C1.15 9.33, 0.95 9.05, 0.78 8.75 C0.61 8.46, 0.47 8.15, 0.35 7.83 C0.24 7.51, 0.15 7.18, 0.09 6.85 C0.03 6.52, 0 6.17, 0 5.84 C0 5.5, 0.03 5.15, 0.09 4.82 C0.15 4.49, 0.24 4.16, 0.35 3.84 C0.47 3.52, 0.61 3.21, 0.78 2.92 C0.95 2.63, 1.15 2.34, 1.37 2.08 C1.58 1.83, 1.83 1.58, 2.08 1.37 C2.34 1.15, 2.63 0.95, 2.92 0.78 C3.21 0.61, 3.52 0.47, 3.84 0.35 C4.16 0.24, 4.49 0.15, 4.82 0.09 C5.15 0.03, 5.5 0, 5.84 0 C6.17 0, 6.52 0.03, 6.85 0.09 C7.18 0.15, 7.51 0.24, 7.83 0.35 C8.15 0.47, 8.46 0.61, 8.75 0.78 C9.05 0.95, 9.33 1.15, 9.59 1.37 C9.85 1.58, 10.09 1.83, 10.31 2.08 C10.52 2.34, 10.72 2.63, 10.89 2.92 C11.06 3.21, 11.2 3.52, 11.32 3.84 C11.43 4.16, 11.52 4.49, 11.58 4.82 C11.64 5.15, 11.66 5.67, 11.67 5.84 C11.69 6, 11.69 5.67, 11.67 5.84" stroke="#e03131" stroke-width="4" fill="none"></path></g><g stroke-linecap="round" transform="translate(246.30430715316288 221.67784231498823) rotate(7.044651099499113 8.28199223483363 8.28199223483363)"><path d="M16.56 8.28 C16.56 8.76, 16.52 9.25, 16.44 9.72 C16.35 10.19, 16.23 10.66, 16.06 11.11 C15.9 11.57, 15.69 12.01, 15.45 12.42 C15.21 12.84, 14.93 13.24, 14.63 13.61 C14.32 13.97, 13.97 14.32, 13.61 14.63 C13.24 14.93, 12.84 15.21, 12.42 15.45 C12.01 15.69, 11.57 15.9, 11.11 16.06 C10.66 16.23, 10.19 16.35, 9.72 16.44 C9.25 16.52, 8.76 16.56, 8.28 16.56 C7.8 16.56, 7.32 16.52, 6.84 16.44 C6.37 16.35, 5.9 16.23, 5.45 16.06 C5 15.9, 4.56 15.69, 4.14 15.45 C3.73 15.21, 3.33 14.93, 2.96 14.63 C2.59 14.32, 2.25 13.97, 1.94 13.61 C1.63 13.24, 1.35 12.84, 1.11 12.42 C0.87 12.01, 0.66 11.57, 0.5 11.11 C0.34 10.66, 0.21 10.19, 0.13 9.72 C0.04 9.25, 0 8.76, 0 8.28 C0 7.8, 0.04 7.32, 0.13 6.84 C0.21 6.37, 0.34 5.9, 0.5 5.45 C0.66 5, 0.87 4.56, 1.11 4.14 C1.35 3.73, 1.63 3.33, 1.94 2.96 C2.25 2.59, 2.59 2.25, 2.96 1.94 C3.33 1.63, 3.73 1.35, 4.14 1.11 C4.56 0.87, 5 0.66, 5.45 0.5 C5.9 0.34, 6.37 0.21, 6.84 0.13 C7.32 0.04, 7.8 0, 8.28 0 C8.76 0, 9.25 0.04, 9.72 0.13 C10.19 0.21, 10.66 0.34, 11.11 0.5 C11.57 0.66, 12.01 0.87, 12.42 1.11 C12.84 1.35, 13.24 1.63, 13.61 1.94 C13.97 2.25, 14.32 2.59, 14.63 2.96 C14.93 3.33, 15.21 3.73, 15.45 4.14 C15.69 4.56, 15.9 5, 16.06 5.45 C16.23 5.9, 16.35 6.37, 16.44 6.84 C16.52 7.32, 16.54 8.04, 16.56 8.28 C16.58 8.52, 16.58 8.04, 16.56 8.28" stroke="none" stroke-width="0" fill="#fff0f6"></path><path d="M16.56 8.28 C16.56 8.76, 16.52 9.25, 16.44 9.72 C16.35 10.19, 16.23 10.66, 16.06 11.11 C15.9 11.57, 15.69 12.01, 15.45 12.42 C15.21 12.84, 14.93 13.24, 14.63 13.61 C14.32 13.97, 13.97 14.32, 13.61 14.63 C13.24 14.93, 12.84 15.21, 12.42 15.45 C12.01 15.69, 11.57 15.9, 11.11 16.06 C10.66 16.23, 10.19 16.35, 9.72 16.44 C9.25 16.52, 8.76 16.56, 8.28 16.56 C7.8 16.56, 7.32 16.52, 6.84 16.44 C6.37 16.35, 5.9 16.23, 5.45 16.06 C5 15.9, 4.56 15.69, 4.14 15.45 C3.73 15.21, 3.33 14.93, 2.96 14.63 C2.59 14.32, 2.25 13.97, 1.94 13.61 C1.63 13.24, 1.35 12.84, 1.11 12.42 C0.87 12.01, 0.66 11.57, 0.5 11.11 C0.34 10.66, 0.21 10.19, 0.13 9.72 C0.04 9.25, 0 8.76, 0 8.28 C0 7.8, 0.04 7.32, 0.13 6.84 C0.21 6.37, 0.34 5.9, 0.5 5.45 C0.66 5, 0.87 4.56, 1.11 4.14 C1.35 3.73, 1.63 3.33, 1.94 2.96 C2.25 2.59, 2.59 2.25, 2.96 1.94 C3.33 1.63, 3.73 1.35, 4.14 1.11 C4.56 0.87, 5 0.66, 5.45 0.5 C5.9 0.34, 6.37 0.21, 6.84 0.13 C7.32 0.04, 7.8 0, 8.28 0 C8.76 0, 9.25 0.04, 9.72 0.13 C10.19 0.21, 10.66 0.34, 11.11 0.5 C11.57 0.66, 12.01 0.87, 12.42 1.11 C12.84 1.35, 13.24 1.63, 13.61 1.94 C13.97 2.25, 14.32 2.59, 14.63 2.96 C14.93 3.33, 15.21 3.73, 15.45 4.14 C15.69 4.56, 15.9 5, 16.06 5.45 C16.23 5.9, 16.35 6.37, 16.44 6.84 C16.52 7.32, 16.54 8.04, 16.56 8.28 C16.58 8.52, 16.58 8.04, 16.56 8.28" stroke="#e03131" stroke-width="1" fill="none"></path></g><g stroke-linecap="round" transform="translate(248.75092885982758 203.38460861019578) rotate(7.044651099499113 5.8353705281688875 5.8353705281688875)"><path d="M11.67 5.84 C11.67 6.17, 11.64 6.52, 11.58 6.85 C11.52 7.18, 11.43 7.51, 11.32 7.83 C11.2 8.15, 11.06 8.46, 10.89 8.75 C10.72 9.05, 10.52 9.33, 10.31 9.59 C10.09 9.85, 9.85 10.09, 9.59 10.31 C9.33 10.52, 9.05 10.72, 8.75 10.89 C8.46 11.06, 8.15 11.2, 7.83 11.32 C7.51 11.43, 7.18 11.52, 6.85 11.58 C6.52 11.64, 6.17 11.67, 5.84 11.67 C5.5 11.67, 5.15 11.64, 4.82 11.58 C4.49 11.52, 4.16 11.43, 3.84 11.32 C3.52 11.2, 3.21 11.06, 2.92 10.89 C2.63 10.72, 2.34 10.52, 2.08 10.31 C1.83 10.09, 1.58 9.85, 1.37 9.59 C1.15 9.33, 0.95 9.05, 0.78 8.75 C0.61 8.46, 0.47 8.15, 0.35 7.83 C0.24 7.51, 0.15 7.18, 0.09 6.85 C0.03 6.52, 0 6.17, 0 5.84 C0 5.5, 0.03 5.15, 0.09 4.82 C0.15 4.49, 0.24 4.16, 0.35 3.84 C0.47 3.52, 0.61 3.21, 0.78 2.92 C0.95 2.63, 1.15 2.34, 1.37 2.08 C1.58 1.83, 1.83 1.58, 2.08 1.37 C2.34 1.15, 2.63 0.95, 2.92 0.78 C3.21 0.61, 3.52 0.47, 3.84 0.35 C4.16 0.24, 4.49 0.15, 4.82 0.09 C5.15 0.03, 5.5 0, 5.84 0 C6.17 0, 6.52 0.03, 6.85 0.09 C7.18 0.15, 7.51 0.24, 7.83 0.35 C8.15 0.47, 8.46 0.61, 8.75 0.78 C9.05 0.95, 9.33 1.15, 9.59 1.37 C9.85 1.58, 10.09 1.83, 10.31 2.08 C10.52 2.34, 10.72 2.63, 10.89 2.92 C11.06 3.21, 11.2 3.52, 11.32 3.84 C11.43 4.16, 11.52 4.49, 11.58 4.82 C11.64 5.15, 11.66 5.67, 11.67 5.84 C11.69 6, 11.69 5.67, 11.67 5.84" stroke="none" stroke-width="0" fill="#e03131"></path><path d="M11.67 5.84 C11.67 6.17, 11.64 6.52, 11.58 6.85 C11.52 7.18, 11.43 7.51, 11.32 7.83 C11.2 8.15, 11.06 8.46, 10.89 8.75 C10.72 9.05, 10.52 9.33, 10.31 9.59 C10.09 9.85, 9.85 10.09, 9.59 10.31 C9.33 10.52, 9.05 10.72, 8.75 10.89 C8.46 11.06, 8.15 11.2, 7.83 11.32 C7.51 11.43, 7.18 11.52, 6.85 11.58 C6.52 11.64, 6.17 11.67, 5.84 11.67 C5.5 11.67, 5.15 11.64, 4.82 11.58 C4.49 11.52, 4.16 11.43, 3.84 11.32 C3.52 11.2, 3.21 11.06, 2.92 10.89 C2.63 10.72, 2.34 10.52, 2.08 10.31 C1.83 10.09, 1.58 9.85, 1.37 9.59 C1.15 9.33, 0.95 9.05, 0.78 8.75 C0.61 8.46, 0.47 8.15, 0.35 7.83 C0.24 7.51, 0.15 7.18, 0.09 6.85 C0.03 6.52, 0 6.17, 0 5.84 C0 5.5, 0.03 5.15, 0.09 4.82 C0.15 4.49, 0.24 4.16, 0.35 3.84 C0.47 3.52, 0.61 3.21, 0.78 2.92 C0.95 2.63, 1.15 2.34, 1.37 2.08 C1.58 1.83, 1.83 1.58, 2.08 1.37 C2.34 1.15, 2.63 0.95, 2.92 0.78 C3.21 0.61, 3.52 0.47, 3.84 0.35 C4.16 0.24, 4.49 0.15, 4.82 0.09 C5.15 0.03, 5.5 0, 5.84 0 C6.17 0, 6.52 0.03, 6.85 0.09 C7.18 0.15, 7.51 0.24, 7.83 0.35 C8.15 0.47, 8.46 0.61, 8.75 0.78 C9.05 0.95, 9.33 1.15, 9.59 1.37 C9.85 1.58, 10.09 1.83, 10.31 2.08 C10.52 2.34, 10.72 2.63, 10.89 2.92 C11.06 3.21, 11.2 3.52, 11.32 3.84 C11.43 4.16, 11.52 4.49, 11.58 4.82 C11.64 5.15, 11.66 5.67, 11.67 5.84 C11.69 6, 11.69 5.67, 11.67 5.84" stroke="#e03131" stroke-width="4" fill="none"></path></g><g transform="translate(176.95792278397042 222.2398051145155) rotate(0 7.545935882064722 15.60601516102395)"><text x="0" y="22.93458715834583" font-family="Helvetica, Segoe UI Emoji" font-size="27.140895932215567px" fill="#1971c2" text-anchor="start" style="white-space: pre;" direction="ltr" dominant-baseline="alphabetic">2</text></g><g transform="translate(246.9881412872864 241.4106691662656) rotate(0 7.080735849722828 14.642888333276838)"><text x="0" y="21.519176757446413" font-family="Helvetica, Segoe UI Emoji" font-size="25.465892753524937px" fill="#1971c2" text-anchor="start" style="white-space: pre;" direction="ltr" dominant-baseline="alphabetic">4</text></g><g transform="translate(318.4884458650571 290.50796450362037) rotate(0 6.694777654290405 13.845645153944325)"><text x="0" y="20.34754883102585" font-family="Helvetica, Segoe UI Emoji" font-size="24.07938287642491px" fill="#1971c2" text-anchor="start" style="white-space: pre;" direction="ltr" dominant-baseline="alphabetic">8</text></g><g transform="translate(103.10647817601836 10) rotate(0 211.8485612479169 26.795413674976828)"><text x="211.8485612479169" y="19.689259046329358" font-family="Helvetica, Segoe UI Emoji" font-size="23.30035971737116px" fill="#1e1e1e" text-anchor="middle" style="white-space: pre;" direction="ltr" dominant-baseline="alphabetic">Die Anzahl Kombinationen verdoppelt</text><text x="211.8485612479169" y="46.48467272130619" font-family="Helvetica, Segoe UI Emoji" font-size="23.30035971737116px" fill="#1e1e1e" text-anchor="middle" style="white-space: pre;" direction="ltr" dominant-baseline="alphabetic">sich mit jedem zusätzlichen Lämpchen.</text></g><g stroke-linecap="round" transform="translate(176.10860495498815 200.32567902238654) rotate(0 8.28199223483363 8.28199223483363)"><path d="M16.56 8.28 C16.56 8.76, 16.52 9.25, 16.44 9.72 C16.35 10.19, 16.23 10.66, 16.06 11.11 C15.9 11.57, 15.69 12.01, 15.45 12.42 C15.21 12.84, 14.93 13.24, 14.63 13.61 C14.32 13.97, 13.97 14.32, 13.61 14.63 C13.24 14.93, 12.84 15.21, 12.42 15.45 C12.01 15.69, 11.57 15.9, 11.11 16.06 C10.66 16.23, 10.19 16.35, 9.72 16.44 C9.25 16.52, 8.76 16.56, 8.28 16.56 C7.8 16.56, 7.32 16.52, 6.84 16.44 C6.37 16.35, 5.9 16.23, 5.45 16.06 C5 15.9, 4.56 15.69, 4.14 15.45 C3.73 15.21, 3.33 14.93, 2.96 14.63 C2.59 14.32, 2.25 13.97, 1.94 13.61 C1.63 13.24, 1.35 12.84, 1.11 12.42 C0.87 12.01, 0.66 11.57, 0.5 11.11 C0.34 10.66, 0.21 10.19, 0.13 9.72 C0.04 9.25, 0 8.76, 0 8.28 C0 7.8, 0.04 7.32, 0.13 6.84 C0.21 6.37, 0.34 5.9, 0.5 5.45 C0.66 5, 0.87 4.56, 1.11 4.14 C1.35 3.73, 1.63 3.33, 1.94 2.96 C2.25 2.59, 2.59 2.25, 2.96 1.94 C3.33 1.63, 3.73 1.35, 4.14 1.11 C4.56 0.87, 5 0.66, 5.45 0.5 C5.9 0.34, 6.37 0.21, 6.84 0.13 C7.32 0.04, 7.8 0, 8.28 0 C8.76 0, 9.25 0.04, 9.72 0.13 C10.19 0.21, 10.66 0.34, 11.11 0.5 C11.57 0.66, 12.01 0.87, 12.42 1.11 C12.84 1.35, 13.24 1.63, 13.61 1.94 C13.97 2.25, 14.32 2.59, 14.63 2.96 C14.93 3.33, 15.21 3.73, 15.45 4.14 C15.69 4.56, 15.9 5, 16.06 5.45 C16.23 5.9, 16.35 6.37, 16.44 6.84 C16.52 7.32, 16.54 8.04, 16.56 8.28 C16.58 8.52, 16.58 8.04, 16.56 8.28" stroke="none" stroke-width="0" fill="#fff0f6"></path><path d="M16.56 8.28 C16.56 8.76, 16.52 9.25, 16.44 9.72 C16.35 10.19, 16.23 10.66, 16.06 11.11 C15.9 11.57, 15.69 12.01, 15.45 12.42 C15.21 12.84, 14.93 13.24, 14.63 13.61 C14.32 13.97, 13.97 14.32, 13.61 14.63 C13.24 14.93, 12.84 15.21, 12.42 15.45 C12.01 15.69, 11.57 15.9, 11.11 16.06 C10.66 16.23, 10.19 16.35, 9.72 16.44 C9.25 16.52, 8.76 16.56, 8.28 16.56 C7.8 16.56, 7.32 16.52, 6.84 16.44 C6.37 16.35, 5.9 16.23, 5.45 16.06 C5 15.9, 4.56 15.69, 4.14 15.45 C3.73 15.21, 3.33 14.93, 2.96 14.63 C2.59 14.32, 2.25 13.97, 1.94 13.61 C1.63 13.24, 1.35 12.84, 1.11 12.42 C0.87 12.01, 0.66 11.57, 0.5 11.11 C0.34 10.66, 0.21 10.19, 0.13 9.72 C0.04 9.25, 0 8.76, 0 8.28 C0 7.8, 0.04 7.32, 0.13 6.84 C0.21 6.37, 0.34 5.9, 0.5 5.45 C0.66 5, 0.87 4.56, 1.11 4.14 C1.35 3.73, 1.63 3.33, 1.94 2.96 C2.25 2.59, 2.59 2.25, 2.96 1.94 C3.33 1.63, 3.73 1.35, 4.14 1.11 C4.56 0.87, 5 0.66, 5.45 0.5 C5.9 0.34, 6.37 0.21, 6.84 0.13 C7.32 0.04, 7.8 0, 8.28 0 C8.76 0, 9.25 0.04, 9.72 0.13 C10.19 0.21, 10.66 0.34, 11.11 0.5 C11.57 0.66, 12.01 0.87, 12.42 1.11 C12.84 1.35, 13.24 1.63, 13.61 1.94 C13.97 2.25, 14.32 2.59, 14.63 2.96 C14.93 3.33, 15.21 3.73, 15.45 4.14 C15.69 4.56, 15.9 5, 16.06 5.45 C16.23 5.9, 16.35 6.37, 16.44 6.84 C16.52 7.32, 16.54 8.04, 16.56 8.28 C16.58 8.52, 16.58 8.04, 16.56 8.28" stroke="#e03131" stroke-width="1" fill="none"></path></g><g stroke-linecap="round" transform="translate(178.55522728519426 183.26701450498572) rotate(0 5.835370528168888 5.8353705281688875)"><path d="M11.67 5.84 C11.67 6.17, 11.64 6.52, 11.58 6.85 C11.52 7.18, 11.43 7.51, 11.32 7.83 C11.2 8.15, 11.06 8.46, 10.89 8.75 C10.72 9.05, 10.52 9.33, 10.31 9.59 C10.09 9.85, 9.85 10.09, 9.59 10.31 C9.33 10.52, 9.05 10.72, 8.75 10.89 C8.46 11.06, 8.15 11.2, 7.83 11.32 C7.51 11.43, 7.18 11.52, 6.85 11.58 C6.52 11.64, 6.17 11.67, 5.84 11.67 C5.5 11.67, 5.15 11.64, 4.82 11.58 C4.49 11.52, 4.16 11.43, 3.84 11.32 C3.52 11.2, 3.21 11.06, 2.92 10.89 C2.63 10.72, 2.34 10.52, 2.08 10.31 C1.83 10.09, 1.58 9.85, 1.37 9.59 C1.15 9.33, 0.95 9.05, 0.78 8.75 C0.61 8.46, 0.47 8.15, 0.35 7.83 C0.24 7.51, 0.15 7.18, 0.09 6.85 C0.03 6.52, 0 6.17, 0 5.84 C0 5.5, 0.03 5.15, 0.09 4.82 C0.15 4.49, 0.24 4.16, 0.35 3.84 C0.47 3.52, 0.61 3.21, 0.78 2.92 C0.95 2.63, 1.15 2.34, 1.37 2.08 C1.58 1.83, 1.83 1.58, 2.08 1.37 C2.34 1.15, 2.63 0.95, 2.92 0.78 C3.21 0.61, 3.52 0.47, 3.84 0.35 C4.16 0.24, 4.49 0.15, 4.82 0.09 C5.15 0.03, 5.5 0, 5.84 0 C6.17 0, 6.52 0.03, 6.85 0.09 C7.18 0.15, 7.51 0.24, 7.83 0.35 C8.15 0.47, 8.46 0.61, 8.75 0.78 C9.05 0.95, 9.33 1.15, 9.59 1.37 C9.85 1.58, 10.09 1.83, 10.31 2.08 C10.52 2.34, 10.72 2.63, 10.89 2.92 C11.06 3.21, 11.2 3.52, 11.32 3.84 C11.43 4.16, 11.52 4.49, 11.58 4.82 C11.64 5.15, 11.66 5.67, 11.67 5.84 C11.69 6, 11.69 5.67, 11.67 5.84" stroke="none" stroke-width="0" fill="#e03131"></path><path d="M11.67 5.84 C11.67 6.17, 11.64 6.52, 11.58 6.85 C11.52 7.18, 11.43 7.51, 11.32 7.83 C11.2 8.15, 11.06 8.46, 10.89 8.75 C10.72 9.05, 10.52 9.33, 10.31 9.59 C10.09 9.85, 9.85 10.09, 9.59 10.31 C9.33 10.52, 9.05 10.72, 8.75 10.89 C8.46 11.06, 8.15 11.2, 7.83 11.32 C7.51 11.43, 7.18 11.52, 6.85 11.58 C6.52 11.64, 6.17 11.67, 5.84 11.67 C5.5 11.67, 5.15 11.64, 4.82 11.58 C4.49 11.52, 4.16 11.43, 3.84 11.32 C3.52 11.2, 3.21 11.06, 2.92 10.89 C2.63 10.72, 2.34 10.52, 2.08 10.31 C1.83 10.09, 1.58 9.85, 1.37 9.59 C1.15 9.33, 0.95 9.05, 0.78 8.75 C0.61 8.46, 0.47 8.15, 0.35 7.83 C0.24 7.51, 0.15 7.18, 0.09 6.85 C0.03 6.52, 0 6.17, 0 5.84 C0 5.5, 0.03 5.15, 0.09 4.82 C0.15 4.49, 0.24 4.16, 0.35 3.84 C0.47 3.52, 0.61 3.21, 0.78 2.92 C0.95 2.63, 1.15 2.34, 1.37 2.08 C1.58 1.83, 1.83 1.58, 2.08 1.37 C2.34 1.15, 2.63 0.95, 2.92 0.78 C3.21 0.61, 3.52 0.47, 3.84 0.35 C4.16 0.24, 4.49 0.15, 4.82 0.09 C5.15 0.03, 5.5 0, 5.84 0 C6.17 0, 6.52 0.03, 6.85 0.09 C7.18 0.15, 7.51 0.24, 7.83 0.35 C8.15 0.47, 8.46 0.61, 8.75 0.78 C9.05 0.95, 9.33 1.15, 9.59 1.37 C9.85 1.58, 10.09 1.83, 10.31 2.08 C10.52 2.34, 10.72 2.63, 10.89 2.92 C11.06 3.21, 11.2 3.52, 11.32 3.84 C11.43 4.16, 11.52 4.49, 11.58 4.82 C11.64 5.15, 11.66 5.67, 11.67 5.84 C11.69 6, 11.69 5.67, 11.67 5.84" stroke="#e03131" stroke-width="4" fill="none"></path></g><g transform="translate(55.11860027801458 153.03204537691272) rotate(0 55.784775870604356 7.336936381575796)"><text x="111.56955174120871" y="10.782355725165651" font-family="Helvetica, Segoe UI Emoji" font-size="12.759889359262253px" fill="#e03131" text-anchor="end" style="white-space: pre;" direction="ltr" dominant-baseline="alphabetic">Lämpchen</text></g><g transform="translate(10 229.9666793987078) rotate(0 79.62101715928043 7.336936381575793)"><text x="159.24203431856085" y="10.782355725165647" font-family="Helvetica, Segoe UI Emoji" font-size="12.759889359262248px" fill="#1971c2" text-anchor="end" style="white-space: pre;" direction="ltr" dominant-baseline="alphabetic">Kombinationen</text></g><g transform="translate(247.06750158639937 127.78633481149248) rotate(0 7.080735849722828 14.642888333276836)"><text x="0" y="21.519176757446413" font-family="Helvetica, Segoe UI Emoji" font-size="25.465892753524937px" fill="#e03131" text-anchor="start" style="white-space: pre;" direction="ltr" dominant-baseline="alphabetic">2</text></g><g transform="translate(175.72109328489776 147.21360322802803) rotate(0 7.080735849722826 14.642888333276836)"><text x="0" y="21.519176757446413" font-family="Helvetica, Segoe UI Emoji" font-size="25.465892753524937px" fill="#e03131" text-anchor="start" style="white-space: pre;" direction="ltr" dominant-baseline="alphabetic">1</text></g><g transform="translate(316.64894883305595 94.1441126883368) rotate(0 7.080735849722828 14.642888333276836)"><text x="0" y="21.519176757446413" font-family="Helvetica, Segoe UI Emoji" font-size="25.465892753524937px" fill="#e03131" text-anchor="start" style="white-space: pre;" direction="ltr" dominant-baseline="alphabetic">3</text></g><g transform="translate(346.4915782367061 290.5079651577002) rotate(0 90.70273263443013 13.845645153944325)"><text x="0" y="20.34754883102585" font-family="Helvetica, Segoe UI Emoji" font-size="24.07938287642491px" fill="#1971c2" text-anchor="start" style="white-space: pre;" direction="ltr" dominant-baseline="alphabetic">16, 32, 64, 128...</text></g><g transform="translate(356.6641225544896 93.7446209213133) rotate(0 10.617995462095337 14.642888333276836)"><text x="0" y="21.519176757446413" font-family="Helvetica, Segoe UI Emoji" font-size="25.465892753524937px" fill="#e03131" text-anchor="start" style="white-space: pre;" direction="ltr" dominant-baseline="alphabetic">4,</text></g><g stroke-linecap="round"><g transform="translate(190.8428249549169 150.0748168197738) rotate(0 26.425375929074427 -7.909592123523339)"><path d="M0 0 C3.82 -2.64, 14.09 -14.15, 22.9 -15.82 C31.7 -17.49, 47.86 -11, 52.85 -10.04 M0 0 C3.82 -2.64, 14.09 -14.15, 22.9 -15.82 C31.7 -17.49, 47.86 -11, 52.85 -10.04" stroke="#e03131" stroke-width="0.5" fill="none"></path></g><g transform="translate(190.8428249549169 150.0748168197738) rotate(0 26.425375929074427 -7.909592123523339)"><path d="M52.85 -10.04 L38.04 -7.65 L41.5 -19.85 L52.85 -10.04" stroke="none" stroke-width="0" fill="#ffffff" fill-rule="evenodd"></path><path d="M52.85 -10.04 C49.3 -9.47, 45.76 -8.9, 38.04 -7.65 M52.85 -10.04 C49.05 -9.43, 45.24 -8.81, 38.04 -7.65 M38.04 -7.65 C38.93 -10.8, 39.83 -13.94, 41.5 -19.85 M38.04 -7.65 C39.19 -11.7, 40.34 -15.75, 41.5 -19.85 M41.5 -19.85 C45.86 -16.09, 50.21 -12.32, 52.85 -10.04 M41.5 -19.85 C44.56 -17.21, 47.62 -14.56, 52.85 -10.04 M52.85 -10.04 C52.85 -10.04, 52.85 -10.04, 52.85 -10.04 M52.85 -10.04 C52.85 -10.04, 52.85 -10.04, 52.85 -10.04" stroke="#e03131" stroke-width="0.5" fill="none"></path></g></g><mask></mask><g stroke-linecap="round"><g transform="translate(264.13627507997546 128.10168593701758) rotate(0 24.04905182390381 -11.91811090205021)"><path d="M0 0 C2.7 -3.97, 8.16 -20.22, 16.17 -23.84 C24.19 -27.45, 42.78 -22.06, 48.1 -21.71 M0 0 C2.7 -3.97, 8.16 -20.22, 16.17 -23.84 C24.19 -27.45, 42.78 -22.06, 48.1 -21.71" stroke="#e03131" stroke-width="0.5" fill="none"></path></g><g transform="translate(264.13627507997546 128.10168593701758) rotate(0 24.04905182390381 -11.91811090205021)"><path d="M48.1 -21.71 L33.64 -17.71 L35.74 -30.21 L48.1 -21.71" stroke="none" stroke-width="0" fill="#ffffff" fill-rule="evenodd"></path><path d="M48.1 -21.71 C43.71 -20.5, 39.33 -19.28, 33.64 -17.71 M48.1 -21.71 C43.75 -20.51, 39.41 -19.31, 33.64 -17.71 M33.64 -17.71 C34.22 -21.15, 34.8 -24.58, 35.74 -30.21 M33.64 -17.71 C34.07 -20.25, 34.49 -22.78, 35.74 -30.21 M35.74 -30.21 C40.48 -26.95, 45.22 -23.69, 48.1 -21.71 M35.74 -30.21 C40.54 -26.91, 45.34 -23.61, 48.1 -21.71 M48.1 -21.71 C48.1 -21.71, 48.1 -21.71, 48.1 -21.71 M48.1 -21.71 C48.1 -21.71, 48.1 -21.71, 48.1 -21.71" stroke="#e03131" stroke-width="0.5" fill="none"></path></g></g><mask></mask><g stroke-linecap="round"><g transform="translate(190.67451036759024 250.84570595417205) rotate(0 26.630431824659436 5.872557368196947)"><path d="M0 0 C4.49 1.96, 18.09 9.91, 26.97 11.75 C35.85 13.58, 48.88 11.14, 53.26 11.02 M0 0 C4.49 1.96, 18.09 9.91, 26.97 11.75 C35.85 13.58, 48.88 11.14, 53.26 11.02" stroke="#1971c2" stroke-width="0.5" fill="none"></path></g><g transform="translate(190.67451036759024 250.84570595417205) rotate(0 26.630431824659436 5.872557368196947)"><path d="M53.26 11.02 L41.91 17.67 L40.87 6.6 L53.26 11.02" stroke="none" stroke-width="0" fill="#ffffff" fill-rule="evenodd"></path><path d="M53.26 11.02 C49.27 13.36, 45.28 15.69, 41.91 17.67 M53.26 11.02 C49.1 13.45, 44.95 15.89, 41.91 17.67 M41.91 17.67 C41.52 13.44, 41.12 9.2, 40.87 6.6 M41.91 17.67 C41.6 14.31, 41.28 10.96, 40.87 6.6 M40.87 6.6 C44.65 7.95, 48.43 9.29, 53.26 11.02 M40.87 6.6 C44.65 7.95, 48.42 9.29, 53.26 11.02 M53.26 11.02 C53.26 11.02, 53.26 11.02, 53.26 11.02 M53.26 11.02 C53.26 11.02, 53.26 11.02, 53.26 11.02" stroke="#1971c2" stroke-width="0.5" fill="none"></path></g></g><mask></mask><g stroke-linecap="round"><g transform="translate(258.4010856702454 269.7356250640466) rotate(0 27.55886685934695 16.187900809843892)"><path d="M0 0 C4.34 4.09, 16.87 19.15, 26.06 24.54 C35.24 29.94, 50.27 31.07, 55.12 32.38 M0 0 C4.34 4.09, 16.87 19.15, 26.06 24.54 C35.24 29.94, 50.27 31.07, 55.12 32.38" stroke="#1971c2" stroke-width="0.5" fill="none"></path></g><g transform="translate(258.4010856702454 269.7356250640466) rotate(0 27.55886685934695 16.187900809843892)"><path d="M55.12 32.38 L40.59 36.11 L42.92 23.65 L55.12 32.38" stroke="none" stroke-width="0" fill="#ffffff" fill-rule="evenodd"></path><path d="M55.12 32.38 C50.12 33.66, 45.11 34.95, 40.59 36.11 M55.12 32.38 C51.91 33.2, 48.7 34.02, 40.59 36.11 M40.59 36.11 C41.07 33.54, 41.55 30.96, 42.92 23.65 M40.59 36.11 C41.08 33.5, 41.57 30.89, 42.92 23.65 M42.92 23.65 C46.1 25.92, 49.28 28.2, 55.12 32.38 M42.92 23.65 C45.79 25.7, 48.66 27.75, 55.12 32.38 M55.12 32.38 C55.12 32.38, 55.12 32.38, 55.12 32.38 M55.12 32.38 C55.12 32.38, 55.12 32.38, 55.12 32.38" stroke="#1971c2" stroke-width="0.5" fill="none"></path></g></g><mask></mask><g stroke-linecap="round"><g transform="translate(375.5594186783879 91.18487215802855) rotate(0 10.50677672585445 -1.6940333439980861)"><path d="M0 0 C1.6 -0.78, 6.12 -4.87, 9.62 -4.66 C13.13 -4.44, 19.12 0.28, 21.01 1.27 M0 0 C1.6 -0.78, 6.12 -4.87, 9.62 -4.66 C13.13 -4.44, 19.12 0.28, 21.01 1.27" stroke="#e03131" stroke-width="0.5" fill="none"></path></g><g transform="translate(375.5594186783879 91.18487215802855) rotate(0 10.50677672585445 -1.6940333439980861)"><path d="M21.01 1.27 L14.65 0.44 L17.56 -4.14 L21.01 1.27" stroke="none" stroke-width="0" fill="#ffffff" fill-rule="evenodd"></path><path d="M21.01 1.27 C19.15 1.02, 17.29 0.78, 14.65 0.44 M21.01 1.27 C19.49 1.07, 17.97 0.87, 14.65 0.44 M14.65 0.44 C15.6 -1.06, 16.55 -2.56, 17.56 -4.14 M14.65 0.44 C15.68 -1.19, 16.72 -2.82, 17.56 -4.14 M17.56 -4.14 C18.67 -2.4, 19.78 -0.67, 21.01 1.27 M17.56 -4.14 C18.94 -1.98, 20.32 0.18, 21.01 1.27 M21.01 1.27 C21.01 1.27, 21.01 1.27, 21.01 1.27 M21.01 1.27 C21.01 1.27, 21.01 1.27, 21.01 1.27" stroke="#e03131" stroke-width="0.5" fill="none"></path></g></g><mask></mask><g stroke-linecap="round"><g transform="translate(453.76073053847415 93.09111976498093) rotate(356.6917386491071 10.640239070387395 -0.8006440035697295)"><path d="M0 0 C1.67 -0.73, 6.44 -4.81, 9.99 -4.35 C13.54 -3.89, 19.4 1.57, 21.28 2.75 M0 0 C1.67 -0.73, 6.44 -4.81, 9.99 -4.35 C13.54 -3.89, 19.4 1.57, 21.28 2.75" stroke="#e03131" stroke-width="0.5" fill="none"></path></g><g transform="translate(453.76073053847415 93.09111976498093) rotate(356.6917386491071 10.640239070387395 -0.8006440035697295)"><path d="M21.28 2.75 L14.76 1.35 L18.17 -3.15 L21.28 2.75" stroke="none" stroke-width="0" fill="#ffffff" fill-rule="evenodd"></path><path d="M21.28 2.75 C19.77 2.43, 18.27 2.1, 14.76 1.35 M21.28 2.75 C19.41 2.35, 17.55 1.95, 14.76 1.35 M14.76 1.35 C15.95 -0.22, 17.14 -1.79, 18.17 -3.15 M14.76 1.35 C15.48 0.39, 16.2 -0.56, 18.17 -3.15 M18.17 -3.15 C19.06 -1.46, 19.95 0.23, 21.28 2.75 M18.17 -3.15 C19.1 -1.38, 20.03 0.38, 21.28 2.75 M21.28 2.75 C21.28 2.75, 21.28 2.75, 21.28 2.75 M21.28 2.75 C21.28 2.75, 21.28 2.75, 21.28 2.75" stroke="#e03131" stroke-width="0.5" fill="none"></path></g></g><mask></mask><g transform="translate(209.95636859032066 121.90036842495435) rotate(0 4.11256315937964 4.149044680881083)"><text x="0" y="6.097432680649458" font-family="Helvetica, Segoe UI Emoji" font-size="7.215729879793188px" fill="#e03131" text-anchor="start" style="white-space: pre;" direction="ltr" dominant-baseline="alphabetic">+1</text></g><g transform="translate(268.90362115128704 96.69896832178571) rotate(0 4.11256315937964 4.14904468088109)"><text x="0" y="6.097432680649458" font-family="Helvetica, Segoe UI Emoji" font-size="7.215729879793188px" fill="#e03131" text-anchor="start" style="white-space: pre;" direction="ltr" dominant-baseline="alphabetic">+1</text></g><g transform="translate(381.19474074544706 77.16073257063829) rotate(0 4.112563159379647 4.149044680881076)"><text x="0" y="6.097432680649458" font-family="Helvetica, Segoe UI Emoji" font-size="7.215729879793188px" fill="#e03131" text-anchor="start" style="white-space: pre;" direction="ltr" dominant-baseline="alphabetic">+1</text></g><g transform="translate(417.04923414798054 78.61934680598955) rotate(0 4.112563159379647 4.149044680881076)"><text x="0" y="6.097432680649458" font-family="Helvetica, Segoe UI Emoji" font-size="7.215729879793188px" fill="#e03131" text-anchor="start" style="white-space: pre;" direction="ltr" dominant-baseline="alphabetic">+1</text></g><g transform="translate(457.27449126847637 78.78003428549812) rotate(0 4.112563159379647 4.149044680881076)"><text x="0" y="6.097432680649458" font-family="Helvetica, Segoe UI Emoji" font-size="7.215729879793188px" fill="#e03131" text-anchor="start" style="white-space: pre;" direction="ltr" dominant-baseline="alphabetic">+1</text></g><g transform="translate(204.3559828979541 265.8898564354732) rotate(0 2.110946811117083 4.149044680881083)"><text x="0" y="6.097432680649458" font-family="Helvetica, Segoe UI Emoji" font-size="7.215729879793188px" fill="#1971c2" text-anchor="start" style="white-space: pre;" direction="ltr" dominant-baseline="alphabetic">2</text></g><g transform="translate(201.554092882977 267.51377799038056) rotate(0 1.5832101083378127 4.149044680881083)"><text x="0" y="6.097432680649461" font-family="Helvetica, Segoe UI Emoji" font-size="7.215729879793191px" fill="#1971c2" text-anchor="start" style="white-space: pre;" direction="ltr" dominant-baseline="alphabetic">*</text></g><g transform="translate(268.47631960806757 292.50555392792967) rotate(0 2.1109468111170813 4.149044680881083)"><text x="0" y="6.097432680649458" font-family="Helvetica, Segoe UI Emoji" font-size="7.215729879793188px" fill="#1971c2" text-anchor="start" style="white-space: pre;" direction="ltr" dominant-baseline="alphabetic">2</text></g><g transform="translate(265.6744295930903 294.1294754828371) rotate(0 1.5832101083378092 4.149044680881083)"><text x="0" y="6.097432680649461" font-family="Helvetica, Segoe UI Emoji" font-size="7.215729879793191px" fill="#1971c2" text-anchor="start" style="white-space: pre;" direction="ltr" dominant-baseline="alphabetic">*</text></g><g transform="translate(385.4508627030338 329.60272885017986) rotate(0 2.1109468111170884 4.149044680881083)"><text x="0" y="6.097432680649458" font-family="Helvetica, Segoe UI Emoji" font-size="7.215729879793188px" fill="#1971c2" text-anchor="start" style="white-space: pre;" direction="ltr" dominant-baseline="alphabetic">2</text></g><g transform="translate(382.64897268805686 331.2266504050874) rotate(0 1.5832101083378092 4.149044680881083)"><text x="0" y="6.097432680649461" font-family="Helvetica, Segoe UI Emoji" font-size="7.215729879793191px" fill="#1971c2" text-anchor="start" style="white-space: pre;" direction="ltr" dominant-baseline="alphabetic">*</text></g><g transform="translate(421.6887985760364 330.85422450251923) rotate(0 2.1109468111170884 4.149044680881083)"><text x="0" y="6.097432680649458" font-family="Helvetica, Segoe UI Emoji" font-size="7.215729879793188px" fill="#1971c2" text-anchor="start" style="white-space: pre;" direction="ltr" dominant-baseline="alphabetic">2</text></g><g transform="translate(418.88690856105933 332.4781460574269) rotate(0 1.5832101083378092 4.149044680881083)"><text x="0" y="6.097432680649461" font-family="Helvetica, Segoe UI Emoji" font-size="7.215729879793191px" fill="#1971c2" text-anchor="start" style="white-space: pre;" direction="ltr" dominant-baseline="alphabetic">*</text></g><g transform="translate(462.8719027650356 330.8542244636262) rotate(0 2.1109468111170884 4.149044680881083)"><text x="0" y="6.097432680649458" font-family="Helvetica, Segoe UI Emoji" font-size="7.215729879793188px" fill="#1971c2" text-anchor="start" style="white-space: pre;" direction="ltr" dominant-baseline="alphabetic">2</text></g><g transform="translate(460.07001275005854 332.4781460185337) rotate(0 1.5832101083378234 4.149044680881083)"><text x="0" y="6.097432680649461" font-family="Helvetica, Segoe UI Emoji" font-size="7.215729879793191px" fill="#1971c2" text-anchor="start" style="white-space: pre;" direction="ltr" dominant-baseline="alphabetic">*</text></g><g stroke-linecap="round"><g transform="translate(411.3484495863089 93.26133230873836) rotate(356.6917386491071 10.640239070387395 -0.8006440035697295)"><path d="M0 0 C1.67 -0.73, 6.44 -4.81, 9.99 -4.35 C13.54 -3.89, 19.4 1.57, 21.28 2.75 M0 0 C1.67 -0.73, 6.44 -4.81, 9.99 -4.35 C13.54 -3.89, 19.4 1.57, 21.28 2.75" stroke="#e03131" stroke-width="0.5" fill="none"></path></g><g transform="translate(411.3484495863089 93.26133230873836) rotate(356.6917386491071 10.640239070387395 -0.8006440035697295)"><path d="M21.28 2.75 L14.76 1.35 L18.17 -3.15 L21.28 2.75" stroke="none" stroke-width="0" fill="#ffffff" fill-rule="evenodd"></path><path d="M21.28 2.75 C19.31 2.33, 17.33 1.9, 14.76 1.35 M21.28 2.75 C19.38 2.34, 17.48 1.93, 14.76 1.35 M14.76 1.35 C15.86 -0.11, 16.97 -1.56, 18.17 -3.15 M14.76 1.35 C15.81 -0.04, 16.86 -1.43, 18.17 -3.15 M18.17 -3.15 C19.35 -0.91, 20.53 1.34, 21.28 2.75 M18.17 -3.15 C19 -1.58, 19.82 -0.01, 21.28 2.75 M21.28 2.75 C21.28 2.75, 21.28 2.75, 21.28 2.75 M21.28 2.75 C21.28 2.75, 21.28 2.75, 21.28 2.75" stroke="#e03131" stroke-width="0.5" fill="none"></path></g></g><mask></mask><g transform="translate(392.9192176446562 94.509030107994) rotate(0 10.617995462095337 14.642888333276836)"><text x="0" y="21.519176757446413" font-family="Helvetica, Segoe UI Emoji" font-size="25.465892753524937px" fill="#e03131" text-anchor="start" style="white-space: pre;" direction="ltr" dominant-baseline="alphabetic">5,</text></g><g transform="translate(431.28713061838823 95.22242152304403) rotate(0 10.617995462095337 14.642888333276836)"><text x="0" y="21.519176757446413" font-family="Helvetica, Segoe UI Emoji" font-size="25.465892753524937px" fill="#e03131" text-anchor="start" style="white-space: pre;" direction="ltr" dominant-baseline="alphabetic">6,</text></g><g transform="translate(469.6550426650155 95.3926048829151) rotate(0 17.692514686840354 14.642888333276836)"><text x="0" y="21.519176757446413" font-family="Helvetica, Segoe UI Emoji" font-size="25.465892753524937px" fill="#e03131" text-anchor="start" style="white-space: pre;" direction="ltr" dominant-baseline="alphabetic">7...</text></g><g stroke-linecap="round"><g transform="translate(376.5936715109883 321.62714204540373) rotate(0 12.079170165464518 1.9475541892663344)"><path d="M0 0 C1.84 0.89, 7.04 5.59, 11.06 5.35 C15.09 5.11, 21.98 -0.32, 24.16 -1.46 M0 0 C1.84 0.89, 7.04 5.59, 11.06 5.35 C15.09 5.11, 21.98 -0.32, 24.16 -1.46" stroke="#1971c2" stroke-width="0.5" fill="none"></path></g><g transform="translate(376.5936715109883 321.62714204540373) rotate(0 12.079170165464518 1.9475541892663344)"><path d="M24.16 -1.46 L20.19 4.76 L16.84 -0.5 L24.16 -1.46" stroke="none" stroke-width="0" fill="#ffffff" fill-rule="evenodd"></path><path d="M24.16 -1.46 C22.57 1.03, 20.99 3.51, 20.19 4.76 M24.16 -1.46 C23.12 0.17, 22.09 1.79, 20.19 4.76 M20.19 4.76 C18.87 2.69, 17.56 0.62, 16.84 -0.5 M20.19 4.76 C19.41 3.54, 18.63 2.31, 16.84 -0.5 M16.84 -0.5 C18.67 -0.74, 20.5 -0.98, 24.16 -1.46 M16.84 -0.5 C19.43 -0.84, 22.02 -1.18, 24.16 -1.46 M24.16 -1.46 C24.16 -1.46, 24.16 -1.46, 24.16 -1.46 M24.16 -1.46 C24.16 -1.46, 24.16 -1.46, 24.16 -1.46" stroke="#1971c2" stroke-width="0.5" fill="none"></path></g></g><mask></mask><g stroke-linecap="round"><g transform="translate(453.32820556180855 324.0326980401498) rotate(3.308261350892855 12.23260583963551 0.9204645167037171)"><path d="M0 0 C1.91 0.83, 7.41 5.53, 11.49 5 C15.56 4.48, 22.3 -1.8, 24.47 -3.16 M0 0 C1.91 0.83, 7.41 5.53, 11.49 5 C15.56 4.48, 22.3 -1.8, 24.47 -3.16" stroke="#1971c2" stroke-width="0.5" fill="none"></path></g><g transform="translate(453.32820556180855 324.0326980401498) rotate(3.308261350892855 12.23260583963551 0.9204645167037171)"><path d="M24.47 -3.16 L20.89 3.62 L16.97 -1.55 L24.47 -3.16" stroke="none" stroke-width="0" fill="#ffffff" fill-rule="evenodd"></path><path d="M24.47 -3.16 C23.72 -1.76, 22.98 -0.35, 20.89 3.62 M24.47 -3.16 C23.57 -1.47, 22.67 0.23, 20.89 3.62 M20.89 3.62 C19.87 2.28, 18.86 0.95, 16.97 -1.55 M20.89 3.62 C19.54 1.84, 18.19 0.06, 16.97 -1.55 M16.97 -1.55 C19.02 -1.99, 21.07 -2.43, 24.47 -3.16 M16.97 -1.55 C19.12 -2.01, 21.26 -2.47, 24.47 -3.16 M24.47 -3.16 C24.47 -3.16, 24.47 -3.16, 24.47 -3.16 M24.47 -3.16 C24.47 -3.16, 24.47 -3.16, 24.47 -3.16" stroke="#1971c2" stroke-width="0.5" fill="none"></path></g></g><mask></mask><g stroke-linecap="round"><g transform="translate(412.1313515152233 323.0002226019776) rotate(3.308261350892855 12.232605839635497 0.9204645167037171)"><path d="M0 0 C1.91 0.83, 7.41 5.53, 11.49 5 C15.56 4.48, 22.3 -1.8, 24.47 -3.16 M0 0 C1.91 0.83, 7.41 5.53, 11.49 5 C15.56 4.48, 22.3 -1.8, 24.47 -3.16" stroke="#1971c2" stroke-width="0.5" fill="none"></path></g><g transform="translate(412.1313515152233 323.0002226019776) rotate(3.308261350892855 12.232605839635497 0.9204645167037171)"><path d="M24.47 -3.16 L20.89 3.62 L16.97 -1.55 L24.47 -3.16" stroke="none" stroke-width="0" fill="#ffffff" fill-rule="evenodd"></path><path d="M24.47 -3.16 C23.09 -0.56, 21.72 2.04, 20.89 3.62 M24.47 -3.16 C23.34 -1.03, 22.21 1.1, 20.89 3.62 M20.89 3.62 C19.42 1.68, 17.95 -0.25, 16.97 -1.55 M20.89 3.62 C19.8 2.19, 18.72 0.76, 16.97 -1.55 M16.97 -1.55 C19.22 -2.03, 21.47 -2.52, 24.47 -3.16 M16.97 -1.55 C18.84 -1.95, 20.71 -2.35, 24.47 -3.16 M24.47 -3.16 C24.47 -3.16, 24.47 -3.16, 24.47 -3.16 M24.47 -3.16 C24.47 -3.16, 24.47 -3.16, 24.47 -3.16" stroke="#1971c2" stroke-width="0.5" fill="none"></path></g></g><mask></mask><g transform="translate(341.81121183902025 330.19747909297257) rotate(0 2.1109468111170884 4.149044680881083)"><text x="0" y="6.097432680649458" font-family="Helvetica, Segoe UI Emoji" font-size="7.215729879793188px" fill="#1971c2" text-anchor="start" style="white-space: pre;" direction="ltr" dominant-baseline="alphabetic">2</text></g><g transform="translate(339.009321824043 331.82140064788024) rotate(0 1.5832101083378092 4.149044680881083)"><text x="0" y="6.097432680649461" font-family="Helvetica, Segoe UI Emoji" font-size="7.215729879793191px" fill="#1971c2" text-anchor="start" style="white-space: pre;" direction="ltr" dominant-baseline="alphabetic">*</text></g><g stroke-linecap="round"><g transform="translate(332.9540206469745 322.22189228819644) rotate(0 12.079170165464518 1.9475541892663344)"><path d="M0 0 C1.84 0.89, 7.04 5.59, 11.06 5.35 C15.09 5.11, 21.98 -0.32, 24.16 -1.46 M0 0 C1.84 0.89, 7.04 5.59, 11.06 5.35 C15.09 5.11, 21.98 -0.32, 24.16 -1.46" stroke="#1971c2" stroke-width="0.5" fill="none"></path></g><g transform="translate(332.9540206469745 322.22189228819644) rotate(0 12.079170165464518 1.9475541892663344)"><path d="M24.16 -1.46 L20.19 4.76 L16.84 -0.5 L24.16 -1.46" stroke="none" stroke-width="0" fill="#ffffff" fill-rule="evenodd"></path><path d="M24.16 -1.46 C23.03 0.3, 21.91 2.07, 20.19 4.76 M24.16 -1.46 C22.97 0.41, 21.78 2.27, 20.19 4.76 M20.19 4.76 C19.06 2.99, 17.93 1.21, 16.84 -0.5 M20.19 4.76 C18.85 2.66, 17.51 0.56, 16.84 -0.5 M16.84 -0.5 C19.67 -0.87, 22.5 -1.24, 24.16 -1.46 M16.84 -0.5 C19.55 -0.86, 22.26 -1.21, 24.16 -1.46 M24.16 -1.46 C24.16 -1.46, 24.16 -1.46, 24.16 -1.46 M24.16 -1.46 C24.16 -1.46, 24.16 -1.46, 24.16 -1.46" stroke="#1971c2" stroke-width="0.5" fill="none"></path></g></g><mask></mask><g stroke-linecap="round"><g transform="translate(333.348434929699 90.47798398010212) rotate(0 10.50677672585445 -1.6940333439980861)"><path d="M0 0 C1.6 -0.78, 6.12 -4.87, 9.62 -4.66 C13.13 -4.44, 19.12 0.28, 21.01 1.27 M0 0 C1.6 -0.78, 6.12 -4.87, 9.62 -4.66 C13.13 -4.44, 19.12 0.28, 21.01 1.27" stroke="#e03131" stroke-width="0.5" fill="none"></path></g><g transform="translate(333.348434929699 90.47798398010212) rotate(0 10.50677672585445 -1.6940333439980861)"><path d="M21.01 1.27 L14.65 0.44 L17.56 -4.14 L21.01 1.27" stroke="none" stroke-width="0" fill="#ffffff" fill-rule="evenodd"></path><path d="M21.01 1.27 C19.62 1.09, 18.23 0.9, 14.65 0.44 M21.01 1.27 C19.52 1.07, 18.02 0.88, 14.65 0.44 M14.65 0.44 C15.55 -0.98, 16.44 -2.39, 17.56 -4.14 M14.65 0.44 C15.76 -1.31, 16.87 -3.05, 17.56 -4.14 M17.56 -4.14 C18.48 -2.69, 19.41 -1.24, 21.01 1.27 M17.56 -4.14 C18.6 -2.51, 19.65 -0.88, 21.01 1.27 M21.01 1.27 C21.01 1.27, 21.01 1.27, 21.01 1.27 M21.01 1.27 C21.01 1.27, 21.01 1.27, 21.01 1.27" stroke="#e03131" stroke-width="0.5" fill="none"></path></g></g><mask></mask><g transform="translate(338.9837569967581 76.45384439271186) rotate(0 4.112563159379647 4.149044680881076)"><text x="0" y="6.097432680649458" font-family="Helvetica, Segoe UI Emoji" font-size="7.215729879793188px" fill="#e03131" text-anchor="start" style="white-space: pre;" direction="ltr" dominant-baseline="alphabetic">+1</text></g></svg>