<svg version="1.1" xmlns="http://www.w3.org/2000/svg" viewBox="0 0 303.83375565284234 148.4485665790546" width="303.83375565284234" height="148.4485665790546" class="excalidraw-svg">
  <!-- svg-source:excalidraw -->
  
  <defs>
    <style class="style-fonts">
      
    </style>
    
  </defs>
  <g stroke-linecap="round" transform="translate(16.212128895412036 52.450424193979785) rotate(0 138.81081337871515 17.475178731092683)"><path d="M8.74 0 C90.94 0, 173.14 0, 268.88 0 M8.74 0 C101.04 0, 193.35 0, 268.88 0 M268.88 0 C274.71 0, 277.62 2.91, 277.62 8.74 M268.88 0 C274.71 0, 277.62 2.91, 277.62 8.74 M277.62 8.74 C277.62 15.03, 277.62 21.31, 277.62 26.21 M277.62 8.74 C277.62 15.24, 277.62 21.75, 277.62 26.21 M277.62 26.21 C277.62 32.04, 274.71 34.95, 268.88 34.95 M277.62 26.21 C277.62 32.04, 274.71 34.95, 268.88 34.95 M268.88 34.95 C211.41 34.95, 153.94 34.95, 8.74 34.95 M268.88 34.95 C179.29 34.95, 89.69 34.95, 8.74 34.95 M8.74 34.95 C2.91 34.95, 0 32.04, 0 26.21 M8.74 34.95 C2.91 34.95, 0 32.04, 0 26.21 M0 26.21 C0 21.24, 0 16.27, 0 8.74 M0 26.21 C0 19.46, 0 12.72, 0 8.74 M0 8.74 C0 2.91, 2.91 0, 8.74 0 M0 8.74 C0 2.91, 2.91 0, 8.74 0" stroke="#1e1e1e" stroke-width="2" fill="none"/></g><g stroke-linecap="round" transform="translate(15.167036652842341 52.40078213858706) rotate(0 17.333343505859375 17.5)"><path d="M8.67 0 C14.22 0, 19.78 0, 26 0 C31.78 0, 34.67 2.89, 34.67 8.67 C34.67 15.03, 34.67 21.39, 34.67 26.33 C34.67 32.11, 31.78 35, 26 35 C19.26 35, 12.52 35, 8.67 35 C2.89 35, 0 32.11, 0 26.33 C0 22.21, 0 18.09, 0 8.67 C0 2.89, 2.89 0, 8.67 0" stroke="none" stroke-width="0" fill="#b2f2bb"/><path d="M8.67 0 C14.82 0, 20.97 0, 26 0 M8.67 0 C14.27 0, 19.88 0, 26 0 M26 0 C31.78 0, 34.67 2.89, 34.67 8.67 M26 0 C31.78 0, 34.67 2.89, 34.67 8.67 M34.67 8.67 C34.67 15.24, 34.67 21.82, 34.67 26.33 M34.67 8.67 C34.67 12.21, 34.67 15.76, 34.67 26.33 M34.67 26.33 C34.67 32.11, 31.78 35, 26 35 M34.67 26.33 C34.67 32.11, 31.78 35, 26 35 M26 35 C20.03 35, 14.06 35, 8.67 35 M26 35 C21.33 35, 16.65 35, 8.67 35 M8.67 35 C2.89 35, 0 32.11, 0 26.33 M8.67 35 C2.89 35, 0 32.11, 0 26.33 M0 26.33 C0 19.51, 0 12.69, 0 8.67 M0 26.33 C0 20.46, 0 14.6, 0 8.67 M0 8.67 C0 2.89, 2.89 0, 8.67 0 M0 8.67 C0 2.89, 2.89 0, 8.67 0" stroke="#1e1e1e" stroke-width="2" fill="none"/></g><g transform="translate(26.938856721201716 58.40078213858706) rotate(0 5.5615234375 11.5)"><text x="5.5615234375" y="16.900390625" font-family="Helvetica, Segoe UI Emoji" font-size="20px" fill="#1e1e1e" text-anchor="middle" style="white-space: pre;" direction="ltr" dominant-baseline="alphabetic">1</text></g><g stroke-linecap="round" transform="translate(49.833724146983 52.45042464444643) rotate(0 17.333343505859375 17.5)"><path d="M8.67 0 C13.2 0, 17.74 0, 26 0 C31.78 0, 34.67 2.89, 34.67 8.67 C34.67 12.55, 34.67 16.43, 34.67 26.33 C34.67 32.11, 31.78 35, 26 35 C19.15 35, 12.3 35, 8.67 35 C2.89 35, 0 32.11, 0 26.33 C0 19.6, 0 12.86, 0 8.67 C0 2.89, 2.89 0, 8.67 0" stroke="none" stroke-width="0" fill="#ffc9c9"/><path d="M8.67 0 C13.41 0, 18.15 0, 26 0 M8.67 0 C14.4 0, 20.14 0, 26 0 M26 0 C31.78 0, 34.67 2.89, 34.67 8.67 M26 0 C31.78 0, 34.67 2.89, 34.67 8.67 M34.67 8.67 C34.67 13.15, 34.67 17.64, 34.67 26.33 M34.67 8.67 C34.67 14.52, 34.67 20.37, 34.67 26.33 M34.67 26.33 C34.67 32.11, 31.78 35, 26 35 M34.67 26.33 C34.67 32.11, 31.78 35, 26 35 M26 35 C20.91 35, 15.81 35, 8.67 35 M26 35 C19.53 35, 13.06 35, 8.67 35 M8.67 35 C2.89 35, 0 32.11, 0 26.33 M8.67 35 C2.89 35, 0 32.11, 0 26.33 M0 26.33 C0 19.51, 0 12.68, 0 8.67 M0 26.33 C0 21.08, 0 15.82, 0 8.67 M0 8.67 C0 2.89, 2.89 0, 8.67 0 M0 8.67 C0 2.89, 2.89 0, 8.67 0" stroke="#1e1e1e" stroke-width="2" fill="none"/></g><g transform="translate(61.60554421534238 58.45042464444643) rotate(0 5.5615234375 11.5)"><text x="5.5615234375" y="16.900390625" font-family="Helvetica, Segoe UI Emoji" font-size="20px" fill="#1e1e1e" text-anchor="middle" style="white-space: pre;" direction="ltr" dominant-baseline="alphabetic">0</text></g><g stroke-linecap="round" transform="translate(84.50041189991265 52.40078190323547) rotate(0 17.333343505859375 17.5)"><path d="M8.67 0 C15.37 0, 22.07 0, 26 0 C31.78 0, 34.67 2.89, 34.67 8.67 C34.67 15.45, 34.67 22.24, 34.67 26.33 C34.67 32.11, 31.78 35, 26 35 C19.74 35, 13.48 35, 8.67 35 C2.89 35, 0 32.11, 0 26.33 C0 21.84, 0 17.35, 0 8.67 C0 2.89, 2.89 0, 8.67 0" stroke="none" stroke-width="0" fill="#b2f2bb"/><path d="M8.67 0 C12.33 0, 16 0, 26 0 M8.67 0 C14.86 0, 21.05 0, 26 0 M26 0 C31.78 0, 34.67 2.89, 34.67 8.67 M26 0 C31.78 0, 34.67 2.89, 34.67 8.67 M34.67 8.67 C34.67 15.68, 34.67 22.69, 34.67 26.33 M34.67 8.67 C34.67 13.81, 34.67 18.95, 34.67 26.33 M34.67 26.33 C34.67 32.11, 31.78 35, 26 35 M34.67 26.33 C34.67 32.11, 31.78 35, 26 35 M26 35 C21.05 35, 16.09 35, 8.67 35 M26 35 C19.78 35, 13.56 35, 8.67 35 M8.67 35 C2.89 35, 0 32.11, 0 26.33 M8.67 35 C2.89 35, 0 32.11, 0 26.33 M0 26.33 C0 22.68, 0 19.03, 0 8.67 M0 26.33 C0 22.62, 0 18.91, 0 8.67 M0 8.67 C0 2.89, 2.89 0, 8.67 0 M0 8.67 C0 2.89, 2.89 0, 8.67 0" stroke="#1e1e1e" stroke-width="2" fill="none"/></g><g transform="translate(96.27223196827202 58.40078190323547) rotate(0 5.5615234375 11.5)"><text x="5.5615234375" y="16.900390625" font-family="Helvetica, Segoe UI Emoji" font-size="20px" fill="#1e1e1e" text-anchor="middle" style="white-space: pre;" direction="ltr" dominant-baseline="alphabetic">1</text></g><g stroke-linecap="round" transform="translate(119.16709839405331 52.450424409094836) rotate(0 17.333343505859375 17.5)"><path d="M8.67 0 C12.66 0, 16.64 0, 26 0 C31.78 0, 34.67 2.89, 34.67 8.67 C34.67 15.21, 34.67 21.76, 34.67 26.33 C34.67 32.11, 31.78 35, 26 35 C20.33 35, 14.65 35, 8.67 35 C2.89 35, 0 32.11, 0 26.33 C0 20.16, 0 13.98, 0 8.67 C0 2.89, 2.89 0, 8.67 0" stroke="none" stroke-width="0" fill="#ffc9c9"/><path d="M8.67 0 C15.16 0, 21.64 0, 26 0 M8.67 0 C12.46 0, 16.25 0, 26 0 M26 0 C31.78 0, 34.67 2.89, 34.67 8.67 M26 0 C31.78 0, 34.67 2.89, 34.67 8.67 M34.67 8.67 C34.67 12.89, 34.67 17.11, 34.67 26.33 M34.67 8.67 C34.67 15.28, 34.67 21.89, 34.67 26.33 M34.67 26.33 C34.67 32.11, 31.78 35, 26 35 M34.67 26.33 C34.67 32.11, 31.78 35, 26 35 M26 35 C20.7 35, 15.4 35, 8.67 35 M26 35 C21.32 35, 16.65 35, 8.67 35 M8.67 35 C2.89 35, 0 32.11, 0 26.33 M8.67 35 C2.89 35, 0 32.11, 0 26.33 M0 26.33 C0 20.91, 0 15.49, 0 8.67 M0 26.33 C0 22.18, 0 18.02, 0 8.67 M0 8.67 C0 2.89, 2.89 0, 8.67 0 M0 8.67 C0 2.89, 2.89 0, 8.67 0" stroke="#1e1e1e" stroke-width="2" fill="none"/></g><g transform="translate(130.9389184624127 58.450424409094836) rotate(0 5.5615234375 11.5)"><text x="5.5615234375" y="16.900390625" font-family="Helvetica, Segoe UI Emoji" font-size="20px" fill="#1e1e1e" text-anchor="middle" style="white-space: pre;" direction="ltr" dominant-baseline="alphabetic">0</text></g><g stroke-linecap="round" transform="translate(155.16700789991268 52.40078190323544) rotate(0 17.333343505859375 17.5)"><path d="M8.67 0 C13.72 0, 18.77 0, 26 0 C31.78 0, 34.67 2.89, 34.67 8.67 C34.67 15.27, 34.67 21.87, 34.67 26.33 C34.67 32.11, 31.78 35, 26 35 C21.28 35, 16.55 35, 8.67 35 C2.89 35, 0 32.11, 0 26.33 C0 19.32, 0 12.31, 0 8.67 C0 2.89, 2.89 0, 8.67 0" stroke="none" stroke-width="0" fill="#b2f2bb"/><path d="M8.67 0 C14.27 0, 19.87 0, 26 0 M8.67 0 C14.29 0, 19.91 0, 26 0 M26 0 C31.78 0, 34.67 2.89, 34.67 8.67 M26 0 C31.78 0, 34.67 2.89, 34.67 8.67 M34.67 8.67 C34.67 14.67, 34.67 20.68, 34.67 26.33 M34.67 8.67 C34.67 13.16, 34.67 17.66, 34.67 26.33 M34.67 26.33 C34.67 32.11, 31.78 35, 26 35 M34.67 26.33 C34.67 32.11, 31.78 35, 26 35 M26 35 C21.37 35, 16.74 35, 8.67 35 M26 35 C19.7 35, 13.39 35, 8.67 35 M8.67 35 C2.89 35, 0 32.11, 0 26.33 M8.67 35 C2.89 35, 0 32.11, 0 26.33 M0 26.33 C0 20.34, 0 14.36, 0 8.67 M0 26.33 C0 21.47, 0 16.6, 0 8.67 M0 8.67 C0 2.89, 2.89 0, 8.67 0 M0 8.67 C0 2.89, 2.89 0, 8.67 0" stroke="#1e1e1e" stroke-width="2" fill="none"/></g><g transform="translate(166.93882796827205 58.40078190323544) rotate(0 5.5615234375 11.5)"><text x="5.5615234375" y="16.900390625" font-family="Helvetica, Segoe UI Emoji" font-size="20px" fill="#1e1e1e" text-anchor="middle" style="white-space: pre;" direction="ltr" dominant-baseline="alphabetic">1</text></g><g stroke-linecap="round" transform="translate(224.50038139405328 52.45042439737608) rotate(0 17.333343505859375 17.5)"><path d="M8.67 0 C14.36 0, 20.06 0, 26 0 C31.78 0, 34.67 2.89, 34.67 8.67 C34.67 12.4, 34.67 16.14, 34.67 26.33 C34.67 32.11, 31.78 35, 26 35 C19.24 35, 12.48 35, 8.67 35 C2.89 35, 0 32.11, 0 26.33 C0 21.8, 0 17.27, 0 8.67 C0 2.89, 2.89 0, 8.67 0" stroke="none" stroke-width="0" fill="#ffc9c9"/><path d="M8.67 0 C12.35 0, 16.03 0, 26 0 M8.67 0 C12.9 0, 17.13 0, 26 0 M26 0 C31.78 0, 34.67 2.89, 34.67 8.67 M26 0 C31.78 0, 34.67 2.89, 34.67 8.67 M34.67 8.67 C34.67 15.7, 34.67 22.74, 34.67 26.33 M34.67 8.67 C34.67 15.68, 34.67 22.7, 34.67 26.33 M34.67 26.33 C34.67 32.11, 31.78 35, 26 35 M34.67 26.33 C34.67 32.11, 31.78 35, 26 35 M26 35 C21.98 35, 17.96 35, 8.67 35 M26 35 C20.37 35, 14.74 35, 8.67 35 M8.67 35 C2.89 35, 0 32.11, 0 26.33 M8.67 35 C2.89 35, 0 32.11, 0 26.33 M0 26.33 C0 21.56, 0 16.78, 0 8.67 M0 26.33 C0 20.82, 0 15.32, 0 8.67 M0 8.67 C0 2.89, 2.89 0, 8.67 0 M0 8.67 C0 2.89, 2.89 0, 8.67 0" stroke="#1e1e1e" stroke-width="2" fill="none"/></g><g transform="translate(236.27220146241265 58.45042439737608) rotate(0 5.5615234375 11.5)"><text x="5.5615234375" y="16.900390625" font-family="Helvetica, Segoe UI Emoji" font-size="20px" fill="#1e1e1e" text-anchor="middle" style="white-space: pre;" direction="ltr" dominant-baseline="alphabetic">0</text></g><g stroke-linecap="round" transform="translate(189.83369488819392 52.40078190323547) rotate(0 17.333343505859375 17.5)"><path d="M8.67 0 C12.33 0, 16 0, 26 0 C31.78 0, 34.67 2.89, 34.67 8.67 C34.67 15.56, 34.67 22.45, 34.67 26.33 C34.67 32.11, 31.78 35, 26 35 C21.55 35, 17.11 35, 8.67 35 C2.89 35, 0 32.11, 0 26.33 C0 22.53, 0 18.73, 0 8.67 C0 2.89, 2.89 0, 8.67 0" stroke="none" stroke-width="0" fill="#b2f2bb"/><path d="M8.67 0 C14.12 0, 19.57 0, 26 0 M8.67 0 C14.56 0, 20.45 0, 26 0 M26 0 C31.78 0, 34.67 2.89, 34.67 8.67 M26 0 C31.78 0, 34.67 2.89, 34.67 8.67 M34.67 8.67 C34.67 14.62, 34.67 20.58, 34.67 26.33 M34.67 8.67 C34.67 13.39, 34.67 18.11, 34.67 26.33 M34.67 26.33 C34.67 32.11, 31.78 35, 26 35 M34.67 26.33 C34.67 32.11, 31.78 35, 26 35 M26 35 C21.8 35, 17.59 35, 8.67 35 M26 35 C20.12 35, 14.25 35, 8.67 35 M8.67 35 C2.89 35, 0 32.11, 0 26.33 M8.67 35 C2.89 35, 0 32.11, 0 26.33 M0 26.33 C0 22.1, 0 17.87, 0 8.67 M0 26.33 C0 21.18, 0 16.03, 0 8.67 M0 8.67 C0 2.89, 2.89 0, 8.67 0 M0 8.67 C0 2.89, 2.89 0, 8.67 0" stroke="#1e1e1e" stroke-width="2" fill="none"/></g><g transform="translate(201.6055149565533 58.40078190323547) rotate(0 5.5615234375 11.5)"><text x="5.5615234375" y="16.900390625" font-family="Helvetica, Segoe UI Emoji" font-size="20px" fill="#1e1e1e" text-anchor="middle" style="white-space: pre;" direction="ltr" dominant-baseline="alphabetic">1</text></g><g stroke-linecap="round" transform="translate(259.16706838233455 52.400781409094805) rotate(0 17.333343505859375 17.5)"><path d="M8.67 0 C15.42 0, 22.16 0, 26 0 C31.78 0, 34.67 2.89, 34.67 8.67 C34.67 14.02, 34.67 19.37, 34.67 26.33 C34.67 32.11, 31.78 35, 26 35 C19.61 35, 13.21 35, 8.67 35 C2.89 35, 0 32.11, 0 26.33 C0 20.14, 0 13.95, 0 8.67 C0 2.89, 2.89 0, 8.67 0" stroke="none" stroke-width="0" fill="#ffc9c9"/><path d="M8.67 0 C12.18 0, 15.69 0, 26 0 M8.67 0 C15.57 0, 22.48 0, 26 0 M26 0 C31.78 0, 34.67 2.89, 34.67 8.67 M26 0 C31.78 0, 34.67 2.89, 34.67 8.67 M34.67 8.67 C34.67 13.63, 34.67 18.59, 34.67 26.33 M34.67 8.67 C34.67 12.77, 34.67 16.86, 34.67 26.33 M34.67 26.33 C34.67 32.11, 31.78 35, 26 35 M34.67 26.33 C34.67 32.11, 31.78 35, 26 35 M26 35 C21.87 35, 17.74 35, 8.67 35 M26 35 C21.31 35, 16.63 35, 8.67 35 M8.67 35 C2.89 35, 0 32.11, 0 26.33 M8.67 35 C2.89 35, 0 32.11, 0 26.33 M0 26.33 C0 21.57, 0 16.8, 0 8.67 M0 26.33 C0 20.53, 0 14.72, 0 8.67 M0 8.67 C0 2.89, 2.89 0, 8.67 0 M0 8.67 C0 2.89, 2.89 0, 8.67 0" stroke="#1e1e1e" stroke-width="2" fill="none"/></g><g transform="translate(270.9388884506939 58.400781409094805) rotate(0 5.5615234375 11.5)"><text x="5.5615234375" y="16.900390625" font-family="Helvetica, Segoe UI Emoji" font-size="20px" fill="#1e1e1e" text-anchor="middle" style="white-space: pre;" direction="ltr" dominant-baseline="alphabetic">0</text></g><g transform="translate(10 10) rotate(0 20.7314453125 11.5)"><text x="0" y="16.900390625" font-family="Helvetica, Segoe UI Emoji" font-size="20px" fill="#1e1e1e" text-anchor="start" style="white-space: pre;" direction="ltr" dominant-baseline="alphabetic">1 Bit</text></g><g transform="translate(126.94781125282034 115.44856657905461) rotate(0 28.7880859375 11.5)"><text x="0" y="16.900390625" font-family="Helvetica, Segoe UI Emoji" font-size="20px" fill="#1e1e1e" text-anchor="start" style="white-space: pre;" direction="ltr" dominant-baseline="alphabetic">1 Byte</text></g><g stroke-linecap="round"><g transform="translate(19.70497092377974 94.47783923173714) rotate(0 132.35553335072387 11.310372086641848)"><path d="M0 0 C23.34 3.77, 95.94 22.46, 140.06 22.62 C184.17 22.78, 243.94 4.57, 264.71 0.96 M0 0 C23.34 3.77, 95.94 22.46, 140.06 22.62 C184.17 22.78, 243.94 4.57, 264.71 0.96" stroke="#1e1e1e" stroke-width="2" fill="none"/></g></g><mask/><g stroke-linecap="round"><g transform="translate(31.708564838139864 31.497720789527335) rotate(0 2.842170943040401e-14 8.333328247070312)"><path d="M0 0 C0 2.78, 0 13.89, 0 16.67 M0 0 C0 2.78, 0 13.89, 0 16.67" stroke="#1e1e1e" stroke-width="2" fill="none"/></g><g transform="translate(31.708564838139864 31.497720789527335) rotate(0 2.842170943040401e-14 8.333328247070312)"><path d="M-2.85 8.84 C-2.21 10.61, -1.56 12.38, 0 16.67 M-2.85 8.84 C-1.79 11.76, -0.72 14.69, 0 16.67" stroke="#1e1e1e" stroke-width="2" fill="none"/></g><g transform="translate(31.708564838139864 31.497720789527335) rotate(0 2.842170943040401e-14 8.333328247070312)"><path d="M2.85 8.84 C2.21 10.61, 1.56 12.38, 0 16.67 M2.85 8.84 C1.79 11.76, 0.72 14.69, 0 16.67" stroke="#1e1e1e" stroke-width="2" fill="none"/></g></g><mask/></svg>