<svg version="1.1" xmlns="http://www.w3.org/2000/svg" viewBox="0 0 853.2499389986561 294.43813056834813" width="853.2499389986561" height="294.43813056834813" filter="invert(93%) hue-rotate(180deg)" class="excalidraw-svg">
  <!-- svg-source:excalidraw -->
  
  <defs>
    <style class="style-fonts">
      
    </style>
    
  </defs>
  <g stroke-linecap="round" transform="translate(10 10) rotate(0 115.00001525878906 47.83332824707031)"><path d="M23.92 0 C84.03 0, 144.14 0, 206.08 0 C222.03 0, 230 7.97, 230 23.92 C230 37.93, 230 51.94, 230 71.75 C230 87.69, 222.03 95.67, 206.08 95.67 C145.74 95.67, 85.4 95.67, 23.92 95.67 C7.97 95.67, 0 87.69, 0 71.75 C0 60.11, 0 48.47, 0 23.92 C0 7.97, 7.97 0, 23.92 0" stroke="none" stroke-width="0" fill="#a5d8ff55"></path><path d="M23.92 0 C83.02 0, 142.11 0, 206.08 0 M23.92 0 C89.72 0, 155.52 0, 206.08 0 M206.08 0 C222.03 0, 230 7.97, 230 23.92 M206.08 0 C222.03 0, 230 7.97, 230 23.92 M230 23.92 C230 38.17, 230 52.42, 230 71.75 M230 23.92 C230 37.11, 230 50.3, 230 71.75 M230 71.75 C230 87.69, 222.03 95.67, 206.08 95.67 M230 71.75 C230 87.69, 222.03 95.67, 206.08 95.67 M206.08 95.67 C136.55 95.67, 67.01 95.67, 23.92 95.67 M206.08 95.67 C165.12 95.67, 124.16 95.67, 23.92 95.67 M23.92 95.67 C7.97 95.67, 0 87.69, 0 71.75 M23.92 95.67 C7.97 95.67, 0 87.69, 0 71.75 M0 71.75 C0 61.8, 0 51.85, 0 23.92 M0 71.75 C0 56.84, 0 41.93, 0 23.92 M0 23.92 C0 7.97, 7.97 0, 23.92 0 M0 23.92 C0 7.97, 7.97 0, 23.92 0" stroke="#1971c2" stroke-width="2" fill="none"></path></g><g transform="translate(58.45216369628906 37.133328247070324) rotate(0 66.5478515625 20.69999999999999)"><text x="66.5478515625" y="30.420703125" font-family="Helvetica, Segoe UI Emoji" font-size="36px" fill="#1971c2" text-anchor="middle" style="white-space: pre;" direction="ltr" dominant-baseline="alphabetic">Eingabe</text></g><g stroke-linecap="round" transform="translate(311.62495424707026 10.000000505859475) rotate(0 115.00001525878906 47.83332824707031)"><path d="M23.92 0 C78.67 0, 133.42 0, 206.08 0 C222.03 0, 230 7.97, 230 23.92 C230 42.08, 230 60.24, 230 71.75 C230 87.69, 222.03 95.67, 206.08 95.67 C142.43 95.67, 78.78 95.67, 23.92 95.67 C7.97 95.67, 0 87.69, 0 71.75 C0 61.24, 0 50.73, 0 23.92 C0 7.97, 7.97 0, 23.92 0" stroke="none" stroke-width="0" fill="#a9ffa355"></path><path d="M23.92 0 C62.25 0, 100.57 0, 206.08 0 M23.92 0 C93.13 0, 162.35 0, 206.08 0 M206.08 0 C222.03 0, 230 7.97, 230 23.92 M206.08 0 C222.03 0, 230 7.97, 230 23.92 M230 23.92 C230 34.08, 230 44.23, 230 71.75 M230 23.92 C230 36.7, 230 49.49, 230 71.75 M230 71.75 C230 87.69, 222.03 95.67, 206.08 95.67 M230 71.75 C230 87.69, 222.03 95.67, 206.08 95.67 M206.08 95.67 C156.87 95.67, 107.66 95.67, 23.92 95.67 M206.08 95.67 C143.22 95.67, 80.35 95.67, 23.92 95.67 M23.92 95.67 C7.97 95.67, 0 87.69, 0 71.75 M23.92 95.67 C7.97 95.67, 0 87.69, 0 71.75 M0 71.75 C0 59.73, 0 47.71, 0 23.92 M0 71.75 C0 59.04, 0 46.34, 0 23.92 M0 23.92 C0 7.97, 7.97 0, 23.92 0 M0 23.92 C0 7.97, 7.97 0, 23.92 0" stroke="#2f9e44" stroke-width="2" fill="none"></path></g><g transform="translate(324.5487976308593 37.1333287529298) rotate(0 102.076171875 20.69999999999999)"><text x="102.076171875" y="30.420703125" font-family="Helvetica, Segoe UI Emoji" font-size="36px" fill="#2f9e44" text-anchor="middle" style="white-space: pre;" direction="ltr" dominant-baseline="alphabetic">Verarbeitung</text></g><g stroke-linecap="round" transform="translate(613.249908481078 10.000001186362852) rotate(0 115.00001525878906 47.83332824707031)"><path d="M23.92 0 C91.31 0, 158.7 0, 206.08 0 C222.03 0, 230 7.97, 230 23.92 C230 37, 230 50.08, 230 71.75 C230 87.69, 222.03 95.67, 206.08 95.67 C158.57 95.67, 111.05 95.67, 23.92 95.67 C7.97 95.67, 0 87.69, 0 71.75 C0 61.39, 0 51.02, 0 23.92 C0 7.97, 7.97 0, 23.92 0" stroke="none" stroke-width="0" fill="#ffa3ac55"></path><path d="M23.92 0 C69.7 0, 115.49 0, 206.08 0 M23.92 0 C66.52 0, 109.12 0, 206.08 0 M206.08 0 C222.03 0, 230 7.97, 230 23.92 M206.08 0 C222.03 0, 230 7.97, 230 23.92 M230 23.92 C230 41.98, 230 60.05, 230 71.75 M230 23.92 C230 42.63, 230 61.34, 230 71.75 M230 71.75 C230 87.69, 222.03 95.67, 206.08 95.67 M230 71.75 C230 87.69, 222.03 95.67, 206.08 95.67 M206.08 95.67 C156.22 95.67, 106.35 95.67, 23.92 95.67 M206.08 95.67 C145.45 95.67, 84.82 95.67, 23.92 95.67 M23.92 95.67 C7.97 95.67, 0 87.69, 0 71.75 M23.92 95.67 C7.97 95.67, 0 87.69, 0 71.75 M0 71.75 C0 53.58, 0 35.41, 0 23.92 M0 71.75 C0 56.32, 0 40.89, 0 23.92 M0 23.92 C0 7.97, 7.97 0, 23.92 0 M0 23.92 C0 7.97, 7.97 0, 23.92 0" stroke="#e03131" stroke-width="2" fill="none"></path></g><g transform="translate(657.1903534273671 37.133329433433175) rotate(0 71.0595703125 20.69999999999999)"><text x="71.0595703125" y="30.420703125" font-family="Helvetica, Segoe UI Emoji" font-size="36px" fill="#e03131" text-anchor="middle" style="white-space: pre;" direction="ltr" dominant-baseline="alphabetic">Ausgabe</text></g><g stroke-linecap="round" transform="translate(311.6249540081633 188.7714740742075) rotate(0 115.00001525878906 47.833328247070305)"><path d="M23.92 0 C87.28 0, 150.63 0, 206.08 0 C222.03 0, 230 7.97, 230 23.92 C230 42.77, 230 61.62, 230 71.75 C230 87.69, 222.03 95.67, 206.08 95.67 C147.3 95.67, 88.51 95.67, 23.92 95.67 C7.97 95.67, 0 87.69, 0 71.75 C0 57.69, 0 43.64, 0 23.92 C0 7.97, 7.97 0, 23.92 0" stroke="none" stroke-width="0" fill="#ffffff55"></path><path d="M23.92 0 C81.52 0, 139.12 0, 206.08 0 M23.92 0 C63.84 0, 103.77 0, 206.08 0 M206.08 0 C222.03 0, 230 7.97, 230 23.92 M206.08 0 C222.03 0, 230 7.97, 230 23.92 M230 23.92 C230 33.99, 230 44.06, 230 71.75 M230 23.92 C230 35.09, 230 46.26, 230 71.75 M230 71.75 C230 87.69, 222.03 95.67, 206.08 95.67 M230 71.75 C230 87.69, 222.03 95.67, 206.08 95.67 M206.08 95.67 C136.53 95.67, 66.98 95.67, 23.92 95.67 M206.08 95.67 C162.54 95.67, 119 95.67, 23.92 95.67 M23.92 95.67 C7.97 95.67, 0 87.69, 0 71.75 M23.92 95.67 C7.97 95.67, 0 87.69, 0 71.75 M0 71.75 C0 53.54, 0 35.33, 0 23.92 M0 71.75 C0 53.89, 0 36.04, 0 23.92 M0 23.92 C0 7.97, 7.97 0, 23.92 0 M0 23.92 C0 7.97, 7.97 0, 23.92 0" stroke="#1e1e1e" stroke-width="2" fill="none"></path></g><g transform="translate(354.57711770445235 215.9048023212778) rotate(0 72.0478515625 20.700000000000003)"><text x="72.0478515625" y="30.420703125" font-family="Helvetica, Segoe UI Emoji" font-size="36px" fill="#1e1e1e" text-anchor="middle" style="white-space: pre;" direction="ltr" dominant-baseline="alphabetic">Speicher</text></g><g stroke-linecap="round"><g transform="translate(247.55580437572598 53.055783851796264) rotate(0 27.140620314640415 0)"><path d="M0 0 C9.05 0, 45.23 0, 54.28 0 M0 0 C9.05 0, 45.23 0, 54.28 0" stroke="#1e1e1e" stroke-width="2" fill="none"></path></g><g transform="translate(247.55580437572598 53.055783851796264) rotate(0 27.140620314640415 0)"><path d="M54.28 0 L40.69 6.34 L40.69 -6.34 L54.28 0" stroke="none" stroke-width="0" fill="#1e1e1e" fill-rule="evenodd"></path><path d="M54.28 0 C49.05 2.44, 43.82 4.88, 40.69 6.34 M54.28 0 C49.57 2.19, 44.87 4.39, 40.69 6.34 M40.69 6.34 C40.69 1.55, 40.69 -3.24, 40.69 -6.34 M40.69 6.34 C40.69 1.38, 40.69 -3.58, 40.69 -6.34 M40.69 -6.34 C45.88 -3.92, 51.07 -1.5, 54.28 0 M40.69 -6.34 C43.74 -4.91, 46.8 -3.49, 54.28 0 M54.28 0 C54.28 0, 54.28 0, 54.28 0 M54.28 0 C54.28 0, 54.28 0, 54.28 0" stroke="#1e1e1e" stroke-width="2" fill="none"></path></g></g><mask></mask><g stroke-linecap="round"><g transform="translate(550.7409179692551 58.1781662537004) rotate(0 27.140620314640444 0)"><path d="M0 0 C9.05 0, 45.23 0, 54.28 0 M0 0 C9.05 0, 45.23 0, 54.28 0" stroke="#1e1e1e" stroke-width="2" fill="none"></path></g><g transform="translate(550.7409179692551 58.1781662537004) rotate(0 27.140620314640444 0)"><path d="M54.28 0 L40.69 6.34 L40.69 -6.34 L54.28 0" stroke="none" stroke-width="0" fill="#1e1e1e" fill-rule="evenodd"></path><path d="M54.28 0 C49.13 2.4, 43.99 4.8, 40.69 6.34 M54.28 0 C50.28 1.87, 46.27 3.73, 40.69 6.34 M40.69 6.34 C40.69 1.54, 40.69 -3.26, 40.69 -6.34 M40.69 6.34 C40.69 2.91, 40.69 -0.52, 40.69 -6.34 M40.69 -6.34 C46.05 -3.84, 51.41 -1.34, 54.28 0 M40.69 -6.34 C46.04 -3.84, 51.39 -1.35, 54.28 0 M54.28 0 C54.28 0, 54.28 0, 54.28 0 M54.28 0 C54.28 0, 54.28 0, 54.28 0" stroke="#1e1e1e" stroke-width="2" fill="none"></path></g></g><mask></mask><g stroke-linecap="round"><g transform="translate(420.7522259149123 115.17141819707072) rotate(0 -7.414718754252505 31.057842789127577)"><path d="M0 0 C-2.75 4.57, -16.79 17.07, -16.51 27.42 C-16.23 37.77, -1.35 56.33, 1.68 62.12 M0 0 C-2.75 4.57, -16.79 17.07, -16.51 27.42 C-16.23 37.77, -1.35 56.33, 1.68 62.12" stroke="#1e1e1e" stroke-width="2" fill="none"></path></g><g transform="translate(420.7522259149123 115.17141819707072) rotate(0 -7.414718754252505 31.057842789127577)"><path d="M1.68 62.12 L-11.01 54.12 L-0.36 47.25 L1.68 62.12" stroke="none" stroke-width="0" fill="#1e1e1e" fill-rule="evenodd"></path><path d="M1.68 62.12 C-1.47 60.13, -4.62 58.15, -11.01 54.12 M1.68 62.12 C-1.36 60.2, -4.4 58.29, -11.01 54.12 M-11.01 54.12 C-8.77 52.68, -6.53 51.23, -0.36 47.25 M-11.01 54.12 C-8.53 52.52, -6.04 50.91, -0.36 47.25 M-0.36 47.25 C0.19 51.27, 0.74 55.28, 1.68 62.12 M-0.36 47.25 C0.35 52.38, 1.05 57.51, 1.68 62.12 M1.68 62.12 C1.68 62.12, 1.68 62.12, 1.68 62.12 M1.68 62.12 C1.68 62.12, 1.68 62.12, 1.68 62.12" stroke="#1e1e1e" stroke-width="2" fill="none"></path></g></g><mask></mask><g stroke-linecap="round"><g transform="translate(450.55295287650245 116.01076812055283) rotate(180 -7.414718754252505 31.05784278912759)"><path d="M0 0 C-2.75 4.57, -16.79 17.07, -16.51 27.42 C-16.23 37.77, -1.35 56.33, 1.68 62.12 M0 0 C-2.75 4.57, -16.79 17.07, -16.51 27.42 C-16.23 37.77, -1.35 56.33, 1.68 62.12" stroke="#1e1e1e" stroke-width="2" fill="none"></path></g><g transform="translate(450.55295287650245 116.01076812055283) rotate(180 -7.414718754252505 31.05784278912759)"><path d="M1.68 62.12 L-11.01 54.12 L-0.36 47.25 L1.68 62.12" stroke="none" stroke-width="0" fill="#1e1e1e" fill-rule="evenodd"></path><path d="M1.68 62.12 C-2.1 59.73, -5.88 57.35, -11.01 54.12 M1.68 62.12 C-1.82 59.91, -5.32 57.71, -11.01 54.12 M-11.01 54.12 C-8.37 52.42, -5.73 50.72, -0.36 47.25 M-11.01 54.12 C-8.31 52.38, -5.61 50.64, -0.36 47.25 M-0.36 47.25 C0.42 52.94, 1.2 58.62, 1.68 62.12 M-0.36 47.25 C0.36 52.49, 1.08 57.73, 1.68 62.12 M1.68 62.12 C1.68 62.12, 1.68 62.12, 1.68 62.12 M1.68 62.12 C1.68 62.12, 1.68 62.12, 1.68 62.12" stroke="#1e1e1e" stroke-width="2" fill="none"></path></g></g><mask></mask></svg>