<svg version="1.1" xmlns="http://www.w3.org/2000/svg" viewBox="0 0 524.8310220392025 170.27081627353414" width="524.8310220392025" height="170.27081627353414" class="excalidraw-svg">
  <!-- svg-source:excalidraw -->
  
  <defs>
    <style class="style-fonts">
      
    </style>
    
  </defs>
  <g stroke-linecap="round"><g transform="translate(110.21145952656752 54.39559697337188) rotate(0 48.65188746018288 52.93760965008113)" fill-rule="evenodd"><path d="M0 0 L0 5.69 L0 100.19 L0 105.88 L4.98 103.36 L97.3 57.36 L96.49 48.11 L4.98 2.51 L0 0 L0 0" stroke="none" stroke-width="0" fill="black" fill-rule="evenodd"></path><path d="M0 0 C0 1.27, 0 2.55, 0 5.69 M0 0 C0 1.8, 0 3.6, 0 5.69 M0 5.69 C0 42.47, 0 79.26, 0 100.19 M0 5.69 C0 34.89, 0 64.09, 0 100.19 M0 100.19 C0 101.46, 0 102.72, 0 105.88 M0 100.19 C0 101.61, 0 103.04, 0 105.88 M0 105.88 C1.39 105.18, 2.78 104.48, 4.98 103.36 M0 105.88 C1.7 105.02, 3.4 104.16, 4.98 103.36 M4.98 103.36 C31.85 89.98, 58.72 76.59, 97.3 57.36 M4.98 103.36 C24.76 93.51, 44.53 83.66, 97.3 57.36 M97.3 57.36 C97 53.89, 96.69 50.42, 96.49 48.11 M97.3 57.36 C97.08 54.78, 96.85 52.2, 96.49 48.11 M96.49 48.11 C66.06 32.95, 35.64 17.79, 4.98 2.51 M96.49 48.11 C62.37 31.11, 28.25 14.11, 4.98 2.51 M4.98 2.51 C3.73 1.88, 2.47 1.25, 0 0 M4.98 2.51 C3.47 1.75, 1.95 0.98, 0 0 M0 0 C0 0, 0 0, 0 0 M0 0 C0 0, 0 0, 0 0 M0 0 C0 0, 0 0, 0 0 M0 0 C0 0, 0 0, 0 0" stroke="#000000" stroke-width="1" fill="none"></path></g></g><mask></mask><g stroke-linecap="round"><g transform="translate(117.5569234680072 65.7657390739472) rotate(0 41.53386817971288 41.56746754950582)" fill-rule="evenodd"><path d="M0 0 L83.07 41.57 L0 83.13 L0 0 L0 0" stroke="none" stroke-width="0" fill="#FFFFFF" fill-rule="evenodd"></path><path d="M0 0 C18.09 9.05, 36.18 18.11, 83.07 41.57 M0 0 C19.02 9.52, 38.03 19.03, 83.07 41.57 M83.07 41.57 C54.08 56.07, 25.09 70.58, 0 83.13 M83.07 41.57 C56.24 54.99, 29.4 68.42, 0 83.13 M0 83.13 C0 60.15, 0 37.16, 0 0 M0 83.13 C0 52.63, 0 22.13, 0 0 M0 0 C0 0, 0 0, 0 0 M0 0 C0 0, 0 0, 0 0 M0 0 C0 0, 0 0, 0 0 M0 0 C0 0, 0 0, 0 0" stroke="#000000" stroke-width="1" fill="none"></path></g></g><mask></mask><g stroke-linecap="round"><g transform="translate(224.69613880249926 107.33320662345301) rotate(0 -9.450507719958694 0)"><path d="M0 0 C0 0, 0 0, 0 0 M0 0 C0 0, 0 0, 0 0 M0 0 C-0.11 0.8, -0.22 1.61, -0.35 2.59 M0 0 C-0.11 0.84, -0.23 1.67, -0.35 2.59 M-0.35 2.59 C-0.61 3.19, -0.87 3.8, -1.33 4.86 M-0.35 2.59 C-0.58 3.12, -0.8 3.64, -1.33 4.86 M-1.33 4.86 C-1.9 5.58, -2.47 6.3, -2.82 6.75 M-1.33 4.86 C-1.7 5.33, -2.07 5.8, -2.82 6.75 M-2.82 6.75 C-3.46 7.22, -4.09 7.7, -4.73 8.18 M-2.82 6.75 C-3.24 7.06, -3.65 7.37, -4.73 8.18 M-4.73 8.18 C-5.22 8.39, -5.71 8.6, -6.92 9.11 M-4.73 8.18 C-5.19 8.38, -5.66 8.58, -6.92 9.11 M-6.92 9.11 C-7.6 9.21, -8.28 9.31, -9.3 9.46 M-6.92 9.11 C-7.86 9.25, -8.79 9.39, -9.3 9.46 M-9.3 9.46 C-10 9.38, -10.7 9.3, -11.76 9.18 M-9.3 9.46 C-10.16 9.36, -11.01 9.26, -11.76 9.18 M-11.76 9.18 C-12.28 8.96, -12.81 8.74, -14.18 8.18 M-11.76 9.18 C-12.57 8.84, -13.39 8.51, -14.18 8.18 M-14.18 8.18 C-14.81 7.69, -15.45 7.2, -16.15 6.67 M-14.18 8.18 C-14.67 7.8, -15.16 7.42, -16.15 6.67 M-16.15 6.67 C-16.71 5.93, -17.28 5.19, -17.63 4.73 M-16.15 6.67 C-16.5 6.2, -16.86 5.74, -17.63 4.73 M-17.63 4.73 C-17.93 4.02, -18.22 3.31, -18.57 2.47 M-17.63 4.73 C-17.9 4.1, -18.16 3.47, -18.57 2.47 M-18.57 2.47 C-18.67 1.74, -18.77 1.01, -18.9 0 M-18.57 2.47 C-18.7 1.48, -18.84 0.5, -18.9 0 M-18.9 0 C-18.78 -0.9, -18.66 -1.79, -18.55 -2.59 M-18.9 0 C-18.81 -0.64, -18.73 -1.28, -18.55 -2.59 M-18.55 -2.59 C-18.31 -3.14, -18.07 -3.69, -17.57 -4.86 M-18.55 -2.59 C-18.23 -3.33, -17.91 -4.07, -17.57 -4.86 M-17.57 -4.86 C-17.09 -5.46, -16.61 -6.07, -16.08 -6.75 M-17.57 -4.86 C-17.07 -5.5, -16.56 -6.14, -16.08 -6.75 M-16.08 -6.75 C-15.37 -7.28, -14.66 -7.82, -14.18 -8.18 M-16.08 -6.75 C-15.62 -7.09, -15.16 -7.44, -14.18 -8.18 M-14.18 -8.18 C-13.61 -8.42, -13.05 -8.66, -11.98 -9.11 M-14.18 -8.18 C-13.32 -8.54, -12.47 -8.9, -11.98 -9.11 M-11.98 -9.11 C-11.04 -9.25, -10.11 -9.39, -9.6 -9.46 M-11.98 -9.11 C-11.08 -9.24, -10.18 -9.38, -9.6 -9.46 M-9.6 -9.46 C-8.67 -9.35, -7.73 -9.24, -7.14 -9.18 M-9.6 -9.46 C-8.62 -9.35, -7.64 -9.23, -7.14 -9.18 M-7.14 -9.18 C-6.46 -8.9, -5.78 -8.62, -4.73 -8.18 M-7.14 -9.18 C-6.47 -8.9, -5.79 -8.62, -4.73 -8.18 M-4.73 -8.18 C-4.25 -7.82, -3.78 -7.46, -2.75 -6.67 M-4.73 -8.18 C-4.27 -7.83, -3.81 -7.48, -2.75 -6.67 M-2.75 -6.67 C-2.2 -5.94, -1.64 -5.21, -1.27 -4.73 M-2.75 -6.67 C-2.31 -6.09, -1.86 -5.5, -1.27 -4.73 M-1.27 -4.73 C-0.9 -3.84, -0.53 -2.96, -0.33 -2.47 M-1.27 -4.73 C-0.98 -4.03, -0.69 -3.34, -0.33 -2.47 M-0.33 -2.47 C-0.24 -1.78, -0.15 -1.1, 0 0 M-0.33 -2.47 C-0.23 -1.72, -0.13 -0.97, 0 0 M0 0 C0 0, 0 0, 0 0 M0 0 C0 0, 0 0, 0 0" stroke="#000000" stroke-width="3" fill="none"></path></g></g><mask></mask><g stroke-linecap="round"><g transform="translate(293.6630990834533 10) rotate(0 63.956581051872625 63.204153523082496)" fill-rule="evenodd"><path d="M0 0 L0 4.51 L0 121.89 L0 126.41 L4.51 126.41 L64.71 126.41 L64.71 126.41 L71.29 126.08 L77.65 125.12 L83.76 123.55 L89.61 121.42 L95.15 118.75 L100.36 115.58 L109.66 107.84 L117.3 98.48 L123.05 87.75 L125.13 81.95 L126.66 75.9 L127.59 69.64 L127.91 63.2 L127.59 56.77 L126.66 50.51 L125.13 44.46 L123.05 38.66 L117.3 27.93 L109.66 18.57 L100.36 10.83 L95.15 7.66 L89.61 4.99 L83.76 2.85 L77.65 1.29 L71.29 0.33 L64.71 0 L64.59 0 L63.77 0 L61.53 0 L59.67 0 L57.18 0 L54 0 L50.01 0 L45.15 0 L39.31 0 L32.42 0 L24.38 0 L15.11 0 L4.51 0 L0 0 L0 0" stroke="none" stroke-width="0" fill="black" fill-rule="evenodd"></path><path d="M0 0 C0 1.38, 0 2.75, 0 4.51 M0 0 C0 1.09, 0 2.18, 0 4.51 M0 4.51 C0 50.03, 0 95.54, 0 121.89 M0 4.51 C0 31.06, 0 57.61, 0 121.89 M0 121.89 C0 123.19, 0 124.48, 0 126.41 M0 121.89 C0 122.83, 0 123.76, 0 126.41 M0 126.41 C1.29 126.41, 2.58 126.41, 4.51 126.41 M0 126.41 C1.61 126.41, 3.22 126.41, 4.51 126.41 M4.51 126.41 C26.41 126.41, 48.3 126.41, 64.71 126.41 M4.51 126.41 C23.72 126.41, 42.93 126.41, 64.71 126.41 M64.71 126.41 C64.71 126.41, 64.71 126.41, 64.71 126.41 M64.71 126.41 C64.71 126.41, 64.71 126.41, 64.71 126.41 M64.71 126.41 C66.43 126.32, 68.15 126.24, 71.29 126.08 M64.71 126.41 C67.07 126.29, 69.44 126.17, 71.29 126.08 M71.29 126.08 C73.45 125.75, 75.62 125.43, 77.65 125.12 M71.29 126.08 C73.67 125.72, 76.04 125.36, 77.65 125.12 M77.65 125.12 C79.61 124.62, 81.57 124.12, 83.76 123.55 M77.65 125.12 C79.29 124.7, 80.92 124.28, 83.76 123.55 M83.76 123.55 C84.94 123.13, 86.12 122.7, 89.61 121.42 M83.76 123.55 C85.62 122.88, 87.47 122.2, 89.61 121.42 M89.61 121.42 C91.79 120.37, 93.97 119.32, 95.15 118.75 M89.61 121.42 C90.97 120.76, 92.34 120.1, 95.15 118.75 M95.15 118.75 C96.33 118.03, 97.52 117.3, 100.36 115.58 M95.15 118.75 C96.57 117.88, 98 117.01, 100.36 115.58 M100.36 115.58 C103.62 112.87, 106.88 110.16, 109.66 107.84 M100.36 115.58 C102.77 113.57, 105.18 111.57, 109.66 107.84 M109.66 107.84 C111.44 105.66, 113.22 103.48, 117.3 98.48 M109.66 107.84 C112.33 104.57, 115 101.3, 117.3 98.48 M117.3 98.48 C119.44 94.49, 121.57 90.5, 123.05 87.75 M117.3 98.48 C119.19 94.96, 121.07 91.44, 123.05 87.75 M123.05 87.75 C123.86 85.47, 124.68 83.19, 125.13 81.95 M123.05 87.75 C123.59 86.24, 124.13 84.73, 125.13 81.95 M125.13 81.95 C125.52 80.41, 125.91 78.88, 126.66 75.9 M125.13 81.95 C125.5 80.5, 125.86 79.06, 126.66 75.9 M126.66 75.9 C126.98 73.72, 127.31 71.55, 127.59 69.64 M126.66 75.9 C126.88 74.44, 127.1 72.97, 127.59 69.64 M127.59 69.64 C127.69 67.67, 127.79 65.69, 127.91 63.2 M127.59 69.64 C127.67 68.12, 127.75 66.59, 127.91 63.2 M127.91 63.2 C127.82 61.25, 127.72 59.3, 127.59 56.77 M127.91 63.2 C127.81 61.21, 127.72 59.21, 127.59 56.77 M127.59 56.77 C127.36 55.17, 127.12 53.57, 126.66 50.51 M127.59 56.77 C127.29 54.7, 126.98 52.64, 126.66 50.51 M126.66 50.51 C126.16 48.52, 125.66 46.54, 125.13 44.46 M126.66 50.51 C126.3 49.07, 125.93 47.64, 125.13 44.46 M125.13 44.46 C124.43 42.5, 123.72 40.55, 123.05 38.66 M125.13 44.46 C124.33 42.24, 123.53 40.02, 123.05 38.66 M123.05 38.66 C121.58 35.93, 120.12 33.2, 117.3 27.93 M123.05 38.66 C120.88 34.62, 118.72 30.58, 117.3 27.93 M117.3 27.93 C115.73 26, 114.16 24.07, 109.66 18.57 M117.3 27.93 C115.57 25.8, 113.83 23.67, 109.66 18.57 M109.66 18.57 C106.13 15.63, 102.6 12.69, 100.36 10.83 M109.66 18.57 C105.95 15.48, 102.24 12.39, 100.36 10.83 M100.36 10.83 C99.18 10.11, 98 9.39, 95.15 7.66 M100.36 10.83 C98.53 9.72, 96.7 8.6, 95.15 7.66 M95.15 7.66 C93.13 6.68, 91.11 5.71, 89.61 4.99 M95.15 7.66 C93 6.62, 90.85 5.59, 89.61 4.99 M89.61 4.99 C87.39 4.18, 85.16 3.36, 83.76 2.85 M89.61 4.99 C88.41 4.55, 87.22 4.12, 83.76 2.85 M83.76 2.85 C81.72 2.33, 79.68 1.81, 77.65 1.29 M83.76 2.85 C81.71 2.33, 79.66 1.81, 77.65 1.29 M77.65 1.29 C75.35 0.94, 73.05 0.59, 71.29 0.33 M77.65 1.29 C75.75 1, 73.85 0.71, 71.29 0.33 M71.29 0.33 C68.8 0.2, 66.32 0.08, 64.71 0 M71.29 0.33 C69.67 0.25, 68.05 0.17, 64.71 0 M64.71 0 C64.68 0, 64.64 0, 64.59 0 M64.71 0 C64.67 0, 64.64 0, 64.59 0 M64.59 0 C64.39 0, 64.18 0, 63.77 0 M64.59 0 C64.4 0, 64.2 0, 63.77 0 M63.77 0 C62.98 0, 62.18 0, 61.53 0 M63.77 0 C62.96 0, 62.15 0, 61.53 0 M61.53 0 C61.05 0, 60.56 0, 59.67 0 M61.53 0 C61.1 0, 60.67 0, 59.67 0 M59.67 0 C59.11 0, 58.54 0, 57.18 0 M59.67 0 C58.78 0, 57.9 0, 57.18 0 M57.18 0 C56.54 0, 55.89 0, 54 0 M57.18 0 C56.33 0, 55.48 0, 54 0 M54 0 C53.02 0, 52.05 0, 50.01 0 M54 0 C53.01 0, 52.02 0, 50.01 0 M50.01 0 C48.98 0, 47.94 0, 45.15 0 M50.01 0 C48.1 0, 46.19 0, 45.15 0 M45.15 0 C42.97 0, 40.79 0, 39.31 0 M45.15 0 C43.1 0, 41.05 0, 39.31 0 M39.31 0 C37.22 0, 35.12 0, 32.42 0 M39.31 0 C36.77 0, 34.23 0, 32.42 0 M32.42 0 C30.06 0, 27.71 0, 24.38 0 M32.42 0 C30.47 0, 28.52 0, 24.38 0 M24.38 0 C22.08 0, 19.77 0, 15.11 0 M24.38 0 C21.02 0, 17.66 0, 15.11 0 M15.11 0 C11.97 0, 8.84 0, 4.51 0 M15.11 0 C12.35 0, 9.59 0, 4.51 0 M4.51 0 C3.23 0, 1.95 0, 0 0 M4.51 0 C3.36 0, 2.2 0, 0 0 M0 0 C0 0, 0 0, 0 0 M0 0 C0 0, 0 0, 0 0 M0 0 C0 0, 0 0, 0 0 M0 0 C0 0, 0 0, 0 0" stroke="#000000" stroke-width="1" fill="none"></path></g></g><mask></mask><g stroke-linecap="round"><g transform="translate(302.6922655946414 19.02916500428387) rotate(0 54.174993039511996 54.17498776534643)" fill-rule="evenodd"><path d="M0 0 L0 0 L9.02 0 L17.19 0 L24.5 0 L30.95 0 L36.54 0 L41.27 0 L45.15 0 L48.16 0 L50.64 0 L52.51 0 L54.74 0 L55.59 0 L55.68 0 L66.8 1.1 L76.92 4.24 L85.9 9.22 L93.58 15.83 L99.82 23.84 L104.46 33.04 L107.35 43.22 L108.35 54.17 L107.29 65.13 L104.22 75.31 L99.34 84.51 L92.83 92.52 L84.87 99.13 L75.65 104.11 L65.36 107.25 L54.17 108.35 L0 108.35 L0 0 L0 0" stroke="none" stroke-width="0" fill="#FFFFFF" fill-rule="evenodd"></path><path d="M0 0 C0 0, 0 0, 0 0 M0 0 C0 0, 0 0, 0 0 M0 0 C1.86 0, 3.73 0, 9.02 0 M0 0 C3.14 0, 6.29 0, 9.02 0 M9.02 0 C11.87 0, 14.71 0, 17.19 0 M9.02 0 C10.66 0, 12.29 0, 17.19 0 M17.19 0 C19.44 0, 21.7 0, 24.5 0 M17.19 0 C19.69 0, 22.19 0, 24.5 0 M24.5 0 C26.56 0, 28.63 0, 30.95 0 M24.5 0 C25.87 0, 27.24 0, 30.95 0 M30.95 0 C32.55 0, 34.14 0, 36.54 0 M30.95 0 C32.86 0, 34.77 0, 36.54 0 M36.54 0 C37.87 0, 39.2 0, 41.27 0 M36.54 0 C38.42 0, 40.3 0, 41.27 0 M41.27 0 C42.66 0, 44.05 0, 45.15 0 M41.27 0 C42.56 0, 43.85 0, 45.15 0 M45.15 0 C45.89 0, 46.63 0, 48.16 0 M45.15 0 C45.85 0, 46.56 0, 48.16 0 M48.16 0 C49.05 0, 49.94 0, 50.64 0 M48.16 0 C48.81 0, 49.47 0, 50.64 0 M50.64 0 C51.19 0, 51.74 0, 52.51 0 M50.64 0 C51.23 0, 51.81 0, 52.51 0 M52.51 0 C53.03 0, 53.56 0, 54.74 0 M52.51 0 C53.27 0, 54.04 0, 54.74 0 M54.74 0 C54.96 0, 55.19 0, 55.59 0 M54.74 0 C54.94 0, 55.14 0, 55.59 0 M55.59 0 C55.62 0, 55.65 0, 55.68 0 M55.59 0 C55.62 0, 55.65 0, 55.68 0 M55.68 0 C58.65 0.29, 61.63 0.59, 66.8 1.1 M55.68 0 C59.19 0.35, 62.69 0.69, 66.8 1.1 M66.8 1.1 C70.67 2.3, 74.53 3.5, 76.92 4.24 M66.8 1.1 C69.67 1.99, 72.54 2.88, 76.92 4.24 M76.92 4.24 C80.25 6.09, 83.57 7.93, 85.9 9.22 M76.92 4.24 C79.37 5.6, 81.81 6.96, 85.9 9.22 M85.9 9.22 C87.55 10.64, 89.21 12.07, 93.58 15.83 M85.9 9.22 C88.7 11.63, 91.5 14.04, 93.58 15.83 M93.58 15.83 C95.51 18.3, 97.43 20.77, 99.82 23.84 M93.58 15.83 C95.72 18.57, 97.85 21.31, 99.82 23.84 M99.82 23.84 C101.01 26.2, 102.2 28.56, 104.46 33.04 M99.82 23.84 C100.91 26, 102 28.17, 104.46 33.04 M104.46 33.04 C105.56 36.92, 106.66 40.79, 107.35 43.22 M104.46 33.04 C105.53 36.8, 106.59 40.56, 107.35 43.22 M107.35 43.22 C107.67 46.77, 108 50.31, 108.35 54.17 M107.35 43.22 C107.66 46.61, 107.97 49.99, 108.35 54.17 M108.35 54.17 C107.98 58, 107.61 61.82, 107.29 65.13 M108.35 54.17 C108.02 57.56, 107.69 60.95, 107.29 65.13 M107.29 65.13 C106.22 68.67, 105.15 72.21, 104.22 75.31 M107.29 65.13 C106.49 67.77, 105.7 70.41, 104.22 75.31 M104.22 75.31 C102.56 78.44, 100.9 81.57, 99.34 84.51 M104.22 75.31 C102.61 78.34, 101 81.38, 99.34 84.51 M99.34 84.51 C97.54 86.73, 95.74 88.94, 92.83 92.52 M99.34 84.51 C97.25 87.08, 95.16 89.65, 92.83 92.52 M92.83 92.52 C90.09 94.8, 87.35 97.07, 84.87 99.13 M92.83 92.52 C90.38 94.56, 87.93 96.59, 84.87 99.13 M84.87 99.13 C81.47 100.97, 78.07 102.8, 75.65 104.11 M84.87 99.13 C81.28 101.07, 77.7 103, 75.65 104.11 M75.65 104.11 C72.39 105.11, 69.12 106.1, 65.36 107.25 M75.65 104.11 C72.23 105.15, 68.81 106.2, 65.36 107.25 M65.36 107.25 C62 107.58, 58.65 107.91, 54.17 108.35 M65.36 107.25 C61.77 107.61, 58.18 107.96, 54.17 108.35 M54.17 108.35 C39.17 108.35, 24.17 108.35, 0 108.35 M54.17 108.35 C43.19 108.35, 32.21 108.35, 0 108.35 M0 108.35 C0 80.43, 0 52.5, 0 0 M0 108.35 C0 82.97, 0 57.59, 0 0 M0 0 C0 0, 0 0, 0 0 M0 0 C0 0, 0 0, 0 0 M0 0 C0 0, 0 0, 0 0 M0 0 C0 0, 0 0, 0 0" stroke="#000000" stroke-width="1" fill="none"></path></g></g><mask></mask><g transform="translate(11.664590960176156 26.015020886601235) rotate(0 10 16.373099909978976)"><text x="0" y="24.061894280069318" font-family="Helvetica, Segoe UI Emoji" font-size="28.47495636518084px" fill="#1e1e1e" text-anchor="start" style="white-space: pre;" direction="ltr" dominant-baseline="alphabetic">A</text></g><g transform="translate(10 91.8337123944275) rotate(0 9.5 16.373099909978976)"><text x="0" y="24.061894280069318" font-family="Helvetica, Segoe UI Emoji" font-size="28.47495636518084px" fill="#1e1e1e" text-anchor="start" style="white-space: pre;" direction="ltr" dominant-baseline="alphabetic">B</text></g><g transform="translate(475.1637246759212 56.142484420503024) rotate(0 19.833648681640625 16.373099909978976)"><text x="0" y="24.061894280069318" font-family="Helvetica, Segoe UI Emoji" font-size="28.47495636518084px" fill="#1e1e1e" text-anchor="start" style="white-space: pre;" direction="ltr" dominant-baseline="alphabetic">out</text></g><g stroke-linecap="round"><g transform="translate(44.46619990704244 107.51221775844084) rotate(0 33.766703256151516 0)"><path d="M0 0 C11.26 0, 56.28 0, 67.53 0 M0 0 C11.26 0, 56.28 0, 67.53 0" stroke="#000000" stroke-width="4" fill="none"></path></g></g><mask></mask><g stroke-linecap="round"><g transform="translate(41.57191841707231 40.87857606844807) rotate(0 126.62515561196105 0)"><path d="M0 0 C42.21 0, 211.04 0, 253.25 0 M0 0 C42.21 0, 211.04 0, 253.25 0" stroke="#000000" stroke-width="4" fill="none"></path></g></g><mask></mask><g stroke-linecap="round"><g transform="translate(225.84166398231355 107.51221775844084) rotate(0 34.49028282934049 0)"><path d="M0 0 C11.5 0, 57.48 0, 68.98 0 M0 0 C11.5 0, 57.48 0, 68.98 0" stroke="#000000" stroke-width="4" fill="none"></path></g></g><mask></mask><g stroke-linecap="round"><g transform="translate(419.7590022465263 72.51558433048206) rotate(0 24.119073754393924 0)"><path d="M0 0 C8.04 0, 40.2 0, 48.24 0 M0 0 C8.04 0, 40.2 0, 48.24 0" stroke="#000000" stroke-width="4" fill="none"></path></g></g><mask></mask></svg>