<svg version="1.1" xmlns="http://www.w3.org/2000/svg" viewBox="0 0 669.3175137378289 218.84849311347557" width="669.3175137378289" height="218.84849311347557" class="excalidraw-svg">
  <!-- svg-source:excalidraw -->
  
  <defs>
    <style class="style-fonts">
      
    </style>
    
  </defs>
  <g stroke-linecap="round"><g transform="translate(394.37190515743856 55.0821935468654) rotate(0 77.79842188446419 76.88314978330509)" fill-rule="evenodd"><path d="M0 0 L0 5.49 L0 148.27 L0 153.77 L5.49 153.77 L78.71 153.77 L78.71 153.77 L86.72 153.37 L94.45 152.2 L101.89 150.29 L109 147.7 L115.74 144.45 L122.08 140.59 L133.4 131.18 L142.69 119.79 L149.68 106.74 L152.21 99.68 L154.07 92.33 L155.21 84.72 L155.6 76.88 L155.21 69.05 L154.07 61.44 L152.21 54.09 L149.68 47.03 L142.69 33.97 L133.4 22.58 L122.08 13.18 L115.74 9.31 L109 6.07 L101.89 3.47 L94.45 1.57 L86.72 0.4 L78.71 0 L78.57 0 L77.57 0 L74.85 0 L72.58 0 L69.56 0 L65.68 0 L60.84 0 L54.92 0 L47.82 0 L39.44 0 L29.66 0 L18.38 0 L5.49 0 L0 0 L0 0" stroke="none" stroke-width="0" fill="black" fill-rule="evenodd"></path><path d="M0 0 C0 1.66, 0 3.33, 0 5.49 M0 0 C0 2.03, 0 4.05, 0 5.49 M0 5.49 C0 48.46, 0 91.43, 0 148.27 M0 5.49 C0 49.39, 0 93.28, 0 148.27 M0 148.27 C0 150.31, 0 152.35, 0 153.77 M0 148.27 C0 149.8, 0 151.32, 0 153.77 M0 153.77 C1.16 153.77, 2.33 153.77, 5.49 153.77 M0 153.77 C1.99 153.77, 3.99 153.77, 5.49 153.77 M5.49 153.77 C31.89 153.77, 58.3 153.77, 78.71 153.77 M5.49 153.77 C28.4 153.77, 51.31 153.77, 78.71 153.77 M78.71 153.77 C78.71 153.77, 78.71 153.77, 78.71 153.77 M78.71 153.77 C78.71 153.77, 78.71 153.77, 78.71 153.77 M78.71 153.77 C80.75 153.66, 82.8 153.56, 86.72 153.37 M78.71 153.77 C80.93 153.66, 83.15 153.54, 86.72 153.37 M86.72 153.37 C89.17 153, 91.62 152.63, 94.45 152.2 M86.72 153.37 C89.06 153.01, 91.41 152.66, 94.45 152.2 M94.45 152.2 C97.15 151.51, 99.85 150.82, 101.89 150.29 M94.45 152.2 C96.48 151.68, 98.52 151.16, 101.89 150.29 M101.89 150.29 C104.03 149.51, 106.17 148.73, 109 147.7 M101.89 150.29 C103.44 149.73, 104.99 149.16, 109 147.7 M109 147.7 C110.44 147.01, 111.88 146.31, 115.74 144.45 M109 147.7 C110.37 147.04, 111.74 146.38, 115.74 144.45 M115.74 144.45 C117.78 143.21, 119.82 141.96, 122.08 140.59 M115.74 144.45 C117.01 143.67, 118.29 142.9, 122.08 140.59 M122.08 140.59 C125.05 138.12, 128.03 135.64, 133.4 131.18 M122.08 140.59 C125.17 138.02, 128.26 135.45, 133.4 131.18 M133.4 131.18 C135.8 128.24, 138.2 125.3, 142.69 119.79 M133.4 131.18 C135.68 128.38, 137.97 125.58, 142.69 119.79 M142.69 119.79 C145.4 114.72, 148.12 109.65, 149.68 106.74 M142.69 119.79 C144.72 116.01, 146.74 112.22, 149.68 106.74 M149.68 106.74 C150.6 104.18, 151.52 101.62, 152.21 99.68 M149.68 106.74 C150.68 103.93, 151.69 101.12, 152.21 99.68 M152.21 99.68 C152.94 96.8, 153.67 93.92, 154.07 92.33 M152.21 99.68 C152.89 97.02, 153.56 94.36, 154.07 92.33 M154.07 92.33 C154.48 89.59, 154.89 86.85, 155.21 84.72 M154.07 92.33 C154.36 90.4, 154.65 88.47, 155.21 84.72 M155.21 84.72 C155.32 82.39, 155.44 80.06, 155.6 76.88 M155.21 84.72 C155.36 81.59, 155.52 78.46, 155.6 76.88 M155.6 76.88 C155.46 74.15, 155.33 71.41, 155.21 69.05 M155.6 76.88 C155.5 74.84, 155.39 72.8, 155.21 69.05 M155.21 69.05 C154.92 67.13, 154.63 65.2, 154.07 61.44 M155.21 69.05 C154.97 67.43, 154.72 65.81, 154.07 61.44 M154.07 61.44 C153.51 59.21, 152.94 56.97, 152.21 54.09 M154.07 61.44 C153.66 59.82, 153.25 58.2, 152.21 54.09 M152.21 54.09 C151.63 52.46, 151.04 50.83, 149.68 47.03 M152.21 54.09 C151.66 52.56, 151.11 51.03, 149.68 47.03 M149.68 47.03 C147.1 42.22, 144.53 37.41, 142.69 33.97 M149.68 47.03 C147 42.03, 144.33 37.03, 142.69 33.97 M142.69 33.97 C139.66 30.26, 136.63 26.54, 133.4 22.58 M142.69 33.97 C139.67 30.27, 136.65 26.57, 133.4 22.58 M133.4 22.58 C129.29 19.17, 125.18 15.75, 122.08 13.18 M133.4 22.58 C129.42 19.28, 125.43 15.97, 122.08 13.18 M122.08 13.18 C120.44 12.18, 118.81 11.19, 115.74 9.31 M122.08 13.18 C120.47 12.2, 118.86 11.22, 115.74 9.31 M115.74 9.31 C113.85 8.4, 111.96 7.49, 109 6.07 M115.74 9.31 C113.17 8.08, 110.6 6.84, 109 6.07 M109 6.07 C107.11 5.38, 105.21 4.68, 101.89 3.47 M109 6.07 C107.43 5.49, 105.85 4.92, 101.89 3.47 M101.89 3.47 C99.02 2.74, 96.14 2, 94.45 1.57 M101.89 3.47 C99.83 2.94, 97.76 2.42, 94.45 1.57 M94.45 1.57 C92.76 1.31, 91.07 1.06, 86.72 0.4 M94.45 1.57 C92.54 1.28, 90.63 0.99, 86.72 0.4 M86.72 0.4 C84.15 0.27, 81.58 0.14, 78.71 0 M86.72 0.4 C84.33 0.28, 81.94 0.16, 78.71 0 M78.71 0 C78.67 0, 78.63 0, 78.57 0 M78.71 0 C78.68 0, 78.64 0, 78.57 0 M78.57 0 C78.17 0, 77.78 0, 77.57 0 M78.57 0 C78.32 0, 78.06 0, 77.57 0 M77.57 0 C76.67 0, 75.77 0, 74.85 0 M77.57 0 C76.6 0, 75.63 0, 74.85 0 M74.85 0 C74.17 0, 73.49 0, 72.58 0 M74.85 0 C74.39 0, 73.94 0, 72.58 0 M72.58 0 C71.86 0, 71.13 0, 69.56 0 M72.58 0 C71.41 0, 70.24 0, 69.56 0 M69.56 0 C68.04 0, 66.52 0, 65.68 0 M69.56 0 C68.18 0, 66.79 0, 65.68 0 M65.68 0 C63.81 0, 61.93 0, 60.84 0 M65.68 0 C63.89 0, 62.1 0, 60.84 0 M60.84 0 C59.62 0, 58.4 0, 54.92 0 M60.84 0 C58.57 0, 56.3 0, 54.92 0 M54.92 0 C53.1 0, 51.28 0, 47.82 0 M54.92 0 C53.29 0, 51.66 0, 47.82 0 M47.82 0 C44.91 0, 42.01 0, 39.44 0 M47.82 0 C45.35 0, 42.87 0, 39.44 0 M39.44 0 C35.98 0, 32.52 0, 29.66 0 M39.44 0 C36.54 0, 33.64 0, 29.66 0 M29.66 0 C25.19 0, 20.72 0, 18.38 0 M29.66 0 C25.6 0, 21.53 0, 18.38 0 M18.38 0 C14.41 0, 10.44 0, 5.49 0 M18.38 0 C15.79 0, 13.21 0, 5.49 0 M5.49 0 C4.35 0, 3.21 0, 0 0 M5.49 0 C3.31 0, 1.13 0, 0 0 M0 0 C0 0, 0 0, 0 0 M0 0 C0 0, 0 0, 0 0 M0 0 C0 0, 0 0, 0 0 M0 0 C0 0, 0 0, 0 0" stroke="#000000" stroke-width="1" fill="none"></path></g></g><mask></mask><g stroke-linecap="round"><g transform="translate(405.35521436423886 66.06550092062858) rotate(0 65.89984790865333 65.89984149302336)" fill-rule="evenodd"><path d="M0 0 L0 0 L10.98 0 L20.91 0 L29.8 0 L37.65 0 L44.45 0 L50.21 0 L54.92 0 L58.58 0 L61.6 0 L63.87 0 L66.59 0 L67.62 0 L67.73 0 L81.26 1.33 L93.57 5.16 L104.49 11.22 L113.84 19.25 L121.42 29 L127.07 40.19 L130.59 52.58 L131.8 65.9 L130.51 79.22 L126.78 91.61 L120.84 102.8 L112.92 112.55 L103.24 120.58 L92.03 126.64 L79.5 130.47 L65.9 131.8 L0 131.8 L0 0 L0 0" stroke="none" stroke-width="0" fill="#FFFFFF" fill-rule="evenodd"></path><path d="M0 0 C0 0, 0 0, 0 0 M0 0 C0 0, 0 0, 0 0 M0 0 C3.62 0, 7.24 0, 10.98 0 M0 0 C4.29 0, 8.58 0, 10.98 0 M10.98 0 C14.02 0, 17.07 0, 20.91 0 M10.98 0 C13.75 0, 16.53 0, 20.91 0 M20.91 0 C24.37 0, 27.83 0, 29.8 0 M20.91 0 C23.17 0, 25.42 0, 29.8 0 M29.8 0 C31.43 0, 33.06 0, 37.65 0 M29.8 0 C32.58 0, 35.35 0, 37.65 0 M37.65 0 C39.39 0, 41.12 0, 44.45 0 M37.65 0 C39.4 0, 41.15 0, 44.45 0 M44.45 0 C45.97 0, 47.49 0, 50.21 0 M44.45 0 C46.51 0, 48.58 0, 50.21 0 M50.21 0 C51.48 0, 52.74 0, 54.92 0 M50.21 0 C51.83 0, 53.46 0, 54.92 0 M54.92 0 C56.34 0, 57.77 0, 58.58 0 M54.92 0 C55.93 0, 56.95 0, 58.58 0 M58.58 0 C59.47 0, 60.36 0, 61.6 0 M58.58 0 C59.68 0, 60.78 0, 61.6 0 M61.6 0 C62.45 0, 63.3 0, 63.87 0 M61.6 0 C62.15 0, 62.71 0, 63.87 0 M63.87 0 C64.46 0, 65.06 0, 66.59 0 M63.87 0 C64.85 0, 65.84 0, 66.59 0 M66.59 0 C66.98 0, 67.37 0, 67.62 0 M66.59 0 C66.84 0, 67.09 0, 67.62 0 M67.62 0 C67.64 0, 67.67 0, 67.73 0 M67.62 0 C67.65 0, 67.68 0, 67.73 0 M67.73 0 C70.96 0.32, 74.2 0.64, 81.26 1.33 M67.73 0 C70.67 0.29, 73.61 0.58, 81.26 1.33 M81.26 1.33 C84.07 2.21, 86.88 3.08, 93.57 5.16 M81.26 1.33 C84.82 2.44, 88.37 3.55, 93.57 5.16 M93.57 5.16 C97.52 7.35, 101.46 9.54, 104.49 11.22 M93.57 5.16 C97.39 7.28, 101.2 9.39, 104.49 11.22 M104.49 11.22 C107.35 13.68, 110.21 16.14, 113.84 19.25 M104.49 11.22 C106.56 13, 108.64 14.78, 113.84 19.25 M113.84 19.25 C115.57 21.48, 117.31 23.71, 121.42 29 M113.84 19.25 C116.73 22.97, 119.63 26.7, 121.42 29 M121.42 29 C122.92 31.97, 124.42 34.95, 127.07 40.19 M121.42 29 C123.33 32.78, 125.24 36.57, 127.07 40.19 M127.07 40.19 C128.11 43.86, 129.15 47.53, 130.59 52.58 M127.07 40.19 C128.15 44, 129.23 47.8, 130.59 52.58 M130.59 52.58 C130.84 55.41, 131.1 58.23, 131.8 65.9 M130.59 52.58 C131.06 57.83, 131.54 63.07, 131.8 65.9 M131.8 65.9 C131.42 69.8, 131.04 73.69, 130.51 79.22 M131.8 65.9 C131.45 69.48, 131.11 73.05, 130.51 79.22 M130.51 79.22 C129.49 82.6, 128.47 85.99, 126.78 91.61 M130.51 79.22 C129.22 83.5, 127.93 87.78, 126.78 91.61 M126.78 91.61 C124.88 95.19, 122.98 98.77, 120.84 102.8 M126.78 91.61 C125.23 94.53, 123.68 97.46, 120.84 102.8 M120.84 102.8 C118.47 105.72, 116.09 108.65, 112.92 112.55 M120.84 102.8 C118.85 105.26, 116.86 107.71, 112.92 112.55 M112.92 112.55 C109.5 115.39, 106.08 118.23, 103.24 120.58 M112.92 112.55 C110.68 114.41, 108.44 116.27, 103.24 120.58 M103.24 120.58 C99.13 122.8, 95.01 125.03, 92.03 126.64 M103.24 120.58 C99.07 122.84, 94.9 125.09, 92.03 126.64 M92.03 126.64 C87.73 127.95, 83.44 129.26, 79.5 130.47 M92.03 126.64 C87.29 128.09, 82.55 129.54, 79.5 130.47 M79.5 130.47 C75.79 130.83, 72.08 131.19, 65.9 131.8 M79.5 130.47 C75.85 130.82, 72.2 131.18, 65.9 131.8 M65.9 131.8 C45.47 131.8, 25.04 131.8, 0 131.8 M65.9 131.8 C49.35 131.8, 32.8 131.8, 0 131.8 M0 131.8 C0 100.24, 0 68.68, 0 0 M0 131.8 C0 91.74, 0 51.69, 0 0 M0 0 C0 0, 0 0, 0 0 M0 0 C0 0, 0 0, 0 0 M0 0 C0 0, 0 0, 0 0 M0 0 C0 0, 0 0, 0 0" stroke="#000000" stroke-width="1" fill="none"></path></g></g><mask></mask><g stroke-linecap="round"><g transform="translate(104.90082943565358 135.2424800689911) rotate(0 -1.9569133475627467 -57.54384324081926)" fill-rule="evenodd"><path d="M0 0 L0 0 L-1.88 3.01 L-3.47 5.36 L-5.84 8.43 L-7.19 9.83 L-7.62 10.15 L-19.99 10.15 L-13.22 1.9 L-13.22 1.9 L-13.01 1.63 L-12.4 0.82 L-10.23 -2.36 L-7.16 -7.48 L-3.65 -14.41 L-0.13 -23.02 L2.93 -33.17 L5.1 -44.72 L5.92 -57.54 L5.1 -70.36 L2.93 -81.92 L-0.13 -92.07 L-3.65 -100.68 L-7.16 -107.61 L-10.23 -112.73 L-12.4 -115.9 L-13.01 -116.72 L-13.22 -116.99 L-19.99 -125.24 L-7.62 -125.24 L-7.62 -125.24 L-3.88 -120.68 L-0.11 -115.09 L2.41 -110.71 L5.1 -105.47 L7.8 -99.39 L10.36 -92.5 L12.63 -84.84 L14.44 -76.45 L15.64 -67.33 L16.08 -57.54 L15.64 -47.78 L14.45 -38.68 L12.65 -30.3 L10.39 -22.64 L7.84 -15.75 L5.16 -9.66 L2.49 -4.4 L0 0 L0 0" stroke="none" stroke-width="0" fill="black" fill-rule="evenodd"></path><path d="M0 0 C0 0, 0 0, 0 0 M0 0 C0 0, 0 0, 0 0 M0 0 C-0.45 0.72, -0.9 1.44, -1.88 3.01 M0 0 C-0.43 0.68, -0.85 1.36, -1.88 3.01 M-1.88 3.01 C-2.33 3.67, -2.77 4.33, -3.47 5.36 M-1.88 3.01 C-2.5 3.92, -3.11 4.83, -3.47 5.36 M-3.47 5.36 C-4.2 6.31, -4.94 7.27, -5.84 8.43 M-3.47 5.36 C-4.02 6.08, -4.57 6.79, -5.84 8.43 M-5.84 8.43 C-6.2 8.81, -6.57 9.19, -7.19 9.83 M-5.84 8.43 C-6.27 8.88, -6.7 9.33, -7.19 9.83 M-7.19 9.83 C-7.33 9.93, -7.47 10.04, -7.62 10.15 M-7.19 9.83 C-7.29 9.91, -7.4 9.99, -7.62 10.15 M-7.62 10.15 C-11.71 10.15, -15.8 10.15, -19.99 10.15 M-7.62 10.15 C-10.51 10.15, -13.4 10.15, -19.99 10.15 M-19.99 10.15 C-17.35 6.93, -14.7 3.7, -13.22 1.9 M-19.99 10.15 C-17.53 7.15, -15.07 4.15, -13.22 1.9 M-13.22 1.9 C-13.22 1.9, -13.22 1.9, -13.22 1.9 M-13.22 1.9 C-13.22 1.9, -13.22 1.9, -13.22 1.9 M-13.22 1.9 C-13.14 1.8, -13.06 1.7, -13.01 1.63 M-13.22 1.9 C-13.16 1.82, -13.1 1.74, -13.01 1.63 M-13.01 1.63 C-12.79 1.33, -12.57 1.04, -12.4 0.82 M-13.01 1.63 C-12.86 1.43, -12.71 1.23, -12.4 0.82 M-12.4 0.82 C-11.95 0.16, -11.5 -0.5, -10.23 -2.36 M-12.4 0.82 C-11.72 -0.18, -11.03 -1.18, -10.23 -2.36 M-10.23 -2.36 C-9.01 -4.4, -7.78 -6.45, -7.16 -7.48 M-10.23 -2.36 C-9.23 -4.03, -8.23 -5.7, -7.16 -7.48 M-7.16 -7.48 C-6.38 -9.03, -5.59 -10.58, -3.65 -14.41 M-7.16 -7.48 C-5.89 -9.99, -4.62 -12.5, -3.65 -14.41 M-3.65 -14.41 C-2.83 -16.41, -2.02 -18.4, -0.13 -23.02 M-3.65 -14.41 C-2.43 -17.39, -1.22 -20.37, -0.13 -23.02 M-0.13 -23.02 C0.51 -25.14, 1.15 -27.26, 2.93 -33.17 M-0.13 -23.02 C0.83 -26.22, 1.8 -29.42, 2.93 -33.17 M2.93 -33.17 C3.47 -36.06, 4.02 -38.94, 5.1 -44.72 M2.93 -33.17 C3.37 -35.49, 3.8 -37.81, 5.1 -44.72 M5.1 -44.72 C5.37 -48.92, 5.64 -53.12, 5.92 -57.54 M5.1 -44.72 C5.35 -48.65, 5.6 -52.57, 5.92 -57.54 M5.92 -57.54 C5.62 -62.25, 5.32 -66.96, 5.1 -70.36 M5.92 -57.54 C5.69 -61.2, 5.45 -64.85, 5.1 -70.36 M5.1 -70.36 C4.63 -72.88, 4.16 -75.39, 2.93 -81.92 M5.1 -70.36 C4.63 -72.9, 4.15 -75.43, 2.93 -81.92 M2.93 -81.92 C1.95 -85.18, 0.96 -88.45, -0.13 -92.07 M2.93 -81.92 C1.71 -85.94, 0.5 -89.97, -0.13 -92.07 M-0.13 -92.07 C-1.16 -94.57, -2.18 -97.07, -3.65 -100.68 M-0.13 -92.07 C-1.51 -95.43, -2.88 -98.79, -3.65 -100.68 M-3.65 -100.68 C-4.96 -103.27, -6.28 -105.86, -7.16 -107.61 M-3.65 -100.68 C-4.48 -102.31, -5.3 -103.94, -7.16 -107.61 M-7.16 -107.61 C-7.87 -108.8, -8.59 -109.98, -10.23 -112.73 M-7.16 -107.61 C-8.11 -109.18, -9.05 -110.76, -10.23 -112.73 M-10.23 -112.73 C-10.68 -113.39, -11.13 -114.05, -12.4 -115.9 M-10.23 -112.73 C-10.88 -113.69, -11.54 -114.64, -12.4 -115.9 M-12.4 -115.9 C-12.58 -116.15, -12.76 -116.39, -13.01 -116.72 M-12.4 -115.9 C-12.59 -116.15, -12.77 -116.4, -13.01 -116.72 M-13.01 -116.72 C-13.06 -116.78, -13.11 -116.84, -13.22 -116.99 M-13.01 -116.72 C-13.09 -116.83, -13.18 -116.93, -13.22 -116.99 M-13.22 -116.99 C-14.74 -118.85, -16.27 -120.7, -19.99 -125.24 M-13.22 -116.99 C-15.14 -119.33, -17.07 -121.68, -19.99 -125.24 M-19.99 -125.24 C-16.6 -125.24, -13.21 -125.24, -7.62 -125.24 M-19.99 -125.24 C-15.98 -125.24, -11.98 -125.24, -7.62 -125.24 M-7.62 -125.24 C-7.62 -125.24, -7.62 -125.24, -7.62 -125.24 M-7.62 -125.24 C-7.62 -125.24, -7.62 -125.24, -7.62 -125.24 M-7.62 -125.24 C-6.52 -123.91, -5.43 -122.57, -3.88 -120.68 M-7.62 -125.24 C-6.16 -123.46, -4.7 -121.68, -3.88 -120.68 M-3.88 -120.68 C-2.58 -118.75, -1.28 -116.82, -0.11 -115.09 M-3.88 -120.68 C-2.83 -119.12, -1.77 -117.56, -0.11 -115.09 M-0.11 -115.09 C0.56 -113.93, 1.22 -112.78, 2.41 -110.71 M-0.11 -115.09 C0.65 -113.77, 1.41 -112.45, 2.41 -110.71 M2.41 -110.71 C3.14 -109.29, 3.86 -107.87, 5.1 -105.47 M2.41 -110.71 C3.32 -108.94, 4.22 -107.17, 5.1 -105.47 M5.1 -105.47 C5.88 -103.71, 6.66 -101.95, 7.8 -99.39 M5.1 -105.47 C5.82 -103.84, 6.54 -102.22, 7.8 -99.39 M7.8 -99.39 C8.61 -97.21, 9.42 -95.04, 10.36 -92.5 M7.8 -99.39 C8.44 -97.68, 9.07 -95.97, 10.36 -92.5 M10.36 -92.5 C11.03 -90.26, 11.69 -88.02, 12.63 -84.84 M10.36 -92.5 C11.03 -90.24, 11.7 -87.98, 12.63 -84.84 M12.63 -84.84 C13.14 -82.5, 13.64 -80.15, 14.44 -76.45 M12.63 -84.84 C13.28 -81.83, 13.93 -78.82, 14.44 -76.45 M14.44 -76.45 C14.83 -73.49, 15.22 -70.54, 15.64 -67.33 M14.44 -76.45 C14.8 -73.72, 15.16 -70.99, 15.64 -67.33 M15.64 -67.33 C15.75 -65.04, 15.85 -62.74, 16.08 -57.54 M15.64 -67.33 C15.8 -63.71, 15.97 -60.09, 16.08 -57.54 M16.08 -57.54 C15.97 -55.06, 15.86 -52.59, 15.64 -47.78 M16.08 -57.54 C15.91 -53.72, 15.74 -49.9, 15.64 -47.78 M15.64 -47.78 C15.37 -45.71, 15.1 -43.65, 14.45 -38.68 M15.64 -47.78 C15.37 -45.66, 15.09 -43.55, 14.45 -38.68 M14.45 -38.68 C13.95 -36.36, 13.45 -34.03, 12.65 -30.3 M14.45 -38.68 C13.75 -35.44, 13.05 -32.2, 12.65 -30.3 M12.65 -30.3 C11.8 -27.42, 10.95 -24.54, 10.39 -22.64 M12.65 -30.3 C12.08 -28.38, 11.52 -26.47, 10.39 -22.64 M10.39 -22.64 C9.85 -21.17, 9.3 -19.7, 7.84 -15.75 M10.39 -22.64 C9.62 -20.57, 8.86 -18.49, 7.84 -15.75 M7.84 -15.75 C6.84 -13.48, 5.84 -11.2, 5.16 -9.66 M7.84 -15.75 C6.83 -13.46, 5.82 -11.16, 5.16 -9.66 M5.16 -9.66 C4.61 -8.59, 4.07 -7.52, 2.49 -4.4 M5.16 -9.66 C4.49 -8.34, 3.81 -7.01, 2.49 -4.4 M2.49 -4.4 C1.53 -2.7, 0.56 -0.99, 0 0 M2.49 -4.4 C1.7 -3, 0.9 -1.6, 0 0 M0 0 C0 0, 0 0, 0 0 M0 0 C0 0, 0 0, 0 0 M0 0 C0 0, 0 0, 0 0 M0 0 C0 0, 0 0, 0 0" stroke="#000000" stroke-width="0.5" fill="none"></path></g></g><mask></mask><g stroke-linecap="round"><g transform="translate(104.37193393631219 10.000000000000057) rotate(0 82.03169194783283 67.6986239156841)" fill-rule="evenodd"><path d="M0 0 L6.77 8.25 L6.77 8.25 L6.98 8.53 L7.59 9.34 L9.76 12.51 L12.83 17.63 L16.34 24.57 L19.86 33.18 L22.92 43.33 L25.09 54.88 L25.92 67.7 L25.09 80.52 L22.92 92.07 L19.86 102.22 L16.34 110.83 L12.83 117.76 L9.76 122.89 L7.59 126.06 L6.98 126.87 L6.77 127.15 L0 135.4 L10.68 135.4 L58.07 135.4 L58.07 135.4 L61.57 135.38 L65.89 135.28 L70.95 134.99 L76.66 134.41 L82.92 133.45 L89.66 132 L96.78 129.96 L104.19 127.25 L111.82 123.76 L119.57 119.39 L127.37 114.07 L135.12 107.71 L142.75 100.21 L150.18 91.51 L157.31 81.51 L164.06 70.13 L159.62 67.7 L164.06 65.27 L164.06 65.27 L157.3 53.9 L150.16 43.93 L142.71 35.28 L135.05 27.84 L127.27 21.53 L119.45 16.25 L111.67 11.92 L104.03 8.43 L96.6 5.7 L89.49 3.63 L82.77 2.14 L76.52 1.12 L70.84 0.49 L65.82 0.16 L61.53 0.02 L58.07 0 L10.68 0 L0 0 L0 0" stroke="none" stroke-width="0" fill="black" fill-rule="evenodd"></path><path d="M0 0 C1.5 1.83, 3 3.66, 6.77 8.25 M0 0 C2.69 3.28, 5.38 6.56, 6.77 8.25 M6.77 8.25 C6.77 8.25, 6.77 8.25, 6.77 8.25 M6.77 8.25 C6.77 8.25, 6.77 8.25, 6.77 8.25 M6.77 8.25 C6.82 8.32, 6.88 8.39, 6.98 8.53 M6.77 8.25 C6.84 8.35, 6.92 8.44, 6.98 8.53 M6.98 8.53 C7.2 8.82, 7.42 9.11, 7.59 9.34 M6.98 8.53 C7.19 8.8, 7.39 9.07, 7.59 9.34 M7.59 9.34 C8.38 10.49, 9.17 11.64, 9.76 12.51 M7.59 9.34 C8.22 10.25, 8.84 11.17, 9.76 12.51 M9.76 12.51 C10.74 14.15, 11.73 15.8, 12.83 17.63 M9.76 12.51 C10.85 14.33, 11.94 16.14, 12.83 17.63 M12.83 17.63 C13.97 19.89, 15.12 22.16, 16.34 24.57 M12.83 17.63 C13.83 19.6, 14.82 21.57, 16.34 24.57 M16.34 24.57 C17.7 27.9, 19.07 31.24, 19.86 33.18 M16.34 24.57 C17.1 26.43, 17.86 28.29, 19.86 33.18 M19.86 33.18 C21.08 37.22, 22.3 41.26, 22.92 43.33 M19.86 33.18 C20.95 36.78, 22.04 40.38, 22.92 43.33 M22.92 43.33 C23.38 45.76, 23.84 48.2, 25.09 54.88 M22.92 43.33 C23.68 47.37, 24.44 51.41, 25.09 54.88 M25.09 54.88 C25.26 57.52, 25.43 60.17, 25.92 67.7 M25.09 54.88 C25.4 59.63, 25.7 64.39, 25.92 67.7 M25.92 67.7 C25.61 72.41, 25.31 77.13, 25.09 80.52 M25.92 67.7 C25.68 71.4, 25.44 75.11, 25.09 80.52 M25.09 80.52 C24.55 83.42, 24 86.32, 22.92 92.07 M25.09 80.52 C24.33 84.6, 23.56 88.68, 22.92 92.07 M22.92 92.07 C22.13 94.69, 21.34 97.3, 19.86 102.22 M22.92 92.07 C21.79 95.82, 20.66 99.56, 19.86 102.22 M19.86 102.22 C19.13 104, 18.41 105.77, 16.34 110.83 M19.86 102.22 C18.54 105.46, 17.22 108.69, 16.34 110.83 M16.34 110.83 C15.62 112.25, 14.91 113.66, 12.83 117.76 M16.34 110.83 C15.55 112.4, 14.75 113.96, 12.83 117.76 M12.83 117.76 C12.15 118.89, 11.48 120.02, 9.76 122.89 M12.83 117.76 C12.02 119.11, 11.22 120.46, 9.76 122.89 M9.76 122.89 C8.99 124.01, 8.23 125.13, 7.59 126.06 M9.76 122.89 C9.11 123.83, 8.47 124.78, 7.59 126.06 M7.59 126.06 C7.46 126.23, 7.33 126.4, 6.98 126.87 M7.59 126.06 C7.42 126.3, 7.24 126.53, 6.98 126.87 M6.98 126.87 C6.9 126.98, 6.82 127.08, 6.77 127.15 M6.98 126.87 C6.91 126.96, 6.84 127.05, 6.77 127.15 M6.77 127.15 C4.21 130.26, 1.66 133.38, 0 135.4 M6.77 127.15 C4.82 129.53, 2.87 131.91, 0 135.4 M0 135.4 C3.91 135.4, 7.82 135.4, 10.68 135.4 M0 135.4 C2.66 135.4, 5.31 135.4, 10.68 135.4 M10.68 135.4 C24.14 135.4, 37.6 135.4, 58.07 135.4 M10.68 135.4 C26.52 135.4, 42.37 135.4, 58.07 135.4 M58.07 135.4 C58.07 135.4, 58.07 135.4, 58.07 135.4 M58.07 135.4 C58.07 135.4, 58.07 135.4, 58.07 135.4 M58.07 135.4 C59.38 135.39, 60.68 135.39, 61.57 135.38 M58.07 135.4 C58.98 135.39, 59.89 135.39, 61.57 135.38 M61.57 135.38 C63.02 135.35, 64.47 135.32, 65.89 135.28 M61.57 135.38 C63.11 135.35, 64.65 135.31, 65.89 135.28 M65.89 135.28 C67.2 135.21, 68.5 135.13, 70.95 134.99 M65.89 135.28 C67.65 135.18, 69.41 135.08, 70.95 134.99 M70.95 134.99 C72.78 134.8, 74.61 134.62, 76.66 134.41 M70.95 134.99 C72.84 134.8, 74.73 134.61, 76.66 134.41 M76.66 134.41 C78.09 134.19, 79.52 133.97, 82.92 133.45 M76.66 134.41 C78.11 134.19, 79.56 133.96, 82.92 133.45 M82.92 133.45 C84.81 133.04, 86.7 132.63, 89.66 132 M82.92 133.45 C85.5 132.89, 88.07 132.34, 89.66 132 M89.66 132 C92.11 131.3, 94.57 130.6, 96.78 129.96 M89.66 132 C92.5 131.19, 95.34 130.38, 96.78 129.96 M96.78 129.96 C99.2 129.08, 101.62 128.19, 104.19 127.25 M96.78 129.96 C99.44 128.99, 102.11 128.01, 104.19 127.25 M104.19 127.25 C106.81 126.06, 109.42 124.86, 111.82 123.76 M104.19 127.25 C106.37 126.26, 108.54 125.26, 111.82 123.76 M111.82 123.76 C114.86 122.05, 117.9 120.33, 119.57 119.39 M111.82 123.76 C114.25 122.39, 116.68 121.02, 119.57 119.39 M119.57 119.39 C122.14 117.64, 124.72 115.88, 127.37 114.07 M119.57 119.39 C122.53 117.37, 125.49 115.35, 127.37 114.07 M127.37 114.07 C129.97 111.93, 132.58 109.79, 135.12 107.71 M127.37 114.07 C130.43 111.55, 133.5 109.04, 135.12 107.71 M135.12 107.71 C137.33 105.54, 139.54 103.37, 142.75 100.21 M135.12 107.71 C137.59 105.28, 140.06 102.86, 142.75 100.21 M142.75 100.21 C144.52 98.14, 146.29 96.07, 150.18 91.51 M142.75 100.21 C145.43 97.08, 148.1 93.95, 150.18 91.51 M150.18 91.51 C152.85 87.76, 155.52 84.02, 157.31 81.51 M150.18 91.51 C151.66 89.43, 153.15 87.34, 157.31 81.51 M157.31 81.51 C159.36 78.06, 161.41 74.6, 164.06 70.13 M157.31 81.51 C159.08 78.53, 160.84 75.56, 164.06 70.13 M164.06 70.13 C163.1 69.61, 162.15 69.08, 159.62 67.7 M164.06 70.13 C162.83 69.46, 161.6 68.78, 159.62 67.7 M159.62 67.7 C161.22 66.82, 162.82 65.95, 164.06 65.27 M159.62 67.7 C161.21 66.83, 162.8 65.96, 164.06 65.27 M164.06 65.27 C164.06 65.27, 164.06 65.27, 164.06 65.27 M164.06 65.27 C164.06 65.27, 164.06 65.27, 164.06 65.27 M164.06 65.27 C161.64 61.19, 159.21 57.11, 157.3 53.9 M164.06 65.27 C162.66 62.91, 161.26 60.56, 157.3 53.9 M157.3 53.9 C155.54 51.45, 153.79 48.99, 150.16 43.93 M157.3 53.9 C155.15 50.89, 152.99 47.88, 150.16 43.93 M150.16 43.93 C148.11 41.56, 146.07 39.18, 142.71 35.28 M150.16 43.93 C147.41 40.74, 144.66 37.54, 142.71 35.28 M142.71 35.28 C139.96 32.6, 137.2 29.93, 135.05 27.84 M142.71 35.28 C141.16 33.78, 139.62 32.27, 135.05 27.84 M135.05 27.84 C133.45 26.54, 131.85 25.24, 127.27 21.53 M135.05 27.84 C132.67 25.91, 130.3 23.98, 127.27 21.53 M127.27 21.53 C125.1 20.06, 122.92 18.6, 119.45 16.25 M127.27 21.53 C124.32 19.54, 121.38 17.56, 119.45 16.25 M119.45 16.25 C117.32 15.07, 115.18 13.88, 111.67 11.92 M119.45 16.25 C117.27 15.04, 115.1 13.83, 111.67 11.92 M111.67 11.92 C109.4 10.88, 107.14 9.85, 104.03 8.43 M111.67 11.92 C109.17 10.78, 106.67 9.64, 104.03 8.43 M104.03 8.43 C101.62 7.55, 99.21 6.66, 96.6 5.7 M104.03 8.43 C102.13 7.73, 100.23 7.04, 96.6 5.7 M96.6 5.7 C93.87 4.91, 91.13 4.11, 89.49 3.63 M96.6 5.7 C94.43 5.07, 92.25 4.44, 89.49 3.63 M89.49 3.63 C87.97 3.3, 86.46 2.96, 82.77 2.14 M89.49 3.63 C88.14 3.33, 86.8 3.04, 82.77 2.14 M82.77 2.14 C80.98 1.85, 79.2 1.56, 76.52 1.12 M82.77 2.14 C81.4 1.92, 80.03 1.69, 76.52 1.12 M76.52 1.12 C74.43 0.89, 72.33 0.66, 70.84 0.49 M76.52 1.12 C74.36 0.88, 72.2 0.64, 70.84 0.49 M70.84 0.49 C69.76 0.42, 68.68 0.35, 65.82 0.16 M70.84 0.49 C69.23 0.39, 67.62 0.28, 65.82 0.16 M65.82 0.16 C64.23 0.11, 62.64 0.06, 61.53 0.02 M65.82 0.16 C64.67 0.12, 63.53 0.09, 61.53 0.02 M61.53 0.02 C60.28 0.02, 59.02 0.01, 58.07 0 M61.53 0.02 C60.43 0.02, 59.32 0.01, 58.07 0 M58.07 0 C40.57 0, 23.07 0, 10.68 0 M58.07 0 C47.19 0, 36.3 0, 10.68 0 M10.68 0 C6.5 0, 2.31 0, 0 0 M10.68 0 C7.74 0, 4.8 0, 0 0 M0 0 C0 0, 0 0, 0 0 M0 0 C0 0, 0 0, 0 0 M0 0 C0 0, 0 0, 0 0 M0 0 C0 0, 0 0, 0 0" stroke="#000000" stroke-width="1" fill="none"></path></g></g><mask></mask><g stroke-linecap="round"><g transform="translate(124.25840471154447 20.154793587352657) rotate(0 66.42927471726502 57.54383032833147)" fill-rule="evenodd"><path d="M0 0 L38.19 0 L38.19 0 L41.5 0.01 L45.46 0.09 L55.06 0.84 L66.47 2.92 L72.69 4.68 L79.18 7.03 L85.86 10.06 L92.68 13.86 L99.57 18.5 L106.47 24.09 L113.31 30.7 L120.03 38.42 L126.57 47.34 L132.86 57.54 L126.66 67.59 L120.21 76.4 L113.57 84.05 L106.8 90.61 L99.96 96.18 L93.12 100.82 L86.33 104.63 L79.65 107.68 L72.99 110.13 L66.66 111.98 L55.17 114.17 L45.55 114.98 L38.19 115.09 L0.11 115.09 L0.11 115.09 L2.62 110.7 L5.29 105.44 L7.98 99.35 L10.52 92.46 L12.77 84.8 L14.56 76.41 L15.75 67.31 L16.18 57.54 L15.75 47.75 L14.55 38.64 L12.73 30.24 L10.47 22.59 L7.91 15.7 L5.2 9.62 L2.52 4.38 L0 0 L0 0" stroke="none" stroke-width="0" fill="#FFFFFF" fill-rule="evenodd"></path><path d="M0 0 C13.04 0, 26.07 0, 38.19 0 M0 0 C13.01 0, 26.02 0, 38.19 0 M38.19 0 C38.19 0, 38.19 0, 38.19 0 M38.19 0 C38.19 0, 38.19 0, 38.19 0 M38.19 0 C38.91 0, 39.64 0, 41.5 0.01 M38.19 0 C39.28 0, 40.38 0.01, 41.5 0.01 M41.5 0.01 C42.37 0.03, 43.24 0.05, 45.46 0.09 M41.5 0.01 C43.06 0.04, 44.61 0.08, 45.46 0.09 M45.46 0.09 C48.95 0.36, 52.44 0.63, 55.06 0.84 M45.46 0.09 C47.39 0.24, 49.32 0.39, 55.06 0.84 M55.06 0.84 C58.68 1.5, 62.29 2.16, 66.47 2.92 M55.06 0.84 C59.29 1.61, 63.53 2.38, 66.47 2.92 M66.47 2.92 C67.95 3.34, 69.43 3.75, 72.69 4.68 M66.47 2.92 C67.87 3.31, 69.28 3.71, 72.69 4.68 M72.69 4.68 C74.98 5.51, 77.27 6.34, 79.18 7.03 M72.69 4.68 C74.45 5.31, 76.21 5.95, 79.18 7.03 M79.18 7.03 C80.7 7.72, 82.22 8.41, 85.86 10.06 M79.18 7.03 C81.7 8.17, 84.23 9.32, 85.86 10.06 M85.86 10.06 C88.16 11.34, 90.46 12.62, 92.68 13.86 M85.86 10.06 C87.6 11.03, 89.35 12, 92.68 13.86 M92.68 13.86 C95.03 15.44, 97.38 17.03, 99.57 18.5 M92.68 13.86 C94.29 14.94, 95.9 16.02, 99.57 18.5 M99.57 18.5 C101.31 19.91, 103.06 21.33, 106.47 24.09 M99.57 18.5 C101.9 20.39, 104.23 22.27, 106.47 24.09 M106.47 24.09 C108.6 26.15, 110.73 28.21, 113.31 30.7 M106.47 24.09 C108.31 25.87, 110.15 27.65, 113.31 30.7 M113.31 30.7 C115.71 33.45, 118.1 36.21, 120.03 38.42 M113.31 30.7 C115.21 32.89, 117.11 35.07, 120.03 38.42 M120.03 38.42 C121.96 41.06, 123.89 43.69, 126.57 47.34 M120.03 38.42 C122.41 41.67, 124.8 44.92, 126.57 47.34 M126.57 47.34 C128.32 50.18, 130.07 53.03, 132.86 57.54 M126.57 47.34 C128.51 50.49, 130.45 53.64, 132.86 57.54 M132.86 57.54 C130.56 61.27, 128.26 65.01, 126.66 67.59 M132.86 57.54 C131.01 60.55, 129.15 63.56, 126.66 67.59 M126.66 67.59 C124.58 70.44, 122.49 73.29, 120.21 76.4 M126.66 67.59 C124.19 70.97, 121.71 74.35, 120.21 76.4 M120.21 76.4 C118.6 78.26, 116.99 80.11, 113.57 84.05 M120.21 76.4 C118.52 78.35, 116.82 80.3, 113.57 84.05 M113.57 84.05 C111.09 86.46, 108.6 88.86, 106.8 90.61 M113.57 84.05 C111.35 86.2, 109.13 88.35, 106.8 90.61 M106.8 90.61 C104.51 92.48, 102.21 94.34, 99.96 96.18 M106.8 90.61 C104.64 92.37, 102.48 94.13, 99.96 96.18 M99.96 96.18 C97.5 97.85, 95.03 99.53, 93.12 100.82 M99.96 96.18 C97.82 97.63, 95.68 99.08, 93.12 100.82 M93.12 100.82 C91.08 101.96, 89.04 103.11, 86.33 104.63 M93.12 100.82 C90.63 102.22, 88.14 103.62, 86.33 104.63 M86.33 104.63 C84.8 105.33, 83.28 106.02, 79.65 107.68 M86.33 104.63 C83.91 105.73, 81.5 106.84, 79.65 107.68 M79.65 107.68 C77.59 108.44, 75.54 109.2, 72.99 110.13 M79.65 107.68 C77.03 108.65, 74.41 109.61, 72.99 110.13 M72.99 110.13 C70.67 110.81, 68.35 111.49, 66.66 111.98 M72.99 110.13 C71.41 110.59, 69.83 111.05, 66.66 111.98 M66.66 111.98 C62.53 112.76, 58.4 113.55, 55.17 114.17 M66.66 111.98 C62.24 112.82, 57.81 113.67, 55.17 114.17 M55.17 114.17 C51.82 114.45, 48.47 114.73, 45.55 114.98 M55.17 114.17 C53.22 114.34, 51.26 114.5, 45.55 114.98 M45.55 114.98 C42.82 115.02, 40.08 115.06, 38.19 115.09 M45.55 114.98 C43.85 115, 42.15 115.03, 38.19 115.09 M38.19 115.09 C29.97 115.09, 21.76 115.09, 0.11 115.09 M38.19 115.09 C22.97 115.09, 7.75 115.09, 0.11 115.09 M0.11 115.09 C0.11 115.09, 0.11 115.09, 0.11 115.09 M0.11 115.09 C0.11 115.09, 0.11 115.09, 0.11 115.09 M0.11 115.09 C1.08 113.39, 2.05 111.69, 2.62 110.7 M0.11 115.09 C0.78 113.91, 1.46 112.73, 2.62 110.7 M2.62 110.7 C3.63 108.72, 4.63 106.74, 5.29 105.44 M2.62 110.7 C3.56 108.85, 4.5 107.01, 5.29 105.44 M5.29 105.44 C6.25 103.28, 7.2 101.12, 7.98 99.35 M5.29 105.44 C6.35 103.05, 7.4 100.66, 7.98 99.35 M7.98 99.35 C8.81 97.09, 9.65 94.84, 10.52 92.46 M7.98 99.35 C8.52 97.89, 9.06 96.42, 10.52 92.46 M10.52 92.46 C11.38 89.54, 12.24 86.61, 12.77 84.8 M10.52 92.46 C10.98 90.91, 11.43 89.36, 12.77 84.8 M12.77 84.8 C13.41 81.82, 14.04 78.84, 14.56 76.41 M12.77 84.8 C13.31 82.26, 13.86 79.72, 14.56 76.41 M14.56 76.41 C14.81 74.52, 15.06 72.64, 15.75 67.31 M14.56 76.41 C14.9 73.84, 15.24 71.26, 15.75 67.31 M15.75 67.31 C15.88 64.43, 16.01 61.54, 16.18 57.54 M15.75 67.31 C15.89 64.2, 16.03 61.09, 16.18 57.54 M16.18 57.54 C16.04 54.19, 15.89 50.84, 15.75 47.75 M16.18 57.54 C16.07 54.9, 15.95 52.26, 15.75 47.75 M15.75 47.75 C15.38 44.93, 15 42.1, 14.55 38.64 M15.75 47.75 C15.44 45.39, 15.13 43.02, 14.55 38.64 M14.55 38.64 C13.87 35.52, 13.2 32.39, 12.73 30.24 M14.55 38.64 C13.91 35.7, 13.28 32.75, 12.73 30.24 M12.73 30.24 C11.87 27.31, 11 24.37, 10.47 22.59 M12.73 30.24 C12 27.75, 11.26 25.25, 10.47 22.59 M10.47 22.59 C9.82 20.83, 9.16 19.08, 7.91 15.7 M10.47 22.59 C9.54 20.08, 8.6 17.57, 7.91 15.7 M7.91 15.7 C7.31 14.35, 6.7 13, 5.2 9.62 M7.91 15.7 C7.31 14.36, 6.72 13.02, 5.2 9.62 M5.2 9.62 C4.61 8.46, 4.01 7.3, 2.52 4.38 M5.2 9.62 C4.39 8.04, 3.58 6.46, 2.52 4.38 M2.52 4.38 C1.61 2.81, 0.71 1.24, 0 0 M2.52 4.38 C1.9 3.3, 1.28 2.22, 0 0 M0 0 C0 0, 0 0, 0 0 M0 0 C0 0, 0 0, 0 0 M0 0 C0 0, 0 0, 0 0 M0 0 C0 0, 0 0, 0 0" stroke="#000000" stroke-width="1" fill="none"></path></g></g><mask></mask><g transform="translate(11.664590960176156 27.00407217297689) rotate(0 10 16.373099909978983)"><text x="0" y="24.061894280069318" font-family="Helvetica, Segoe UI Emoji" font-size="28.47495636518084px" fill="#1e1e1e" text-anchor="start" style="white-space: pre;" direction="ltr" dominant-baseline="alphabetic">A</text></g><g transform="translate(10 93.58704155448501) rotate(0 9.5 16.373099909978983)"><text x="0" y="24.061894280069318" font-family="Helvetica, Segoe UI Emoji" font-size="28.47495636518084px" fill="#1e1e1e" text-anchor="start" style="white-space: pre;" direction="ltr" dominant-baseline="alphabetic">B</text></g><g transform="translate(619.6502163745477 111.40147903785098) rotate(0 19.833648681640625 16.373099909978983)"><text x="0" y="24.061894280069318" font-family="Helvetica, Segoe UI Emoji" font-size="28.47495636518084px" fill="#1e1e1e" text-anchor="start" style="white-space: pre;" direction="ltr" dominant-baseline="alphabetic">out</text></g><g stroke-linecap="round"><g transform="translate(47.31423370013363 41.0780179479697) rotate(0 29.962318765760273 0)"><path d="M0 0 C9.99 0, 49.94 0, 59.92 0 M0 0 C9.99 0, 49.94 0, 59.92 0" stroke="#1e1e1e" stroke-width="4" fill="none"></path></g></g><mask></mask><g stroke-linecap="round"><g transform="translate(45.649642796908665 106.55127771280493) rotate(0 32.18175919262512 0)"><path d="M0 0 C10.73 0, 53.64 0, 64.36 0 M0 0 C10.73 0, 53.64 0, 64.36 0" stroke="#1e1e1e" stroke-width="4" fill="none"></path></g></g><mask></mask><g stroke-linecap="round"><g transform="translate(263.15400031586785 78.25350751796444) rotate(0 67.13782950190759 0)"><path d="M0 0 C22.38 0, 111.9 0, 134.28 0 M0 0 C22.38 0, 111.9 0, 134.28 0" stroke="#1e1e1e" stroke-width="4" fill="none"></path></g></g><mask></mask><g stroke-linecap="round"><g transform="translate(63.959973403162394 108.21582628372474) rotate(0 0 31.349484907165227)"><path d="M0 0 C0 10.45, 0 52.25, 0 62.7 M0 0 C0 10.45, 0 52.25, 0 62.7" stroke="#1e1e1e" stroke-width="4" fill="none"></path></g></g><mask></mask><g stroke-linecap="round"><g transform="translate(62.85023202357729 170.3599465744152) rotate(0 166.45741819644036 0)"><path d="M0 0 C55.49 0, 277.43 0, 332.91 0 M0 0 C55.49 0, 277.43 0, 332.91 0" stroke="#1e1e1e" stroke-width="4" fill="none"></path></g></g><mask></mask><g stroke-linecap="round"><g transform="translate(548.0735486000967 131.65858906518181) rotate(0 29.962318765760273 0)"><path d="M0 0 C9.99 0, 49.94 0, 59.92 0 M0 0 C9.99 0, 49.94 0, 59.92 0" stroke="#1e1e1e" stroke-width="4" fill="none"></path></g></g><mask></mask></svg>