<svg version="1.1" xmlns="http://www.w3.org/2000/svg" viewBox="0 0 667.958025897854 220.45223340564604" width="667.958025897854" height="220.45223340564604" class="excalidraw-svg">
  <!-- svg-source:excalidraw -->
  
  <defs>
    <style class="style-fonts">
      
    </style>
    
  </defs>
  <g transform="translate(10.785430908203125 27.00407217297692) rotate(0 10 16.373099909978976)"><text x="0" y="24.061894280069318" font-family="Helvetica, Segoe UI Emoji" font-size="28.47495636518084px" fill="#1e1e1e" text-anchor="start" style="white-space: pre;" direction="ltr" dominant-baseline="alphabetic">A</text></g><g transform="translate(10.785430908203125 93.5870415544851) rotate(0 9.5 16.373099909978976)"><text x="0" y="24.061894280069318" font-family="Helvetica, Segoe UI Emoji" font-size="28.47495636518084px" fill="#1e1e1e" text-anchor="start" style="white-space: pre;" direction="ltr" dominant-baseline="alphabetic">B</text></g><g transform="translate(618.2907285345727 111.40147903785106) rotate(0 19.833648681640625 16.373099909978976)"><text x="0" y="24.061894280069318" font-family="Helvetica, Segoe UI Emoji" font-size="28.47495636518084px" fill="#1e1e1e" text-anchor="start" style="white-space: pre;" direction="ltr" dominant-baseline="alphabetic">out</text></g><g stroke-linecap="round"><g transform="translate(45.95474586015882 41.07801794796973) rotate(0 29.962318765760273 0)"><path d="M0 0 C9.99 0, 49.94 0, 59.92 0 M0 0 C9.99 0, 49.94 0, 59.92 0" stroke="#1e1e1e" stroke-width="4" fill="none"></path></g></g><mask></mask><g stroke-linecap="round"><g transform="translate(44.29015495693386 106.55127771280496) rotate(0 32.18175919262512 0)"><path d="M0 0 C10.73 0, 53.64 0, 64.36 0 M0 0 C10.73 0, 53.64 0, 64.36 0" stroke="#1e1e1e" stroke-width="4" fill="none"></path></g></g><mask></mask><g stroke-linecap="round"><g transform="translate(261.79451247589293 78.25350751796447) rotate(0 67.13782950190759 0)"><path d="M0 0 C22.38 0, 111.9 0, 134.28 0 M0 0 C22.38 0, 111.9 0, 134.28 0" stroke="#1e1e1e" stroke-width="4" fill="none"></path></g></g><mask></mask><g stroke-linecap="round"><g transform="translate(43.054128953256054 170.35994657441523) rotate(0 175.67572581161357 0)"><path d="M0 0 C58.56 0, 292.79 0, 351.35 0 M0 0 C58.56 0, 292.79 0, 351.35 0" stroke="#1e1e1e" stroke-width="4" fill="none"></path></g></g><mask></mask><g stroke-linecap="round"><g transform="translate(546.714060760122 131.65858906518184) rotate(0 29.962318765760273 0)"><path d="M0 0 C9.99 0, 49.94 0, 59.92 0 M0 0 C9.99 0, 49.94 0, 59.92 0" stroke="#1e1e1e" stroke-width="4" fill="none"></path></g></g><mask></mask><g transform="translate(10 154.25115885379012) rotate(0 10.5 16.373099909978983)"><text x="0" y="24.061894280069318" font-family="Helvetica, Segoe UI Emoji" font-size="28.47495636518084px" fill="#1e1e1e" text-anchor="start" style="white-space: pre;" direction="ltr" dominant-baseline="alphabetic">C</text></g><g stroke-linecap="round"><g transform="translate(370.34982074889615 53.87780518724168) rotate(0 94.86208522138483 78.28721410920218)" fill-rule="evenodd"><path d="M0 0 L7.83 9.54 L7.83 9.54 L8.08 9.86 L8.78 10.8 L11.29 14.47 L14.83 20.39 L18.9 28.41 L22.96 38.37 L26.51 50.1 L29.02 63.46 L29.97 78.29 L29.02 93.11 L26.51 106.47 L22.96 118.21 L18.9 128.16 L14.83 136.18 L11.29 142.11 L8.78 145.78 L8.08 146.72 L7.83 147.03 L0 156.57 L12.35 156.57 L67.16 156.57 L67.16 156.57 L71.2 156.56 L76.2 156.44 L82.05 156.1 L88.64 155.43 L95.89 154.32 L103.68 152.64 L111.91 150.29 L120.49 147.16 L129.31 143.12 L138.27 138.07 L147.29 131.91 L156.26 124.55 L165.08 115.89 L173.67 105.82 L181.91 94.26 L189.72 81.1 L184.59 78.29 L189.72 75.47 L189.72 75.47 L181.91 62.33 L173.64 50.8 L165.03 40.8 L156.18 32.2 L147.18 24.9 L138.13 18.8 L129.14 13.78 L120.3 9.75 L111.71 6.59 L103.49 4.2 L95.71 2.47 L88.49 1.3 L81.92 0.57 L76.11 0.18 L71.16 0.03 L67.16 0 L12.35 0 L0 0 L0 0" stroke="none" stroke-width="0" fill="black" fill-rule="evenodd"></path><path d="M0 0 C2.06 2.51, 4.12 5.02, 7.83 9.54 M0 0 C1.58 1.92, 3.16 3.85, 7.83 9.54 M7.83 9.54 C7.83 9.54, 7.83 9.54, 7.83 9.54 M7.83 9.54 C7.83 9.54, 7.83 9.54, 7.83 9.54 M7.83 9.54 C7.89 9.63, 7.96 9.71, 8.08 9.86 M7.83 9.54 C7.92 9.66, 8.01 9.77, 8.08 9.86 M8.08 9.86 C8.27 10.12, 8.47 10.38, 8.78 10.8 M8.08 9.86 C8.33 10.19, 8.57 10.52, 8.78 10.8 M8.78 10.8 C9.76 12.23, 10.74 13.66, 11.29 14.47 M8.78 10.8 C9.29 11.55, 9.81 12.3, 11.29 14.47 M11.29 14.47 C12.38 16.28, 13.46 18.1, 14.83 20.39 M11.29 14.47 C12.6 16.66, 13.91 18.85, 14.83 20.39 M14.83 20.39 C15.7 22.11, 16.57 23.82, 18.9 28.41 M14.83 20.39 C16.14 22.98, 17.46 25.56, 18.9 28.41 M18.9 28.41 C20.37 32.01, 21.84 35.61, 22.96 38.37 M18.9 28.41 C19.8 30.63, 20.71 32.84, 22.96 38.37 M22.96 38.37 C24.14 42.26, 25.32 46.16, 26.51 50.1 M22.96 38.37 C24.03 41.91, 25.1 45.45, 26.51 50.1 M26.51 50.1 C27.04 52.93, 27.57 55.76, 29.02 63.46 M26.51 50.1 C27.36 54.61, 28.2 59.11, 29.02 63.46 M29.02 63.46 C29.27 67.38, 29.52 71.3, 29.97 78.29 M29.02 63.46 C29.24 66.9, 29.46 70.34, 29.97 78.29 M29.97 78.29 C29.68 82.76, 29.4 87.23, 29.02 93.11 M29.97 78.29 C29.69 82.62, 29.41 86.94, 29.02 93.11 M29.02 93.11 C28.13 97.86, 27.24 102.6, 26.51 106.47 M29.02 93.11 C28.5 95.84, 27.99 98.58, 26.51 106.47 M26.51 106.47 C25.63 109.39, 24.75 112.31, 22.96 118.21 M26.51 106.47 C25.39 110.19, 24.27 113.9, 22.96 118.21 M22.96 118.21 C21.86 120.9, 20.76 123.6, 18.9 128.16 M22.96 118.21 C22.1 120.32, 21.24 122.43, 18.9 128.16 M18.9 128.16 C17.5 130.93, 16.1 133.69, 14.83 136.18 M18.9 128.16 C17.31 131.31, 15.71 134.45, 14.83 136.18 M14.83 136.18 C13.76 137.97, 12.69 139.76, 11.29 142.11 M14.83 136.18 C13.95 137.66, 13.07 139.13, 11.29 142.11 M11.29 142.11 C10.65 143.04, 10.02 143.97, 8.78 145.78 M11.29 142.11 C10.41 143.39, 9.53 144.68, 8.78 145.78 M8.78 145.78 C8.6 146.02, 8.41 146.27, 8.08 146.72 M8.78 145.78 C8.63 145.97, 8.48 146.17, 8.08 146.72 M8.08 146.72 C8 146.82, 7.92 146.91, 7.83 147.03 M8.08 146.72 C7.98 146.84, 7.89 146.95, 7.83 147.03 M7.83 147.03 C4.78 150.75, 1.73 154.46, 0 156.57 M7.83 147.03 C4.73 150.82, 1.62 154.6, 0 156.57 M0 156.57 C2.93 156.57, 5.85 156.57, 12.35 156.57 M0 156.57 C3.78 156.57, 7.56 156.57, 12.35 156.57 M12.35 156.57 C25.7 156.57, 39.05 156.57, 67.16 156.57 M12.35 156.57 C23.5 156.57, 34.64 156.57, 67.16 156.57 M67.16 156.57 C67.16 156.57, 67.16 156.57, 67.16 156.57 M67.16 156.57 C67.16 156.57, 67.16 156.57, 67.16 156.57 M67.16 156.57 C68 156.57, 68.85 156.57, 71.2 156.56 M67.16 156.57 C68.1 156.57, 69.04 156.57, 71.2 156.56 M71.2 156.56 C73.12 156.51, 75.04 156.47, 76.2 156.44 M71.2 156.56 C72.58 156.53, 73.96 156.49, 76.2 156.44 M76.2 156.44 C78.5 156.31, 80.81 156.17, 82.05 156.1 M76.2 156.44 C78.46 156.31, 80.72 156.18, 82.05 156.1 M82.05 156.1 C84.68 155.84, 87.31 155.57, 88.64 155.43 M82.05 156.1 C84.33 155.87, 86.62 155.64, 88.64 155.43 M88.64 155.43 C91.03 155.07, 93.41 154.7, 95.89 154.32 M88.64 155.43 C91.32 155.02, 93.99 154.61, 95.89 154.32 M95.89 154.32 C97.89 153.89, 99.89 153.46, 103.68 152.64 M95.89 154.32 C98.84 153.68, 101.78 153.05, 103.68 152.64 M103.68 152.64 C105.89 152.01, 108.09 151.38, 111.91 150.29 M103.68 152.64 C106.85 151.74, 110.02 150.83, 111.91 150.29 M111.91 150.29 C113.94 149.55, 115.96 148.81, 120.49 147.16 M111.91 150.29 C115.05 149.14, 118.19 148, 120.49 147.16 M120.49 147.16 C123.05 145.98, 125.6 144.81, 129.31 143.12 M120.49 147.16 C122.62 146.18, 124.75 145.2, 129.31 143.12 M129.31 143.12 C132.8 141.15, 136.29 139.18, 138.27 138.07 M129.31 143.12 C132.48 141.33, 135.66 139.54, 138.27 138.07 M138.27 138.07 C141.84 135.63, 145.4 133.2, 147.29 131.91 M138.27 138.07 C140.5 136.55, 142.73 135.03, 147.29 131.91 M147.29 131.91 C149.46 130.13, 151.63 128.35, 156.26 124.55 M147.29 131.91 C150.34 129.41, 153.39 126.9, 156.26 124.55 M156.26 124.55 C158.11 122.74, 159.96 120.92, 165.08 115.89 M156.26 124.55 C159.01 121.85, 161.76 119.15, 165.08 115.89 M165.08 115.89 C167.6 112.93, 170.12 109.98, 173.67 105.82 M165.08 115.89 C168.28 112.14, 171.47 108.4, 173.67 105.82 M173.67 105.82 C175.98 102.58, 178.29 99.34, 181.91 94.26 M173.67 105.82 C175.7 102.98, 177.73 100.13, 181.91 94.26 M181.91 94.26 C184.38 90.1, 186.85 85.94, 189.72 81.1 M181.91 94.26 C183.86 90.98, 185.81 87.7, 189.72 81.1 M189.72 81.1 C187.77 80.03, 185.82 78.96, 184.59 78.29 M189.72 81.1 C188.36 80.36, 187 79.61, 184.59 78.29 M184.59 78.29 C185.9 77.57, 187.21 76.85, 189.72 75.47 M184.59 78.29 C185.74 77.66, 186.88 77.03, 189.72 75.47 M189.72 75.47 C189.72 75.47, 189.72 75.47, 189.72 75.47 M189.72 75.47 C189.72 75.47, 189.72 75.47, 189.72 75.47 M189.72 75.47 C187.14 71.13, 184.56 66.79, 181.91 62.33 M189.72 75.47 C187.4 71.56, 185.07 67.64, 181.91 62.33 M181.91 62.33 C179.7 59.25, 177.49 56.17, 173.64 50.8 M181.91 62.33 C180.15 59.88, 178.39 57.42, 173.64 50.8 M173.64 50.8 C170.76 47.46, 167.88 44.11, 165.03 40.8 M173.64 50.8 C170.83 47.54, 168.02 44.27, 165.03 40.8 M165.03 40.8 C163.12 38.94, 161.2 37.08, 156.18 32.2 M165.03 40.8 C162.59 38.42, 160.14 36.04, 156.18 32.2 M156.18 32.2 C153.18 29.76, 150.17 27.33, 147.18 24.9 M156.18 32.2 C153.34 29.89, 150.49 27.59, 147.18 24.9 M147.18 24.9 C144.33 22.98, 141.49 21.06, 138.13 18.8 M147.18 24.9 C144.54 23.12, 141.9 21.34, 138.13 18.8 M138.13 18.8 C134.83 16.96, 131.52 15.11, 129.14 13.78 M138.13 18.8 C135.22 17.18, 132.32 15.56, 129.14 13.78 M129.14 13.78 C126.03 12.37, 122.93 10.95, 120.3 9.75 M129.14 13.78 C125.78 12.25, 122.43 10.72, 120.3 9.75 M120.3 9.75 C117.3 8.65, 114.31 7.55, 111.71 6.59 M120.3 9.75 C117.23 8.62, 114.16 7.49, 111.71 6.59 M111.71 6.59 C108.93 5.78, 106.15 4.98, 103.49 4.2 M111.71 6.59 C109.56 5.97, 107.4 5.34, 103.49 4.2 M103.49 4.2 C100.65 3.57, 97.82 2.94, 95.71 2.47 M103.49 4.2 C101.3 3.72, 99.12 3.23, 95.71 2.47 M95.71 2.47 C94.18 2.22, 92.66 1.98, 88.49 1.3 M95.71 2.47 C93.08 2.05, 90.45 1.62, 88.49 1.3 M88.49 1.3 C86.03 1.03, 83.57 0.75, 81.92 0.57 M88.49 1.3 C86.49 1.08, 84.5 0.86, 81.92 0.57 M81.92 0.57 C80 0.44, 78.08 0.31, 76.11 0.18 M81.92 0.57 C80.12 0.45, 78.31 0.33, 76.11 0.18 M76.11 0.18 C74.57 0.13, 73.02 0.09, 71.16 0.03 M76.11 0.18 C74.67 0.14, 73.22 0.09, 71.16 0.03 M71.16 0.03 C69.65 0.02, 68.14 0.01, 67.16 0 M71.16 0.03 C70.24 0.02, 69.32 0.01, 67.16 0 M67.16 0 C46.13 0, 25.11 0, 12.35 0 M67.16 0 C52.95 0, 38.75 0, 12.35 0 M12.35 0 C9.17 0, 5.98 0, 0 0 M12.35 0 C9.29 0, 6.22 0, 0 0 M0 0 C0 0, 0 0, 0 0 M0 0 C0 0, 0 0, 0 0 M0 0 C0 0, 0 0, 0 0 M0 0 C0 0, 0 0, 0 0" stroke="#000000" stroke-width="1" fill="none"></path></g></g><mask></mask><g stroke-linecap="round"><g transform="translate(393.34668989347426 65.62088730362206) rotate(0 76.81932884465463 66.54413199282185)" fill-rule="evenodd"><path d="M0 0 L44.16 0 L44.16 0 L47.99 0.01 L52.57 0.11 L63.67 0.97 L76.86 3.37 L84.06 5.41 L91.56 8.13 L99.29 11.63 L107.18 16.02 L115.15 21.4 L123.12 27.86 L131.03 35.5 L138.81 44.43 L146.37 54.75 L153.64 66.54 L146.47 78.17 L139.01 88.35 L131.34 97.19 L123.51 104.78 L115.6 111.22 L107.68 116.59 L99.83 121 L92.11 124.53 L84.41 127.36 L77.09 129.49 L63.8 132.03 L52.68 132.96 L44.16 133.09 L0.12 133.09 L0.12 133.09 L3.03 128.01 L6.12 121.93 L9.23 114.89 L12.17 106.92 L14.77 98.07 L16.84 88.36 L18.22 77.84 L18.72 66.54 L18.21 55.22 L16.82 44.69 L14.73 34.97 L12.11 26.12 L9.14 18.16 L6.02 11.13 L2.91 5.06 L0 0 L0 0" stroke="none" stroke-width="0" fill="#FFFFFF" fill-rule="evenodd"></path><path d="M0 0 C15.34 0, 30.68 0, 44.16 0 M0 0 C16.47 0, 32.95 0, 44.16 0 M44.16 0 C44.16 0, 44.16 0, 44.16 0 M44.16 0 C44.16 0, 44.16 0, 44.16 0 M44.16 0 C45.17 0, 46.19 0.01, 47.99 0.01 M44.16 0 C45.3 0, 46.44 0.01, 47.99 0.01 M47.99 0.01 C49.52 0.04, 51.05 0.08, 52.57 0.11 M47.99 0.01 C48.99 0.03, 49.99 0.05, 52.57 0.11 M52.57 0.11 C55.2 0.31, 57.82 0.52, 63.67 0.97 M52.57 0.11 C56.53 0.42, 60.5 0.72, 63.67 0.97 M63.67 0.97 C68.45 1.84, 73.24 2.71, 76.86 3.37 M63.67 0.97 C67.88 1.74, 72.08 2.5, 76.86 3.37 M76.86 3.37 C79.34 4.07, 81.81 4.77, 84.06 5.41 M76.86 3.37 C79.15 4.02, 81.44 4.67, 84.06 5.41 M84.06 5.41 C86.5 6.29, 88.94 7.18, 91.56 8.13 M84.06 5.41 C86.73 6.37, 89.39 7.34, 91.56 8.13 M91.56 8.13 C94.18 9.31, 96.8 10.5, 99.29 11.63 M91.56 8.13 C93.87 9.17, 96.18 10.22, 99.29 11.63 M99.29 11.63 C102.24 13.27, 105.19 14.92, 107.18 16.02 M99.29 11.63 C101.33 12.77, 103.38 13.91, 107.18 16.02 M107.18 16.02 C109.97 17.9, 112.76 19.78, 115.15 21.4 M107.18 16.02 C109.33 17.47, 111.47 18.92, 115.15 21.4 M115.15 21.4 C118.23 23.89, 121.31 26.39, 123.12 27.86 M115.15 21.4 C117.25 23.1, 119.35 24.8, 123.12 27.86 M123.12 27.86 C126.11 30.74, 129.09 33.63, 131.03 35.5 M123.12 27.86 C125.91 30.55, 128.7 33.25, 131.03 35.5 M131.03 35.5 C133.07 37.84, 135.1 40.18, 138.81 44.43 M131.03 35.5 C132.62 37.33, 134.21 39.15, 138.81 44.43 M138.81 44.43 C141.79 48.51, 144.78 52.58, 146.37 54.75 M138.81 44.43 C141.23 47.74, 143.65 51.05, 146.37 54.75 M146.37 54.75 C147.99 57.38, 149.61 60, 153.64 66.54 M146.37 54.75 C147.94 57.31, 149.52 59.87, 153.64 66.54 M153.64 66.54 C151.84 69.46, 150.05 72.37, 146.47 78.17 M153.64 66.54 C151.5 70.02, 149.35 73.49, 146.47 78.17 M146.47 78.17 C144.11 81.39, 141.75 84.62, 139.01 88.35 M146.47 78.17 C144.68 80.62, 142.88 83.07, 139.01 88.35 M139.01 88.35 C136.21 91.57, 133.42 94.8, 131.34 97.19 M139.01 88.35 C136.99 90.68, 134.96 93.01, 131.34 97.19 M131.34 97.19 C128.88 99.57, 126.43 101.95, 123.51 104.78 M131.34 97.19 C128.87 99.58, 126.41 101.97, 123.51 104.78 M123.51 104.78 C121.68 106.27, 119.85 107.76, 115.6 111.22 M123.51 104.78 C120.8 106.99, 118.09 109.19, 115.6 111.22 M115.6 111.22 C113.96 112.33, 112.33 113.44, 107.68 116.59 M115.6 111.22 C113.39 112.72, 111.17 114.22, 107.68 116.59 M107.68 116.59 C105.18 118, 102.67 119.4, 99.83 121 M107.68 116.59 C105.2 117.98, 102.72 119.37, 99.83 121 M99.83 121 C97.41 122.1, 95 123.21, 92.11 124.53 M99.83 121 C97.68 121.98, 95.52 122.97, 92.11 124.53 M92.11 124.53 C89.27 125.57, 86.44 126.62, 84.41 127.36 M92.11 124.53 C89.7 125.41, 87.28 126.3, 84.41 127.36 M84.41 127.36 C81.68 128.16, 78.95 128.95, 77.09 129.49 M84.41 127.36 C82.53 127.91, 80.65 128.46, 77.09 129.49 M77.09 129.49 C73.18 130.24, 69.27 130.98, 63.8 132.03 M77.09 129.49 C72.85 130.3, 68.61 131.11, 63.8 132.03 M63.8 132.03 C61.01 132.26, 58.22 132.5, 52.68 132.96 M63.8 132.03 C60.91 132.27, 58.02 132.51, 52.68 132.96 M52.68 132.96 C50.25 133, 47.82 133.03, 44.16 133.09 M52.68 132.96 C50.41 132.99, 48.13 133.03, 44.16 133.09 M44.16 133.09 C33.88 133.09, 23.6 133.09, 0.12 133.09 M44.16 133.09 C29.44 133.09, 14.71 133.09, 0.12 133.09 M0.12 133.09 C0.12 133.09, 0.12 133.09, 0.12 133.09 M0.12 133.09 C0.12 133.09, 0.12 133.09, 0.12 133.09 M0.12 133.09 C1.09 131.41, 2.05 129.72, 3.03 128.01 M0.12 133.09 C0.79 131.92, 1.46 130.75, 3.03 128.01 M3.03 128.01 C4.2 125.71, 5.37 123.41, 6.12 121.93 M3.03 128.01 C3.9 126.3, 4.77 124.59, 6.12 121.93 M6.12 121.93 C7.3 119.26, 8.48 116.59, 9.23 114.89 M6.12 121.93 C7.05 119.84, 7.97 117.75, 9.23 114.89 M9.23 114.89 C10.19 112.3, 11.14 109.71, 12.17 106.92 M9.23 114.89 C10.04 112.7, 10.85 110.5, 12.17 106.92 M12.17 106.92 C13.04 103.96, 13.91 101, 14.77 98.07 M12.17 106.92 C13.18 103.48, 14.19 100.04, 14.77 98.07 M14.77 98.07 C15.23 95.9, 15.69 93.73, 16.84 88.36 M14.77 98.07 C15.31 95.51, 15.86 92.96, 16.84 88.36 M16.84 88.36 C17.36 84.38, 17.88 80.41, 18.22 77.84 M16.84 88.36 C17.33 84.6, 17.82 80.84, 18.22 77.84 M18.22 77.84 C18.38 74.14, 18.54 70.44, 18.72 66.54 M18.22 77.84 C18.34 75.16, 18.45 72.47, 18.72 66.54 M18.72 66.54 C18.61 64.12, 18.5 61.69, 18.21 55.22 M18.72 66.54 C18.53 62.48, 18.35 58.42, 18.21 55.22 M18.21 55.22 C17.7 51.36, 17.19 47.49, 16.82 44.69 M18.21 55.22 C17.74 51.62, 17.26 48.02, 16.82 44.69 M16.82 44.69 C16.04 41.08, 15.27 37.47, 14.73 34.97 M16.82 44.69 C16.09 41.28, 15.35 37.88, 14.73 34.97 M14.73 34.97 C14.09 32.82, 13.45 30.66, 12.11 26.12 M14.73 34.97 C13.75 31.69, 12.78 28.4, 12.11 26.12 M12.11 26.12 C11.22 23.73, 10.33 21.33, 9.14 18.16 M12.11 26.12 C10.95 23.01, 9.8 19.91, 9.14 18.16 M9.14 18.16 C8.1 15.82, 7.06 13.48, 6.02 11.13 M9.14 18.16 C8.29 16.25, 7.44 14.34, 6.02 11.13 M6.02 11.13 C5.16 9.45, 4.3 7.78, 2.91 5.06 M6.02 11.13 C4.97 9.08, 3.92 7.03, 2.91 5.06 M2.91 5.06 C1.79 3.12, 0.68 1.18, 0 0 M2.91 5.06 C2.2 3.83, 1.5 2.61, 0 0 M0 0 C0 0, 0 0, 0 0 M0 0 C0 0, 0 0, 0 0 M0 0 C0 0, 0 0, 0 0 M0 0 C0 0, 0 0, 0 0" stroke="#000000" stroke-width="1" fill="none"></path></g></g><mask></mask><g stroke-linecap="round" transform="translate(549.0033027754059 128.06428368165064) rotate(0 5.212648821966297 3.939789918164152)"><path d="M10.43 3.94 C10.43 4.17, 10.4 4.4, 10.35 4.62 C10.29 4.85, 10.21 5.07, 10.11 5.29 C10.01 5.5, 9.88 5.71, 9.73 5.91 C9.58 6.11, 9.4 6.3, 9.21 6.47 C9.01 6.65, 8.79 6.81, 8.56 6.96 C8.33 7.1, 8.08 7.24, 7.82 7.35 C7.56 7.47, 7.28 7.56, 7 7.64 C6.71 7.72, 6.41 7.78, 6.12 7.82 C5.82 7.86, 5.51 7.88, 5.21 7.88 C4.91 7.88, 4.6 7.86, 4.31 7.82 C4.01 7.78, 3.71 7.72, 3.43 7.64 C3.15 7.56, 2.87 7.47, 2.61 7.35 C2.35 7.24, 2.09 7.1, 1.86 6.96 C1.63 6.81, 1.41 6.65, 1.22 6.47 C1.03 6.3, 0.85 6.11, 0.7 5.91 C0.55 5.71, 0.42 5.5, 0.31 5.29 C0.21 5.07, 0.13 4.85, 0.08 4.62 C0.03 4.4, 0 4.17, 0 3.94 C0 3.71, 0.03 3.48, 0.08 3.26 C0.13 3.03, 0.21 2.81, 0.31 2.59 C0.42 2.38, 0.55 2.17, 0.7 1.97 C0.85 1.77, 1.03 1.58, 1.22 1.41 C1.41 1.23, 1.63 1.07, 1.86 0.92 C2.09 0.78, 2.35 0.64, 2.61 0.53 C2.87 0.41, 3.15 0.32, 3.43 0.24 C3.71 0.16, 4.01 0.1, 4.31 0.06 C4.6 0.02, 4.91 0, 5.21 0 C5.51 0, 5.82 0.02, 6.12 0.06 C6.41 0.1, 6.71 0.16, 7 0.24 C7.28 0.32, 7.56 0.41, 7.82 0.53 C8.08 0.64, 8.33 0.78, 8.56 0.92 C8.79 1.07, 9.01 1.23, 9.21 1.41 C9.4 1.58, 9.58 1.77, 9.73 1.97 C9.88 2.17, 10.01 2.38, 10.11 2.59 C10.21 2.81, 10.29 3.03, 10.35 3.26 C10.4 3.48, 10.41 3.83, 10.43 3.94 C10.44 4.05, 10.44 3.83, 10.43 3.94" stroke="none" stroke-width="0" fill="black"></path><path d="M10.43 3.94 C10.43 4.17, 10.4 4.4, 10.35 4.62 C10.29 4.85, 10.21 5.07, 10.11 5.29 C10.01 5.5, 9.88 5.71, 9.73 5.91 C9.58 6.11, 9.4 6.3, 9.21 6.47 C9.01 6.65, 8.79 6.81, 8.56 6.96 C8.33 7.1, 8.08 7.24, 7.82 7.35 C7.56 7.47, 7.28 7.56, 7 7.64 C6.71 7.72, 6.41 7.78, 6.12 7.82 C5.82 7.86, 5.51 7.88, 5.21 7.88 C4.91 7.88, 4.6 7.86, 4.31 7.82 C4.01 7.78, 3.71 7.72, 3.43 7.64 C3.15 7.56, 2.87 7.47, 2.61 7.35 C2.35 7.24, 2.09 7.1, 1.86 6.96 C1.63 6.81, 1.41 6.65, 1.22 6.47 C1.03 6.3, 0.85 6.11, 0.7 5.91 C0.55 5.71, 0.42 5.5, 0.31 5.29 C0.21 5.07, 0.13 4.85, 0.08 4.62 C0.03 4.4, 0 4.17, 0 3.94 C0 3.71, 0.03 3.48, 0.08 3.26 C0.13 3.03, 0.21 2.81, 0.31 2.59 C0.42 2.38, 0.55 2.17, 0.7 1.97 C0.85 1.77, 1.03 1.58, 1.22 1.41 C1.41 1.23, 1.63 1.07, 1.86 0.92 C2.09 0.78, 2.35 0.64, 2.61 0.53 C2.87 0.41, 3.15 0.32, 3.43 0.24 C3.71 0.16, 4.01 0.1, 4.31 0.06 C4.6 0.02, 4.91 0, 5.21 0 C5.51 0, 5.82 0.02, 6.12 0.06 C6.41 0.1, 6.71 0.16, 7 0.24 C7.28 0.32, 7.56 0.41, 7.82 0.53 C8.08 0.64, 8.33 0.78, 8.56 0.92 C8.79 1.07, 9.01 1.23, 9.21 1.41 C9.4 1.58, 9.58 1.77, 9.73 1.97 C9.88 2.17, 10.01 2.38, 10.11 2.59 C10.21 2.81, 10.29 3.03, 10.35 3.26 C10.4 3.48, 10.41 3.83, 10.43 3.94 C10.44 4.05, 10.44 3.83, 10.43 3.94" stroke="#000000" stroke-width="4" fill="none"></path></g><g stroke-linecap="round"><g transform="translate(103.54134159567877 135.24248006899114) rotate(0 -1.956913347562761 -57.54384324081927)" fill-rule="evenodd"><path d="M0 0 L0 0 L-1.88 3.01 L-3.47 5.36 L-5.84 8.43 L-7.19 9.83 L-7.62 10.15 L-19.99 10.15 L-13.22 1.9 L-13.22 1.9 L-13.01 1.63 L-12.4 0.82 L-10.23 -2.36 L-7.16 -7.48 L-3.65 -14.41 L-0.13 -23.02 L2.93 -33.17 L5.1 -44.72 L5.92 -57.54 L5.1 -70.36 L2.93 -81.92 L-0.13 -92.07 L-3.65 -100.68 L-7.16 -107.61 L-10.23 -112.73 L-12.4 -115.9 L-13.01 -116.72 L-13.22 -116.99 L-19.99 -125.24 L-7.62 -125.24 L-7.62 -125.24 L-3.88 -120.68 L-0.11 -115.09 L2.41 -110.71 L5.1 -105.47 L7.8 -99.39 L10.36 -92.5 L12.63 -84.84 L14.44 -76.45 L15.64 -67.33 L16.08 -57.54 L15.64 -47.78 L14.45 -38.68 L12.65 -30.3 L10.39 -22.64 L7.84 -15.75 L5.16 -9.66 L2.49 -4.4 L0 0 L0 0" stroke="none" stroke-width="0" fill="black" fill-rule="evenodd"></path><path d="M0 0 C0 0, 0 0, 0 0 M0 0 C0 0, 0 0, 0 0 M0 0 C-0.6 0.96, -1.21 1.93, -1.88 3.01 M0 0 C-0.69 1.1, -1.38 2.2, -1.88 3.01 M-1.88 3.01 C-2.34 3.68, -2.79 4.36, -3.47 5.36 M-1.88 3.01 C-2.5 3.93, -3.13 4.86, -3.47 5.36 M-3.47 5.36 C-3.98 6.03, -4.5 6.69, -5.84 8.43 M-3.47 5.36 C-4.2 6.31, -4.92 7.25, -5.84 8.43 M-5.84 8.43 C-6.2 8.81, -6.57 9.19, -7.19 9.83 M-5.84 8.43 C-6.2 8.81, -6.56 9.18, -7.19 9.83 M-7.19 9.83 C-7.31 9.92, -7.43 10.01, -7.62 10.15 M-7.19 9.83 C-7.29 9.91, -7.4 9.99, -7.62 10.15 M-7.62 10.15 C-11.79 10.15, -15.97 10.15, -19.99 10.15 M-7.62 10.15 C-11.87 10.15, -16.11 10.15, -19.99 10.15 M-19.99 10.15 C-18.38 8.19, -16.77 6.23, -13.22 1.9 M-19.99 10.15 C-17.89 7.59, -15.78 5.02, -13.22 1.9 M-13.22 1.9 C-13.22 1.9, -13.22 1.9, -13.22 1.9 M-13.22 1.9 C-13.22 1.9, -13.22 1.9, -13.22 1.9 M-13.22 1.9 C-13.15 1.82, -13.08 1.73, -13.01 1.63 M-13.22 1.9 C-13.16 1.82, -13.09 1.74, -13.01 1.63 M-13.01 1.63 C-12.79 1.33, -12.56 1.04, -12.4 0.82 M-13.01 1.63 C-12.84 1.4, -12.67 1.18, -12.4 0.82 M-12.4 0.82 C-11.95 0.16, -11.51 -0.49, -10.23 -2.36 M-12.4 0.82 C-11.84 0, -11.28 -0.82, -10.23 -2.36 M-10.23 -2.36 C-9.52 -3.54, -8.82 -4.72, -7.16 -7.48 M-10.23 -2.36 C-9.02 -4.38, -7.8 -6.41, -7.16 -7.48 M-7.16 -7.48 C-6.2 -9.37, -5.24 -11.27, -3.65 -14.41 M-7.16 -7.48 C-6.17 -9.45, -5.17 -11.42, -3.65 -14.41 M-3.65 -14.41 C-2.27 -17.78, -0.9 -21.15, -0.13 -23.02 M-3.65 -14.41 C-2.79 -16.53, -1.92 -18.64, -0.13 -23.02 M-0.13 -23.02 C0.9 -26.45, 1.94 -29.89, 2.93 -33.17 M-0.13 -23.02 C0.81 -26.16, 1.76 -29.29, 2.93 -33.17 M2.93 -33.17 C3.66 -37.02, 4.38 -40.87, 5.1 -44.72 M2.93 -33.17 C3.55 -36.49, 4.18 -39.8, 5.1 -44.72 M5.1 -44.72 C5.38 -49.03, 5.65 -53.34, 5.92 -57.54 M5.1 -44.72 C5.39 -49.28, 5.69 -53.85, 5.92 -57.54 M5.92 -57.54 C5.75 -60.32, 5.57 -63.09, 5.1 -70.36 M5.92 -57.54 C5.65 -61.8, 5.38 -66.05, 5.1 -70.36 M5.1 -70.36 C4.61 -72.98, 4.12 -75.59, 2.93 -81.92 M5.1 -70.36 C4.56 -73.26, 4.01 -76.15, 2.93 -81.92 M2.93 -81.92 C1.79 -85.71, 0.64 -89.5, -0.13 -92.07 M2.93 -81.92 C2.18 -84.39, 1.43 -86.87, -0.13 -92.07 M-0.13 -92.07 C-1.16 -94.58, -2.18 -97.09, -3.65 -100.68 M-0.13 -92.07 C-1.26 -94.82, -2.39 -97.58, -3.65 -100.68 M-3.65 -100.68 C-4.4 -102.15, -5.14 -103.62, -7.16 -107.61 M-3.65 -100.68 C-4.49 -102.34, -5.33 -104, -7.16 -107.61 M-7.16 -107.61 C-7.89 -108.83, -8.62 -110.04, -10.23 -112.73 M-7.16 -107.61 C-8.07 -109.11, -8.97 -110.62, -10.23 -112.73 M-10.23 -112.73 C-10.91 -113.72, -11.58 -114.71, -12.4 -115.9 M-10.23 -112.73 C-11.07 -113.95, -11.9 -115.17, -12.4 -115.9 M-12.4 -115.9 C-12.58 -116.14, -12.76 -116.38, -13.01 -116.72 M-12.4 -115.9 C-12.52 -116.07, -12.64 -116.23, -13.01 -116.72 M-13.01 -116.72 C-13.08 -116.81, -13.15 -116.9, -13.22 -116.99 M-13.01 -116.72 C-13.07 -116.8, -13.14 -116.88, -13.22 -116.99 M-13.22 -116.99 C-15.35 -119.58, -17.47 -122.17, -19.99 -125.24 M-13.22 -116.99 C-15.08 -119.26, -16.94 -121.53, -19.99 -125.24 M-19.99 -125.24 C-16.47 -125.24, -12.94 -125.24, -7.62 -125.24 M-19.99 -125.24 C-16.89 -125.24, -13.78 -125.24, -7.62 -125.24 M-7.62 -125.24 C-7.62 -125.24, -7.62 -125.24, -7.62 -125.24 M-7.62 -125.24 C-7.62 -125.24, -7.62 -125.24, -7.62 -125.24 M-7.62 -125.24 C-6.55 -123.94, -5.49 -122.64, -3.88 -120.68 M-7.62 -125.24 C-6.63 -124.04, -5.65 -122.84, -3.88 -120.68 M-3.88 -120.68 C-2.48 -118.6, -1.07 -116.52, -0.11 -115.09 M-3.88 -120.68 C-2.92 -119.26, -1.96 -117.83, -0.11 -115.09 M-0.11 -115.09 C0.4 -114.2, 0.91 -113.32, 2.41 -110.71 M-0.11 -115.09 C0.42 -114.17, 0.95 -113.25, 2.41 -110.71 M2.41 -110.71 C3.31 -108.96, 4.2 -107.21, 5.1 -105.47 M2.41 -110.71 C3.3 -108.96, 4.2 -107.22, 5.1 -105.47 M5.1 -105.47 C6.13 -103.13, 7.17 -100.8, 7.8 -99.39 M5.1 -105.47 C5.95 -103.55, 6.8 -101.63, 7.8 -99.39 M7.8 -99.39 C8.58 -97.29, 9.36 -95.2, 10.36 -92.5 M7.8 -99.39 C8.62 -97.18, 9.44 -94.98, 10.36 -92.5 M10.36 -92.5 C11.16 -89.82, 11.95 -87.14, 12.63 -84.84 M10.36 -92.5 C10.94 -90.55, 11.52 -88.59, 12.63 -84.84 M12.63 -84.84 C13.27 -81.87, 13.91 -78.89, 14.44 -76.45 M12.63 -84.84 C13.27 -81.86, 13.92 -78.87, 14.44 -76.45 M14.44 -76.45 C14.8 -73.75, 15.15 -71.05, 15.64 -67.33 M14.44 -76.45 C14.75 -74.1, 15.06 -71.75, 15.64 -67.33 M15.64 -67.33 C15.81 -63.64, 15.97 -59.95, 16.08 -57.54 M15.64 -67.33 C15.81 -63.6, 15.97 -59.87, 16.08 -57.54 M16.08 -57.54 C15.91 -53.74, 15.74 -49.93, 15.64 -47.78 M16.08 -57.54 C15.99 -55.56, 15.9 -53.58, 15.64 -47.78 M15.64 -47.78 C15.18 -44.23, 14.71 -40.68, 14.45 -38.68 M15.64 -47.78 C15.36 -45.6, 15.07 -43.43, 14.45 -38.68 M14.45 -38.68 C13.96 -36.41, 13.47 -34.13, 12.65 -30.3 M14.45 -38.68 C13.87 -35.99, 13.29 -33.29, 12.65 -30.3 M12.65 -30.3 C12.12 -28.51, 11.59 -26.72, 10.39 -22.64 M12.65 -30.3 C11.8 -27.43, 10.96 -24.56, 10.39 -22.64 M10.39 -22.64 C9.48 -20.19, 8.58 -17.74, 7.84 -15.75 M10.39 -22.64 C9.64 -20.6, 8.88 -18.57, 7.84 -15.75 M7.84 -15.75 C7.12 -14.11, 6.39 -12.46, 5.16 -9.66 M7.84 -15.75 C6.95 -13.73, 6.06 -11.7, 5.16 -9.66 M5.16 -9.66 C4.27 -7.92, 3.39 -6.17, 2.49 -4.4 M5.16 -9.66 C4.2 -7.77, 3.24 -5.87, 2.49 -4.4 M2.49 -4.4 C1.77 -3.13, 1.05 -1.85, 0 0 M2.49 -4.4 C1.84 -3.25, 1.19 -2.1, 0 0 M0 0 C0 0, 0 0, 0 0 M0 0 C0 0, 0 0, 0 0 M0 0 C0 0, 0 0, 0 0 M0 0 C0 0, 0 0, 0 0" stroke="#000000" stroke-width="0.5" fill="none"></path></g></g><mask></mask><g stroke-linecap="round"><g transform="translate(103.01244609633738 10.00000000000017) rotate(0 82.03169194783283 67.6986239156841)" fill-rule="evenodd"><path d="M0 0 L6.77 8.25 L6.77 8.25 L6.98 8.53 L7.59 9.34 L9.76 12.51 L12.83 17.63 L16.34 24.57 L19.86 33.18 L22.92 43.33 L25.09 54.88 L25.92 67.7 L25.09 80.52 L22.92 92.07 L19.86 102.22 L16.34 110.83 L12.83 117.76 L9.76 122.89 L7.59 126.06 L6.98 126.87 L6.77 127.15 L0 135.4 L10.68 135.4 L58.07 135.4 L58.07 135.4 L61.57 135.38 L65.89 135.28 L70.95 134.99 L76.66 134.41 L82.92 133.45 L89.66 132 L96.78 129.96 L104.19 127.25 L111.82 123.76 L119.57 119.39 L127.37 114.07 L135.12 107.71 L142.75 100.21 L150.18 91.51 L157.31 81.51 L164.06 70.13 L159.62 67.7 L164.06 65.27 L164.06 65.27 L157.3 53.9 L150.16 43.93 L142.71 35.28 L135.05 27.84 L127.27 21.53 L119.45 16.25 L111.67 11.92 L104.03 8.43 L96.6 5.7 L89.49 3.63 L82.77 2.14 L76.52 1.12 L70.84 0.49 L65.82 0.16 L61.53 0.02 L58.07 0 L10.68 0 L0 0 L0 0" stroke="none" stroke-width="0" fill="black" fill-rule="evenodd"></path><path d="M0 0 C2.14 2.61, 4.28 5.22, 6.77 8.25 M0 0 C2.08 2.53, 4.15 5.06, 6.77 8.25 M6.77 8.25 C6.77 8.25, 6.77 8.25, 6.77 8.25 M6.77 8.25 C6.77 8.25, 6.77 8.25, 6.77 8.25 M6.77 8.25 C6.82 8.31, 6.86 8.37, 6.98 8.53 M6.77 8.25 C6.84 8.34, 6.91 8.42, 6.98 8.53 M6.98 8.53 C7.2 8.81, 7.41 9.1, 7.59 9.34 M6.98 8.53 C7.21 8.82, 7.43 9.12, 7.59 9.34 M7.59 9.34 C8.2 10.23, 8.81 11.12, 9.76 12.51 M7.59 9.34 C8.28 10.35, 8.97 11.35, 9.76 12.51 M9.76 12.51 C10.95 14.49, 12.14 16.48, 12.83 17.63 M9.76 12.51 C10.93 14.47, 12.11 16.43, 12.83 17.63 M12.83 17.63 C14.11 20.17, 15.4 22.7, 16.34 24.57 M12.83 17.63 C14.13 20.21, 15.44 22.78, 16.34 24.57 M16.34 24.57 C17.68 27.84, 19.02 31.12, 19.86 33.18 M16.34 24.57 C17.66 27.78, 18.97 31, 19.86 33.18 M19.86 33.18 C20.91 36.67, 21.97 40.16, 22.92 43.33 M19.86 33.18 C20.89 36.58, 21.92 39.99, 22.92 43.33 M22.92 43.33 C23.54 46.59, 24.15 49.86, 25.09 54.88 M22.92 43.33 C23.66 47.23, 24.39 51.13, 25.09 54.88 M25.09 54.88 C25.27 57.63, 25.45 60.38, 25.92 67.7 M25.09 54.88 C25.4 59.66, 25.71 64.44, 25.92 67.7 M25.92 67.7 C25.66 71.75, 25.4 75.81, 25.09 80.52 M25.92 67.7 C25.73 70.58, 25.55 73.46, 25.09 80.52 M25.09 80.52 C24.23 85.12, 23.36 89.73, 22.92 92.07 M25.09 80.52 C24.56 83.36, 24.03 86.21, 22.92 92.07 M22.92 92.07 C22.08 94.88, 21.23 97.68, 19.86 102.22 M22.92 92.07 C22.2 94.47, 21.47 96.87, 19.86 102.22 M19.86 102.22 C19.01 104.3, 18.16 106.38, 16.34 110.83 M19.86 102.22 C19.08 104.11, 18.31 106.01, 16.34 110.83 M16.34 110.83 C15.52 112.45, 14.7 114.06, 12.83 117.76 M16.34 110.83 C15.2 113.08, 14.06 115.34, 12.83 117.76 M12.83 117.76 C11.87 119.36, 10.92 120.95, 9.76 122.89 M12.83 117.76 C11.72 119.61, 10.62 121.46, 9.76 122.89 M9.76 122.89 C9.27 123.61, 8.77 124.34, 7.59 126.06 M9.76 122.89 C9.12 123.82, 8.48 124.76, 7.59 126.06 M7.59 126.06 C7.41 126.3, 7.23 126.55, 6.98 126.87 M7.59 126.06 C7.45 126.25, 7.31 126.44, 6.98 126.87 M6.98 126.87 C6.9 126.98, 6.82 127.08, 6.77 127.15 M6.98 126.87 C6.92 126.96, 6.85 127.04, 6.77 127.15 M6.77 127.15 C4.57 129.82, 2.38 132.5, 0 135.4 M6.77 127.15 C5.31 128.92, 3.85 130.7, 0 135.4 M0 135.4 C4 135.4, 8.01 135.4, 10.68 135.4 M0 135.4 C3.83 135.4, 7.65 135.4, 10.68 135.4 M10.68 135.4 C21.18 135.4, 31.68 135.4, 58.07 135.4 M10.68 135.4 C28.21 135.4, 45.74 135.4, 58.07 135.4 M58.07 135.4 C58.07 135.4, 58.07 135.4, 58.07 135.4 M58.07 135.4 C58.07 135.4, 58.07 135.4, 58.07 135.4 M58.07 135.4 C58.96 135.39, 59.85 135.39, 61.57 135.38 M58.07 135.4 C59.37 135.39, 60.67 135.39, 61.57 135.38 M61.57 135.38 C62.98 135.35, 64.39 135.32, 65.89 135.28 M61.57 135.38 C62.83 135.35, 64.09 135.32, 65.89 135.28 M65.89 135.28 C66.95 135.22, 68 135.16, 70.95 134.99 M65.89 135.28 C67.89 135.17, 69.89 135.05, 70.95 134.99 M70.95 134.99 C72.25 134.86, 73.55 134.73, 76.66 134.41 M70.95 134.99 C72.91 134.79, 74.86 134.59, 76.66 134.41 M76.66 134.41 C78.49 134.13, 80.33 133.84, 82.92 133.45 M76.66 134.41 C78 134.2, 79.35 134, 82.92 133.45 M82.92 133.45 C84.73 133.06, 86.53 132.67, 89.66 132 M82.92 133.45 C85.53 132.88, 88.13 132.32, 89.66 132 M89.66 132 C91.38 131.51, 93.1 131.01, 96.78 129.96 M89.66 132 C91.86 131.37, 94.06 130.74, 96.78 129.96 M96.78 129.96 C99.02 129.14, 101.26 128.32, 104.19 127.25 M96.78 129.96 C99.65 128.91, 102.52 127.86, 104.19 127.25 M104.19 127.25 C105.79 126.52, 107.38 125.79, 111.82 123.76 M104.19 127.25 C106.91 126.01, 109.63 124.76, 111.82 123.76 M111.82 123.76 C114.62 122.18, 117.42 120.6, 119.57 119.39 M111.82 123.76 C114.63 122.18, 117.44 120.59, 119.57 119.39 M119.57 119.39 C121.71 117.93, 123.86 116.47, 127.37 114.07 M119.57 119.39 C122.2 117.6, 124.83 115.8, 127.37 114.07 M127.37 114.07 C130.08 111.85, 132.78 109.63, 135.12 107.71 M127.37 114.07 C129.54 112.29, 131.72 110.5, 135.12 107.71 M135.12 107.71 C137.74 105.14, 140.35 102.58, 142.75 100.21 M135.12 107.71 C136.9 105.96, 138.69 104.21, 142.75 100.21 M142.75 100.21 C145.3 97.24, 147.84 94.26, 150.18 91.51 M142.75 100.21 C145.44 97.07, 148.12 93.93, 150.18 91.51 M150.18 91.51 C151.87 89.13, 153.57 86.76, 157.31 81.51 M150.18 91.51 C152.52 88.23, 154.85 84.96, 157.31 81.51 M157.31 81.51 C159.28 78.19, 161.25 74.88, 164.06 70.13 M157.31 81.51 C159.85 77.23, 162.39 72.95, 164.06 70.13 M164.06 70.13 C163.13 69.62, 162.19 69.11, 159.62 67.7 M164.06 70.13 C162.71 69.39, 161.35 68.64, 159.62 67.7 M159.62 67.7 C161.05 66.92, 162.47 66.14, 164.06 65.27 M159.62 67.7 C161.17 66.85, 162.73 66, 164.06 65.27 M164.06 65.27 C164.06 65.27, 164.06 65.27, 164.06 65.27 M164.06 65.27 C164.06 65.27, 164.06 65.27, 164.06 65.27 M164.06 65.27 C162.52 62.68, 160.98 60.09, 157.3 53.9 M164.06 65.27 C162.34 62.36, 160.61 59.46, 157.3 53.9 M157.3 53.9 C155.11 50.84, 152.92 47.79, 150.16 43.93 M157.3 53.9 C155.44 51.31, 153.59 48.72, 150.16 43.93 M150.16 43.93 C147.3 40.62, 144.45 37.3, 142.71 35.28 M150.16 43.93 C147.77 41.16, 145.39 38.39, 142.71 35.28 M142.71 35.28 C140.06 32.71, 137.41 30.13, 135.05 27.84 M142.71 35.28 C140.31 32.94, 137.9 30.61, 135.05 27.84 M135.05 27.84 C133.25 26.38, 131.45 24.92, 127.27 21.53 M135.05 27.84 C132.55 25.81, 130.04 23.77, 127.27 21.53 M127.27 21.53 C124.95 19.97, 122.63 18.4, 119.45 16.25 M127.27 21.53 C125.65 20.44, 124.03 19.34, 119.45 16.25 M119.45 16.25 C116.41 14.56, 113.38 12.87, 111.67 11.92 M119.45 16.25 C117.19 14.99, 114.92 13.73, 111.67 11.92 M111.67 11.92 C109.95 11.13, 108.23 10.35, 104.03 8.43 M111.67 11.92 C109.13 10.76, 106.59 9.6, 104.03 8.43 M104.03 8.43 C101.43 7.48, 98.83 6.52, 96.6 5.7 M104.03 8.43 C102.49 7.87, 100.95 7.3, 96.6 5.7 M96.6 5.7 C95.02 5.24, 93.44 4.78, 89.49 3.63 M96.6 5.7 C94.59 5.11, 92.57 4.53, 89.49 3.63 M89.49 3.63 C86.96 3.07, 84.42 2.51, 82.77 2.14 M89.49 3.63 C87.45 3.18, 85.41 2.73, 82.77 2.14 M82.77 2.14 C80.88 1.83, 79 1.53, 76.52 1.12 M82.77 2.14 C80.54 1.78, 78.3 1.41, 76.52 1.12 M76.52 1.12 C75.34 0.99, 74.16 0.86, 70.84 0.49 M76.52 1.12 C74.45 0.89, 72.38 0.66, 70.84 0.49 M70.84 0.49 C69.33 0.39, 67.82 0.29, 65.82 0.16 M70.84 0.49 C69.59 0.41, 68.33 0.32, 65.82 0.16 M65.82 0.16 C64.3 0.11, 62.78 0.06, 61.53 0.02 M65.82 0.16 C64.85 0.13, 63.89 0.1, 61.53 0.02 M61.53 0.02 C60.22 0.01, 58.9 0.01, 58.07 0 M61.53 0.02 C60.28 0.02, 59.03 0.01, 58.07 0 M58.07 0 C48.49 0, 38.9 0, 10.68 0 M58.07 0 C45.07 0, 32.07 0, 10.68 0 M10.68 0 C7.21 0, 3.74 0, 0 0 M10.68 0 C7.55 0, 4.41 0, 0 0 M0 0 C0 0, 0 0, 0 0 M0 0 C0 0, 0 0, 0 0 M0 0 C0 0, 0 0, 0 0 M0 0 C0 0, 0 0, 0 0" stroke="#000000" stroke-width="1" fill="none"></path></g></g><mask></mask><g stroke-linecap="round"><g transform="translate(122.89891687156967 20.154793587352685) rotate(0 66.42927471726502 57.54383032833147)" fill-rule="evenodd"><path d="M0 0 L38.19 0 L38.19 0 L41.5 0.01 L45.46 0.09 L55.06 0.84 L66.47 2.92 L72.69 4.68 L79.18 7.03 L85.86 10.06 L92.68 13.86 L99.57 18.5 L106.47 24.09 L113.31 30.7 L120.03 38.42 L126.57 47.34 L132.86 57.54 L126.66 67.59 L120.21 76.4 L113.57 84.05 L106.8 90.61 L99.96 96.18 L93.12 100.82 L86.33 104.63 L79.65 107.68 L72.99 110.13 L66.66 111.98 L55.17 114.17 L45.55 114.98 L38.19 115.09 L0.11 115.09 L0.11 115.09 L2.62 110.7 L5.29 105.44 L7.98 99.35 L10.52 92.46 L12.77 84.8 L14.56 76.41 L15.75 67.31 L16.18 57.54 L15.75 47.75 L14.55 38.64 L12.73 30.24 L10.47 22.59 L7.91 15.7 L5.2 9.62 L2.52 4.38 L0 0 L0 0" stroke="none" stroke-width="0" fill="#FFFFFF" fill-rule="evenodd"></path><path d="M0 0 C10.58 0, 21.16 0, 38.19 0 M0 0 C11.83 0, 23.67 0, 38.19 0 M38.19 0 C38.19 0, 38.19 0, 38.19 0 M38.19 0 C38.19 0, 38.19 0, 38.19 0 M38.19 0 C39.31 0, 40.43 0.01, 41.5 0.01 M38.19 0 C38.93 0, 39.67 0, 41.5 0.01 M41.5 0.01 C42.93 0.04, 44.35 0.07, 45.46 0.09 M41.5 0.01 C42.6 0.03, 43.69 0.06, 45.46 0.09 M45.46 0.09 C47.58 0.26, 49.69 0.42, 55.06 0.84 M45.46 0.09 C48.15 0.3, 50.83 0.51, 55.06 0.84 M55.06 0.84 C58.33 1.43, 61.6 2.03, 66.47 2.92 M55.06 0.84 C58.53 1.47, 62.01 2.1, 66.47 2.92 M66.47 2.92 C68.84 3.59, 71.22 4.26, 72.69 4.68 M66.47 2.92 C67.82 3.3, 69.17 3.68, 72.69 4.68 M72.69 4.68 C74.35 5.28, 76.01 5.88, 79.18 7.03 M72.69 4.68 C74.37 5.29, 76.05 5.89, 79.18 7.03 M79.18 7.03 C81.55 8.1, 83.92 9.18, 85.86 10.06 M79.18 7.03 C81.36 8.02, 83.54 9, 85.86 10.06 M85.86 10.06 C87.89 11.19, 89.92 12.32, 92.68 13.86 M85.86 10.06 C88.21 11.36, 90.55 12.67, 92.68 13.86 M92.68 13.86 C94.37 14.99, 96.05 16.13, 99.57 18.5 M92.68 13.86 C95.08 15.47, 97.48 17.09, 99.57 18.5 M99.57 18.5 C102.11 20.56, 104.65 22.62, 106.47 24.09 M99.57 18.5 C101.39 19.98, 103.21 21.45, 106.47 24.09 M106.47 24.09 C108.04 25.6, 109.6 27.12, 113.31 30.7 M106.47 24.09 C109.06 26.59, 111.64 29.09, 113.31 30.7 M113.31 30.7 C114.95 32.59, 116.6 34.48, 120.03 38.42 M113.31 30.7 C115.5 33.21, 117.68 35.72, 120.03 38.42 M120.03 38.42 C121.74 40.75, 123.45 43.08, 126.57 47.34 M120.03 38.42 C122.39 41.63, 124.74 44.85, 126.57 47.34 M126.57 47.34 C128 49.67, 129.43 51.99, 132.86 57.54 M126.57 47.34 C128.69 50.79, 130.82 54.23, 132.86 57.54 M132.86 57.54 C130.59 61.22, 128.32 64.9, 126.66 67.59 M132.86 57.54 C130.43 61.48, 128.01 65.41, 126.66 67.59 M126.66 67.59 C125.09 69.74, 123.52 71.88, 120.21 76.4 M126.66 67.59 C124.66 70.33, 122.66 73.06, 120.21 76.4 M120.21 76.4 C117.93 79.03, 115.65 81.65, 113.57 84.05 M120.21 76.4 C118.75 78.08, 117.3 79.76, 113.57 84.05 M113.57 84.05 C111.28 86.27, 108.98 88.5, 106.8 90.61 M113.57 84.05 C111.17 86.38, 108.76 88.71, 106.8 90.61 M106.8 90.61 C104.99 92.08, 103.19 93.55, 99.96 96.18 M106.8 90.61 C104.44 92.53, 102.08 94.45, 99.96 96.18 M99.96 96.18 C97.32 97.97, 94.67 99.77, 93.12 100.82 M99.96 96.18 C97.33 97.97, 94.69 99.76, 93.12 100.82 M93.12 100.82 C90.56 102.25, 88.01 103.69, 86.33 104.63 M93.12 100.82 C90.95 102.04, 88.78 103.25, 86.33 104.63 M86.33 104.63 C83.78 105.79, 81.24 106.96, 79.65 107.68 M86.33 104.63 C84.89 105.29, 83.45 105.94, 79.65 107.68 M79.65 107.68 C77.01 108.66, 74.36 109.63, 72.99 110.13 M79.65 107.68 C78.02 108.28, 76.39 108.88, 72.99 110.13 M72.99 110.13 C70.84 110.76, 68.68 111.39, 66.66 111.98 M72.99 110.13 C71.34 110.62, 69.69 111.1, 66.66 111.98 M66.66 111.98 C64.13 112.46, 61.6 112.94, 55.17 114.17 M66.66 111.98 C63.49 112.58, 60.31 113.19, 55.17 114.17 M55.17 114.17 C53.17 114.34, 51.16 114.51, 45.55 114.98 M55.17 114.17 C52.85 114.37, 50.54 114.56, 45.55 114.98 M45.55 114.98 C43.99 115, 42.42 115.02, 38.19 115.09 M45.55 114.98 C43.19 115.01, 40.84 115.05, 38.19 115.09 M38.19 115.09 C24.91 115.09, 11.64 115.09, 0.11 115.09 M38.19 115.09 C27.76 115.09, 17.33 115.09, 0.11 115.09 M0.11 115.09 C0.11 115.09, 0.11 115.09, 0.11 115.09 M0.11 115.09 C0.11 115.09, 0.11 115.09, 0.11 115.09 M0.11 115.09 C0.73 113.99, 1.36 112.89, 2.62 110.7 M0.11 115.09 C1.06 113.42, 2.02 111.74, 2.62 110.7 M2.62 110.7 C3.51 108.95, 4.4 107.19, 5.29 105.44 M2.62 110.7 C3.22 109.51, 3.83 108.32, 5.29 105.44 M5.29 105.44 C5.9 104.06, 6.51 102.68, 7.98 99.35 M5.29 105.44 C6.33 103.1, 7.36 100.76, 7.98 99.35 M7.98 99.35 C8.65 97.55, 9.31 95.74, 10.52 92.46 M7.98 99.35 C8.89 96.89, 9.8 94.42, 10.52 92.46 M10.52 92.46 C11.22 90.07, 11.93 87.68, 12.77 84.8 M10.52 92.46 C10.99 90.86, 11.46 89.26, 12.77 84.8 M12.77 84.8 C13.41 81.79, 14.06 78.78, 14.56 76.41 M12.77 84.8 C13.2 82.77, 13.64 80.74, 14.56 76.41 M14.56 76.41 C15 73.07, 15.44 69.74, 15.75 67.31 M14.56 76.41 C15.02 72.95, 15.47 69.5, 15.75 67.31 M15.75 67.31 C15.86 64.81, 15.97 62.31, 16.18 57.54 M15.75 67.31 C15.86 64.95, 15.96 62.58, 16.18 57.54 M16.18 57.54 C16.02 53.89, 15.86 50.25, 15.75 47.75 M16.18 57.54 C16.04 54.37, 15.9 51.2, 15.75 47.75 M15.75 47.75 C15.43 45.37, 15.12 42.99, 14.55 38.64 M15.75 47.75 C15.42 45.26, 15.09 42.77, 14.55 38.64 M14.55 38.64 C13.94 35.82, 13.33 33, 12.73 30.24 M14.55 38.64 C14.06 36.37, 13.57 34.1, 12.73 30.24 M12.73 30.24 C12.16 28.29, 11.58 26.35, 10.47 22.59 M12.73 30.24 C12.05 27.92, 11.36 25.6, 10.47 22.59 M10.47 22.59 C9.48 19.92, 8.49 17.26, 7.91 15.7 M10.47 22.59 C9.57 20.18, 8.68 17.78, 7.91 15.7 M7.91 15.7 C6.85 13.34, 5.8 10.97, 5.2 9.62 M7.91 15.7 C7.23 14.18, 6.55 12.66, 5.2 9.62 M5.2 9.62 C4.46 8.17, 3.71 6.72, 2.52 4.38 M5.2 9.62 C4.42 8.09, 3.63 6.56, 2.52 4.38 M2.52 4.38 C1.53 2.66, 0.54 0.94, 0 0 M2.52 4.38 C1.8 3.13, 1.09 1.89, 0 0 M0 0 C0 0, 0 0, 0 0 M0 0 C0 0, 0 0, 0 0 M0 0 C0 0, 0 0, 0 0 M0 0 C0 0, 0 0, 0 0" stroke="#000000" stroke-width="1" fill="none"></path></g></g><mask></mask></svg>