<svg version="1.1" xmlns="http://www.w3.org/2000/svg" viewBox="0 0 654.2484302090481 290.81537019755046" width="654.2484302090481" height="290.81537019755046" filter="invert(93%) hue-rotate(180deg)" class="excalidraw-svg">
  <!-- svg-source:excalidraw -->
  
  <defs>
    <style class="style-fonts">
      
    </style>
    
  </defs>
  <g stroke-linecap="round" transform="translate(10.00000038583903 10) rotate(0 141.33331298828125 28.5)"><path d="M14.25 0 C76.05 0, 137.84 0, 268.42 0 M14.25 0 C100.31 0, 186.37 0, 268.42 0 M268.42 0 C277.92 0, 282.67 4.75, 282.67 14.25 M268.42 0 C277.92 0, 282.67 4.75, 282.67 14.25 M282.67 14.25 C282.67 20.83, 282.67 27.41, 282.67 42.75 M282.67 14.25 C282.67 24.04, 282.67 33.84, 282.67 42.75 M282.67 42.75 C282.67 52.25, 277.92 57, 268.42 57 M282.67 42.75 C282.67 52.25, 277.92 57, 268.42 57 M268.42 57 C209.28 57, 150.14 57, 14.25 57 M268.42 57 C197.79 57, 127.16 57, 14.25 57 M14.25 57 C4.75 57, 0 52.25, 0 42.75 M14.25 57 C4.75 57, 0 52.25, 0 42.75 M0 42.75 C0 35.84, 0 28.93, 0 14.25 M0 42.75 C0 34.29, 0 25.83, 0 14.25 M0 14.25 C0 4.75, 4.75 0, 14.25 0 M0 14.25 C0 4.75, 4.75 0, 14.25 0" stroke="#1e1e1e" stroke-width="2" fill="none"></path></g><g transform="translate(87.45440712412028 22.399999999999977) rotate(0 63.87890625 16.099999999999994)"><text x="63.87890625" y="23.660546874999998" font-family="Helvetica, Segoe UI Emoji" font-size="28px" fill="#1e1e1e" text-anchor="middle" style="white-space: pre;" direction="ltr" dominant-baseline="alphabetic">Anwender</text></g><g stroke-linecap="round" transform="translate(10.00000000706848 81.27179026884392) rotate(0 141.33331298828125 28.499999999999986)"><path d="M14.25 0 C107.15 0, 200.04 0, 268.42 0 M14.25 0 C105.35 0, 196.44 0, 268.42 0 M268.42 0 C277.92 0, 282.67 4.75, 282.67 14.25 M268.42 0 C277.92 0, 282.67 4.75, 282.67 14.25 M282.67 14.25 C282.67 20.13, 282.67 26, 282.67 42.75 M282.67 14.25 C282.67 23.73, 282.67 33.21, 282.67 42.75 M282.67 42.75 C282.67 52.25, 277.92 57, 268.42 57 M282.67 42.75 C282.67 52.25, 277.92 57, 268.42 57 M268.42 57 C190.25 57, 112.08 57, 14.25 57 M268.42 57 C210.58 57, 152.75 57, 14.25 57 M14.25 57 C4.75 57, 0 52.25, 0 42.75 M14.25 57 C4.75 57, 0 52.25, 0 42.75 M0 42.75 C0 34.65, 0 26.55, 0 14.25 M0 42.75 C0 35.91, 0 29.07, 0 14.25 M0 14.25 C0 4.75, 4.75 0, 14.25 0 M0 14.25 C0 4.75, 4.75 0, 14.25 0" stroke="#1e1e1e" stroke-width="2" fill="none"></path></g><g transform="translate(77.38214112034973 93.67179026884389) rotate(0 73.951171875 16.099999999999994)"><text x="73.951171875" y="23.660546874999998" font-family="Helvetica, Segoe UI Emoji" font-size="28px" fill="#1e1e1e" text-anchor="middle" style="white-space: pre;" direction="ltr" dominant-baseline="alphabetic">Anwendung</text></g><g stroke-linecap="round" transform="translate(10.000000414417286 152.54358003972948) rotate(0 141.33331298828125 28.499999999999986)"><path d="M14.25 0 C108.99 0, 203.73 0, 268.42 0 M14.25 0 C100.57 0, 186.88 0, 268.42 0 M268.42 0 C277.92 0, 282.67 4.75, 282.67 14.25 M268.42 0 C277.92 0, 282.67 4.75, 282.67 14.25 M282.67 14.25 C282.67 20.41, 282.67 26.58, 282.67 42.75 M282.67 14.25 C282.67 20.61, 282.67 26.96, 282.67 42.75 M282.67 42.75 C282.67 52.25, 277.92 57, 268.42 57 M282.67 42.75 C282.67 52.25, 277.92 57, 268.42 57 M268.42 57 C200.16 57, 131.9 57, 14.25 57 M268.42 57 C194.2 57, 119.97 57, 14.25 57 M14.25 57 C4.75 57, 0 52.25, 0 42.75 M14.25 57 C4.75 57, 0 52.25, 0 42.75 M0 42.75 C0 36.61, 0 30.48, 0 14.25 M0 42.75 C0 33.21, 0 23.67, 0 14.25 M0 14.25 C0 4.75, 4.75 0, 14.25 0 M0 14.25 C0 4.75, 4.75 0, 14.25 0" stroke="#1e1e1e" stroke-width="2" fill="none"></path></g><g transform="translate(62.637024340198536 164.94358003972945) rotate(0 88.6962890625 16.099999999999994)"><text x="88.6962890625" y="23.660546874999998" font-family="Helvetica, Segoe UI Emoji" font-size="28px" fill="#1e1e1e" text-anchor="middle" style="white-space: pre;" direction="ltr" dominant-baseline="alphabetic">Betriebsystem</text></g><g stroke-linecap="round" transform="translate(10 223.81537019755046) rotate(0 141.33331298828125 28.499999999999986)"><path d="M14.25 0 C107.16 0, 200.07 0, 268.42 0 M14.25 0 C89.38 0, 164.5 0, 268.42 0 M268.42 0 C277.92 0, 282.67 4.75, 282.67 14.25 M268.42 0 C277.92 0, 282.67 4.75, 282.67 14.25 M282.67 14.25 C282.67 20.55, 282.67 26.86, 282.67 42.75 M282.67 14.25 C282.67 20.49, 282.67 26.72, 282.67 42.75 M282.67 42.75 C282.67 52.25, 277.92 57, 268.42 57 M282.67 42.75 C282.67 52.25, 277.92 57, 268.42 57 M268.42 57 C208.65 57, 148.89 57, 14.25 57 M268.42 57 C175.41 57, 82.41 57, 14.25 57 M14.25 57 C4.75 57, 0 52.25, 0 42.75 M14.25 57 C4.75 57, 0 52.25, 0 42.75 M0 42.75 C0 36.64, 0 30.54, 0 14.25 M0 42.75 C0 35.15, 0 27.56, 0 14.25 M0 14.25 C0 4.75, 4.75 0, 14.25 0 M0 14.25 C0 4.75, 4.75 0, 14.25 0" stroke="#1e1e1e" stroke-width="2" fill="none"></path></g><g transform="translate(90.42999267578125 236.21537019755044) rotate(0 60.9033203125 16.1)"><text x="60.9033203125" y="23.660546874999998" font-family="Helvetica, Segoe UI Emoji" font-size="28px" fill="#1e1e1e" text-anchor="middle" style="white-space: pre;" direction="ltr" dominant-baseline="alphabetic">Hardware</text></g><g stroke-linecap="round"><g transform="translate(328.4134079602831 276.4704420943516) rotate(0 0 -130.2867192916579)"><path d="M0 0 C0 -43.43, 0 -217.14, 0 -260.57 M0 0 C0 -43.43, 0 -217.14, 0 -260.57" stroke="#1971c2" stroke-width="4" fill="none"></path></g><g transform="translate(328.4134079602831 276.4704420943516) rotate(0 0 -130.2867192916579)"><path d="M0 -260.57 L6.34 -246.98 L-6.34 -246.98 L0 -260.57" stroke="none" stroke-width="0" fill="#1971c2" fill-rule="evenodd"></path><path d="M0 -260.57 C1.91 -256.48, 3.81 -252.39, 6.34 -246.98 M0 -260.57 C1.8 -256.72, 3.59 -252.87, 6.34 -246.98 M6.34 -246.98 C3.6 -246.98, 0.85 -246.98, -6.34 -246.98 M6.34 -246.98 C3.51 -246.98, 0.68 -246.98, -6.34 -246.98 M-6.34 -246.98 C-4.86 -250.14, -3.39 -253.31, 0 -260.57 M-6.34 -246.98 C-4.58 -250.76, -2.82 -254.53, 0 -260.57 M0 -260.57 C0 -260.57, 0 -260.57, 0 -260.57 M0 -260.57 C0 -260.57, 0 -260.57, 0 -260.57" stroke="#1971c2" stroke-width="4" fill="none"></path></g></g><mask></mask><g transform="translate(346.00401492584507 136.55164139782278) rotate(0 149.12220764160156 8.872475581144968)"><text x="0" y="13.038982881054256" font-family="Helvetica, Segoe UI Emoji" font-size="15.430392315034737px" fill="#1e1e1e" text-anchor="start" style="white-space: pre;" direction="ltr" dominant-baseline="alphabetic">"abstrakter" = weiter weg von der Hardware</text></g></svg>