<svg version="1.1" xmlns="http://www.w3.org/2000/svg" viewBox="0 0 617.5008401262987 249.68630861883898" width="617.5008401262987" height="249.68630861883898" filter="invert(93%) hue-rotate(180deg)" class="excalidraw-svg">
  <!-- svg-source:excalidraw -->
  
  <defs>
    <style class="style-fonts">
      
    </style>
    
  </defs>
  <g stroke-linecap="round" transform="translate(10.000000754658458 177.28634523993273) rotate(0 185.5999755859375 31.199981689453125)"><path d="M15.6 0 C104.38 0, 193.15 0, 355.6 0 C366 0, 371.2 5.2, 371.2 15.6 C371.2 26.92, 371.2 38.23, 371.2 46.8 C371.2 57.2, 366 62.4, 355.6 62.4 C251.86 62.4, 148.11 62.4, 15.6 62.4 C5.2 62.4, 0 57.2, 0 46.8 C0 34.94, 0 23.08, 0 15.6 C0 5.2, 5.2 0, 15.6 0" stroke="none" stroke-width="0" fill="#a5d8ff"></path><path d="M15.6 0 C93.19 0, 170.78 0, 355.6 0 M15.6 0 C109.16 0, 202.73 0, 355.6 0 M355.6 0 C366 0, 371.2 5.2, 371.2 15.6 M355.6 0 C366 0, 371.2 5.2, 371.2 15.6 M371.2 15.6 C371.2 23.32, 371.2 31.04, 371.2 46.8 M371.2 15.6 C371.2 23.83, 371.2 32.06, 371.2 46.8 M371.2 46.8 C371.2 57.2, 366 62.4, 355.6 62.4 M371.2 46.8 C371.2 57.2, 366 62.4, 355.6 62.4 M355.6 62.4 C232.61 62.4, 109.63 62.4, 15.6 62.4 M355.6 62.4 C249.98 62.4, 144.37 62.4, 15.6 62.4 M15.6 62.4 C5.2 62.4, 0 57.2, 0 46.8 M15.6 62.4 C5.2 62.4, 0 57.2, 0 46.8 M0 46.8 C0 35.72, 0 24.63, 0 15.6 M0 46.8 C0 34.89, 0 22.99, 0 15.6 M0 15.6 C0 5.2, 5.2 0, 15.6 0 M0 15.6 C0 5.2, 5.2 0, 15.6 0" stroke="#1e1e1e" stroke-width="0.5" fill="none"></path></g><g transform="translate(118.31286696559596 192.38632692938586) rotate(0 77.287109375 16.099999999999998)"><text x="77.287109375" y="23.660546874999998" font-family="Helvetica, Segoe UI Emoji" font-size="28px" fill="#1e1e1e" text-anchor="middle" style="white-space: pre;" direction="ltr" dominant-baseline="alphabetic">Transistoren</text></g><g stroke-linecap="round" transform="translate(10.000000754658402 93.6863541364171) rotate(0 185.5999755859375 31.199981689453125)"><path d="M15.6 0 C105.52 0, 195.44 0, 355.6 0 C366 0, 371.2 5.2, 371.2 15.6 C371.2 27.62, 371.2 39.64, 371.2 46.8 C371.2 57.2, 366 62.4, 355.6 62.4 C261.62 62.4, 167.64 62.4, 15.6 62.4 C5.2 62.4, 0 57.2, 0 46.8 C0 38.19, 0 29.58, 0 15.6 C0 5.2, 5.2 0, 15.6 0" stroke="none" stroke-width="0" fill="#a5d8ff"></path><path d="M15.6 0 C142.69 0, 269.78 0, 355.6 0 M15.6 0 C110.24 0, 204.88 0, 355.6 0 M355.6 0 C366 0, 371.2 5.2, 371.2 15.6 M355.6 0 C366 0, 371.2 5.2, 371.2 15.6 M371.2 15.6 C371.2 27.45, 371.2 39.31, 371.2 46.8 M371.2 15.6 C371.2 26.09, 371.2 36.58, 371.2 46.8 M371.2 46.8 C371.2 57.2, 366 62.4, 355.6 62.4 M371.2 46.8 C371.2 57.2, 366 62.4, 355.6 62.4 M355.6 62.4 C256.18 62.4, 156.76 62.4, 15.6 62.4 M355.6 62.4 C269.99 62.4, 184.39 62.4, 15.6 62.4 M15.6 62.4 C5.2 62.4, 0 57.2, 0 46.8 M15.6 62.4 C5.2 62.4, 0 57.2, 0 46.8 M0 46.8 C0 36.23, 0 25.66, 0 15.6 M0 46.8 C0 37.42, 0 28.04, 0 15.6 M0 15.6 C0 5.2, 5.2 0, 15.6 0 M0 15.6 C0 5.2, 5.2 0, 15.6 0" stroke="#1e1e1e" stroke-width="0.5" fill="none"></path></g><g transform="translate(127.3831794655959 108.78633582587022) rotate(0 68.216796875 16.099999999999994)"><text x="68.216796875" y="23.660546874999998" font-family="Helvetica, Segoe UI Emoji" font-size="28px" fill="#1e1e1e" text-anchor="middle" style="white-space: pre;" direction="ltr" dominant-baseline="alphabetic">Logikgates</text></g><g stroke-linecap="round" transform="translate(10.000000754658458 10.086363136417106) rotate(0 185.5999755859375 31.199981689453125)"><path d="M15.6 0 C133.52 0, 251.45 0, 355.6 0 C366 0, 371.2 5.2, 371.2 15.6 C371.2 27.18, 371.2 38.76, 371.2 46.8 C371.2 57.2, 366 62.4, 355.6 62.4 C226.08 62.4, 96.56 62.4, 15.6 62.4 C5.2 62.4, 0 57.2, 0 46.8 C0 39.68, 0 32.55, 0 15.6 C0 5.2, 5.2 0, 15.6 0" stroke="none" stroke-width="0" fill="#a5d8ff"></path><path d="M15.6 0 C146.24 0, 276.87 0, 355.6 0 M15.6 0 C138.82 0, 262.05 0, 355.6 0 M355.6 0 C366 0, 371.2 5.2, 371.2 15.6 M355.6 0 C366 0, 371.2 5.2, 371.2 15.6 M371.2 15.6 C371.2 25.17, 371.2 34.74, 371.2 46.8 M371.2 15.6 C371.2 22.04, 371.2 28.48, 371.2 46.8 M371.2 46.8 C371.2 57.2, 366 62.4, 355.6 62.4 M371.2 46.8 C371.2 57.2, 366 62.4, 355.6 62.4 M355.6 62.4 C269.27 62.4, 182.95 62.4, 15.6 62.4 M355.6 62.4 C286.11 62.4, 216.63 62.4, 15.6 62.4 M15.6 62.4 C5.2 62.4, 0 57.2, 0 46.8 M15.6 62.4 C5.2 62.4, 0 57.2, 0 46.8 M0 46.8 C0 37.17, 0 27.54, 0 15.6 M0 46.8 C0 37.79, 0 28.78, 0 15.6 M0 15.6 C0 5.2, 5.2 0, 15.6 0 M0 15.6 C0 5.2, 5.2 0, 15.6 0" stroke="#1e1e1e" stroke-width="0.5" fill="none"></path></g><g transform="translate(76.21423415309596 25.186344825870236) rotate(0 119.3857421875 16.099999999999994)"><text x="119.3857421875" y="23.660546874999998" font-family="Helvetica, Segoe UI Emoji" font-size="28px" fill="#1e1e1e" text-anchor="middle" style="white-space: pre;" direction="ltr" dominant-baseline="alphabetic">Rechner (Addierer)</text></g><g stroke-linecap="round"><g transform="translate(180.84734492335383 175.82165346408556) rotate(0 -0.00035626964487533996 -8.09865838026483)"><path d="M0 0 C0 -2.7, 0 -13.5, 0 -16.2 M0 0 C0 -2.7, 0 -13.5, 0 -16.2" stroke="#1e1e1e" stroke-width="2" fill="none"></path></g><g transform="translate(180.84734492335383 175.82165346408556) rotate(0 -0.00035626964487533996 -8.09865838026483)"><path d="M2.77 -8.59 C1.84 -11.15, 0.91 -13.71, 0 -16.2 M2.77 -8.59 C2.17 -10.24, 1.57 -11.89, 0 -16.2" stroke="#1e1e1e" stroke-width="2" fill="none"></path></g><g transform="translate(180.84734492335383 175.82165346408556) rotate(0 -0.00035626964487533996 -8.09865838026483)"><path d="M-2.77 -8.59 C-1.84 -11.15, -0.91 -13.71, 0 -16.2 M-2.77 -8.59 C-2.17 -10.24, -1.57 -11.89, 0 -16.2" stroke="#1e1e1e" stroke-width="2" fill="none"></path></g></g><mask></mask><g stroke-linecap="round"><g transform="translate(195.5999759658647 91.18499798406614) rotate(0 -1.602984411874786e-11 -8.098658380264823)"><path d="M0 0 C0 -2.7, 0 -13.5, 0 -16.2 M0 0 C0 -2.7, 0 -13.5, 0 -16.2" stroke="#1e1e1e" stroke-width="2" fill="none"></path></g><g transform="translate(195.5999759658647 91.18499798406614) rotate(0 -1.602984411874786e-11 -8.098658380264823)"><path d="M2.77 -8.59 C1.7 -11.52, 0.63 -14.45, 0 -16.2 M2.77 -8.59 C2.2 -10.15, 1.63 -11.72, 0 -16.2" stroke="#1e1e1e" stroke-width="2" fill="none"></path></g><g transform="translate(195.5999759658647 91.18499798406614) rotate(0 -1.602984411874786e-11 -8.098658380264823)"><path d="M-2.77 -8.59 C-1.7 -11.52, -0.63 -14.45, 0 -16.2 M-2.77 -8.59 C-2.2 -10.15, -1.63 -11.72, 0 -16.2" stroke="#1e1e1e" stroke-width="2" fill="none"></path></g></g><mask></mask><g stroke-linecap="round" transform="translate(10.0000005419638 10.086362862788945) rotate(0 185.59997589931606 8.656955540303827)"><path d="M4.33 0 C78.56 0, 152.8 0, 366.87 0 C369.76 0, 371.2 1.44, 371.2 4.33 C371.2 6.61, 371.2 8.89, 371.2 12.99 C371.2 15.87, 369.76 17.31, 366.87 17.31 C246.69 17.31, 126.5 17.31, 4.33 17.31 C1.44 17.31, 0 15.87, 0 12.99 C0 9.86, 0 6.73, 0 4.33 C0 1.44, 1.44 0, 4.33 0" stroke="none" stroke-width="0" fill="#645307"></path><path d="M4.33 0 C85.44 0, 166.56 0, 366.87 0 M4.33 0 C90.92 0, 177.52 0, 366.87 0 M366.87 0 C369.76 0, 371.2 1.44, 371.2 4.33 M366.87 0 C369.76 0, 371.2 1.44, 371.2 4.33 M371.2 4.33 C371.2 7.25, 371.2 10.18, 371.2 12.99 M371.2 4.33 C371.2 6.8, 371.2 9.27, 371.2 12.99 M371.2 12.99 C371.2 15.87, 369.76 17.31, 366.87 17.31 M371.2 12.99 C371.2 15.87, 369.76 17.31, 366.87 17.31 M366.87 17.31 C286.11 17.31, 205.35 17.31, 4.33 17.31 M366.87 17.31 C258.72 17.31, 150.56 17.31, 4.33 17.31 M4.33 17.31 C1.44 17.31, 0 15.87, 0 12.99 M4.33 17.31 C1.44 17.31, 0 15.87, 0 12.99 M0 12.99 C0 11.07, 0 9.16, 0 4.33 M0 12.99 C0 10.16, 0 7.34, 0 4.33 M0 4.33 C0 1.44, 1.44 0, 4.33 0 M0 4.33 C0 1.44, 1.44 0, 4.33 0" stroke="transparent" stroke-width="1" fill="none"></path></g><g stroke-linecap="round" transform="translate(10 91.18499822113901) rotate(0 185.59997589931606 8.656955540303827)"><path d="M4.33 0 C112.14 0, 219.96 0, 366.87 0 C369.76 0, 371.2 1.44, 371.2 4.33 C371.2 6.68, 371.2 9.03, 371.2 12.99 C371.2 15.87, 369.76 17.31, 366.87 17.31 C291.49 17.31, 216.1 17.31, 4.33 17.31 C1.44 17.31, 0 15.87, 0 12.99 C0 10.24, 0 7.49, 0 4.33 C0 1.44, 1.44 0, 4.33 0" stroke="none" stroke-width="0" fill="#645307"></path><path d="M4.33 0 C95.58 0, 186.83 0, 366.87 0 M4.33 0 C117.49 0, 230.65 0, 366.87 0 M366.87 0 C369.76 0, 371.2 1.44, 371.2 4.33 M366.87 0 C369.76 0, 371.2 1.44, 371.2 4.33 M371.2 4.33 C371.2 6.72, 371.2 9.11, 371.2 12.99 M371.2 4.33 C371.2 6.29, 371.2 8.24, 371.2 12.99 M371.2 12.99 C371.2 15.87, 369.76 17.31, 366.87 17.31 M371.2 12.99 C371.2 15.87, 369.76 17.31, 366.87 17.31 M366.87 17.31 C249.15 17.31, 131.42 17.31, 4.33 17.31 M366.87 17.31 C280.23 17.31, 193.59 17.31, 4.33 17.31 M4.33 17.31 C1.44 17.31, 0 15.87, 0 12.99 M4.33 17.31 C1.44 17.31, 0 15.87, 0 12.99 M0 12.99 C0 9.74, 0 6.49, 0 4.33 M0 12.99 C0 10.31, 0 7.64, 0 4.33 M0 4.33 C0 1.44, 1.44 0, 4.33 0 M0 4.33 C0 1.44, 1.44 0, 4.33 0" stroke="transparent" stroke-width="1" fill="none"></path></g><g stroke-linecap="round" transform="translate(10.000000254290342 177.28634504906938) rotate(0 185.59997589931606 8.656955540303827)"><path d="M4.33 0 C122.49 0, 240.64 0, 366.87 0 C369.76 0, 371.2 1.44, 371.2 4.33 C371.2 7.59, 371.2 10.86, 371.2 12.99 C371.2 15.87, 369.76 17.31, 366.87 17.31 C291.82 17.31, 216.77 17.31, 4.33 17.31 C1.44 17.31, 0 15.87, 0 12.99 C0 10.68, 0 8.38, 0 4.33 C0 1.44, 1.44 0, 4.33 0" stroke="none" stroke-width="0" fill="#645307"></path><path d="M4.33 0 C102.8 0, 201.28 0, 366.87 0 M4.33 0 C80.66 0, 156.98 0, 366.87 0 M366.87 0 C369.76 0, 371.2 1.44, 371.2 4.33 M366.87 0 C369.76 0, 371.2 1.44, 371.2 4.33 M371.2 4.33 C371.2 6.59, 371.2 8.85, 371.2 12.99 M371.2 4.33 C371.2 6.16, 371.2 7.99, 371.2 12.99 M371.2 12.99 C371.2 15.87, 369.76 17.31, 366.87 17.31 M371.2 12.99 C371.2 15.87, 369.76 17.31, 366.87 17.31 M366.87 17.31 C235.12 17.31, 103.36 17.31, 4.33 17.31 M366.87 17.31 C274 17.31, 181.13 17.31, 4.33 17.31 M4.33 17.31 C1.44 17.31, 0 15.87, 0 12.99 M4.33 17.31 C1.44 17.31, 0 15.87, 0 12.99 M0 12.99 C0 10.94, 0 8.89, 0 4.33 M0 12.99 C0 10.03, 0 7.07, 0 4.33 M0 4.33 C0 1.44, 1.44 0, 4.33 0 M0 4.33 C0 1.44, 1.44 0, 4.33 0" stroke="transparent" stroke-width="1" fill="none"></path></g><g transform="translate(382.9209514919685 12.57370989091109) rotate(4.228273672927264 13.463988241014803 48.97299231548448)" stroke="none"><path fill="#1e1e1e" d="M -0.86,-1.38 Q -0.86,-1.38 -0.26,-2.03 0.33,-2.68 1.69,-3.11 3.04,-3.54 4.41,-3.61 5.79,-3.67 7.22,-3.74 8.64,-3.82 10.01,-3.47 11.37,-3.12 12.66,-1.83 13.96,-0.54 14.44,0.45 14.92,1.46 15.36,2.90 15.80,4.34 15.87,5.67 15.94,7.01 15.96,8.45 15.97,9.89 15.97,11.38 15.97,12.88 15.97,14.19 15.96,15.49 15.82,16.75 15.68,18.00 15.63,19.13 15.58,20.25 15.41,21.39 15.25,22.53 15.41,23.62 15.57,24.72 15.58,25.97 15.59,27.21 15.71,28.51 15.83,29.80 15.91,31.06 16.00,32.32 16.48,33.56 16.97,34.80 17.59,35.77 18.21,36.75 19.05,37.46 19.89,38.17 20.95,38.76 22.01,39.35 23.04,40.08 24.06,40.80 25.25,41.60 26.45,42.39 27.68,43.29 28.92,44.19 28.54,45.88 28.16,47.57 26.88,48.57 25.60,49.57 24.45,50.56 23.30,51.56 22.21,52.45 21.13,53.35 20.63,54.58 20.14,55.80 19.93,56.85 19.72,57.90 19.54,59.06 19.36,60.23 19.32,61.48 19.27,62.73 19.26,64.31 19.25,65.89 19.25,66.97 19.25,68.05 19.43,69.58 19.61,71.10 20.04,72.65 20.46,74.19 20.98,75.39 21.51,76.58 21.96,78.13 22.42,79.68 22.67,80.89 22.93,82.09 23.15,83.37 23.37,84.65 23.49,85.97 23.61,87.29 23.46,88.56 23.30,89.84 23.13,91.40 22.95,92.95 22.51,94.10 22.07,95.25 21.48,96.15 20.90,97.04 20.02,97.95 19.14,98.85 17.93,99.80 16.72,100.74 15.52,101.27 14.32,101.80 11.95,101.44 9.59,101.08 9.42,100.95 9.24,100.83 9.12,100.65 9.00,100.48 8.94,100.28 8.88,100.07 8.89,99.86 8.90,99.65 8.97,99.45 9.05,99.25 9.18,99.09 9.32,98.92 9.50,98.81 9.68,98.70 9.88,98.65 10.09,98.60 10.30,98.62 10.51,98.64 10.71,98.72 10.90,98.81 11.06,98.95 11.21,99.10 11.32,99.28 11.42,99.47 11.46,99.68 11.50,99.89 11.46,100.10 11.43,100.31 11.34,100.50 11.24,100.69 11.09,100.84 10.94,100.98 10.75,101.08 10.55,101.17 10.34,101.20 10.13,101.22 9.92,101.18 9.72,101.14 9.53,101.03 9.35,100.92 9.21,100.76 9.07,100.60 8.99,100.41 8.90,100.21 8.89,100.00 8.87,99.79 8.93,99.58 8.98,99.38 9.10,99.20 9.21,99.02 9.38,98.89 9.55,98.76 9.75,98.69 9.95,98.62 10.16,98.61 10.37,98.61 10.58,98.67 10.78,98.74 10.78,98.74 10.78,98.74 11.35,98.07 11.93,97.39 13.20,96.86 14.48,96.33 15.64,95.43 16.80,94.53 17.43,93.64 18.07,92.75 18.32,91.61 18.57,90.47 18.65,89.35 18.73,88.23 18.76,86.97 18.79,85.70 18.60,84.55 18.41,83.39 18.18,82.20 17.94,81.02 17.54,79.64 17.14,78.27 16.55,76.90 15.95,75.54 15.56,74.20 15.18,72.86 14.99,71.23 14.80,69.59 14.65,68.24 14.50,66.89 14.50,65.78 14.49,64.66 14.51,63.16 14.53,61.65 14.74,60.10 14.94,58.55 15.09,57.25 15.24,55.96 15.57,54.78 15.90,53.59 16.40,52.35 16.90,51.11 17.75,50.10 18.60,49.09 19.59,48.35 20.58,47.61 21.96,46.42 23.34,45.22 24.26,44.46 25.19,43.69 25.10,45.05 25.01,46.42 24.00,45.76 22.99,45.11 21.71,44.28 20.44,43.44 19.17,42.69 17.90,41.94 16.93,41.10 15.96,40.26 15.20,39.51 14.43,38.76 13.73,37.40 13.02,36.05 12.71,34.92 12.40,33.79 12.21,32.59 12.02,31.39 11.87,30.07 11.71,28.75 11.72,27.37 11.73,25.98 11.71,24.89 11.70,23.80 11.65,22.67 11.61,21.55 11.70,20.40 11.79,19.25 11.97,17.92 12.16,16.59 12.16,15.17 12.16,13.76 12.16,12.39 12.16,11.01 12.16,9.55 12.15,8.09 12.16,7.00 12.16,5.90 11.94,4.66 11.71,3.42 11.28,2.18 10.84,0.93 9.53,0.38 8.22,-0.16 7.06,-0.08 5.91,-0.00 4.17,0.17 2.43,0.34 1.64,0.68 0.86,1.02 0.70,1.11 0.54,1.19 0.37,1.24 0.20,1.28 0.02,1.29 -0.15,1.29 -0.33,1.25 -0.50,1.21 -0.66,1.13 -0.82,1.05 -0.96,0.93 -1.09,0.81 -1.19,0.67 -1.30,0.52 -1.36,0.36 -1.43,0.19 -1.45,0.01 -1.48,-0.15 -1.46,-0.33 -1.44,-0.51 -1.38,-0.68 -1.32,-0.85 -1.22,-0.99 -1.12,-1.14 -0.99,-1.26 -0.86,-1.38 -0.86,-1.38 L -0.86,-1.38 Z"></path></g><g transform="translate(419.08152645235174 44.19174440940529) rotate(3.4744327269628 2.4213294049277607 13.236736629538328)" stroke="none"><path fill="#1e1e1e" d="M 1.75,-0.25 Q 1.75,-0.25 2.20,1.00 2.66,2.26 3.07,3.57 3.48,4.88 3.78,6.46 4.09,8.05 4.69,10.88 5.28,13.71 5.63,15.69 5.98,17.67 6.23,19.17 6.49,20.67 6.41,23.17 6.33,25.68 6.34,25.89 6.36,26.10 6.30,26.31 6.24,26.51 6.12,26.69 6.00,26.86 5.83,26.99 5.66,27.12 5.46,27.18 5.25,27.25 5.04,27.25 4.83,27.25 4.63,27.18 4.43,27.11 4.26,26.98 4.09,26.85 3.97,26.67 3.85,26.49 3.80,26.29 3.74,26.08 3.76,25.87 3.77,25.66 3.85,25.46 3.93,25.27 4.07,25.11 4.21,24.94 4.39,24.84 4.57,24.73 4.78,24.68 4.99,24.64 5.20,24.66 5.41,24.69 5.60,24.78 5.79,24.87 5.95,25.02 6.10,25.16 6.20,25.35 6.30,25.54 6.33,25.75 6.36,25.96 6.33,26.17 6.29,26.38 6.19,26.57 6.09,26.75 5.94,26.90 5.78,27.04 5.59,27.13 5.39,27.22 5.18,27.24 4.97,27.26 4.76,27.22 4.56,27.17 4.37,27.06 4.19,26.95 4.06,26.78 3.92,26.62 3.84,26.42 3.77,26.22 3.77,26.22 3.77,26.22 2.80,23.82 1.84,21.41 1.61,19.94 1.39,18.47 1.05,16.51 0.72,14.55 0.15,11.73 -0.41,8.92 -0.67,7.57 -0.93,6.23 -1.42,4.58 -1.92,2.93 -1.83,1.59 -1.75,0.25 -1.75,0.03 -1.75,-0.17 -1.71,-0.38 -1.66,-0.59 -1.57,-0.78 -1.47,-0.97 -1.33,-1.13 -1.20,-1.29 -1.02,-1.42 -0.85,-1.54 -0.65,-1.62 -0.45,-1.70 -0.24,-1.73 -0.03,-1.76 0.17,-1.74 0.38,-1.72 0.58,-1.65 0.78,-1.58 0.96,-1.46 1.14,-1.34 1.28,-1.19 1.43,-1.03 1.53,-0.84 1.64,-0.66 1.69,-0.45 1.75,-0.24 1.75,-0.25 L 1.75,-0.25 Z"></path></g><g transform="translate(416.1124063648267 46.94885926932426) rotate(3.4744327269628 8.555455854216191 0.9685391513572057)" stroke="none"><path fill="#1e1e1e" d="M -0.74,-1.69 Q -0.74,-1.69 0.71,-2.42 2.16,-3.14 3.67,-3.73 5.17,-4.32 6.30,-4.84 7.42,-5.36 8.60,-5.73 9.79,-6.10 11.16,-6.21 12.53,-6.33 13.80,-6.06 15.08,-5.79 16.25,-5.07 17.42,-4.35 18.04,-2.99 18.65,-1.63 18.24,-0.11 17.83,1.39 16.17,2.95 14.52,4.51 13.21,5.47 11.90,6.43 10.79,7.07 9.68,7.71 6.79,7.09 3.90,6.47 3.73,6.35 3.55,6.23 3.42,6.06 3.29,5.89 3.23,5.69 3.16,5.49 3.16,5.28 3.16,5.07 3.23,4.87 3.30,4.66 3.43,4.50 3.56,4.33 3.74,4.21 3.91,4.09 4.12,4.03 4.32,3.98 4.54,3.99 4.75,4.00 4.94,4.08 5.14,4.16 5.30,4.30 5.46,4.44 5.57,4.62 5.68,4.81 5.73,5.01 5.77,5.22 5.75,5.43 5.72,5.64 5.63,5.84 5.54,6.03 5.39,6.18 5.25,6.34 5.06,6.43 4.87,6.53 4.66,6.57 4.45,6.60 4.24,6.56 4.03,6.53 3.85,6.43 3.66,6.33 3.51,6.17 3.37,6.02 3.28,5.82 3.19,5.63 3.17,5.42 3.15,5.21 3.19,5.00 3.24,4.79 3.35,4.61 3.46,4.43 3.62,4.29 3.79,4.16 3.99,4.08 4.18,4.00 4.40,3.99 4.61,3.98 4.81,4.04 5.02,4.10 5.02,4.10 5.02,4.10 7.08,3.34 9.15,2.58 10.30,1.79 11.45,1.00 12.99,0.02 14.53,-0.94 13.57,-1.44 12.62,-1.94 10.86,-1.72 9.10,-1.50 7.86,-0.99 6.62,-0.49 5.20,0.02 3.77,0.54 2.26,1.12 0.74,1.69 0.52,1.76 0.31,1.82 0.09,1.83 -0.13,1.84 -0.35,1.80 -0.57,1.76 -0.77,1.66 -0.97,1.57 -1.14,1.43 -1.32,1.29 -1.46,1.11 -1.59,0.94 -1.68,0.73 -1.77,0.53 -1.81,0.31 -1.85,0.09 -1.83,-0.13 -1.81,-0.35 -1.75,-0.56 -1.68,-0.77 -1.56,-0.96 -1.44,-1.15 -1.28,-1.31 -1.12,-1.47 -0.93,-1.58 -0.74,-1.69 -0.74,-1.69 L -0.74,-1.69 Z"></path></g><g transform="translate(437.04174108962155 57.16161457124687) rotate(3.4744327269628 1.2913937455719235 2.744202472607739)" stroke="none"><path fill="#1e1e1e" d="M 1.96,-0.51 Q 1.96,-0.51 2.58,1.60 3.19,3.72 3.63,5.48 4.08,7.24 4.67,8.90 5.26,10.56 5.44,10.81 5.62,11.07 5.68,11.35 5.75,11.63 5.74,11.92 5.73,12.21 5.66,12.49 5.58,12.77 5.44,13.02 5.30,13.27 5.10,13.49 4.90,13.70 4.66,13.86 4.42,14.01 4.15,14.11 3.87,14.21 3.59,14.23 3.30,14.26 3.01,14.22 2.72,14.18 2.46,14.07 2.19,13.96 1.95,13.79 1.72,13.62 1.53,13.40 1.35,13.18 1.22,12.92 1.09,12.66 0.30,11.03 -0.48,9.39 -0.95,7.87 -1.43,6.35 -1.94,4.72 -2.45,3.09 -2.79,1.68 -3.13,0.27 -3.38,-1.69 -3.64,-3.65 -2.66,-5.67 -1.69,-7.69 1.21,-7.57 4.11,-7.45 4.29,-7.34 4.47,-7.23 4.61,-7.06 4.75,-6.90 4.82,-6.70 4.90,-6.50 4.91,-6.29 4.92,-6.08 4.86,-5.87 4.80,-5.67 4.68,-5.50 4.56,-5.32 4.39,-5.19 4.22,-5.07 4.02,-5.00 3.81,-4.94 3.60,-4.94 3.39,-4.94 3.19,-5.01 2.99,-5.08 2.82,-5.21 2.65,-5.34 2.53,-5.52 2.42,-5.69 2.36,-5.90 2.31,-6.11 2.32,-6.32 2.33,-6.53 2.42,-6.73 2.50,-6.92 2.64,-7.08 2.77,-7.24 2.96,-7.35 3.14,-7.46 3.35,-7.50 3.56,-7.55 3.77,-7.52 3.98,-7.50 4.17,-7.40 4.36,-7.31 4.52,-7.17 4.67,-7.02 4.77,-6.83 4.86,-6.64 4.90,-6.43 4.93,-6.22 4.89,-6.01 4.85,-5.80 4.75,-5.61 4.65,-5.43 4.50,-5.28 4.34,-5.14 4.15,-5.05 3.95,-4.96 3.74,-4.94 3.53,-4.92 3.32,-4.97 3.12,-5.02 3.12,-5.02 3.12,-5.02 2.40,-4.30 1.69,-3.58 1.87,-2.21 2.04,-0.83 2.28,0.42 2.51,1.69 2.92,3.30 3.33,4.92 3.70,6.22 4.07,7.52 4.84,9.29 5.62,11.07 5.68,11.35 5.75,11.63 5.74,11.92 5.73,12.21 5.66,12.49 5.58,12.77 5.44,13.02 5.30,13.27 5.10,13.49 4.90,13.70 4.66,13.86 4.42,14.01 4.15,14.11 3.87,14.21 3.59,14.23 3.30,14.26 3.01,14.22 2.73,14.18 2.46,14.07 2.19,13.96 1.96,13.79 1.72,13.62 1.53,13.40 1.35,13.18 1.22,12.92 1.09,12.66 1.02,12.37 0.94,12.08 0.39,10.17 -0.16,8.26 -0.56,6.54 -0.96,4.81 -1.46,2.66 -1.96,0.51 -1.99,0.27 -2.03,0.02 -2.00,-0.21 -1.97,-0.45 -1.89,-0.68 -1.81,-0.91 -1.67,-1.12 -1.53,-1.32 -1.35,-1.49 -1.17,-1.65 -0.96,-1.77 -0.74,-1.88 -0.50,-1.95 -0.27,-2.01 -0.02,-2.01 0.21,-2.01 0.45,-1.96 0.69,-1.90 0.91,-1.79 1.13,-1.68 1.31,-1.52 1.50,-1.36 1.64,-1.16 1.78,-0.96 1.87,-0.74 1.96,-0.51 1.96,-0.51 L 1.96,-0.51 Z"></path></g><g transform="translate(447.0920964514122 50.28603244511507) rotate(3.4744327269628 5.649801453214124 9.362567708466017)" stroke="none"><path fill="#1e1e1e" d="M 1.92,0 Q 1.92,0 2.16,1.94 2.41,3.89 2.41,5.65 2.42,7.41 2.90,9.63 3.39,11.86 4.05,9.67 4.70,7.49 5.01,5.92 5.32,4.36 5.65,3.00 5.98,1.65 6.12,0.48 6.26,-0.68 6.39,-0.99 6.51,-1.29 6.71,-1.55 6.91,-1.82 7.16,-2.03 7.42,-2.24 7.71,-2.38 8.01,-2.52 8.33,-2.59 8.65,-2.66 8.98,-2.65 9.31,-2.63 9.63,-2.54 9.94,-2.45 10.23,-2.29 10.52,-2.13 10.76,-1.90 10.99,-1.67 11.17,-1.40 11.35,-1.12 11.45,-0.81 11.56,-0.50 11.59,-0.17 11.62,0.15 11.57,0.48 11.51,0.80 11.76,1.89 12.00,2.99 12.19,4.57 12.39,6.16 12.64,7.88 12.90,9.60 13.11,11.10 13.32,12.60 13.51,14.09 13.69,15.58 13.28,17.22 12.87,18.87 12.87,19.08 12.87,19.30 12.80,19.50 12.72,19.70 12.59,19.86 12.46,20.03 12.29,20.15 12.11,20.27 11.90,20.32 11.70,20.37 11.49,20.36 11.27,20.35 11.08,20.26 10.88,20.18 10.72,20.04 10.56,19.90 10.45,19.72 10.35,19.54 10.30,19.33 10.26,19.12 10.29,18.91 10.31,18.70 10.40,18.51 10.49,18.32 10.64,18.16 10.79,18.01 10.98,17.91 11.17,17.82 11.38,17.79 11.59,17.75 11.80,17.79 12.01,17.83 12.19,17.93 12.38,18.03 12.52,18.19 12.67,18.34 12.76,18.54 12.84,18.73 12.86,18.94 12.88,19.15 12.83,19.36 12.79,19.57 12.67,19.75 12.56,19.93 12.40,20.07 12.23,20.20 12.04,20.28 11.84,20.35 11.63,20.36 11.41,20.37 11.21,20.31 11.01,20.25 10.83,20.13 10.66,20.01 10.53,19.84 10.40,19.67 10.34,19.46 10.27,19.26 10.27,19.26 10.27,19.26 9.32,17.75 8.37,16.23 8.19,14.78 8.02,13.33 7.82,11.86 7.62,10.38 7.36,8.59 7.09,6.79 6.92,5.35 6.76,3.91 6.51,1.61 6.26,-0.68 6.39,-0.98 6.51,-1.29 6.71,-1.55 6.91,-1.82 7.16,-2.03 7.42,-2.24 7.71,-2.38 8.01,-2.52 8.33,-2.59 8.65,-2.66 8.98,-2.65 9.31,-2.63 9.63,-2.54 9.94,-2.45 10.23,-2.29 10.52,-2.13 10.76,-1.90 10.99,-1.67 11.17,-1.40 11.35,-1.12 11.45,-0.81 11.56,-0.50 11.59,-0.17 11.62,0.15 11.57,0.48 11.51,0.80 10.98,1.80 10.45,2.81 10.11,4.03 9.77,5.26 9.38,7.15 8.99,9.04 8.30,10.90 7.62,12.76 6.49,14.41 5.37,16.07 4.16,16.54 2.95,17.01 1.35,16.27 -0.24,15.52 -0.81,14.31 -1.38,13.10 -1.90,10.25 -2.42,7.41 -2.41,5.65 -2.41,3.89 -2.16,1.94 -1.92,0 -1.89,-0.22 -1.86,-0.45 -1.78,-0.67 -1.70,-0.89 -1.56,-1.08 -1.43,-1.27 -1.26,-1.42 -1.09,-1.58 -0.88,-1.68 -0.68,-1.79 -0.45,-1.85 -0.23,-1.90 0.00,-1.90 0.23,-1.90 0.45,-1.85 0.68,-1.79 0.88,-1.68 1.09,-1.58 1.26,-1.42 1.43,-1.27 1.56,-1.08 1.70,-0.89 1.78,-0.67 1.86,-0.45 1.89,-0.22 1.92,0.00 1.92,0.00 L 1.92,0 Z"></path></g><g transform="translate(449.63417766121586 38.42757567541594) rotate(3.4744327269628 5.1655503510007605 0.6456907149642177)" stroke="none"><path fill="#1e1e1e" d="M 0.36,-2.62 Q 0.36,-2.62 3.03,-2.14 5.71,-1.67 7.60,-1.02 9.49,-0.38 9.70,-0.34 9.91,-0.29 10.09,-0.18 10.27,-0.08 10.41,0.08 10.55,0.24 10.63,0.43 10.71,0.63 10.73,0.84 10.74,1.05 10.68,1.26 10.63,1.46 10.51,1.64 10.39,1.82 10.23,1.95 10.06,2.08 9.86,2.15 9.66,2.22 9.44,2.22 9.23,2.22 9.03,2.15 8.83,2.09 8.66,1.96 8.49,1.83 8.37,1.66 8.25,1.48 8.19,1.28 8.13,1.08 8.14,0.86 8.15,0.65 8.22,0.45 8.30,0.26 8.44,0.09 8.57,-0.06 8.76,-0.17 8.94,-0.28 9.14,-0.33 9.35,-0.38 9.56,-0.36 9.77,-0.34 9.97,-0.25 10.16,-0.16 10.32,-0.02 10.47,0.12 10.57,0.31 10.67,0.49 10.71,0.70 10.75,0.91 10.71,1.12 10.68,1.33 10.58,1.52 10.48,1.71 10.33,1.86 10.18,2.00 9.99,2.09 9.79,2.19 9.58,2.21 9.37,2.23 9.37,2.23 9.37,2.23 7.21,2.69 5.05,3.15 2.34,2.89 -0.36,2.62 -0.67,2.54 -0.98,2.46 -1.26,2.31 -1.54,2.15 -1.77,1.94 -2.01,1.72 -2.19,1.46 -2.36,1.19 -2.47,0.89 -2.58,0.59 -2.61,0.27 -2.65,-0.04 -2.60,-0.35 -2.56,-0.67 -2.44,-0.97 -2.32,-1.27 -2.14,-1.53 -1.95,-1.79 -1.71,-1.99 -1.47,-2.20 -1.18,-2.35 -0.90,-2.49 -0.58,-2.56 -0.27,-2.63 0.04,-2.63 0.36,-2.62 0.36,-2.62 L 0.36,-2.62 Z"></path></g><g transform="translate(476.7598870768759 33.996881801001365) rotate(3.4744327269628 -4.842708072429488 16.142360241431675)" stroke="none"><path fill="#1e1e1e" d="M 0,1.62 Q 0,1.62 -1.29,2.08 -2.59,2.53 -3.89,2.81 -5.20,3.09 -5.90,5.24 -6.61,7.38 -6.32,9.18 -6.02,10.99 -5.54,13.31 -5.06,15.63 -4.49,17.69 -3.92,19.75 -3.48,21.51 -3.03,23.28 -2.61,24.70 -2.20,26.12 -1.62,28.64 -1.03,31.16 -0.97,31.36 -0.90,31.56 -0.90,31.77 -0.91,31.99 -0.98,32.19 -1.05,32.39 -1.18,32.56 -1.31,32.72 -1.48,32.84 -1.66,32.96 -1.86,33.01 -2.07,33.07 -2.28,33.06 -2.49,33.04 -2.69,32.96 -2.89,32.88 -3.05,32.74 -3.21,32.60 -3.32,32.42 -3.42,32.24 -3.47,32.03 -3.51,31.82 -3.49,31.61 -3.46,31.40 -3.37,31.21 -3.28,31.02 -3.13,30.86 -2.99,30.71 -2.80,30.61 -2.61,30.51 -2.40,30.48 -2.19,30.45 -1.98,30.49 -1.77,30.52 -1.58,30.62 -1.40,30.72 -1.25,30.88 -1.11,31.04 -1.02,31.23 -0.93,31.42 -0.91,31.63 -0.89,31.85 -0.94,32.05 -0.98,32.26 -1.10,32.44 -1.21,32.62 -1.37,32.76 -1.53,32.89 -1.73,32.97 -1.93,33.05 -2.14,33.06 -2.35,33.07 -2.56,33.01 -2.76,32.95 -2.94,32.83 -3.11,32.71 -3.24,32.54 -3.37,32.37 -3.37,32.37 -3.37,32.37 -5.14,29.98 -6.91,27.59 -7.42,26.05 -7.92,24.50 -8.34,22.78 -8.76,21.06 -9.35,18.84 -9.95,16.63 -10.45,14.13 -10.95,11.63 -11.23,9.09 -11.51,6.55 -10.28,3.09 -9.05,-0.35 -7.90,-1.09 -6.74,-1.82 -4.67,-2.18 -2.60,-2.53 -1.30,-2.08 0,-1.62 0.19,-1.60 0.38,-1.58 0.57,-1.51 0.75,-1.44 0.91,-1.33 1.08,-1.21 1.21,-1.07 1.34,-0.92 1.43,-0.75 1.52,-0.57 1.56,-0.38 1.61,-0.19 1.61,0.00 1.61,0.19 1.56,0.38 1.52,0.57 1.43,0.75 1.34,0.92 1.21,1.07 1.08,1.21 0.91,1.33 0.75,1.44 0.57,1.51 0.38,1.58 0.19,1.60 -0.00,1.62 -0.00,1.62 L 0,1.62 Z"></path></g><g transform="translate(464.8275613862493 44.55331396536903) rotate(3.4744327269628 5.649826084501058 0.0000061578217582791694)" stroke="none"><path fill="#1e1e1e" d="M 0.11,-2.25 Q 0.11,-2.25 1.88,-2.29 3.65,-2.33 5.13,-2.40 6.60,-2.46 8.64,-2.03 10.67,-1.60 10.88,-1.58 11.09,-1.55 11.28,-1.46 11.48,-1.38 11.63,-1.23 11.78,-1.08 11.88,-0.90 11.98,-0.71 12.02,-0.50 12.05,-0.29 12.02,-0.08 11.99,0.12 11.89,0.31 11.79,0.50 11.63,0.64 11.48,0.79 11.29,0.88 11.09,0.97 10.88,0.99 10.67,1.01 10.46,0.97 10.26,0.92 10.07,0.81 9.89,0.71 9.75,0.54 9.62,0.38 9.54,0.18 9.46,-0.00 9.45,-0.22 9.43,-0.43 9.49,-0.63 9.55,-0.84 9.67,-1.01 9.79,-1.19 9.95,-1.32 10.12,-1.45 10.32,-1.51 10.53,-1.58 10.74,-1.58 10.95,-1.58 11.15,-1.52 11.35,-1.45 11.52,-1.32 11.69,-1.19 11.81,-1.02 11.93,-0.84 11.99,-0.64 12.05,-0.43 12.03,-0.22 12.02,-0.01 11.94,0.18 11.87,0.38 11.73,0.54 11.59,0.70 11.41,0.81 11.23,0.92 11.02,0.97 10.81,1.01 10.81,1.01 10.81,1.01 8.80,1.82 6.78,2.62 5.08,2.66 3.39,2.71 1.63,2.48 -0.11,2.25 -0.38,2.20 -0.65,2.15 -0.90,2.04 -1.15,1.93 -1.36,1.77 -1.58,1.60 -1.75,1.39 -1.91,1.18 -2.03,0.93 -2.14,0.68 -2.19,0.42 -2.24,0.15 -2.23,-0.11 -2.22,-0.38 -2.14,-0.64 -2.06,-0.90 -1.92,-1.14 -1.78,-1.37 -1.59,-1.56 -1.40,-1.76 -1.17,-1.90 -0.94,-2.04 -0.68,-2.13 -0.42,-2.21 -0.15,-2.23 0.11,-2.25 0.11,-2.25 L 0.11,-2.25 Z"></path></g><g transform="translate(480.5851395447513 46.90034035524036) rotate(3.4744327269628 6.941195198786048 9.846837284144613)" stroke="none"><path fill="#1e1e1e" d="M 1.92,-0.21 Q 1.92,-0.21 2.37,1.42 2.83,3.06 2.93,4.87 3.02,6.68 3.48,8.89 3.93,11.10 5.43,10.13 6.93,9.17 7.27,7.95 7.61,6.72 7.85,5.36 8.10,4.00 8.20,2.92 8.30,1.83 8.17,1.08 8.05,0.32 8.05,0.00 8.06,-0.31 8.14,-0.61 8.22,-0.92 8.37,-1.20 8.52,-1.48 8.74,-1.71 8.95,-1.95 9.22,-2.12 9.48,-2.30 9.78,-2.41 10.08,-2.52 10.39,-2.55 10.71,-2.58 11.02,-2.54 11.34,-2.50 11.63,-2.38 11.93,-2.26 12.19,-2.08 12.45,-1.89 12.65,-1.65 12.86,-1.41 13.00,-1.13 13.15,-0.85 13.22,-0.54 13.29,-0.23 13.55,0.94 13.82,2.11 14.03,3.78 14.24,5.46 14.33,7.42 14.43,9.39 14.64,11.20 14.85,13.02 15.04,14.36 15.23,15.70 15.06,17.40 14.90,19.10 14.96,19.31 15.02,19.51 15.01,19.72 15.00,19.94 14.93,20.14 14.85,20.33 14.72,20.50 14.58,20.66 14.40,20.77 14.22,20.89 14.01,20.94 13.81,20.98 13.59,20.96 13.38,20.94 13.19,20.86 12.99,20.77 12.84,20.63 12.68,20.48 12.58,20.30 12.48,20.11 12.44,19.90 12.40,19.69 12.43,19.48 12.46,19.27 12.56,19.08 12.66,18.90 12.81,18.75 12.96,18.60 13.15,18.51 13.34,18.41 13.55,18.39 13.77,18.36 13.97,18.40 14.18,18.45 14.37,18.55 14.55,18.66 14.69,18.82 14.83,18.98 14.91,19.18 14.99,19.37 15.01,19.58 15.02,19.80 14.97,20.00 14.92,20.21 14.80,20.38 14.68,20.56 14.51,20.69 14.35,20.82 14.15,20.90 13.95,20.97 13.73,20.97 13.52,20.97 13.32,20.91 13.12,20.84 12.95,20.72 12.78,20.59 12.65,20.42 12.53,20.24 12.53,20.24 12.53,20.24 11.29,18.32 10.04,16.41 9.85,15.01 9.67,13.62 9.44,11.61 9.22,9.61 9.15,7.84 9.08,6.08 8.92,4.63 8.76,3.19 8.40,1.76 8.05,0.32 8.05,0.00 8.06,-0.31 8.14,-0.61 8.22,-0.92 8.37,-1.20 8.52,-1.48 8.74,-1.71 8.95,-1.95 9.22,-2.12 9.48,-2.30 9.78,-2.41 10.08,-2.52 10.39,-2.55 10.71,-2.58 11.02,-2.54 11.34,-2.50 11.63,-2.38 11.93,-2.26 12.19,-2.08 12.44,-1.89 12.65,-1.65 12.86,-1.41 13.00,-1.13 13.15,-0.85 13.22,-0.54 13.29,-0.23 13.19,-0.20 13.10,-0.17 12.86,1.06 12.63,2.29 12.48,3.57 12.34,4.84 12.00,6.42 11.66,7.99 11.06,9.74 10.47,11.49 9.37,13.13 8.26,14.77 6.82,15.73 5.38,16.69 3.89,16.65 2.39,16.62 1.22,15.70 0.05,14.77 -0.49,13.49 -1.04,12.21 -1.50,9.56 -1.97,6.91 -2.03,5.26 -2.08,3.61 -2.00,1.91 -1.92,0.21 -1.92,-0.01 -1.92,-0.25 -1.86,-0.47 -1.80,-0.70 -1.69,-0.91 -1.58,-1.11 -1.42,-1.29 -1.26,-1.46 -1.07,-1.59 -0.88,-1.72 -0.66,-1.80 -0.44,-1.88 -0.21,-1.91 0.01,-1.93 0.25,-1.90 0.48,-1.87 0.70,-1.79 0.91,-1.70 1.10,-1.57 1.29,-1.43 1.45,-1.26 1.60,-1.08 1.71,-0.87 1.81,-0.66 1.87,-0.44 1.92,-0.21 1.92,-0.21 L 1.92,-0.21 Z"></path></g><g transform="translate(496.6898267572421 49.75670379568146) rotate(3.4744327269628 5.972668363072344 8.071180120715837)" stroke="none"><path fill="#1e1e1e" d="M 2.19,-0.68 Q 2.19,-0.68 3.05,2.00 3.92,4.68 4.45,6.26 4.98,7.84 5.53,10.12 6.07,12.39 6.40,13.90 6.72,15.40 6.79,16.43 6.86,17.46 6.90,17.72 6.94,17.97 6.92,18.22 6.89,18.47 6.81,18.71 6.72,18.95 6.59,19.16 6.45,19.38 6.26,19.55 6.08,19.72 5.86,19.85 5.63,19.97 5.39,20.04 5.14,20.11 4.89,20.11 4.64,20.12 4.39,20.07 4.14,20.01 3.91,19.90 3.68,19.79 3.49,19.62 3.30,19.46 3.15,19.26 3.00,19.05 2.90,18.82 2.80,18.58 2.47,16.27 2.13,13.96 1.87,11.29 1.60,8.62 1.73,6.20 1.86,3.79 2.15,2.18 2.45,0.57 2.92,-0.59 3.38,-1.76 4.15,-2.65 4.92,-3.54 6.43,-3.62 7.94,-3.70 9.02,-2.63 10.10,-1.57 10.73,0.13 11.37,1.85 11.81,3.71 12.24,5.57 12.53,7.32 12.82,9.08 12.99,10.55 13.16,12.03 13.07,13.50 12.99,14.97 13.05,15.17 13.11,15.37 13.10,15.58 13.10,15.80 13.03,16.00 12.95,16.20 12.82,16.36 12.69,16.53 12.51,16.64 12.33,16.76 12.12,16.81 11.92,16.86 11.70,16.84 11.49,16.83 11.30,16.74 11.10,16.66 10.94,16.52 10.79,16.37 10.68,16.19 10.58,16.00 10.54,15.80 10.50,15.59 10.53,15.38 10.55,15.17 10.65,14.98 10.74,14.79 10.89,14.63 11.04,14.48 11.23,14.39 11.42,14.30 11.63,14.27 11.84,14.24 12.05,14.28 12.26,14.32 12.45,14.42 12.63,14.53 12.77,14.68 12.92,14.84 13.00,15.04 13.08,15.23 13.10,15.44 13.12,15.66 13.07,15.86 13.02,16.07 12.90,16.25 12.79,16.43 12.62,16.56 12.46,16.69 12.26,16.77 12.06,16.84 11.84,16.85 11.63,16.85 11.43,16.79 11.23,16.73 11.05,16.60 10.88,16.48 10.76,16.31 10.63,16.13 10.63,16.13 10.63,16.14 9.40,14.43 8.18,12.73 7.94,11.31 7.71,9.88 7.47,8.30 7.23,6.72 7.03,4.19 6.84,1.67 6.43,2.89 6.03,4.11 5.82,6.17 5.61,8.24 5.86,10.86 6.11,13.48 6.49,15.47 6.86,17.46 6.90,17.72 6.94,17.97 6.92,18.22 6.89,18.47 6.81,18.71 6.72,18.95 6.59,19.16 6.45,19.38 6.26,19.55 6.08,19.72 5.86,19.85 5.63,19.97 5.39,20.04 5.14,20.11 4.89,20.11 4.64,20.12 4.39,20.07 4.14,20.01 3.91,19.90 3.68,19.79 3.49,19.62 3.30,19.46 3.15,19.26 3.00,19.05 2.90,18.82 2.80,18.58 2.42,17.48 2.04,16.38 1.75,14.93 1.46,13.47 0.99,11.41 0.51,9.34 -0.03,7.71 -0.57,6.08 -1.38,3.38 -2.19,0.68 -2.24,0.40 -2.29,0.13 -2.27,-0.14 -2.26,-0.41 -2.17,-0.68 -2.09,-0.94 -1.95,-1.18 -1.80,-1.42 -1.61,-1.61 -1.41,-1.81 -1.17,-1.95 -0.94,-2.09 -0.67,-2.18 -0.41,-2.26 -0.13,-2.27 0.14,-2.29 0.41,-2.24 0.68,-2.19 0.93,-2.08 1.19,-1.96 1.41,-1.79 1.62,-1.62 1.79,-1.40 1.96,-1.18 2.08,-0.93 2.19,-0.68 2.19,-0.68 L 2.19,-0.68 Z"></path></g><g transform="translate(518.0659264059358 53.2913482291122) rotate(3.4744327269628 -0.1614334549291101 19.855108023218364)" stroke="none"><path fill="#1e1e1e" d="M -0.62,1.88 Q -0.62,1.88 -1.55,2.04 -2.47,2.20 -2.24,4.47 -2.01,6.74 -1.36,5.60 -0.72,4.46 -0.23,2.87 0.24,1.29 0.05,0.90 -0.14,0.51 0.03,0.20 0.21,-0.09 0.46,-0.34 0.71,-0.59 1.01,-0.78 1.31,-0.97 1.65,-1.07 1.99,-1.18 2.34,-1.21 2.69,-1.23 3.04,-1.17 3.39,-1.11 3.71,-0.97 4.03,-0.82 4.31,-0.61 4.59,-0.39 4.81,-0.12 5.03,0.15 5.18,0.47 5.33,0.79 5.40,1.14 5.46,1.49 5.45,1.84 5.43,2.19 5.32,2.53 5.22,2.87 4.83,1.22 4.43,-0.41 5.14,0.62 5.84,1.65 6.96,4.81 8.08,7.97 8.48,11.21 8.88,14.45 9.21,17.11 9.53,19.77 9.67,23.00 9.81,26.24 9.78,28.89 9.74,31.55 9.56,33.67 9.38,35.79 8.53,37.77 7.68,39.75 5.40,41.00 3.12,42.26 0.71,41.64 -1.69,41.03 -3.37,39.07 -5.04,37.11 -6.05,34.98 -7.06,32.86 -7.88,30.89 -8.70,28.92 -8.78,28.72 -8.86,28.52 -8.87,28.31 -8.89,28.10 -8.83,27.89 -8.78,27.69 -8.66,27.51 -8.54,27.33 -8.38,27.20 -8.21,27.07 -8.01,27.00 -7.81,26.93 -7.60,26.93 -7.38,26.93 -7.18,26.99 -6.98,27.06 -6.81,27.18 -6.64,27.31 -6.52,27.48 -6.39,27.66 -6.33,27.86 -6.28,28.07 -6.28,28.28 -6.29,28.49 -6.37,28.69 -6.45,28.89 -6.58,29.05 -6.72,29.21 -6.90,29.33 -7.08,29.44 -7.29,29.49 -7.49,29.53 -7.70,29.51 -7.92,29.49 -8.11,29.41 -8.30,29.32 -8.46,29.18 -8.62,29.03 -8.72,28.85 -8.82,28.66 -8.86,28.45 -8.89,28.24 -8.86,28.03 -8.83,27.82 -8.73,27.63 -8.63,27.44 -8.48,27.29 -8.33,27.15 -8.14,27.05 -7.95,26.96 -7.73,26.94 -7.52,26.91 -7.32,26.96 -7.11,27.00 -6.92,27.11 -6.74,27.21 -6.60,27.37 -6.46,27.53 -6.46,27.53 -6.46,27.53 -5.07,29.13 -3.68,30.73 -2.35,32.32 -1.03,33.91 0.44,35.48 1.92,37.04 3.07,36.07 4.23,35.09 4.53,33.20 4.83,31.30 5.06,28.87 5.28,26.43 5.15,23.37 5.02,20.32 4.71,17.77 4.40,15.23 3.74,12.35 3.09,9.47 2.53,7.81 1.98,6.16 1.52,5.12 1.06,4.08 0.46,2.29 -0.14,0.51 0.03,0.20 0.21,-0.09 0.46,-0.34 0.71,-0.59 1.01,-0.78 1.31,-0.97 1.65,-1.07 1.98,-1.18 2.34,-1.21 2.69,-1.23 3.04,-1.17 3.39,-1.11 3.71,-0.97 4.03,-0.82 4.31,-0.61 4.59,-0.39 4.81,-0.12 5.03,0.15 5.18,0.47 5.33,0.79 5.40,1.14 5.46,1.49 5.45,1.84 5.43,2.19 5.32,2.53 5.22,2.87 4.66,3.64 4.10,4.42 3.45,5.63 2.79,6.85 1.74,8.10 0.69,9.34 -0.57,10.45 -1.84,11.57 -3.06,11.59 -4.28,11.60 -5.91,9.09 -7.53,6.58 -7.48,4.64 -7.42,2.70 -6.90,1.10 -6.39,-0.48 -5.17,-1.70 -3.95,-2.92 -2.40,-3.12 -0.86,-3.32 -0.11,-2.60 0.62,-1.88 0.84,-1.78 1.06,-1.68 1.24,-1.53 1.43,-1.37 1.57,-1.18 1.72,-0.99 1.81,-0.77 1.91,-0.55 1.94,-0.31 1.98,-0.08 1.96,0.15 1.94,0.39 1.87,0.62 1.79,0.85 1.66,1.05 1.54,1.25 1.36,1.42 1.19,1.59 0.98,1.71 0.78,1.83 0.55,1.89 0.31,1.96 0.08,1.97 -0.15,1.98 -0.39,1.93 -0.62,1.88 -0.62,1.88 L -0.62,1.88 Z"></path></g><g transform="translate(535.8826205352844 48.43172710307826) rotate(3.4744327269628 -1.7756448477852729 8.232607417823203)" stroke="none"><path fill="#1e1e1e" d="M 0.97,1.95 Q 0.97,1.95 -0.52,2.66 -2.02,3.37 -2.87,4.02 -3.72,4.68 -2.54,4.90 -1.36,5.12 -0.21,5.74 0.93,6.37 1.80,7.10 2.67,7.83 3.42,8.84 4.18,9.84 4.65,10.94 5.13,12.03 5.23,13.16 5.34,14.30 4.73,15.56 4.12,16.83 2.81,17.59 1.49,18.36 -0.00,18.50 -1.51,18.64 -3.88,17.60 -6.26,16.55 -6.46,16.48 -6.65,16.40 -6.82,16.26 -6.98,16.12 -7.09,15.94 -7.20,15.76 -7.25,15.55 -7.29,15.35 -7.27,15.14 -7.25,14.92 -7.16,14.73 -7.07,14.54 -6.92,14.38 -6.78,14.23 -6.59,14.13 -6.40,14.03 -6.19,13.99 -5.99,13.96 -5.78,13.99 -5.57,14.02 -5.38,14.12 -5.19,14.22 -5.04,14.38 -4.90,14.53 -4.81,14.72 -4.72,14.92 -4.69,15.13 -4.67,15.34 -4.71,15.55 -4.76,15.75 -4.87,15.94 -4.98,16.12 -5.14,16.26 -5.30,16.39 -5.50,16.47 -5.69,16.55 -5.91,16.56 -6.12,16.58 -6.32,16.52 -6.53,16.46 -6.70,16.35 -6.88,16.23 -7.01,16.06 -7.14,15.89 -7.21,15.69 -7.28,15.49 -7.28,15.28 -7.28,15.06 -7.21,14.86 -7.14,14.66 -7.01,14.49 -6.89,14.32 -6.71,14.20 -6.54,14.08 -6.33,14.02 -6.13,13.97 -5.91,13.98 -5.70,13.99 -5.70,13.99 -5.70,13.99 -3.72,13.73 -1.73,13.48 -0.56,13.41 0.60,13.33 0.21,12.20 -0.17,11.06 -1.44,10.16 -2.71,9.26 -4.07,8.79 -5.44,8.32 -6.92,6.64 -8.39,4.96 -7.31,2.99 -6.22,1.03 -5.07,0.31 -3.91,-0.40 -2.44,-1.17 -0.97,-1.95 -0.72,-2.04 -0.48,-2.13 -0.21,-2.15 0.04,-2.18 0.30,-2.14 0.56,-2.10 0.80,-2.01 1.05,-1.91 1.26,-1.75 1.48,-1.60 1.65,-1.40 1.82,-1.20 1.93,-0.96 2.05,-0.73 2.11,-0.47 2.17,-0.22 2.16,0.04 2.16,0.30 2.09,0.56 2.02,0.81 1.89,1.04 1.77,1.27 1.59,1.46 1.41,1.66 1.19,1.80 0.97,1.95 0.97,1.95 L 0.97,1.95 Z"></path></g><g transform="translate(548.0885498770748 48.87075332905468) rotate(3.4744327269628 -1.4528272005010763 9.201146569180395)" stroke="none"><path fill="#1e1e1e" d="M 0.87,1.61 Q 0.87,1.61 -0.17,2.56 -1.21,3.51 -2.27,4.58 -3.33,5.66 -1.40,6.48 0.52,7.30 1.46,7.98 2.39,8.66 3.79,10.14 5.19,11.61 5.54,12.68 5.89,13.74 5.69,14.99 5.50,16.23 4.89,17.22 4.29,18.21 2.36,19.34 0.43,20.47 -0.84,20.56 -2.11,20.65 -4.44,19.73 -6.77,18.81 -6.95,18.71 -7.14,18.62 -7.29,18.47 -7.44,18.31 -7.53,18.12 -7.62,17.93 -7.65,17.72 -7.68,17.51 -7.63,17.30 -7.59,17.09 -7.48,16.91 -7.38,16.72 -7.22,16.58 -7.06,16.45 -6.86,16.36 -6.66,16.28 -6.45,16.27 -6.24,16.25 -6.03,16.31 -5.83,16.36 -5.65,16.48 -5.47,16.59 -5.34,16.76 -5.21,16.93 -5.14,17.13 -5.07,17.33 -5.07,17.54 -5.07,17.75 -5.13,17.96 -5.19,18.16 -5.32,18.33 -5.45,18.50 -5.62,18.62 -5.80,18.74 -6.00,18.80 -6.20,18.86 -6.42,18.86 -6.63,18.85 -6.83,18.77 -7.03,18.70 -7.19,18.56 -7.35,18.42 -7.46,18.24 -7.58,18.06 -7.63,17.86 -7.67,17.65 -7.65,17.44 -7.63,17.23 -7.55,17.03 -7.46,16.84 -7.32,16.68 -7.17,16.53 -6.99,16.42 -6.80,16.32 -6.59,16.28 -6.38,16.25 -6.17,16.28 -5.96,16.31 -5.96,16.31 -5.96,16.31 -4.22,16.10 -2.48,15.90 -1.09,15.64 0.28,15.38 0.57,14.26 0.86,13.14 -0.32,12.16 -1.51,11.19 -2.51,10.66 -3.52,10.14 -4.88,9.33 -6.25,8.51 -7.07,7.06 -7.90,5.61 -7.66,4.31 -7.42,3.01 -6.66,1.91 -5.90,0.82 -4.75,-0.04 -3.61,-0.91 -2.24,-1.26 -0.87,-1.61 -0.66,-1.69 -0.45,-1.77 -0.23,-1.80 -0.01,-1.83 0.20,-1.81 0.42,-1.78 0.62,-1.71 0.83,-1.63 1.01,-1.51 1.20,-1.38 1.35,-1.22 1.49,-1.05 1.60,-0.86 1.70,-0.66 1.76,-0.45 1.82,-0.24 1.82,-0.01 1.82,0.20 1.77,0.41 1.72,0.63 1.62,0.82 1.52,1.02 1.37,1.19 1.23,1.36 1.05,1.48 0.87,1.61 0.87,1.61 L 0.87,1.61 Z"></path></g><g transform="translate(553.9098367687898 37.89480843263871) rotate(3.4744327269628 3.5513143268575504 15.012399950788861)" stroke="none"><path fill="#1e1e1e" d="M 2.28,-0.69 Q 2.28,-0.69 3.02,1.41 3.77,3.51 4.51,5.90 5.26,8.28 5.67,9.57 6.08,10.86 6.66,13.67 7.24,16.49 7.74,18.51 8.23,20.53 8.47,22.34 8.71,24.15 8.53,26.75 8.34,29.35 8.33,29.56 8.32,29.78 8.24,29.97 8.17,30.17 8.03,30.33 7.89,30.50 7.71,30.61 7.53,30.72 7.32,30.77 7.12,30.81 6.91,30.79 6.69,30.77 6.50,30.68 6.31,30.59 6.15,30.45 6.00,30.30 5.90,30.12 5.80,29.93 5.76,29.72 5.72,29.51 5.76,29.30 5.79,29.09 5.89,28.90 5.99,28.71 6.14,28.57 6.29,28.42 6.49,28.33 6.68,28.24 6.89,28.21 7.10,28.19 7.31,28.23 7.52,28.28 7.70,28.39 7.88,28.50 8.02,28.66 8.16,28.82 8.24,29.01 8.32,29.21 8.33,29.42 8.34,29.64 8.29,29.84 8.23,30.05 8.12,30.22 8.00,30.40 7.83,30.53 7.66,30.66 7.46,30.73 7.26,30.80 7.05,30.80 6.83,30.80 6.63,30.73 6.43,30.67 6.26,30.54 6.09,30.41 5.97,30.24 5.85,30.06 5.79,29.86 5.73,29.65 5.73,29.65 5.73,29.65 4.83,27.33 3.92,25.01 3.55,23.39 3.17,21.77 2.64,19.65 2.12,17.53 1.61,14.98 1.10,12.42 0.70,11.12 0.29,9.82 -0.43,7.42 -1.17,5.02 -1.72,2.85 -2.28,0.69 -2.33,0.41 -2.38,0.12 -2.36,-0.15 -2.34,-0.44 -2.25,-0.71 -2.16,-0.99 -2.01,-1.23 -1.86,-1.48 -1.66,-1.68 -1.45,-1.88 -1.21,-2.03 -0.96,-2.18 -0.68,-2.26 -0.41,-2.34 -0.12,-2.36 0.15,-2.37 0.44,-2.32 0.72,-2.27 0.98,-2.15 1.24,-2.03 1.47,-1.85 1.69,-1.67 1.87,-1.44 2.04,-1.22 2.16,-0.95 2.28,-0.69 2.28,-0.69 L 2.28,-0.69 Z"></path></g><g transform="translate(551.7782790071835 51.419120168942044) rotate(3.4744327269628 5.165550351000746 -0.6456907149642177)" stroke="none"><path fill="#1e1e1e" d="M -0.24,-1.88 Q -0.24,-1.88 1.84,-2.53 3.92,-3.17 5.25,-3.30 6.58,-3.43 8.13,-2.97 9.69,-2.51 9.91,-2.51 10.12,-2.51 10.32,-2.45 10.52,-2.38 10.69,-2.26 10.86,-2.13 10.99,-1.96 11.11,-1.78 11.17,-1.58 11.23,-1.37 11.22,-1.16 11.21,-0.95 11.13,-0.75 11.06,-0.55 10.92,-0.39 10.79,-0.23 10.61,-0.11 10.43,-0.00 10.22,0.04 10.01,0.09 9.80,0.07 9.59,0.05 9.39,-0.03 9.20,-0.12 9.04,-0.26 8.89,-0.41 8.79,-0.59 8.68,-0.78 8.65,-0.99 8.61,-1.20 8.64,-1.41 8.67,-1.62 8.77,-1.81 8.87,-2.00 9.02,-2.14 9.17,-2.29 9.36,-2.38 9.55,-2.48 9.77,-2.50 9.98,-2.53 10.18,-2.48 10.39,-2.44 10.58,-2.33 10.76,-2.23 10.90,-2.07 11.04,-1.91 11.12,-1.71 11.20,-1.51 11.22,-1.30 11.23,-1.09 11.18,-0.88 11.12,-0.68 11.01,-0.50 10.89,-0.32 10.72,-0.19 10.55,-0.06 10.35,0.00 10.15,0.07 10.15,0.07 10.15,0.07 8.61,0.96 7.07,1.85 5.84,1.95 4.61,2.06 2.42,1.97 0.24,1.88 0.01,1.88 -0.21,1.88 -0.43,1.83 -0.65,1.78 -0.86,1.67 -1.06,1.57 -1.23,1.42 -1.41,1.27 -1.54,1.08 -1.67,0.89 -1.75,0.68 -1.83,0.47 -1.86,0.24 -1.89,0.01 -1.87,-0.21 -1.84,-0.43 -1.76,-0.65 -1.68,-0.86 -1.56,-1.05 -1.43,-1.24 -1.26,-1.40 -1.09,-1.55 -0.89,-1.66 -0.68,-1.76 -0.46,-1.82 -0.24,-1.88 -0.24,-1.88 L -0.24,-1.88 Z"></path></g><g transform="translate(575.5337837714017 52.315863572786185) rotate(3.4744327269628 -4.035590060357919 6.456944096572656)" stroke="none"><path fill="#1e1e1e" d="M -0.50,2.01 Q -0.50,2.01 -1.62,1.98 -2.75,1.95 -3.64,3.66 -4.53,5.36 -4.49,7.47 -4.46,9.59 -4.24,7.86 -4.03,6.12 -4.52,5.15 -5.01,4.18 -5.22,4.16 -5.43,4.15 -5.62,4.06 -5.82,3.98 -5.98,3.84 -6.14,3.70 -6.24,3.51 -6.35,3.33 -6.39,3.12 -6.43,2.91 -6.40,2.70 -6.38,2.49 -6.28,2.30 -6.19,2.11 -6.04,1.96 -5.89,1.81 -5.70,1.71 -5.51,1.62 -5.30,1.59 -5.09,1.56 -4.88,1.59 -4.67,1.63 -4.49,1.74 -4.30,1.84 -4.16,2.00 -4.02,2.16 -3.93,2.35 -3.85,2.54 -3.83,2.76 -3.81,2.97 -3.86,3.17 -3.91,3.38 -4.02,3.56 -4.14,3.74 -4.30,3.87 -4.47,4.01 -4.67,4.08 -4.86,4.16 -5.08,4.16 -5.29,4.17 -5.49,4.11 -5.70,4.05 -5.87,3.93 -6.04,3.80 -6.17,3.63 -6.29,3.46 -6.36,3.26 -6.42,3.05 -6.42,2.84 -6.41,2.63 -6.34,2.43 -6.27,2.23 -6.13,2.06 -6.00,1.90 -5.82,1.78 -5.65,1.67 -5.44,1.61 -5.23,1.56 -5.23,1.56 -5.23,1.56 -2.28,1.87 0.65,2.18 1.00,4.24 1.34,6.29 1.22,7.71 1.09,9.14 0.47,10.74 -0.14,12.34 -0.97,13.12 -1.80,13.90 -3.15,14.37 -4.51,14.84 -6.06,14.23 -7.61,13.61 -8.50,12.06 -9.40,10.50 -9.33,7.05 -9.26,3.61 -8.38,1.60 -7.51,-0.39 -6.04,-1.53 -4.56,-2.68 -3.13,-2.87 -1.70,-3.07 -0.59,-2.54 0.50,-2.01 0.73,-1.92 0.96,-1.83 1.17,-1.68 1.37,-1.54 1.54,-1.35 1.70,-1.17 1.82,-0.94 1.93,-0.72 1.99,-0.48 2.05,-0.24 2.05,0.00 2.05,0.25 1.99,0.49 1.93,0.74 1.81,0.96 1.70,1.18 1.53,1.36 1.36,1.55 1.16,1.69 0.95,1.83 0.72,1.92 0.48,2.01 0.24,2.04 -0.00,2.07 -0.25,2.04 -0.50,2.01 -0.50,2.01 L -0.50,2.01 Z"></path></g><g transform="translate(591.227240771196 32.92247138944211) rotate(3.4744327269628 -3.8741566054287944 17.756596265574842)" stroke="none"><path fill="#1e1e1e" d="M 0.20,1.64 Q 0.20,1.64 -1.21,2.33 -2.63,3.01 -3.52,4.63 -4.41,6.24 -4.48,10.04 -4.55,13.84 -4.24,16.30 -3.93,18.77 -3.49,21.16 -3.05,23.56 -2.53,25.45 -2.00,27.34 -1.58,28.96 -1.16,30.57 -1.40,32.77 -1.65,34.97 -1.65,35.18 -1.66,35.39 -1.73,35.59 -1.81,35.79 -1.94,35.96 -2.07,36.12 -2.25,36.24 -2.43,36.35 -2.64,36.40 -2.84,36.45 -3.06,36.44 -3.27,36.42 -3.46,36.34 -3.66,36.25 -3.82,36.11 -3.97,35.97 -4.08,35.78 -4.18,35.60 -4.22,35.39 -4.26,35.18 -4.23,34.97 -4.21,34.76 -4.11,34.57 -4.02,34.38 -3.87,34.23 -3.72,34.08 -3.53,33.98 -3.34,33.89 -3.12,33.86 -2.91,33.83 -2.71,33.87 -2.50,33.91 -2.31,34.02 -2.13,34.12 -1.99,34.28 -1.84,34.44 -1.76,34.63 -1.68,34.83 -1.66,35.04 -1.64,35.25 -1.69,35.46 -1.74,35.67 -1.86,35.84 -1.97,36.02 -2.14,36.16 -2.30,36.29 -2.50,36.36 -2.70,36.44 -2.92,36.44 -3.13,36.45 -3.33,36.38 -3.53,36.32 -3.71,36.20 -3.88,36.07 -4.00,35.90 -4.13,35.73 -4.19,35.53 -4.25,35.32 -4.25,35.32 -4.25,35.32 -5.09,33.60 -5.93,31.88 -6.38,30.32 -6.82,28.76 -7.47,26.68 -8.12,24.59 -8.69,22.01 -9.26,19.42 -9.59,16.71 -9.92,14.00 -9.99,10.70 -10.07,7.40 -9.80,5.98 -9.54,4.56 -8.79,2.54 -8.05,0.52 -6.90,-0.52 -5.76,-1.58 -4.53,-1.92 -3.30,-2.27 -1.75,-1.96 -0.20,-1.64 -0.00,-1.64 0.19,-1.64 0.38,-1.60 0.58,-1.55 0.76,-1.46 0.93,-1.37 1.08,-1.23 1.23,-1.10 1.35,-0.94 1.46,-0.77 1.53,-0.59 1.61,-0.40 1.63,-0.20 1.66,-0.00 1.63,0.19 1.61,0.39 1.54,0.57 1.47,0.76 1.36,0.93 1.24,1.09 1.09,1.23 0.94,1.36 0.77,1.45 0.59,1.55 0.40,1.59 0.20,1.64 0.20,1.64 L 0.20,1.64 Z"></path></g><g transform="translate(582.6983255471309 47.06491160417329) rotate(3.4744327269628 3.7127477817866748 0.48426957567859574)" stroke="none"><path fill="#1e1e1e" d="M 0.52,-2.61 Q 0.52,-2.61 1.91,-2.33 3.30,-2.05 5.09,-1.34 6.89,-0.63 7.10,-0.61 7.31,-0.59 7.50,-0.50 7.70,-0.41 7.85,-0.27 8.01,-0.12 8.11,0.06 8.21,0.24 8.24,0.45 8.28,0.66 8.24,0.87 8.21,1.08 8.11,1.27 8.01,1.46 7.86,1.60 7.71,1.75 7.51,1.84 7.32,1.93 7.11,1.96 6.90,1.98 6.69,1.93 6.48,1.89 6.30,1.78 6.12,1.67 5.98,1.51 5.84,1.35 5.76,1.15 5.68,0.95 5.67,0.74 5.66,0.53 5.71,0.33 5.77,0.12 5.89,-0.05 6.01,-0.22 6.18,-0.35 6.34,-0.48 6.54,-0.55 6.75,-0.62 6.96,-0.62 7.17,-0.62 7.37,-0.55 7.57,-0.49 7.74,-0.36 7.91,-0.23 8.03,-0.05 8.15,0.11 8.21,0.32 8.27,0.52 8.26,0.73 8.25,0.94 8.17,1.14 8.09,1.34 7.95,1.50 7.82,1.66 7.64,1.78 7.45,1.89 7.25,1.93 7.04,1.98 7.04,1.98 7.04,1.98 4.65,2.57 2.26,3.17 0.86,2.89 -0.52,2.61 -0.82,2.51 -1.13,2.41 -1.40,2.24 -1.68,2.07 -1.90,1.84 -2.12,1.61 -2.29,1.33 -2.45,1.05 -2.54,0.74 -2.63,0.43 -2.64,0.11 -2.66,-0.20 -2.59,-0.52 -2.53,-0.83 -2.39,-1.12 -2.26,-1.41 -2.06,-1.66 -1.85,-1.91 -1.60,-2.11 -1.34,-2.30 -1.04,-2.43 -0.75,-2.56 -0.43,-2.61 -0.11,-2.66 0.20,-2.64 0.52,-2.61 0.52,-2.61 L 0.52,-2.61 Z"></path></g><g transform="translate(606.4914427026861 32.84772443380703) rotate(3.4744327269628 -4.358432338929163 16.788050956395892)" stroke="none"><path fill="#1e1e1e" d="M 0.67,1.63 Q 0.67,1.63 -0.71,2.69 -2.09,3.76 -3.13,4.71 -4.16,5.65 -4.62,7.00 -5.08,8.36 -5.22,10.14 -5.36,11.93 -5.00,14.09 -4.65,16.25 -4.09,17.81 -3.52,19.38 -2.84,21.22 -2.17,23.06 -1.47,25.56 -0.77,28.05 -1.17,31.02 -1.57,33.99 -1.66,34.19 -1.74,34.38 -1.88,34.54 -2.02,34.70 -2.20,34.81 -2.39,34.91 -2.60,34.95 -2.80,35.00 -3.01,34.97 -3.22,34.94 -3.42,34.85 -3.61,34.76 -3.76,34.61 -3.91,34.46 -4.01,34.27 -4.10,34.08 -4.13,33.87 -4.16,33.66 -4.13,33.45 -4.09,33.24 -3.98,33.06 -3.88,32.87 -3.72,32.73 -3.57,32.58 -3.37,32.50 -3.18,32.41 -2.97,32.39 -2.75,32.37 -2.55,32.42 -2.34,32.47 -2.16,32.59 -1.98,32.70 -1.85,32.86 -1.71,33.03 -1.64,33.23 -1.56,33.43 -1.56,33.64 -1.55,33.85 -1.61,34.05 -1.67,34.26 -1.79,34.43 -1.91,34.60 -2.09,34.73 -2.26,34.86 -2.46,34.92 -2.66,34.98 -2.87,34.98 -3.09,34.98 -3.29,34.90 -3.49,34.83 -3.65,34.70 -3.82,34.57 -3.94,34.39 -4.05,34.21 -4.11,34.01 -4.16,33.80 -4.14,33.59 -4.13,33.38 -4.13,33.38 -4.13,33.38 -4.94,31.43 -5.75,29.48 -6.41,27.22 -7.08,24.96 -7.85,23.04 -8.62,21.12 -9.30,19.08 -9.97,17.04 -10.34,14.21 -10.70,11.37 -10.36,8.83 -10.02,6.29 -8.91,4.02 -7.79,1.76 -6.00,0.29 -4.21,-1.16 -2.44,-1.40 -0.67,-1.63 -0.46,-1.68 -0.26,-1.74 -0.04,-1.75 0.16,-1.75 0.37,-1.71 0.57,-1.66 0.77,-1.57 0.96,-1.48 1.12,-1.34 1.28,-1.20 1.41,-1.03 1.53,-0.86 1.62,-0.66 1.70,-0.47 1.73,-0.25 1.76,-0.04 1.74,0.16 1.72,0.37 1.65,0.57 1.58,0.77 1.46,0.95 1.35,1.13 1.19,1.27 1.04,1.42 0.85,1.52 0.67,1.63 0.67,1.63 L 0.67,1.63 Z"></path></g><g transform="translate(593.5458409092209 50.681406749041315) rotate(3.4744327269628 4.519865793858287 -0.6456907149642177)" stroke="none"><path fill="#1e1e1e" d="M -0.21,-2.36 Q -0.21,-2.36 1.81,-2.62 3.85,-2.88 5.87,-2.65 7.90,-2.41 8.11,-2.42 8.32,-2.42 8.53,-2.36 8.73,-2.29 8.90,-2.17 9.07,-2.04 9.20,-1.87 9.32,-1.70 9.38,-1.49 9.44,-1.29 9.43,-1.08 9.43,-0.86 9.35,-0.67 9.28,-0.47 9.14,-0.30 9.01,-0.14 8.83,-0.02 8.65,0.08 8.44,0.13 8.24,0.18 8.03,0.16 7.81,0.14 7.62,0.06 7.43,-0.02 7.27,-0.16 7.11,-0.30 7.01,-0.49 6.90,-0.67 6.87,-0.88 6.83,-1.09 6.86,-1.30 6.89,-1.51 6.98,-1.70 7.08,-1.89 7.23,-2.04 7.38,-2.19 7.57,-2.28 7.76,-2.38 7.97,-2.41 8.18,-2.43 8.39,-2.39 8.60,-2.35 8.78,-2.24 8.97,-2.14 9.11,-1.98 9.25,-1.82 9.33,-1.62 9.42,-1.43 9.43,-1.22 9.45,-1.01 9.40,-0.80 9.34,-0.59 9.23,-0.42 9.11,-0.24 8.95,-0.10 8.78,0.02 8.58,0.09 8.38,0.16 8.38,0.16 8.38,0.16 6.34,1.15 4.31,2.14 2.26,2.25 0.21,2.36 -0.07,2.35 -0.35,2.34 -0.63,2.26 -0.90,2.19 -1.15,2.05 -1.40,1.91 -1.61,1.71 -1.82,1.51 -1.97,1.27 -2.13,1.03 -2.22,0.76 -2.31,0.49 -2.34,0.21 -2.37,-0.07 -2.32,-0.35 -2.28,-0.63 -2.17,-0.90 -2.06,-1.16 -1.89,-1.39 -1.72,-1.62 -1.50,-1.80 -1.28,-1.99 -1.03,-2.11 -0.77,-2.24 -0.49,-2.30 -0.21,-2.36 -0.21,-2.36 L -0.21,-2.36 Z"></path></g></svg>