<?xml version="1.0" encoding="UTF-8"?>
<svg xmlns="http://www.w3.org/2000/svg" version="1.1" viewBox="0 0 383.3 70.9">
  <defs>
    <style>
      .cls-1 {
        fill: #f3ad61;
      }

      .cls-2 {
        fill: #848484;
      }

      .cls-3 {
        fill: #fff;
      }

      .cls-4 {
        fill: #44911b;
      }

      .cls-5 {
        fill: #402a32;
      }

      .cls-6 {
        fill: #f3c07b;
      }

      .cls-7 {
        fill: #ff822d;
      }

      .cls-8 {
        isolation: isolate;
      }

      .cls-9 {
        fill: #ffb02e;
      }

      .cls-10 {
        fill: #7d4533;
      }

      .cls-11 {
        fill: #86d72f;
      }
    </style>
  </defs>
  <!-- Generator: Adobe Illustrator 28.7.2, SVG Export Plug-In . SVG Version: 1.2.0 Build 154)  -->
  <g>
    <g id="Layer_1">
      <g id="Layer_1-2" data-name="Layer_1">
        <path class="cls-4" d="M36.9,40c-.5,0-.9-.4-.9-.9v-3.7l-4.7-1.4-3.3-2.8,8,2.4v-.5c0-1.9.5-3.9,1.6-5.5.3-.5.6-1,.8-1.6l-4.3-1.3-5-3.3,9.8,2.9c0-.4,0-.9,0-1.4v-4.1h1.7v4.8l7.5-2.3-5.8,3.6-2,.6c-.3,1-.7,2-1.3,2.9-.9,1.4-1.4,3-1.4,4.6v1.9l8-2.4-4.9,3.3-3.1.9v2.3c0,.5-.4.9-.9.9h.1Z"/>
        <path class="cls-11" d="M39.6,6.6c-3.6,4.1-3.7,11-.2,15.3.2.2.4.2.6,0,3.6-4.1,3.7-11,.2-15.3-.2-.2-.4-.2-.6,0Z"/>
        <path class="cls-11" d="M26.5,25l-6.8-2c-1.1,3.8,1,7.9,4.8,9l6.8,2c1.2-3.8-1-7.9-4.8-9Z"/>
        <path class="cls-11" d="M52.5,24.8l-6.8,2c-3.8,1.2-6,5.2-4.8,9l6.8-2c3.8-1.2,6-5.2,4.8-9Z"/>
        <path class="cls-11" d="M29.3,15.7l-6.8-2c-1.1,3.8,1,7.9,4.9,9l6.8,2c1.1-3.8-1-7.9-4.9-9Z"/>
        <path class="cls-11" d="M54.1,13.9l-6.8,2c-3.8,1.1-6,5.2-4.8,9l6.8-2c3.8-1.2,6-5.2,4.8-9Z"/>
        <path class="cls-10" d="M48.5,41.5c-3.2-2.4-7.3-3.9-11.7-3.9s-8.4,1.5-11.7,3.9l11.7,3.8,11.7-3.8Z"/>
        <path class="cls-1" d="M23.3,49.3l1.5,9.1c.3,1.5,1.5,2.5,3,2.5h18.2c1.5,0,2.8-1.1,3-2.5l1.5-9.1-13.6-3.1s-13.6,3.1-13.6,3.1Z"/>
        <path class="cls-6" d="M51.4,49.3h-29.2c-.5,0-1-.4-1-1v-5.8c0-.5.4-1,1-1h29.2c.5,0,1,.4,1,1v5.8c0,.5-.4,1-1,1Z"/>
        <g class="cls-8">
          <g class="cls-8">
            <path class="cls-2" d="M81.4,48.9v-25.7c0-.3.1-.4.4-.4h2.9c.3,0,.4.1.4.4v25.7c0,.3-.1.4-.4.4h-2.9c-.3,0-.4-.1-.4-.4Z"/>
            <path class="cls-2" d="M100.7,31.4c.8,1.1,1.3,2.6,1.3,4.6v13c0,.3-.1.4-.4.4h-2.9c-.3,0-.4-.1-.4-.4v-12.7c0-1.1-.2-1.9-.7-2.5-.5-.6-1.1-.9-1.9-.9s-1.5.3-1.9.9c-.5.6-.7,1.4-.8,2.4,0,.2,0,.2,0,.2v12.5c0,.3-.1.4-.4.4h-2.9c-.3,0-.4-.1-.4-.4v-18.5c0-.3.1-.4.4-.4h2.9c.3,0,.4.1.4.4v1c0,0,0,0,0,0,0,0,.1,0,.2,0,.9-1.1,2.2-1.7,3.8-1.7s2.8.5,3.6,1.6Z"/>
            <path class="cls-2" d="M110.2,29.9c0,.1,0,.2.2.2h2.6c.3,0,.4.1.4.4v1.9c0,.3-.1.4-.4.4h-2.6c-.1,0-.2,0-.2.2v16.1c0,.3-.1.4-.4.4h-2.8c-.3,0-.4-.1-.4-.4v-16.1c0,0,0-.2-.2-.2h-1.4c-.3,0-.4-.1-.4-.4v-1.9c0-.3.1-.4.4-.4h1.4c.1,0,.2,0,.2-.2v-1c0-2.2.5-3.8,1.4-4.8.9-1,2.4-1.5,4.5-1.5h.5c.3,0,.4.1.4.4v2.3c0,.3-.2.4-.5.4h-.4c-.8,0-1.4.3-1.8.8s-.6,1.4-.6,2.5v.9Z"/>
            <path class="cls-2" d="M117.9,48c-1.1-1.1-1.7-2.6-1.7-4.4v-7.8c0-1.8.6-3.2,1.7-4.3,1.2-1.1,2.7-1.7,4.6-1.7s3.5.6,4.7,1.7c1.2,1.1,1.7,2.6,1.7,4.3v7.8c0,1.8-.6,3.3-1.7,4.4-1.2,1.1-2.7,1.6-4.7,1.6s-3.5-.5-4.7-1.6ZM124.5,45.6c.5-.6.8-1.3.8-2.2v-7.3c0-.9-.3-1.7-.8-2.2-.5-.6-1.2-.9-2-.9s-1.5.3-2,.9c-.5.6-.8,1.3-.8,2.2v7.3c0,.9.3,1.7.8,2.2.5.6,1.2.9,2,.9s1.5-.3,2-.9Z"/>
            <path class="cls-2" d="M141.4,30.3c.2.1.2.3.2.5l-.6,2.9c0,.2-.2.3-.5.2-.3-.1-.7-.2-1.1-.2s-.4,0-.7,0c-.8,0-1.4.5-1.9,1.3-.5.8-.8,1.7-.8,2.8v11c0,.3-.1.4-.4.4h-2.9c-.3,0-.4-.1-.4-.4v-18.5c0-.3.1-.4.4-.4h2.9c.3,0,.4.1.4.4v2.2c0,0,0,.1,0,.1,0,0,0,0,0,0,.7-1.9,1.9-2.8,3.5-2.8s1.2.1,1.6.4Z"/>
            <path class="cls-2" d="M163.8,31.5c.8,1.1,1.3,2.7,1.3,4.7v12.7c0,.3-.1.4-.4.4h-2.8c-.3,0-.4-.1-.4-.4v-12.5c0-1.1-.2-2-.7-2.6-.5-.6-1.1-.9-1.8-.9s-1.4.3-1.9.9c-.5.6-.7,1.5-.7,2.6v12.5c0,.3-.1.4-.4.4h-2.8c-.3,0-.4-.1-.4-.4v-12.5c0-1.1-.2-2-.7-2.6-.5-.6-1.1-.9-1.8-.9s-1.4.3-1.9.9c-.5.6-.7,1.5-.7,2.6v12.5c0,.3-.1.4-.4.4h-2.8c-.3,0-.4-.1-.4-.4v-18.5c0-.3.1-.4.4-.4h2.8c.3,0,.4.1.4.4v.9c0,0,0,0,0,.1,0,0,0,0,.1,0,.5-.6,1.1-1,1.7-1.2.7-.3,1.3-.4,2-.4,1.9,0,3.3.8,4.1,2.5,0,0,0,0,.1,0,0,0,0,0,.1-.2.5-.9,1.1-1.5,1.9-1.9.8-.4,1.6-.6,2.4-.6,1.6,0,2.8.6,3.6,1.7Z"/>
            <path class="cls-2" d="M179.6,31.5c1.2,1.2,1.8,2.7,1.8,4.6v12.9c0,.3-.1.4-.4.4h-2.9c-.3,0-.4-.1-.4-.4v-.8s0,0,0-.1c0,0,0,0-.1,0-.9,1.1-2.2,1.6-3.9,1.6s-2.7-.4-3.8-1.2-1.6-2.3-1.6-4.4.7-3.8,2-4.8c1.3-1,3.1-1.5,5.2-1.5h2.2c.1,0,.2,0,.2-.2v-1.1c0-1.1-.3-1.9-.8-2.6-.5-.6-1.2-1-2-1s-1.2.2-1.6.6c-.4.4-.7,1-.8,1.7,0,.3-.1.4-.4.4h-3.1c-.3,0-.4-.1-.4-.4.1-1.6.8-2.9,1.9-3.9s2.6-1.5,4.3-1.5,3.3.6,4.5,1.7ZM176.7,45.6c.7-.6,1-1.3,1-2.3v-2.6c0-.1,0-.2-.2-.2h-2.3c-1,0-1.8.3-2.4.8-.6.5-.9,1.3-.9,2.4s.2,1.6.7,2c.5.5,1.1.7,1.8.7s1.7-.3,2.3-.8Z"/>
            <path class="cls-2" d="M183.7,49.2c0,0,0-.2,0-.3l4.6-9c0,0,0-.2,0-.2l-4.6-9.1c0,0,0-.1,0-.2,0-.2.1-.3.3-.3h3.2c.2,0,.4,0,.5.3l2.8,5.9c0,0,0,0,.1,0s0,0,.1,0l2.8-5.9c0-.2.2-.3.5-.3h3.1c.1,0,.2,0,.3.1,0,0,0,.2,0,.3l-4.5,9.1c0,0,0,.2,0,.2l4.5,9c0,0,0,.1,0,.2,0,.2-.1.3-.3.3h-3.1c-.2,0-.4,0-.5-.3l-2.8-6s0,0-.1,0,0,0-.1,0l-2.8,6c0,.2-.2.3-.4.3h-3.2c-.1,0-.2,0-.3-.1Z"/>
            <path class="cls-2" d="M199.4,56.7c0,0,0-.2,0-.3v-2.2c0-.3.1-.4.4-.4.8,0,1.4-.2,1.9-.4.5-.2.8-.7,1.1-1.3.3-.6.5-1.5.7-2.8v-.2s-4.9-18.7-4.9-18.7h0c0-.3.1-.4.4-.4h3.1c.3,0,.4.1.4.3l2.8,13.6c0,0,0,.1,0,.1s0,0,0-.1l2.7-13.6c0-.2.2-.3.4-.3h3.1c.1,0,.2,0,.3.2,0,0,0,.2,0,.3l-5.2,20.1c-.5,1.7-1,3-1.4,3.9-.5.8-1.1,1.4-2,1.8-.8.4-2,.5-3.6.5h-.2c0,0-.1,0-.2-.1Z"/>
            <path class="cls-2" d="M224.9,31.5c1.2,1.2,1.8,2.7,1.8,4.6v12.9c0,.3-.1.4-.4.4h-2.9c-.3,0-.4-.1-.4-.4v-.8s0,0,0-.1c0,0,0,0-.1,0-.9,1.1-2.2,1.6-3.9,1.6s-2.7-.4-3.8-1.2c-1.1-.8-1.6-2.3-1.6-4.4s.7-3.8,2-4.8c1.3-1,3.1-1.5,5.2-1.5h2.2c0,0,.2,0,.2-.2v-1.1c0-1.1-.3-1.9-.8-2.6s-1.2-1-2-1-1.2.2-1.6.6-.7,1-.8,1.7c0,.3-.1.4-.4.4h-3.1c-.3,0-.4-.1-.4-.4.1-1.6.8-2.9,1.9-3.9s2.6-1.5,4.3-1.5,3.3.6,4.5,1.7ZM222.1,45.6c.7-.6,1-1.3,1-2.3v-2.6c0-.1,0-.2-.2-.2h-2.3c-1,0-1.8.3-2.4.8-.6.5-.9,1.3-.9,2.4s.2,1.6.7,2c.5.5,1.1.7,1.8.7s1.7-.3,2.3-.8Z"/>
            <path class="cls-2" d="M230.2,48.6c-.5-.5-.7-1-.7-1.7s.2-1.3.7-1.7c.5-.5,1-.7,1.7-.7s1.3.2,1.7.7.7,1,.7,1.7-.2,1.3-.7,1.7c-.5.5-1,.7-1.7.7s-1.3-.2-1.7-.7Z"/>
            <path class="cls-2" d="M237.8,48.6c-.5-.5-.7-1-.7-1.7s.2-1.3.7-1.7,1-.7,1.7-.7,1.3.2,1.7.7c.5.5.7,1,.7,1.7s-.2,1.3-.7,1.7-1,.7-1.7.7-1.3-.2-1.7-.7Z"/>
            <path class="cls-2" d="M245.5,48.6c-.5-.5-.7-1-.7-1.7s.2-1.3.7-1.7c.5-.5,1-.7,1.7-.7s1.3.2,1.7.7.7,1,.7,1.7-.2,1.3-.7,1.7c-.5.5-1,.7-1.7.7s-1.3-.2-1.7-.7Z"/>
            <path class="cls-2" d="M261.8,30.1h2.9c.3,0,.4.1.4.4v18.3c0,2.6-.6,4.7-1.8,6.1-1.2,1.4-3.3,2.2-6.2,2.2h-1c-.3,0-.4-.2-.4-.5v-2.4c0-.3.1-.4.4-.4,2.1,0,3.5-.3,4.3-1.2s1.2-2.3,1.2-4.2v-.8s0,0,0,0c0,0,0,0-.1,0-.9,1.2-2.1,1.7-3.7,1.7s-2.9-.5-3.8-1.6c-.9-1.1-1.3-2.5-1.3-4.4v-7.6c0-1.9.5-3.3,1.4-4.4.9-1.1,2.2-1.6,3.8-1.6s2.9.6,3.7,1.7c0,0,0,0,.1,0,0,0,0,0,0-.1v-1c0-.3.1-.4.4-.4ZM260.7,45.3c.5-.6.7-1.3.7-2.2v-7.1c0-.9-.2-1.7-.7-2.2-.5-.6-1.1-.9-1.9-.9s-1.5.3-2,.9c-.5.6-.8,1.3-.8,2.2v7.1c0,.9.3,1.6.8,2.2.5.6,1.2.9,2,.9s1.5-.3,1.9-.9Z"/>
            <path class="cls-2" d="M279.5,31.5c1.2,1.2,1.8,2.7,1.8,4.6v12.9c0,.3-.1.4-.4.4h-2.9c-.3,0-.4-.1-.4-.4v-.8s0,0,0-.1c0,0,0,0-.1,0-.9,1.1-2.2,1.6-3.9,1.6s-2.7-.4-3.8-1.2c-1.1-.8-1.6-2.3-1.6-4.4s.7-3.8,2-4.8,3.1-1.5,5.2-1.5h2.2c.1,0,.2,0,.2-.2v-1.1c0-1.1-.3-1.9-.8-2.6-.5-.6-1.2-1-2-1s-1.2.2-1.6.6c-.4.4-.7,1-.8,1.7,0,.3-.1.4-.4.4h-3.1c-.3,0-.4-.1-.4-.4.1-1.6.8-2.9,1.9-3.9s2.6-1.5,4.3-1.5,3.3.6,4.5,1.7ZM276.6,45.6c.7-.6,1-1.3,1-2.3v-2.6c0-.1,0-.2-.2-.2h-2.3c-1,0-1.8.3-2.4.8-.6.5-.9,1.3-.9,2.4s.2,1.6.7,2,1.1.7,1.8.7,1.7-.3,2.3-.8Z"/>
            <path class="cls-2" d="M293.7,30.3c.2.1.2.3.2.5l-.6,2.9c0,.2-.2.3-.5.2-.3-.1-.7-.2-1.1-.2s-.4,0-.7,0c-.8,0-1.4.5-1.9,1.3-.5.8-.8,1.7-.8,2.8v11c0,.3-.1.4-.4.4h-2.9c-.3,0-.4-.1-.4-.4v-18.5c0-.3.1-.4.4-.4h2.9c.3,0,.4.1.4.4v2.2c0,0,0,.1,0,.1,0,0,0,0,0,0,.7-1.9,1.9-2.8,3.5-2.8s1.2.1,1.6.4Z"/>
            <path class="cls-2" d="M303.4,32.7h-2.6c-.1,0-.2,0-.2.2v10.6c0,1,.2,1.7.5,2.1.4.4.9.6,1.7.5h.3c.3,0,.4.1.4.4v2.4c0,.3-.1.4-.4.4h-1.2c-1.6,0-2.8-.3-3.6-.9-.8-.6-1.2-1.8-1.2-3.6v-11.9c0,0,0-.2-.2-.2h-1.5c-.3,0-.4-.1-.4-.4v-1.9c0-.3.1-.4.4-.4h1.5c.1,0,.2,0,.2-.2v-4.3c0-.3.1-.4.4-.4h2.8c.3,0,.4.1.4.4v4.3c0,.1,0,.2.2.2h2.6c.3,0,.4.1.4.4v1.9c0,.3-.1.4-.4.4Z"/>
            <path class="cls-2" d="M306.8,48.6c-.5-.5-.7-1-.7-1.7s.2-1.3.7-1.7c.5-.5,1-.7,1.7-.7s1.3.2,1.7.7.7,1,.7,1.7-.2,1.3-.7,1.7c-.5.5-1,.7-1.7.7s-1.3-.2-1.7-.7Z"/>
            <path class="cls-2" d="M314.4,48.6c-.5-.5-.7-1-.7-1.7s.2-1.3.7-1.7c.5-.5,1-.7,1.7-.7s1.3.2,1.7.7.7,1,.7,1.7-.2,1.3-.7,1.7c-.5.5-1,.7-1.7.7s-1.3-.2-1.7-.7Z"/>
            <path class="cls-2" d="M322.1,48.6c-.5-.5-.7-1-.7-1.7s.2-1.3.7-1.7,1-.7,1.7-.7,1.3.2,1.7.7c.5.5.7,1,.7,1.7s-.2,1.3-.7,1.7-1,.7-1.7.7-1.3-.2-1.7-.7Z"/>
          </g>
        </g>
        <path class="cls-9" d="M352.5,52.1c9.3,0,14-6.3,14-14s-4.7-14-14-14-14,6.3-14,14,4.7,14,14,14Z"/>
        <path class="cls-3" d="M351.5,36.6c0,2.5-2,4.5-4.5,4.5s-4.5-2-4.5-4.5,2-4.5,4.5-4.5,4.5,2,4.5,4.5Z"/>
        <path class="cls-3" d="M353.5,36.6c0,2.5,2,4.5,4.5,4.5s4.5-2,4.5-4.5-2-4.5-4.5-4.5-4.5,2-4.5,4.5Z"/>
        <path class="cls-5" d="M350.5,37.1c0,1.1-.9,2-2,2s-2-.9-2-2,.9-2,2-2,2,.9,2,2Z"/>
        <path class="cls-5" d="M354.5,37.1c0,1.1.9,2,2,2s2-.9,2-2-.9-2-2-2-2,.9-2,2Z"/>
        <path class="cls-7" d="M353.6,39.6c-.5-.5-1.3-.6-1.9-.2l-3.5,2.8.3-1c.2-.7-.2-1.4-1-1.6-.7-.2-1.5.2-1.7.9l-.8,2.9-1,2.3h0c-.4.8-.6,1.5-.6,2.3,0,2.6,2.1,4.7,4.8,4.7s2.2-.4,3-1.1l5.3-3.8c.6-.4.7-1.3.3-1.9-.2-.3-.5-.4-.8-.5l.5-.4c.6-.5.7-1.3.2-1.9-.2-.2-.5-.4-.8-.5h.2c.6-.6.7-1.5.2-2-.5-.6-1.4-.6-2-.2l-.6.5c.3-.5.3-1.1-.1-1.5v.2Z"/>
        <path class="cls-5" d="M347.3,29.1c.4,0,.7-.4.7-.8s-.4-.7-.8-.7c-3.1.1-4.7,2.7-4.7,4.7s.3.8.8.8.8-.3.8-.8c0-1.4,1.2-3.2,3.3-3.3h0Z"/>
        <path class="cls-5" d="M358.2,29.1c-.4,0-.7-.4-.7-.8s.4-.7.8-.7c3.1.1,4.7,2.7,4.7,4.7s-.3.8-.8.8-.8-.3-.8-.8c0-1.4-1.2-3.2-3.3-3.3h0Z"/>
      </g>
    </g>
  </g>
</svg>