<svg version="1.1" xmlns="http://www.w3.org/2000/svg" viewBox="0 0 1677.5322874714302 1531.7907612239524" width="1677.5322874714302" height="1531.7907612239524" class="excalidraw-svg">
  <!-- svg-source:excalidraw -->
  
  <defs>
    <style class="style-fonts">
      
    </style>
    
  </defs>
  <g transform="translate(322.4249514062684 646.4845644139523) rotate(0 140.57406616210938 49.23030267373147)"><text x="0" y="72.34881267591685" font-family="Helvetica, Segoe UI Emoji" font-size="85.61791769344603px" fill="#0c8599" text-anchor="start" style="white-space: pre;" direction="ltr" dominant-baseline="alphabetic">klartext</text></g><g transform="translate(601.1730589779361 603.5451144894466) rotate(0 24 49.23030267373147)"><text x="0" y="72.34881267591685" font-family="Helvetica, Segoe UI Emoji" font-size="85.61791769344603px" fill="#2f9e44" text-anchor="start" style="white-space: pre;" direction="ltr" dominant-baseline="alphabetic">k</text></g><g transform="translate(727.6370723772637 648.88452795839) rotate(0 167.75042724609375 49.23030267373147)"><text x="0" y="72.34881267591685" font-family="Helvetica, Segoe UI Emoji" font-size="85.61791769344603px" fill="#1e1e1e" text-anchor="start" style="white-space: pre;" direction="ltr" dominant-baseline="alphabetic">mod n = </text></g><g transform="translate(644.5161243448911 660.4148639485277) rotate(0 23.499954223632812 16.030290466700222)"><text x="0" y="23.55810180169106" font-family="Helvetica, Segoe UI Emoji" font-size="27.878766029043856px" fill="#2f9e44" text-anchor="start" style="white-space: pre;" direction="ltr" dominant-baseline="alphabetic">pub</text></g><g transform="translate(1054.953360779199 641.4402910969343) rotate(0 187.186279296875 49.23030267373147)"><text x="0" y="72.34881267591685" font-family="Helvetica, Segoe UI Emoji" font-size="85.61791769344603px" fill="#2f9e44" text-anchor="start" style="white-space: pre;" direction="ltr" dominant-baseline="alphabetic">ciphertext</text></g><g transform="translate(1432.9018448908328 700.8460879072821) rotate(0 23.499954223632812 16.030290466700208)"><text x="0" y="23.55810180169106" font-family="Helvetica, Segoe UI Emoji" font-size="27.878766029043856px" fill="#2f9e44" text-anchor="start" style="white-space: pre;" direction="ltr" dominant-baseline="alphabetic">pub</text></g><g transform="translate(1054.953360378477 818.4599303381128) rotate(0 140.57406616210938 49.230302673731465)"><text x="0" y="72.34881267591685" font-family="Helvetica, Segoe UI Emoji" font-size="85.61791769344603px" fill="#0c8599" text-anchor="start" style="white-space: pre;" direction="ltr" dominant-baseline="alphabetic">klartext</text></g><g transform="translate(621.5181031234303 779.8313870801585) rotate(0 24 49.230302673731465)"><text x="0" y="72.34881267591685" font-family="Helvetica, Segoe UI Emoji" font-size="85.61791769344603px" fill="#f08c00" text-anchor="start" style="white-space: pre;" direction="ltr" dominant-baseline="alphabetic">k</text></g><g transform="translate(664.8611684903852 836.7011365392395) rotate(0 22.986343383789062 16.030290466700215)"><text x="0" y="23.55810180169106" font-family="Helvetica, Segoe UI Emoji" font-size="27.878766029043856px" fill="#f08c00" text-anchor="start" style="white-space: pre;" direction="ltr" dominant-baseline="alphabetic">priv</text></g><g transform="translate(238.1090506682567 825.4541585046205) rotate(0 187.186279296875 49.230302673731465)"><text x="0" y="72.34881267591685" font-family="Helvetica, Segoe UI Emoji" font-size="85.61791769344603px" fill="#2f9e44" text-anchor="start" style="white-space: pre;" direction="ltr" dominant-baseline="alphabetic">ciphertext</text></g><g transform="translate(616.0575347798903 884.8599553149684) rotate(0 23.499954223632812 16.030290466700215)"><text x="0" y="23.55810180169106" font-family="Helvetica, Segoe UI Emoji" font-size="27.878766029043856px" fill="#2f9e44" text-anchor="start" style="white-space: pre;" direction="ltr" dominant-baseline="alphabetic">pub</text></g><g transform="translate(727.637072263614 825.4541580707208) rotate(0 167.75042724609375 49.230302673731465)"><text x="0" y="72.34881267591685" font-family="Helvetica, Segoe UI Emoji" font-size="85.61791769344603px" fill="#1e1e1e" text-anchor="start" style="white-space: pre;" direction="ltr" dominant-baseline="alphabetic">mod n = </text></g><g transform="translate(322.42495110482025 1244.360561785821) rotate(0 140.57406616210938 49.23030267373147)"><text x="0" y="72.34881267591685" font-family="Helvetica, Segoe UI Emoji" font-size="85.61791769344603px" fill="#0c8599" text-anchor="start" style="white-space: pre;" direction="ltr" dominant-baseline="alphabetic">klartext</text></g><g transform="translate(612.4816096764878 1374.0998528613154) rotate(0 24 49.23030267373147)"><text x="0" y="72.34881267591685" font-family="Helvetica, Segoe UI Emoji" font-size="85.61791769344603px" fill="#2f9e44" text-anchor="start" style="white-space: pre;" direction="ltr" dominant-baseline="alphabetic">k</text></g><g transform="translate(727.6370720758155 1246.7605253302586) rotate(0 167.75042724609375 49.23030267373147)"><text x="0" y="72.34881267591685" font-family="Helvetica, Segoe UI Emoji" font-size="85.61791769344603px" fill="#1e1e1e" text-anchor="start" style="white-space: pre;" direction="ltr" dominant-baseline="alphabetic">mod n = </text></g><g transform="translate(655.8246750434428 1430.9696023203965) rotate(0 23.499954223632812 16.030290466700222)"><text x="0" y="23.55810180169106" font-family="Helvetica, Segoe UI Emoji" font-size="27.878766029043856px" fill="#2f9e44" text-anchor="start" style="white-space: pre;" direction="ltr" dominant-baseline="alphabetic">pub</text></g><g transform="translate(1054.953360477751 1239.3162884688031) rotate(0 187.186279296875 49.23030267373147)"><text x="0" y="72.34881267591685" font-family="Helvetica, Segoe UI Emoji" font-size="85.61791769344603px" fill="#f08c00" text-anchor="start" style="white-space: pre;" direction="ltr" dominant-baseline="alphabetic">ciphertext</text></g><g transform="translate(1432.9018445893844 1298.7220852791509) rotate(0 22.986343383789062 16.030290466700222)"><text x="0" y="23.55810180169106" font-family="Helvetica, Segoe UI Emoji" font-size="27.878766029043856px" fill="#f08c00" text-anchor="start" style="white-space: pre;" direction="ltr" dominant-baseline="alphabetic">priv</text></g><g transform="translate(1054.953360077029 1416.3359277099817) rotate(0 140.57406616210938 49.230302673731444)"><text x="0" y="72.34881267591685" font-family="Helvetica, Segoe UI Emoji" font-size="85.61791769344603px" fill="#0c8599" text-anchor="start" style="white-space: pre;" direction="ltr" dominant-baseline="alphabetic">klartext</text></g><g transform="translate(611.1667991441441 1208.3126240735046) rotate(0 24 49.23030267373147)"><text x="0" y="72.34881267591685" font-family="Helvetica, Segoe UI Emoji" font-size="85.61791769344603px" fill="#f08c00" text-anchor="start" style="white-space: pre;" direction="ltr" dominant-baseline="alphabetic">k</text></g><g transform="translate(654.5098645110993 1265.1823735325856) rotate(0 22.986343383789062 16.030290466700222)"><text x="0" y="23.55810180169106" font-family="Helvetica, Segoe UI Emoji" font-size="27.878766029043856px" fill="#f08c00" text-anchor="start" style="white-space: pre;" direction="ltr" dominant-baseline="alphabetic">priv</text></g><g transform="translate(238.10905036680845 1423.3301558764892) rotate(0 187.186279296875 49.230302673731444)"><text x="0" y="72.34881267591685" font-family="Helvetica, Segoe UI Emoji" font-size="85.61791769344603px" fill="#f08c00" text-anchor="start" style="white-space: pre;" direction="ltr" dominant-baseline="alphabetic">ciphertext</text></g><g transform="translate(616.0575344784421 1482.7359526868372) rotate(0 22.986343383789062 16.030290466700194)"><text x="0" y="23.55810180169106" font-family="Helvetica, Segoe UI Emoji" font-size="27.878766029043856px" fill="#f08c00" text-anchor="start" style="white-space: pre;" direction="ltr" dominant-baseline="alphabetic">priv</text></g><g transform="translate(727.6370719621657 1423.3301554425896) rotate(0 167.75042724609375 49.230302673731444)"><text x="0" y="72.34881267591685" font-family="Helvetica, Segoe UI Emoji" font-size="85.61791769344603px" fill="#1e1e1e" text-anchor="start" style="white-space: pre;" direction="ltr" dominant-baseline="alphabetic">mod n = </text></g><g stroke-linecap="round"><g transform="translate(77.36531918675075 256.14490948414027) rotate(0 368.8909392240692 0)"><path d="M0 0 C122.96 0, 614.82 0, 737.78 0 M0 0 C122.96 0, 614.82 0, 737.78 0" stroke="#1e1e1e" stroke-width="4" fill="none"></path></g><g transform="translate(77.36531918675075 256.14490948414027) rotate(0 368.8909392240692 0)"><path d="M737.78 0 L724.19 6.34 L724.19 -6.34 L737.78 0" stroke="none" stroke-width="0" fill="#1e1e1e" fill-rule="evenodd"></path><path d="M737.78 0 C733.19 2.14, 728.59 4.29, 724.19 6.34 M737.78 0 C732.38 2.52, 726.98 5.04, 724.19 6.34 M724.19 6.34 C724.19 2.98, 724.19 -0.38, 724.19 -6.34 M724.19 6.34 C724.19 2.74, 724.19 -0.87, 724.19 -6.34 M724.19 -6.34 C728.03 -4.55, 731.87 -2.76, 737.78 0 M724.19 -6.34 C729.24 -3.98, 734.3 -1.62, 737.78 0 M737.78 0 C737.78 0, 737.78 0, 737.78 0 M737.78 0 C737.78 0, 737.78 0, 737.78 0" stroke="#1e1e1e" stroke-width="4" fill="none"></path></g></g><mask></mask><g transform="translate(348.7332995018585 178.4092782230573) rotate(0 105.55756378173828 37.64744515090041)"><text x="0" y="55.32665470291124" font-family="Helvetica, Segoe UI Emoji" font-size="65.47381765373987px" fill="#1e1e1e" text-anchor="start" style="white-space: pre;" direction="ltr" dominant-baseline="alphabetic">einfach</text></g><g stroke-linecap="round"><g transform="translate(815.5004551498487 313.3865913748648) rotate(0 -368.18420853022127 0)"><path d="M0 0 C-122.73 0, -613.64 0, -736.37 0 M0 0 C-122.73 0, -613.64 0, -736.37 0" stroke="#1e1e1e" stroke-width="4" fill="none"></path></g><g transform="translate(815.5004551498487 313.3865913748648) rotate(0 -368.18420853022127 0)"><path d="M-736.37 0 L-722.77 -6.34 L-722.77 6.34 L-736.37 0" stroke="none" stroke-width="0" fill="#1e1e1e" fill-rule="evenodd"></path><path d="M-736.37 0 C-732.68 -1.72, -728.99 -3.44, -722.77 -6.34 M-736.37 0 C-731.56 -2.24, -726.76 -4.48, -722.77 -6.34 M-722.77 -6.34 C-722.77 -1.4, -722.77 3.54, -722.77 6.34 M-722.77 -6.34 C-722.77 -2.9, -722.77 0.53, -722.77 6.34 M-722.77 6.34 C-726.16 4.76, -729.54 3.18, -736.37 0 M-722.77 6.34 C-728 3.9, -733.23 1.46, -736.37 0 M-736.37 0 C-736.37 0, -736.37 0, -736.37 0 M-736.37 0 C-736.37 0, -736.37 0, -736.37 0" stroke="#1e1e1e" stroke-width="4" fill="none"></path></g></g><mask></mask><g transform="translate(271.27184530805937 319.04008692752575) rotate(0 177.56106567382812 37.64744515090041)"><text x="0" y="55.32665470291124" font-family="Helvetica, Segoe UI Emoji" font-size="65.47381765373987px" fill="#1e1e1e" text-anchor="start" style="white-space: pre;" direction="ltr" dominant-baseline="alphabetic">sehr schwer</text></g><g transform="translate(487.71978903060716 10) rotate(0 313.10662841796875 22.80700367279468)"><text x="0" y="33.51715400487305" font-family="Helvetica, Segoe UI Emoji" font-size="39.664354213555995px" fill="#1e1e1e" text-anchor="start" style="white-space: pre;" direction="ltr" dominant-baseline="alphabetic">Bei den folgenden Gleichungen gilt:</text></g><g transform="translate(1013.5073448392427 169.2529339634791) rotate(0 24 49.230302673731444)"><text x="0" y="72.34881267591685" font-family="Helvetica, Segoe UI Emoji" font-size="85.61791769344603px" fill="#2f9e44" text-anchor="start" style="white-space: pre;" direction="ltr" dominant-baseline="alphabetic">k</text></g><g transform="translate(1056.8504102061977 226.12268342256016) rotate(0 23.499954223632812 16.030290466700194)"><text x="0" y="23.55810180169106" font-family="Helvetica, Segoe UI Emoji" font-size="27.878766029043856px" fill="#2f9e44" text-anchor="start" style="white-space: pre;" direction="ltr" dominant-baseline="alphabetic">pub</text></g><g transform="translate(1107.1748413180849 188.96167349745838) rotate(0 255.32357788085938 29.48229626867436)"><text x="0" y="43.32715856196316" font-family="Helvetica, Segoe UI Emoji" font-size="51.27355872812929px" fill="#1e1e1e" text-anchor="start" style="white-space: pre;" direction="ltr" dominant-baseline="alphabetic">= öffentliche Schlüssel</text></g><g transform="translate(1012.1925340684643 295.87437156530143) rotate(0 24 49.230302673731444)"><text x="0" y="72.34881267591685" font-family="Helvetica, Segoe UI Emoji" font-size="85.61791769344603px" fill="#f08c00" text-anchor="start" style="white-space: pre;" direction="ltr" dominant-baseline="alphabetic">k</text></g><g transform="translate(1055.5355994354193 352.7441210243825) rotate(0 22.986343383789062 16.030290466700194)"><text x="0" y="23.55810180169106" font-family="Helvetica, Segoe UI Emoji" font-size="27.878766029043856px" fill="#f08c00" text-anchor="start" style="white-space: pre;" direction="ltr" dominant-baseline="alphabetic">priv</text></g><g transform="translate(1105.8233912909213 313.3779403322908) rotate(0 224.40635681152344 29.48229626867436)"><text x="0" y="43.32715856196316" font-family="Helvetica, Segoe UI Emoji" font-size="51.27355872812929px" fill="#1e1e1e" text-anchor="start" style="white-space: pre;" direction="ltr" dominant-baseline="alphabetic">= privater Schlüssel</text></g><g stroke-linecap="round" transform="translate(10 106.74903304283544) rotate(0 828.7661437357151 166.58962382275263)"><path d="M32 0 C586.6 0, 1141.21 0, 1625.53 0 M32 0 C657.18 0, 1282.36 0, 1625.53 0 M1625.53 0 C1646.87 0, 1657.53 10.67, 1657.53 32 M1625.53 0 C1646.87 0, 1657.53 10.67, 1657.53 32 M1657.53 32 C1657.53 104.95, 1657.53 177.9, 1657.53 301.18 M1657.53 32 C1657.53 132.51, 1657.53 233.03, 1657.53 301.18 M1657.53 301.18 C1657.53 322.51, 1646.87 333.18, 1625.53 333.18 M1657.53 301.18 C1657.53 322.51, 1646.87 333.18, 1625.53 333.18 M1625.53 333.18 C1068.98 333.18, 512.44 333.18, 32 333.18 M1625.53 333.18 C1034.77 333.18, 444 333.18, 32 333.18 M32 333.18 C10.67 333.18, 0 322.51, 0 301.18 M32 333.18 C10.67 333.18, 0 322.51, 0 301.18 M0 301.18 C0 217.32, 0 133.46, 0 32 M0 301.18 C0 247.02, 0 192.86, 0 32 M0 32 C0 10.67, 10.67 0, 32 0 M0 32 C0 10.67, 10.67 0, 32 0" stroke="#1971c2" stroke-width="4" fill="none"></path></g></svg>