<svg version="1.1" xmlns="http://www.w3.org/2000/svg" viewBox="0 0 725.8254019988573 640.0953805761719" width="725.8254019988573" height="640.0953805761719" filter="invert(93%) hue-rotate(180deg)" class="excalidraw-svg">
  <!-- svg-source:excalidraw -->
  
  <defs>
    <style class="style-fonts">
      
    </style>
    
  </defs>
  <g transform="translate(10 10.000000505859362) rotate(0 126.275390625 16.099999999999994)"><text x="0" y="23.660546874999998" font-family="Helvetica, Segoe UI Emoji" font-size="28px" fill="#e03131" text-anchor="start" style="white-space: pre;" direction="ltr" dominant-baseline="alphabetic">Kompilierte Sprache</text></g><g transform="translate(431.4499071015625 10) rotate(0 136.1201171875 16.099999999999994)"><text x="0" y="23.660546874999998" font-family="Helvetica, Segoe UI Emoji" font-size="28px" fill="#1971c2" text-anchor="start" style="white-space: pre;" direction="ltr" dominant-baseline="alphabetic">Interpretierte Sprache</text></g><g stroke-linecap="round" transform="translate(16.942046976562494 84.70000050585935) rotate(0 119.33334350585938 75.33334350585938)"><path d="M32 0 C99.64 0, 167.28 0, 206.67 0 M32 0 C94.3 0, 156.61 0, 206.67 0 M206.67 0 C228 0, 238.67 10.67, 238.67 32 M206.67 0 C228 0, 238.67 10.67, 238.67 32 M238.67 32 C238.67 57.19, 238.67 82.38, 238.67 118.67 M238.67 32 C238.67 62.95, 238.67 93.91, 238.67 118.67 M238.67 118.67 C238.67 140, 228 150.67, 206.67 150.67 M238.67 118.67 C238.67 140, 228 150.67, 206.67 150.67 M206.67 150.67 C142.44 150.67, 78.22 150.67, 32 150.67 M206.67 150.67 C149.96 150.67, 93.26 150.67, 32 150.67 M32 150.67 C10.67 150.67, 0 140, 0 118.67 M32 150.67 C10.67 150.67, 0 140, 0 118.67 M0 118.67 C0 97.21, 0 75.75, 0 32 M0 118.67 C0 84.88, 0 51.1, 0 32 M0 32 C0 10.67, 10.67 0, 32 0 M0 32 C0 10.67, 10.67 0, 32 0" stroke="#e03131" stroke-width="2" fill="none"></path></g><g transform="translate(81.86523423242187 111.73334401171871) rotate(0 54.41015625 48.3)"><text x="54.41015625" y="23.660546874999998" font-family="Helvetica, Segoe UI Emoji" font-size="28px" fill="#e03131" text-anchor="middle" style="white-space: pre;" direction="ltr" dominant-baseline="alphabetic">Ihr Code</text><text x="54.41015625" y="55.860546875" font-family="Helvetica, Segoe UI Emoji" font-size="28px" fill="#e03131" text-anchor="middle" style="white-space: pre;" direction="ltr" dominant-baseline="alphabetic"></text><text x="54.41015625" y="88.06054687499999" font-family="Helvetica, Segoe UI Emoji" font-size="28px" fill="#e03131" text-anchor="middle" style="white-space: pre;" direction="ltr" dominant-baseline="alphabetic"></text></g><g stroke-linecap="round" transform="translate(16.94204647070319 308.10022449414055) rotate(0 119.33334350585938 84.00000000000001)"><path d="M32 0 C90.76 0, 149.51 0, 206.67 0 M32 0 C97.44 0, 162.88 0, 206.67 0 M206.67 0 C228 0, 238.67 10.67, 238.67 32 M206.67 0 C228 0, 238.67 10.67, 238.67 32 M238.67 32 C238.67 65.42, 238.67 98.84, 238.67 136 M238.67 32 C238.67 56.25, 238.67 80.5, 238.67 136 M238.67 136 C238.67 157.33, 228 168, 206.67 168 M238.67 136 C238.67 157.33, 228 168, 206.67 168 M206.67 168 C144.29 168, 81.9 168, 32 168 M206.67 168 C165.46 168, 124.25 168, 32 168 M32 168 C10.67 168, 0 157.33, 0 136 M32 168 C10.67 168, 0 157.33, 0 136 M0 136 C0 106.98, 0 77.97, 0 32 M0 136 C0 108.89, 0 81.77, 0 32 M0 32 C0 10.67, 10.67 0, 32 0 M0 32 C0 10.67, 10.67 0, 32 0" stroke="#e03131" stroke-width="2" fill="none"></path></g><g transform="translate(37.999999351562565 343.8002244941406) rotate(0 98.275390625 48.3)"><text x="98.275390625" y="23.660546874999998" font-family="Helvetica, Segoe UI Emoji" font-size="28px" fill="#e03131" text-anchor="middle" style="white-space: pre;" direction="ltr" dominant-baseline="alphabetic">Maschinencode</text><text x="98.275390625" y="55.860546875" font-family="Helvetica, Segoe UI Emoji" font-size="28px" fill="#e03131" text-anchor="middle" style="white-space: pre;" direction="ltr" dominant-baseline="alphabetic"></text><text x="98.275390625" y="88.06054687499999" font-family="Helvetica, Segoe UI Emoji" font-size="28px" fill="#e03131" text-anchor="middle" style="white-space: pre;" direction="ltr" dominant-baseline="alphabetic"></text></g><g transform="translate(50.02686344970704 174.0333745410156) rotate(0 86.24852752685547 9.524388496821402)"><text x="86.24852752685547" y="13.997033570481591" font-family="Helvetica, Segoe UI Emoji" font-size="16.564153907515486px" fill="#1e1e1e" text-anchor="middle" style="white-space: pre;" direction="ltr" dominant-baseline="alphabetic">printf("Hello, World!\n");</text></g><g transform="translate(57.115706749023445 413.43353750585936) rotate(0 79.15968322753906 9.500112090487576)"><text x="79.15968322753906" y="13.961356983523952" font-family="Helvetica, Segoe UI Emoji" font-size="16.521934070413185px" fill="#1e1e1e" text-anchor="middle" style="white-space: pre;" direction="ltr" dominant-baseline="alphabetic">0100 1100 0101 1100</text></g><g stroke-linecap="round" transform="translate(16.942047344847936 548.8337608477598) rotate(0 119.33334350585938 39)"><path d="M19.5 0 C70.45 0, 121.39 0, 219.17 0 M19.5 0 C64.24 0, 108.99 0, 219.17 0 M219.17 0 C232.17 0, 238.67 6.5, 238.67 19.5 M219.17 0 C232.17 0, 238.67 6.5, 238.67 19.5 M238.67 19.5 C238.67 33.19, 238.67 46.89, 238.67 58.5 M238.67 19.5 C238.67 33.07, 238.67 46.64, 238.67 58.5 M238.67 58.5 C238.67 71.5, 232.17 78, 219.17 78 M238.67 58.5 C238.67 71.5, 232.17 78, 219.17 78 M219.17 78 C170.77 78, 122.37 78, 19.5 78 M219.17 78 C171.52 78, 123.87 78, 19.5 78 M19.5 78 C6.5 78, 0 71.5, 0 58.5 M19.5 78 C6.5 78, 0 71.5, 0 58.5 M0 58.5 C0 45.11, 0 31.71, 0 19.5 M0 58.5 C0 47.61, 0 36.73, 0 19.5 M0 19.5 C0 6.5, 6.5 0, 19.5 0 M0 19.5 C0 6.5, 6.5 0, 19.5 0" stroke="#e03131" stroke-width="2" fill="none"></path></g><g transform="translate(75.37207053820731 571.7337608477599) rotate(0 60.9033203125 16.10000000000001)"><text x="60.9033203125" y="23.660546874999998" font-family="Helvetica, Segoe UI Emoji" font-size="28px" fill="#e03131" text-anchor="middle" style="white-space: pre;" direction="ltr" dominant-baseline="alphabetic">Hardware</text></g><g stroke-linecap="round" transform="translate(433.6376032705078 84.70000055273437) rotate(0 141.09389935302735 75.33334350585938)"><path d="M32 0 C114.03 0, 196.05 0, 250.19 0 M32 0 C101.27 0, 170.53 0, 250.19 0 M250.19 0 C271.52 0, 282.19 10.67, 282.19 32 M250.19 0 C271.52 0, 282.19 10.67, 282.19 32 M282.19 32 C282.19 64.74, 282.19 97.49, 282.19 118.67 M282.19 32 C282.19 66.3, 282.19 100.6, 282.19 118.67 M282.19 118.67 C282.19 140, 271.52 150.67, 250.19 150.67 M282.19 118.67 C282.19 140, 271.52 150.67, 250.19 150.67 M250.19 150.67 C185.2 150.67, 120.2 150.67, 32 150.67 M250.19 150.67 C192.66 150.67, 135.13 150.67, 32 150.67 M32 150.67 C10.67 150.67, 0 140, 0 118.67 M32 150.67 C10.67 150.67, 0 140, 0 118.67 M0 118.67 C0 88.82, 0 58.97, 0 32 M0 118.67 C0 87.72, 0 56.77, 0 32 M0 32 C0 10.67, 10.67 0, 32 0 M0 32 C0 10.67, 10.67 0, 32 0" stroke="#1971c2" stroke-width="2" fill="none"></path></g><g transform="translate(520.3213463735351 111.73334405859373) rotate(0 54.41015625 48.3)"><text x="54.41015625" y="23.660546874999998" font-family="Helvetica, Segoe UI Emoji" font-size="28px" fill="#1971c2" text-anchor="middle" style="white-space: pre;" direction="ltr" dominant-baseline="alphabetic">Ihr Code</text><text x="54.41015625" y="55.860546875" font-family="Helvetica, Segoe UI Emoji" font-size="28px" fill="#1971c2" text-anchor="middle" style="white-space: pre;" direction="ltr" dominant-baseline="alphabetic"></text><text x="54.41015625" y="88.06054687499999" font-family="Helvetica, Segoe UI Emoji" font-size="28px" fill="#1971c2" text-anchor="middle" style="white-space: pre;" direction="ltr" dominant-baseline="alphabetic"></text></g><g transform="translate(503.7329147084961 174.03337458789062) rotate(0 70.99858856201172 9.524388496821402)"><text x="70.99858856201172" y="13.997033570481591" font-family="Helvetica, Segoe UI Emoji" font-size="16.564153907515486px" fill="#1e1e1e" text-anchor="middle" style="white-space: pre;" direction="ltr" dominant-baseline="alphabetic">print("Hello world!")</text></g><g stroke-linecap="round" transform="translate(433.63760381152343 552.0953805761719) rotate(0 141.09389908251953 39)"><path d="M19.5 0 C114.14 0, 208.78 0, 262.69 0 M19.5 0 C87.17 0, 154.84 0, 262.69 0 M262.69 0 C275.69 0, 282.19 6.5, 282.19 19.5 M262.69 0 C275.69 0, 282.19 6.5, 282.19 19.5 M282.19 19.5 C282.19 29.3, 282.19 39.09, 282.19 58.5 M282.19 19.5 C282.19 27.9, 282.19 36.3, 282.19 58.5 M282.19 58.5 C282.19 71.5, 275.69 78, 262.69 78 M282.19 58.5 C282.19 71.5, 275.69 78, 262.69 78 M262.69 78 C204.74 78, 146.78 78, 19.5 78 M262.69 78 C176.74 78, 90.79 78, 19.5 78 M19.5 78 C6.5 78, 0 71.5, 0 58.5 M19.5 78 C6.5 78, 0 71.5, 0 58.5 M0 58.5 C0 47.69, 0 36.88, 0 19.5 M0 58.5 C0 50.07, 0 41.64, 0 19.5 M0 19.5 C0 6.5, 6.5 0, 19.5 0 M0 19.5 C0 6.5, 6.5 0, 19.5 0" stroke="#1971c2" stroke-width="2" fill="none"></path></g><g transform="translate(513.8281825815429 574.9953805761719) rotate(0 60.9033203125 16.10000000000001)"><text x="60.9033203125" y="23.660546874999998" font-family="Helvetica, Segoe UI Emoji" font-size="28px" fill="#1971c2" text-anchor="middle" style="white-space: pre;" direction="ltr" dominant-baseline="alphabetic">Hardware</text></g><g stroke-linecap="round" transform="translate(433.6376035644531 311.36184352929683) rotate(0 141.09389921720208 84.00000000000001)"><path d="M32 0 C112.48 0, 192.95 0, 250.19 0 M32 0 C104.42 0, 176.84 0, 250.19 0 M250.19 0 C271.52 0, 282.19 10.67, 282.19 32 M250.19 0 C271.52 0, 282.19 10.67, 282.19 32 M282.19 32 C282.19 73.12, 282.19 114.23, 282.19 136 M282.19 32 C282.19 69.83, 282.19 107.65, 282.19 136 M282.19 136 C282.19 157.33, 271.52 168, 250.19 168 M282.19 136 C282.19 157.33, 271.52 168, 250.19 168 M250.19 168 C165.44 168, 80.69 168, 32 168 M250.19 168 C170.79 168, 91.4 168, 32 168 M32 168 C10.67 168, 0 157.33, 0 136 M32 168 C10.67 168, 0 157.33, 0 136 M0 136 C0 111.3, 0 86.59, 0 32 M0 136 C0 103.8, 0 71.59, 0 32 M0 32 C0 10.67, 10.67 0, 32 0 M0 32 C0 10.67, 10.67 0, 32 0" stroke="#1971c2" stroke-width="2" fill="none"></path></g><g transform="translate(508.8076746566552 330.96184352929686) rotate(0 65.923828125 64.39999999999999)"><text x="65.923828125" y="23.660546874999998" font-family="Helvetica, Segoe UI Emoji" font-size="28px" fill="#1971c2" text-anchor="middle" style="white-space: pre;" direction="ltr" dominant-baseline="alphabetic">Interpreter</text><text x="65.923828125" y="55.860546875" font-family="Helvetica, Segoe UI Emoji" font-size="28px" fill="#1971c2" text-anchor="middle" style="white-space: pre;" direction="ltr" dominant-baseline="alphabetic"></text><text x="65.923828125" y="88.06054687499999" font-family="Helvetica, Segoe UI Emoji" font-size="28px" fill="#1971c2" text-anchor="middle" style="white-space: pre;" direction="ltr" dominant-baseline="alphabetic"></text><text x="65.923828125" y="120.26054687499999" font-family="Helvetica, Segoe UI Emoji" font-size="28px" fill="#1971c2" text-anchor="middle" style="white-space: pre;" direction="ltr" dominant-baseline="alphabetic"></text></g><g stroke-linecap="round"><g transform="translate(55.33343505859375 236.3666875175781) rotate(0 0 34.735959263962684)"><path d="M0 0 C0 11.58, 0 57.89, 0 69.47 M0 0 C0 11.58, 0 57.89, 0 69.47" stroke="#1e1e1e" stroke-width="2" fill="none"></path></g><g transform="translate(55.33343505859375 236.3666875175781) rotate(0 0 34.735959263962684)"><path d="M0 69.47 L-6.34 55.88 L6.34 55.88 L0 69.47" stroke="none" stroke-width="0" fill="#1e1e1e" fill-rule="evenodd"></path><path d="M0 69.47 C-2.45 64.21, -4.91 58.95, -6.34 55.88 M0 69.47 C-2.36 64.41, -4.72 59.34, -6.34 55.88 M-6.34 55.88 C-2.74 55.88, 0.86 55.88, 6.34 55.88 M-6.34 55.88 C-3.42 55.88, -0.5 55.88, 6.34 55.88 M6.34 55.88 C4.71 59.38, 3.08 62.87, 0 69.47 M6.34 55.88 C4.87 59.02, 3.4 62.17, 0 69.47 M0 69.47 C0 69.47, 0 69.47, 0 69.47 M0 69.47 C0 69.47, 0 69.47, 0 69.47" stroke="#1e1e1e" stroke-width="2" fill="none"></path></g></g><mask></mask><g transform="translate(65.27680213291893 261.5782587583887) rotate(0 42.337913513183594 9.524388496821402)"><text x="42.337913513183594" y="13.997033570481591" font-family="Helvetica, Segoe UI Emoji" font-size="16.564153907515486px" fill="#1e1e1e" text-anchor="middle" style="white-space: pre;" direction="ltr" dominant-baseline="alphabetic">kompilieren</text></g><g stroke-linecap="round"><g transform="translate(55.333434872589294 476.10022393120084) rotate(0 0 34.735959263962684)"><path d="M0 0 C0 11.58, 0 57.89, 0 69.47 M0 0 C0 11.58, 0 57.89, 0 69.47" stroke="#1e1e1e" stroke-width="2" fill="none"></path></g><g transform="translate(55.333434872589294 476.10022393120084) rotate(0 0 34.735959263962684)"><path d="M0 69.47 L-6.34 55.88 L6.34 55.88 L0 69.47" stroke="none" stroke-width="0" fill="#1e1e1e" fill-rule="evenodd"></path><path d="M0 69.47 C-1.29 66.7, -2.58 63.93, -6.34 55.88 M0 69.47 C-1.61 66.03, -3.21 62.58, -6.34 55.88 M-6.34 55.88 C-2.31 55.88, 1.72 55.88, 6.34 55.88 M-6.34 55.88 C-2 55.88, 2.33 55.88, 6.34 55.88 M6.34 55.88 C3.84 61.25, 1.33 66.61, 0 69.47 M6.34 55.88 C4.88 59.01, 3.42 62.15, 0 69.47 M0 69.47 C0 69.47, 0 69.47, 0 69.47 M0 69.47 C0 69.47, 0 69.47, 0 69.47" stroke="#1e1e1e" stroke-width="2" fill="none"></path></g></g><mask></mask><g transform="translate(68.5507780192508 503.86793182943325) rotate(0 36.827354431152344 9.524388496821402)"><text x="36.827354431152344" y="13.997033570481591" font-family="Helvetica, Segoe UI Emoji" font-size="16.564153907515486px" fill="#1e1e1e" text-anchor="middle" style="white-space: pre;" direction="ltr" dominant-baseline="alphabetic">ausführen</text></g><g stroke-linecap="round"><g transform="translate(481.9723590234629 238.6283059214355) rotate(0 0 34.735959263962684)"><path d="M0 0 C0 11.58, 0 57.89, 0 69.47 M0 0 C0 11.58, 0 57.89, 0 69.47" stroke="#1e1e1e" stroke-width="2" fill="none"></path></g><g transform="translate(481.9723590234629 238.6283059214355) rotate(0 0 34.735959263962684)"><path d="M0 69.47 L-6.34 55.88 L6.34 55.88 L0 69.47" stroke="none" stroke-width="0" fill="#1e1e1e" fill-rule="evenodd"></path><path d="M0 69.47 C-2.42 64.29, -4.83 59.11, -6.34 55.88 M0 69.47 C-1.9 65.4, -3.8 61.32, -6.34 55.88 M-6.34 55.88 C-3.37 55.88, -0.41 55.88, 6.34 55.88 M-6.34 55.88 C-2.7 55.88, 0.94 55.88, 6.34 55.88 M6.34 55.88 C4.83 59.1, 3.33 62.33, 0 69.47 M6.34 55.88 C3.94 61.02, 1.54 66.17, 0 69.47 M0 69.47 C0 69.47, 0 69.47, 0 69.47 M0 69.47 C0 69.47, 0 69.47, 0 69.47" stroke="#1e1e1e" stroke-width="2" fill="none"></path></g></g><mask></mask><g transform="translate(496.9484734443292 262.5463818573069) rotate(0 36.827354431152344 9.524388496821402)"><text x="36.827354431152344" y="13.997033570481591" font-family="Helvetica, Segoe UI Emoji" font-size="16.564153907515486px" fill="#1e1e1e" text-anchor="middle" style="white-space: pre;" direction="ltr" dominant-baseline="alphabetic">ausführen</text></g><g stroke-linecap="round"><g transform="translate(481.9723587546394 479.36184299268496) rotate(0 0 34.735959263962684)"><path d="M0 0 C0 11.58, 0 57.89, 0 69.47 M0 0 C0 11.58, 0 57.89, 0 69.47" stroke="#1e1e1e" stroke-width="2" fill="none"></path></g><g transform="translate(481.9723587546394 479.36184299268496) rotate(0 0 34.735959263962684)"><path d="M0 69.47 L-6.34 55.88 L6.34 55.88 L0 69.47" stroke="none" stroke-width="0" fill="#1e1e1e" fill-rule="evenodd"></path><path d="M0 69.47 C-1.71 65.79, -3.43 62.12, -6.34 55.88 M0 69.47 C-1.88 65.44, -3.76 61.4, -6.34 55.88 M-6.34 55.88 C-2.15 55.88, 2.04 55.88, 6.34 55.88 M-6.34 55.88 C-3.6 55.88, -0.85 55.88, 6.34 55.88 M6.34 55.88 C4.07 60.74, 1.8 65.61, 0 69.47 M6.34 55.88 C4.68 59.43, 3.03 62.98, 0 69.47 M0 69.47 C0 69.47, 0 69.47, 0 69.47 M0 69.47 C0 69.47, 0 69.47, 0 69.47" stroke="#1e1e1e" stroke-width="2" fill="none"></path></g></g><mask></mask><g transform="translate(493.70802268938684 504.5734128909173) rotate(0 30.16062164306641 9.524388496821402)"><text x="30.160621643066406" y="13.997033570481591" font-family="Helvetica, Segoe UI Emoji" font-size="16.564153907515486px" fill="#1e1e1e" text-anchor="middle" style="white-space: pre;" direction="ltr" dominant-baseline="alphabetic">läuft auf</text></g><g stroke-linecap="round" transform="translate(451.9944277272796 405.0012123958063) rotate(0 32.44820764253552 20.241560605858183)"><path d="M10.12 0 C24.08 0, 38.04 0, 54.78 0 M10.12 0 C25.86 0, 41.6 0, 54.78 0 M54.78 0 C61.52 0, 64.9 3.37, 64.9 10.12 M54.78 0 C61.52 0, 64.9 3.37, 64.9 10.12 M64.9 10.12 C64.9 16.78, 64.9 23.44, 64.9 30.36 M64.9 10.12 C64.9 15.89, 64.9 21.66, 64.9 30.36 M64.9 30.36 C64.9 37.11, 61.52 40.48, 54.78 40.48 M64.9 30.36 C64.9 37.11, 61.52 40.48, 54.78 40.48 M54.78 40.48 C38.06 40.48, 21.34 40.48, 10.12 40.48 M54.78 40.48 C43.53 40.48, 32.29 40.48, 10.12 40.48 M10.12 40.48 C3.37 40.48, 0 37.11, 0 30.36 M10.12 40.48 C3.37 40.48, 0 37.11, 0 30.36 M0 30.36 C0 26.31, 0 22.25, 0 10.12 M0 30.36 C0 23.24, 0 16.11, 0 10.12 M0 10.12 C0 3.37, 3.37 0, 10.12 0 M0 10.12 C0 3.37, 3.37 0, 10.12 0" stroke="#1e1e1e" stroke-width="2" fill="none"></path></g><g transform="translate(458.0641945128815 417.75611916876136) rotate(0 26.378440856933594 7.48665383290313)"><text x="26.378440856933594" y="11.00238036958403" font-family="Helvetica, Segoe UI Emoji" font-size="13.020267535483702px" fill="#1e1e1e" text-anchor="middle" style="white-space: pre;" direction="ltr" dominant-baseline="alphabetic">Compiler</text></g><g stroke-linecap="round" transform="translate(545.3940771925656 405.0012127820613) rotate(0 32.44820764253552 20.241560605858183)"><path d="M10.12 0 C26.63 0, 43.15 0, 54.78 0 M10.12 0 C20.28 0, 30.45 0, 54.78 0 M54.78 0 C61.52 0, 64.9 3.37, 64.9 10.12 M54.78 0 C61.52 0, 64.9 3.37, 64.9 10.12 M64.9 10.12 C64.9 18.01, 64.9 25.9, 64.9 30.36 M64.9 10.12 C64.9 16.08, 64.9 22.05, 64.9 30.36 M64.9 30.36 C64.9 37.11, 61.52 40.48, 54.78 40.48 M64.9 30.36 C64.9 37.11, 61.52 40.48, 54.78 40.48 M54.78 40.48 C42.57 40.48, 30.36 40.48, 10.12 40.48 M54.78 40.48 C45.6 40.48, 36.43 40.48, 10.12 40.48 M10.12 40.48 C3.37 40.48, 0 37.11, 0 30.36 M10.12 40.48 C3.37 40.48, 0 37.11, 0 30.36 M0 30.36 C0 24.62, 0 18.89, 0 10.12 M0 30.36 C0 26.05, 0 21.74, 0 10.12 M0 10.12 C0 3.37, 3.37 0, 10.12 0 M0 10.12 C0 3.37, 3.37 0, 10.12 0" stroke="#1e1e1e" stroke-width="2" fill="none"></path></g><g transform="translate(550.6993099815855 417.75611955501637) rotate(0 27.142974853515625 7.48665383290313)"><text x="27.142974853515625" y="11.00238036958403" font-family="Helvetica, Segoe UI Emoji" font-size="13.020267535483702px" fill="#1e1e1e" text-anchor="middle" style="white-space: pre;" direction="ltr" dominant-baseline="alphabetic">Bytecode</text></g><g stroke-linecap="round" transform="translate(638.7937262780242 405.0012120765184) rotate(0 32.44820764253552 20.241560605858183)"><path d="M10.12 0 C26.74 0, 43.36 0, 54.78 0 M10.12 0 C21.1 0, 32.08 0, 54.78 0 M54.78 0 C61.52 0, 64.9 3.37, 64.9 10.12 M54.78 0 C61.52 0, 64.9 3.37, 64.9 10.12 M64.9 10.12 C64.9 16.79, 64.9 23.45, 64.9 30.36 M64.9 10.12 C64.9 14.65, 64.9 19.19, 64.9 30.36 M64.9 30.36 C64.9 37.11, 61.52 40.48, 54.78 40.48 M64.9 30.36 C64.9 37.11, 61.52 40.48, 54.78 40.48 M54.78 40.48 C45.24 40.48, 35.7 40.48, 10.12 40.48 M54.78 40.48 C44.74 40.48, 34.7 40.48, 10.12 40.48 M10.12 40.48 C3.37 40.48, 0 37.11, 0 30.36 M10.12 40.48 C3.37 40.48, 0 37.11, 0 30.36 M0 30.36 C0 23.99, 0 17.61, 0 10.12 M0 30.36 C0 24.98, 0 19.6, 0 10.12 M0 10.12 C0 3.37, 3.37 0, 10.12 0 M0 10.12 C0 3.37, 3.37 0, 10.12 0" stroke="#1e1e1e" stroke-width="2" fill="none"></path></g><g transform="translate(646.6355725313996 410.2694650165703) rotate(0 24.606361389160156 14.97330766580626)"><text x="24.606361389160156" y="11.00238036958403" font-family="Helvetica, Segoe UI Emoji" font-size="13.020267535483702px" fill="#1e1e1e" text-anchor="middle" style="white-space: pre;" direction="ltr" dominant-baseline="alphabetic">Virtual</text><text x="24.606361389160156" y="25.975688035390284" font-family="Helvetica, Segoe UI Emoji" font-size="13.020267535483702px" fill="#1e1e1e" text-anchor="middle" style="white-space: pre;" direction="ltr" dominant-baseline="alphabetic">machine</text></g><g stroke-linecap="round"><g transform="translate(517.8908430123506 424.8938992774426) rotate(0 12.426094366597368 0)"><path d="M0 0 C4.14 0, 20.71 0, 24.85 0 M0 0 C4.14 0, 20.71 0, 24.85 0" stroke="#1e1e1e" stroke-width="2" fill="none"></path></g><g transform="translate(517.8908430123506 424.8938992774426) rotate(0 12.426094366597368 0)"><path d="M24.85 0 L13.59 5.25 L13.59 -5.25 L24.85 0" stroke="none" stroke-width="0" fill="#1e1e1e" fill-rule="evenodd"></path><path d="M24.85 0 C21.12 1.74, 17.39 3.48, 13.59 5.25 M24.85 0 C22.33 1.17, 19.82 2.35, 13.59 5.25 M13.59 5.25 C13.59 2.17, 13.59 -0.91, 13.59 -5.25 M13.59 5.25 C13.59 1.97, 13.59 -1.32, 13.59 -5.25 M13.59 -5.25 C16.62 -3.84, 19.64 -2.43, 24.85 0 M13.59 -5.25 C17.5 -3.43, 21.4 -1.61, 24.85 0 M24.85 0 C24.85 0, 24.85 0, 24.85 0 M24.85 0 C24.85 0, 24.85 0, 24.85 0" stroke="#1e1e1e" stroke-width="2" fill="none"></path></g></g><mask></mask><g stroke-linecap="round"><g transform="translate(611.6552326758193 425.24277384760813) rotate(0 12.526437348763423 0)"><path d="M0 0 C4.18 0, 20.88 0, 25.05 0 M0 0 C4.18 0, 20.88 0, 25.05 0" stroke="#1e1e1e" stroke-width="2" fill="none"></path></g><g transform="translate(611.6552326758193 425.24277384760813) rotate(0 12.526437348763423 0)"><path d="M25.05 0 L13.7 5.29 L13.7 -5.29 L25.05 0" stroke="none" stroke-width="0" fill="#1e1e1e" fill-rule="evenodd"></path><path d="M25.05 0 C20.69 2.03, 16.33 4.07, 13.7 5.29 M25.05 0 C21.49 1.66, 17.93 3.32, 13.7 5.29 M13.7 5.29 C13.7 1.83, 13.7 -1.62, 13.7 -5.29 M13.7 5.29 C13.7 1.31, 13.7 -2.67, 13.7 -5.29 M13.7 -5.29 C17.5 -3.52, 21.31 -1.75, 25.05 0 M13.7 -5.29 C17.22 -3.65, 20.75 -2.01, 25.05 0 M25.05 0 C25.05 0, 25.05 0, 25.05 0 M25.05 0 C25.05 0, 25.05 0, 25.05 0" stroke="#1e1e1e" stroke-width="2" fill="none"></path></g></g><mask></mask><g transform="translate(530.31693699274 367.06437717803624) rotate(0 40.905563354492195 9.524388496821404)"><text x="40.90556335449219" y="13.997033570481591" font-family="Helvetica, Segoe UI Emoji" font-size="16.564153907515486px" fill="#1e1e1e" text-anchor="middle" style="white-space: pre;" direction="ltr" dominant-baseline="alphabetic">python.exe</text></g></svg>