<?xml version="1.0" encoding="UTF-8"?>
<svg id="Layer_1" data-name="Layer 1" xmlns="http://www.w3.org/2000/svg" version="1.1" xmlns:xlink="http://www.w3.org/1999/xlink" viewBox="0 0 460.8 345.6">
  <defs>
    <style>
      .cls-1 {
        clip-path: url(#clippath-45);
      }

      .cls-2 {
        clip-path: url(#clippath-20);
      }

      .cls-3 {
        clip-path: url(#clippath-11);
      }

      .cls-4 {
        clip-path: url(#clippath-16);
      }

      .cls-5 {
        clip-path: url(#clippath-33);
      }

      .cls-6, .cls-7, .cls-8 {
        stroke-width: 0px;
      }

      .cls-6, .cls-9 {
        fill: #000;
      }

      .cls-10 {
        clip-path: url(#clippath-47);
      }

      .cls-7 {
        fill: #1f77b4;
      }

      .cls-11 {
        clip-path: url(#clippath-41);
      }

      .cls-12 {
        clip-path: url(#clippath-32);
      }

      .cls-13 {
        clip-path: url(#clippath-2);
      }

      .cls-14 {
        clip-path: url(#clippath-13);
      }

      .cls-15 {
        clip-path: url(#clippath-37);
      }

      .cls-16 {
        clip-path: url(#clippath-46);
      }

      .cls-17 {
        clip-path: url(#clippath-25);
      }

      .cls-18 {
        clip-path: url(#clippath-15);
      }

      .cls-19 {
        clip-path: url(#clippath-6);
      }

      .cls-20 {
        clip-path: url(#clippath-40);
      }

      .cls-21 {
        clip-path: url(#clippath-26);
      }

      .cls-8, .cls-22 {
        fill: none;
      }

      .cls-23 {
        clip-path: url(#clippath-7);
      }

      .cls-24 {
        clip-path: url(#clippath-21);
      }

      .cls-25 {
        clip-path: url(#clippath-34);
      }

      .cls-26 {
        clip-path: url(#clippath-1);
      }

      .cls-27 {
        clip-path: url(#clippath-4);
      }

      .cls-28 {
        clip-path: url(#clippath-38);
      }

      .cls-29 {
        clip-path: url(#clippath-36);
      }

      .cls-30 {
        clip-path: url(#clippath-27);
      }

      .cls-9 {
        stroke-linejoin: round;
      }

      .cls-9, .cls-22 {
        stroke: #000;
        stroke-width: .8px;
      }

      .cls-31 {
        clip-path: url(#clippath-44);
      }

      .cls-32 {
        clip-path: url(#clippath-12);
      }

      .cls-33 {
        clip-path: url(#clippath-24);
      }

      .cls-34 {
        clip-path: url(#clippath-30);
      }

      .cls-35 {
        clip-path: url(#clippath-22);
      }

      .cls-36 {
        clip-path: url(#clippath-9);
      }

      .cls-37 {
        clip-path: url(#clippath);
      }

      .cls-38 {
        clip-path: url(#clippath-48);
      }

      .cls-39 {
        clip-path: url(#clippath-39);
      }

      .cls-40 {
        clip-path: url(#clippath-19);
      }

      .cls-41 {
        clip-path: url(#clippath-31);
      }

      .cls-42 {
        clip-path: url(#clippath-3);
      }

      .cls-43 {
        clip-path: url(#clippath-43);
      }

      .cls-44 {
        clip-path: url(#clippath-8);
      }

      .cls-22 {
        stroke-linecap: square;
      }

      .cls-45 {
        clip-path: url(#clippath-29);
      }

      .cls-46 {
        clip-path: url(#clippath-18);
      }

      .cls-47 {
        clip-path: url(#clippath-14);
      }

      .cls-48 {
        clip-path: url(#clippath-17);
      }

      .cls-49 {
        clip-path: url(#clippath-5);
      }

      .cls-50 {
        clip-path: url(#clippath-42);
      }

      .cls-51 {
        clip-path: url(#clippath-10);
      }

      .cls-52 {
        clip-path: url(#clippath-23);
      }

      .cls-53 {
        clip-path: url(#clippath-49);
      }

      .cls-54 {
        clip-path: url(#clippath-28);
      }

      .cls-55 {
        clip-path: url(#clippath-35);
      }
    </style>
    <clipPath id="clippath">
      <rect class="cls-8" x="41.7" y="1.8" width="413" height="307.7"/>
    </clipPath>
    <clipPath id="clippath-1">
      <rect class="cls-8" x="41.7" y="1.8" width="413" height="307.7"/>
    </clipPath>
    <clipPath id="clippath-2">
      <rect class="cls-8" x="41.7" y="1.8" width="413" height="307.7"/>
    </clipPath>
    <clipPath id="clippath-3">
      <rect class="cls-8" x="41.7" y="1.8" width="413" height="307.7"/>
    </clipPath>
    <clipPath id="clippath-4">
      <rect class="cls-8" x="41.7" y="1.8" width="413" height="307.7"/>
    </clipPath>
    <clipPath id="clippath-5">
      <rect class="cls-8" x="41.7" y="1.8" width="413" height="307.7"/>
    </clipPath>
    <clipPath id="clippath-6">
      <rect class="cls-8" x="41.7" y="1.8" width="413" height="307.7"/>
    </clipPath>
    <clipPath id="clippath-7">
      <rect class="cls-8" x="41.7" y="1.8" width="413" height="307.7"/>
    </clipPath>
    <clipPath id="clippath-8">
      <rect class="cls-8" x="41.7" y="1.8" width="413" height="307.7"/>
    </clipPath>
    <clipPath id="clippath-9">
      <rect class="cls-8" x="41.7" y="1.8" width="413" height="307.7"/>
    </clipPath>
    <clipPath id="clippath-10">
      <rect class="cls-8" x="41.7" y="1.8" width="413" height="307.7"/>
    </clipPath>
    <clipPath id="clippath-11">
      <rect class="cls-8" x="41.7" y="1.8" width="413" height="307.7"/>
    </clipPath>
    <clipPath id="clippath-12">
      <rect class="cls-8" x="41.7" y="1.8" width="413" height="307.7"/>
    </clipPath>
    <clipPath id="clippath-13">
      <rect class="cls-8" x="41.7" y="1.8" width="413" height="307.7"/>
    </clipPath>
    <clipPath id="clippath-14">
      <rect class="cls-8" x="41.7" y="1.8" width="413" height="307.7"/>
    </clipPath>
    <clipPath id="clippath-15">
      <rect class="cls-8" x="41.7" y="1.8" width="413" height="307.7"/>
    </clipPath>
    <clipPath id="clippath-16">
      <rect class="cls-8" x="41.7" y="1.8" width="413" height="307.7"/>
    </clipPath>
    <clipPath id="clippath-17">
      <rect class="cls-8" x="41.7" y="1.8" width="413" height="307.7"/>
    </clipPath>
    <clipPath id="clippath-18">
      <rect class="cls-8" x="41.7" y="1.8" width="413" height="307.7"/>
    </clipPath>
    <clipPath id="clippath-19">
      <rect class="cls-8" x="41.7" y="1.8" width="413" height="307.7"/>
    </clipPath>
    <clipPath id="clippath-20">
      <rect class="cls-8" x="41.7" y="1.8" width="413" height="307.7"/>
    </clipPath>
    <clipPath id="clippath-21">
      <rect class="cls-8" x="41.7" y="1.8" width="413" height="307.7"/>
    </clipPath>
    <clipPath id="clippath-22">
      <rect class="cls-8" x="41.7" y="1.8" width="413" height="307.7"/>
    </clipPath>
    <clipPath id="clippath-23">
      <rect class="cls-8" x="41.7" y="1.8" width="413" height="307.7"/>
    </clipPath>
    <clipPath id="clippath-24">
      <rect class="cls-8" x="41.7" y="1.8" width="413" height="307.7"/>
    </clipPath>
    <clipPath id="clippath-25">
      <rect class="cls-8" x="41.7" y="1.8" width="413" height="307.7"/>
    </clipPath>
    <clipPath id="clippath-26">
      <rect class="cls-8" x="41.7" y="1.8" width="413" height="307.7"/>
    </clipPath>
    <clipPath id="clippath-27">
      <rect class="cls-8" x="41.7" y="1.8" width="413" height="307.7"/>
    </clipPath>
    <clipPath id="clippath-28">
      <rect class="cls-8" x="41.7" y="1.8" width="413" height="307.7"/>
    </clipPath>
    <clipPath id="clippath-29">
      <rect class="cls-8" x="41.7" y="1.8" width="413" height="307.7"/>
    </clipPath>
    <clipPath id="clippath-30">
      <rect class="cls-8" x="41.7" y="1.8" width="413" height="307.7"/>
    </clipPath>
    <clipPath id="clippath-31">
      <rect class="cls-8" x="41.7" y="1.8" width="413" height="307.7"/>
    </clipPath>
    <clipPath id="clippath-32">
      <rect class="cls-8" x="41.7" y="1.8" width="413" height="307.7"/>
    </clipPath>
    <clipPath id="clippath-33">
      <rect class="cls-8" x="41.7" y="1.8" width="413" height="307.7"/>
    </clipPath>
    <clipPath id="clippath-34">
      <rect class="cls-8" x="41.7" y="1.8" width="413" height="307.7"/>
    </clipPath>
    <clipPath id="clippath-35">
      <rect class="cls-8" x="41.7" y="1.8" width="413" height="307.7"/>
    </clipPath>
    <clipPath id="clippath-36">
      <rect class="cls-8" x="41.7" y="1.8" width="413" height="307.7"/>
    </clipPath>
    <clipPath id="clippath-37">
      <rect class="cls-8" x="41.7" y="1.8" width="413" height="307.7"/>
    </clipPath>
    <clipPath id="clippath-38">
      <rect class="cls-8" x="41.7" y="1.8" width="413" height="307.7"/>
    </clipPath>
    <clipPath id="clippath-39">
      <rect class="cls-8" x="41.7" y="1.8" width="413" height="307.7"/>
    </clipPath>
    <clipPath id="clippath-40">
      <rect class="cls-8" x="41.7" y="1.8" width="413" height="307.7"/>
    </clipPath>
    <clipPath id="clippath-41">
      <rect class="cls-8" x="41.7" y="1.8" width="413" height="307.7"/>
    </clipPath>
    <clipPath id="clippath-42">
      <rect class="cls-8" x="41.7" y="1.8" width="413" height="307.7"/>
    </clipPath>
    <clipPath id="clippath-43">
      <rect class="cls-8" x="41.7" y="1.8" width="413" height="307.7"/>
    </clipPath>
    <clipPath id="clippath-44">
      <rect class="cls-8" x="41.7" y="1.8" width="413" height="307.7"/>
    </clipPath>
    <clipPath id="clippath-45">
      <rect class="cls-8" x="41.7" y="1.8" width="413" height="307.7"/>
    </clipPath>
    <clipPath id="clippath-46">
      <rect class="cls-8" x="41.7" y="1.8" width="413" height="307.7"/>
    </clipPath>
    <clipPath id="clippath-47">
      <rect class="cls-8" x="41.7" y="1.8" width="413" height="307.7"/>
    </clipPath>
    <clipPath id="clippath-48">
      <rect class="cls-8" x="41.7" y="1.8" width="413" height="307.7"/>
    </clipPath>
    <clipPath id="clippath-49">
      <rect class="cls-8" x="41.7" y="1.8" width="413" height="307.7"/>
    </clipPath>
  </defs>
  <g id="patch_3" data-name="patch 3">
    <g class="cls-37">
      <path class="cls-7" d="M60.5,309.6h7.5V16.5h-7.5v293.1Z"/>
    </g>
  </g>
  <g id="patch_4" data-name="patch 4">
    <g class="cls-26">
      <path class="cls-7" d="M68,309.6h7.5V58.1h-7.5v251.5Z"/>
    </g>
  </g>
  <g id="patch_5" data-name="patch 5">
    <g class="cls-13">
      <path class="cls-7" d="M75.5,309.6h7.5V69.4h-7.5v240.2Z"/>
    </g>
  </g>
  <g id="patch_6" data-name="patch 6">
    <g class="cls-42">
      <path class="cls-7" d="M83,309.6h7.5V79h-7.5v230.6Z"/>
    </g>
  </g>
  <g id="patch_7" data-name="patch 7">
    <g class="cls-27">
      <path class="cls-7" d="M90.5,309.6h7.5V82.2h-7.5v227.4Z"/>
    </g>
  </g>
  <g id="patch_8" data-name="patch 8">
    <g class="cls-49">
      <path class="cls-7" d="M98,309.6h7.5V88.2h-7.5v221.4Z"/>
    </g>
  </g>
  <g id="patch_9" data-name="patch 9">
    <g class="cls-19">
      <path class="cls-7" d="M105.6,309.6h7.5V88.2h-7.5v221.4Z"/>
    </g>
  </g>
  <g id="patch_10" data-name="patch 10">
    <g class="cls-23">
      <path class="cls-7" d="M113.1,309.6h7.5V92.8h-7.5v216.8Z"/>
    </g>
  </g>
  <g id="patch_11" data-name="patch 11">
    <g class="cls-44">
      <path class="cls-7" d="M120.6,309.6h7.5V94.8h-7.5v214.8Z"/>
    </g>
  </g>
  <g id="patch_12" data-name="patch 12">
    <g class="cls-36">
      <path class="cls-7" d="M128.1,309.6h7.5V96.8h-7.5v212.7Z"/>
    </g>
  </g>
  <g id="patch_13" data-name="patch 13">
    <g class="cls-51">
      <path class="cls-7" d="M135.6,309.6h7.5V97.7h-7.5v211.8Z"/>
    </g>
  </g>
  <g id="patch_14" data-name="patch 14">
    <g class="cls-3">
      <path class="cls-7" d="M143.1,309.6h7.5V102h-7.5v207.6Z"/>
    </g>
  </g>
  <g id="patch_15" data-name="patch 15">
    <g class="cls-32">
      <path class="cls-7" d="M150.6,309.6h7.5V100.1h-7.5v209.5Z"/>
    </g>
  </g>
  <g id="patch_16" data-name="patch 16">
    <g class="cls-14">
      <path class="cls-7" d="M158.1,309.6h7.5V102.9h-7.5v206.7Z"/>
    </g>
  </g>
  <g id="patch_17" data-name="patch 17">
    <g class="cls-47">
      <path class="cls-7" d="M165.6,309.6h7.5V106.8h-7.5v202.8Z"/>
    </g>
  </g>
  <g id="patch_18" data-name="patch 18">
    <g class="cls-18">
      <path class="cls-7" d="M173.1,309.6h7.5V100.9h-7.5v208.7Z"/>
    </g>
  </g>
  <g id="patch_19" data-name="patch 19">
    <g class="cls-4">
      <path class="cls-7" d="M180.6,309.6h7.5V105.6h-7.5v203.9Z"/>
    </g>
  </g>
  <g id="patch_20" data-name="patch 20">
    <g class="cls-48">
      <path class="cls-7" d="M188.1,309.6h7.5V105.5h-7.5v204.1Z"/>
    </g>
  </g>
  <g id="patch_21" data-name="patch 21">
    <g class="cls-46">
      <path class="cls-7" d="M195.7,309.6h7.5V109.9h-7.5v199.7Z"/>
    </g>
  </g>
  <g id="patch_22" data-name="patch 22">
    <g class="cls-40">
      <path class="cls-7" d="M203.2,309.6h7.5V107.2h-7.5v202.4Z"/>
    </g>
  </g>
  <g id="patch_23" data-name="patch 23">
    <g class="cls-2">
      <path class="cls-7" d="M210.7,309.6h7.5V111.5h-7.5v198.1Z"/>
    </g>
  </g>
  <g id="patch_24" data-name="patch 24">
    <g class="cls-24">
      <path class="cls-7" d="M218.2,309.6h7.5V108.5h-7.5v201.1Z"/>
    </g>
  </g>
  <g id="patch_25" data-name="patch 25">
    <g class="cls-35">
      <path class="cls-7" d="M225.7,309.6h7.5V113h-7.5v196.6Z"/>
    </g>
  </g>
  <g id="patch_26" data-name="patch 26">
    <g class="cls-52">
      <path class="cls-7" d="M233.2,309.6h7.5V109.1h-7.5v200.4Z"/>
    </g>
  </g>
  <g id="patch_27" data-name="patch 27">
    <g class="cls-33">
      <path class="cls-7" d="M240.7,309.6h7.5V111h-7.5v198.6Z"/>
    </g>
  </g>
  <g id="patch_28" data-name="patch 28">
    <g class="cls-17">
      <path class="cls-7" d="M248.2,309.6h7.5V112.4h-7.5v197.2Z"/>
    </g>
  </g>
  <g id="patch_29" data-name="patch 29">
    <g class="cls-21">
      <path class="cls-7" d="M255.7,309.6h7.5V113.8h-7.5v195.8Z"/>
    </g>
  </g>
  <g id="patch_30" data-name="patch 30">
    <g class="cls-30">
      <path class="cls-7" d="M263.2,309.6h7.5V115.1h-7.5v194.5Z"/>
    </g>
  </g>
  <g id="patch_31" data-name="patch 31">
    <g class="cls-54">
      <path class="cls-7" d="M270.7,309.6h7.5V113.2h-7.5v196.4Z"/>
    </g>
  </g>
  <g id="patch_32" data-name="patch 32">
    <g class="cls-45">
      <path class="cls-7" d="M278.3,309.6h7.5V114.2h-7.5v195.4Z"/>
    </g>
  </g>
  <g id="patch_33" data-name="patch 33">
    <g class="cls-34">
      <path class="cls-7" d="M285.8,309.6h7.5V113.3h-7.5v196.3Z"/>
    </g>
  </g>
  <g id="patch_34" data-name="patch 34">
    <g class="cls-41">
      <path class="cls-7" d="M293.3,309.6h7.5V120.2h-7.5v189.4Z"/>
    </g>
  </g>
  <g id="patch_35" data-name="patch 35">
    <g class="cls-12">
      <path class="cls-7" d="M300.8,309.6h7.5V116.5h-7.5v193.1Z"/>
    </g>
  </g>
  <g id="patch_36" data-name="patch 36">
    <g class="cls-5">
      <path class="cls-7" d="M308.3,309.6h7.5V115.5h-7.5v194.1Z"/>
    </g>
  </g>
  <g id="patch_37" data-name="patch 37">
    <g class="cls-25">
      <path class="cls-7" d="M315.8,309.6h7.5V117.6h-7.5v192Z"/>
    </g>
  </g>
  <g id="patch_38" data-name="patch 38">
    <g class="cls-55">
      <path class="cls-7" d="M323.3,309.6h7.5V117.2h-7.5v192.4Z"/>
    </g>
  </g>
  <g id="patch_39" data-name="patch 39">
    <g class="cls-29">
      <path class="cls-7" d="M330.8,309.6h7.5V114.8h-7.5v194.7Z"/>
    </g>
  </g>
  <g id="patch_40" data-name="patch 40">
    <g class="cls-15">
      <path class="cls-7" d="M338.3,309.6h7.5V122.1h-7.5v187.5Z"/>
    </g>
  </g>
  <g id="patch_41" data-name="patch 41">
    <g class="cls-28">
      <path class="cls-7" d="M345.8,309.6h7.5V116.7h-7.5v192.9Z"/>
    </g>
  </g>
  <g id="patch_42" data-name="patch 42">
    <g class="cls-39">
      <path class="cls-7" d="M353.3,309.6h7.5V117.7h-7.5v191.9Z"/>
    </g>
  </g>
  <g id="patch_43" data-name="patch 43">
    <g class="cls-20">
      <path class="cls-7" d="M360.8,309.6h7.5V119.6h-7.5v189.9Z"/>
    </g>
  </g>
  <g id="patch_44" data-name="patch 44">
    <g class="cls-11">
      <path class="cls-7" d="M368.4,309.6h7.5V118.5h-7.5v191.1Z"/>
    </g>
  </g>
  <g id="patch_45" data-name="patch 45">
    <g class="cls-50">
      <path class="cls-7" d="M375.9,309.6h7.5V121.5h-7.5v188.1Z"/>
    </g>
  </g>
  <g id="patch_46" data-name="patch 46">
    <g class="cls-43">
      <path class="cls-7" d="M383.4,309.6h7.5V117.6h-7.5v192Z"/>
    </g>
  </g>
  <g id="patch_47" data-name="patch 47">
    <g class="cls-31">
      <path class="cls-7" d="M390.9,309.6h7.5V121.6h-7.5v188Z"/>
    </g>
  </g>
  <g id="patch_48" data-name="patch 48">
    <g class="cls-1">
      <path class="cls-7" d="M398.4,309.6h7.5V120.4h-7.5v189.2Z"/>
    </g>
  </g>
  <g id="patch_49" data-name="patch 49">
    <g class="cls-16">
      <path class="cls-7" d="M405.9,309.6h7.5V121.6h-7.5v188Z"/>
    </g>
  </g>
  <g id="patch_50" data-name="patch 50">
    <g class="cls-10">
      <path class="cls-7" d="M413.4,309.6h7.5V123.9h-7.5v185.7Z"/>
    </g>
  </g>
  <g id="patch_51" data-name="patch 51">
    <g class="cls-38">
      <path class="cls-7" d="M420.9,309.6h7.5V122h-7.5v187.6Z"/>
    </g>
  </g>
  <g id="patch_52" data-name="patch 52">
    <g class="cls-53">
      <path class="cls-7" d="M428.4,309.6h7.5V124h-7.5v185.5Z"/>
    </g>
  </g>
  <g id="matplotlib.axis_1" data-name="matplotlib.axis 1">
    <g id="xtick_1" data-name="xtick 1">
      <g id="line2d_1" data-name="line2d 1">
        <path id="ma915f0eb62" class="cls-9" d="M60.5,309.6v4"/>
      </g>
      <g id="text_1" data-name="text 1">
        <g>
          <path id="DejaVuSans-30" class="cls-6" d="M55,318.8c-.6,0-1,.3-1.3.9-.3.6-.4,1.4-.4,2.6s.1,2,.4,2.6c.3.6.7.9,1.3.9s1-.3,1.3-.9c.3-.6.4-1.4.4-2.6s-.1-2-.4-2.6c-.3-.6-.7-.9-1.3-.9ZM55,317.9c.9,0,1.7.4,2.2,1.1.5.7.7,1.8.7,3.3s-.2,2.5-.7,3.3c-.5.7-1.2,1.1-2.2,1.1s-1.7-.4-2.2-1.1c-.5-.7-.7-1.8-.7-3.3s.2-2.5.7-3.3c.5-.7,1.2-1.1,2.2-1.1Z"/>
          <path id="DejaVuSans-2e" class="cls-6" d="M59.9,325h1.2v1.4h-1.2v-1.4Z"/>
          <path id="DejaVuSans-30-2" data-name="DejaVuSans-30" class="cls-6" d="M66,318.8c-.6,0-1,.3-1.3.9-.3.6-.4,1.4-.4,2.6s.1,2,.4,2.6c.3.6.7.9,1.3.9s1-.3,1.3-.9c.3-.6.4-1.4.4-2.6s-.1-2-.4-2.6c-.3-.6-.7-.9-1.3-.9ZM66,317.9c.9,0,1.7.4,2.2,1.1.5.7.7,1.8.7,3.3s-.2,2.5-.7,3.3c-.5.7-1.2,1.1-2.2,1.1s-1.7-.4-2.2-1.1c-.5-.7-.7-1.8-.7-3.3s.2-2.5.7-3.3c.5-.7,1.2-1.1,2.2-1.1Z"/>
        </g>
      </g>
    </g>
    <g id="xtick_2" data-name="xtick 2">
      <g id="line2d_2" data-name="line2d 2">
        <path id="ma915f0eb62-2" data-name="ma915f0eb62" class="cls-9" d="M135.6,309.6v4"/>
      </g>
      <g id="text_2" data-name="text 2">
        <g>
          <path id="DejaVuSans-30-3" data-name="DejaVuSans-30" class="cls-6" d="M130.1,318.8c-.6,0-1,.3-1.3.9-.3.6-.4,1.4-.4,2.6s.1,2,.4,2.6c.3.6.7.9,1.3.9s1-.3,1.3-.9c.3-.6.4-1.4.4-2.6s-.1-2-.4-2.6c-.3-.6-.7-.9-1.3-.9ZM130.1,317.9c.9,0,1.7.4,2.2,1.1.5.7.7,1.8.7,3.3s-.2,2.5-.7,3.3c-.5.7-1.2,1.1-2.2,1.1s-1.7-.4-2.2-1.1c-.5-.7-.7-1.8-.7-3.3s.2-2.5.7-3.3c.5-.7,1.2-1.1,2.2-1.1Z"/>
          <path id="DejaVuSans-2e-2" data-name="DejaVuSans-2e" class="cls-6" d="M135,325h1.2v1.4h-1.2v-1.4Z"/>
          <path id="DejaVuSans-32" class="cls-6" d="M139.6,325.5h4v1h-5.4v-1c.4-.4,1-1,1.8-1.8.7-.8,1.2-1.2,1.4-1.5.4-.4.6-.8.8-1,.1-.3.2-.6.2-.8,0-.4-.2-.8-.5-1.1-.3-.3-.7-.4-1.2-.4s-.7,0-1.1.2c-.4.1-.8.3-1.3.6v-1.2c.5-.2.9-.3,1.3-.4.4,0,.8-.1,1.1-.1.9,0,1.6.2,2.1.7.5.4.8,1,.8,1.7s0,.7-.2,1c-.1.3-.4.7-.7,1.1,0,.1-.4.4-.9.9-.5.5-1.2,1.3-2.1,2.2Z"/>
        </g>
      </g>
    </g>
    <g id="xtick_3" data-name="xtick 3">
      <g id="line2d_3" data-name="line2d 3">
        <path id="ma915f0eb62-3" data-name="ma915f0eb62" class="cls-9" d="M210.7,309.6v4"/>
      </g>
      <g id="text_3" data-name="text 3">
        <g>
          <path id="DejaVuSans-30-4" data-name="DejaVuSans-30" class="cls-6" d="M205.2,318.8c-.6,0-1,.3-1.3.9-.3.6-.4,1.4-.4,2.6s.1,2,.4,2.6c.3.6.7.9,1.3.9s1-.3,1.3-.9c.3-.6.4-1.4.4-2.6s-.1-2-.4-2.6c-.3-.6-.7-.9-1.3-.9ZM205.2,317.9c.9,0,1.7.4,2.2,1.1.5.7.7,1.8.7,3.3s-.2,2.5-.7,3.3c-.5.7-1.2,1.1-2.2,1.1s-1.7-.4-2.2-1.1c-.5-.7-.7-1.8-.7-3.3s.2-2.5.7-3.3c.5-.7,1.2-1.1,2.2-1.1Z"/>
          <path id="DejaVuSans-2e-3" data-name="DejaVuSans-2e" class="cls-6" d="M210.1,325h1.2v1.4h-1.2v-1.4Z"/>
          <path id="DejaVuSans-34" class="cls-6" d="M216.9,319l-2.9,4.5h2.9v-4.5ZM216.6,318h1.4v5.5h1.2v.9h-1.2v2h-1.1v-2h-3.8v-1.1l3.5-5.3Z"/>
        </g>
      </g>
    </g>
    <g id="xtick_4" data-name="xtick 4">
      <g id="line2d_4" data-name="line2d 4">
        <path id="ma915f0eb62-4" data-name="ma915f0eb62" class="cls-9" d="M285.8,309.6v4"/>
      </g>
      <g id="text_4" data-name="text 4">
        <g>
          <path id="DejaVuSans-30-5" data-name="DejaVuSans-30" class="cls-6" d="M280.2,318.8c-.6,0-1,.3-1.3.9-.3.6-.4,1.4-.4,2.6s.1,2,.4,2.6c.3.6.7.9,1.3.9s1-.3,1.3-.9c.3-.6.4-1.4.4-2.6s-.1-2-.4-2.6c-.3-.6-.7-.9-1.3-.9ZM280.2,317.9c.9,0,1.7.4,2.2,1.1.5.7.7,1.8.7,3.3s-.2,2.5-.7,3.3c-.5.7-1.2,1.1-2.2,1.1s-1.7-.4-2.2-1.1c-.5-.7-.7-1.8-.7-3.3s.2-2.5.7-3.3c.5-.7,1.2-1.1,2.2-1.1Z"/>
          <path id="DejaVuSans-2e-4" data-name="DejaVuSans-2e" class="cls-6" d="M285.2,325h1.2v1.4h-1.2v-1.4Z"/>
          <path id="DejaVuSans-36" class="cls-6" d="M291.4,321.8c-.5,0-.9.2-1.2.5-.3.3-.4.8-.4,1.4s.1,1.1.4,1.4c.3.4.7.5,1.2.5s.9-.2,1.2-.5c.3-.4.4-.8.4-1.4s-.1-1.1-.4-1.4c-.3-.4-.7-.5-1.2-.5ZM293.7,318.2v1c-.3-.1-.6-.2-.9-.3-.3,0-.6-.1-.9-.1-.8,0-1.3.3-1.7.8-.4.5-.6,1.3-.7,2.3.2-.3.5-.6.8-.8.3-.2.7-.3,1.1-.3.8,0,1.5.3,2,.8.5.5.7,1.2.7,2.1s-.3,1.6-.8,2.1c-.5.5-1.2.8-2,.8s-1.7-.4-2.2-1.1c-.5-.7-.8-1.8-.8-3.3s.3-2.4.9-3.2c.6-.8,1.5-1.2,2.5-1.2s.6,0,.9,0,.6.1.9.3Z"/>
        </g>
      </g>
    </g>
    <g id="xtick_5" data-name="xtick 5">
      <g id="line2d_5" data-name="line2d 5">
        <path id="ma915f0eb62-5" data-name="ma915f0eb62" class="cls-9" d="M360.8,309.6v4"/>
      </g>
      <g id="text_5" data-name="text 5">
        <g>
          <path id="DejaVuSans-30-6" data-name="DejaVuSans-30" class="cls-6" d="M355.3,318.8c-.6,0-1,.3-1.3.9-.3.6-.4,1.4-.4,2.6s.1,2,.4,2.6c.3.6.7.9,1.3.9s1-.3,1.3-.9c.3-.6.4-1.4.4-2.6s-.1-2-.4-2.6c-.3-.6-.7-.9-1.3-.9ZM355.3,317.9c.9,0,1.7.4,2.2,1.1.5.7.7,1.8.7,3.3s-.2,2.5-.7,3.3c-.5.7-1.2,1.1-2.2,1.1s-1.7-.4-2.2-1.1c-.5-.7-.7-1.8-.7-3.3s.2-2.5.7-3.3c.5-.7,1.2-1.1,2.2-1.1Z"/>
          <path id="DejaVuSans-2e-5" data-name="DejaVuSans-2e" class="cls-6" d="M360.2,325h1.2v1.4h-1.2v-1.4Z"/>
          <path id="DejaVuSans-38" class="cls-6" d="M366.4,322.5c-.5,0-1,.1-1.3.4-.3.3-.5.7-.5,1.2s.2.9.5,1.2c.3.3.7.4,1.3.4s1-.1,1.3-.4c.3-.3.5-.7.5-1.2s-.2-.9-.5-1.2c-.3-.3-.7-.4-1.3-.4ZM365.2,322c-.5-.1-.9-.3-1.1-.7-.3-.3-.4-.7-.4-1.2s.2-1.2.7-1.6c.5-.4,1.1-.6,2-.6s1.5.2,2,.6.7.9.7,1.6-.1.9-.4,1.2c-.3.3-.7.6-1.1.7.5.1,1,.4,1.3.8.3.4.5.8.5,1.4,0,.8-.2,1.4-.7,1.9-.5.4-1.2.7-2.1.7s-1.6-.2-2.1-.7c-.5-.4-.7-1.1-.7-1.9s.2-1,.5-1.4c.3-.4.7-.6,1.3-.8ZM364.8,320.2c0,.4.1.8.4,1,.3.2.7.4,1.1.4s.9-.1,1.1-.4c.3-.2.4-.6.4-1s-.1-.8-.4-1c-.3-.2-.7-.4-1.1-.4s-.9.1-1.1.4c-.3.2-.4.6-.4,1Z"/>
        </g>
      </g>
    </g>
    <g id="xtick_6" data-name="xtick 6">
      <g id="line2d_6" data-name="line2d 6">
        <path id="ma915f0eb62-6" data-name="ma915f0eb62" class="cls-9" d="M435.9,309.6v4"/>
      </g>
      <g id="text_6" data-name="text 6">
        <g>
          <path id="DejaVuSans-31" class="cls-6" d="M428.2,325.5h1.9v-6.4l-2,.4v-1l2-.4h1.1v7.5h1.9v1h-4.9v-1Z"/>
          <path id="DejaVuSans-2e-6" data-name="DejaVuSans-2e" class="cls-6" d="M435.3,325h1.2v1.4h-1.2v-1.4Z"/>
          <path id="DejaVuSans-30-7" data-name="DejaVuSans-30" class="cls-6" d="M441.5,318.8c-.6,0-1,.3-1.3.9-.3.6-.4,1.4-.4,2.6s.1,2,.4,2.6c.3.6.7.9,1.3.9s1-.3,1.3-.9c.3-.6.4-1.4.4-2.6s-.1-2-.4-2.6c-.3-.6-.7-.9-1.3-.9ZM441.5,317.9c.9,0,1.7.4,2.2,1.1.5.7.7,1.8.7,3.3s-.2,2.5-.7,3.3c-.5.7-1.2,1.1-2.2,1.1s-1.7-.4-2.2-1.1c-.5-.7-.7-1.8-.7-3.3s.2-2.5.7-3.3c.5-.7,1.2-1.1,2.2-1.1Z"/>
        </g>
      </g>
    </g>
    <g id="text_7" data-name="text 7">
      <g>
        <path id="DejaVuSans-31-2" data-name="DejaVuSans-31" class="cls-6" d="M434.3,340.2h1.9v-6.4l-2,.4v-1l2-.4h1.1v7.5h1.9v1h-4.9v-1Z"/>
        <path id="DejaVuSans-65" class="cls-6" d="M446.7,337.7v.5h-4.8c0,.7.3,1.3.6,1.6.4.4.9.6,1.6.6s.8,0,1.2-.1.7-.2,1.1-.4v1c-.4.2-.8.3-1.1.4s-.8.1-1.2.1c-1,0-1.8-.3-2.4-.9-.6-.6-.9-1.4-.9-2.4s.3-1.9.8-2.5c.6-.6,1.3-.9,2.3-.9s1.5.3,2,.8c.5.5.7,1.3.7,2.2ZM445.7,337.4c0-.6-.2-1-.5-1.4-.3-.3-.7-.5-1.2-.5s-1,.2-1.4.5-.5.8-.6,1.4h3.7Z"/>
        <path id="DejaVuSans-36-2" data-name="DejaVuSans-36" class="cls-6" d="M451.2,336.5c-.5,0-.9.2-1.2.5-.3.3-.4.8-.4,1.4s.1,1.1.4,1.4c.3.4.7.5,1.2.5s.9-.2,1.2-.5c.3-.4.4-.8.4-1.4s-.1-1.1-.4-1.4c-.3-.4-.7-.5-1.2-.5ZM453.4,332.9v1c-.3-.1-.6-.2-.9-.3-.3,0-.6-.1-.9-.1-.8,0-1.3.3-1.7.8-.4.5-.6,1.3-.7,2.3.2-.3.5-.6.8-.8.3-.2.7-.3,1.1-.3.8,0,1.5.3,2,.8.5.5.7,1.2.7,2.1s-.3,1.6-.8,2.1c-.5.5-1.2.8-2,.8s-1.7-.4-2.2-1.1c-.5-.7-.8-1.8-.8-3.3s.3-2.4.9-3.2c.6-.8,1.5-1.2,2.5-1.2s.6,0,.9,0,.6.1.9.3Z"/>
      </g>
    </g>
  </g>
  <g id="matplotlib.axis_2" data-name="matplotlib.axis 2">
    <g id="ytick_1" data-name="ytick 1">
      <g id="line2d_7" data-name="line2d 7">
        <path id="me300d6c7d1" class="cls-9" d="M41.7,309.6h-4"/>
      </g>
      <g id="text_8" data-name="text 8">
        <path id="DejaVuSans-30-8" data-name="DejaVuSans-30" class="cls-6" d="M30,306.3c-.6,0-1,.3-1.3.9-.3.6-.4,1.4-.4,2.6s.1,2,.4,2.6c.3.6.7.9,1.3.9s1-.3,1.3-.9c.3-.6.4-1.4.4-2.6s-.1-2-.4-2.6c-.3-.6-.7-.9-1.3-.9ZM30,305.4c.9,0,1.7.4,2.2,1.1.5.7.7,1.8.7,3.3s-.2,2.5-.7,3.3c-.5.7-1.2,1.1-2.2,1.1s-1.7-.4-2.2-1.1c-.5-.7-.7-1.8-.7-3.3s.2-2.5.7-3.3c.5-.7,1.2-1.1,2.2-1.1Z"/>
      </g>
    </g>
    <g id="ytick_2" data-name="ytick 2">
      <g id="line2d_8" data-name="line2d 8">
        <path id="me300d6c7d1-2" data-name="me300d6c7d1" class="cls-9" d="M41.7,244.8h-4"/>
      </g>
      <g id="text_9" data-name="text 9">
        <g>
          <path id="DejaVuSans-35" class="cls-6" d="M12.8,240.8h4.5v1h-3.4v2.1c.2,0,.3,0,.5-.1.2,0,.3,0,.5,0,.9,0,1.7.3,2.2.8.6.5.8,1.2.8,2.1s-.3,1.6-.8,2.1c-.6.5-1.4.8-2.4.8s-.7,0-1.1,0c-.4,0-.7-.2-1.1-.3v-1.1c.3.2.7.3,1,.4s.7.1,1.1.1c.7,0,1.2-.2,1.5-.5.4-.3.6-.8.6-1.4s-.2-1.1-.6-1.4c-.4-.3-.9-.5-1.5-.5s-.6,0-.9.1c-.3,0-.6.2-.9.3v-4.2Z"/>
          <path id="DejaVuSans-30-9" data-name="DejaVuSans-30" class="cls-6" d="M22.6,241.5c-.6,0-1,.3-1.3.9-.3.6-.4,1.4-.4,2.6s.1,2,.4,2.6c.3.6.7.9,1.3.9s1-.3,1.3-.9c.3-.6.4-1.4.4-2.6s-.1-2-.4-2.6c-.3-.6-.7-.9-1.3-.9ZM22.6,240.6c.9,0,1.7.4,2.2,1.1.5.7.7,1.8.7,3.3s-.2,2.5-.7,3.3c-.5.7-1.2,1.1-2.2,1.1s-1.7-.4-2.2-1.1c-.5-.7-.7-1.8-.7-3.3s.2-2.5.7-3.3c.5-.7,1.2-1.1,2.2-1.1Z"/>
          <path id="DejaVuSans-30-10" data-name="DejaVuSans-30" class="cls-6" d="M30,241.5c-.6,0-1,.3-1.3.9-.3.6-.4,1.4-.4,2.6s.1,2,.4,2.6c.3.6.7.9,1.3.9s1-.3,1.3-.9c.3-.6.4-1.4.4-2.6s-.1-2-.4-2.6c-.3-.6-.7-.9-1.3-.9ZM30,240.6c.9,0,1.7.4,2.2,1.1.5.7.7,1.8.7,3.3s-.2,2.5-.7,3.3c-.5.7-1.2,1.1-2.2,1.1s-1.7-.4-2.2-1.1c-.5-.7-.7-1.8-.7-3.3s.2-2.5.7-3.3c.5-.7,1.2-1.1,2.2-1.1Z"/>
        </g>
      </g>
    </g>
    <g id="ytick_3" data-name="ytick 3">
      <g id="line2d_9" data-name="line2d 9">
        <path id="me300d6c7d1-3" data-name="me300d6c7d1" class="cls-9" d="M41.7,180h-4"/>
      </g>
      <g id="text_10" data-name="text 10">
        <g>
          <path id="DejaVuSans-31-3" data-name="DejaVuSans-31" class="cls-6" d="M5.6,183.4h1.9v-6.4l-2,.4v-1l2-.4h1.1v7.5h1.9v1h-4.9v-1Z"/>
          <path id="DejaVuSans-30-11" data-name="DejaVuSans-30" class="cls-6" d="M15.2,176.7c-.6,0-1,.3-1.3.9-.3.6-.4,1.4-.4,2.6s.1,2,.4,2.6c.3.6.7.9,1.3.9s1-.3,1.3-.9c.3-.6.4-1.4.4-2.6s-.1-2-.4-2.6c-.3-.6-.7-.9-1.3-.9ZM15.2,175.8c.9,0,1.7.4,2.2,1.1.5.7.7,1.8.7,3.3s-.2,2.5-.7,3.3c-.5.7-1.2,1.1-2.2,1.1s-1.7-.4-2.2-1.1c-.5-.7-.7-1.8-.7-3.3s.2-2.5.7-3.3c.5-.7,1.2-1.1,2.2-1.1Z"/>
          <path id="DejaVuSans-30-12" data-name="DejaVuSans-30" class="cls-6" d="M22.6,176.7c-.6,0-1,.3-1.3.9-.3.6-.4,1.4-.4,2.6s.1,2,.4,2.6c.3.6.7.9,1.3.9s1-.3,1.3-.9c.3-.6.4-1.4.4-2.6s-.1-2-.4-2.6c-.3-.6-.7-.9-1.3-.9ZM22.6,175.8c.9,0,1.7.4,2.2,1.1.5.7.7,1.8.7,3.3s-.2,2.5-.7,3.3c-.5.7-1.2,1.1-2.2,1.1s-1.7-.4-2.2-1.1c-.5-.7-.7-1.8-.7-3.3s.2-2.5.7-3.3c.5-.7,1.2-1.1,2.2-1.1Z"/>
          <path id="DejaVuSans-30-13" data-name="DejaVuSans-30" class="cls-6" d="M30,176.7c-.6,0-1,.3-1.3.9-.3.6-.4,1.4-.4,2.6s.1,2,.4,2.6c.3.6.7.9,1.3.9s1-.3,1.3-.9c.3-.6.4-1.4.4-2.6s-.1-2-.4-2.6c-.3-.6-.7-.9-1.3-.9ZM30,175.8c.9,0,1.7.4,2.2,1.1.5.7.7,1.8.7,3.3s-.2,2.5-.7,3.3c-.5.7-1.2,1.1-2.2,1.1s-1.7-.4-2.2-1.1c-.5-.7-.7-1.8-.7-3.3s.2-2.5.7-3.3c.5-.7,1.2-1.1,2.2-1.1Z"/>
        </g>
      </g>
    </g>
    <g id="ytick_4" data-name="ytick 4">
      <g id="line2d_10" data-name="line2d 10">
        <path id="me300d6c7d1-4" data-name="me300d6c7d1" class="cls-9" d="M41.7,115.2h-4"/>
      </g>
      <g id="text_11" data-name="text 11">
        <g>
          <path id="DejaVuSans-31-4" data-name="DejaVuSans-31" class="cls-6" d="M5.6,118.7h1.9v-6.4l-2,.4v-1l2-.4h1.1v7.5h1.9v1h-4.9v-1Z"/>
          <path id="DejaVuSans-35-2" data-name="DejaVuSans-35" class="cls-6" d="M12.8,111.2h4.5v1h-3.4v2.1c.2,0,.3,0,.5-.1.2,0,.3,0,.5,0,.9,0,1.7.3,2.2.8.6.5.8,1.2.8,2.1s-.3,1.6-.8,2.1c-.6.5-1.4.8-2.4.8s-.7,0-1.1,0c-.4,0-.7-.2-1.1-.3v-1.1c.3.2.7.3,1,.4s.7.1,1.1.1c.7,0,1.2-.2,1.5-.5.4-.3.6-.8.6-1.4s-.2-1.1-.6-1.4c-.4-.3-.9-.5-1.5-.5s-.6,0-.9.1c-.3,0-.6.2-.9.3v-4.2Z"/>
          <path id="DejaVuSans-30-14" data-name="DejaVuSans-30" class="cls-6" d="M22.6,111.9c-.6,0-1,.3-1.3.9-.3.6-.4,1.4-.4,2.6s.1,2,.4,2.6c.3.6.7.9,1.3.9s1-.3,1.3-.9c.3-.6.4-1.4.4-2.6s-.1-2-.4-2.6c-.3-.6-.7-.9-1.3-.9ZM22.6,111c.9,0,1.7.4,2.2,1.1.5.7.7,1.8.7,3.3s-.2,2.5-.7,3.3c-.5.7-1.2,1.1-2.2,1.1s-1.7-.4-2.2-1.1c-.5-.7-.7-1.8-.7-3.3s.2-2.5.7-3.3c.5-.7,1.2-1.1,2.2-1.1Z"/>
          <path id="DejaVuSans-30-15" data-name="DejaVuSans-30" class="cls-6" d="M30,111.9c-.6,0-1,.3-1.3.9-.3.6-.4,1.4-.4,2.6s.1,2,.4,2.6c.3.6.7.9,1.3.9s1-.3,1.3-.9c.3-.6.4-1.4.4-2.6s-.1-2-.4-2.6c-.3-.6-.7-.9-1.3-.9ZM30,111c.9,0,1.7.4,2.2,1.1.5.7.7,1.8.7,3.3s-.2,2.5-.7,3.3c-.5.7-1.2,1.1-2.2,1.1s-1.7-.4-2.2-1.1c-.5-.7-.7-1.8-.7-3.3s.2-2.5.7-3.3c.5-.7,1.2-1.1,2.2-1.1Z"/>
        </g>
      </g>
    </g>
    <g id="ytick_5" data-name="ytick 5">
      <g id="line2d_11" data-name="line2d 11">
        <path id="me300d6c7d1-5" data-name="me300d6c7d1" class="cls-9" d="M41.7,50.4h-4"/>
      </g>
      <g id="text_12" data-name="text 12">
        <g>
          <path id="DejaVuSans-32-2" data-name="DejaVuSans-32" class="cls-6" d="M6.4,53.9h4v1h-5.4v-1c.4-.4,1-1,1.8-1.8.7-.8,1.2-1.2,1.4-1.5.4-.4.6-.8.8-1,.1-.3.2-.6.2-.8,0-.4-.2-.8-.5-1.1-.3-.3-.7-.4-1.2-.4s-.7,0-1.1.2c-.4.1-.8.3-1.3.6v-1.2c.5-.2.9-.3,1.3-.4.4,0,.8-.1,1.1-.1.9,0,1.6.2,2.1.7.5.4.8,1,.8,1.7s0,.7-.2,1c-.1.3-.4.7-.7,1.1,0,.1-.4.4-.9.9-.5.5-1.2,1.3-2.1,2.2Z"/>
          <path id="DejaVuSans-30-16" data-name="DejaVuSans-30" class="cls-6" d="M15.2,47.2c-.6,0-1,.3-1.3.9-.3.6-.4,1.4-.4,2.6s.1,2,.4,2.6c.3.6.7.9,1.3.9s1-.3,1.3-.9c.3-.6.4-1.4.4-2.6s-.1-2-.4-2.6c-.3-.6-.7-.9-1.3-.9ZM15.2,46.3c.9,0,1.7.4,2.2,1.1.5.7.7,1.8.7,3.3s-.2,2.5-.7,3.3c-.5.7-1.2,1.1-2.2,1.1s-1.7-.4-2.2-1.1c-.5-.7-.7-1.8-.7-3.3s.2-2.5.7-3.3c.5-.7,1.2-1.1,2.2-1.1Z"/>
          <path id="DejaVuSans-30-17" data-name="DejaVuSans-30" class="cls-6" d="M22.6,47.2c-.6,0-1,.3-1.3.9-.3.6-.4,1.4-.4,2.6s.1,2,.4,2.6c.3.6.7.9,1.3.9s1-.3,1.3-.9c.3-.6.4-1.4.4-2.6s-.1-2-.4-2.6c-.3-.6-.7-.9-1.3-.9ZM22.6,46.3c.9,0,1.7.4,2.2,1.1.5.7.7,1.8.7,3.3s-.2,2.5-.7,3.3c-.5.7-1.2,1.1-2.2,1.1s-1.7-.4-2.2-1.1c-.5-.7-.7-1.8-.7-3.3s.2-2.5.7-3.3c.5-.7,1.2-1.1,2.2-1.1Z"/>
          <path id="DejaVuSans-30-18" data-name="DejaVuSans-30" class="cls-6" d="M30,47.2c-.6,0-1,.3-1.3.9-.3.6-.4,1.4-.4,2.6s.1,2,.4,2.6c.3.6.7.9,1.3.9s1-.3,1.3-.9c.3-.6.4-1.4.4-2.6s-.1-2-.4-2.6c-.3-.6-.7-.9-1.3-.9ZM30,46.3c.9,0,1.7.4,2.2,1.1.5.7.7,1.8.7,3.3s-.2,2.5-.7,3.3c-.5.7-1.2,1.1-2.2,1.1s-1.7-.4-2.2-1.1c-.5-.7-.7-1.8-.7-3.3s.2-2.5.7-3.3c.5-.7,1.2-1.1,2.2-1.1Z"/>
        </g>
      </g>
    </g>
  </g>
  <g id="patch_53" data-name="patch 53">
    <path class="cls-22" d="M41.7,309.6V1.8"/>
  </g>
  <g id="patch_54" data-name="patch 54">
    <path class="cls-22" d="M454.7,309.6V1.8"/>
  </g>
  <g id="patch_55" data-name="patch 55">
    <path class="cls-22" d="M41.7,309.6h413"/>
  </g>
  <g id="patch_56" data-name="patch 56">
    <path class="cls-22" d="M41.7,1.8h413"/>
  </g>
</svg>