<svg version="1.1" xmlns="http://www.w3.org/2000/svg" viewBox="0 0 465.9673412610281 406.2618536753497" width="465.9673412610281" height="406.2618536753497" class="excalidraw-svg">
  <!-- svg-source:excalidraw -->
  
  <defs>
    <style class="style-fonts">
      
    </style>
    
  </defs>
  <g transform="translate(398.59092736560746 109.85406260906666) rotate(1.4511830940465922 13.20001220703125 3.1999969482421875)" stroke="none"><path fill="#e03131" d="M -4.03,-3.02 Q -4.03,-3.02 -1.27,-6.70 1.48,-10.38 4.33,-13.87 7.18,-17.37 9.75,-19.77 12.33,-22.18 14.97,-24.03 17.62,-25.89 20.23,-27.45 22.84,-29.01 26.54,-27.48 30.24,-25.95 30.85,-23.47 31.46,-21.00 31.32,-17.67 31.18,-14.34 30.64,-10.57 30.10,-6.80 29.66,-3.08 29.23,0.62 29.07,4.35 28.91,8.08 28.85,10.84 28.79,13.60 28.77,16.66 28.74,19.73 29.07,22.18 29.41,24.64 29.43,25.09 29.46,25.55 29.40,26.20 29.34,26.86 29.13,27.48 28.91,28.11 28.56,28.66 28.20,29.22 27.72,29.67 27.24,30.13 26.67,30.45 26.09,30.78 25.46,30.96 24.82,31.13 24.16,31.16 23.50,31.18 22.86,31.04 22.21,30.90 21.62,30.62 21.02,30.33 20.51,29.91 20.01,29.49 19.61,28.96 19.22,28.43 18.97,27.82 18.71,27.21 18.61,26.55 18.51,25.90 23.99,25.69 29.47,25.47 29.41,26.13 29.35,26.79 29.14,27.41 28.92,28.04 28.57,28.59 28.21,29.15 27.73,29.60 27.25,30.06 26.67,30.38 26.10,30.71 25.46,30.89 24.83,31.07 24.17,31.09 23.51,31.11 22.86,30.97 22.21,30.84 21.62,30.55 21.03,30.26 20.52,29.84 20.01,29.42 19.62,28.88 19.22,28.35 18.97,27.74 18.71,27.13 18.61,26.48 18.51,25.83 23.89,25.65 29.27,25.46 28.40,27.73 27.52,30.00 27.53,30.32 27.54,30.64 27.48,30.95 27.42,31.26 27.28,31.54 27.15,31.83 26.95,32.07 26.75,32.32 26.50,32.51 26.24,32.70 25.95,32.83 25.66,32.95 25.35,33.00 25.04,33.05 24.72,33.03 24.41,33.00 24.10,32.90 23.80,32.80 23.54,32.63 23.27,32.47 23.05,32.24 22.83,32.01 22.67,31.74 22.51,31.46 22.42,31.16 22.33,30.85 22.92,31.74 23.50,32.63 23.18,32.35 22.87,32.06 22.66,31.69 22.45,31.32 22.38,30.90 22.30,30.48 22.36,30.06 22.42,29.64 22.61,29.26 22.80,28.88 23.11,28.58 23.41,28.28 23.79,28.10 24.17,27.91 24.59,27.86 25.02,27.80 25.43,27.89 25.85,27.97 26.22,28.18 26.59,28.39 26.87,28.71 27.15,29.03 27.31,29.42 27.48,29.81 27.51,30.24 27.54,30.66 27.44,31.07 27.33,31.48 27.10,31.84 26.87,32.20 26.54,32.46 26.20,32.72 25.80,32.87 25.40,33.01 24.98,33.02 24.55,33.03 24.15,32.90 23.74,32.77 23.40,32.52 23.06,32.27 22.81,31.93 22.56,31.58 22.44,31.17 22.32,30.76 22.34,30.34 22.35,29.91 22.50,29.52 22.65,29.12 22.92,28.79 23.19,28.46 23.55,28.23 23.91,28.01 24.32,27.91 24.73,27.81 25.16,27.85 25.58,27.88 26.55,28.94 27.52,30.00 27.53,30.32 27.54,30.64 27.48,30.95 27.42,31.26 27.28,31.54 27.15,31.83 26.95,32.07 26.75,32.32 26.50,32.51 26.24,32.70 25.95,32.83 25.66,32.95 25.35,33.00 25.04,33.05 24.72,33.03 24.41,33.00 24.11,32.90 23.80,32.80 23.54,32.63 23.27,32.47 23.05,32.24 22.83,32.01 22.67,31.74 22.51,31.46 22.42,31.16 22.33,30.85 20.52,28.77 18.71,26.69 24.09,26.08 29.47,25.47 29.41,26.13 29.35,26.79 29.14,27.41 28.92,28.04 28.57,28.59 28.21,29.15 27.73,29.60 27.25,30.06 26.67,30.38 26.10,30.71 25.46,30.89 24.83,31.07 24.17,31.09 23.51,31.11 22.86,30.97 22.22,30.84 21.62,30.55 21.03,30.26 20.52,29.84 20.01,29.42 19.62,28.89 19.22,28.35 18.97,27.74 18.71,27.13 18.61,26.48 18.51,25.83 23.98,25.69 29.46,25.55 29.40,26.20 29.34,26.86 29.13,27.48 28.91,28.11 28.56,28.66 28.20,29.22 27.72,29.67 27.24,30.13 26.67,30.45 26.09,30.78 25.46,30.96 24.82,31.13 24.16,31.16 23.50,31.18 22.86,31.04 22.21,30.90 21.62,30.62 21.02,30.33 20.52,29.91 20.01,29.49 19.61,28.96 19.22,28.43 18.97,27.82 18.71,27.21 18.61,26.56 18.51,25.90 18.50,24.99 18.48,24.08 18.09,21.91 17.70,19.74 17.77,16.51 17.84,13.28 17.95,10.41 18.06,7.54 18.28,3.44 18.51,-0.65 18.98,-4.53 19.46,-8.40 21.41,-12.89 23.36,-17.38 21.26,-16.03 19.16,-14.69 17.08,-12.83 14.99,-10.96 12.27,-7.64 9.55,-4.33 6.79,-0.65 4.03,3.02 3.61,3.46 3.19,3.90 2.68,4.23 2.16,4.55 1.59,4.74 1.01,4.94 0.40,4.99 -0.19,5.04 -0.79,4.94 -1.39,4.84 -1.95,4.60 -2.51,4.37 -3.00,4.00 -3.49,3.64 -3.87,3.17 -4.26,2.69 -4.52,2.15 -4.78,1.60 -4.90,1.00 -5.02,0.41 -5.00,-0.19 -4.97,-0.80 -4.81,-1.38 -4.64,-1.97 -4.33,-2.50 -4.03,-3.02 -4.03,-3.02 L -4.03,-3.02 Z"></path></g><g transform="translate(426.0934556620351 181.07813789496652) rotate(1.4511830940465922 -14.40008544921875 14.800018310546875)" stroke="none"><path fill="#2f9e44" d="M -2.94,-0.42 Q -2.94,-0.42 -3.26,-2.09 -3.58,-3.76 -5.57,-5.45 -7.56,-7.13 -10.98,-7.33 -14.40,-7.53 -16.72,-5.98 -19.03,-4.44 -21.16,-0.22 -23.29,3.99 -24.11,7.63 -24.94,11.27 -25.30,14.72 -25.65,18.16 -25.37,21.13 -25.09,24.10 -24.14,27.38 -23.20,30.66 -21.97,32.50 -20.74,34.34 -16.92,35.31 -13.10,36.28 -10.06,34.71 -7.03,33.15 -6.14,30.32 -5.25,27.49 -4.52,23.63 -3.79,19.77 -3.43,15.26 -3.06,10.76 -3.52,6.39 -3.97,2.03 -4.41,-0.95 -4.85,-3.93 -4.98,-6.10 -5.10,-8.27 -5.22,-8.68 -5.33,-9.09 -5.31,-9.52 -5.29,-9.94 -5.14,-10.34 -4.99,-10.73 -4.71,-11.06 -4.44,-11.39 -4.08,-11.61 -3.72,-11.83 -3.30,-11.92 -2.89,-12.02 -2.46,-11.98 -2.04,-11.93 -1.65,-11.76 -1.27,-11.58 -0.96,-11.29 -0.65,-11.00 -0.44,-10.63 -0.24,-10.26 -0.17,-9.84 -0.10,-9.42 -0.16,-9.00 -0.23,-8.58 -0.42,-8.20 -0.62,-7.83 -0.93,-7.53 -1.23,-7.24 -1.62,-7.05 -2.00,-6.87 -2.42,-6.82 -2.84,-6.77 -3.26,-6.86 -3.68,-6.95 -4.04,-7.17 -4.41,-7.38 -4.69,-7.70 -4.96,-8.02 -5.12,-8.42 -5.28,-8.81 -5.31,-9.24 -5.34,-9.66 -5.23,-10.07 -5.12,-10.48 -4.88,-10.83 -4.64,-11.19 -4.31,-11.45 -3.97,-11.71 -3.57,-11.85 -3.17,-11.99 -2.74,-11.99 -2.32,-11.99 -1.92,-11.86 -1.51,-11.73 -1.17,-11.47 -0.83,-11.22 -0.59,-10.87 -0.35,-10.52 -0.35,-10.52 -0.35,-10.52 1.66,-8.17 3.67,-5.81 4.60,-2.41 5.53,0.98 6.13,6.24 6.73,11.50 6.32,16.65 5.92,21.79 4.85,26.57 3.78,31.35 1.50,35.85 -0.76,40.36 -3.88,42.46 -7.00,44.56 -10.58,45.11 -14.17,45.67 -18.39,44.93 -22.62,44.18 -25.68,41.99 -28.75,39.80 -30.70,36.60 -32.66,33.40 -33.78,29.15 -34.91,24.91 -35.18,20.99 -35.45,17.07 -34.94,12.96 -34.42,8.86 -33.20,4.48 -31.97,0.10 -30.34,-3.22 -28.71,-6.55 -26.81,-8.99 -24.90,-11.43 -22.18,-13.43 -19.46,-15.43 -17.06,-16.01 -14.66,-16.60 -12.09,-16.60 -9.52,-16.61 -5.30,-15.31 -1.08,-14.01 1.31,-11.35 3.71,-8.69 4.10,-5.68 4.50,-2.67 3.72,-1.12 2.94,0.42 2.85,0.76 2.75,1.11 2.58,1.42 2.41,1.74 2.16,2.00 1.92,2.26 1.62,2.46 1.32,2.66 0.98,2.78 0.65,2.90 0.29,2.93 -0.06,2.97 -0.41,2.92 -0.77,2.87 -1.10,2.73 -1.43,2.60 -1.72,2.39 -2.01,2.18 -2.25,1.91 -2.48,1.63 -2.64,1.31 -2.80,0.99 -2.88,0.64 -2.95,0.29 -2.95,-0.06 -2.94,-0.42 -2.94,-0.42 L -2.94,-0.42 Z"></path></g><g transform="translate(338.71775831369916 88.6394468295046) rotate(1.4511830940465922 -6.39996337890625 18.4000244140625)" stroke="none"><path fill="#e03131" d="M -1.01,3.05 Q -1.01,3.05 -3.26,2.88 -5.50,2.70 -7.94,2.34 -10.39,1.98 -12.19,6.18 -13.99,10.38 -14.63,13.51 -15.26,16.65 -15.53,20.57 -15.80,24.48 -15.46,27.98 -15.11,31.48 -14.40,33.77 -13.68,36.06 -11.72,37.24 -9.75,38.42 -7.39,37.82 -5.03,37.22 -2.30,33.98 0.43,30.73 1.30,28.49 2.16,26.25 2.38,22.05 2.59,17.85 2.44,13.30 2.30,8.74 1.53,5.56 0.77,2.38 -1.34,0.36 -3.46,-1.64 -5.02,-1.64 -6.58,-1.64 -7.01,-1.61 -7.43,-1.57 -7.84,-1.67 -8.25,-1.77 -8.61,-2.00 -8.97,-2.23 -9.24,-2.56 -9.51,-2.89 -9.66,-3.29 -9.80,-3.68 -9.82,-4.11 -9.83,-4.53 -9.71,-4.94 -9.59,-5.35 -9.34,-5.69 -9.09,-6.04 -8.75,-6.29 -8.40,-6.54 -8.00,-6.66 -7.59,-6.79 -7.17,-6.78 -6.74,-6.77 -6.34,-6.63 -5.94,-6.48 -5.61,-6.22 -5.28,-5.95 -5.05,-5.59 -4.82,-5.24 -4.71,-4.83 -4.61,-4.41 -4.64,-3.99 -4.68,-3.57 -4.84,-3.18 -5.01,-2.78 -5.29,-2.47 -5.57,-2.15 -5.94,-1.94 -6.31,-1.73 -6.73,-1.65 -7.15,-1.56 -7.57,-1.62 -7.99,-1.68 -8.37,-1.86 -8.75,-2.05 -9.05,-2.35 -9.35,-2.65 -9.54,-3.03 -9.74,-3.41 -9.79,-3.83 -9.85,-4.25 -9.78,-4.67 -9.70,-5.09 -9.49,-5.46 -9.28,-5.83 -8.97,-6.11 -8.65,-6.40 -8.26,-6.57 -7.87,-6.74 -7.87,-6.74 -7.87,-6.74 -5.95,-7.62 -4.03,-8.50 -0.53,-9.05 2.95,-9.60 5.88,-7.42 8.81,-5.24 9.86,-2.41 10.90,0.41 11.54,4.53 12.18,8.65 12.09,13.71 12.01,18.77 11.28,24.19 10.55,29.61 9.20,32.69 7.85,35.77 5.06,39.39 2.26,43.02 -0.64,44.47 -3.54,45.92 -8.07,46.37 -12.59,46.82 -15.72,45.27 -18.85,43.71 -20.60,41.29 -22.36,38.87 -23.30,35.58 -24.24,32.28 -24.54,28.05 -24.85,23.82 -24.48,19.28 -24.11,14.74 -23.25,10.99 -22.39,7.23 -20.86,3.48 -19.32,-0.26 -17.39,-2.53 -15.47,-4.80 -13.19,-5.80 -10.90,-6.80 -6.84,-6.13 -2.77,-5.46 -0.87,-4.26 1.01,-3.05 1.36,-2.88 1.72,-2.72 2.02,-2.47 2.32,-2.23 2.55,-1.92 2.78,-1.61 2.94,-1.25 3.09,-0.89 3.15,-0.51 3.21,-0.13 3.18,0.25 3.15,0.64 3.03,1.01 2.91,1.37 2.70,1.70 2.49,2.03 2.21,2.30 1.93,2.57 1.60,2.76 1.26,2.96 0.89,3.07 0.51,3.17 0.12,3.19 -0.25,3.21 -0.63,3.13 -1.01,3.05 -1.01,3.05 L -1.01,3.05 Z"></path></g><g transform="translate(313.9990924444153 190.92902197401347) rotate(1.4511830940465922 12.79998779296875 7.60003662109375)" stroke="none"><path fill="#2f9e44" d="M -2.09,-2.09 Q -2.09,-2.09 -0.62,-4.76 0.84,-7.42 2.31,-9.11 3.77,-10.79 5.97,-12.89 8.17,-14.98 9.84,-16.38 11.51,-17.77 13.34,-18.95 15.17,-20.12 19.52,-20.36 23.88,-20.60 25.55,-18.93 27.23,-17.27 27.80,-14.40 28.37,-11.53 28.28,-8.00 28.19,-4.47 28.39,-1.04 28.59,2.38 28.70,6.06 28.81,9.75 29.09,13.22 29.36,16.70 29.70,19.51 30.04,22.31 30.21,24.83 30.39,27.36 29.29,29.56 28.18,31.76 28.13,32.18 28.08,32.60 27.90,32.99 27.71,33.37 27.42,33.67 27.12,33.98 26.74,34.17 26.36,34.37 25.94,34.43 25.52,34.49 25.11,34.42 24.69,34.35 24.31,34.14 23.94,33.94 23.65,33.63 23.36,33.32 23.19,32.93 23.02,32.54 22.98,32.12 22.94,31.69 23.03,31.28 23.13,30.87 23.35,30.50 23.58,30.14 23.90,29.87 24.23,29.60 24.63,29.45 25.02,29.30 25.45,29.28 25.87,29.26 26.28,29.38 26.69,29.50 27.04,29.74 27.39,29.98 27.64,30.33 27.89,30.67 28.02,31.07 28.15,31.48 28.15,31.90 28.14,32.33 28.00,32.73 27.86,33.13 27.60,33.46 27.34,33.80 26.98,34.03 26.63,34.27 26.22,34.37 25.81,34.48 25.38,34.45 24.96,34.43 24.57,34.26 24.17,34.10 23.85,33.82 23.53,33.54 23.32,33.18 23.10,32.81 23.02,32.39 22.93,31.98 22.93,31.98 22.93,31.98 21.65,29.97 20.37,27.97 20.26,25.72 20.14,23.47 19.80,20.45 19.45,17.42 19.21,13.69 18.96,9.95 18.92,6.40 18.88,2.85 18.73,-1.00 18.57,-4.85 19.36,-8.48 20.14,-12.10 17.35,-10.13 14.56,-8.15 12.67,-6.41 10.78,-4.67 9.10,-2.76 7.43,-0.85 4.76,0.62 2.09,2.09 1.81,2.31 1.53,2.53 1.20,2.68 0.88,2.83 0.53,2.89 0.17,2.96 -0.17,2.93 -0.53,2.91 -0.87,2.81 -1.21,2.70 -1.52,2.52 -1.82,2.33 -2.08,2.08 -2.33,1.82 -2.52,1.52 -2.70,1.21 -2.81,0.87 -2.91,0.53 -2.93,0.17 -2.96,-0.17 -2.89,-0.53 -2.83,-0.88 -2.68,-1.20 -2.53,-1.53 -2.31,-1.81 -2.09,-2.09 -2.09,-2.09 L -2.09,-2.09 Z"></path></g><g transform="translate(239.66502741388302 102.61496915115225) rotate(1.4511830940465922 12.79998779296875 -2.399993896484375)" stroke="none"><path fill="#e03131" d="M -1.81,-2.11 Q -1.81,-2.11 0.92,-5.43 3.66,-8.75 6.63,-11.31 9.61,-13.87 13.38,-17.69 17.16,-21.50 18.78,-23.00 20.41,-24.50 21.05,-25.32 21.69,-26.13 22.13,-26.44 22.57,-26.74 23.07,-26.93 23.57,-27.12 24.10,-27.19 24.63,-27.26 25.16,-27.19 25.70,-27.13 26.20,-26.94 26.70,-26.75 27.14,-26.45 27.59,-26.15 27.94,-25.75 28.30,-25.35 28.55,-24.87 28.80,-24.40 28.93,-23.88 29.06,-23.36 29.06,-22.82 29.06,-22.28 28.93,-21.76 28.81,-21.24 28.56,-20.77 28.31,-20.29 27.96,-19.89 27.60,-19.49 28.30,-22.00 29.00,-24.52 29.61,-21.70 30.21,-18.89 29.82,-15.57 29.42,-12.26 29.30,-8.77 29.18,-5.27 28.86,-2.59 28.55,0.08 28.73,4.04 28.91,8.00 28.98,11.29 29.05,14.58 28.48,16.17 27.91,17.75 27.96,18.17 28.01,18.59 27.93,19.01 27.84,19.42 27.63,19.79 27.42,20.16 27.10,20.44 26.78,20.72 26.39,20.88 25.99,21.05 25.57,21.08 25.15,21.11 24.73,21.00 24.32,20.89 23.97,20.66 23.61,20.43 23.35,20.09 23.09,19.76 22.94,19.36 22.80,18.96 22.80,18.53 22.79,18.11 22.92,17.70 23.05,17.30 23.30,16.96 23.55,16.61 23.90,16.37 24.25,16.12 24.65,16.00 25.06,15.88 25.49,15.90 25.91,15.92 26.31,16.07 26.70,16.22 27.03,16.49 27.36,16.76 27.59,17.12 27.81,17.48 27.91,17.89 28.01,18.31 27.97,18.73 27.93,19.15 27.76,19.54 27.58,19.93 27.30,20.24 27.01,20.56 26.64,20.76 26.27,20.97 25.85,21.04 25.43,21.12 25.01,21.05 24.59,20.99 24.21,20.80 23.83,20.61 23.53,20.30 23.24,20.00 23.05,19.62 22.87,19.23 22.87,19.23 22.87,19.23 20.92,15.73 18.98,12.23 18.94,8.19 18.90,4.15 18.82,1.53 18.74,-1.08 19.04,-3.41 19.33,-5.74 19.55,-9.70 19.78,-13.66 20.58,-16.68 21.38,-19.70 21.53,-22.92 21.69,-26.13 22.13,-26.44 22.57,-26.74 23.07,-26.93 23.57,-27.12 24.10,-27.19 24.63,-27.26 25.16,-27.19 25.70,-27.13 26.20,-26.94 26.70,-26.75 27.14,-26.45 27.58,-26.15 27.94,-25.75 28.30,-25.35 28.55,-24.87 28.80,-24.40 28.93,-23.88 29.06,-23.36 29.06,-22.82 29.06,-22.28 28.94,-21.76 28.81,-21.24 28.56,-20.77 28.31,-20.29 27.96,-19.89 27.60,-19.49 25.56,-17.50 23.51,-15.52 19.34,-11.44 15.18,-7.37 12.19,-4.83 9.21,-2.28 5.51,-0.08 1.81,2.11 1.53,2.29 1.25,2.48 0.93,2.59 0.62,2.71 0.28,2.74 -0.04,2.78 -0.37,2.73 -0.71,2.69 -1.02,2.56 -1.33,2.44 -1.60,2.24 -1.87,2.05 -2.09,1.79 -2.31,1.54 -2.46,1.24 -2.61,0.94 -2.69,0.61 -2.76,0.28 -2.76,-0.04 -2.75,-0.38 -2.67,-0.70 -2.58,-1.02 -2.42,-1.32 -2.26,-1.61 -2.03,-1.86 -1.81,-2.11 -1.81,-2.11 L -1.81,-2.11 Z"></path></g><g transform="translate(238.66080064916542 197.84282147773607) rotate(1.4511830940465922 13.60003662109375 5.199981689453125)" stroke="none"><path fill="#2f9e44" d="M -1.65,-2.55 Q -1.65,-2.55 1.73,-5.88 5.12,-9.21 7.75,-11.29 10.37,-13.37 13.68,-16.68 16.99,-19.99 21.93,-20.61 26.88,-21.24 28.61,-17.12 30.34,-13.01 30.22,-9.06 30.10,-5.11 30.05,-2.02 30.01,1.05 29.98,4.20 29.96,7.34 29.97,10.52 29.98,13.70 29.98,16.43 29.99,19.16 30.32,22.64 30.66,26.11 29.79,26.85 28.93,27.59 29.16,27.95 29.39,28.31 29.49,28.72 29.60,29.13 29.56,29.56 29.53,29.98 29.36,30.37 29.20,30.76 28.91,31.08 28.63,31.40 28.26,31.61 27.89,31.82 27.48,31.90 27.06,31.98 26.64,31.92 26.22,31.87 25.83,31.68 25.45,31.49 25.15,31.19 24.85,30.89 24.66,30.51 24.47,30.13 24.41,29.71 24.35,29.29 24.43,28.87 24.51,28.46 24.72,28.09 24.93,27.72 25.24,27.43 25.56,27.15 25.95,26.98 26.34,26.81 26.76,26.77 27.18,26.74 27.60,26.84 28.01,26.94 28.37,27.17 28.73,27.39 28.99,27.72 29.26,28.05 29.41,28.45 29.56,28.85 29.57,29.28 29.58,29.70 29.46,30.11 29.33,30.51 29.09,30.86 28.84,31.21 28.50,31.46 28.15,31.70 27.75,31.83 27.34,31.96 26.92,31.95 26.49,31.94 26.09,31.79 25.69,31.65 25.36,31.38 25.03,31.11 25.03,31.12 25.03,31.12 22.55,27.50 20.07,23.88 19.84,21.51 19.61,19.15 19.63,16.40 19.65,13.66 19.68,10.46 19.71,7.26 19.74,4.05 19.77,0.85 19.85,-2.33 19.93,-5.53 21.93,-9.24 23.92,-12.95 22.07,-11.11 20.22,-9.27 18.36,-7.45 16.50,-5.64 13.51,-3.27 10.51,-0.90 6.08,0.82 1.65,2.55 1.32,2.71 0.99,2.87 0.63,2.95 0.27,3.03 -0.09,3.02 -0.45,3.01 -0.81,2.91 -1.16,2.81 -1.48,2.63 -1.80,2.45 -2.07,2.20 -2.34,1.95 -2.53,1.64 -2.73,1.33 -2.85,0.98 -2.97,0.64 -3.01,0.27 -3.04,-0.09 -2.99,-0.45 -2.93,-0.81 -2.79,-1.15 -2.65,-1.49 -2.43,-1.79 -2.21,-2.08 -1.93,-2.32 -1.65,-2.55 -1.65,-2.55 L -1.65,-2.55 Z"></path></g><g transform="translate(165.14665903773738 103.15939138706733) rotate(1.4511830940465922 14 0.8000030517578125)" stroke="none"><path fill="#e03131" d="M -1.54,-2.57 Q -1.54,-2.57 0.51,-4.34 2.56,-6.11 5.03,-8.51 7.49,-10.91 9.16,-13.05 10.82,-15.19 13.53,-18.61 16.25,-22.04 17.89,-23.97 19.53,-25.91 20.06,-26.29 20.60,-26.68 21.03,-27.03 21.46,-27.38 21.97,-27.62 22.48,-27.86 23.02,-27.97 23.57,-28.08 24.13,-28.06 24.69,-28.04 25.23,-27.88 25.76,-27.73 26.25,-27.45 26.73,-27.17 27.13,-26.78 27.54,-26.39 27.84,-25.92 28.13,-25.44 28.31,-24.91 28.49,-24.38 28.53,-23.82 28.58,-23.27 28.48,-22.72 28.39,-22.16 28.17,-21.65 27.95,-21.13 27.62,-20.69 27.28,-20.24 28.16,-22.32 29.03,-24.39 29.40,-20.20 29.77,-16.00 29.81,-11.54 29.85,-7.07 30.08,-3.34 30.32,0.37 30.42,3.23 30.51,6.08 30.80,9.95 31.09,13.81 31.22,16.46 31.34,19.12 30.56,20.99 29.77,22.86 30.02,23.20 30.26,23.55 30.39,23.96 30.51,24.36 30.49,24.79 30.48,25.21 30.33,25.61 30.18,26.01 29.91,26.34 29.64,26.67 29.28,26.89 28.92,27.12 28.51,27.22 28.10,27.32 27.67,27.28 27.25,27.25 26.86,27.07 26.47,26.90 26.16,26.62 25.84,26.33 25.64,25.96 25.43,25.59 25.35,25.17 25.28,24.75 25.34,24.33 25.40,23.91 25.59,23.53 25.78,23.15 26.08,22.85 26.38,22.56 26.77,22.37 27.15,22.18 27.57,22.13 27.99,22.08 28.41,22.16 28.83,22.24 29.19,22.45 29.56,22.67 29.84,22.98 30.13,23.30 30.29,23.69 30.46,24.09 30.49,24.51 30.52,24.93 30.41,25.34 30.31,25.76 30.08,26.11 29.84,26.47 29.51,26.73 29.18,27.00 28.78,27.14 28.38,27.28 27.95,27.29 27.53,27.30 27.12,27.17 26.72,27.05 26.37,26.79 26.03,26.54 26.03,26.54 26.03,26.54 23.57,23.07 21.10,19.59 21.00,17.05 20.90,14.51 20.64,10.48 20.38,6.44 20.28,3.71 20.18,0.98 19.95,-3.02 19.71,-7.04 19.70,-11.41 19.69,-15.79 19.76,-18.09 19.83,-20.38 20.21,-23.53 20.60,-26.68 21.03,-27.03 21.46,-27.38 21.97,-27.62 22.48,-27.86 23.02,-27.97 23.57,-28.08 24.13,-28.06 24.69,-28.04 25.23,-27.88 25.76,-27.73 26.25,-27.45 26.73,-27.17 27.13,-26.78 27.54,-26.39 27.84,-25.92 28.13,-25.44 28.31,-24.91 28.49,-24.38 28.53,-23.82 28.58,-23.27 28.48,-22.72 28.39,-22.16 28.17,-21.65 27.95,-21.14 27.62,-20.69 27.28,-20.24 25.81,-19.17 24.34,-18.09 22.16,-15.71 19.98,-13.33 18.60,-11.66 17.22,-9.98 13.92,-6.38 10.63,-2.78 8.63,-1.09 6.63,0.59 4.08,1.58 1.54,2.57 1.21,2.72 0.88,2.87 0.52,2.93 0.17,2.99 -0.18,2.97 -0.55,2.95 -0.89,2.84 -1.24,2.73 -1.55,2.54 -1.85,2.35 -2.11,2.10 -2.37,1.84 -2.55,1.53 -2.74,1.22 -2.84,0.87 -2.95,0.53 -2.97,0.16 -2.99,-0.19 -2.93,-0.54 -2.86,-0.90 -2.71,-1.23 -2.56,-1.56 -2.34,-1.84 -2.11,-2.13 -1.83,-2.35 -1.54,-2.57 -1.54,-2.57 L -1.54,-2.57 Z"></path></g><g transform="translate(172.17198620868132 195.25846565513936) rotate(1.4511830940465922 9.5999755859375 10.4000244140625)" stroke="none"><path fill="#2f9e44" d="M -2.24,-2.24 Q -2.24,-2.24 -0.82,-4.95 0.59,-7.67 1.96,-9.46 3.33,-11.25 5.37,-13.29 7.40,-15.33 10.03,-17.48 12.65,-19.63 15.03,-20.02 17.41,-20.40 19.47,-19.16 21.52,-17.93 22.39,-14.45 23.25,-10.98 23.13,-7.60 23.01,-4.22 22.96,-0.49 22.91,3.24 22.89,6.68 22.86,10.12 22.62,14.48 22.37,18.84 22.28,22.17 22.19,25.51 22.40,28.09 22.61,30.66 21.90,32.85 21.19,35.04 21.36,35.43 21.52,35.82 21.55,36.24 21.58,36.67 21.48,37.08 21.37,37.49 21.14,37.85 20.91,38.20 20.58,38.47 20.24,38.73 19.84,38.87 19.44,39.02 19.02,39.03 18.60,39.03 18.19,38.91 17.78,38.78 17.44,38.53 17.10,38.28 16.85,37.93 16.61,37.58 16.48,37.18 16.36,36.77 16.38,36.35 16.39,35.92 16.54,35.52 16.69,35.13 16.96,34.80 17.23,34.47 17.59,34.24 17.95,34.01 18.36,33.91 18.77,33.81 19.20,33.85 19.62,33.89 20.01,34.06 20.40,34.23 20.71,34.52 21.03,34.80 21.23,35.17 21.44,35.55 21.52,35.96 21.59,36.38 21.53,36.80 21.47,37.22 21.28,37.60 21.09,37.98 20.79,38.28 20.48,38.58 20.10,38.76 19.72,38.95 19.30,39.01 18.88,39.06 18.46,38.98 18.04,38.89 17.68,38.68 17.31,38.47 17.03,38.15 16.74,37.83 16.74,37.83 16.74,37.83 14.39,34.60 12.03,31.37 11.86,28.28 11.70,25.20 11.81,21.72 11.93,18.24 12.16,14.14 12.40,10.04 12.43,6.55 12.46,3.07 12.53,-0.82 12.60,-4.71 13.22,-8.41 13.85,-12.11 16.13,-11.93 18.42,-11.75 16.42,-9.97 14.41,-8.18 12.82,-6.66 11.22,-5.13 9.45,-2.87 7.68,-0.60 4.96,0.81 2.24,2.24 1.94,2.47 1.64,2.71 1.29,2.87 0.94,3.02 0.56,3.09 0.19,3.16 -0.19,3.14 -0.57,3.11 -0.93,3.00 -1.30,2.89 -1.62,2.69 -1.95,2.49 -2.22,2.22 -2.49,1.95 -2.69,1.62 -2.89,1.30 -3.00,0.93 -3.11,0.57 -3.14,0.18 -3.16,-0.19 -3.09,-0.56 -3.02,-0.94 -2.87,-1.29 -2.71,-1.64 -2.47,-1.94 -2.24,-2.24 -2.24,-2.24 L -2.24,-2.24 Z"></path></g><g transform="translate(13.81873804353529 182.125429272987) rotate(1.4511830940465922 2.880311271184098 24.722723629952213)" stroke="none"><path fill="#2f9e44" d="M 3.20,-0.41 Q 3.20,-0.41 4.26,2.67 5.32,5.76 5.79,9.91 6.27,14.06 6.58,16.29 6.90,18.51 7.36,24.34 7.82,30.16 8.15,33.78 8.48,37.40 8.87,39.75 9.26,42.09 8.77,45.28 8.27,48.48 8.26,48.90 8.25,49.33 8.11,49.72 7.96,50.12 7.69,50.46 7.43,50.79 7.07,51.02 6.71,51.25 6.30,51.35 5.89,51.45 5.46,51.42 5.04,51.38 4.65,51.22 4.26,51.05 3.94,50.77 3.63,50.48 3.42,50.11 3.21,49.74 3.13,49.33 3.05,48.91 3.10,48.49 3.16,48.07 3.35,47.68 3.54,47.30 3.84,47.00 4.14,46.70 4.52,46.51 4.90,46.32 5.32,46.27 5.74,46.21 6.16,46.29 6.58,46.37 6.95,46.58 7.32,46.79 7.60,47.10 7.88,47.42 8.05,47.81 8.22,48.20 8.26,48.62 8.29,49.04 8.19,49.46 8.09,49.87 7.86,50.23 7.63,50.59 7.30,50.85 6.97,51.12 6.57,51.27 6.17,51.41 5.74,51.42 5.32,51.44 4.91,51.31 4.51,51.19 4.16,50.94 3.82,50.69 3.57,50.35 3.32,50.00 3.20,49.60 3.07,49.19 3.07,49.19 3.07,49.19 1.57,46.39 0.08,43.59 -0.34,40.89 -0.77,38.20 -1.07,34.52 -1.37,30.84 -1.74,25.32 -2.12,19.81 -2.46,17.43 -2.80,15.06 -3.23,11.00 -3.66,6.93 -3.43,3.67 -3.20,0.41 -3.20,0.02 -3.20,-0.36 -3.11,-0.73 -3.02,-1.11 -2.85,-1.46 -2.67,-1.81 -2.41,-2.10 -2.16,-2.39 -1.84,-2.62 -1.52,-2.84 -1.16,-2.98 -0.80,-3.12 -0.41,-3.17 -0.02,-3.22 0.35,-3.18 0.74,-3.14 1.11,-3.00 1.47,-2.87 1.79,-2.65 2.11,-2.43 2.38,-2.14 2.64,-1.85 2.82,-1.51 3.00,-1.17 3.10,-0.79 3.20,-0.41 3.20,-0.41 L 3.20,-0.41 Z"></path></g><g transform="translate(11.88128006009174 183.96660832049588) rotate(1.4511830940465922 20.642279610345952 23.76263208127247)" stroke="none"><path fill="#2f9e44" d="M -1.63,-3.26 Q -1.63,-3.26 0.36,-4.78 2.36,-6.31 4.62,-7.22 6.88,-8.13 11.89,-8.80 16.90,-9.47 19.36,-9.54 21.82,-9.61 24.52,-8.93 27.22,-8.25 29.06,-6.07 30.90,-3.89 30.80,-0.94 30.70,2.00 28.31,5.27 25.91,8.54 23.47,10.76 21.03,12.98 18.13,15.69 15.22,18.40 14.04,19.62 12.86,20.83 12.27,21.17 11.69,21.51 11.04,21.70 10.40,21.89 9.72,21.92 9.05,21.95 8.39,21.82 7.72,21.69 7.11,21.40 6.50,21.11 5.98,20.69 5.45,20.27 5.05,19.73 4.64,19.19 4.37,18.57 4.10,17.95 3.99,17.28 3.88,16.62 3.93,15.95 3.98,15.27 4.20,14.63 4.41,13.99 4.76,13.42 5.12,12.85 5.61,12.38 6.09,11.91 9.24,10.21 12.38,8.52 15.13,7.89 17.88,7.27 20.49,7.06 23.11,6.85 26.04,7.23 28.98,7.60 31.32,8.29 33.67,8.98 36.83,11.03 39.99,13.09 42.00,16.17 44.01,19.24 44.59,22.86 45.17,26.48 44.26,30.47 43.34,34.45 41.24,38.21 39.14,41.98 36.96,44.92 34.77,47.87 32.14,50.33 29.50,52.78 25.61,54.44 21.72,56.09 18.21,56.08 14.71,56.07 12.17,54.18 9.64,52.29 8.01,50.74 6.38,49.19 6.07,48.89 5.77,48.60 5.57,48.22 5.38,47.84 5.31,47.42 5.25,47.00 5.32,46.58 5.40,46.16 5.60,45.79 5.81,45.42 6.12,45.13 6.43,44.84 6.82,44.67 7.21,44.50 7.63,44.45 8.05,44.41 8.47,44.51 8.88,44.61 9.24,44.83 9.60,45.05 9.87,45.38 10.14,45.71 10.30,46.11 10.45,46.50 10.47,46.93 10.48,47.35 10.37,47.76 10.25,48.17 10.00,48.52 9.76,48.86 9.42,49.12 9.08,49.37 8.67,49.50 8.27,49.63 7.84,49.63 7.42,49.62 7.02,49.48 6.62,49.34 6.28,49.08 5.95,48.82 5.71,48.46 5.48,48.11 5.37,47.70 5.26,47.29 5.29,46.86 5.32,46.44 5.48,46.04 5.64,45.65 5.92,45.33 6.20,45.01 6.57,44.80 6.94,44.58 7.35,44.50 7.77,44.41 8.19,44.46 8.61,44.51 9.00,44.70 9.38,44.88 9.38,44.88 9.38,44.88 10.84,45.48 12.29,46.09 15.12,45.67 17.94,45.26 20.10,44.68 22.26,44.11 24.12,42.62 25.98,41.14 27.88,38.70 29.78,36.27 31.44,33.86 33.10,31.46 33.94,27.81 34.77,24.15 32.69,21.64 30.60,19.13 27.25,18.40 23.91,17.68 20.48,18.06 17.05,18.44 14.95,19.63 12.86,20.83 12.28,21.17 11.69,21.51 11.04,21.70 10.40,21.89 9.72,21.92 9.05,21.95 8.39,21.82 7.73,21.69 7.11,21.40 6.50,21.12 5.98,20.69 5.45,20.27 5.05,19.73 4.64,19.19 4.37,18.57 4.10,17.95 3.99,17.29 3.88,16.62 3.93,15.95 3.98,15.27 4.20,14.63 4.41,13.99 4.76,13.42 5.12,12.85 5.61,12.38 6.09,11.91 7.19,11.19 8.29,10.46 11.27,7.88 14.26,5.29 18.12,2.73 21.98,0.18 19.66,0.22 17.34,0.27 14.76,0.29 12.19,0.30 9.32,1.10 6.46,1.89 4.04,2.58 1.63,3.26 1.21,3.41 0.80,3.56 0.36,3.60 -0.07,3.65 -0.50,3.58 -0.94,3.52 -1.35,3.36 -1.75,3.19 -2.11,2.94 -2.47,2.68 -2.75,2.34 -3.04,2.01 -3.24,1.62 -3.43,1.22 -3.53,0.79 -3.63,0.36 -3.62,-0.07 -3.61,-0.51 -3.50,-0.93 -3.38,-1.36 -3.17,-1.74 -2.96,-2.13 -2.66,-2.45 -2.36,-2.77 -1.99,-3.02 -1.63,-3.26 -1.63,-3.26 L -1.63,-3.26 Z"></path></g><g transform="translate(29.885940347668452 76.5713020043691) rotate(1.4511830940465922 -9.601061987376966 26.642952508742795)" stroke="none"><path fill="#e03131" d="M 2.86,0.79 Q 2.86,0.79 2.55,3.38 2.24,5.97 1.41,8.97 0.58,11.97 -0.34,15.06 -1.27,18.14 -2.22,21.14 -3.16,24.13 -4.87,28.17 -6.57,32.22 -8.23,36.09 -9.89,39.96 -11.26,43.37 -12.62,46.77 -13.52,48.73 -14.41,50.69 -15.52,52.29 -16.63,53.90 -16.84,54.27 -17.04,54.64 -17.36,54.93 -17.67,55.21 -18.06,55.38 -18.45,55.55 -18.87,55.59 -19.30,55.63 -19.71,55.53 -20.12,55.43 -20.48,55.20 -20.84,54.97 -21.11,54.64 -21.38,54.31 -21.53,53.91 -21.68,53.52 -21.69,53.09 -21.70,52.67 -21.58,52.26 -21.46,51.85 -21.21,51.51 -20.97,51.16 -20.62,50.91 -20.28,50.66 -19.87,50.53 -19.47,50.41 -19.04,50.42 -18.62,50.43 -18.22,50.57 -17.82,50.71 -17.49,50.98 -17.15,51.24 -16.92,51.60 -16.69,51.96 -16.59,52.37 -16.48,52.78 -16.51,53.20 -16.55,53.63 -16.71,54.02 -16.88,54.41 -17.16,54.73 -17.44,55.05 -17.81,55.26 -18.18,55.47 -18.60,55.55 -19.01,55.63 -19.43,55.58 -19.86,55.52 -20.24,55.34 -20.62,55.15 -20.92,54.85 -21.22,54.55 -21.41,54.17 -21.61,53.79 -21.66,53.37 -21.72,52.95 -21.65,52.53 -21.57,52.11 -21.57,52.11 -21.57,52.12 -20.65,48.00 -19.72,43.88 -18.29,40.42 -16.87,36.95 -15.20,33.11 -13.53,29.27 -11.95,25.56 -10.37,21.84 -9.44,18.92 -8.50,15.99 -7.61,12.95 -6.72,9.91 -5.86,6.93 -5.00,3.96 -3.93,1.58 -2.86,-0.79 -2.72,-1.12 -2.59,-1.45 -2.37,-1.74 -2.16,-2.03 -1.89,-2.26 -1.61,-2.49 -1.29,-2.65 -0.97,-2.81 -0.62,-2.88 -0.27,-2.96 0.08,-2.95 0.44,-2.94 0.79,-2.84 1.13,-2.74 1.44,-2.57 1.76,-2.39 2.02,-2.15 2.28,-1.90 2.47,-1.60 2.67,-1.30 2.78,-0.96 2.90,-0.62 2.93,-0.26 2.97,0.08 2.91,0.44 2.86,0.79 2.86,0.79 L 2.86,0.79 Z"></path></g><g transform="translate(32.783868696809805 77.58052283214437) rotate(1.4511830940465922 8.40092923895483 25.202787716864506)" stroke="none"><path fill="#e03131" d="M 3.38,-0.39 Q 3.38,-0.39 4.05,1.90 4.72,4.20 6.04,8.62 7.36,13.04 9.10,17.60 10.84,22.16 12.35,26.45 13.86,30.73 15.04,33.87 16.22,37.00 17.24,39.16 18.25,41.33 18.69,45.17 19.12,49.00 19.18,49.42 19.23,49.85 19.14,50.26 19.06,50.68 18.84,51.05 18.63,51.41 18.31,51.69 17.99,51.97 17.60,52.14 17.21,52.30 16.78,52.33 16.36,52.36 15.95,52.25 15.54,52.14 15.18,51.91 14.83,51.68 14.56,51.34 14.30,51.01 14.16,50.61 14.02,50.21 14.01,49.78 14.01,49.36 14.14,48.95 14.26,48.55 14.52,48.21 14.77,47.86 15.12,47.62 15.47,47.38 15.87,47.26 16.28,47.14 16.71,47.15 17.13,47.17 17.53,47.32 17.92,47.47 18.25,47.74 18.58,48.01 18.80,48.37 19.03,48.73 19.13,49.15 19.22,49.56 19.18,49.98 19.14,50.41 18.97,50.80 18.80,51.18 18.51,51.50 18.22,51.81 17.85,52.01 17.48,52.22 17.06,52.29 16.64,52.37 16.22,52.31 15.80,52.24 15.42,52.05 15.05,51.86 14.75,51.55 14.45,51.25 14.27,50.87 14.08,50.48 14.08,50.48 14.08,50.48 12.19,47.71 10.30,44.94 9.22,42.48 8.13,40.01 6.94,36.79 5.76,33.57 4.32,29.40 2.87,25.23 1.08,20.52 -0.70,15.81 -1.77,12.63 -2.83,9.46 -3.23,7.32 -3.62,5.18 -3.50,2.79 -3.38,0.39 -3.38,-0.01 -3.38,-0.42 -3.28,-0.82 -3.18,-1.22 -2.99,-1.58 -2.79,-1.94 -2.52,-2.25 -2.25,-2.55 -1.91,-2.79 -1.57,-3.02 -1.18,-3.16 -0.80,-3.31 -0.39,-3.36 0.01,-3.40 0.42,-3.35 0.82,-3.30 1.21,-3.15 1.59,-3.01 1.93,-2.77 2.27,-2.54 2.54,-2.23 2.81,-1.92 3.00,-1.56 3.19,-1.19 3.28,-0.79 3.38,-0.39 3.38,-0.39 L 3.38,-0.39 Z"></path></g><g transform="translate(20.323733979803194 101.34633796166102) rotate(1.4511830940465922 11.521245084736421 0.48005493062608195)" stroke="none"><path fill="#e03131" d="M 0.21,-3.03 Q 0.21,-3.03 4.13,-3.48 8.05,-3.94 12.53,-3.95 17.02,-3.97 19.67,-3.04 22.32,-2.12 22.74,-2.06 23.16,-2.00 23.54,-1.81 23.92,-1.61 24.22,-1.31 24.51,-1.01 24.70,-0.63 24.89,-0.25 24.94,0.17 25.00,0.59 24.91,1.00 24.83,1.42 24.62,1.79 24.41,2.16 24.09,2.44 23.77,2.72 23.38,2.89 22.99,3.05 22.56,3.08 22.14,3.12 21.73,3.01 21.32,2.90 20.96,2.67 20.60,2.44 20.34,2.11 20.08,1.78 19.93,1.38 19.79,0.98 19.78,0.55 19.77,0.13 19.90,-0.27 20.03,-0.67 20.28,-1.02 20.53,-1.36 20.87,-1.61 21.22,-1.85 21.63,-1.97 22.03,-2.10 22.46,-2.08 22.88,-2.07 23.28,-1.92 23.68,-1.77 24.01,-1.50 24.34,-1.23 24.57,-0.87 24.79,-0.51 24.89,-0.10 24.99,0.30 24.95,0.73 24.92,1.15 24.75,1.54 24.58,1.93 24.29,2.24 24.00,2.56 23.63,2.76 23.26,2.97 22.84,3.05 22.42,3.12 22.43,3.12 22.43,3.12 19.88,4.16 17.32,5.19 12.36,5.12 7.40,5.04 3.59,4.04 -0.21,3.03 -0.57,2.96 -0.93,2.89 -1.26,2.73 -1.60,2.58 -1.88,2.35 -2.17,2.12 -2.39,1.83 -2.61,1.54 -2.76,1.20 -2.91,0.87 -2.97,0.51 -3.03,0.15 -3.00,-0.21 -2.98,-0.58 -2.87,-0.92 -2.75,-1.27 -2.56,-1.58 -2.37,-1.90 -2.11,-2.15 -1.84,-2.41 -1.53,-2.59 -1.21,-2.78 -0.86,-2.89 -0.51,-2.99 -0.14,-3.01 0.21,-3.03 0.21,-3.03 L 0.21,-3.03 Z"></path></g><g transform="translate(393.14698475515127 28.80858939523887) rotate(1.4511830940465922 7.573001194152553 -0.5751672861086377)" stroke="none"><path fill="#1971c2" d="M -1.47,-1.81 Q -1.47,-1.81 -0.69,-2.64 0.09,-3.48 1.00,-4.53 1.90,-5.59 2.75,-6.88 3.59,-8.17 4.57,-9.49 5.54,-10.82 6.40,-11.92 7.25,-13.02 8.54,-14.45 9.83,-15.88 11.15,-16.28 12.46,-16.67 13.61,-16.24 14.77,-15.81 15.47,-14.30 16.16,-12.80 16.37,-11.04 16.57,-9.28 16.66,-7.26 16.75,-5.24 16.81,-2.68 16.87,-0.12 16.89,1.72 16.91,3.57 17.03,5.50 17.15,7.42 16.74,9.94 16.33,12.46 16.37,12.67 16.41,12.88 16.38,13.09 16.34,13.30 16.25,13.49 16.15,13.68 16.00,13.83 15.85,13.97 15.65,14.07 15.46,14.16 15.25,14.18 15.04,14.21 14.83,14.17 14.62,14.12 14.44,14.02 14.26,13.91 14.12,13.75 13.98,13.59 13.90,13.39 13.81,13.20 13.80,12.99 13.79,12.77 13.84,12.57 13.89,12.36 14.01,12.18 14.13,12.01 14.30,11.88 14.46,11.75 14.66,11.67 14.86,11.60 15.08,11.60 15.29,11.60 15.49,11.66 15.69,11.73 15.86,11.85 16.03,11.98 16.16,12.16 16.28,12.33 16.34,12.53 16.40,12.74 16.39,12.95 16.38,13.16 16.30,13.36 16.23,13.56 16.09,13.72 15.96,13.89 15.78,14.00 15.60,14.11 15.39,14.16 15.18,14.21 14.97,14.19 14.76,14.17 14.57,14.08 14.37,13.99 14.22,13.85 14.06,13.71 13.96,13.52 13.85,13.33 13.85,13.33 13.85,13.33 12.56,10.55 11.26,7.76 11.15,5.69 11.03,3.61 11.03,1.77 11.02,-0.05 11.03,-2.55 11.03,-5.04 10.98,-6.87 10.94,-8.70 11.04,-10.35 11.15,-12.00 12.31,-12.03 13.48,-12.05 12.42,-10.95 11.36,-9.84 10.54,-8.78 9.72,-7.71 8.84,-6.54 7.96,-5.36 6.52,-3.24 5.08,-1.11 4.26,-0.24 3.43,0.61 2.45,1.21 1.47,1.81 1.23,1.96 0.99,2.11 0.73,2.20 0.46,2.29 0.18,2.31 -0.09,2.33 -0.37,2.29 -0.65,2.24 -0.91,2.13 -1.17,2.02 -1.39,1.85 -1.62,1.68 -1.80,1.46 -1.98,1.24 -2.10,0.99 -2.22,0.73 -2.27,0.45 -2.33,0.18 -2.32,-0.09 -2.30,-0.38 -2.22,-0.65 -2.14,-0.92 -2.00,-1.16 -1.86,-1.41 -1.67,-1.61 -1.47,-1.81 -1.47,-1.81 L -1.47,-1.81 Z"></path></g><g transform="translate(416.7225502942581 30.255164680595243) rotate(1.4511830940465922 3.2592776311477536 -1.5337794296230385)" stroke="none"><path fill="#1971c2" d="M -0.27,-1.80 Q -0.27,-1.80 0.78,-2.28 1.83,-2.76 3.12,-2.91 4.40,-3.06 5.67,-3.32 6.94,-3.58 6.19,-4.61 5.45,-5.63 4.75,-6.51 4.06,-7.38 2.71,-6.07 1.36,-4.76 0.79,-3.57 0.23,-2.39 0.25,-1.15 0.26,0.07 0.54,1.72 0.81,3.37 1.88,3.79 2.95,4.22 5.54,3.80 8.14,3.39 8.32,3.28 8.51,3.17 8.71,3.12 8.92,3.08 9.13,3.10 9.34,3.12 9.54,3.21 9.73,3.30 9.88,3.44 10.04,3.59 10.14,3.78 10.24,3.96 10.27,4.17 10.31,4.38 10.27,4.59 10.24,4.80 10.14,4.99 10.04,5.18 9.89,5.33 9.73,5.47 9.54,5.56 9.35,5.65 9.14,5.67 8.93,5.70 8.72,5.65 8.51,5.61 8.33,5.50 8.15,5.39 8.01,5.23 7.87,5.07 7.79,4.87 7.71,4.67 7.70,4.46 7.69,4.25 7.74,4.04 7.80,3.84 7.92,3.66 8.04,3.49 8.21,3.36 8.38,3.23 8.58,3.16 8.78,3.09 8.99,3.09 9.20,3.09 9.41,3.16 9.61,3.22 9.78,3.35 9.95,3.48 10.07,3.66 10.19,3.83 10.24,4.04 10.30,4.24 10.29,4.45 10.28,4.67 10.20,4.86 10.12,5.06 9.98,5.22 9.85,5.39 9.85,5.39 9.85,5.39 7.62,7.13 5.40,8.88 4.23,9.06 3.05,9.25 1.81,9.23 0.57,9.22 -0.50,8.78 -1.57,8.34 -2.49,7.44 -3.42,6.54 -4.07,4.54 -4.73,2.54 -4.87,1.46 -5.01,0.38 -5.04,-0.76 -5.08,-1.92 -4.85,-3.10 -4.63,-4.28 -4.18,-5.35 -3.73,-6.41 -2.37,-8.13 -1.01,-9.84 0.70,-11.10 2.41,-12.36 4.35,-12.28 6.29,-12.20 7.84,-10.89 9.39,-9.59 9.96,-7.98 10.52,-6.37 10.71,-5.22 10.89,-4.07 10.88,-2.48 10.88,-0.89 9.50,0.17 8.11,1.24 6.67,1.51 5.22,1.78 3.89,1.94 2.57,2.10 1.42,1.95 0.27,1.80 0.05,1.80 -0.16,1.81 -0.38,1.76 -0.59,1.72 -0.79,1.62 -0.99,1.52 -1.16,1.38 -1.32,1.24 -1.45,1.06 -1.58,0.89 -1.67,0.68 -1.75,0.48 -1.78,0.26 -1.82,0.05 -1.80,-0.16 -1.78,-0.38 -1.70,-0.59 -1.63,-0.80 -1.51,-0.98 -1.39,-1.16 -1.23,-1.31 -1.07,-1.46 -0.88,-1.57 -0.69,-1.68 -0.48,-1.74 -0.27,-1.80 -0.27,-1.80 L -0.27,-1.80 Z"></path></g><g transform="translate(429.98067928001905 27.17360890136311) rotate(1.4511830940465922 4.601323661664395 0.5751672861086661)" stroke="none"><path fill="#1971c2" d="M 1.71,-0.41 Q 1.71,-0.41 2.31,1.13 2.90,2.68 3.22,4.47 3.54,6.27 3.81,7.05 4.08,7.83 4.06,8.14 4.05,8.45 3.96,8.74 3.88,9.04 3.72,9.31 3.56,9.58 3.35,9.80 3.13,10.02 2.87,10.19 2.61,10.35 2.32,10.45 2.02,10.55 1.71,10.57 1.40,10.60 1.10,10.55 0.79,10.50 0.51,10.37 0.22,10.25 -0.01,10.06 -0.26,9.88 -0.46,9.64 -0.65,9.40 -0.78,9.12 -0.91,8.84 -0.98,8.53 -1.04,8.23 -1.08,5.98 -1.13,3.72 -1.13,2.38 -1.13,1.03 -1.13,-0.25 -1.13,-1.55 -0.94,-2.75 -0.74,-3.96 0.44,-5.95 1.63,-7.94 2.72,-8.51 3.81,-9.08 6.36,-8.48 8.92,-7.88 9.12,-7.82 9.32,-7.75 9.50,-7.63 9.67,-7.50 9.79,-7.33 9.91,-7.16 9.98,-6.95 10.04,-6.75 10.03,-6.54 10.03,-6.33 9.95,-6.13 9.88,-5.93 9.75,-5.76 9.61,-5.60 9.43,-5.48 9.25,-5.37 9.05,-5.32 8.84,-5.27 8.63,-5.29 8.42,-5.30 8.22,-5.39 8.03,-5.47 7.87,-5.61 7.71,-5.76 7.61,-5.94 7.50,-6.13 7.46,-6.34 7.42,-6.54 7.45,-6.76 7.48,-6.97 7.58,-7.16 7.67,-7.35 7.82,-7.50 7.97,-7.65 8.16,-7.74 8.35,-7.83 8.57,-7.86 8.78,-7.89 8.98,-7.85 9.19,-7.81 9.38,-7.70 9.56,-7.60 9.70,-7.44 9.85,-7.28 9.93,-7.09 10.01,-6.89 10.03,-6.68 10.05,-6.47 9.99,-6.26 9.94,-6.06 9.83,-5.88 9.71,-5.70 9.55,-5.57 9.38,-5.43 9.18,-5.36 8.98,-5.29 8.77,-5.28 8.56,-5.28 8.56,-5.28 8.56,-5.28 6.65,-4.72 4.74,-4.16 4.47,-2.85 4.20,-1.53 4.20,-0.25 4.19,1.03 4.19,2.38 4.19,3.73 4.13,5.78 4.08,7.83 4.06,8.14 4.05,8.45 3.96,8.74 3.88,9.04 3.72,9.31 3.56,9.58 3.35,9.80 3.13,10.02 2.87,10.19 2.61,10.35 2.32,10.45 2.02,10.55 1.71,10.57 1.40,10.60 1.10,10.55 0.79,10.50 0.51,10.37 0.22,10.25 -0.01,10.06 -0.26,9.88 -0.45,9.64 -0.65,9.40 -0.78,9.12 -0.91,8.84 -0.98,8.53 -1.04,8.23 -0.94,7.57 -0.85,6.91 -1.10,5.31 -1.36,3.71 -1.54,2.06 -1.71,0.41 -1.74,0.20 -1.76,-0.00 -1.74,-0.22 -1.71,-0.43 -1.63,-0.63 -1.56,-0.82 -1.44,-1.00 -1.31,-1.17 -1.15,-1.31 -0.99,-1.46 -0.80,-1.55 -0.61,-1.65 -0.41,-1.70 -0.20,-1.75 0.00,-1.75 0.22,-1.75 0.42,-1.70 0.63,-1.65 0.82,-1.55 1.01,-1.45 1.17,-1.30 1.32,-1.16 1.44,-0.99 1.57,-0.81 1.64,-0.61 1.71,-0.41 1.71,-0.41 L 1.71,-0.41 Z"></path></g><g transform="translate(315.5802316098019 19.948158326073838) rotate(1.4511830940465922 7.764727279656583 11.69502792606265)" stroke="none"><path fill="#1971c2" d="M -1.18,1.18 Q -1.18,1.18 -2.11,0.84 -3.04,0.50 -3.31,-0.82 -3.59,-2.15 -2.97,-3.42 -2.36,-4.69 -1.38,-5.53 -0.41,-6.37 2.29,-7.02 4.99,-7.67 6.32,-7.45 7.64,-7.23 8.94,-6.56 10.23,-5.88 11.29,-4.21 12.35,-2.55 12.77,-0.58 13.18,1.38 13.01,3.68 12.83,5.98 12.29,8.32 11.75,10.66 11.20,12.45 10.65,14.25 9.48,16.24 8.31,18.24 7.24,19.78 6.18,21.33 5.44,22.29 4.69,23.25 3.52,24.52 2.35,25.79 1.27,23.82 0.19,21.86 1.65,21.74 3.11,21.62 4.34,21.64 5.57,21.65 6.96,21.90 8.34,22.15 9.62,22.64 10.89,23.13 12.01,23.56 13.14,23.99 14.18,24.45 15.22,24.90 16.17,25.89 17.13,26.89 17.26,26.98 17.39,27.06 17.50,27.18 17.60,27.30 17.68,27.44 17.75,27.58 17.79,27.73 17.83,27.89 17.83,28.04 17.83,28.20 17.79,28.36 17.76,28.51 17.68,28.65 17.61,28.79 17.51,28.91 17.40,29.03 17.27,29.12 17.14,29.21 17.00,29.27 16.85,29.33 16.69,29.35 16.54,29.37 16.38,29.35 16.22,29.33 16.07,29.28 15.92,29.22 15.59,28.80 15.25,28.37 15.23,28.16 15.22,27.95 15.27,27.74 15.32,27.54 15.43,27.36 15.55,27.18 15.71,27.05 15.88,26.91 16.08,26.84 16.27,26.76 16.49,26.76 16.70,26.75 16.90,26.81 17.11,26.88 17.28,27.00 17.45,27.12 17.58,27.29 17.70,27.47 17.76,27.67 17.83,27.87 17.82,28.08 17.82,28.30 17.74,28.50 17.67,28.70 17.54,28.86 17.41,29.03 17.23,29.14 17.05,29.26 16.84,29.31 16.64,29.36 16.42,29.35 16.21,29.33 16.02,29.25 15.82,29.16 15.66,29.02 15.50,28.88 15.40,28.69 15.29,28.51 15.25,28.30 15.21,28.09 15.24,27.88 15.27,27.67 15.36,27.48 15.46,27.29 15.61,27.14 15.76,26.99 15.95,26.89 16.14,26.80 16.35,26.77 16.56,26.74 16.77,26.78 16.98,26.82 17.16,26.92 17.35,27.03 17.49,27.19 17.63,27.34 17.38,27.11 17.13,26.89 17.26,26.98 17.39,27.06 17.50,27.18 17.60,27.30 17.68,27.44 17.75,27.58 17.79,27.73 17.83,27.89 17.83,28.04 17.83,28.20 17.79,28.36 17.76,28.51 17.68,28.65 17.61,28.79 17.51,28.91 17.40,29.03 17.27,29.12 17.14,29.21 17.00,29.27 16.85,29.33 16.69,29.35 16.54,29.37 16.38,29.35 16.22,29.33 16.07,29.28 15.92,29.22 13.56,28.96 11.19,28.71 9.28,27.86 7.37,27.01 5.52,26.77 3.67,26.53 1.92,26.68 0.17,26.84 -0.39,24.30 -0.96,21.75 -0.02,20.94 0.92,20.13 1.64,19.31 2.37,18.48 3.46,17.14 4.56,15.80 5.61,14.37 6.66,12.94 7.19,11.34 7.72,9.74 8.17,7.73 8.62,5.71 8.70,4.00 8.77,2.30 8.48,1.05 8.19,-0.19 7.40,-1.16 6.61,-2.13 5.01,-2.39 3.41,-2.65 2.23,-2.57 1.05,-2.49 1.12,-1.84 1.18,-1.18 1.31,-1.03 1.44,-0.87 1.52,-0.68 1.60,-0.50 1.64,-0.30 1.67,-0.10 1.66,0.10 1.65,0.30 1.59,0.49 1.53,0.69 1.42,0.86 1.32,1.03 1.18,1.18 1.03,1.32 0.86,1.42 0.69,1.53 0.49,1.59 0.30,1.65 0.10,1.66 -0.10,1.67 -0.30,1.64 -0.50,1.60 -0.68,1.52 -0.87,1.44 -1.03,1.31 -1.19,1.18 -1.19,1.18 L -1.18,1.18 Z"></path></g><g transform="translate(332.5824326301122 35.69547503786853) rotate(1.4511830940465922 6.901978178894225 -1.4379200436721646)" stroke="none"><path fill="#1971c2" d="M 0,-2.25 Q 0,-2.25 1.65,-2.49 3.30,-2.73 4.50,-2.78 5.69,-2.83 6.91,-2.92 8.14,-3.00 9.45,-3.31 10.76,-3.63 10.24,-4.84 9.72,-6.06 9.28,-7.28 8.84,-8.50 7.47,-7.60 6.10,-6.70 5.27,-5.89 4.44,-5.07 3.66,-3.99 2.89,-2.90 3.20,-1.39 3.51,0.10 4.47,1.91 5.43,3.72 6.42,4.62 7.41,5.52 8.60,5.34 9.79,5.17 11.36,4.75 12.92,4.33 13.11,4.23 13.30,4.13 13.51,4.10 13.72,4.07 13.93,4.11 14.14,4.15 14.32,4.25 14.51,4.35 14.66,4.51 14.80,4.66 14.89,4.86 14.97,5.05 14.99,5.26 15.01,5.47 14.97,5.68 14.92,5.89 14.81,6.07 14.69,6.25 14.53,6.38 14.37,6.52 14.17,6.59 13.97,6.67 13.76,6.68 13.54,6.69 13.34,6.63 13.14,6.57 12.96,6.45 12.79,6.33 12.66,6.16 12.54,5.98 12.47,5.78 12.40,5.58 12.41,5.37 12.41,5.16 12.48,4.95 12.55,4.75 12.68,4.59 12.81,4.42 12.99,4.30 13.17,4.19 13.37,4.13 13.58,4.08 13.79,4.09 14.00,4.11 14.20,4.19 14.39,4.27 14.55,4.41 14.71,4.55 14.82,4.73 14.93,4.91 14.97,5.12 15.02,5.33 14.99,5.54 14.96,5.75 14.87,5.94 14.78,6.14 14.63,6.29 14.48,6.44 14.48,6.44 14.48,6.44 12.85,8.32 11.22,10.20 9.68,10.62 8.14,11.04 6.34,10.73 4.55,10.41 3.27,9.51 1.98,8.62 1.22,7.61 0.45,6.60 -0.21,5.40 -0.88,4.21 -1.47,2.79 -2.07,1.36 -2.39,-0.36 -2.71,-2.08 -1.97,-4.69 -1.22,-7.29 -0.43,-8.27 0.36,-9.25 1.23,-10.10 2.10,-10.95 3.15,-11.91 4.20,-12.86 5.42,-13.49 6.64,-14.12 8.91,-13.81 11.18,-13.49 12.52,-12.43 13.85,-11.38 14.56,-9.70 15.27,-8.02 15.76,-6.37 16.26,-4.73 16.29,-3.37 16.32,-2.01 15.51,-0.76 14.70,0.49 13.55,1.05 12.41,1.61 10.45,2.04 8.48,2.46 7.21,2.54 5.93,2.61 4.62,2.67 3.30,2.73 1.65,2.49 0,2.25 -0.26,2.21 -0.53,2.18 -0.79,2.08 -1.04,1.99 -1.26,1.83 -1.49,1.68 -1.67,1.48 -1.85,1.27 -1.97,1.03 -2.10,0.79 -2.16,0.53 -2.23,0.27 -2.23,-0.00 -2.23,-0.27 -2.16,-0.53 -2.10,-0.79 -1.97,-1.03 -1.85,-1.27 -1.67,-1.48 -1.49,-1.68 -1.26,-1.83 -1.04,-1.99 -0.79,-2.08 -0.53,-2.18 -0.26,-2.21 0.00,-2.25 0.00,-2.25 L 0,-2.25 Z"></path></g><g transform="translate(350.80771400850665 30.16987005307621) rotate(1.4511830940465922 5.17647997736951 3.834441260455236)" stroke="none"><path fill="#1971c2" d="M 1.74,-0.15 Q 1.74,-0.15 2.26,1.01 2.78,2.19 2.92,3.50 3.07,4.81 3.24,7.15 3.40,9.49 3.63,10.67 3.86,11.86 3.84,11.93 3.83,11.99 3.85,12.32 3.87,12.64 3.82,12.96 3.76,13.29 3.63,13.58 3.50,13.88 3.30,14.14 3.10,14.40 2.85,14.61 2.60,14.81 2.30,14.95 2.00,15.09 1.68,15.15 1.36,15.21 1.04,15.19 0.71,15.18 0.40,15.09 0.09,14.99 -0.19,14.83 -0.47,14.66 -0.70,14.43 -0.93,14.20 -1.11,13.93 -1.28,13.65 -1.38,13.34 -1.48,13.03 -1.71,11.88 -1.93,10.72 -2.14,9.13 -2.35,7.53 -2.50,6.02 -2.65,4.52 -2.71,3.22 -2.77,1.93 -2.62,0.58 -2.47,-0.77 -1.44,-2.95 -0.41,-5.12 0.92,-5.97 2.26,-6.81 3.26,-7.17 4.26,-7.53 5.45,-7.69 6.63,-7.86 8.64,-6.71 10.64,-5.56 10.83,-5.46 11.02,-5.37 11.17,-5.21 11.32,-5.06 11.41,-4.87 11.50,-4.68 11.53,-4.47 11.55,-4.26 11.51,-4.05 11.47,-3.84 11.36,-3.66 11.26,-3.47 11.10,-3.33 10.94,-3.19 10.74,-3.11 10.55,-3.03 10.33,-3.01 10.12,-3.00 9.92,-3.05 9.71,-3.11 9.53,-3.22 9.35,-3.34 9.22,-3.51 9.09,-3.67 9.02,-3.87 8.95,-4.07 8.95,-4.29 8.94,-4.50 9.01,-4.70 9.07,-4.90 9.20,-5.08 9.32,-5.25 9.50,-5.37 9.67,-5.49 9.88,-5.55 10.08,-5.61 10.29,-5.60 10.50,-5.59 10.70,-5.52 10.90,-5.44 11.07,-5.31 11.23,-5.17 11.34,-4.99 11.45,-4.81 11.50,-4.61 11.55,-4.40 11.53,-4.19 11.51,-3.98 11.43,-3.78 11.34,-3.59 11.20,-3.43 11.05,-3.27 10.87,-3.17 10.68,-3.07 10.47,-3.03 10.26,-2.99 10.05,-3.03 9.84,-3.06 9.84,-3.06 9.84,-3.06 7.94,-2.72 6.04,-2.38 4.57,-1.81 3.09,-1.24 2.83,0.22 2.56,1.69 2.62,2.85 2.67,4.02 2.80,5.44 2.92,6.85 3.09,8.25 3.27,9.65 3.55,10.82 3.82,11.99 3.85,12.32 3.87,12.64 3.82,12.96 3.76,13.29 3.63,13.58 3.50,13.88 3.30,14.14 3.10,14.40 2.85,14.61 2.60,14.81 2.30,14.95 2.00,15.09 1.68,15.15 1.36,15.21 1.04,15.19 0.71,15.18 0.40,15.09 0.09,14.99 -0.19,14.83 -0.47,14.66 -0.70,14.43 -0.93,14.20 -1.11,13.93 -1.28,13.65 -1.38,13.34 -1.48,13.03 -1.47,12.91 -1.46,12.78 -1.59,11.28 -1.73,9.77 -1.87,7.58 -2.00,5.40 -2.17,4.03 -2.34,2.65 -2.04,1.40 -1.74,0.15 -1.73,-0.05 -1.72,-0.26 -1.67,-0.46 -1.61,-0.66 -1.51,-0.85 -1.40,-1.03 -1.26,-1.18 -1.11,-1.34 -0.94,-1.45 -0.76,-1.57 -0.56,-1.63 -0.36,-1.70 -0.15,-1.72 0.05,-1.74 0.26,-1.71 0.46,-1.68 0.66,-1.60 0.85,-1.52 1.02,-1.39 1.19,-1.27 1.33,-1.11 1.46,-0.94 1.55,-0.75 1.65,-0.56 1.69,-0.36 1.74,-0.15 1.74,-0.15 L 1.74,-0.15 Z"></path></g><g transform="translate(248.054317281054 14.0931370468671) rotate(1.4511830940465922 3.1634036179922305 10.640556396597432)" stroke="none"><path fill="#1971c2" d="M 1.60,0.40 Q 1.60,0.40 1.84,1.39 2.08,2.39 1.83,3.59 1.58,4.80 0.84,7.83 0.10,10.86 -0.66,13.06 -1.43,15.25 -1.91,16.58 -2.39,17.91 -2.73,19.00 -3.06,20.08 -1.89,19.37 -0.71,18.66 0.46,18.58 1.64,18.50 3.60,18.61 5.56,18.71 7.35,18.83 9.14,18.95 10.39,19.38 11.65,19.80 11.85,19.76 12.06,19.71 12.27,19.73 12.48,19.76 12.68,19.84 12.87,19.93 13.02,20.08 13.18,20.22 13.28,20.41 13.38,20.60 13.41,20.81 13.45,21.02 13.41,21.23 13.38,21.44 13.28,21.63 13.18,21.81 13.03,21.96 12.87,22.11 12.68,22.20 12.49,22.29 12.28,22.31 12.07,22.33 11.86,22.29 11.65,22.24 11.47,22.13 11.29,22.02 11.15,21.86 11.01,21.70 10.93,21.50 10.85,21.31 10.84,21.10 10.83,20.88 10.89,20.68 10.94,20.47 11.06,20.30 11.18,20.12 11.35,19.99 11.52,19.86 11.72,19.79 11.92,19.73 12.13,19.73 12.34,19.73 12.55,19.79 12.75,19.86 12.92,19.99 13.09,20.12 13.21,20.29 13.33,20.47 13.38,20.67 13.44,20.88 13.43,21.09 13.42,21.30 13.34,21.50 13.26,21.70 13.12,21.86 12.99,22.02 12.81,22.13 12.62,22.24 12.62,22.24 12.62,22.24 10.78,23.44 8.94,24.65 7.04,24.53 5.13,24.41 3.54,24.31 1.94,24.21 0.55,24.35 -0.83,24.50 -2.47,24.81 -4.11,25.13 -5.92,24.55 -7.73,23.96 -8.26,22.49 -8.79,21.02 -8.45,19.72 -8.11,18.41 -7.71,17.27 -7.30,16.13 -6.83,14.82 -6.35,13.50 -5.64,11.56 -4.94,9.61 -4.22,6.68 -3.49,3.75 -3.23,2.44 -2.96,1.13 -2.28,0.36 -1.60,-0.40 -1.53,-0.58 -1.46,-0.77 -1.34,-0.93 -1.23,-1.10 -1.08,-1.23 -0.93,-1.36 -0.75,-1.45 -0.58,-1.54 -0.38,-1.59 -0.19,-1.64 0.00,-1.64 0.20,-1.64 0.39,-1.59 0.59,-1.54 0.76,-1.45 0.94,-1.35 1.09,-1.22 1.24,-1.09 1.35,-0.92 1.46,-0.76 1.53,-0.57 1.60,-0.39 1.63,-0.19 1.65,0.00 1.62,0.20 1.60,0.40 1.60,0.40 L 1.60,0.40 Z"></path></g><g transform="translate(251.59960923285962 25.803927856179115) rotate(1.4511830940465922 0.09585938595084542 10.352974581943698)" stroke="none"><path fill="#1971c2" d="M 2.05,0 Q 2.05,0 2.38,1.21 2.71,2.42 2.66,3.87 2.61,5.32 2.59,6.66 2.57,7.99 2.56,9.39 2.56,10.78 2.60,12.03 2.65,13.28 2.72,14.47 2.79,15.66 2.23,17.89 1.67,20.13 1.64,20.34 1.62,20.55 1.53,20.74 1.44,20.93 1.29,21.09 1.14,21.24 0.95,21.34 0.76,21.44 0.55,21.47 0.34,21.50 0.13,21.46 -0.07,21.43 -0.25,21.33 -0.44,21.23 -0.58,21.07 -0.73,20.92 -0.82,20.72 -0.90,20.53 -0.92,20.32 -0.95,20.11 -0.90,19.90 -0.85,19.69 -0.74,19.51 -0.63,19.33 -0.47,19.19 -0.30,19.06 -0.10,18.98 0.08,18.90 0.30,18.89 0.51,18.88 0.71,18.94 0.92,19.00 1.09,19.12 1.27,19.24 1.39,19.41 1.52,19.58 1.59,19.78 1.65,19.99 1.65,20.20 1.65,20.41 1.58,20.61 1.51,20.81 1.38,20.98 1.25,21.15 1.07,21.27 0.90,21.38 0.69,21.44 0.49,21.49 0.27,21.48 0.06,21.47 -0.13,21.39 -0.32,21.31 -0.48,21.17 -0.64,21.03 -0.75,20.85 -0.86,20.66 -0.90,20.46 -0.95,20.25 -0.95,20.25 -0.95,20.25 -1.79,18.12 -2.63,16.00 -2.72,14.75 -2.80,13.50 -2.85,12.12 -2.91,10.74 -2.90,9.32 -2.89,7.90 -2.86,6.50 -2.83,5.11 -2.77,3.76 -2.71,2.42 -2.38,1.21 -2.05,0 -2.02,-0.24 -1.99,-0.49 -1.90,-0.72 -1.81,-0.95 -1.67,-1.15 -1.53,-1.36 -1.35,-1.52 -1.16,-1.69 -0.94,-1.80 -0.72,-1.92 -0.48,-1.98 -0.24,-2.04 0.00,-2.04 0.24,-2.03 0.48,-1.98 0.72,-1.92 0.94,-1.80 1.16,-1.69 1.35,-1.52 1.53,-1.36 1.67,-1.15 1.81,-0.95 1.90,-0.72 1.99,-0.49 2.02,-0.24 2.05,0.00 2.05,0.00 L 2.05,0 Z"></path></g><g transform="translate(260.83166320625514 33.83495302572237) rotate(1.4511830940465922 5.176479977369496 1.342053344118952)" stroke="none"><path fill="#1971c2" d="M 0.06,-1.57 Q 0.06,-1.57 1.45,-1.93 2.85,-2.30 4.50,-2.33 6.15,-2.36 7.24,-2.57 8.32,-2.78 7.33,-3.80 6.34,-4.81 5.21,-4.32 4.07,-3.82 3.39,-2.74 2.70,-1.66 2.28,0.56 1.85,2.78 1.92,4.47 1.98,6.17 3.22,6.62 4.46,7.08 5.78,7.31 7.09,7.53 8.19,7.64 9.29,7.75 9.48,7.66 9.68,7.57 9.89,7.55 10.10,7.53 10.31,7.57 10.51,7.61 10.70,7.72 10.88,7.83 11.02,7.99 11.16,8.15 11.24,8.35 11.32,8.55 11.33,8.76 11.34,8.97 11.29,9.18 11.23,9.38 11.11,9.56 10.99,9.74 10.82,9.86 10.66,9.99 10.46,10.06 10.25,10.13 10.04,10.13 9.83,10.13 9.63,10.07 9.43,10.00 9.26,9.87 9.09,9.75 8.97,9.57 8.85,9.40 8.79,9.19 8.73,8.99 8.74,8.77 8.75,8.56 8.83,8.36 8.91,8.17 9.04,8.00 9.18,7.84 9.36,7.73 9.54,7.62 9.75,7.57 9.96,7.53 10.17,7.55 10.38,7.57 10.57,7.66 10.77,7.75 10.92,7.89 11.08,8.04 11.18,8.22 11.28,8.41 11.31,8.62 11.35,8.83 11.31,9.04 11.28,9.25 11.18,9.44 11.08,9.63 10.93,9.77 10.78,9.92 10.78,9.92 10.78,9.92 8.89,11.32 6.99,12.72 4.96,12.55 2.94,12.38 1.56,11.91 0.18,11.44 -1.00,10.47 -2.18,9.50 -2.80,8.20 -3.41,6.90 -3.51,5.77 -3.61,4.65 -3.54,3.28 -3.47,1.90 -3.19,0.33 -2.91,-1.23 -1.78,-3.70 -0.65,-6.17 0.38,-7.29 1.43,-8.41 2.42,-8.93 3.41,-9.45 4.54,-9.76 5.66,-10.06 7.33,-9.87 8.99,-9.68 10.71,-8.64 12.42,-7.61 12.98,-6.44 13.54,-5.28 13.72,-4.21 13.89,-3.14 13.63,-1.66 13.37,-0.17 12.50,0.62 11.63,1.42 10.57,1.74 9.50,2.05 7.96,2.28 6.43,2.50 4.54,2.51 2.65,2.52 1.29,2.04 -0.06,1.57 -0.25,1.54 -0.43,1.51 -0.61,1.44 -0.78,1.36 -0.94,1.25 -1.09,1.13 -1.21,0.99 -1.33,0.84 -1.41,0.67 -1.49,0.50 -1.53,0.31 -1.57,0.12 -1.56,-0.06 -1.55,-0.25 -1.50,-0.43 -1.45,-0.61 -1.35,-0.78 -1.26,-0.94 -1.13,-1.08 -0.99,-1.22 -0.83,-1.32 -0.67,-1.42 -0.49,-1.48 -0.31,-1.54 -0.12,-1.56 0.06,-1.57 0.06,-1.57 L 0.06,-1.57 Z"></path></g><g transform="translate(274.701503156552 31.508609297462186) rotate(1.4511830940465922 5.4640654488244 1.2461939581681207)" stroke="none"><path fill="#1971c2" d="M 1.88,-0.44 Q 1.88,-0.44 2.43,0.64 2.98,1.73 3.21,2.87 3.44,4.00 3.82,5.60 4.19,7.20 4.51,8.15 4.83,9.11 4.86,9.42 4.89,9.74 4.84,10.05 4.79,10.37 4.67,10.66 4.55,10.95 4.37,11.21 4.18,11.47 3.94,11.67 3.69,11.87 3.41,12.01 3.12,12.15 2.81,12.22 2.50,12.29 2.18,12.28 1.87,12.27 1.56,12.19 1.25,12.10 0.98,11.95 0.70,11.79 0.47,11.58 0.24,11.36 0.06,11.09 -0.10,10.83 -0.20,10.53 -0.31,10.23 -0.53,8.72 -0.75,7.20 -0.96,5.92 -1.17,4.64 -1.37,3.22 -1.57,1.81 -1.62,0.36 -1.67,-1.08 -1.58,-2.19 -1.49,-3.29 -1.13,-4.40 -0.77,-5.50 0.28,-6.58 1.33,-7.65 3.35,-8.58 5.38,-9.51 7.89,-9.04 10.41,-8.57 10.62,-8.55 10.83,-8.52 11.02,-8.43 11.21,-8.34 11.36,-8.19 11.51,-8.04 11.61,-7.85 11.71,-7.66 11.74,-7.45 11.77,-7.24 11.73,-7.03 11.69,-6.82 11.59,-6.64 11.49,-6.45 11.33,-6.31 11.18,-6.16 10.98,-6.08 10.79,-5.99 10.58,-5.97 10.36,-5.95 10.16,-6.00 9.95,-6.05 9.77,-6.16 9.59,-6.28 9.46,-6.44 9.32,-6.60 9.24,-6.80 9.17,-7.00 9.16,-7.21 9.15,-7.43 9.21,-7.63 9.27,-7.83 9.40,-8.01 9.52,-8.18 9.69,-8.31 9.86,-8.43 10.06,-8.50 10.27,-8.56 10.48,-8.56 10.69,-8.56 10.89,-8.48 11.09,-8.41 11.26,-8.28 11.42,-8.15 11.54,-7.97 11.66,-7.79 11.71,-7.59 11.76,-7.38 11.75,-7.17 11.73,-6.96 11.65,-6.76 11.57,-6.57 11.43,-6.41 11.29,-6.25 11.11,-6.14 10.92,-6.03 10.71,-5.99 10.51,-5.95 10.51,-5.95 10.51,-5.95 8.71,-5.27 6.91,-4.59 5.36,-4.02 3.82,-3.45 3.55,-2.31 3.28,-1.17 3.27,-0.00 3.27,1.16 3.44,2.55 3.62,3.93 3.77,5.07 3.92,6.22 4.37,7.66 4.83,9.11 4.86,9.42 4.89,9.74 4.84,10.05 4.79,10.37 4.67,10.66 4.55,10.95 4.37,11.21 4.18,11.47 3.94,11.67 3.69,11.87 3.41,12.01 3.12,12.15 2.81,12.22 2.50,12.29 2.18,12.28 1.87,12.27 1.56,12.19 1.26,12.10 0.98,11.95 0.70,11.79 0.47,11.58 0.24,11.36 0.06,11.09 -0.10,10.83 -0.20,10.53 -0.31,10.23 -0.48,9.30 -0.66,8.37 -1.04,6.69 -1.42,5.01 -1.65,3.95 -1.87,2.89 -1.87,1.67 -1.88,0.44 -1.90,0.21 -1.93,-0.01 -1.90,-0.24 -1.87,-0.47 -1.78,-0.69 -1.70,-0.91 -1.57,-1.10 -1.43,-1.29 -1.26,-1.44 -1.08,-1.60 -0.87,-1.70 -0.67,-1.81 -0.44,-1.86 -0.21,-1.92 0.01,-1.91 0.24,-1.91 0.47,-1.86 0.70,-1.80 0.90,-1.69 1.11,-1.58 1.28,-1.42 1.45,-1.27 1.58,-1.07 1.71,-0.88 1.80,-0.66 1.88,-0.44 1.88,-0.44 L 1.88,-0.44 Z"></path></g><g transform="translate(173.99791620646405 14.15939629405591) rotate(1.4511830940465922 -3.4509890894471056 11.599161226509466)" stroke="none"><path fill="#1971c2" d="M -1.62,0.62 Q -1.62,0.62 -2.26,0.09 -2.91,-0.44 -4.36,0.01 -5.81,0.47 -7.39,1.35 -8.96,2.24 -7.94,3.77 -6.92,5.30 -5.28,6.36 -3.65,7.41 -2.12,8.63 -0.60,9.86 0.90,11.13 2.41,12.40 3.63,13.62 4.85,14.85 5.67,16.13 6.50,17.41 6.94,18.84 7.39,20.26 7.30,21.76 7.21,23.27 6.30,24.73 5.40,26.19 3.88,27.20 2.35,28.21 0.92,28.80 -0.51,29.38 -2.41,29.58 -4.31,29.77 -5.98,29.31 -7.65,28.84 -8.84,27.82 -10.02,26.80 -10.75,25.25 -11.47,23.71 -11.77,22.37 -12.08,21.02 -12.14,19.47 -12.19,17.91 -11.95,16.27 -11.70,14.62 -11.03,12.92 -10.36,11.21 -9.17,9.52 -7.99,7.83 -6.95,6.71 -5.91,5.60 -4.16,4.19 -2.42,2.77 -0.91,1.68 0.60,0.58 1.60,-0.58 2.59,-1.76 1.22,-1.60 -0.13,-1.44 -3.11,-0.82 -6.08,-0.20 -6.28,-0.13 -6.48,-0.06 -6.69,-0.06 -6.90,-0.06 -7.10,-0.12 -7.31,-0.19 -7.48,-0.32 -7.65,-0.44 -7.77,-0.62 -7.89,-0.79 -7.95,-1.00 -8.01,-1.20 -8.00,-1.41 -7.99,-1.62 -7.91,-1.82 -7.83,-2.02 -7.70,-2.18 -7.56,-2.35 -7.38,-2.46 -7.20,-2.57 -6.99,-2.62 -6.79,-2.67 -6.57,-2.64 -6.36,-2.62 -6.17,-2.54 -5.98,-2.45 -5.82,-2.30 -5.66,-2.16 -5.56,-1.97 -5.46,-1.79 -5.43,-1.58 -5.39,-1.37 -5.42,-1.16 -5.45,-0.95 -5.55,-0.76 -5.65,-0.57 -5.80,-0.42 -5.96,-0.27 -6.15,-0.18 -6.34,-0.09 -6.55,-0.07 -6.76,-0.04 -6.97,-0.09 -7.18,-0.13 -7.36,-0.24 -7.54,-0.35 -7.68,-0.51 -7.82,-0.67 -7.90,-0.86 -7.98,-1.06 -8.00,-1.27 -8.01,-1.48 -7.95,-1.69 -7.90,-1.90 -7.78,-2.07 -7.66,-2.25 -7.50,-2.38 -7.33,-2.51 -7.33,-2.51 -7.33,-2.51 -5.20,-3.96 -3.08,-5.41 -1.32,-6.00 0.43,-6.58 1.80,-6.47 3.17,-6.35 4.46,-5.75 5.74,-5.15 6.57,-4.24 7.39,-3.34 7.74,-2.06 8.08,-0.78 7.77,0.35 7.45,1.48 6.73,2.39 6.00,3.31 4.96,4.25 3.91,5.18 2.52,6.18 1.13,7.18 -0.32,8.35 -1.79,9.52 -2.58,10.35 -3.38,11.17 -4.19,12.23 -4.99,13.28 -5.38,14.40 -5.77,15.52 -5.93,16.63 -6.08,17.74 -5.92,19.66 -5.76,21.58 -5.09,22.81 -4.43,24.03 -2.45,23.73 -0.46,23.42 0.84,22.46 2.15,21.50 1.58,20.04 1.02,18.58 -0.00,17.52 -1.04,16.46 -2.49,15.21 -3.94,13.96 -5.23,12.89 -6.53,11.81 -8.41,10.57 -10.30,9.32 -11.30,8.46 -12.31,7.60 -13.40,6.16 -14.48,4.72 -14.57,3.39 -14.66,2.05 -14.12,0.90 -13.58,-0.24 -12.68,-1.14 -11.78,-2.03 -10.69,-2.71 -9.61,-3.39 -8.38,-3.89 -7.15,-4.40 -5.80,-4.74 -4.46,-5.08 -2.00,-4.58 0.44,-4.08 1.12,-3.25 1.80,-2.42 1.71,-1.52 1.62,-0.62 1.67,-0.42 1.72,-0.21 1.73,-0.00 1.73,0.20 1.68,0.40 1.63,0.61 1.53,0.79 1.43,0.98 1.30,1.14 1.16,1.29 0.98,1.42 0.81,1.54 0.62,1.61 0.42,1.69 0.21,1.71 0.00,1.74 -0.20,1.71 -0.40,1.69 -0.60,1.62 -0.80,1.54 -0.97,1.42 -1.15,1.31 -1.29,1.15 -1.43,0.99 -1.52,0.81 -1.62,0.62 -1.62,0.62 L -1.62,0.62 Z"></path></g><g transform="translate(184.4852018896018 27.31977567075242) rotate(1.4511830940465922 6.039236391734207 0.9586084867132314)" stroke="none"><path fill="#1971c2" d="M -0.05,-1.74 Q -0.05,-1.74 1.58,-2.23 3.21,-2.72 5.02,-3.12 6.82,-3.53 7.92,-4.15 9.02,-4.76 7.90,-5.15 6.77,-5.54 5.58,-5.45 4.39,-5.35 3.65,-4.49 2.92,-3.63 2.12,-1.28 1.32,1.06 1.11,2.47 0.89,3.87 1.30,5.35 1.71,6.82 2.81,7.05 3.91,7.28 5.12,7.13 6.33,6.99 8.46,6.49 10.60,5.98 11.81,5.48 13.01,4.98 13.20,4.88 13.38,4.77 13.59,4.72 13.79,4.68 14.00,4.70 14.22,4.72 14.41,4.81 14.60,4.90 14.75,5.05 14.91,5.20 15.01,5.39 15.11,5.57 15.14,5.78 15.17,5.99 15.14,6.20 15.10,6.41 15.00,6.60 14.90,6.79 14.75,6.93 14.59,7.08 14.40,7.17 14.21,7.26 14.00,7.28 13.78,7.30 13.58,7.25 13.37,7.21 13.19,7.10 13.01,6.99 12.87,6.82 12.73,6.66 12.65,6.46 12.58,6.27 12.57,6.05 12.56,5.84 12.61,5.64 12.67,5.43 12.79,5.26 12.91,5.08 13.08,4.95 13.25,4.83 13.45,4.76 13.65,4.69 13.86,4.69 14.08,4.69 14.28,4.76 14.48,4.83 14.65,4.96 14.82,5.09 14.94,5.26 15.05,5.44 15.11,5.65 15.17,5.85 15.15,6.06 15.14,6.28 15.06,6.47 14.98,6.67 14.85,6.83 14.71,6.99 14.71,6.99 14.71,6.99 13.58,8.46 12.46,9.93 11.10,10.83 9.73,11.74 8.31,12.18 6.88,12.63 4.84,12.79 2.80,12.96 0.84,12.37 -1.12,11.77 -2.23,10.68 -3.34,9.58 -4.04,7.90 -4.75,6.23 -4.74,4.59 -4.73,2.96 -4.42,1.21 -4.11,-0.53 -3.54,-2.38 -2.97,-4.24 -2.14,-5.81 -1.31,-7.38 -0.35,-8.38 0.60,-9.39 2.11,-10.18 3.61,-10.97 4.80,-11.08 5.99,-11.18 7.52,-10.98 9.05,-10.77 10.79,-9.61 12.53,-8.45 13.25,-7.43 13.97,-6.41 14.15,-5.32 14.33,-4.23 13.97,-3.03 13.61,-1.84 12.80,-0.98 11.99,-0.12 10.14,0.77 8.29,1.66 7.10,1.96 5.90,2.25 4.65,2.37 3.39,2.50 1.72,2.12 0.05,1.74 -0.15,1.72 -0.36,1.70 -0.56,1.64 -0.76,1.57 -0.93,1.45 -1.11,1.34 -1.25,1.19 -1.40,1.03 -1.50,0.85 -1.61,0.67 -1.66,0.47 -1.72,0.26 -1.73,0.05 -1.74,-0.15 -1.69,-0.35 -1.65,-0.56 -1.56,-0.75 -1.47,-0.94 -1.33,-1.10 -1.20,-1.26 -1.03,-1.39 -0.86,-1.51 -0.66,-1.60 -0.47,-1.68 -0.26,-1.71 -0.05,-1.74 -0.05,-1.74 L -0.05,-1.74 Z"></path></g><g transform="translate(201.58948926296773 23.503043669381128) rotate(1.4511830940465922 4.7930424335661 3.3551297034962744)" stroke="none"><path fill="#1971c2" d="M 1.84,-0.39 Q 1.84,-0.39 2.67,1.55 3.50,3.51 3.74,4.58 3.99,5.66 4.22,6.89 4.46,8.12 4.65,9.23 4.84,10.34 4.79,10.44 4.74,10.54 4.78,10.86 4.81,11.18 4.76,11.50 4.72,11.82 4.60,12.12 4.48,12.42 4.29,12.68 4.10,12.95 3.85,13.16 3.60,13.37 3.32,13.51 3.03,13.65 2.71,13.72 2.39,13.80 2.07,13.79 1.75,13.78 1.44,13.70 1.12,13.61 0.84,13.46 0.56,13.30 0.32,13.08 0.08,12.86 -0.09,12.59 -0.26,12.32 -0.37,12.02 -0.48,11.71 -0.61,10.44 -0.74,9.16 -0.89,7.82 -1.04,6.49 -1.17,5.12 -1.29,3.74 -1.30,2.39 -1.30,1.03 -1.14,-0.20 -0.98,-1.44 -0.50,-2.59 -0.02,-3.73 1.12,-4.83 2.27,-5.93 5.74,-5.75 9.20,-5.57 9.41,-5.52 9.61,-5.46 9.79,-5.34 9.97,-5.22 10.10,-5.06 10.23,-4.89 10.30,-4.69 10.36,-4.49 10.37,-4.27 10.37,-4.06 10.30,-3.86 10.23,-3.66 10.11,-3.49 9.98,-3.32 9.80,-3.20 9.63,-3.08 9.42,-3.02 9.22,-2.96 9.01,-2.97 8.80,-2.98 8.60,-3.06 8.40,-3.14 8.24,-3.27 8.07,-3.41 7.96,-3.59 7.85,-3.77 7.81,-3.98 7.76,-4.19 7.78,-4.40 7.80,-4.61 7.89,-4.80 7.98,-5.00 8.12,-5.15 8.27,-5.31 8.46,-5.41 8.64,-5.51 8.85,-5.54 9.06,-5.58 9.27,-5.55 9.48,-5.51 9.67,-5.41 9.86,-5.32 10.01,-5.16 10.15,-5.01 10.24,-4.82 10.33,-4.62 10.36,-4.41 10.38,-4.20 10.34,-3.99 10.29,-3.79 10.18,-3.60 10.08,-3.42 9.91,-3.28 9.75,-3.14 9.56,-3.06 9.36,-2.98 9.15,-2.97 8.94,-2.96 8.94,-2.96 8.94,-2.96 6.84,-2.12 4.74,-1.29 4.36,-0.11 3.98,1.06 3.97,2.16 3.95,3.26 4.07,4.56 4.20,5.86 4.47,8.20 4.74,10.54 4.78,10.86 4.81,11.18 4.76,11.50 4.72,11.82 4.60,12.12 4.48,12.42 4.29,12.68 4.10,12.95 3.85,13.16 3.60,13.37 3.32,13.51 3.03,13.65 2.71,13.72 2.40,13.80 2.07,13.79 1.75,13.78 1.44,13.70 1.12,13.61 0.84,13.46 0.56,13.30 0.32,13.08 0.08,12.86 -0.09,12.59 -0.26,12.32 -0.37,12.02 -0.48,11.71 -0.50,11.57 -0.51,11.43 -0.69,10.26 -0.87,9.09 -1.06,7.96 -1.26,6.83 -1.50,5.74 -1.74,4.64 -1.79,2.52 -1.84,0.39 -1.86,0.17 -1.88,-0.05 -1.85,-0.27 -1.82,-0.50 -1.73,-0.71 -1.64,-0.92 -1.51,-1.10 -1.37,-1.29 -1.20,-1.43 -1.02,-1.58 -0.82,-1.68 -0.61,-1.78 -0.39,-1.83 -0.17,-1.88 0.05,-1.87 0.28,-1.86 0.50,-1.80 0.72,-1.74 0.91,-1.63 1.11,-1.52 1.28,-1.36 1.44,-1.21 1.57,-1.02 1.69,-0.82 1.77,-0.61 1.84,-0.39 1.84,-0.39 L 1.84,-0.39 Z"></path></g><g transform="translate(119.02785753045544 189.47384268679542) rotate(1.4511830940465922 -0.7847340535143985 21.449736733826597)" stroke="none"><path fill="#1e1e1e" d="M -1.41,0.56 Q -1.41,0.56 -2.06,-0.02 -2.71,-0.61 -3.07,-0.92 -3.43,-1.23 -3.51,-1.51 -3.58,-1.80 -3.59,-2.09 -3.59,-2.39 -3.53,-2.68 -3.46,-2.97 -3.33,-3.23 -3.20,-3.50 -3.00,-3.72 -2.81,-3.94 -2.57,-4.12 -2.33,-4.29 -2.06,-4.40 -1.78,-4.51 -1.49,-4.55 -1.20,-4.59 -0.90,-4.56 -0.61,-4.53 -0.33,-4.43 -0.05,-4.33 0.18,-4.17 0.43,-4.00 0.63,-3.79 0.83,-3.57 0.97,-3.31 1.11,-3.05 1.31,-1.76 1.50,-0.48 1.72,2.68 1.94,5.85 2.17,8.91 2.39,11.97 2.49,15.60 2.59,19.24 2.64,23.33 2.70,27.43 2.87,30.75 3.05,34.07 3.12,36.75 3.20,39.42 2.04,41.27 0.88,43.11 0.86,43.27 0.85,43.43 0.79,43.58 0.74,43.73 0.66,43.86 0.57,43.99 0.45,44.10 0.34,44.21 0.20,44.29 0.06,44.36 -0.08,44.41 -0.23,44.45 -0.39,44.45 -0.55,44.46 -0.71,44.42 -0.86,44.39 -1.00,44.32 -1.14,44.25 -1.27,44.15 -1.39,44.04 -1.48,43.92 -1.57,43.79 -1.63,43.64 -1.69,43.50 -1.72,43.34 -1.74,43.18 -1.74,43.18 -1.74,43.17 -1.71,42.96 -1.68,42.75 -1.58,42.56 -1.49,42.37 -1.34,42.22 -1.19,42.08 -0.99,41.98 -0.80,41.89 -0.59,41.86 -0.38,41.84 -0.17,41.88 0.02,41.92 0.21,42.02 0.39,42.13 0.53,42.29 0.67,42.45 0.76,42.64 0.84,42.84 0.86,43.05 0.87,43.26 0.82,43.47 0.77,43.68 0.65,43.85 0.53,44.03 0.37,44.16 0.20,44.30 0.00,44.37 -0.19,44.44 -0.40,44.44 -0.61,44.45 -0.82,44.38 -1.02,44.32 -1.19,44.20 -1.36,44.07 -1.49,43.90 -1.61,43.72 -1.67,43.52 -1.73,43.32 -1.72,43.10 -1.71,42.89 -1.64,42.69 -1.57,42.49 -1.43,42.33 -1.30,42.16 -1.12,42.05 -0.94,41.94 -0.73,41.89 -0.52,41.84 -0.31,41.86 -0.10,41.88 0.08,41.96 0.28,42.05 0.44,42.19 0.59,42.33 0.70,42.52 0.80,42.70 0.84,42.91 0.88,43.11 0.86,43.27 0.85,43.43 0.79,43.58 0.74,43.73 0.66,43.86 0.57,43.99 0.45,44.10 0.34,44.21 0.20,44.29 0.06,44.36 -0.08,44.41 -0.23,44.45 -0.39,44.45 -0.55,44.46 -0.71,44.42 -0.86,44.39 -1.00,44.32 -1.14,44.25 -1.27,44.15 -1.39,44.05 -1.48,43.92 -1.57,43.79 -1.63,43.64 -1.69,43.50 -1.72,43.34 -1.74,43.18 -2.58,41.39 -3.41,39.60 -3.47,37.00 -3.54,34.39 -3.69,30.94 -3.85,27.49 -3.87,23.44 -3.89,19.39 -3.97,15.90 -4.04,12.40 -4.23,9.31 -4.42,6.21 -4.52,3.78 -4.63,1.35 -4.03,0.06 -3.43,-1.23 -3.51,-1.51 -3.58,-1.80 -3.59,-2.09 -3.59,-2.39 -3.53,-2.68 -3.46,-2.97 -3.33,-3.23 -3.20,-3.49 -3.00,-3.72 -2.81,-3.94 -2.57,-4.12 -2.33,-4.29 -2.06,-4.40 -1.78,-4.51 -1.49,-4.55 -1.20,-4.59 -0.90,-4.56 -0.61,-4.53 -0.33,-4.43 -0.05,-4.33 0.18,-4.17 0.43,-4.00 0.63,-3.79 0.83,-3.57 0.97,-3.31 1.11,-3.05 1.31,-2.72 1.51,-2.39 1.46,-1.47 1.41,-0.56 1.45,-0.38 1.50,-0.21 1.50,-0.02 1.51,0.15 1.47,0.33 1.43,0.51 1.34,0.67 1.26,0.84 1.14,0.98 1.02,1.11 0.87,1.22 0.73,1.33 0.56,1.40 0.39,1.46 0.20,1.49 0.02,1.51 -0.15,1.50 -0.33,1.48 -0.50,1.42 -0.68,1.35 -0.83,1.25 -0.98,1.15 -1.11,1.02 -1.23,0.88 -1.32,0.72 -1.41,0.56 -1.41,0.56 L -1.41,0.56 Z"></path></g><g transform="translate(94.01588128894772 209.31560220998796) rotate(1.4511830940465922 22.757626823017233 -2.3542420747902213)" stroke="none"><path fill="#1e1e1e" d="M -0.14,-2.38 Q -0.14,-2.38 2.39,-2.88 4.93,-3.38 7.55,-3.77 10.17,-4.17 12.05,-4.48 13.92,-4.80 17.69,-5.55 21.46,-6.31 24.49,-6.80 27.52,-7.28 29.80,-7.50 32.07,-7.71 34.28,-7.80 36.48,-7.90 38.17,-7.93 39.85,-7.97 42.76,-6.74 45.66,-5.52 45.85,-5.42 46.04,-5.32 46.18,-5.16 46.33,-5.00 46.42,-4.81 46.50,-4.62 46.53,-4.41 46.55,-4.20 46.50,-3.99 46.45,-3.78 46.34,-3.60 46.23,-3.42 46.07,-3.28 45.91,-3.14 45.71,-3.07 45.51,-2.99 45.30,-2.98 45.09,-2.97 44.88,-3.03 44.68,-3.09 44.50,-3.21 44.33,-3.33 44.20,-3.50 44.07,-3.67 44.01,-3.87 43.94,-4.07 43.94,-4.28 43.94,-4.49 44.01,-4.69 44.08,-4.90 44.21,-5.06 44.34,-5.23 44.52,-5.35 44.69,-5.47 44.90,-5.52 45.10,-5.58 45.31,-5.57 45.53,-5.56 45.72,-5.48 45.92,-5.40 46.08,-5.26 46.24,-5.12 46.35,-4.94 46.46,-4.75 46.50,-4.55 46.55,-4.34 46.52,-4.13 46.50,-3.92 46.41,-3.72 46.32,-3.53 46.17,-3.38 46.03,-3.22 45.84,-3.13 45.65,-3.03 45.44,-2.99 45.23,-2.96 45.02,-3.00 44.81,-3.03 44.81,-3.03 44.81,-3.03 42.40,-2.18 40.00,-1.33 38.37,-1.30 36.74,-1.26 34.70,-1.19 32.66,-1.12 30.60,-0.94 28.53,-0.76 25.61,-0.33 22.69,0.10 18.81,0.81 14.93,1.51 12.97,1.81 11.01,2.11 8.15,2.44 5.29,2.78 2.71,2.58 0.14,2.38 -0.14,2.36 -0.43,2.34 -0.70,2.25 -0.98,2.17 -1.22,2.02 -1.47,1.87 -1.67,1.67 -1.87,1.46 -2.02,1.22 -2.17,0.97 -2.26,0.70 -2.34,0.42 -2.36,0.13 -2.38,-0.14 -2.32,-0.43 -2.27,-0.71 -2.15,-0.97 -2.03,-1.23 -1.86,-1.46 -1.68,-1.68 -1.45,-1.86 -1.23,-2.04 -0.96,-2.16 -0.70,-2.27 -0.42,-2.32 -0.13,-2.38 -0.13,-2.38 L -0.14,-2.38 Z"></path></g><g transform="translate(103.55636015196535 317.0427180748558) rotate(1.4511830940465922 169.50513002804294 -9.940104377713624)" stroke="none"><path fill="#1e1e1e" d="M -1.02,1.02 Q -1.02,1.02 -1.63,0.62 -2.24,0.22 -2.76,-0.40 -3.28,-1.02 -3.31,-1.26 -3.33,-1.50 -3.29,-1.74 -3.26,-1.98 -3.16,-2.21 -3.07,-2.43 -2.93,-2.63 -2.78,-2.82 -2.60,-2.98 -2.41,-3.13 -2.19,-3.24 -1.97,-3.35 -1.74,-3.40 -1.50,-3.45 -1.26,-3.44 -1.02,-3.44 -0.78,-3.37 -0.55,-3.31 -0.34,-3.19 -0.12,-3.07 0.04,-2.90 0.22,-2.73 0.35,-2.53 0.48,-2.33 0.56,-2.10 0.64,-1.87 -1.36,-1.45 -3.37,-1.04 -3.40,-1.31 -3.42,-1.58 -3.38,-1.85 -3.34,-2.12 -3.24,-2.37 -3.13,-2.62 -2.97,-2.84 -2.81,-3.06 -2.60,-3.24 -2.39,-3.41 -2.14,-3.53 -1.90,-3.65 -1.63,-3.71 -1.37,-3.77 -1.09,-3.76 -0.82,-3.75 -0.56,-3.68 -0.29,-3.61 -0.06,-3.47 0.17,-3.34 0.37,-3.15 0.57,-2.96 0.72,-2.74 0.87,-2.51 0.96,-2.25 1.04,-1.99 -1.31,-1.52 -3.67,-1.05 -3.69,-1.33 -3.72,-1.61 -3.68,-1.89 -3.64,-2.17 -3.53,-2.43 -3.42,-2.69 -3.26,-2.91 -3.09,-3.14 -2.87,-3.32 -2.66,-3.50 -2.41,-3.62 -2.15,-3.74 -1.88,-3.80 -1.60,-3.86 -1.32,-3.85 -1.04,-3.85 -0.77,-3.77 -0.50,-3.70 -0.26,-3.56 -0.01,-3.42 0.18,-3.23 0.39,-3.04 0.54,-2.80 0.69,-2.56 0.78,-2.30 0.88,-2.03 -0.24,-3.14 -1.36,-4.25 0.01,-4.54 1.38,-4.82 3.31,-5.05 5.24,-5.28 6.60,-5.38 7.95,-5.48 9.93,-5.67 11.90,-5.86 13.09,-6.08 14.28,-6.30 16.38,-6.43 18.47,-6.55 20.37,-6.61 22.28,-6.66 24.34,-6.83 26.40,-7.01 28.95,-7.24 31.51,-7.48 33.77,-7.73 36.03,-7.97 38.36,-8.23 40.68,-8.49 43.74,-8.61 46.80,-8.74 49.28,-8.78 51.76,-8.83 54.02,-8.85 56.29,-8.87 58.81,-9.03 61.34,-9.19 63.92,-9.41 66.50,-9.63 69.10,-9.87 71.70,-10.11 74.46,-10.37 77.23,-10.63 79.90,-10.89 82.57,-11.15 85.53,-11.41 88.49,-11.67 91.23,-11.93 93.98,-12.19 97.28,-12.45 100.58,-12.72 103.30,-12.98 106.02,-13.24 108.62,-13.36 111.22,-13.47 114.14,-13.52 117.06,-13.57 120.56,-13.59 124.06,-13.62 127.04,-13.63 130.03,-13.64 133.77,-13.49 137.52,-13.35 140.55,-13.29 143.58,-13.23 146.52,-13.20 149.46,-13.17 153.18,-13.01 156.90,-12.85 159.63,-12.78 162.36,-12.71 165.31,-12.69 168.27,-12.66 171.48,-12.65 174.69,-12.64 177.50,-12.50 180.31,-12.36 182.36,-12.45 184.42,-12.54 186.90,-12.58 189.38,-12.62 192.39,-12.64 195.40,-12.66 198.09,-12.81 200.79,-12.97 203.27,-13.19 205.76,-13.40 209.19,-13.50 212.61,-13.60 215.16,-13.79 217.71,-13.98 219.82,-14.21 221.93,-14.44 224.68,-14.69 227.43,-14.95 230.08,-15.20 232.74,-15.46 234.84,-15.57 236.94,-15.69 238.62,-15.88 240.29,-16.07 242.06,-16.30 243.84,-16.54 246.09,-16.65 248.35,-16.76 250.86,-16.95 253.36,-17.14 254.94,-17.23 256.51,-17.31 258.13,-17.49 259.74,-17.67 261.47,-17.75 263.20,-17.84 265.60,-17.88 268.00,-17.91 269.78,-18.07 271.56,-18.23 273.03,-18.31 274.50,-18.38 276.05,-18.41 277.60,-18.45 279.47,-18.46 281.33,-18.47 283.36,-18.62 285.38,-18.78 287.53,-18.69 289.69,-18.61 291.08,-18.73 292.48,-18.84 293.96,-18.89 295.45,-18.94 297.00,-18.97 298.54,-18.99 300.26,-19.15 301.99,-19.30 303.90,-19.38 305.82,-19.45 307.72,-19.63 309.61,-19.80 311.12,-19.88 312.63,-19.97 314.03,-20.14 315.44,-20.32 316.78,-20.41 318.12,-20.49 320.43,-20.67 322.74,-20.85 324.22,-20.93 325.70,-21.02 326.76,-21.19 327.81,-21.36 328.90,-21.46 329.98,-21.56 331.23,-21.62 332.48,-21.69 333.68,-21.70 334.88,-21.72 336.04,-21.96 337.19,-22.20 338.58,-21.64 339.97,-21.07 340.13,-21.07 340.28,-21.06 340.44,-21.02 340.59,-20.97 340.73,-20.89 340.86,-20.82 340.98,-20.71 341.09,-20.60 341.18,-20.46 341.26,-20.33 341.31,-20.18 341.36,-20.03 341.38,-19.87 341.39,-19.71 341.36,-19.56 341.34,-19.40 341.28,-19.26 341.21,-19.11 341.12,-18.98 341.03,-18.86 340.90,-18.76 340.78,-18.66 340.64,-18.59 340.49,-18.52 340.34,-18.49 340.18,-18.45 339.48,-19.18 338.77,-19.91 338.83,-20.11 338.88,-20.32 339.00,-20.49 339.12,-20.67 339.29,-20.80 339.46,-20.92 339.66,-20.99 339.87,-21.06 340.08,-21.06 340.29,-21.06 340.49,-20.99 340.69,-20.92 340.86,-20.79 341.03,-20.67 341.15,-20.49 341.27,-20.31 341.33,-20.11 341.38,-19.90 341.37,-19.69 341.36,-19.48 341.28,-19.28 341.20,-19.08 341.06,-18.92 340.92,-18.76 340.74,-18.65 340.56,-18.54 340.35,-18.50 340.15,-18.45 339.93,-18.48 339.72,-18.50 339.53,-18.59 339.34,-18.68 339.18,-18.82 339.03,-18.97 338.93,-19.16 338.83,-19.35 338.80,-19.56 338.76,-19.77 338.80,-19.98 338.83,-20.18 338.93,-20.37 339.03,-20.56 339.19,-20.71 339.34,-20.85 339.53,-20.94 339.73,-21.03 339.94,-21.05 340.15,-21.07 340.36,-21.03 340.56,-20.98 340.75,-20.87 340.93,-20.76 341.07,-20.60 341.20,-20.44 341.28,-20.24 341.36,-20.04 340.66,-20.56 339.97,-21.07 340.13,-21.07 340.28,-21.06 340.44,-21.02 340.59,-20.97 340.72,-20.89 340.86,-20.82 340.98,-20.71 341.09,-20.60 341.18,-20.46 341.26,-20.33 341.31,-20.18 341.36,-20.03 341.38,-19.87 341.39,-19.71 341.36,-19.56 341.34,-19.40 341.28,-19.26 341.21,-19.11 341.12,-18.98 341.03,-18.86 340.90,-18.76 340.78,-18.66 340.64,-18.59 340.49,-18.52 340.34,-18.49 340.18,-18.45 338.89,-17.02 337.59,-15.59 335.95,-15.24 334.31,-14.88 333.07,-14.87 331.83,-14.87 330.32,-14.79 328.82,-14.71 327.44,-14.51 326.07,-14.32 324.66,-14.24 323.26,-14.17 320.90,-13.98 318.54,-13.79 317.39,-13.73 316.24,-13.66 314.61,-13.47 312.98,-13.28 311.60,-13.21 310.21,-13.14 308.14,-12.96 306.07,-12.77 304.31,-12.71 302.56,-12.65 300.60,-12.49 298.63,-12.33 297.16,-12.31 295.68,-12.30 294.32,-12.25 292.96,-12.20 291.18,-12.09 289.41,-11.97 287.63,-12.06 285.86,-12.14 283.62,-11.99 281.37,-11.83 279.55,-11.81 277.73,-11.80 276.28,-11.77 274.83,-11.74 273.48,-11.68 272.13,-11.61 270.12,-11.44 268.10,-11.27 265.81,-11.24 263.52,-11.22 261.99,-11.14 260.46,-11.07 258.66,-10.88 256.87,-10.69 255.36,-10.61 253.86,-10.53 251.26,-10.33 248.66,-10.14 246.67,-10.05 244.69,-9.97 242.85,-9.73 241.02,-9.50 239.16,-9.29 237.30,-9.09 235.33,-8.99 233.37,-8.88 230.70,-8.63 228.03,-8.38 225.33,-8.13 222.63,-7.89 220.40,-7.66 218.18,-7.42 215.49,-7.23 212.80,-7.04 209.56,-6.96 206.32,-6.87 203.74,-6.65 201.16,-6.43 198.30,-6.28 195.43,-6.12 192.46,-6.11 189.48,-6.10 187.07,-6.07 184.67,-6.04 182.30,-5.96 179.94,-5.88 177.30,-6.05 174.67,-6.22 171.44,-6.23 168.21,-6.25 165.20,-6.28 162.20,-6.31 159.41,-6.38 156.62,-6.45 153.01,-6.61 149.40,-6.77 146.43,-6.80 143.45,-6.83 140.36,-6.89 137.26,-6.95 133.65,-7.10 130.05,-7.25 127.07,-7.25 124.09,-7.24 120.63,-7.22 117.17,-7.21 114.34,-7.16 111.50,-7.11 109.06,-7.01 106.62,-6.90 103.85,-6.64 101.08,-6.38 97.83,-6.12 94.58,-5.86 91.81,-5.60 89.05,-5.34 86.12,-5.08 83.18,-4.82 80.50,-4.57 77.81,-4.31 75.05,-4.06 72.28,-3.81 69.65,-3.56 67.02,-3.32 64.37,-3.10 61.73,-2.88 59.03,-2.73 56.34,-2.57 54.11,-2.55 51.88,-2.53 49.45,-2.49 47.03,-2.44 44.19,-2.35 41.36,-2.26 39.03,-2.01 36.70,-1.76 34.37,-1.51 32.04,-1.27 29.46,-1.06 26.88,-0.86 24.65,-0.70 22.42,-0.53 20.59,-0.50 18.77,-0.47 17.04,-0.41 15.31,-0.35 13.87,-0.11 12.44,0.11 10.36,0.28 8.28,0.45 7.18,0.49 6.08,0.53 4.79,0.69 3.50,0.84 2.39,0.82 1.27,0.80 0.12,0.96 -1.02,1.13 -2.35,0.03 -3.67,-1.05 -3.69,-1.33 -3.72,-1.61 -3.68,-1.89 -3.64,-2.17 -3.53,-2.43 -3.42,-2.68 -3.26,-2.91 -3.09,-3.14 -2.87,-3.32 -2.66,-3.50 -2.41,-3.62 -2.15,-3.74 -1.88,-3.80 -1.61,-3.86 -1.32,-3.85 -1.04,-3.85 -0.77,-3.77 -0.50,-3.70 -0.26,-3.56 -0.01,-3.42 0.18,-3.23 0.39,-3.04 0.54,-2.80 0.69,-2.56 0.78,-2.30 0.88,-2.03 -1.24,-1.53 -3.37,-1.04 -3.40,-1.31 -3.42,-1.58 -3.38,-1.85 -3.34,-2.12 -3.24,-2.37 -3.13,-2.62 -2.97,-2.84 -2.81,-3.06 -2.60,-3.24 -2.39,-3.41 -2.14,-3.53 -1.90,-3.65 -1.63,-3.71 -1.37,-3.77 -1.09,-3.76 -0.82,-3.75 -0.56,-3.68 -0.29,-3.61 -0.06,-3.47 0.17,-3.34 0.37,-3.15 0.57,-2.96 0.72,-2.74 0.87,-2.51 0.96,-2.25 1.04,-1.99 -1.11,-1.50 -3.28,-1.02 -3.31,-1.26 -3.33,-1.50 -3.29,-1.74 -3.26,-1.98 -3.16,-2.21 -3.07,-2.43 -2.93,-2.63 -2.78,-2.82 -2.60,-2.98 -2.41,-3.13 -2.19,-3.24 -1.98,-3.35 -1.74,-3.40 -1.50,-3.45 -1.26,-3.44 -1.02,-3.44 -0.78,-3.37 -0.55,-3.31 -0.34,-3.19 -0.12,-3.07 0.04,-2.90 0.22,-2.73 0.35,-2.53 0.48,-2.33 0.56,-2.10 0.64,-1.87 0.54,-1.95 0.44,-2.02 0.73,-1.52 1.02,-1.02 1.13,-0.88 1.23,-0.74 1.30,-0.58 1.38,-0.43 1.41,-0.25 1.44,-0.08 1.43,0.08 1.42,0.26 1.37,0.42 1.31,0.59 1.22,0.74 1.13,0.89 1.01,1.01 0.89,1.13 0.74,1.22 0.59,1.31 0.42,1.37 0.26,1.42 0.08,1.43 -0.08,1.44 -0.25,1.41 -0.43,1.38 -0.58,1.30 -0.74,1.23 -0.88,1.13 -1.02,1.02 -1.02,1.02 L -1.02,1.02 Z"></path></g><g transform="translate(442.0498088186957 136.28555190403426) rotate(1.4511830940465922 6.277952256609183 4.446906131742303)" stroke="none"><path fill="#f08c00" d="M -1.34,0.67 Q -1.34,0.67 -2.07,0.02 -2.79,-0.62 -2.64,-1.88 -2.49,-3.13 -1.66,-4.14 -0.83,-5.15 0.72,-5.80 2.27,-6.46 3.89,-6.68 5.52,-6.90 6.63,-6.97 7.74,-7.04 9.88,-5.88 12.01,-4.71 12.36,-3.00 12.71,-1.30 12.59,0.26 12.47,1.84 11.92,3.60 11.36,5.36 10.61,6.79 9.87,8.21 8.68,9.58 7.48,10.95 6.73,11.75 5.99,12.55 4.77,11.95 3.55,11.34 5.10,11.19 6.65,11.05 7.75,10.92 8.85,10.79 11.80,11.35 14.75,11.91 14.90,12.06 15.05,12.21 15.15,12.39 15.25,12.58 15.28,12.79 15.31,13.00 15.28,13.21 15.24,13.42 15.14,13.61 15.04,13.79 14.88,13.94 14.72,14.08 14.53,14.17 14.34,14.26 14.13,14.28 13.91,14.30 13.71,14.25 13.50,14.20 13.32,14.09 13.14,13.98 13.00,13.82 12.87,13.66 12.79,13.46 12.71,13.26 12.70,13.05 12.69,12.83 12.75,12.63 12.81,12.43 12.93,12.25 13.05,12.08 13.22,11.95 13.39,11.82 13.60,11.76 13.80,11.69 14.01,11.69 14.22,11.70 14.42,11.77 14.63,11.84 14.79,11.97 14.96,12.10 15.08,12.27 15.20,12.45 15.25,12.66 15.31,12.86 15.29,13.07 15.28,13.28 15.20,13.48 15.12,13.68 14.98,13.84 14.84,14.00 14.65,14.11 14.47,14.21 14.26,14.26 14.06,14.30 13.84,14.28 13.63,14.25 13.44,14.16 13.25,14.07 13.25,14.07 13.25,14.07 12.42,14.69 11.59,15.31 10.47,15.52 9.35,15.74 7.89,15.86 6.44,15.99 5.07,15.91 3.69,15.83 2.62,15.40 1.56,14.96 1.52,12.45 1.47,9.93 2.70,8.81 3.94,7.69 4.81,6.80 5.68,5.92 6.27,4.88 6.85,3.83 7.29,2.62 7.73,1.41 8.07,-0.31 8.40,-2.03 7.24,-2.03 6.09,-2.03 4.95,-1.93 3.81,-1.83 2.70,-1.80 1.59,-1.78 1.47,-1.22 1.34,-0.67 1.41,-0.50 1.47,-0.33 1.49,-0.15 1.50,0.02 1.48,0.20 1.45,0.38 1.38,0.55 1.32,0.72 1.21,0.87 1.10,1.02 0.97,1.14 0.83,1.25 0.66,1.33 0.50,1.42 0.32,1.46 0.15,1.50 -0.02,1.49 -0.21,1.49 -0.38,1.44 -0.56,1.39 -0.72,1.31 -0.88,1.22 -1.01,1.10 -1.14,0.97 -1.24,0.82 -1.34,0.67 -1.34,0.67 L -1.34,0.67 Z"></path></g><g transform="translate(441.3913964010498 228.6379871707539) rotate(1.4511830940465922 6.277992170856237 3.9237500960660157)" stroke="none"><path fill="#f08c00" d="M -1.19,0.59 Q -1.19,0.59 -1.70,0.09 -2.20,-0.40 -2.76,-1.55 -3.32,-2.69 -2.90,-3.78 -2.47,-4.87 -1.38,-5.90 -0.29,-6.94 1.25,-7.75 2.80,-8.56 4.42,-8.93 6.03,-9.29 7.55,-9.03 9.07,-8.78 10.41,-7.57 11.75,-6.37 12.01,-4.26 12.27,-2.16 11.45,0.21 10.62,2.59 9.49,4.77 8.36,6.95 7.27,8.78 6.18,10.60 5.63,11.73 5.08,12.86 6.08,12.20 7.07,11.54 10.03,11.19 12.99,10.84 13.20,10.81 13.41,10.79 13.62,10.83 13.83,10.87 14.01,10.97 14.19,11.08 14.33,11.24 14.48,11.40 14.56,11.59 14.64,11.79 14.66,12.00 14.67,12.21 14.62,12.42 14.57,12.62 14.45,12.80 14.34,12.98 14.17,13.11 14.00,13.25 13.80,13.32 13.60,13.39 13.39,13.39 13.18,13.40 12.98,13.33 12.77,13.27 12.60,13.14 12.43,13.02 12.31,12.85 12.18,12.67 12.12,12.47 12.06,12.27 12.07,12.05 12.08,11.84 12.15,11.64 12.23,11.44 12.36,11.28 12.49,11.11 12.67,11.00 12.85,10.89 13.06,10.84 13.27,10.79 13.48,10.81 13.69,10.83 13.88,10.91 14.08,11.00 14.24,11.14 14.39,11.28 14.50,11.47 14.60,11.65 14.64,11.86 14.68,12.07 14.65,12.28 14.62,12.49 14.52,12.68 14.43,12.87 14.27,13.02 14.12,13.17 13.93,13.26 13.74,13.36 13.74,13.36 13.74,13.36 11.96,14.62 10.18,15.87 9.14,16.15 8.10,16.42 6.52,16.70 4.94,16.98 3.37,16.54 1.80,16.10 1.33,13.44 0.87,10.77 1.51,9.49 2.16,8.21 3.18,6.49 4.21,4.77 5.22,2.86 6.23,0.94 7.03,-1.69 7.84,-4.32 6.39,-4.26 4.94,-4.20 3.94,-3.74 2.95,-3.28 1.97,-2.64 1.00,-2.00 1.09,-1.29 1.19,-0.59 1.25,-0.44 1.30,-0.29 1.32,-0.13 1.33,0.02 1.31,0.18 1.29,0.34 1.23,0.49 1.17,0.64 1.07,0.77 0.98,0.90 0.86,1.01 0.73,1.11 0.59,1.18 0.45,1.26 0.29,1.29 0.13,1.33 -0.02,1.32 -0.18,1.32 -0.34,1.28 -0.49,1.24 -0.64,1.16 -0.78,1.08 -0.90,0.97 -1.01,0.86 -1.10,0.73 -1.19,0.59 -1.19,0.59 L -1.19,0.59 Z"></path></g><g transform="translate(46.87143617450937 272.62257021716795) rotate(1.4511830940465922 -13.059811334432027 12.099515790085917)" stroke="none"><path fill="#1971c2" d="M -2.12,4.24 Q -2.12,4.24 -4.56,3.11 -7.01,1.97 -9.15,1.71 -11.29,1.45 -14.30,3.71 -17.32,5.98 -18.32,8.01 -19.33,10.03 -19.83,12.15 -20.33,14.28 -19.91,17.76 -19.50,21.25 -15.96,21.78 -12.42,22.30 -10.38,21.59 -8.34,20.88 -5.24,20.71 -2.15,20.54 -1.76,20.37 -1.37,20.20 -0.95,20.16 -0.53,20.13 -0.11,20.23 0.29,20.33 0.65,20.55 1.01,20.78 1.28,21.11 1.55,21.44 1.69,21.84 1.84,22.23 1.86,22.66 1.87,23.08 1.75,23.49 1.63,23.90 1.38,24.24 1.14,24.59 0.79,24.84 0.45,25.09 0.04,25.22 -0.35,25.35 -0.78,25.34 -1.20,25.33 -1.60,25.18 -2.00,25.04 -2.33,24.78 -2.67,24.51 -2.90,24.16 -3.13,23.80 -3.23,23.39 -3.34,22.98 -3.31,22.55 -3.28,22.13 -3.11,21.74 -2.94,21.34 -2.66,21.03 -2.38,20.71 -2.01,20.50 -1.64,20.29 -1.23,20.20 -0.81,20.12 -0.39,20.17 0.02,20.23 0.40,20.42 0.79,20.60 1.09,20.90 1.39,21.20 1.58,21.58 1.77,21.96 1.83,22.38 1.89,22.80 1.82,23.22 1.74,23.64 1.53,24.01 1.33,24.38 1.01,24.66 0.70,24.95 0.70,24.95 0.70,24.95 -2.35,27.86 -5.41,30.76 -9.03,31.73 -12.66,32.70 -15.98,32.41 -19.31,32.13 -22.24,30.72 -25.17,29.30 -27.11,26.73 -29.05,24.17 -29.69,20.97 -30.33,17.78 -30.00,14.72 -29.68,11.67 -28.67,8.48 -27.67,5.29 -25.66,2.10 -23.65,-1.08 -21.09,-3.19 -18.53,-5.30 -13.24,-6.66 -7.95,-8.03 -5.33,-7.43 -2.70,-6.83 -0.29,-5.54 2.12,-4.24 2.59,-3.92 3.07,-3.61 3.46,-3.19 3.85,-2.77 4.12,-2.27 4.40,-1.76 4.54,-1.21 4.69,-0.66 4.70,-0.09 4.71,0.47 4.59,1.03 4.46,1.59 4.21,2.10 3.95,2.61 3.58,3.05 3.21,3.48 2.75,3.82 2.28,4.15 1.75,4.36 1.22,4.58 0.65,4.66 0.09,4.74 -0.47,4.68 -1.04,4.62 -1.58,4.43 -2.12,4.24 -2.12,4.24 L -2.12,4.24 Z"></path></g><g transform="translate(324.3834884041844 347.98289889809547) rotate(1.4511830940465922 14.788349175344365 9.21868776794198)" stroke="none"><path fill="#1e1e1e" d="M -2.76,-2.76 Q -2.76,-2.76 -1.56,-5.09 -0.36,-7.43 2.20,-9.63 4.76,-11.82 6.32,-13.57 7.87,-15.33 10.13,-18.42 12.39,-21.52 15.02,-24.39 17.66,-27.25 20.71,-28.28 23.75,-29.31 26.63,-27.37 29.50,-25.43 30.06,-22.28 30.61,-19.13 30.84,-14.67 31.07,-10.22 31.22,-6.92 31.36,-3.62 31.53,0.10 31.69,3.82 31.78,8.14 31.87,12.46 32.14,17.14 32.41,21.83 32.66,25.61 32.92,29.39 33.35,32.22 33.78,35.04 34.18,37.72 34.59,40.40 34.66,40.78 34.73,41.15 34.76,41.84 34.79,42.53 34.65,43.21 34.51,43.89 34.22,44.51 33.92,45.14 33.49,45.67 33.05,46.21 32.50,46.62 31.95,47.04 31.31,47.31 30.68,47.59 30.00,47.70 29.31,47.81 28.63,47.76 27.94,47.70 27.28,47.49 26.62,47.27 26.04,46.90 25.45,46.53 24.97,46.03 24.49,45.54 24.15,44.94 23.80,44.34 23.61,43.68 23.41,43.02 24.87,41.18 26.32,39.35 26.30,38.92 26.27,38.50 26.39,38.09 26.50,37.68 26.74,37.33 26.98,36.97 27.32,36.72 27.66,36.46 28.06,36.32 28.46,36.19 28.89,36.19 29.31,36.19 29.71,36.33 30.12,36.46 30.46,36.72 30.79,36.98 31.03,37.33 31.27,37.68 31.38,38.09 31.50,38.50 31.47,38.92 31.45,39.35 31.29,39.74 31.14,40.14 30.86,40.46 30.59,40.78 30.22,41.00 29.86,41.22 29.44,41.31 29.03,41.40 28.60,41.36 28.18,41.31 27.80,41.13 27.41,40.95 27.10,40.66 26.79,40.37 26.60,39.99 26.40,39.62 26.33,39.20 26.26,38.78 26.33,38.36 26.40,37.94 26.60,37.57 26.80,37.19 27.10,36.90 27.41,36.61 27.80,36.43 28.18,36.25 28.61,36.20 29.03,36.16 29.44,36.25 29.86,36.34 30.22,36.56 30.59,36.78 30.86,37.10 31.14,37.43 31.29,37.82 31.45,38.22 31.45,38.22 31.45,38.22 33.09,39.68 34.73,41.15 34.76,41.84 34.79,42.53 34.65,43.21 34.51,43.88 34.22,44.51 33.92,45.13 33.49,45.67 33.05,46.21 32.50,46.62 31.95,47.04 31.31,47.31 30.68,47.59 30.00,47.70 29.31,47.81 28.63,47.76 27.94,47.70 27.28,47.49 26.62,47.27 26.04,46.90 25.45,46.53 24.97,46.03 24.49,45.54 24.15,44.94 23.80,44.34 23.61,43.68 23.41,43.02 23.32,42.65 23.23,42.28 22.91,39.44 22.58,36.59 22.16,33.32 21.74,30.04 21.56,26.22 21.38,22.41 21.15,17.53 20.91,12.64 20.86,8.48 20.80,4.32 20.62,0.58 20.45,-3.16 20.31,-6.53 20.17,-9.91 20.09,-12.34 20.01,-14.76 19.88,-17.55 19.74,-20.33 22.41,-19.62 25.09,-18.91 23.27,-17.08 21.45,-15.24 18.72,-11.61 16.00,-7.98 13.96,-5.76 11.92,-3.54 9.68,-1.58 7.43,0.36 5.09,1.56 2.76,2.76 2.39,3.05 2.02,3.34 1.59,3.53 1.16,3.73 0.69,3.81 0.23,3.90 -0.23,3.87 -0.70,3.84 -1.15,3.70 -1.60,3.56 -2.00,3.32 -2.41,3.07 -2.74,2.74 -3.07,2.41 -3.32,2.00 -3.56,1.60 -3.70,1.15 -3.84,0.70 -3.87,0.23 -3.90,-0.23 -3.81,-0.69 -3.73,-1.16 -3.53,-1.59 -3.34,-2.02 -3.05,-2.39 -2.76,-2.76 -2.76,-2.76 L -2.76,-2.76 Z"></path></g><g transform="translate(391.59636767941385 352.7437256385017) rotate(1.4511830940465922 14.21217477928144 5.5696321019553)" stroke="none"><path fill="#1e1e1e" d="M -3.37,-2.24 Q -3.37,-2.24 -2.25,-4.85 -1.13,-7.45 2.18,-11.56 5.51,-15.67 6.88,-17.72 8.25,-19.77 9.54,-21.73 10.83,-23.69 12.85,-26.72 14.88,-29.75 16.87,-31.53 18.87,-33.31 21.91,-32.83 24.96,-32.36 26.90,-29.16 28.85,-25.96 28.98,-23.23 29.11,-20.51 29.15,-17.47 29.19,-14.43 29.21,-10.49 29.24,-6.56 29.27,-1.58 29.30,3.39 29.30,8.49 29.31,13.59 29.66,18.23 30.01,22.87 30.54,25.81 31.07,28.75 31.65,31.02 32.24,33.29 31.40,35.47 30.56,37.65 30.74,38.04 30.91,38.43 30.96,38.85 31.00,39.27 30.91,39.69 30.82,40.10 30.59,40.46 30.37,40.83 30.05,41.10 29.72,41.37 29.33,41.53 28.93,41.68 28.51,41.71 28.08,41.73 27.67,41.61 27.27,41.49 26.92,41.25 26.56,41.01 26.31,40.67 26.05,40.34 25.92,39.93 25.79,39.53 25.79,39.10 25.79,38.68 25.93,38.28 26.07,37.87 26.32,37.54 26.58,37.20 26.94,36.96 27.29,36.73 27.70,36.62 28.11,36.50 28.53,36.53 28.96,36.55 29.35,36.71 29.75,36.87 30.07,37.15 30.39,37.43 30.61,37.79 30.83,38.16 30.91,38.57 31.00,38.99 30.96,39.41 30.91,39.83 30.73,40.22 30.55,40.60 30.25,40.91 29.96,41.22 29.58,41.41 29.21,41.61 28.79,41.68 28.37,41.74 27.95,41.67 27.53,41.60 27.15,41.40 26.78,41.20 26.49,40.89 26.20,40.58 26.20,40.58 26.20,40.58 24.20,38.07 22.20,35.56 21.69,32.97 21.18,30.37 20.69,27.07 20.19,23.76 19.69,18.89 19.19,14.03 18.74,8.72 18.30,3.41 18.31,-1.54 18.32,-6.51 18.31,-10.38 18.29,-14.25 18.23,-17.11 18.18,-19.97 18.07,-22.23 17.95,-24.49 20.54,-23.74 23.13,-22.99 21.10,-20.57 19.07,-18.15 17.73,-16.20 16.39,-14.25 14.69,-11.78 12.99,-9.31 10.15,-5.56 7.32,-1.81 5.34,0.21 3.37,2.24 3.05,2.62 2.73,2.99 2.33,3.27 1.94,3.55 1.48,3.74 1.03,3.92 0.54,3.98 0.06,4.05 -0.42,4.00 -0.90,3.95 -1.36,3.78 -1.82,3.62 -2.23,3.34 -2.63,3.07 -2.96,2.71 -3.29,2.35 -3.53,1.92 -3.76,1.49 -3.89,1.02 -4.01,0.55 -4.02,0.06 -4.03,-0.42 -3.92,-0.90 -3.81,-1.37 -3.59,-1.81 -3.37,-2.24 -3.37,-2.24 L -3.37,-2.24 Z"></path></g><g transform="translate(270.7127360348835 269.80168693918284) rotate(1.4511830940465922 -5.953723944791307 9.410755668445319)" stroke="none"><path fill="#1971c2" d="M -1.02,3.07 Q -1.02,3.07 -2.85,3.06 -4.67,3.04 -6.66,3.91 -8.66,4.78 -9.36,6.92 -10.06,9.07 -10.14,11.71 -10.23,14.34 -7.95,14.99 -5.66,15.65 -3.92,13.94 -2.17,12.23 -2.68,9.88 -3.18,7.53 -4.34,5.28 -5.50,3.03 -5.85,2.80 -6.20,2.56 -6.47,2.23 -6.73,1.89 -6.87,1.49 -7.01,1.09 -7.01,0.66 -7.02,0.24 -6.89,-0.15 -6.76,-0.56 -6.50,-0.90 -6.25,-1.24 -5.90,-1.48 -5.55,-1.73 -5.14,-1.85 -4.74,-1.96 -4.31,-1.95 -3.89,-1.93 -3.49,-1.78 -3.09,-1.62 -2.77,-1.35 -2.44,-1.08 -2.22,-0.72 -1.99,-0.36 -1.90,0.05 -1.80,0.46 -1.84,0.88 -1.88,1.31 -2.06,1.69 -2.23,2.08 -2.52,2.39 -2.81,2.70 -3.18,2.91 -3.55,3.11 -3.97,3.19 -4.39,3.26 -4.81,3.20 -5.23,3.13 -5.61,2.94 -5.99,2.74 -6.28,2.44 -6.58,2.13 -6.76,1.75 -6.94,1.37 -6.99,0.94 -7.05,0.52 -6.96,0.11 -6.87,-0.30 -6.66,-0.67 -6.44,-1.03 -6.12,-1.31 -5.80,-1.59 -5.41,-1.75 -5.02,-1.92 -4.59,-1.94 -4.17,-1.97 -3.76,-1.86 -3.35,-1.75 -3.35,-1.75 -3.35,-1.75 1.69,1.44 6.74,4.64 7.21,6.92 7.67,9.19 7.31,11.51 6.95,13.84 4.53,17.34 2.11,20.84 -1.26,22.41 -4.65,23.99 -8.76,23.39 -12.87,22.80 -14.88,21.15 -16.89,19.49 -17.79,17.47 -18.69,15.44 -18.85,13.18 -19.02,10.92 -18.54,8.63 -18.07,6.33 -17.18,4.06 -16.29,1.80 -14.76,-0.15 -13.24,-2.11 -10.83,-3.45 -8.42,-4.80 -5.18,-5.02 -1.94,-5.25 -0.46,-4.16 1.02,-3.07 1.37,-2.90 1.73,-2.74 2.03,-2.49 2.33,-2.24 2.57,-1.93 2.80,-1.62 2.96,-1.26 3.11,-0.90 3.17,-0.51 3.24,-0.13 3.20,0.25 3.17,0.64 3.05,1.01 2.93,1.38 2.72,1.71 2.51,2.05 2.23,2.32 1.94,2.59 1.61,2.78 1.27,2.98 0.89,3.09 0.52,3.20 0.13,3.21 -0.25,3.23 -0.64,3.15 -1.02,3.07 -1.02,3.07 L -1.02,3.07 Z"></path></g><g transform="translate(341.024132550303 267.2235790145563) rotate(1.4511830940465922 -4.609336557609225 9.218687767941958)" stroke="none"><path fill="#1971c2" d="M -0.37,3.73 Q -0.37,3.73 -2.59,3.73 -4.82,3.74 -6.56,5.64 -8.31,7.54 -8.32,9.89 -8.33,12.24 -6.04,14.03 -3.76,15.81 -2.71,13.76 -1.66,11.72 -2.33,8.58 -2.99,5.45 -2.62,3.49 -2.25,1.53 -2.43,1.15 -2.61,0.76 -2.65,0.34 -2.70,-0.07 -2.61,-0.49 -2.52,-0.90 -2.30,-1.27 -2.08,-1.63 -1.76,-1.91 -1.44,-2.18 -1.04,-2.34 -0.65,-2.50 -0.23,-2.52 0.19,-2.55 0.60,-2.44 1.01,-2.32 1.36,-2.09 1.71,-1.85 1.97,-1.51 2.23,-1.17 2.37,-0.77 2.50,-0.37 2.50,0.05 2.51,0.47 2.37,0.87 2.24,1.28 1.98,1.62 1.72,1.96 1.37,2.19 1.02,2.43 0.61,2.55 0.20,2.66 -0.21,2.64 -0.63,2.62 -1.03,2.46 -1.42,2.31 -1.75,2.03 -2.07,1.76 -2.29,1.40 -2.51,1.03 -2.61,0.62 -2.70,0.20 -2.65,-0.21 -2.61,-0.63 -2.43,-1.02 -2.26,-1.40 -1.96,-1.71 -1.67,-2.02 -1.30,-2.22 -0.92,-2.42 -0.50,-2.49 -0.08,-2.56 0.33,-2.50 0.74,-2.43 1.12,-2.23 1.50,-2.03 1.79,-1.72 2.08,-1.42 2.08,-1.42 2.08,-1.42 4.53,0.90 6.98,3.22 7.55,6.64 8.12,10.06 7.03,14.09 5.93,18.13 4.38,19.69 2.83,21.25 -0.88,22.29 -4.59,23.32 -8.98,21.71 -13.36,20.11 -14.61,18.11 -15.85,16.11 -16.24,12.70 -16.63,9.29 -16.17,5.91 -15.70,2.53 -13.63,-0.16 -11.56,-2.87 -7.78,-3.74 -4.01,-4.62 -1.81,-4.17 0.37,-3.73 0.81,-3.63 1.25,-3.53 1.65,-3.33 2.06,-3.12 2.40,-2.83 2.75,-2.54 3.01,-2.17 3.28,-1.81 3.45,-1.39 3.62,-0.97 3.68,-0.52 3.74,-0.07 3.70,0.37 3.65,0.82 3.50,1.24 3.35,1.67 3.10,2.04 2.85,2.42 2.52,2.73 2.19,3.04 1.79,3.25 1.40,3.47 0.96,3.59 0.53,3.71 0.07,3.72 -0.37,3.73 -0.37,3.73 L -0.37,3.73 Z"></path></g><g transform="translate(270.1591084119708 329.2666191307164) rotate(1.4511830940465922 -2.6888040798113195 29.576639739794494)" stroke="none"><path fill="#1e1e1e" d="M -0.31,3.43 Q -0.31,3.43 -2.81,4.03 -5.30,4.63 -7.36,5.34 -9.41,6.04 -11.02,8.23 -12.63,10.42 -13.62,13.32 -14.61,16.21 -15.37,19.33 -16.12,22.45 -16.50,25.58 -16.88,28.71 -16.90,32.18 -16.92,35.66 -16.63,38.60 -16.33,41.54 -15.47,43.82 -14.61,46.11 -11.83,49.15 -9.05,52.19 -5.82,53.25 -2.60,54.31 0.40,53.66 3.42,53.00 6.05,49.90 8.69,46.81 9.63,42.02 10.58,37.22 10.68,34.41 10.79,31.60 10.30,27.41 9.81,23.22 9.07,19.77 8.33,16.32 6.96,14.31 5.59,12.29 2.44,8.62 -0.71,4.94 -1.04,4.68 -1.38,4.42 -1.61,4.06 -1.85,3.71 -1.95,3.30 -2.06,2.89 -2.03,2.46 -2.01,2.04 -1.84,1.64 -1.68,1.25 -1.40,0.93 -1.12,0.61 -0.76,0.40 -0.39,0.18 0.02,0.10 0.43,0.01 0.86,0.06 1.28,0.11 1.66,0.30 2.04,0.48 2.35,0.78 2.65,1.07 2.85,1.45 3.04,1.83 3.11,2.25 3.17,2.67 3.09,3.09 3.02,3.51 2.82,3.88 2.61,4.25 2.30,4.54 1.99,4.83 1.60,5.00 1.21,5.17 0.79,5.21 0.37,5.26 -0.04,5.16 -0.45,5.06 -0.81,4.84 -1.17,4.61 -1.45,4.29 -1.72,3.96 -1.87,3.56 -2.02,3.17 -2.04,2.74 -2.06,2.32 -1.94,1.91 -1.82,1.50 -1.57,1.15 -1.33,0.80 -0.99,0.55 -0.65,0.30 -0.24,0.17 0.15,0.04 0.58,0.04 1.00,0.05 1.40,0.19 1.80,0.33 1.80,0.33 1.80,0.33 5.87,1.21 9.94,2.09 12.30,4.10 14.66,6.11 17.12,9.80 19.59,13.49 20.58,17.73 21.58,21.98 22.06,27.07 22.55,32.16 22.34,35.60 22.14,39.03 21.22,43.71 20.31,48.39 19.03,50.99 17.74,53.59 15.35,56.39 12.95,59.19 9.63,61.17 6.30,63.15 3.49,63.78 0.67,64.42 -2.29,64.36 -5.26,64.30 -8.20,63.42 -11.13,62.54 -13.81,61.01 -16.50,59.47 -18.33,57.55 -20.16,55.62 -22.31,52.66 -24.46,49.69 -25.61,46.12 -26.77,42.54 -27.05,38.97 -27.34,35.39 -27.16,31.33 -26.98,27.27 -26.39,23.58 -25.79,19.89 -24.76,16.31 -23.74,12.74 -21.05,7.28 -18.36,1.82 -15.15,-1.16 -11.94,-4.14 -8.17,-4.83 -4.40,-5.52 -2.04,-4.47 0.31,-3.43 0.71,-3.35 1.12,-3.26 1.50,-3.08 1.87,-2.89 2.19,-2.63 2.51,-2.36 2.76,-2.03 3.00,-1.69 3.16,-1.31 3.32,-0.92 3.38,-0.51 3.45,-0.10 3.41,0.31 3.37,0.72 3.23,1.11 3.10,1.51 2.87,1.86 2.65,2.21 2.34,2.49 2.04,2.78 1.68,2.98 1.32,3.18 0.91,3.30 0.51,3.41 0.10,3.42 -0.31,3.43 -0.31,3.43 L -0.31,3.43 Z"></path></g><g transform="translate(178.3085466029776 353.3911628601902) rotate(1.4511830940465922 10.371021907344272 6.337845093074428)" stroke="none"><path fill="#1e1e1e" d="M -3.06,-2.45 Q -3.06,-2.45 -1.06,-5.38 0.93,-8.30 3.85,-12.09 6.78,-15.89 8.18,-17.89 9.58,-19.90 10.85,-21.70 12.13,-23.50 13.55,-25.33 14.98,-27.16 15.15,-27.25 15.32,-27.34 15.77,-27.72 16.21,-28.10 16.74,-28.36 17.27,-28.62 17.84,-28.75 18.41,-28.88 19.00,-28.87 19.59,-28.85 20.15,-28.70 20.72,-28.55 21.24,-28.27 21.75,-27.98 22.18,-27.58 22.61,-27.18 22.94,-26.69 23.26,-26.20 23.46,-25.65 23.65,-25.10 23.71,-24.51 23.77,-23.93 23.69,-23.35 23.60,-22.77 23.38,-22.22 23.16,-21.68 22.82,-21.20 22.48,-20.72 23.03,-17.78 23.58,-14.84 23.46,-12.23 23.34,-9.63 23.36,-3.16 23.37,3.29 23.43,6.42 23.49,9.55 23.53,13.21 23.57,16.87 23.76,21.75 23.96,26.64 24.26,28.76 24.56,30.88 23.82,33.42 23.07,35.95 23.14,36.37 23.20,36.79 23.13,37.21 23.06,37.63 22.86,38.00 22.66,38.37 22.35,38.67 22.04,38.96 21.65,39.13 21.27,39.31 20.84,39.35 20.42,39.39 20.01,39.30 19.59,39.21 19.23,38.99 18.87,38.76 18.59,38.44 18.32,38.11 18.16,37.72 18.01,37.32 17.99,36.90 17.97,36.47 18.08,36.06 18.20,35.66 18.44,35.31 18.68,34.95 19.02,34.70 19.36,34.44 19.77,34.31 20.17,34.18 20.59,34.18 21.02,34.18 21.42,34.32 21.82,34.46 22.16,34.72 22.50,34.98 22.73,35.33 22.97,35.68 23.08,36.09 23.19,36.51 23.17,36.93 23.14,37.35 22.98,37.75 22.82,38.14 22.54,38.46 22.27,38.79 21.90,39.00 21.54,39.22 21.12,39.31 20.70,39.40 20.28,39.35 19.86,39.30 19.48,39.12 19.09,38.94 18.78,38.64 18.48,38.35 18.28,37.97 18.08,37.60 18.08,37.60 18.08,37.60 15.95,34.86 13.81,32.13 13.58,29.60 13.34,27.06 13.30,21.99 13.25,16.91 13.26,13.29 13.27,9.67 13.26,6.58 13.24,3.48 13.14,-1.09 13.04,-5.66 13.10,-7.92 13.16,-10.17 13.31,-12.65 13.46,-15.13 13.93,-18.65 14.40,-22.17 14.86,-24.75 15.32,-27.34 15.77,-27.72 16.21,-28.10 16.74,-28.36 17.27,-28.62 17.84,-28.75 18.41,-28.88 19.00,-28.87 19.59,-28.85 20.15,-28.70 20.72,-28.55 21.24,-28.27 21.75,-27.98 22.18,-27.58 22.61,-27.18 22.94,-26.69 23.26,-26.20 23.46,-25.65 23.65,-25.10 23.71,-24.51 23.77,-23.93 23.69,-23.35 23.60,-22.77 23.38,-22.22 23.17,-21.68 22.82,-21.20 22.48,-20.72 20.96,-19.45 19.44,-18.18 18.17,-16.47 16.90,-14.76 15.43,-12.68 13.95,-10.60 10.93,-6.67 7.90,-2.73 5.48,-0.13 3.06,2.45 2.73,2.78 2.39,3.11 1.98,3.35 1.57,3.60 1.12,3.73 0.66,3.87 0.19,3.89 -0.27,3.92 -0.74,3.83 -1.20,3.74 -1.63,3.54 -2.06,3.34 -2.43,3.04 -2.80,2.75 -3.09,2.37 -3.38,1.99 -3.57,1.56 -3.76,1.13 -3.84,0.66 -3.92,0.19 -3.89,-0.27 -3.85,-0.74 -3.71,-1.19 -3.56,-1.64 -3.31,-2.05 -3.06,-2.45 -3.06,-2.45 L -3.06,-2.45 Z"></path></g><g transform="translate(109.62171719204963 357.89542911289175) rotate(1.4511830940465922 14.212160126557905 4.033176814269801)" stroke="none"><path fill="#1e1e1e" d="M -1.97,-2.54 Q -1.97,-2.54 -0.46,-4.68 1.05,-6.82 2.47,-8.48 3.88,-10.14 5.58,-12.17 7.29,-14.19 8.86,-15.92 10.42,-17.64 12.59,-20.08 14.75,-22.52 16.25,-24.45 17.74,-26.38 19.44,-28.20 21.14,-30.03 22.88,-31.65 24.61,-33.28 24.80,-33.37 24.99,-33.46 25.52,-33.77 26.04,-34.08 26.62,-34.25 27.21,-34.42 27.81,-34.45 28.42,-34.48 29.02,-34.36 29.61,-34.24 30.16,-33.99 30.72,-33.73 31.19,-33.35 31.66,-32.97 32.03,-32.48 32.40,-32.00 32.64,-31.44 32.88,-30.88 32.98,-30.28 33.08,-29.68 33.04,-29.08 32.99,-28.47 32.80,-27.89 32.61,-27.31 32.29,-26.80 31.97,-26.28 31.53,-25.86 31.10,-25.43 31.52,-23.19 31.94,-20.94 31.72,-18.41 31.50,-15.89 31.29,-13.10 31.07,-10.31 30.88,-6.31 30.69,-2.30 30.48,2.05 30.28,6.42 30.25,10.00 30.22,13.57 30.28,16.41 30.34,19.25 30.34,21.67 30.34,24.09 30.43,27.55 30.53,31.02 30.12,33.49 29.72,35.96 29.94,36.32 30.17,36.68 30.26,37.09 30.36,37.51 30.32,37.93 30.28,38.35 30.10,38.74 29.93,39.13 29.64,39.44 29.35,39.75 28.98,39.96 28.61,40.16 28.19,40.23 27.77,40.31 27.35,40.24 26.93,40.18 26.55,39.99 26.17,39.79 25.88,39.49 25.58,39.18 25.40,38.80 25.22,38.41 25.16,37.99 25.11,37.57 25.20,37.15 25.29,36.74 25.50,36.37 25.72,36.01 26.04,35.73 26.36,35.45 26.75,35.28 27.14,35.12 27.57,35.09 27.99,35.07 28.40,35.17 28.81,35.28 29.17,35.52 29.52,35.75 29.78,36.09 30.04,36.42 30.18,36.82 30.32,37.22 30.33,37.65 30.33,38.07 30.20,38.48 30.07,38.88 29.82,39.22 29.57,39.57 29.22,39.81 28.87,40.05 28.46,40.17 28.05,40.29 27.63,40.27 27.20,40.25 26.81,40.10 26.41,39.95 26.08,39.68 25.76,39.41 25.76,39.41 25.76,39.41 22.80,35.57 19.85,31.74 19.74,27.88 19.63,24.02 19.66,21.57 19.69,19.12 19.82,16.23 19.95,13.34 20.09,9.65 20.22,5.97 20.41,1.58 20.60,-2.80 20.80,-6.93 21.01,-11.06 21.21,-13.90 21.41,-16.75 21.66,-19.67 21.91,-22.60 22.41,-25.64 22.91,-28.68 23.95,-31.07 24.99,-33.46 25.51,-33.77 26.04,-34.08 26.62,-34.25 27.21,-34.42 27.81,-34.45 28.42,-34.48 29.02,-34.36 29.61,-34.24 30.16,-33.99 30.72,-33.73 31.19,-33.35 31.66,-32.97 32.03,-32.48 32.40,-32.00 32.64,-31.44 32.88,-30.88 32.98,-30.28 33.08,-29.68 33.04,-29.08 32.99,-28.47 32.80,-27.89 32.61,-27.31 32.29,-26.80 31.97,-26.28 31.53,-25.86 31.10,-25.43 30.33,-25.15 29.55,-24.87 27.36,-22.72 25.17,-20.58 23.48,-18.43 21.79,-16.27 19.58,-13.78 17.37,-11.28 15.93,-9.71 14.48,-8.14 12.73,-6.05 10.97,-3.96 8.93,-1.66 6.89,0.63 4.43,1.58 1.97,2.54 1.64,2.74 1.31,2.94 0.94,3.05 0.56,3.17 0.18,3.19 -0.20,3.21 -0.58,3.14 -0.96,3.07 -1.32,2.91 -1.67,2.75 -1.98,2.51 -2.28,2.26 -2.52,1.96 -2.76,1.65 -2.92,1.30 -3.07,0.94 -3.14,0.56 -3.21,0.18 -3.19,-0.20 -3.16,-0.59 -3.04,-0.96 -2.93,-1.33 -2.73,-1.66 -2.52,-1.99 -2.25,-2.26 -1.97,-2.54 -1.97,-2.54 L -1.97,-2.54 Z"></path></g><g transform="translate(116.25428594479456 276.54889075613573) rotate(1.4511830940465922 8.151191036671491 -0.8077802814266164)" stroke="none"><path fill="#1971c2" d="M -2.49,-2.15 Q -2.49,-2.15 -1.47,-4.00 -0.45,-5.85 1.58,-8.14 3.62,-10.43 5.56,-12.53 7.50,-14.63 9.85,-16.89 12.20,-19.14 15.66,-18.86 19.12,-18.59 19.60,-15.99 20.09,-13.39 19.83,-11.08 19.56,-8.77 19.17,-5.12 18.77,-1.47 18.62,2.56 18.47,6.60 18.53,9.06 18.59,11.53 17.69,12.79 16.79,14.05 16.89,14.46 16.99,14.87 16.96,15.30 16.92,15.72 16.75,16.11 16.59,16.50 16.30,16.82 16.02,17.13 15.65,17.34 15.28,17.55 14.86,17.63 14.44,17.71 14.02,17.66 13.60,17.60 13.22,17.41 12.84,17.22 12.54,16.92 12.24,16.62 12.05,16.24 11.86,15.86 11.80,15.44 11.75,15.02 11.83,14.60 11.91,14.18 12.12,13.81 12.33,13.44 12.64,13.16 12.96,12.87 13.35,12.71 13.74,12.54 14.16,12.50 14.59,12.47 15.00,12.57 15.41,12.67 15.77,12.90 16.13,13.13 16.39,13.46 16.66,13.79 16.81,14.19 16.95,14.59 16.96,15.02 16.98,15.44 16.85,15.85 16.73,16.25 16.48,16.60 16.23,16.94 15.88,17.19 15.54,17.44 15.13,17.56 14.73,17.69 14.30,17.68 13.88,17.67 13.48,17.52 13.08,17.37 12.75,17.11 12.42,16.84 12.19,16.48 11.96,16.12 11.96,16.12 11.96,16.13 11.05,13.89 10.14,11.65 10.12,9.08 10.10,6.50 10.32,2.12 10.55,-2.25 11.00,-5.96 11.46,-9.66 12.37,-12.15 13.28,-14.64 15.10,-13.50 16.91,-12.35 15.19,-10.71 13.48,-9.07 11.64,-7.11 9.80,-5.16 7.83,-2.77 5.86,-0.39 4.17,0.88 2.49,2.15 2.19,2.42 1.90,2.68 1.55,2.87 1.20,3.06 0.82,3.16 0.43,3.26 0.03,3.26 -0.35,3.27 -0.74,3.18 -1.13,3.09 -1.48,2.91 -1.83,2.73 -2.13,2.47 -2.43,2.21 -2.66,1.88 -2.89,1.56 -3.04,1.19 -3.18,0.82 -3.24,0.43 -3.29,0.03 -3.25,-0.35 -3.20,-0.75 -3.07,-1.12 -2.93,-1.49 -2.71,-1.82 -2.49,-2.15 -2.49,-2.15 L -2.49,-2.15 Z"></path></g><g transform="translate(188.9798196736536 273.30946129751345) rotate(1.4511830940465922 5.287263139184631 1.395255831085585)" stroke="none"><path fill="#1971c2" d="M -2.39,-1.88 Q -2.39,-1.88 -1.88,-3.39 -1.37,-4.90 0.43,-7.36 2.23,-9.83 3.87,-12.03 5.51,-14.24 9.57,-14.19 13.64,-14.14 13.97,-11.98 14.31,-9.81 14.28,-7.32 14.25,-4.82 14.31,-1.41 14.37,1.98 14.37,5.10 14.37,8.22 13.75,11.74 13.13,15.27 13.14,15.70 13.15,16.12 13.03,16.53 12.90,16.93 12.65,17.28 12.40,17.62 12.06,17.87 11.71,18.11 11.30,18.24 10.90,18.36 10.47,18.35 10.05,18.34 9.65,18.19 9.25,18.04 8.92,17.77 8.59,17.51 8.36,17.15 8.14,16.79 8.03,16.38 7.93,15.96 7.97,15.54 8.00,15.12 8.17,14.73 8.34,14.34 8.63,14.02 8.91,13.71 9.28,13.50 9.65,13.29 10.07,13.21 10.49,13.13 10.91,13.19 11.33,13.25 11.71,13.44 12.09,13.63 12.39,13.93 12.69,14.23 12.88,14.61 13.06,14.99 13.12,15.42 13.18,15.84 13.10,16.25 13.01,16.67 12.80,17.04 12.59,17.41 12.28,17.69 11.96,17.98 11.57,18.14 11.18,18.31 10.75,18.34 10.33,18.38 9.92,18.27 9.51,18.17 9.15,17.94 8.79,17.71 8.53,17.38 8.26,17.04 8.12,16.64 7.97,16.25 7.97,16.25 7.97,16.25 6.87,14.39 5.77,12.53 5.73,10.27 5.69,8.02 5.72,5.11 5.75,2.21 5.69,-1.22 5.64,-4.66 5.85,-8.01 6.06,-11.35 8.90,-10.04 11.74,-8.73 10.42,-7.00 9.10,-5.26 7.09,-2.54 5.08,0.17 3.74,1.02 2.39,1.88 2.13,2.14 1.87,2.40 1.56,2.59 1.24,2.78 0.89,2.88 0.54,2.99 0.17,3.01 -0.18,3.04 -0.54,2.97 -0.91,2.90 -1.24,2.75 -1.58,2.60 -1.86,2.37 -2.15,2.15 -2.38,1.86 -2.60,1.57 -2.76,1.23 -2.91,0.90 -2.97,0.54 -3.04,0.17 -3.01,-0.18 -2.99,-0.55 -2.88,-0.90 -2.77,-1.25 -2.58,-1.56 -2.39,-1.88 -2.39,-1.88 L -2.39,-1.88 Z"></path></g><g transform="translate(414.5977982656494 268.7530211930737) rotate(1.4511830940465922 -4.609336557609225 9.218687767941958)" stroke="none"><path fill="#1971c255" d="M -0.37,3.73 Q -0.37,3.73 -2.59,3.73 -4.82,3.74 -6.56,5.64 -8.31,7.54 -8.32,9.89 -8.33,12.24 -6.04,14.03 -3.76,15.81 -2.71,13.76 -1.66,11.72 -2.33,8.58 -2.99,5.45 -2.62,3.49 -2.25,1.53 -2.43,1.15 -2.61,0.76 -2.65,0.34 -2.70,-0.07 -2.61,-0.49 -2.52,-0.90 -2.30,-1.27 -2.08,-1.63 -1.76,-1.91 -1.44,-2.18 -1.04,-2.34 -0.65,-2.50 -0.23,-2.52 0.19,-2.55 0.60,-2.44 1.01,-2.32 1.36,-2.09 1.71,-1.85 1.97,-1.51 2.23,-1.17 2.37,-0.77 2.50,-0.37 2.50,0.05 2.51,0.47 2.37,0.87 2.24,1.28 1.98,1.62 1.72,1.96 1.37,2.19 1.02,2.43 0.61,2.55 0.20,2.66 -0.21,2.64 -0.63,2.62 -1.03,2.46 -1.42,2.31 -1.75,2.03 -2.07,1.76 -2.29,1.40 -2.51,1.03 -2.61,0.62 -2.70,0.20 -2.65,-0.21 -2.61,-0.63 -2.43,-1.02 -2.26,-1.40 -1.96,-1.71 -1.67,-2.02 -1.30,-2.22 -0.92,-2.42 -0.50,-2.49 -0.08,-2.56 0.33,-2.50 0.74,-2.43 1.12,-2.23 1.50,-2.03 1.79,-1.72 2.08,-1.42 2.08,-1.42 2.08,-1.42 4.53,0.90 6.98,3.22 7.55,6.64 8.12,10.06 7.03,14.09 5.93,18.13 4.38,19.69 2.83,21.25 -0.88,22.29 -4.59,23.32 -8.98,21.71 -13.36,20.11 -14.61,18.11 -15.85,16.11 -16.24,12.70 -16.63,9.29 -16.17,5.91 -15.70,2.53 -13.63,-0.16 -11.56,-2.87 -7.78,-3.74 -4.01,-4.62 -1.81,-4.17 0.37,-3.73 0.81,-3.63 1.25,-3.53 1.65,-3.33 2.06,-3.12 2.40,-2.83 2.75,-2.54 3.01,-2.17 3.28,-1.81 3.45,-1.39 3.62,-0.97 3.68,-0.52 3.74,-0.07 3.70,0.37 3.65,0.82 3.50,1.24 3.35,1.67 3.10,2.04 2.85,2.42 2.52,2.73 2.19,3.04 1.79,3.25 1.40,3.47 0.96,3.59 0.53,3.71 0.07,3.72 -0.37,3.73 -0.37,3.73 L -0.37,3.73 Z"></path></g><g stroke-linecap="round"><g transform="translate(385.8223740183396 319.82719145159194) rotate(0 -18.506967775609183 -14.672207858758497)"><path d="M0 0 C-6.17 -4.89, -30.84 -24.45, -37.01 -29.34 M0 0 C-6.17 -4.89, -30.84 -24.45, -37.01 -29.34" stroke="#1971c2" stroke-width="2" fill="none"></path></g><g transform="translate(385.8223740183396 319.82719145159194) rotate(0 -18.506967775609183 -14.672207858758497)"><path d="M-37.01 -29.34 L-22.42 -25.87 L-30.3 -15.93 L-37.01 -29.34" stroke="none" stroke-width="0" fill="#1971c2" fill-rule="evenodd"></path><path d="M-37.01 -29.34 C-33.2 -28.43, -29.38 -27.52, -22.42 -25.87 M-37.01 -29.34 C-31.75 -28.09, -26.49 -26.83, -22.42 -25.87 M-22.42 -25.87 C-24.2 -23.63, -25.97 -21.39, -30.3 -15.93 M-22.42 -25.87 C-24.14 -23.7, -25.86 -21.53, -30.3 -15.93 M-30.3 -15.93 C-32.78 -20.89, -35.27 -25.85, -37.01 -29.34 M-30.3 -15.93 C-32.74 -20.81, -35.18 -25.69, -37.01 -29.34 M-37.01 -29.34 C-37.01 -29.34, -37.01 -29.34, -37.01 -29.34 M-37.01 -29.34 C-37.01 -29.34, -37.01 -29.34, -37.01 -29.34" stroke="#1971c2" stroke-width="2" fill="none"></path></g></g><mask></mask><g stroke-linecap="round"><g transform="translate(320.04756100433974 322.49487485897146) rotate(0 -18.506967775609183 -14.672207858758497)"><path d="M0 0 C-6.17 -4.89, -30.84 -24.45, -37.01 -29.34 M0 0 C-6.17 -4.89, -30.84 -24.45, -37.01 -29.34" stroke="#1971c2" stroke-width="2" fill="none"></path></g><g transform="translate(320.04756100433974 322.49487485897146) rotate(0 -18.506967775609183 -14.672207858758497)"><path d="M-37.01 -29.34 L-22.42 -25.87 L-30.3 -15.93 L-37.01 -29.34" stroke="none" stroke-width="0" fill="#1971c2" fill-rule="evenodd"></path><path d="M-37.01 -29.34 C-33.64 -28.54, -30.27 -27.74, -22.42 -25.87 M-37.01 -29.34 C-32.4 -28.24, -27.78 -27.14, -22.42 -25.87 M-22.42 -25.87 C-24.62 -23.09, -26.82 -20.32, -30.3 -15.93 M-22.42 -25.87 C-24.98 -22.64, -27.54 -19.41, -30.3 -15.93 M-30.3 -15.93 C-32.05 -19.42, -33.79 -22.91, -37.01 -29.34 M-30.3 -15.93 C-32.87 -21.07, -35.45 -26.21, -37.01 -29.34 M-37.01 -29.34 C-37.01 -29.34, -37.01 -29.34, -37.01 -29.34 M-37.01 -29.34 C-37.01 -29.34, -37.01 -29.34, -37.01 -29.34" stroke="#1971c2" stroke-width="2" fill="none"></path></g></g><mask></mask><g stroke-linecap="round"><g transform="translate(248.2704476032788 321.16103315528176) rotate(0 -18.506967775609183 -14.672207858758497)"><path d="M0 0 C-6.17 -4.89, -30.84 -24.45, -37.01 -29.34 M0 0 C-6.17 -4.89, -30.84 -24.45, -37.01 -29.34" stroke="#1971c2" stroke-width="2" fill="none"></path></g><g transform="translate(248.2704476032788 321.16103315528176) rotate(0 -18.506967775609183 -14.672207858758497)"><path d="M-37.01 -29.34 L-22.42 -25.87 L-30.3 -15.93 L-37.01 -29.34" stroke="none" stroke-width="0" fill="#1971c2" fill-rule="evenodd"></path><path d="M-37.01 -29.34 C-33.57 -28.52, -30.12 -27.7, -22.42 -25.87 M-37.01 -29.34 C-33.35 -28.47, -29.7 -27.6, -22.42 -25.87 M-22.42 -25.87 C-24.57 -23.16, -26.71 -20.46, -30.3 -15.93 M-22.42 -25.87 C-24.3 -23.5, -26.18 -21.12, -30.3 -15.93 M-30.3 -15.93 C-32.2 -19.73, -34.11 -23.53, -37.01 -29.34 M-30.3 -15.93 C-31.84 -19.02, -33.39 -22.1, -37.01 -29.34 M-37.01 -29.34 C-37.01 -29.34, -37.01 -29.34, -37.01 -29.34 M-37.01 -29.34 C-37.01 -29.34, -37.01 -29.34, -37.01 -29.34" stroke="#1971c2" stroke-width="2" fill="none"></path></g></g><mask></mask><g stroke-linecap="round"><g transform="translate(179.66123686950968 321.74459685093177) rotate(0 -18.506967775609183 -14.672207858758497)"><path d="M0 0 C-6.17 -4.89, -30.84 -24.45, -37.01 -29.34 M0 0 C-6.17 -4.89, -30.84 -24.45, -37.01 -29.34" stroke="#1971c2" stroke-width="2" fill="none"></path></g><g transform="translate(179.66123686950968 321.74459685093177) rotate(0 -18.506967775609183 -14.672207858758497)"><path d="M-37.01 -29.34 L-22.42 -25.87 L-30.3 -15.93 L-37.01 -29.34" stroke="none" stroke-width="0" fill="#1971c2" fill-rule="evenodd"></path><path d="M-37.01 -29.34 C-32.17 -28.19, -27.32 -27.03, -22.42 -25.87 M-37.01 -29.34 C-32.54 -28.28, -28.06 -27.21, -22.42 -25.87 M-22.42 -25.87 C-24.08 -23.78, -25.73 -21.69, -30.3 -15.93 M-22.42 -25.87 C-25.21 -22.35, -28 -18.83, -30.3 -15.93 M-30.3 -15.93 C-32.73 -20.78, -35.16 -25.63, -37.01 -29.34 M-30.3 -15.93 C-32.73 -20.79, -35.16 -25.65, -37.01 -29.34 M-37.01 -29.34 C-37.01 -29.34, -37.01 -29.34, -37.01 -29.34 M-37.01 -29.34 C-37.01 -29.34, -37.01 -29.34, -37.01 -29.34" stroke="#1971c2" stroke-width="2" fill="none"></path></g></g><mask></mask></svg>