<svg version="1.1" xmlns="http://www.w3.org/2000/svg" viewBox="0 0 299.92785299655395 148.33022320146614" width="299.92785299655395" height="148.33022320146614" filter="invert(93%) hue-rotate(180deg)" class="excalidraw-svg">
  <!-- svg-source:excalidraw -->
  
  <defs>
    <style class="style-fonts">
      
    </style>
    
  </defs>
  <g stroke-linecap="round"><g transform="translate(168.4884826648134 37.53581007405822) rotate(0 32.17775955176741 0)"><path d="M0 0 C10.73 0, 53.63 0, 64.36 0 M0 0 C10.73 0, 53.63 0, 64.36 0" stroke="#1971c2" stroke-width="2" fill="none"></path></g><g transform="translate(168.4884826648134 37.53581007405822) rotate(0 32.17775955176741 0)"><path d="M64.36 0 L50.76 6.34 L50.76 -6.34 L64.36 0" stroke="none" stroke-width="0" fill="#1971c2" fill-rule="evenodd"></path><path d="M64.36 0 C60.53 1.79, 56.7 3.57, 50.76 6.34 M64.36 0 C59.78 2.13, 55.2 4.27, 50.76 6.34 M50.76 6.34 C50.76 2.17, 50.76 -2.01, 50.76 -6.34 M50.76 6.34 C50.76 2.1, 50.76 -2.15, 50.76 -6.34 M50.76 -6.34 C54.18 -4.75, 57.59 -3.15, 64.36 0 M50.76 -6.34 C55.57 -4.1, 60.38 -1.85, 64.36 0 M64.36 0 C64.36 0, 64.36 0, 64.36 0 M64.36 0 C64.36 0, 64.36 0, 64.36 0" stroke="#1971c2" stroke-width="2" fill="none"></path></g></g><mask></mask><g transform="translate(10.000000000000028 10) rotate(0 10 16.373099909978976)"><text x="0" y="24.061894280069318" font-family="Helvetica, Segoe UI Emoji" font-size="28.47495636518084px" fill="#e03131" text-anchor="start" style="white-space: pre;" direction="ltr" dominant-baseline="alphabetic">A</text></g><g transform="translate(10 105.58402338150819) rotate(0 9.5 16.373099909978983)"><text x="0" y="24.061894280069318" font-family="Helvetica, Segoe UI Emoji" font-size="28.47495636518084px" fill="#2f9e44" text-anchor="start" style="white-space: pre;" direction="ltr" dominant-baseline="alphabetic">B</text></g><g transform="translate(236.1017879330774 21.55173440723715) rotate(0 26.91303253173828 16.37309990997899)"><text x="0" y="24.061894280069318" font-family="Helvetica, Segoe UI Emoji" font-size="28.47495636518084px" fill="#1971c2" text-anchor="start" style="white-space: pre;" direction="ltr" dominant-baseline="alphabetic">high</text></g><g stroke-linecap="round"><g transform="translate(112.10187985985729 10.431492843367579) rotate(0 28.19143199851524 27.859769342963133)" fill-rule="evenodd"><path d="M0 0 L0 1.99 L0 53.73 L0 55.72 L1.99 55.72 L28.52 55.72 L28.52 55.72 L31.42 55.58 L34.23 55.15 L36.92 54.46 L39.5 53.52 L41.94 52.34 L44.24 50.94 L48.34 47.54 L51.71 43.41 L54.24 38.68 L55.16 36.12 L55.83 33.46 L56.24 30.7 L56.38 27.86 L56.24 25.02 L55.83 22.26 L55.16 19.6 L54.24 17.04 L51.71 12.31 L48.34 8.18 L44.24 4.77 L41.94 3.38 L39.5 2.2 L36.92 1.26 L34.23 0.57 L31.42 0.14 L28.52 0 L28.47 0 L28.11 0 L27.12 0 L26.3 0 L25.21 0 L23.8 0 L22.05 0 L19.9 0 L17.33 0 L14.29 0 L10.75 0 L6.66 0 L1.99 0 L0 0 L0 0" stroke="none" stroke-width="0" fill="black" fill-rule="evenodd"></path><path d="M0 0 C0 0.5, 0 1.01, 0 1.99 M0 0 C0 0.66, 0 1.32, 0 1.99 M0 1.99 C0 14.61, 0 27.23, 0 53.73 M0 1.99 C0 18.83, 0 35.66, 0 53.73 M0 53.73 C0 54.46, 0 55.19, 0 55.72 M0 53.73 C0 54.22, 0 54.7, 0 55.72 M0 55.72 C0.68 55.72, 1.35 55.72, 1.99 55.72 M0 55.72 C0.75 55.72, 1.49 55.72, 1.99 55.72 M1.99 55.72 C8.09 55.72, 14.19 55.72, 28.52 55.72 M1.99 55.72 C8.17 55.72, 14.34 55.72, 28.52 55.72 M28.52 55.72 C28.52 55.72, 28.52 55.72, 28.52 55.72 M28.52 55.72 C28.52 55.72, 28.52 55.72, 28.52 55.72 M28.52 55.72 C29.41 55.68, 30.29 55.63, 31.42 55.58 M28.52 55.72 C29.31 55.68, 30.1 55.64, 31.42 55.58 M31.42 55.58 C32.38 55.43, 33.33 55.29, 34.23 55.15 M31.42 55.58 C32.48 55.41, 33.54 55.25, 34.23 55.15 M34.23 55.15 C34.9 54.98, 35.58 54.81, 36.92 54.46 M34.23 55.15 C35.06 54.94, 35.89 54.73, 36.92 54.46 M36.92 54.46 C37.93 54.09, 38.93 53.73, 39.5 53.52 M36.92 54.46 C37.45 54.27, 37.98 54.08, 39.5 53.52 M39.5 53.52 C40.06 53.25, 40.61 52.98, 41.94 52.34 M39.5 53.52 C40.4 53.09, 41.3 52.65, 41.94 52.34 M41.94 52.34 C42.45 52.03, 42.96 51.72, 44.24 50.94 M41.94 52.34 C42.71 51.88, 43.48 51.41, 44.24 50.94 M44.24 50.94 C45.06 50.26, 45.89 49.57, 48.34 47.54 M44.24 50.94 C45.24 50.11, 46.25 49.27, 48.34 47.54 M48.34 47.54 C49.14 46.55, 49.95 45.57, 51.71 43.41 M48.34 47.54 C49.4 46.24, 50.46 44.94, 51.71 43.41 M51.71 43.41 C52.3 42.3, 52.89 41.19, 54.24 38.68 M51.71 43.41 C52.23 42.42, 52.76 41.43, 54.24 38.68 M54.24 38.68 C54.6 37.68, 54.96 36.68, 55.16 36.12 M54.24 38.68 C54.52 37.88, 54.81 37.08, 55.16 36.12 M55.16 36.12 C55.42 35.07, 55.69 34.02, 55.83 33.46 M55.16 36.12 C55.36 35.32, 55.56 34.51, 55.83 33.46 M55.83 33.46 C55.95 32.67, 56.06 31.88, 56.24 30.7 M55.83 33.46 C55.92 32.85, 56.01 32.24, 56.24 30.7 M56.24 30.7 C56.28 30, 56.31 29.3, 56.38 27.86 M56.24 30.7 C56.28 30.01, 56.31 29.33, 56.38 27.86 M56.38 27.86 C56.34 27.08, 56.31 26.29, 56.24 25.02 M56.38 27.86 C56.33 26.86, 56.28 25.86, 56.24 25.02 M56.24 25.02 C56.09 24.02, 55.94 23.02, 55.83 22.26 M56.24 25.02 C56.11 24.15, 55.98 23.28, 55.83 22.26 M55.83 22.26 C55.58 21.27, 55.33 20.28, 55.16 19.6 M55.83 22.26 C55.59 21.33, 55.36 20.4, 55.16 19.6 M55.16 19.6 C54.96 19.05, 54.76 18.5, 54.24 17.04 M55.16 19.6 C54.89 18.86, 54.62 18.12, 54.24 17.04 M54.24 17.04 C53.4 15.47, 52.56 13.9, 51.71 12.31 M54.24 17.04 C53.55 15.76, 52.86 14.47, 51.71 12.31 M51.71 12.31 C50.79 11.19, 49.87 10.07, 48.34 8.18 M51.71 12.31 C50.7 11.08, 49.7 9.85, 48.34 8.18 M48.34 8.18 C46.83 6.93, 45.33 5.68, 44.24 4.77 M48.34 8.18 C47.08 7.14, 45.82 6.09, 44.24 4.77 M44.24 4.77 C43.52 4.34, 42.81 3.91, 41.94 3.38 M44.24 4.77 C43.43 4.28, 42.62 3.79, 41.94 3.38 M41.94 3.38 C41.36 3.09, 40.77 2.81, 39.5 2.2 M41.94 3.38 C41.3 3.07, 40.65 2.76, 39.5 2.2 M39.5 2.2 C38.71 1.91, 37.92 1.62, 36.92 1.26 M39.5 2.2 C38.9 1.98, 38.3 1.76, 36.92 1.26 M36.92 1.26 C35.95 1.01, 34.97 0.76, 34.23 0.57 M36.92 1.26 C36.19 1.07, 35.45 0.88, 34.23 0.57 M34.23 0.57 C33.29 0.43, 32.35 0.29, 31.42 0.14 M34.23 0.57 C33.11 0.4, 31.99 0.23, 31.42 0.14 M31.42 0.14 C30.55 0.1, 29.67 0.06, 28.52 0 M31.42 0.14 C30.57 0.1, 29.72 0.06, 28.52 0 M28.52 0 C28.51 0, 28.49 0, 28.47 0 M28.52 0 C28.51 0, 28.49 0, 28.47 0 M28.47 0 C28.37 0, 28.27 0, 28.11 0 M28.47 0 C28.4 0, 28.32 0, 28.11 0 M28.11 0 C27.8 0, 27.5 0, 27.12 0 M28.11 0 C27.73 0, 27.36 0, 27.12 0 M27.12 0 C26.92 0, 26.71 0, 26.3 0 M27.12 0 C26.87 0, 26.62 0, 26.3 0 M26.3 0 C26.06 0, 25.83 0, 25.21 0 M26.3 0 C25.89 0, 25.47 0, 25.21 0 M25.21 0 C24.86 0, 24.51 0, 23.8 0 M25.21 0 C24.89 0, 24.58 0, 23.8 0 M23.8 0 C23.3 0, 22.81 0, 22.05 0 M23.8 0 C23.41 0, 23.02 0, 22.05 0 M22.05 0 C21.53 0, 21.02 0, 19.9 0 M22.05 0 C21.59 0, 21.14 0, 19.9 0 M19.9 0 C18.89 0, 17.89 0, 17.33 0 M19.9 0 C19.29 0, 18.68 0, 17.33 0 M17.33 0 C16.58 0, 15.82 0, 14.29 0 M17.33 0 C16.6 0, 15.86 0, 14.29 0 M14.29 0 C13.12 0, 11.95 0, 10.75 0 M14.29 0 C13.51 0, 12.72 0, 10.75 0 M10.75 0 C9.73 0, 8.71 0, 6.66 0 M10.75 0 C9.48 0, 8.22 0, 6.66 0 M6.66 0 C5.32 0, 3.99 0, 1.99 0 M6.66 0 C5.06 0, 3.46 0, 1.99 0 M1.99 0 C1.46 0, 0.92 0, 0 0 M1.99 0 C1.32 0, 0.65 0, 0 0 M0 0 C0 0, 0 0, 0 0 M0 0 C0 0, 0 0, 0 0 M0 0 C0 0, 0 0, 0 0 M0 0 C0 0, 0 0, 0 0" stroke="#000000" stroke-width="1" fill="none"></path></g></g><mask></mask><g stroke-linecap="round"><g transform="translate(36.72739625010166 25.17052771028125) rotate(0 39.92152850764954 40.185463402701316)"><path d="M0 0 C2.79 9.17, 3.44 41.6, 16.75 55 C30.05 68.39, 69.33 76.14, 79.84 80.37 M0 0 C2.79 9.17, 3.44 41.6, 16.75 55 C30.05 68.39, 69.33 76.14, 79.84 80.37" stroke="#e03131" stroke-width="2" fill="none"></path></g><g transform="translate(36.72739625010166 25.17052771028125) rotate(0 39.92152850764954 40.185463402701316)"><path d="M79.84 80.37 L64.99 82.46 L68.7 70.33 L79.84 80.37" stroke="none" stroke-width="0" fill="#e03131" fill-rule="evenodd"></path><path d="M79.84 80.37 C76.74 80.81, 73.64 81.24, 64.99 82.46 M79.84 80.37 C74.49 81.12, 69.15 81.88, 64.99 82.46 M64.99 82.46 C65.84 79.67, 66.69 76.89, 68.7 70.33 M64.99 82.46 C66.46 77.66, 67.92 72.86, 68.7 70.33 M68.7 70.33 C71.12 72.52, 73.55 74.71, 79.84 80.37 M68.7 70.33 C71.46 72.82, 74.22 75.31, 79.84 80.37 M79.84 80.37 C79.84 80.37, 79.84 80.37, 79.84 80.37 M79.84 80.37 C79.84 80.37, 79.84 80.37, 79.84 80.37" stroke="#e03131" stroke-width="2" fill="none"></path></g></g><mask></mask><g stroke-linecap="round"><g transform="translate(36.62841625941732 25.302503967887134) rotate(0 37.35169659957937 0)"><path d="M0 0 C12.45 0, 62.25 0, 74.7 0 M0 0 C12.45 0, 62.25 0, 74.7 0" stroke="#e03131" stroke-width="2" fill="none"></path></g><g transform="translate(36.62841625941732 25.302503967887134) rotate(0 37.35169659957937 0)"><path d="M74.7 0 L61.11 6.34 L61.11 -6.34 L74.7 0" stroke="none" stroke-width="0" fill="#e03131" fill-rule="evenodd"></path><path d="M74.7 0 C70.93 1.76, 67.16 3.52, 61.11 6.34 M74.7 0 C71.4 1.54, 68.09 3.08, 61.11 6.34 M61.11 6.34 C61.11 3.04, 61.11 -0.26, 61.11 -6.34 M61.11 6.34 C61.11 1.71, 61.11 -2.92, 61.11 -6.34 M61.11 -6.34 C65.49 -4.3, 69.87 -2.25, 74.7 0 M61.11 -6.34 C65.01 -4.52, 68.91 -2.7, 74.7 0 M74.7 0 C74.7 0, 74.7 0, 74.7 0 M74.7 0 C74.7 0, 74.7 0, 74.7 0" stroke="#e03131" stroke-width="2" fill="none"></path></g></g><mask></mask><g stroke-linecap="round"><g transform="translate(36.74903828399255 119.27435072387058) rotate(0 39.843402724779665 0)"><path d="M0 0 C13.28 0, 66.41 0, 79.69 0 M0 0 C13.28 0, 66.41 0, 79.69 0" stroke="#2f9e44" stroke-width="2" fill="none"></path></g><g transform="translate(36.74903828399255 119.27435072387058) rotate(0 39.843402724779665 0)"><path d="M79.69 0 L66.09 6.34 L66.09 -6.34 L79.69 0" stroke="none" stroke-width="0" fill="#2f9e44" fill-rule="evenodd"></path><path d="M79.69 0 C74.48 2.43, 69.27 4.86, 66.09 6.34 M79.69 0 C75.25 2.07, 70.81 4.14, 66.09 6.34 M66.09 6.34 C66.09 2.84, 66.09 -0.65, 66.09 -6.34 M66.09 6.34 C66.09 3.43, 66.09 0.51, 66.09 -6.34 M66.09 -6.34 C70.68 -4.2, 75.27 -2.06, 79.69 0 M66.09 -6.34 C69.39 -4.8, 72.68 -3.27, 79.69 0 M79.69 0 C79.69 0, 79.69 0, 79.69 0 M79.69 0 C79.69 0, 79.69 0, 79.69 0" stroke="#2f9e44" stroke-width="2" fill="none"></path></g></g><mask></mask><g stroke-linecap="round" transform="translate(49.8695873706335 75.89388146329037) rotate(0 1.670548922545649 1.75622019294849)"><path d="M3.34 1.76 C3.34 1.86, 3.33 1.96, 3.32 2.06 C3.3 2.16, 3.27 2.26, 3.24 2.36 C3.21 2.45, 3.17 2.55, 3.12 2.63 C3.07 2.72, 3.01 2.81, 2.95 2.89 C2.89 2.96, 2.82 3.04, 2.74 3.1 C2.67 3.17, 2.59 3.23, 2.51 3.28 C2.42 3.33, 2.33 3.37, 2.24 3.41 C2.15 3.44, 2.06 3.47, 1.96 3.49 C1.87 3.5, 1.77 3.51, 1.67 3.51 C1.57 3.51, 1.48 3.5, 1.38 3.49 C1.29 3.47, 1.19 3.44, 1.1 3.41 C1.01 3.37, 0.92 3.33, 0.84 3.28 C0.75 3.23, 0.67 3.17, 0.6 3.1 C0.52 3.04, 0.45 2.96, 0.39 2.89 C0.33 2.81, 0.27 2.72, 0.22 2.63 C0.18 2.55, 0.13 2.45, 0.1 2.36 C0.07 2.26, 0.04 2.16, 0.03 2.06 C0.01 1.96, 0 1.86, 0 1.76 C0 1.65, 0.01 1.55, 0.03 1.45 C0.04 1.35, 0.07 1.25, 0.1 1.16 C0.13 1.06, 0.18 0.97, 0.22 0.88 C0.27 0.79, 0.33 0.71, 0.39 0.63 C0.45 0.55, 0.52 0.48, 0.6 0.41 C0.67 0.35, 0.75 0.29, 0.84 0.24 C0.92 0.18, 1.01 0.14, 1.1 0.11 C1.19 0.07, 1.29 0.04, 1.38 0.03 C1.48 0.01, 1.57 0, 1.67 0 C1.77 0, 1.87 0.01, 1.96 0.03 C2.06 0.04, 2.15 0.07, 2.24 0.11 C2.33 0.14, 2.42 0.18, 2.51 0.24 C2.59 0.29, 2.67 0.35, 2.74 0.41 C2.82 0.48, 2.89 0.55, 2.95 0.63 C3.01 0.71, 3.07 0.79, 3.12 0.88 C3.17 0.97, 3.21 1.06, 3.24 1.16 C3.27 1.25, 3.3 1.35, 3.32 1.45 C3.33 1.55, 3.34 1.71, 3.34 1.76 C3.35 1.81, 3.35 1.71, 3.34 1.76" stroke="none" stroke-width="0" fill="#FFFFFF"></path><path d="M3.34 1.76 C3.34 1.86, 3.33 1.96, 3.32 2.06 C3.3 2.16, 3.27 2.26, 3.24 2.36 C3.21 2.45, 3.17 2.55, 3.12 2.63 C3.07 2.72, 3.01 2.81, 2.95 2.89 C2.89 2.96, 2.82 3.04, 2.74 3.1 C2.67 3.17, 2.59 3.23, 2.51 3.28 C2.42 3.33, 2.33 3.37, 2.24 3.41 C2.15 3.44, 2.06 3.47, 1.96 3.49 C1.87 3.5, 1.77 3.51, 1.67 3.51 C1.57 3.51, 1.48 3.5, 1.38 3.49 C1.29 3.47, 1.19 3.44, 1.1 3.41 C1.01 3.37, 0.92 3.33, 0.84 3.28 C0.75 3.23, 0.67 3.17, 0.6 3.1 C0.52 3.04, 0.45 2.96, 0.39 2.89 C0.33 2.81, 0.27 2.72, 0.22 2.63 C0.18 2.55, 0.13 2.45, 0.1 2.36 C0.07 2.26, 0.04 2.16, 0.03 2.06 C0.01 1.96, 0 1.86, 0 1.76 C0 1.65, 0.01 1.55, 0.03 1.45 C0.04 1.35, 0.07 1.25, 0.1 1.16 C0.13 1.06, 0.18 0.97, 0.22 0.88 C0.27 0.79, 0.33 0.71, 0.39 0.63 C0.45 0.55, 0.52 0.48, 0.6 0.41 C0.67 0.35, 0.75 0.29, 0.84 0.24 C0.92 0.18, 1.01 0.14, 1.1 0.11 C1.19 0.07, 1.29 0.04, 1.38 0.03 C1.48 0.01, 1.57 0, 1.67 0 C1.77 0, 1.87 0.01, 1.96 0.03 C2.06 0.04, 2.15 0.07, 2.24 0.11 C2.33 0.14, 2.42 0.18, 2.51 0.24 C2.59 0.29, 2.67 0.35, 2.74 0.41 C2.82 0.48, 2.89 0.55, 2.95 0.63 C3.01 0.71, 3.07 0.79, 3.12 0.88 C3.17 0.97, 3.21 1.06, 3.24 1.16 C3.27 1.25, 3.3 1.35, 3.32 1.45 C3.33 1.55, 3.34 1.71, 3.34 1.76 C3.35 1.81, 3.35 1.71, 3.34 1.76" stroke="#ffffff" stroke-width="2" fill="none"></path></g><g stroke-linecap="round"><g transform="translate(36.71266044610127 119.2379728859793) rotate(0 36.82181870965405 -37.93943176757928)"><path d="M0 0 C3.85 -9.06, 10.85 -41.68, 23.12 -54.33 C35.39 -66.98, 65.22 -72.29, 73.64 -75.88 M0 0 C3.85 -9.06, 10.85 -41.68, 23.12 -54.33 C35.39 -66.98, 65.22 -72.29, 73.64 -75.88" stroke="#2f9e44" stroke-width="2" fill="none"></path></g><g transform="translate(36.71266044610127 119.2379728859793) rotate(0 36.82181870965405 -37.93943176757928)"><path d="M73.64 -75.88 L62.56 -65.77 L58.78 -77.87 L73.64 -75.88" stroke="none" stroke-width="0" fill="#2f9e44" fill-rule="evenodd"></path><path d="M73.64 -75.88 C69.35 -71.96, 65.05 -68.04, 62.56 -65.77 M73.64 -75.88 C69.34 -71.96, 65.05 -68.04, 62.56 -65.77 M62.56 -65.77 C61.34 -69.69, 60.11 -73.6, 58.78 -77.87 M62.56 -65.77 C61.11 -70.4, 59.67 -75.02, 58.78 -77.87 M58.78 -77.87 C62.64 -77.35, 66.5 -76.84, 73.64 -75.88 M58.78 -77.87 C62.39 -77.39, 66 -76.9, 73.64 -75.88 M73.64 -75.88 C73.64 -75.88, 73.64 -75.88, 73.64 -75.88 M73.64 -75.88 C73.64 -75.88, 73.64 -75.88, 73.64 -75.88" stroke="#2f9e44" stroke-width="2" fill="none"></path></g></g><mask></mask><g transform="translate(236.1017879330774 92.60755114057619) rotate(0 22.079383850097656 16.37309990997899)"><text x="0" y="24.061894280069318" font-family="Helvetica, Segoe UI Emoji" font-size="28.47495636518084px" fill="#f08c00" text-anchor="start" style="white-space: pre;" direction="ltr" dominant-baseline="alphabetic">low</text></g><g stroke-linecap="round"><g transform="translate(176.4798839017155 110.02565347571033) rotate(0 28.388959727748812 0)"><path d="M0 0 C9.46 0, 47.31 0, 56.78 0 M0 0 C9.46 0, 47.31 0, 56.78 0" stroke="#f08c00" stroke-width="2" fill="none"></path></g><g transform="translate(176.4798839017155 110.02565347571033) rotate(0 28.388959727748812 0)"><path d="M56.78 0 L43.18 6.34 L43.18 -6.34 L56.78 0" stroke="none" stroke-width="0" fill="#f08c00" fill-rule="evenodd"></path><path d="M56.78 0 C52.06 2.2, 47.35 4.4, 43.18 6.34 M56.78 0 C53.15 1.69, 49.53 3.38, 43.18 6.34 M43.18 6.34 C43.18 3.78, 43.18 1.23, 43.18 -6.34 M43.18 6.34 C43.18 3.54, 43.18 0.73, 43.18 -6.34 M43.18 -6.34 C46.18 -4.94, 49.18 -3.54, 56.78 0 M43.18 -6.34 C46.17 -4.95, 49.16 -3.55, 56.78 0 M56.78 0 C56.78 0, 56.78 0, 56.78 0 M56.78 0 C56.78 0, 56.78 0, 56.78 0" stroke="#f08c00" stroke-width="2" fill="none"></path></g></g><mask></mask><g stroke-linecap="round"><g transform="translate(116.0818476679705 14.411459987252101) rotate(0 23.879804191764578 23.879801866964257)" fill-rule="evenodd"><path d="M0 0 L0 0 L3.98 0 L7.58 0 L10.8 0 L13.64 0 L16.11 0 L18.19 0 L19.9 0 L21.23 0 L22.32 0 L23.14 0 L24.13 0 L24.5 0 L24.54 0 L29.44 0.48 L33.91 1.87 L37.86 4.07 L41.25 6.98 L44 10.51 L46.04 14.56 L47.32 19.05 L47.76 23.88 L47.29 28.71 L45.94 33.2 L43.79 37.25 L40.92 40.78 L37.41 43.69 L33.35 45.89 L28.81 47.28 L23.88 47.76 L0 47.76 L0 0 L0 0" stroke="none" stroke-width="0" fill="#FFFFFF" fill-rule="evenodd"></path><path d="M0 0 C0 0, 0 0, 0 0 M0 0 C0 0, 0 0, 0 0 M0 0 C1.28 0, 2.56 0, 3.98 0 M0 0 C1.09 0, 2.17 0, 3.98 0 M3.98 0 C5.14 0, 6.31 0, 7.58 0 M3.98 0 C4.87 0, 5.75 0, 7.58 0 M7.58 0 C8.84 0, 10.1 0, 10.8 0 M7.58 0 C8.73 0, 9.87 0, 10.8 0 M10.8 0 C11.79 0, 12.79 0, 13.64 0 M10.8 0 C11.64 0, 12.47 0, 13.64 0 M13.64 0 C14.49 0, 15.34 0, 16.11 0 M13.64 0 C14.16 0, 14.68 0, 16.11 0 M16.11 0 C16.77 0, 17.43 0, 18.19 0 M16.11 0 C16.89 0, 17.67 0, 18.19 0 M18.19 0 C18.85 0, 19.5 0, 19.9 0 M18.19 0 C18.82 0, 19.44 0, 19.9 0 M19.9 0 C20.32 0, 20.73 0, 21.23 0 M19.9 0 C20.32 0, 20.75 0, 21.23 0 M21.23 0 C21.57 0, 21.91 0, 22.32 0 M21.23 0 C21.58 0, 21.94 0, 22.32 0 M22.32 0 C22.56 0, 22.79 0, 23.14 0 M22.32 0 C22.55 0, 22.79 0, 23.14 0 M23.14 0 C23.37 0, 23.6 0, 24.13 0 M23.14 0 C23.41 0, 23.69 0, 24.13 0 M24.13 0 C24.25 0, 24.37 0, 24.5 0 M24.13 0 C24.22 0, 24.31 0, 24.5 0 M24.5 0 C24.51 0, 24.52 0, 24.54 0 M24.5 0 C24.52 0, 24.53 0, 24.54 0 M24.54 0 C26.36 0.18, 28.18 0.36, 29.44 0.48 M24.54 0 C26.02 0.15, 27.5 0.29, 29.44 0.48 M29.44 0.48 C31.19 1.03, 32.94 1.57, 33.91 1.87 M29.44 0.48 C30.39 0.78, 31.33 1.07, 33.91 1.87 M33.91 1.87 C35.21 2.59, 36.51 3.31, 37.86 4.07 M33.91 1.87 C35.42 2.71, 36.93 3.55, 37.86 4.07 M37.86 4.07 C38.7 4.78, 39.53 5.5, 41.25 6.98 M37.86 4.07 C38.62 4.72, 39.38 5.37, 41.25 6.98 M41.25 6.98 C42.19 8.19, 43.13 9.4, 44 10.51 M41.25 6.98 C42.17 8.15, 43.08 9.33, 44 10.51 M44 10.51 C44.68 11.85, 45.35 13.19, 46.04 14.56 M44 10.51 C44.55 11.61, 45.11 12.71, 46.04 14.56 M46.04 14.56 C46.44 15.97, 46.84 17.38, 47.32 19.05 M46.04 14.56 C46.33 15.59, 46.62 16.61, 47.32 19.05 M47.32 19.05 C47.48 20.79, 47.64 22.54, 47.76 23.88 M47.32 19.05 C47.5 20.98, 47.67 22.91, 47.76 23.88 M47.76 23.88 C47.58 25.77, 47.39 27.66, 47.29 28.71 M47.76 23.88 C47.64 25.13, 47.52 26.38, 47.29 28.71 M47.29 28.71 C46.82 30.28, 46.35 31.85, 45.94 33.2 M47.29 28.71 C46.85 30.18, 46.41 31.65, 45.94 33.2 M45.94 33.2 C45.34 34.34, 44.73 35.48, 43.79 37.25 M45.94 33.2 C45.41 34.2, 44.88 35.2, 43.79 37.25 M43.79 37.25 C42.89 38.36, 41.99 39.47, 40.92 40.78 M43.79 37.25 C42.79 38.48, 41.79 39.72, 40.92 40.78 M40.92 40.78 C39.74 41.76, 38.56 42.74, 37.41 43.69 M40.92 40.78 C39.75 41.75, 38.59 42.72, 37.41 43.69 M37.41 43.69 C35.9 44.51, 34.39 45.33, 33.35 45.89 M37.41 43.69 C36.48 44.2, 35.55 44.7, 33.35 45.89 M33.35 45.89 C32.16 46.25, 30.97 46.62, 28.81 47.28 M33.35 45.89 C32.07 46.28, 30.8 46.67, 28.81 47.28 M28.81 47.28 C27.62 47.39, 26.42 47.51, 23.88 47.76 M28.81 47.28 C27.29 47.43, 25.77 47.57, 23.88 47.76 M23.88 47.76 C18.68 47.76, 13.49 47.76, 0 47.76 M23.88 47.76 C14.74 47.76, 5.61 47.76, 0 47.76 M0 47.76 C0 31.25, 0 14.73, 0 0 M0 47.76 C0 28.69, 0 9.62, 0 0 M0 0 C0 0, 0 0, 0 0 M0 0 C0 0, 0 0, 0 0 M0 0 C0 0, 0 0, 0 0 M0 0 C0 0, 0 0, 0 0" stroke="#000000" stroke-width="1" fill="none"></path></g></g><mask></mask><g transform="translate(128.5853352603521 33.8985304443959) rotate(0 12.348747253417969 6.502729939670672)"><text x="0" y="9.556406618201487" font-family="Helvetica, Segoe UI Emoji" font-size="11.30909554725335px" fill="#1971c2" text-anchor="start" style="white-space: pre;" direction="ltr" dominant-baseline="alphabetic">AND</text></g><g stroke-linecap="round"><g transform="translate(117.01889813295438 131.77257124803182) rotate(0 -0.7208039657371046 -21.19553758647296)" fill-rule="evenodd"><path d="M0 0 L0 0 L-0.69 1.11 L-1.28 1.98 L-2.15 3.11 L-2.65 3.62 L-2.81 3.74 L-7.36 3.74 L-4.87 0.7 L-4.87 0.7 L-4.79 0.6 L-4.57 0.3 L-3.77 -0.87 L-2.64 -2.75 L-1.34 -5.31 L-0.05 -8.48 L1.08 -12.22 L1.88 -16.47 L2.18 -21.2 L1.88 -25.92 L1.08 -30.17 L-0.05 -33.91 L-1.34 -37.08 L-2.64 -39.64 L-3.77 -41.52 L-4.57 -42.69 L-4.79 -42.99 L-4.87 -43.09 L-7.36 -46.13 L-2.81 -46.13 L-2.81 -46.13 L-1.43 -44.45 L-0.04 -42.39 L0.89 -40.78 L1.88 -38.85 L2.87 -36.61 L3.82 -34.07 L4.65 -31.25 L5.32 -28.16 L5.76 -24.8 L5.92 -21.2 L5.76 -17.6 L5.32 -14.25 L4.66 -11.16 L3.83 -8.34 L2.89 -5.8 L1.9 -3.56 L0.92 -1.62 L0 0 L0 0" stroke="none" stroke-width="0" fill="black" fill-rule="evenodd"></path><path d="M0 0 C0 0, 0 0, 0 0 M0 0 C0 0, 0 0, 0 0 M0 0 C-0.26 0.42, -0.52 0.83, -0.69 1.11 M0 0 C-0.19 0.31, -0.39 0.62, -0.69 1.11 M-0.69 1.11 C-0.88 1.39, -1.08 1.68, -1.28 1.98 M-0.69 1.11 C-0.87 1.37, -1.04 1.62, -1.28 1.98 M-1.28 1.98 C-1.58 2.37, -1.89 2.77, -2.15 3.11 M-1.28 1.98 C-1.49 2.25, -1.71 2.53, -2.15 3.11 M-2.15 3.11 C-2.29 3.25, -2.43 3.4, -2.65 3.62 M-2.15 3.11 C-2.3 3.26, -2.45 3.42, -2.65 3.62 M-2.65 3.62 C-2.68 3.64, -2.71 3.67, -2.81 3.74 M-2.65 3.62 C-2.7 3.66, -2.76 3.7, -2.81 3.74 M-2.81 3.74 C-3.77 3.74, -4.72 3.74, -7.36 3.74 M-2.81 3.74 C-4.2 3.74, -5.6 3.74, -7.36 3.74 M-7.36 3.74 C-6.68 2.91, -6 2.08, -4.87 0.7 M-7.36 3.74 C-6.77 3.01, -6.17 2.29, -4.87 0.7 M-4.87 0.7 C-4.87 0.7, -4.87 0.7, -4.87 0.7 M-4.87 0.7 C-4.87 0.7, -4.87 0.7, -4.87 0.7 M-4.87 0.7 C-4.84 0.67, -4.82 0.64, -4.79 0.6 M-4.87 0.7 C-4.85 0.67, -4.83 0.64, -4.79 0.6 M-4.79 0.6 C-4.74 0.53, -4.69 0.47, -4.57 0.3 M-4.79 0.6 C-4.74 0.53, -4.69 0.46, -4.57 0.3 M-4.57 0.3 C-4.34 -0.03, -4.12 -0.35, -3.77 -0.87 M-4.57 0.3 C-4.34 -0.03, -4.12 -0.35, -3.77 -0.87 M-3.77 -0.87 C-3.32 -1.61, -2.88 -2.35, -2.64 -2.75 M-3.77 -0.87 C-3.4 -1.48, -3.03 -2.1, -2.64 -2.75 M-2.64 -2.75 C-2.21 -3.6, -1.79 -4.44, -1.34 -5.31 M-2.64 -2.75 C-2.2 -3.63, -1.75 -4.5, -1.34 -5.31 M-1.34 -5.31 C-0.97 -6.24, -0.59 -7.16, -0.05 -8.48 M-1.34 -5.31 C-0.91 -6.36, -0.48 -7.41, -0.05 -8.48 M-0.05 -8.48 C0.18 -9.23, 0.4 -9.98, 1.08 -12.22 M-0.05 -8.48 C0.19 -9.26, 0.42 -10.05, 1.08 -12.22 M1.08 -12.22 C1.29 -13.36, 1.51 -14.5, 1.88 -16.47 M1.08 -12.22 C1.37 -13.78, 1.67 -15.35, 1.88 -16.47 M1.88 -16.47 C1.96 -17.78, 2.05 -19.09, 2.18 -21.2 M1.88 -16.47 C1.98 -18.12, 2.09 -19.77, 2.18 -21.2 M2.18 -21.2 C2.07 -22.92, 1.96 -24.64, 1.88 -25.92 M2.18 -21.2 C2.11 -22.24, 2.05 -23.28, 1.88 -25.92 M1.88 -25.92 C1.65 -27.16, 1.41 -28.41, 1.08 -30.17 M1.88 -25.92 C1.68 -26.96, 1.49 -28.01, 1.08 -30.17 M1.08 -30.17 C0.82 -31.03, 0.56 -31.89, -0.05 -33.91 M1.08 -30.17 C0.79 -31.12, 0.51 -32.07, -0.05 -33.91 M-0.05 -33.91 C-0.35 -34.65, -0.65 -35.38, -1.34 -37.08 M-0.05 -33.91 C-0.45 -34.9, -0.86 -35.89, -1.34 -37.08 M-1.34 -37.08 C-1.62 -37.63, -1.9 -38.17, -2.64 -39.64 M-1.34 -37.08 C-1.73 -37.85, -2.12 -38.62, -2.64 -39.64 M-2.64 -39.64 C-2.9 -40.08, -3.17 -40.52, -3.77 -41.52 M-2.64 -39.64 C-3.07 -40.35, -3.5 -41.07, -3.77 -41.52 M-3.77 -41.52 C-3.98 -41.83, -4.19 -42.14, -4.57 -42.69 M-3.77 -41.52 C-4.06 -41.95, -4.36 -42.39, -4.57 -42.69 M-4.57 -42.69 C-4.63 -42.78, -4.69 -42.86, -4.79 -42.99 M-4.57 -42.69 C-4.61 -42.75, -4.66 -42.82, -4.79 -42.99 M-4.79 -42.99 C-4.81 -43.02, -4.83 -43.04, -4.87 -43.09 M-4.79 -42.99 C-4.82 -43.03, -4.85 -43.06, -4.87 -43.09 M-4.87 -43.09 C-5.69 -44.09, -6.51 -45.09, -7.36 -46.13 M-4.87 -43.09 C-5.82 -44.25, -6.77 -45.4, -7.36 -46.13 M-7.36 -46.13 C-5.61 -46.13, -3.85 -46.13, -2.81 -46.13 M-7.36 -46.13 C-6.11 -46.13, -4.85 -46.13, -2.81 -46.13 M-2.81 -46.13 C-2.81 -46.13, -2.81 -46.13, -2.81 -46.13 M-2.81 -46.13 C-2.81 -46.13, -2.81 -46.13, -2.81 -46.13 M-2.81 -46.13 C-2.44 -45.69, -2.08 -45.25, -1.43 -44.45 M-2.81 -46.13 C-2.4 -45.63, -1.99 -45.14, -1.43 -44.45 M-1.43 -44.45 C-1 -43.82, -0.58 -43.19, -0.04 -42.39 M-1.43 -44.45 C-0.89 -43.65, -0.35 -42.86, -0.04 -42.39 M-0.04 -42.39 C0.17 -42.03, 0.38 -41.66, 0.89 -40.78 M-0.04 -42.39 C0.25 -41.89, 0.53 -41.4, 0.89 -40.78 M0.89 -40.78 C1.27 -40.04, 1.64 -39.3, 1.88 -38.85 M0.89 -40.78 C1.09 -40.39, 1.29 -40, 1.88 -38.85 M1.88 -38.85 C2.21 -38.1, 2.54 -37.35, 2.87 -36.61 M1.88 -38.85 C2.16 -38.21, 2.45 -37.57, 2.87 -36.61 M2.87 -36.61 C3.18 -35.78, 3.49 -34.96, 3.82 -34.07 M2.87 -36.61 C3.17 -35.8, 3.47 -35, 3.82 -34.07 M3.82 -34.07 C4.02 -33.37, 4.23 -32.67, 4.65 -31.25 M3.82 -34.07 C4.13 -33.01, 4.45 -31.94, 4.65 -31.25 M4.65 -31.25 C4.88 -30.21, 5.1 -29.18, 5.32 -28.16 M4.65 -31.25 C4.87 -30.23, 5.09 -29.2, 5.32 -28.16 M5.32 -28.16 C5.46 -27.05, 5.61 -25.95, 5.76 -24.8 M5.32 -28.16 C5.41 -27.46, 5.5 -26.77, 5.76 -24.8 M5.76 -24.8 C5.82 -23.49, 5.88 -22.19, 5.92 -21.2 M5.76 -24.8 C5.8 -23.85, 5.85 -22.89, 5.92 -21.2 M5.92 -21.2 C5.87 -19.98, 5.81 -18.76, 5.76 -17.6 M5.92 -21.2 C5.86 -19.87, 5.8 -18.54, 5.76 -17.6 M5.76 -17.6 C5.67 -16.9, 5.58 -16.21, 5.32 -14.25 M5.76 -17.6 C5.65 -16.72, 5.53 -15.84, 5.32 -14.25 M5.32 -14.25 C5.09 -13.19, 4.87 -12.13, 4.66 -11.16 M5.32 -14.25 C5.1 -13.21, 4.88 -12.18, 4.66 -11.16 M4.66 -11.16 C4.47 -10.53, 4.29 -9.9, 3.83 -8.34 M4.66 -11.16 C4.41 -10.33, 4.17 -9.5, 3.83 -8.34 M3.83 -8.34 C3.63 -7.81, 3.44 -7.28, 2.89 -5.8 M3.83 -8.34 C3.5 -7.46, 3.18 -6.59, 2.89 -5.8 M2.89 -5.8 C2.68 -5.32, 2.46 -4.84, 1.9 -3.56 M2.89 -5.8 C2.64 -5.24, 2.39 -4.67, 1.9 -3.56 M1.9 -3.56 C1.6 -2.98, 1.31 -2.39, 0.92 -1.62 M1.9 -3.56 C1.59 -2.94, 1.28 -2.33, 0.92 -1.62 M0.92 -1.62 C0.61 -1.07, 0.3 -0.52, 0 0 M0.92 -1.62 C0.69 -1.22, 0.46 -0.81, 0 0 M0 0 C0 0, 0 0, 0 0 M0 0 C0 0, 0 0, 0 0 M0 0 C0 0, 0 0, 0 0 M0 0 C0 0, 0 0, 0 0" stroke="#000000" stroke-width="0.5" fill="none"></path></g></g><mask></mask><g stroke-linecap="round"><g transform="translate(116.82408625032278 85.64110792855823) rotate(0 30.215322996168872 24.935920976851165)" fill-rule="evenodd"><path d="M0 0 L2.49 3.04 L2.49 3.04 L2.57 3.14 L2.8 3.44 L3.6 4.61 L4.72 6.5 L6.02 9.05 L7.31 12.22 L8.44 15.96 L9.24 20.21 L9.55 24.94 L9.24 29.66 L8.44 33.91 L7.31 37.65 L6.02 40.82 L4.72 43.38 L3.6 45.26 L2.8 46.43 L2.57 46.73 L2.49 46.83 L0 49.87 L3.94 49.87 L21.39 49.87 L21.39 49.87 L22.68 49.87 L24.27 49.83 L26.13 49.72 L28.23 49.51 L30.54 49.15 L33.02 48.62 L35.65 47.87 L38.38 46.87 L41.19 45.58 L44.04 43.98 L46.91 42.02 L49.77 39.67 L52.58 36.91 L55.32 33.71 L57.94 30.02 L60.43 25.83 L58.79 24.94 L60.43 24.04 L60.43 24.04 L57.94 19.85 L55.31 16.18 L52.57 12.99 L49.75 10.26 L46.88 7.93 L44 5.99 L41.13 4.39 L38.32 3.11 L35.58 2.1 L32.96 1.34 L30.49 0.79 L28.19 0.41 L26.09 0.18 L24.24 0.06 L22.66 0.01 L21.39 0 L3.94 0 L0 0 L0 0" stroke="none" stroke-width="0" fill="black" fill-rule="evenodd"></path><path d="M0 0 C0.76 0.93, 1.53 1.86, 2.49 3.04 M0 0 C0.7 0.86, 1.41 1.72, 2.49 3.04 M2.49 3.04 C2.49 3.04, 2.49 3.04, 2.49 3.04 M2.49 3.04 C2.49 3.04, 2.49 3.04, 2.49 3.04 M2.49 3.04 C2.52 3.07, 2.54 3.1, 2.57 3.14 M2.49 3.04 C2.52 3.08, 2.55 3.11, 2.57 3.14 M2.57 3.14 C2.66 3.25, 2.74 3.37, 2.8 3.44 M2.57 3.14 C2.62 3.2, 2.66 3.26, 2.8 3.44 M2.8 3.44 C3.07 3.84, 3.34 4.23, 3.6 4.61 M2.8 3.44 C2.99 3.72, 3.18 4, 3.6 4.61 M3.6 4.61 C3.86 5.04, 4.12 5.48, 4.72 6.5 M3.6 4.61 C4.04 5.35, 4.49 6.1, 4.72 6.5 M4.72 6.5 C5.09 7.22, 5.46 7.94, 6.02 9.05 M4.72 6.5 C5.1 7.24, 5.48 7.99, 6.02 9.05 M6.02 9.05 C6.43 10.05, 6.84 11.05, 7.31 12.22 M6.02 9.05 C6.34 9.83, 6.65 10.6, 7.31 12.22 M7.31 12.22 C7.56 13.03, 7.8 13.83, 8.44 15.96 M7.31 12.22 C7.68 13.43, 8.04 14.63, 8.44 15.96 M8.44 15.96 C8.69 17.29, 8.95 18.63, 9.24 20.21 M8.44 15.96 C8.7 17.35, 8.97 18.74, 9.24 20.21 M9.24 20.21 C9.32 21.45, 9.4 22.68, 9.55 24.94 M9.24 20.21 C9.32 21.43, 9.4 22.64, 9.55 24.94 M9.55 24.94 C9.48 25.92, 9.42 26.91, 9.24 29.66 M9.55 24.94 C9.46 26.31, 9.37 27.68, 9.24 29.66 M9.24 29.66 C9.01 30.89, 8.78 32.12, 8.44 33.91 M9.24 29.66 C9.05 30.71, 8.85 31.75, 8.44 33.91 M8.44 33.91 C8.01 35.36, 7.57 36.8, 7.31 37.65 M8.44 33.91 C8.04 35.27, 7.63 36.62, 7.31 37.65 M7.31 37.65 C7.03 38.36, 6.74 39.07, 6.02 40.82 M7.31 37.65 C6.84 38.8, 6.37 39.95, 6.02 40.82 M6.02 40.82 C5.59 41.67, 5.16 42.52, 4.72 43.38 M6.02 40.82 C5.71 41.43, 5.41 42.03, 4.72 43.38 M4.72 43.38 C4.34 44.02, 3.96 44.65, 3.6 45.26 M4.72 43.38 C4.38 43.95, 4.04 44.52, 3.6 45.26 M3.6 45.26 C3.33 45.65, 3.06 46.05, 2.8 46.43 M3.6 45.26 C3.29 45.72, 2.98 46.17, 2.8 46.43 M2.8 46.43 C2.72 46.54, 2.63 46.65, 2.57 46.73 M2.8 46.43 C2.73 46.52, 2.67 46.6, 2.57 46.73 M2.57 46.73 C2.54 46.77, 2.51 46.81, 2.49 46.83 M2.57 46.73 C2.54 46.77, 2.52 46.8, 2.49 46.83 M2.49 46.83 C1.57 47.96, 0.65 49.08, 0 49.87 M2.49 46.83 C1.59 47.93, 0.69 49.03, 0 49.87 M0 49.87 C1.06 49.87, 2.12 49.87, 3.94 49.87 M0 49.87 C1.03 49.87, 2.07 49.87, 3.94 49.87 M3.94 49.87 C9.05 49.87, 14.17 49.87, 21.39 49.87 M3.94 49.87 C8.96 49.87, 13.99 49.87, 21.39 49.87 M21.39 49.87 C21.39 49.87, 21.39 49.87, 21.39 49.87 M21.39 49.87 C21.39 49.87, 21.39 49.87, 21.39 49.87 M21.39 49.87 C21.66 49.87, 21.94 49.87, 22.68 49.87 M21.39 49.87 C21.73 49.87, 22.06 49.87, 22.68 49.87 M22.68 49.87 C23.2 49.85, 23.72 49.84, 24.27 49.83 M22.68 49.87 C23.04 49.86, 23.4 49.85, 24.27 49.83 M24.27 49.83 C24.76 49.8, 25.24 49.77, 26.13 49.72 M24.27 49.83 C25 49.79, 25.73 49.74, 26.13 49.72 M26.13 49.72 C26.95 49.64, 27.77 49.56, 28.23 49.51 M26.13 49.72 C26.73 49.66, 27.33 49.6, 28.23 49.51 M28.23 49.51 C28.98 49.39, 29.72 49.28, 30.54 49.15 M28.23 49.51 C28.74 49.43, 29.25 49.35, 30.54 49.15 M30.54 49.15 C31.21 49.01, 31.88 48.86, 33.02 48.62 M30.54 49.15 C31.25 49, 31.96 48.85, 33.02 48.62 M33.02 48.62 C33.89 48.37, 34.76 48.12, 35.65 47.87 M33.02 48.62 C33.56 48.47, 34.09 48.31, 35.65 47.87 M35.65 47.87 C36.38 47.6, 37.11 47.34, 38.38 46.87 M35.65 47.87 C36.5 47.56, 37.36 47.25, 38.38 46.87 M38.38 46.87 C39.44 46.39, 40.5 45.9, 41.19 45.58 M38.38 46.87 C39.02 46.58, 39.67 46.28, 41.19 45.58 M41.19 45.58 C41.99 45.13, 42.8 44.68, 44.04 43.98 M41.19 45.58 C41.84 45.22, 42.48 44.85, 44.04 43.98 M44.04 43.98 C45.19 43.2, 46.33 42.42, 46.91 42.02 M44.04 43.98 C44.92 43.38, 45.79 42.78, 46.91 42.02 M46.91 42.02 C47.82 41.27, 48.73 40.53, 49.77 39.67 M46.91 42.02 C47.94 41.18, 48.96 40.33, 49.77 39.67 M49.77 39.67 C50.57 38.89, 51.37 38.1, 52.58 36.91 M49.77 39.67 C50.5 38.96, 51.22 38.25, 52.58 36.91 M52.58 36.91 C53.61 35.71, 54.64 34.5, 55.32 33.71 M52.58 36.91 C53.17 36.23, 53.75 35.55, 55.32 33.71 M55.32 33.71 C56.31 32.32, 57.3 30.92, 57.94 30.02 M55.32 33.71 C55.96 32.8, 56.61 31.89, 57.94 30.02 M57.94 30.02 C58.85 28.5, 59.75 26.98, 60.43 25.83 M57.94 30.02 C58.86 28.48, 59.78 26.93, 60.43 25.83 M60.43 25.83 C59.82 25.5, 59.21 25.16, 58.79 24.94 M60.43 25.83 C60.03 25.61, 59.62 25.39, 58.79 24.94 M58.79 24.94 C59.43 24.59, 60.06 24.24, 60.43 24.04 M58.79 24.94 C59.41 24.6, 60.03 24.26, 60.43 24.04 M60.43 24.04 C60.43 24.04, 60.43 24.04, 60.43 24.04 M60.43 24.04 C60.43 24.04, 60.43 24.04, 60.43 24.04 M60.43 24.04 C59.8 22.97, 59.16 21.91, 57.94 19.85 M60.43 24.04 C59.76 22.92, 59.1 21.8, 57.94 19.85 M57.94 19.85 C56.9 18.4, 55.86 16.94, 55.31 16.18 M57.94 19.85 C57.11 18.7, 56.29 17.55, 55.31 16.18 M55.31 16.18 C54.28 14.98, 53.24 13.78, 52.57 12.99 M55.31 16.18 C54.67 15.43, 54.02 14.69, 52.57 12.99 M52.57 12.99 C51.8 12.25, 51.04 11.51, 49.75 10.26 M52.57 12.99 C51.57 12.03, 50.58 11.06, 49.75 10.26 M49.75 10.26 C48.99 9.64, 48.23 9.03, 46.88 7.93 M49.75 10.26 C48.74 9.44, 47.73 8.62, 46.88 7.93 M46.88 7.93 C45.91 7.28, 44.94 6.63, 44 5.99 M46.88 7.93 C45.87 7.25, 44.87 6.57, 44 5.99 M44 5.99 C43.33 5.62, 42.67 5.25, 41.13 4.39 M44 5.99 C43.24 5.56, 42.47 5.14, 41.13 4.39 M41.13 4.39 C40.17 3.95, 39.2 3.51, 38.32 3.11 M41.13 4.39 C40.29 4.01, 39.45 3.62, 38.32 3.11 M38.32 3.11 C37.52 2.81, 36.72 2.52, 35.58 2.1 M38.32 3.11 C37.51 2.81, 36.7 2.51, 35.58 2.1 M35.58 2.1 C34.54 1.8, 33.51 1.5, 32.96 1.34 M35.58 2.1 C35 1.93, 34.42 1.76, 32.96 1.34 M32.96 1.34 C32.31 1.19, 31.67 1.05, 30.49 0.79 M32.96 1.34 C32.14 1.15, 31.31 0.97, 30.49 0.79 M30.49 0.79 C29.91 0.69, 29.34 0.6, 28.19 0.41 M30.49 0.79 C29.9 0.69, 29.31 0.6, 28.19 0.41 M28.19 0.41 C27.64 0.35, 27.1 0.29, 26.09 0.18 M28.19 0.41 C27.46 0.33, 26.73 0.25, 26.09 0.18 M26.09 0.18 C25.71 0.16, 25.33 0.13, 24.24 0.06 M26.09 0.18 C25.41 0.14, 24.72 0.09, 24.24 0.06 M24.24 0.06 C23.92 0.05, 23.6 0.04, 22.66 0.01 M24.24 0.06 C23.81 0.04, 23.38 0.03, 22.66 0.01 M22.66 0.01 C22.37 0.01, 22.08 0, 21.39 0 M22.66 0.01 C22.34 0.01, 22.02 0, 21.39 0 M21.39 0 C15.87 0, 10.36 0, 3.94 0 M21.39 0 C15.64 0, 9.9 0, 3.94 0 M3.94 0 C3.05 0, 2.17 0, 0 0 M3.94 0 C3.08 0, 2.23 0, 0 0 M0 0 C0 0, 0 0, 0 0 M0 0 C0 0, 0 0, 0 0 M0 0 C0 0, 0 0, 0 0 M0 0 C0 0, 0 0, 0 0" stroke="#000000" stroke-width="1" fill="none"></path></g></g><mask></mask><g stroke-linecap="round"><g transform="translate(124.1490130372728 89.38149607508589) rotate(0 24.4683724585352 21.195532830323486)" fill-rule="evenodd"><path d="M0 0 L14.07 0 L14.07 0 L15.29 0 L16.75 0.03 L20.28 0.31 L24.48 1.07 L26.78 1.72 L29.16 2.59 L31.63 3.7 L34.14 5.1 L36.68 6.82 L39.22 8.87 L41.74 11.31 L44.21 14.15 L46.62 17.44 L48.94 21.2 L46.65 24.9 L44.28 28.14 L41.83 30.96 L39.34 33.38 L36.82 35.42 L34.3 37.14 L31.8 38.54 L29.34 39.66 L26.89 40.57 L24.55 41.24 L20.32 42.05 L16.78 42.35 L14.07 42.39 L0.04 42.39 L0.04 42.39 L0.96 40.77 L1.95 38.84 L2.94 36.6 L3.88 34.06 L4.7 31.24 L5.36 28.14 L5.8 24.79 L5.96 21.2 L5.8 17.59 L5.36 14.23 L4.69 11.14 L3.86 8.32 L2.91 5.78 L1.92 3.54 L0.93 1.61 L0 0 L0 0" stroke="none" stroke-width="0" fill="#FFFFFF" fill-rule="evenodd"></path><path d="M0 0 C3.42 0, 6.84 0, 14.07 0 M0 0 C3.42 0, 6.83 0, 14.07 0 M14.07 0 C14.07 0, 14.07 0, 14.07 0 M14.07 0 C14.07 0, 14.07 0, 14.07 0 M14.07 0 C14.36 0, 14.65 0, 15.29 0 M14.07 0 C14.52 0, 14.97 0, 15.29 0 M15.29 0 C15.65 0.01, 16.02 0.02, 16.75 0.03 M15.29 0 C15.74 0.01, 16.2 0.02, 16.75 0.03 M16.75 0.03 C17.49 0.09, 18.24 0.15, 20.28 0.31 M16.75 0.03 C17.96 0.13, 19.17 0.22, 20.28 0.31 M20.28 0.31 C21.2 0.48, 22.12 0.64, 24.48 1.07 M20.28 0.31 C21.29 0.49, 22.3 0.68, 24.48 1.07 M24.48 1.07 C25.12 1.25, 25.75 1.43, 26.78 1.72 M24.48 1.07 C25.06 1.24, 25.63 1.4, 26.78 1.72 M26.78 1.72 C27.67 2.05, 28.57 2.37, 29.16 2.59 M26.78 1.72 C27.63 2.03, 28.48 2.34, 29.16 2.59 M29.16 2.59 C29.81 2.88, 30.45 3.17, 31.63 3.7 M29.16 2.59 C29.79 2.87, 30.41 3.15, 31.63 3.7 M31.63 3.7 C32.46 4.17, 33.29 4.63, 34.14 5.1 M31.63 3.7 C32.17 4.01, 32.72 4.31, 34.14 5.1 M34.14 5.1 C35.13 5.77, 36.13 6.44, 36.68 6.82 M34.14 5.1 C34.85 5.59, 35.57 6.07, 36.68 6.82 M36.68 6.82 C37.57 7.54, 38.46 8.26, 39.22 8.87 M36.68 6.82 C37.45 7.45, 38.23 8.08, 39.22 8.87 M39.22 8.87 C40.21 9.83, 41.2 10.79, 41.74 11.31 M39.22 8.87 C40.09 9.72, 40.96 10.56, 41.74 11.31 M41.74 11.31 C42.36 12.02, 42.98 12.74, 44.21 14.15 M41.74 11.31 C42.55 12.25, 43.37 13.18, 44.21 14.15 M44.21 14.15 C45.16 15.45, 46.11 16.75, 46.62 17.44 M44.21 14.15 C44.75 14.89, 45.29 15.63, 46.62 17.44 M46.62 17.44 C47.31 18.56, 48 19.68, 48.94 21.2 M46.62 17.44 C47.35 18.62, 48.08 19.81, 48.94 21.2 M48.94 21.2 C48.42 22.04, 47.9 22.88, 46.65 24.9 M48.94 21.2 C48.09 22.57, 47.24 23.95, 46.65 24.9 M46.65 24.9 C45.91 25.91, 45.17 26.92, 44.28 28.14 M46.65 24.9 C45.9 25.93, 45.14 26.97, 44.28 28.14 M44.28 28.14 C43.49 29.05, 42.7 29.96, 41.83 30.96 M44.28 28.14 C43.76 28.74, 43.23 29.35, 41.83 30.96 M41.83 30.96 C40.94 31.83, 40.04 32.7, 39.34 33.38 M41.83 30.96 C41.05 31.72, 40.26 32.48, 39.34 33.38 M39.34 33.38 C38.8 33.82, 38.25 34.26, 36.82 35.42 M39.34 33.38 C38.7 33.89, 38.07 34.41, 36.82 35.42 M36.82 35.42 C36.15 35.88, 35.48 36.33, 34.3 37.14 M36.82 35.42 C36.06 35.94, 35.29 36.46, 34.3 37.14 M34.3 37.14 C33.7 37.47, 33.11 37.81, 31.8 38.54 M34.3 37.14 C33.4 37.64, 32.5 38.15, 31.8 38.54 M31.8 38.54 C31.06 38.88, 30.32 39.22, 29.34 39.66 M31.8 38.54 C31.29 38.77, 30.78 39, 29.34 39.66 M29.34 39.66 C28.78 39.87, 28.21 40.08, 26.89 40.57 M29.34 39.66 C28.64 39.92, 27.94 40.18, 26.89 40.57 M26.89 40.57 C26.21 40.76, 25.52 40.96, 24.55 41.24 M26.89 40.57 C26.02 40.82, 25.14 41.07, 24.55 41.24 M24.55 41.24 C23.6 41.43, 22.64 41.61, 20.32 42.05 M24.55 41.24 C23.07 41.53, 21.59 41.81, 20.32 42.05 M20.32 42.05 C19.21 42.15, 18.09 42.24, 16.78 42.35 M20.32 42.05 C19.36 42.13, 18.39 42.22, 16.78 42.35 M16.78 42.35 C15.78 42.37, 14.78 42.38, 14.07 42.39 M16.78 42.35 C15.84 42.36, 14.9 42.38, 14.07 42.39 M14.07 42.39 C8.49 42.39, 2.91 42.39, 0.04 42.39 M14.07 42.39 C8.49 42.39, 2.92 42.39, 0.04 42.39 M0.04 42.39 C0.04 42.39, 0.04 42.39, 0.04 42.39 M0.04 42.39 C0.04 42.39, 0.04 42.39, 0.04 42.39 M0.04 42.39 C0.24 42.04, 0.45 41.68, 0.96 40.77 M0.04 42.39 C0.38 41.8, 0.72 41.21, 0.96 40.77 M0.96 40.77 C1.31 40.09, 1.67 39.4, 1.95 38.84 M0.96 40.77 C1.24 40.23, 1.52 39.68, 1.95 38.84 M1.95 38.84 C2.16 38.36, 2.37 37.89, 2.94 36.6 M1.95 38.84 C2.16 38.35, 2.38 37.87, 2.94 36.6 M2.94 36.6 C3.21 35.86, 3.48 35.13, 3.88 34.06 M2.94 36.6 C3.2 35.89, 3.46 35.19, 3.88 34.06 M3.88 34.06 C4.09 33.33, 4.3 32.61, 4.7 31.24 M3.88 34.06 C4.14 33.17, 4.4 32.28, 4.7 31.24 M4.7 31.24 C4.93 30.18, 5.15 29.13, 5.36 28.14 M4.7 31.24 C4.91 30.26, 5.12 29.29, 5.36 28.14 M5.36 28.14 C5.54 26.84, 5.71 25.53, 5.8 24.79 M5.36 28.14 C5.47 27.31, 5.58 26.48, 5.8 24.79 M5.8 24.79 C5.84 23.86, 5.89 22.92, 5.96 21.2 M5.8 24.79 C5.84 23.86, 5.88 22.93, 5.96 21.2 M5.96 21.2 C5.91 20.13, 5.87 19.07, 5.8 17.59 M5.96 21.2 C5.91 20.02, 5.86 18.83, 5.8 17.59 M5.8 17.59 C5.67 16.59, 5.54 15.6, 5.36 14.23 M5.8 17.59 C5.69 16.77, 5.58 15.95, 5.36 14.23 M5.36 14.23 C5.22 13.58, 5.08 12.93, 4.69 11.14 M5.36 14.23 C5.17 13.35, 4.98 12.47, 4.69 11.14 M4.69 11.14 C4.44 10.3, 4.19 9.45, 3.86 8.32 M4.69 11.14 C4.37 10.07, 4.06 9, 3.86 8.32 M3.86 8.32 C3.64 7.75, 3.43 7.18, 2.91 5.78 M3.86 8.32 C3.5 7.36, 3.14 6.39, 2.91 5.78 M2.91 5.78 C2.69 5.29, 2.47 4.79, 1.92 3.54 M2.91 5.78 C2.67 5.24, 2.43 4.69, 1.92 3.54 M1.92 3.54 C1.54 2.81, 1.17 2.08, 0.93 1.61 M1.92 3.54 C1.63 2.98, 1.34 2.41, 0.93 1.61 M0.93 1.61 C0.73 1.26, 0.53 0.91, 0 0 M0.93 1.61 C0.56 0.98, 0.2 0.34, 0 0 M0 0 C0 0, 0 0, 0 0 M0 0 C0 0, 0 0, 0 0 M0 0 C0 0, 0 0, 0 0 M0 0 C0 0, 0 0, 0 0" stroke="#000000" stroke-width="1" fill="none"></path></g></g><mask></mask><g stroke-linecap="round"><g transform="translate(175.15824841420462 110.57064183205003) rotate(0 0.25979223930595907 0.05196042994890604)"><path d="M0 0 C0.09 0.02, 0.43 0.09, 0.52 0.1 M0 0 C0.09 0.02, 0.43 0.09, 0.52 0.1" stroke="#000000" stroke-width="4" fill="none"></path></g></g><mask></mask><g transform="translate(135.1569569245345 103.44699773295926) rotate(0 14.566261291503906 7.2177017209967005)"><text x="0" y="10.607128565180776" font-family="Helvetica, Segoe UI Emoji" font-size="12.552524732168168px" fill="#f08c00" text-anchor="start" style="white-space: pre;" direction="ltr" dominant-baseline="alphabetic">XOR</text></g></svg>