<svg xmlns="http://www.w3.org/2000/svg" xmlns:xlink="http://www.w3.org/1999/xlink" fill="#000000" height="800px" width="800px" version="1.1" id="Capa_1" viewBox="0 0 611.999 611.999" xml:space="preserve">
<g>
	<g id="Mouse">
		<path d="M485.644,179.051c-101.209,94.275-258.079,94.275-359.288,0c-18.991,101.765-22.934,205.767-11.699,308.677    c5.013,45.916,34.954,85.319,77.85,102.448c72.864,29.097,154.123,29.097,226.987,0c42.896-17.129,72.837-56.532,77.85-102.448    C508.577,384.818,504.635,280.816,485.644,179.051z"/>
		<path d="M293.508,72.385c0,30.812,0,61.622,0,92.434c0,6.899,5.592,12.491,12.491,12.491s12.491-5.592,12.491-12.491    c0-30.812,0-61.622,0-92.434c0-6.899-5.592-12.491-12.491-12.491S293.508,65.486,293.508,72.385z"/>
		<path d="M330.981,72.385c0,30.812,0,61.622,0,92.434c0,11.392-7.707,21.341-18.737,24.189c0,16.061,0,32.121,0,48.182    c64.054-1.594,125.076-27.618,170.567-72.741c-7.401-36.778-16.691-72.908-27.948-108.694    c-4.364-13.873-14.556-25.156-27.915-30.903C390.676,9.245,351.725,0.806,312.245,0c0,16.065,0,32.131,0,48.196    C323.276,51.044,330.981,60.993,330.981,72.385z"/>
		<path d="M299.754,189.008c-11.03-2.848-18.737-12.797-18.737-24.189c0-30.812,0-61.622,0-92.434    c0-11.392,7.707-21.341,18.737-24.189c0-16.065,0-32.131,0-48.196c-39.479,0.806-78.43,9.245-114.704,24.851    c-13.359,5.747-23.551,17.03-27.915,30.903c-11.257,35.787-20.547,71.916-27.948,108.694    c45.491,45.123,106.513,71.147,170.567,72.741C299.754,221.129,299.754,205.068,299.754,189.008z"/>
	</g>
</g>
</svg>