<svg version="1.1" xmlns="http://www.w3.org/2000/svg" viewBox="0 0 407.5 177.52372591739908" width="407.5" height="177.52372591739908" filter="invert(93%) hue-rotate(180deg)" class="excalidraw-svg"><!-- svg-source:excalidraw --><metadata></metadata><defs><style class="style-fonts">
      </style></defs><g stroke-linecap="round" transform="translate(10 60.23451925000006) rotate(0 29.749999999999996 29.75)"><path d="M14.87 0 C23 0, 31.12 0, 44.62 0 M14.87 0 C23.87 0, 32.86 0, 44.62 0 M44.62 0 C54.54 0, 59.5 4.96, 59.5 14.87 M44.62 0 C54.54 0, 59.5 4.96, 59.5 14.87 M59.5 14.87 C59.5 21.17, 59.5 27.46, 59.5 44.62 M59.5 14.87 C59.5 23.64, 59.5 32.41, 59.5 44.62 M59.5 44.62 C59.5 54.54, 54.54 59.5, 44.62 59.5 M59.5 44.62 C59.5 54.54, 54.54 59.5, 44.62 59.5 M44.62 59.5 C37.94 59.5, 31.25 59.5, 14.87 59.5 M44.62 59.5 C38.15 59.5, 31.67 59.5, 14.87 59.5 M14.87 59.5 C4.96 59.5, 0 54.54, 0 44.62 M14.87 59.5 C4.96 59.5, 0 54.54, 0 44.62 M0 44.62 C0 33.18, 0 21.74, 0 14.87 M0 44.62 C0 36.05, 0 27.48, 0 14.87 M0 14.87 C0 4.96, 4.96 0, 14.87 0 M0 14.87 C0 4.96, 4.96 0, 14.87 0" stroke="#1e1e1e" stroke-width="2" fill="none"></path></g><g transform="translate(29.56818389892578 74.93032183254081) rotate(0 10.181816101074219 15.054197167459279)"><text x="10.181816101074219" y="22.123635884854828" font-family="Helvetica, Segoe UI Emoji" font-size="26.18121246514659px" fill="#1e1e1e" text-anchor="middle" style="white-space: pre;" direction="ltr" dominant-baseline="alphabetic">G</text></g><g transform="translate(88.19652557373047 50.84647838461535) rotate(0 22.55347442626953 44.41538461538465)"><text x="0" y="65.27281302257529" font-family="Helvetica, Segoe UI Emoji" font-size="77.24414715719068px" fill="#1e1e1e" text-anchor="start" style="white-space: pre;" direction="ltr" dominant-baseline="alphabetic">+</text></g><g stroke-linecap="round" transform="translate(161 60.23451900000009) rotate(0 29.75 29.75)"><path d="M14.87 0 C26.22 0, 37.57 0, 44.62 0 M14.87 0 C25.36 0, 35.85 0, 44.62 0 M44.62 0 C54.54 0, 59.5 4.96, 59.5 14.87 M44.62 0 C54.54 0, 59.5 4.96, 59.5 14.87 M59.5 14.87 C59.5 26.09, 59.5 37.31, 59.5 44.62 M59.5 14.87 C59.5 23.52, 59.5 32.16, 59.5 44.62 M59.5 44.62 C59.5 54.54, 54.54 59.5, 44.62 59.5 M59.5 44.62 C59.5 54.54, 54.54 59.5, 44.62 59.5 M44.62 59.5 C36.8 59.5, 28.98 59.5, 14.87 59.5 M44.62 59.5 C38.59 59.5, 32.55 59.5, 14.87 59.5 M14.87 59.5 C4.96 59.5, 0 54.54, 0 44.62 M14.87 59.5 C4.96 59.5, 0 54.54, 0 44.62 M0 44.62 C0 32.87, 0 21.11, 0 14.87 M0 44.62 C0 36.64, 0 28.66, 0 14.87 M0 14.87 C0 4.96, 4.96 0, 14.87 0 M0 14.87 C0 4.96, 4.96 0, 14.87 0" stroke="#1e1e1e" stroke-width="2" fill="none"></path></g><g transform="translate(182.01907348632812 74.93032158254073) rotate(0 8.730926513671875 15.054197167459279)"><text x="8.730926513671875" y="22.123635884854828" font-family="Helvetica, Segoe UI Emoji" font-size="26.18121246514659px" fill="#1e1e1e" text-anchor="middle" style="white-space: pre;" direction="ltr" dominant-baseline="alphabetic">X</text></g><g stroke-linecap="round" transform="translate(249.5 59.01186300000006) rotate(0 29.75 29.75)"><path d="M14.87 0 C26.49 0, 38.1 0, 44.62 0 M14.87 0 C24.14 0, 33.4 0, 44.62 0 M44.62 0 C54.54 0, 59.5 4.96, 59.5 14.87 M44.62 0 C54.54 0, 59.5 4.96, 59.5 14.87 M59.5 14.87 C59.5 21.31, 59.5 27.75, 59.5 44.62 M59.5 14.87 C59.5 26.27, 59.5 37.67, 59.5 44.62 M59.5 44.62 C59.5 54.54, 54.54 59.5, 44.62 59.5 M59.5 44.62 C59.5 54.54, 54.54 59.5, 44.62 59.5 M44.62 59.5 C34.19 59.5, 23.75 59.5, 14.87 59.5 M44.62 59.5 C37.38 59.5, 30.13 59.5, 14.87 59.5 M14.87 59.5 C4.96 59.5, 0 54.54, 0 44.62 M14.87 59.5 C4.96 59.5, 0 54.54, 0 44.62 M0 44.62 C0 36.49, 0 28.36, 0 14.87 M0 44.62 C0 34.74, 0 24.85, 0 14.87 M0 14.87 C0 4.96, 4.96 0, 14.87 0 M0 14.87 C0 4.96, 4.96 0, 14.87 0" stroke="#1e1e1e" stroke-width="2" fill="none"></path></g><g transform="translate(270.5190734863281 73.7076655825407) rotate(0 8.730926513671875 15.054197167459279)"><text x="8.730926513671875" y="22.123635884854828" font-family="Helvetica, Segoe UI Emoji" font-size="26.18121246514659px" fill="#1e1e1e" text-anchor="middle" style="white-space: pre;" direction="ltr" dominant-baseline="alphabetic">Y</text></g><g stroke-linecap="round" transform="translate(338 60.23451900000009) rotate(0 29.75 29.75)"><path d="M14.87 0 C23.24 0, 31.61 0, 44.62 0 M14.87 0 C22.66 0, 30.44 0, 44.62 0 M44.62 0 C54.54 0, 59.5 4.96, 59.5 14.87 M44.62 0 C54.54 0, 59.5 4.96, 59.5 14.87 M59.5 14.87 C59.5 21.17, 59.5 27.46, 59.5 44.62 M59.5 14.87 C59.5 23.31, 59.5 31.75, 59.5 44.62 M59.5 44.62 C59.5 54.54, 54.54 59.5, 44.62 59.5 M59.5 44.62 C59.5 54.54, 54.54 59.5, 44.62 59.5 M44.62 59.5 C36.4 59.5, 28.18 59.5, 14.87 59.5 M44.62 59.5 C38.47 59.5, 32.31 59.5, 14.87 59.5 M14.87 59.5 C4.96 59.5, 0 54.54, 0 44.62 M14.87 59.5 C4.96 59.5, 0 54.54, 0 44.62 M0 44.62 C0 36.59, 0 28.56, 0 14.87 M0 44.62 C0 38.31, 0 32, 0 14.87 M0 14.87 C0 4.96, 4.96 0, 14.87 0 M0 14.87 C0 4.96, 4.96 0, 14.87 0" stroke="#1e1e1e" stroke-width="2" fill="none"></path></g><g transform="translate(359.75411224365234 74.93032158254073) rotate(0 7.995887756347656 15.054197167459279)"><text x="7.995887756347656" y="22.123635884854828" font-family="Helvetica, Segoe UI Emoji" font-size="26.18121246514659px" fill="#1e1e1e" text-anchor="middle" style="white-space: pre;" direction="ltr" dominant-baseline="alphabetic">Z</text></g><g transform="translate(216.62341700000002 10) rotate(0 19.0283203125 78.76186291739904)"><text x="0" y="115.74836953536915" font-family="Helvetica, Segoe UI Emoji" font-size="136.97715289982435px" fill="#1e1e1e" text-anchor="start" style="white-space: pre;" direction="ltr" dominant-baseline="alphabetic">,</text></g><g transform="translate(304.2216796875 10.000000082600991) rotate(0 19.0283203125 78.76186291739904)"><text x="0" y="115.74836953536915" font-family="Helvetica, Segoe UI Emoji" font-size="136.97715289982435px" fill="#1e1e1e" text-anchor="start" style="white-space: pre;" direction="ltr" dominant-baseline="alphabetic">,</text></g></svg>