<svg xmlns="http://www.w3.org/2000/svg" data-cached="true" width="753" height="531" viewBox="0 0 753 531" preserveAspectRatio="xMidYMid meet"><svg id="__background" x="0" y="0" width="753" height="531" preserveAspectRatio="xMidYMid meet"><rect x="0" y="0" width="753" height="531" fill="#ffffff" stroke="none" stroke-width="0px"/></svg><g id="__padding" transform="translate(26 26)"><svg id="data" x="0" y="0" width="701" height="479" viewBox="0 0 695 473" preserveAspectRatio="xMinYMid meet"><path d="M0 0L0 473L695 473L695 0ZM3 3L3 470L692 470L692 3Z" fill="#ffffff" fill-rule="evenodd"/><path fill="#000000" d="M62 440 L68 440 L68 8 L62 8 Z"/><path fill="#000000" d="M74 440 L80 440 L80 8 L74 8 Z"/><path fill="#000000" d="M92 408 L104 408 L104 8 L92 8 Z"/><path fill="#000000" d="M116 408 L122 408 L122 8 L116 8 Z"/><path fill="#000000" d="M134 408 L140 408 L140 8 L134 8 Z"/><path fill="#000000" d="M152 408 L164 408 L164 8 L152 8 Z"/><path fill="#000000" d="M170 408 L194 408 L194 8 L170 8 Z"/><path fill="#000000" d="M200 408 L206 408 L206 8 L200 8 Z"/><path fill="#000000" d="M212 408 L218 408 L218 8 L212 8 Z"/><path fill="#000000" d="M236 408 L248 408 L248 8 L236 8 Z"/><path fill="#000000" d="M254 408 L266 408 L266 8 L254 8 Z"/><path fill="#000000" d="M284 408 L290 408 L290 8 L284 8 Z"/><path fill="#000000" d="M296 408 L302 408 L302 8 L296 8 Z"/><path fill="#000000" d="M308 408 L332 408 L332 8 L308 8 Z"/><path fill="#000000" d="M338 440 L344 440 L344 8 L338 8 Z"/><path fill="#000000" d="M350 440 L356 440 L356 8 L350 8 Z"/><path fill="#000000" d="M362 408 L374 408 L374 8 L362 8 Z"/><path fill="#000000" d="M386 408 L398 408 L398 8 L386 8 Z"/><path fill="#000000" d="M404 408 L416 408 L416 8 L404 8 Z"/><path fill="#000000" d="M428 408 L440 408 L440 8 L428 8 Z"/><path fill="#000000" d="M446 408 L458 408 L458 8 L446 8 Z"/><path fill="#000000" d="M464 408 L476 408 L476 8 L464 8 Z"/><path fill="#000000" d="M488 408 L500 408 L500 8 L488 8 Z"/><path fill="#000000" d="M506 408 L518 408 L518 8 L506 8 Z"/><path fill="#000000" d="M530 408 L536 408 L536 8 L530 8 Z"/><path fill="#000000" d="M560 408 L566 408 L566 8 L560 8 Z"/><path fill="#000000" d="M572 408 L590 408 L590 8 L572 8 Z"/><path fill="#000000" d="M602 408 L608 408 L608 8 L602 8 Z"/><path fill="#000000" d="M614 440 L620 440 L620 8 L614 8 Z"/><path fill="#000000" d="M626 440 L632 440 L632 8 L626 8 Z"/><path d="M21.99 464.50L21.73 464.50Q17.88 464.44 15.02 463.25Q12.16 462.13 10.46 460.31Q8.77 458.44 7.79 455.50Q6.75 452.56 6.43 449.56Q6.10 446.63 6.10 442.63Q6.10 439.06 6.17 436.56Q6.30 434.00 6.69 431.06Q7.08 428.07 7.73 426.07Q8.44 424.00 9.62 421.94Q10.79 419.94 12.42 418.75Q14.04 417.57 16.39 416.82Q18.73 416.07 21.73 416.07Q24.65 416.07 27.00 416.82Q29.34 417.57 30.97 418.75Q32.60 419.94 33.83 421.94Q35.01 424.00 35.66 426.07Q36.37 428.13 36.76 431.06Q37.15 434.00 37.22 436.56Q37.35 439.13 37.35 442.63Q37.35 445.13 37.22 447.19Q37.09 449.19 36.63 451.56Q36.24 453.94 35.59 455.75Q34.94 457.50 33.70 459.19Q32.47 460.88 30.90 462.00Q29.34 463.13 27.06 463.81Q24.78 464.50 21.99 464.50M11.96 437.50L11.96 442.63Q11.96 445.44 12.09 447.44Q12.29 449.44 12.87 451.75Q13.39 454.06 14.43 455.50Q15.48 457.00 17.30 458.00Q19.12 458.94 21.73 458.94L23.09 458.94Q24.92 458.94 26.35 458.25Q27.78 457.50 28.63 456.13Q29.54 454.81 30.12 453.31Q30.71 451.75 30.97 449.81Q31.29 447.81 31.36 446.19Q31.49 444.56 31.49 442.63L31.49 439.75Q31.49 437.81 31.42 436.69Q31.42 435.50 31.36 433.75Q31.29 431.94 31.10 430.94Q30.90 429.88 30.58 428.44Q30.25 427.00 29.73 426.13Q29.21 425.25 28.50 424.32Q27.71 423.38 26.80 422.88Q25.83 422.32 24.52 422.00Q23.29 421.69 21.73 421.69Q20.10 421.69 18.80 422.07Q17.56 422.38 16.58 423.00Q15.61 423.63 14.82 424.57Q14.11 425.44 13.59 426.57Q13.07 427.63 12.74 428.94Q12.42 430.19 12.29 431.63Q12.16 433.00 12.03 434.50Q11.96 435.94 11.96 437.50Z" fill="#000000"/><path d="M92.97 430.63Q92.12 429.75 92.12 428.63Q92.12 427.32 92.97 426.69L104.88 416.88Q105.73 416.19 106.77 416.19L108.85 416.19Q110.02 416.19 110.87 417.07Q111.78 417.88 111.78 419.00L111.78 461.50Q111.78 462.63 110.87 463.50Q110.02 464.31 108.85 464.31Q107.68 464.31 106.77 463.50Q105.92 462.69 105.92 461.50L105.92 423.44L97.00 430.75Q96.16 431.44 95.05 431.44Q93.81 431.44 92.97 430.63Z" fill="#000000"/><path d="M134.05 424.07Q133.21 423.19 133.21 422.13Q133.21 420.57 134.44 419.75Q140.37 416.00 147.73 416.00Q153.65 416.00 157.62 419.63Q161.66 423.19 161.66 429.00Q161.66 431.31 160.81 433.44Q159.96 435.63 158.86 437.00Q157.82 438.38 155.73 440.06Q153.65 441.75 152.54 442.50Q151.50 443.25 149.22 444.69Q146.75 446.25 145.64 447.06Q144.54 447.88 142.97 449.50Q141.41 451.06 140.69 453.06Q139.98 455.00 139.85 457.69L139.85 458.00L159.12 458.00Q160.35 458.00 161.20 458.88Q162.05 459.69 162.05 460.81Q162.05 461.94 161.14 462.81Q160.29 463.63 159.12 463.63L136.85 463.63Q135.68 463.63 134.77 462.81Q133.92 461.94 133.92 460.81L133.92 459.50Q133.92 454.63 134.58 452.50Q135.68 448.75 138.74 445.81Q141.80 442.81 146.23 439.94Q152.35 436.00 153.97 433.75Q155.80 431.50 155.80 429.00Q155.80 425.69 153.39 423.63Q151.11 421.63 147.73 421.63Q141.87 421.63 137.83 424.38Q137.11 424.88 136.14 424.88Q134.97 424.88 134.05 424.07Z" fill="#000000"/><path d="M175.47 462.13Q174.10 461.13 174.10 459.63Q174.10 458.44 174.95 457.63Q175.86 456.75 177.03 456.75Q177.42 456.75 178.14 457.00Q182.30 458.81 186.86 458.81Q191.81 458.81 195.19 456.44Q198.64 454.00 198.90 449.38L198.90 448.75Q198.90 445.56 196.82 443.31Q194.87 441.13 192.00 440.19Q189.20 439.31 185.75 439.31Q184.65 439.31 183.80 438.50Q182.95 437.63 182.95 436.44Q182.95 435.31 183.54 434.69L195.52 421.94L177.23 421.94Q176.05 421.94 175.14 421.13Q174.30 420.25 174.30 419.07Q174.30 417.88 175.14 417.07Q175.99 416.25 177.23 416.25L200.21 416.25Q201.38 416.25 202.22 417.13Q203.14 417.94 203.14 419.07L203.14 421.32Q203.14 422.32 202.22 423.19L191.74 434.25L192.26 434.38Q197.80 435.75 201.31 439.44Q204.76 443.13 204.76 448.69L204.76 449.69Q204.44 456.50 199.23 460.50Q194.15 464.50 186.86 464.50Q185.04 464.50 183.22 464.31Q181.39 464.12 179.11 463.69Q176.84 463.19 175.47 462.13Z" fill="#000000"/><path d="M216.95 452.63Q216.10 451.81 216.10 450.63L216.10 447.94Q216.10 447.44 216.43 446.75L230.29 417.82Q230.55 417.13 231.27 416.69Q231.99 416.19 232.77 416.19Q233.94 416.19 234.78 417.07Q235.63 417.88 235.63 419.00Q235.63 419.63 235.31 420.19L222.29 447.81L234.98 447.81L234.98 440.25Q234.98 439.13 235.83 438.31Q236.67 437.44 237.78 437.44Q238.89 437.44 239.73 438.31Q240.64 439.13 240.64 440.25L240.64 447.81L244.42 447.81Q245.66 447.81 246.50 448.69Q247.35 449.50 247.35 450.63Q247.35 451.75 246.44 452.63Q245.59 453.44 244.42 453.44L240.64 453.44L240.64 461.50Q240.64 462.63 239.73 463.44Q238.89 464.31 237.78 464.31Q236.67 464.31 235.83 463.50Q234.98 462.63 234.98 461.50L234.98 453.44L219.03 453.44Q217.86 453.44 216.95 452.63Z" fill="#000000"/><path d="M260.64 463.69Q259.79 462.88 259.79 461.69Q259.79 460.44 260.64 459.63Q261.55 458.81 262.72 458.81Q275.87 458.81 279.71 451.75Q280.89 449.63 280.89 447.69Q280.89 443.13 278.67 440.81Q275.74 437.50 268.39 437.50Q266.37 437.50 264.29 437.69L264.03 437.69Q262.85 437.69 261.94 436.94Q261.10 436.13 261.10 435.00L261.10 434.81L262.01 418.88Q262.14 417.75 262.92 417.00Q263.76 416.25 264.94 416.25L283.42 416.25Q284.66 416.25 285.51 417.13Q286.35 417.94 286.35 419.07Q286.35 420.19 285.44 421.07Q284.60 421.94 283.42 421.94L267.67 421.94L267.15 431.75L268.39 431.75Q276.65 431.75 281.67 435.81Q286.75 439.81 286.75 447.69Q286.75 451.00 285.25 453.88Q283.69 456.81 281.34 458.88Q275.09 464.50 262.72 464.50Q261.55 464.50 260.64 463.69M264.22 437.69Q264.22 437.69 264.29 437.69Q264.29 437.69 264.22 437.69Z" fill="#000000"/><path d="M304.66 460.44Q300.30 456.38 300.10 449.69L300.10 448.94Q300.10 441.13 304.59 434.00Q306.42 431.06 309.02 427.82Q311.56 424.50 313.32 422.57Q315.07 420.57 318.33 417.00Q319.05 416.19 320.35 416.19Q321.45 416.19 322.30 417.07Q323.15 417.88 323.15 419.00Q323.15 420.07 322.43 420.94Q315.07 428.94 311.62 433.75L311.17 434.38L311.88 434.25Q313.77 433.88 315.73 433.88Q322.82 433.88 327.05 438.13Q331.35 442.44 331.35 449.69Q331.35 456.25 326.92 460.38Q322.50 464.50 315.73 464.50Q308.95 464.50 304.66 460.44M308.56 442.25Q305.96 444.94 305.96 449.69Q305.96 453.94 308.69 456.44Q311.36 458.88 315.73 458.88Q320.02 458.88 322.69 456.38Q325.49 453.88 325.49 449.69Q325.49 444.81 322.95 442.19Q320.48 439.50 315.73 439.50Q311.10 439.50 308.56 442.25Z" fill="#000000"/><path d="M368.97 430.63Q368.12 429.75 368.12 428.63Q368.12 427.32 368.97 426.69L380.88 416.88Q381.73 416.19 382.77 416.19L384.85 416.19Q386.02 416.19 386.87 417.07Q387.78 417.88 387.78 419.00L387.78 461.50Q387.78 462.63 386.87 463.50Q386.02 464.31 384.85 464.31Q383.68 464.31 382.77 463.50Q381.92 462.69 381.92 461.50L381.92 423.44L373.00 430.75Q372.16 431.44 371.05 431.44Q369.81 431.44 368.97 430.63Z" fill="#000000"/><path d="M410.97 430.63Q410.12 429.75 410.12 428.63Q410.12 427.32 410.97 426.69L422.88 416.88Q423.73 416.19 424.77 416.19L426.85 416.19Q428.02 416.19 428.87 417.07Q429.78 417.88 429.78 419.00L429.78 461.50Q429.78 462.63 428.87 463.50Q428.02 464.31 426.85 464.31Q425.68 464.31 424.77 463.50Q423.92 462.69 423.92 461.50L423.92 423.44L415.00 430.75Q414.16 431.44 413.05 431.44Q411.81 431.44 410.97 430.63Z" fill="#000000"/><path d="M452.05 424.07Q451.21 423.19 451.21 422.13Q451.21 420.57 452.44 419.75Q458.37 416.00 465.73 416.00Q471.65 416.00 475.62 419.63Q479.66 423.19 479.66 429.00Q479.66 431.31 478.81 433.44Q477.96 435.63 476.86 437.00Q475.82 438.38 473.73 440.06Q471.65 441.75 470.54 442.50Q469.50 443.25 467.22 444.69Q464.75 446.25 463.64 447.06Q462.54 447.88 460.97 449.50Q459.41 451.06 458.69 453.06Q457.98 455.00 457.85 457.69L457.85 458.00L477.12 458.00Q478.35 458.00 479.20 458.88Q480.05 459.69 480.05 460.81Q480.05 461.94 479.14 462.81Q478.29 463.63 477.12 463.63L454.85 463.63Q453.68 463.63 452.77 462.81Q451.92 461.94 451.92 460.81L451.92 459.50Q451.92 454.63 452.58 452.50Q453.68 448.75 456.74 445.81Q459.80 442.81 464.23 439.94Q470.35 436.00 471.97 433.75Q473.80 431.50 473.80 429.00Q473.80 425.69 471.39 423.63Q469.11 421.63 465.73 421.63Q459.87 421.63 455.83 424.38Q455.11 424.88 454.14 424.88Q452.97 424.88 452.05 424.07Z" fill="#000000"/><path d="M494.05 424.07Q493.21 423.19 493.21 422.13Q493.21 420.57 494.44 419.75Q500.37 416.00 507.73 416.00Q513.65 416.00 517.62 419.63Q521.66 423.19 521.66 429.00Q521.66 431.31 520.81 433.44Q519.96 435.63 518.86 437.00Q517.82 438.38 515.73 440.06Q513.65 441.75 512.54 442.50Q511.50 443.25 509.22 444.69Q506.75 446.25 505.64 447.06Q504.54 447.88 502.97 449.50Q501.41 451.06 500.69 453.06Q499.98 455.00 499.85 457.69L499.85 458.00L519.12 458.00Q520.35 458.00 521.20 458.88Q522.05 459.69 522.05 460.81Q522.05 461.94 521.14 462.81Q520.29 463.63 519.12 463.63L496.85 463.63Q495.68 463.63 494.77 462.81Q493.92 461.94 493.92 460.81L493.92 459.50Q493.92 454.63 494.58 452.50Q495.68 448.75 498.74 445.81Q501.80 442.81 506.23 439.94Q512.35 436.00 513.97 433.75Q515.80 431.50 515.80 429.00Q515.80 425.69 513.39 423.63Q511.11 421.63 507.73 421.63Q501.87 421.63 497.83 424.38Q497.11 424.88 496.14 424.88Q494.97 424.88 494.05 424.07Z" fill="#000000"/><path d="M535.47 462.13Q534.10 461.13 534.10 459.63Q534.10 458.44 534.95 457.63Q535.86 456.75 537.03 456.75Q537.42 456.75 538.14 457.00Q542.30 458.81 546.86 458.81Q551.81 458.81 555.19 456.44Q558.64 454.00 558.90 449.38L558.90 448.75Q558.90 445.56 556.82 443.31Q554.87 441.13 552.00 440.19Q549.20 439.31 545.75 439.31Q544.65 439.31 543.80 438.50Q542.95 437.63 542.95 436.44Q542.95 435.31 543.54 434.69L555.52 421.94L537.23 421.94Q536.05 421.94 535.14 421.13Q534.30 420.25 534.30 419.07Q534.30 417.88 535.14 417.07Q535.99 416.25 537.23 416.25L560.21 416.25Q561.38 416.25 562.22 417.13Q563.14 417.94 563.14 419.07L563.14 421.32Q563.14 422.32 562.22 423.19L551.74 434.25L552.26 434.38Q557.80 435.75 561.31 439.44Q564.76 443.13 564.76 448.69L564.76 449.69Q564.44 456.50 559.23 460.50Q554.15 464.50 546.86 464.50Q545.04 464.50 543.22 464.31Q541.39 464.12 539.11 463.69Q536.84 463.19 535.47 462.13Z" fill="#000000"/><path d="M591.99 464.50L591.73 464.50Q587.88 464.44 585.02 463.25Q582.16 462.13 580.46 460.31Q578.77 458.44 577.79 455.50Q576.75 452.56 576.43 449.56Q576.10 446.63 576.10 442.63Q576.10 439.06 576.17 436.56Q576.30 434.00 576.69 431.06Q577.08 428.07 577.73 426.07Q578.44 424.00 579.62 421.94Q580.79 419.94 582.42 418.75Q584.04 417.57 586.39 416.82Q588.73 416.07 591.73 416.07Q594.65 416.07 597.00 416.82Q599.34 417.57 600.97 418.75Q602.60 419.94 603.83 421.94Q605.01 424.00 605.66 426.07Q606.37 428.13 606.76 431.06Q607.15 434.00 607.22 436.56Q607.35 439.13 607.35 442.63Q607.35 445.13 607.22 447.19Q607.09 449.19 606.63 451.56Q606.24 453.94 605.59 455.75Q604.94 457.50 603.70 459.19Q602.47 460.88 600.90 462.00Q599.34 463.13 597.06 463.81Q594.78 464.50 591.99 464.50M581.96 437.50L581.96 442.63Q581.96 445.44 582.09 447.44Q582.29 449.44 582.87 451.75Q583.39 454.06 584.43 455.50Q585.48 457.00 587.30 458.00Q589.12 458.94 591.73 458.94L593.09 458.94Q594.92 458.94 596.35 458.25Q597.78 457.50 598.63 456.13Q599.54 454.81 600.12 453.31Q600.71 451.75 600.97 449.81Q601.29 447.81 601.36 446.19Q601.49 444.56 601.49 442.63L601.49 439.75Q601.49 437.81 601.42 436.69Q601.42 435.50 601.36 433.75Q601.29 431.94 601.10 430.94Q600.90 429.88 600.58 428.44Q600.25 427.00 599.73 426.13Q599.21 425.25 598.50 424.32Q597.71 423.38 596.80 422.88Q595.83 422.32 594.52 422.00Q593.29 421.69 591.73 421.69Q590.10 421.69 588.80 422.07Q587.56 422.38 586.58 423.00Q585.61 423.63 584.82 424.57Q584.11 425.44 583.59 426.57Q583.07 427.63 582.74 428.94Q582.42 430.19 582.29 431.63Q582.16 433.00 582.03 434.50Q581.96 435.94 581.96 437.50Z" fill="#000000"/></svg></g></svg>