<svg version="1.1" xmlns="http://www.w3.org/2000/svg" viewBox="0 0 1251.9669884416546 544.8724696565228" width="1251.9669884416546" height="544.8724696565228" filter="invert(93%) hue-rotate(180deg)" class="excalidraw-svg">
  <!-- svg-source:excalidraw -->
  
  <defs>
    <style class="style-fonts">
      
    </style>
    
  </defs>
  <g stroke-linecap="round" transform="translate(10 10) rotate(0 615.9834942208273 262.4362348282614)"><path d="M32 0 C421.26 0, 810.51 0, 1199.97 0 M32 0 C344.84 0, 657.68 0, 1199.97 0 M1199.97 0 C1221.3 0, 1231.97 10.67, 1231.97 32 M1199.97 0 C1221.3 0, 1231.97 10.67, 1231.97 32 M1231.97 32 C1231.97 142.83, 1231.97 253.66, 1231.97 492.87 M1231.97 32 C1231.97 190.25, 1231.97 348.49, 1231.97 492.87 M1231.97 492.87 C1231.97 514.21, 1221.3 524.87, 1199.97 524.87 M1231.97 492.87 C1231.97 514.21, 1221.3 524.87, 1199.97 524.87 M1199.97 524.87 C820.3 524.87, 440.63 524.87, 32 524.87 M1199.97 524.87 C817.85 524.87, 435.73 524.87, 32 524.87 M32 524.87 C10.67 524.87, 0 514.21, 0 492.87 M32 524.87 C10.67 524.87, 0 514.21, 0 492.87 M0 492.87 C0 309.31, 0 125.74, 0 32 M0 492.87 C0 312.65, 0 132.42, 0 32 M0 32 C0 10.67, 10.67 0, 32 0 M0 32 C0 10.67, 10.67 0, 32 0" stroke="#1971c2" stroke-width="0.5" fill="none"></path></g><g stroke-linecap="round" transform="translate(945.8986000961974 157.06128514792294) rotate(0 14.883567607152827 107.7717148251745)"><path d="M7.44 0 C13.15 0, 18.86 0, 22.33 0 C27.29 0, 29.77 2.48, 29.77 7.44 C29.77 86.78, 29.77 166.11, 29.77 208.1 C29.77 213.06, 27.29 215.54, 22.33 215.54 C18.81 215.54, 15.3 215.54, 7.44 215.54 C2.48 215.54, 0 213.06, 0 208.1 C0 134.66, 0 61.22, 0 7.44 C0 2.48, 2.48 0, 7.44 0" stroke="none" stroke-width="0" fill="#f08c00"></path><path d="M7.44 0 C12.51 0, 17.58 0, 22.33 0 M7.44 0 C10.86 0, 14.27 0, 22.33 0 M22.33 0 C27.29 0, 29.77 2.48, 29.77 7.44 M22.33 0 C27.29 0, 29.77 2.48, 29.77 7.44 M29.77 7.44 C29.77 87.17, 29.77 166.89, 29.77 208.1 M29.77 7.44 C29.77 58.01, 29.77 108.58, 29.77 208.1 M29.77 208.1 C29.77 213.06, 27.29 215.54, 22.33 215.54 M29.77 208.1 C29.77 213.06, 27.29 215.54, 22.33 215.54 M22.33 215.54 C17.41 215.54, 12.5 215.54, 7.44 215.54 M22.33 215.54 C19.12 215.54, 15.91 215.54, 7.44 215.54 M7.44 215.54 C2.48 215.54, 0 213.06, 0 208.1 M7.44 215.54 C2.48 215.54, 0 213.06, 0 208.1 M0 208.1 C0 139.95, 0 71.79, 0 7.44 M0 208.1 C0 133.76, 0 59.41, 0 7.44 M0 7.44 C0 2.48, 2.48 0, 7.44 0 M0 7.44 C0 2.48, 2.48 0, 7.44 0" stroke="#f08c00" stroke-width="2" fill="none"></path></g><g stroke-linecap="round"><g transform="translate(139.06890936854165 238.01426587756868) rotate(0 380.51996328139836 19.072844856143604)"><path d="M0 0 C29.15 -0.02, 116.32 -0.19, 174.9 -0.11 C233.47 -0.03, 289.74 -0.07, 351.47 0.48 C413.2 1.03, 476.99 1.98, 545.25 3.19 C613.51 4.4, 726.19 2.4, 761.04 7.73 C795.89 13.07, 794.3 30.12, 754.32 35.21 C714.35 40.3, 591.88 37.79, 521.21 38.26 C450.54 38.73, 362.12 38.06, 330.31 38.02 M0 0 C29.15 -0.02, 116.32 -0.19, 174.9 -0.11 C233.47 -0.03, 289.74 -0.07, 351.47 0.48 C413.2 1.03, 476.99 1.98, 545.25 3.19 C613.51 4.4, 726.19 2.4, 761.04 7.73 C795.89 13.07, 794.3 30.12, 754.32 35.21 C714.35 40.3, 591.88 37.79, 521.21 38.26 C450.54 38.73, 362.12 38.06, 330.31 38.02" stroke="#e03131" stroke-width="4" fill="none"></path></g><g transform="translate(139.06890936854165 238.01426587756868) rotate(0 380.51996328139836 19.072844856143604)"><path d="M353.83 29.56 C347.82 31.72, 341.81 33.88, 330.31 38.02 M353.83 29.56 C344.94 32.76, 336.06 35.95, 330.31 38.02" stroke="#e03131" stroke-width="4" fill="none"></path></g><g transform="translate(139.06890936854165 238.01426587756868) rotate(0 380.51996328139836 19.072844856143604)"><path d="M353.77 46.66 C347.77 44.45, 341.78 42.25, 330.31 38.02 M353.77 46.66 C344.9 43.4, 336.04 40.13, 330.31 38.02" stroke="#e03131" stroke-width="4" fill="none"></path></g></g><mask></mask><g stroke-linecap="round" transform="translate(366.72745992923257 195.69072414084945) rotate(0 32.61685668019459 63.31504997662597)"><path d="M16.31 0 C24.28 0, 32.26 0, 48.93 0 C59.8 0, 65.23 5.44, 65.23 16.31 C65.23 49.34, 65.23 82.37, 65.23 110.32 C65.23 121.19, 59.8 126.63, 48.93 126.63 C36.9 126.63, 24.88 126.63, 16.31 126.63 C5.44 126.63, 0 121.19, 0 110.32 C0 84.16, 0 58.01, 0 16.31 C0 5.44, 5.44 0, 16.31 0" stroke="none" stroke-width="0" fill="#1e1e1e"></path><path d="M16.31 0 C27.34 0, 38.37 0, 48.93 0 M16.31 0 C29.29 0, 42.27 0, 48.93 0 M48.93 0 C59.8 0, 65.23 5.44, 65.23 16.31 M48.93 0 C59.8 0, 65.23 5.44, 65.23 16.31 M65.23 16.31 C65.23 40.51, 65.23 64.71, 65.23 110.32 M65.23 16.31 C65.23 39.89, 65.23 63.46, 65.23 110.32 M65.23 110.32 C65.23 121.19, 59.8 126.63, 48.93 126.63 M65.23 110.32 C65.23 121.19, 59.8 126.63, 48.93 126.63 M48.93 126.63 C40.95 126.63, 32.97 126.63, 16.31 126.63 M48.93 126.63 C39.31 126.63, 29.69 126.63, 16.31 126.63 M16.31 126.63 C5.44 126.63, 0 121.19, 0 110.32 M16.31 126.63 C5.44 126.63, 0 121.19, 0 110.32 M0 110.32 C0 77.32, 0 44.32, 0 16.31 M0 110.32 C0 87.33, 0 64.33, 0 16.31 M0 16.31 C0 5.44, 5.44 0, 16.31 0 M0 16.31 C0 5.44, 5.44 0, 16.31 0" stroke="#1e1e1e" stroke-width="2" fill="none"></path></g><g stroke-linecap="round" transform="translate(551.8760153735807 195.69072326598996) rotate(0 34.05581304851683 63.31504997662597)"><path d="M17.03 0 C26.48 0, 35.94 0, 51.08 0 C62.44 0, 68.11 5.68, 68.11 17.03 C68.11 37.04, 68.11 57.04, 68.11 109.6 C68.11 120.95, 62.44 126.63, 51.08 126.63 C39.13 126.63, 27.18 126.63, 17.03 126.63 C5.68 126.63, 0 120.95, 0 109.6 C0 78.19, 0 46.78, 0 17.03 C0 5.68, 5.68 0, 17.03 0" stroke="none" stroke-width="0" fill="#1e1e1e"></path><path d="M17.03 0 C28.47 0, 39.9 0, 51.08 0 M17.03 0 C27.95 0, 38.87 0, 51.08 0 M51.08 0 C62.44 0, 68.11 5.68, 68.11 17.03 M51.08 0 C62.44 0, 68.11 5.68, 68.11 17.03 M68.11 17.03 C68.11 50.26, 68.11 83.49, 68.11 109.6 M68.11 17.03 C68.11 42.21, 68.11 67.39, 68.11 109.6 M68.11 109.6 C68.11 120.95, 62.44 126.63, 51.08 126.63 M68.11 109.6 C68.11 120.95, 62.44 126.63, 51.08 126.63 M51.08 126.63 C39.12 126.63, 27.15 126.63, 17.03 126.63 M51.08 126.63 C42.76 126.63, 34.43 126.63, 17.03 126.63 M17.03 126.63 C5.68 126.63, 0 120.95, 0 109.6 M17.03 126.63 C5.68 126.63, 0 120.95, 0 109.6 M0 109.6 C0 83.85, 0 58.09, 0 17.03 M0 109.6 C0 88.48, 0 67.36, 0 17.03 M0 17.03 C0 5.68, 5.68 0, 17.03 0 M0 17.03 C0 5.68, 5.68 0, 17.03 0" stroke="#1e1e1e" stroke-width="2" fill="none"></path></g><g stroke-linecap="round" transform="translate(739.9024829668521 195.69072342172188) rotate(0 34.05581304851684 63.31504997662597)"><path d="M17.03 0 C26.66 0, 36.29 0, 51.08 0 C62.44 0, 68.11 5.68, 68.11 17.03 C68.11 46.36, 68.11 75.7, 68.11 109.6 C68.11 120.95, 62.44 126.63, 51.08 126.63 C38.94 126.63, 26.79 126.63, 17.03 126.63 C5.68 126.63, 0 120.95, 0 109.6 C0 90.21, 0 70.81, 0 17.03 C0 5.68, 5.68 0, 17.03 0" stroke="none" stroke-width="0" fill="#1e1e1e"></path><path d="M17.03 0 C27.25 0, 37.48 0, 51.08 0 M17.03 0 C30.48 0, 43.93 0, 51.08 0 M51.08 0 C62.44 0, 68.11 5.68, 68.11 17.03 M51.08 0 C62.44 0, 68.11 5.68, 68.11 17.03 M68.11 17.03 C68.11 36.61, 68.11 56.19, 68.11 109.6 M68.11 17.03 C68.11 46.45, 68.11 75.88, 68.11 109.6 M68.11 109.6 C68.11 120.95, 62.44 126.63, 51.08 126.63 M68.11 109.6 C68.11 120.95, 62.44 126.63, 51.08 126.63 M51.08 126.63 C38.7 126.63, 26.32 126.63, 17.03 126.63 M51.08 126.63 C43.31 126.63, 35.53 126.63, 17.03 126.63 M17.03 126.63 C5.68 126.63, 0 120.95, 0 109.6 M17.03 126.63 C5.68 126.63, 0 120.95, 0 109.6 M0 109.6 C0 77.89, 0 46.17, 0 17.03 M0 109.6 C0 76.48, 0 43.35, 0 17.03 M0 17.03 C0 5.68, 5.68 0, 17.03 0 M0 17.03 C0 5.68, 5.68 0, 17.03 0" stroke="#1e1e1e" stroke-width="2" fill="none"></path></g><g stroke-linecap="round" transform="translate(178.70099118721055 195.69072384329385) rotate(0 34.055813048516825 63.31504997662597)"><path d="M17.03 0 C30.41 0, 43.79 0, 51.08 0 C62.44 0, 68.11 5.68, 68.11 17.03 C68.11 52.58, 68.11 88.13, 68.11 109.6 C68.11 120.95, 62.44 126.63, 51.08 126.63 C43.45 126.63, 35.83 126.63, 17.03 126.63 C5.68 126.63, 0 120.95, 0 109.6 C0 90.41, 0 71.22, 0 17.03 C0 5.68, 5.68 0, 17.03 0" stroke="none" stroke-width="0" fill="#1e1e1e"></path><path d="M17.03 0 C25.62 0, 34.22 0, 51.08 0 M17.03 0 C24.23 0, 31.44 0, 51.08 0 M51.08 0 C62.44 0, 68.11 5.68, 68.11 17.03 M51.08 0 C62.44 0, 68.11 5.68, 68.11 17.03 M68.11 17.03 C68.11 40.58, 68.11 64.13, 68.11 109.6 M68.11 17.03 C68.11 44.75, 68.11 72.47, 68.11 109.6 M68.11 109.6 C68.11 120.95, 62.44 126.63, 51.08 126.63 M68.11 109.6 C68.11 120.95, 62.44 126.63, 51.08 126.63 M51.08 126.63 C37.64 126.63, 24.2 126.63, 17.03 126.63 M51.08 126.63 C41.03 126.63, 30.97 126.63, 17.03 126.63 M17.03 126.63 C5.68 126.63, 0 120.95, 0 109.6 M17.03 126.63 C5.68 126.63, 0 120.95, 0 109.6 M0 109.6 C0 90.83, 0 72.06, 0 17.03 M0 109.6 C0 87.5, 0 65.39, 0 17.03 M0 17.03 C0 5.68, 5.68 0, 17.03 0 M0 17.03 C0 5.68, 5.68 0, 17.03 0" stroke="#1e1e1e" stroke-width="2" fill="none"></path></g><g stroke-linecap="round"><g transform="translate(177.35059557394504 237.62896855252015) rotate(0 35.40040269366685 0.11922394487073973)"><path d="M0 0 C11.8 0.04, 59 0.2, 70.8 0.24" stroke="#e03131" stroke-width="4.5" fill="none" stroke-dasharray="8 12"></path></g></g><mask></mask><g stroke-linecap="round"><g transform="translate(365.5382009615654 238.16654590434752) rotate(0 33.808745080727675 0.26827156441214584)"><path d="M0 0 C11.27 0.09, 56.35 0.45, 67.62 0.54" stroke="#e03131" stroke-width="4.5" fill="none" stroke-dasharray="8 12"></path></g></g><mask></mask><g stroke-linecap="round"><g transform="translate(550.9245495616906 240.109866812338) rotate(0 34.60519266779136 0.1329380757057379)"><path d="M0 0 C11.54 0.04, 57.68 0.22, 69.21 0.27" stroke="#e03131" stroke-width="4.5" fill="none" stroke-dasharray="8 12"></path></g></g><mask></mask><g stroke-linecap="round"><g transform="translate(739.4831949726961 241.4630957469084) rotate(0 35.15564685658018 0.13775436981487132)"><path d="M0 0 C11.72 0.05, 58.59 0.23, 70.31 0.28" stroke="#e03131" stroke-width="4.5" fill="none" stroke-dasharray="8 12"></path></g></g><mask></mask><g stroke-linecap="round"><g transform="translate(738.4655374393737 275.8872211844914) rotate(0 34.82889024989679 0.5516334796028133)"><path d="M0 0 C11.61 0.18, 58.05 0.92, 69.66 1.1" stroke="#e03131" stroke-width="4.5" fill="none" stroke-dasharray="8 12"></path></g></g><mask></mask><g stroke-linecap="round"><g transform="translate(551.1470524305787 276.3656340552859) rotate(0 34.581569991537236 0.36272970729903875)"><path d="M0 0 C11.53 0.12, 57.64 0.6, 69.16 0.73" stroke="#e03131" stroke-width="4.5" fill="none" stroke-dasharray="8 12"></path></g></g><mask></mask></svg>