<svg version="1.1" xmlns="http://www.w3.org/2000/svg" viewBox="0 0 1251.9669884416546 544.8724696565228" width="1251.9669884416546" height="544.8724696565228" class="excalidraw-svg">
  <!-- svg-source:excalidraw -->
  
  <defs>
    <style class="style-fonts">
      
    </style>
    
  </defs>
  <g stroke-linecap="round" transform="translate(10 10) rotate(0 615.9834942208273 262.4362348282614)"><path d="M32 0 C306.25 0, 580.51 0, 1199.97 0 M32 0 C389.16 0, 746.32 0, 1199.97 0 M1199.97 0 C1221.3 0, 1231.97 10.67, 1231.97 32 M1199.97 0 C1221.3 0, 1231.97 10.67, 1231.97 32 M1231.97 32 C1231.97 170.59, 1231.97 309.18, 1231.97 492.87 M1231.97 32 C1231.97 143.2, 1231.97 254.4, 1231.97 492.87 M1231.97 492.87 C1231.97 514.21, 1221.3 524.87, 1199.97 524.87 M1231.97 492.87 C1231.97 514.21, 1221.3 524.87, 1199.97 524.87 M1199.97 524.87 C931.93 524.87, 663.88 524.87, 32 524.87 M1199.97 524.87 C955.15 524.87, 710.32 524.87, 32 524.87 M32 524.87 C10.67 524.87, 0 514.21, 0 492.87 M32 524.87 C10.67 524.87, 0 514.21, 0 492.87 M0 492.87 C0 395.04, 0 297.2, 0 32 M0 492.87 C0 319.76, 0 146.64, 0 32 M0 32 C0 10.67, 10.67 0, 32 0 M0 32 C0 10.67, 10.67 0, 32 0" stroke="#1971c2" stroke-width="0.5" fill="none"/></g><g stroke-linecap="round" transform="translate(383.0395908574817 65.91021138450134) rotate(23.363761245607378 247.66668701171875 207.6666717529297)"><path d="M310 52 C347.86 83.92, 385.71 115.84, 433.33 156 C495.33 208, 495.33 208, 433.33 260 C390.65 295.77, 347.96 331.53, 310 363.33 C248 415.33, 248 415.33, 186 363.33 C138.62 323.85, 91.24 284.37, 62 260 C0 208, 0 208, 62 156 C89.66 132.8, 117.32 109.6, 186 52 C248 0, 248 0, 310 52" stroke="none" stroke-width="0" fill="#1e1e1e"/><path d="M310 52 C350.85 86.45, 391.7 120.9, 433.33 156 M310 52 C353.57 88.74, 397.13 125.48, 433.33 156 M433.33 156 C495.33 208, 495.33 208, 433.33 260 M433.33 156 C495.33 208, 495.33 208, 433.33 260 M433.33 260 C395.77 291.47, 358.21 322.94, 310 363.33 M433.33 260 C405.86 283.02, 378.38 306.04, 310 363.33 M310 363.33 C248 415.33, 248 415.33, 186 363.33 M310 363.33 C248 415.33, 248 415.33, 186 363.33 M186 363.33 C148.65 332.21, 111.3 301.09, 62 260 M186 363.33 C158.41 340.34, 130.82 317.35, 62 260 M62 260 C0 208, 0 208, 62 156 M62 260 C0 208, 0 208, 62 156 M62 156 C103.44 121.25, 144.88 86.49, 186 52 M62 156 C104.83 120.08, 147.66 84.16, 186 52 M186 52 C248 0, 248 0, 310 52 M186 52 C248 0, 248 0, 310 52" stroke="#1e1e1e" stroke-width="2" fill="none"/></g><g stroke-linecap="round"><g transform="translate(530.3729648809192 411.2435548903607) rotate(0 97.02128347160922 -132.33334350585938)"><path d="M0 0 C-11.11 -16.67, -52.22 -68.89, -66.67 -100 C-81.11 -131.11, -77.22 -167.33, -86.67 -186.67 C-96.11 -206, -119.78 -206.33, -123.33 -216 C-126.89 -225.67, -117.67 -240, -108 -244.67 C-98.33 -249.33, -81.78 -238.11, -65.33 -244 C-48.89 -249.89, -29 -273.67, -9.33 -280 C10.33 -286.33, 33.56 -276.22, 52.67 -282 C71.78 -287.78, 86.67 -309.44, 105.33 -314.67 C124 -319.89, 147.44 -315.78, 164.67 -313.33 C181.89 -310.89, 198 -313.44, 208.67 -300 C219.33 -286.56, 218 -253.67, 228.67 -232.67 C239.33 -211.67, 262.18 -195.69, 272.67 -174 C283.16 -152.31, 284.16 -122.07, 291.61 -102.55 C299.06 -83.03, 316.98 -70.44, 317.38 -56.9 C317.77 -43.36, 307.83 -27.54, 294 -21.33 C280.17 -15.12, 251.26 -22.52, 234.37 -19.63 C217.48 -16.74, 206.65 -10.75, 192.67 -4 C178.69 2.75, 166.83 16.23, 150.5 20.9 C134.17 25.57, 109.75 19.15, 94.67 24 C79.58 28.85, 65.78 45.67, 60 50 M0 0 C-11.11 -16.67, -52.22 -68.89, -66.67 -100 C-81.11 -131.11, -77.22 -167.33, -86.67 -186.67 C-96.11 -206, -119.78 -206.33, -123.33 -216 C-126.89 -225.67, -117.67 -240, -108 -244.67 C-98.33 -249.33, -81.78 -238.11, -65.33 -244 C-48.89 -249.89, -29 -273.67, -9.33 -280 C10.33 -286.33, 33.56 -276.22, 52.67 -282 C71.78 -287.78, 86.67 -309.44, 105.33 -314.67 C124 -319.89, 147.44 -315.78, 164.67 -313.33 C181.89 -310.89, 198 -313.44, 208.67 -300 C219.33 -286.56, 218 -253.67, 228.67 -232.67 C239.33 -211.67, 262.18 -195.69, 272.67 -174 C283.16 -152.31, 284.16 -122.07, 291.61 -102.55 C299.06 -83.03, 316.98 -70.44, 317.38 -56.9 C317.77 -43.36, 307.83 -27.54, 294 -21.33 C280.17 -15.12, 251.26 -22.52, 234.37 -19.63 C217.48 -16.74, 206.65 -10.75, 192.67 -4 C178.69 2.75, 166.83 16.23, 150.5 20.9 C134.17 25.57, 109.75 19.15, 94.67 24 C79.58 28.85, 65.78 45.67, 60 50" stroke="#e03131" stroke-width="4" fill="none"/></g></g><mask/><g stroke-linecap="round"><g transform="translate(606.6937980986954 444.1067846807336) rotate(0 -13 13.333343505859375)"><path d="M0 0 C-4.33 4.44, -21.67 22.22, -26 26.67 M0 0 C-4.33 4.44, -21.67 22.22, -26 26.67" stroke="#e03131" stroke-width="4" fill="none"/></g><g transform="translate(606.6937980986954 444.1067846807336) rotate(0 -13 13.333343505859375)"><path d="M-18.34 9.69 C-20.98 15.54, -23.62 21.38, -26 26.67 M-18.34 9.69 C-21.2 16.02, -24.05 22.34, -26 26.67" stroke="#e03131" stroke-width="4" fill="none"/></g><g transform="translate(606.6937980986954 444.1067846807336) rotate(0 -13 13.333343505859375)"><path d="M-9.22 18.58 C-15 21.37, -20.78 24.15, -26 26.67 M-9.22 18.58 C-15.47 21.6, -21.72 24.61, -26 26.67" stroke="#e03131" stroke-width="4" fill="none"/></g></g><mask/></svg>