<svg version="1.1" xmlns="http://www.w3.org/2000/svg" viewBox="0 0 1251.9669884416546 544.8724696565228" width="1251.9669884416546" height="544.8724696565228" class="excalidraw-svg">
  <!-- svg-source:excalidraw -->
  
  <defs>
    <style class="style-fonts">
      
    </style>
    
  </defs>
  <g stroke-linecap="round" transform="translate(10 10) rotate(0 615.9834942208273 262.4362348282614)"><path d="M32 0 C459.73 0, 887.46 0, 1199.97 0 M32 0 C487.58 0, 943.16 0, 1199.97 0 M1199.97 0 C1221.3 0, 1231.97 10.67, 1231.97 32 M1199.97 0 C1221.3 0, 1231.97 10.67, 1231.97 32 M1231.97 32 C1231.97 206.6, 1231.97 381.21, 1231.97 492.87 M1231.97 32 C1231.97 176.95, 1231.97 321.91, 1231.97 492.87 M1231.97 492.87 C1231.97 514.21, 1221.3 524.87, 1199.97 524.87 M1231.97 492.87 C1231.97 514.21, 1221.3 524.87, 1199.97 524.87 M1199.97 524.87 C848.59 524.87, 497.21 524.87, 32 524.87 M1199.97 524.87 C911.83 524.87, 623.7 524.87, 32 524.87 M32 524.87 C10.67 524.87, 0 514.21, 0 492.87 M32 524.87 C10.67 524.87, 0 514.21, 0 492.87 M0 492.87 C0 329.5, 0 166.12, 0 32 M0 492.87 C0 379.6, 0 266.33, 0 32 M0 32 C0 10.67, 10.67 0, 32 0 M0 32 C0 10.67, 10.67 0, 32 0" stroke="#1971c2" stroke-width="0.5" fill="none"/></g><g stroke-linecap="round" transform="translate(455.41286292923274 209.1211851408494) rotate(0 32.61685668019459 63.31504997662597)"><path d="M16.31 0 C26.93 0, 37.56 0, 48.93 0 C59.8 0, 65.23 5.44, 65.23 16.31 C65.23 36.97, 65.23 57.62, 65.23 110.32 C65.23 121.19, 59.8 126.63, 48.93 126.63 C38.13 126.63, 27.34 126.63, 16.31 126.63 C5.44 126.63, 0 121.19, 0 110.32 C0 74.76, 0 39.2, 0 16.31 C0 5.44, 5.44 0, 16.31 0" stroke="none" stroke-width="0" fill="#1e1e1e"/><path d="M16.31 0 C24.88 0, 33.45 0, 48.93 0 M16.31 0 C27.76 0, 39.22 0, 48.93 0 M48.93 0 C59.8 0, 65.23 5.44, 65.23 16.31 M48.93 0 C59.8 0, 65.23 5.44, 65.23 16.31 M65.23 16.31 C65.23 36.64, 65.23 56.97, 65.23 110.32 M65.23 16.31 C65.23 49.64, 65.23 82.97, 65.23 110.32 M65.23 110.32 C65.23 121.19, 59.8 126.63, 48.93 126.63 M65.23 110.32 C65.23 121.19, 59.8 126.63, 48.93 126.63 M48.93 126.63 C37.73 126.63, 26.53 126.63, 16.31 126.63 M48.93 126.63 C39.28 126.63, 29.63 126.63, 16.31 126.63 M16.31 126.63 C5.44 126.63, 0 121.19, 0 110.32 M16.31 126.63 C5.44 126.63, 0 121.19, 0 110.32 M0 110.32 C0 72.98, 0 35.65, 0 16.31 M0 110.32 C0 79.32, 0 48.31, 0 16.31 M0 16.31 C0 5.44, 5.44 0, 16.31 0 M0 16.31 C0 5.44, 5.44 0, 16.31 0" stroke="#1e1e1e" stroke-width="2" fill="none"/></g><g stroke-linecap="round" transform="translate(637.9907693735809 209.1211852659899) rotate(0 34.05581304851683 63.31504997662597)"><path d="M17.03 0 C28.6 0, 40.18 0, 51.08 0 C62.44 0, 68.11 5.68, 68.11 17.03 C68.11 44.16, 68.11 71.29, 68.11 109.6 C68.11 120.95, 62.44 126.63, 51.08 126.63 C43.87 126.63, 36.65 126.63, 17.03 126.63 C5.68 126.63, 0 120.95, 0 109.6 C0 78.33, 0 47.07, 0 17.03 C0 5.68, 5.68 0, 17.03 0" stroke="none" stroke-width="0" fill="#1e1e1e"/><path d="M17.03 0 C23.99 0, 30.95 0, 51.08 0 M17.03 0 C29.08 0, 41.12 0, 51.08 0 M51.08 0 C62.44 0, 68.11 5.68, 68.11 17.03 M51.08 0 C62.44 0, 68.11 5.68, 68.11 17.03 M68.11 17.03 C68.11 44.3, 68.11 71.58, 68.11 109.6 M68.11 17.03 C68.11 36.91, 68.11 56.79, 68.11 109.6 M68.11 109.6 C68.11 120.95, 62.44 126.63, 51.08 126.63 M68.11 109.6 C68.11 120.95, 62.44 126.63, 51.08 126.63 M51.08 126.63 C40.22 126.63, 29.35 126.63, 17.03 126.63 M51.08 126.63 C41.86 126.63, 32.63 126.63, 17.03 126.63 M17.03 126.63 C5.68 126.63, 0 120.95, 0 109.6 M17.03 126.63 C5.68 126.63, 0 120.95, 0 109.6 M0 109.6 C0 83.97, 0 58.34, 0 17.03 M0 109.6 C0 84.3, 0 59.01, 0 17.03 M0 17.03 C0 5.68, 5.68 0, 17.03 0 M0 17.03 C0 5.68, 5.68 0, 17.03 0" stroke="#1e1e1e" stroke-width="2" fill="none"/></g><g stroke-linecap="round" transform="translate(826.0172369668521 209.12118542172183) rotate(0 34.05581304851683 63.31504997662597)"><path d="M17.03 0 C27.91 0, 38.79 0, 51.08 0 C62.44 0, 68.11 5.68, 68.11 17.03 C68.11 43.23, 68.11 69.42, 68.11 109.6 C68.11 120.95, 62.44 126.63, 51.08 126.63 C40.94 126.63, 30.8 126.63, 17.03 126.63 C5.68 126.63, 0 120.95, 0 109.6 C0 89.57, 0 69.53, 0 17.03 C0 5.68, 5.68 0, 17.03 0" stroke="none" stroke-width="0" fill="#1e1e1e"/><path d="M17.03 0 C30.35 0, 43.67 0, 51.08 0 M17.03 0 C27.22 0, 37.41 0, 51.08 0 M51.08 0 C62.44 0, 68.11 5.68, 68.11 17.03 M51.08 0 C62.44 0, 68.11 5.68, 68.11 17.03 M68.11 17.03 C68.11 49.56, 68.11 82.09, 68.11 109.6 M68.11 17.03 C68.11 37.34, 68.11 57.65, 68.11 109.6 M68.11 109.6 C68.11 120.95, 62.44 126.63, 51.08 126.63 M68.11 109.6 C68.11 120.95, 62.44 126.63, 51.08 126.63 M51.08 126.63 C39.79 126.63, 28.5 126.63, 17.03 126.63 M51.08 126.63 C37.68 126.63, 24.27 126.63, 17.03 126.63 M17.03 126.63 C5.68 126.63, 0 120.95, 0 109.6 M17.03 126.63 C5.68 126.63, 0 120.95, 0 109.6 M0 109.6 C0 80.83, 0 52.05, 0 17.03 M0 109.6 C0 83.22, 0 56.84, 0 17.03 M0 17.03 C0 5.68, 5.68 0, 17.03 0 M0 17.03 C0 5.68, 5.68 0, 17.03 0" stroke="#1e1e1e" stroke-width="2" fill="none"/></g><g stroke-linecap="round" transform="translate(264.8159401872106 209.12118484329378) rotate(0 34.055813048516825 63.31504997662597)"><path d="M17.03 0 C25.07 0, 33.1 0, 51.08 0 C62.44 0, 68.11 5.68, 68.11 17.03 C68.11 36.7, 68.11 56.37, 68.11 109.6 C68.11 120.95, 62.44 126.63, 51.08 126.63 C40.55 126.63, 30.01 126.63, 17.03 126.63 C5.68 126.63, 0 120.95, 0 109.6 C0 86.6, 0 63.6, 0 17.03 C0 5.68, 5.68 0, 17.03 0" stroke="none" stroke-width="0" fill="#1e1e1e"/><path d="M17.03 0 C24.74 0, 32.46 0, 51.08 0 M17.03 0 C24.94 0, 32.86 0, 51.08 0 M51.08 0 C62.44 0, 68.11 5.68, 68.11 17.03 M51.08 0 C62.44 0, 68.11 5.68, 68.11 17.03 M68.11 17.03 C68.11 47.35, 68.11 77.67, 68.11 109.6 M68.11 17.03 C68.11 40.73, 68.11 64.43, 68.11 109.6 M68.11 109.6 C68.11 120.95, 62.44 126.63, 51.08 126.63 M68.11 109.6 C68.11 120.95, 62.44 126.63, 51.08 126.63 M51.08 126.63 C42.16 126.63, 33.24 126.63, 17.03 126.63 M51.08 126.63 C39.47 126.63, 27.85 126.63, 17.03 126.63 M17.03 126.63 C5.68 126.63, 0 120.95, 0 109.6 M17.03 126.63 C5.68 126.63, 0 120.95, 0 109.6 M0 109.6 C0 88.88, 0 68.16, 0 17.03 M0 109.6 C0 83.86, 0 58.12, 0 17.03 M0 17.03 C0 5.68, 5.68 0, 17.03 0 M0 17.03 C0 5.68, 5.68 0, 17.03 0" stroke="#1e1e1e" stroke-width="2" fill="none"/></g><g stroke-linecap="round"><g transform="translate(131.2565359349161 256.88618809535114) rotate(0 65.5500466609933 0)"><path d="M0 0 C21.85 0, 109.25 0, 131.1 0 M0 0 C21.85 0, 109.25 0, 131.1 0" stroke="#e03131" stroke-width="4" fill="none"/></g></g><mask/><g stroke-linecap="round"><g transform="translate(267.37751978322103 256.88618791811143) rotate(0 95.17203585592642 0)"><path d="M0 0 C31.72 0, 158.62 0, 190.34 0" stroke="#e03131" stroke-width="4.5" fill="none" stroke-dasharray="8 12"/></g></g><mask/><g stroke-linecap="round"><g transform="translate(455.41286331290337 256.8861884176647) rotate(0 95.17203585592642 0)"><path d="M0 0 C31.72 0, 158.62 0, 190.34 0" stroke="#e03131" stroke-width="4.5" fill="none" stroke-dasharray="1.5 10"/></g></g><mask/><g stroke-linecap="round"><g transform="translate(637.9907691228887 256.8861879670929) rotate(0 95.17203585592642 0)"><path d="M0 0 C31.72 0, 158.62 0, 190.34 0" stroke="#e03131" stroke-width="4.5" fill="none" stroke-dasharray="8 12"/></g></g><mask/><g stroke-linecap="round"><g transform="translate(825.2998163316909 256.96615991811296) rotate(0 95.42060607988299 0)"><path d="M0 0 C31.81 0, 159.03 0, 190.84 0 M0 0 C31.81 0, 159.03 0, 190.84 0" stroke="#e03131" stroke-width="4" fill="none"/></g><g transform="translate(825.2998163316909 256.96615991811296) rotate(0 95.42060607988299 0)"><path d="M167.35 8.55 C175.97 5.41, 184.6 2.27, 190.84 0 M167.35 8.55 C174.98 5.77, 182.62 2.99, 190.84 0" stroke="#e03131" stroke-width="4" fill="none"/></g><g transform="translate(825.2998163316909 256.96615991811296) rotate(0 95.42060607988299 0)"><path d="M167.35 -8.55 C175.97 -5.41, 184.6 -2.27, 190.84 0 M167.35 -8.55 C174.98 -5.77, 182.62 -2.99, 190.84 0" stroke="#e03131" stroke-width="4" fill="none"/></g></g><mask/><g stroke-linecap="round" transform="translate(250.86199660715374 242.5679201520346) rotate(0 13.836545429702596 13.836545429702568)"><path d="M27.67 13.84 C27.67 14.64, 27.6 15.45, 27.46 16.24 C27.32 17.03, 27.11 17.82, 26.84 18.57 C26.56 19.32, 26.22 20.06, 25.82 20.75 C25.42 21.45, 24.95 22.12, 24.44 22.73 C23.92 23.34, 23.34 23.92, 22.73 24.44 C22.12 24.95, 21.45 25.42, 20.75 25.82 C20.06 26.22, 19.32 26.56, 18.57 26.84 C17.82 27.11, 17.03 27.32, 16.24 27.46 C15.45 27.6, 14.64 27.67, 13.84 27.67 C13.04 27.67, 12.22 27.6, 11.43 27.46 C10.65 27.32, 9.86 27.11, 9.1 26.84 C8.35 26.56, 7.61 26.22, 6.92 25.82 C6.22 25.42, 5.56 24.95, 4.94 24.44 C4.33 23.92, 3.75 23.34, 3.24 22.73 C2.72 22.12, 2.25 21.45, 1.85 20.75 C1.45 20.06, 1.11 19.32, 0.83 18.57 C0.56 17.82, 0.35 17.03, 0.21 16.24 C0.07 15.45, 0 14.64, 0 13.84 C0 13.04, 0.07 12.22, 0.21 11.43 C0.35 10.65, 0.56 9.86, 0.83 9.1 C1.11 8.35, 1.45 7.61, 1.85 6.92 C2.25 6.22, 2.72 5.56, 3.24 4.94 C3.75 4.33, 4.33 3.75, 4.94 3.24 C5.56 2.72, 6.22 2.25, 6.92 1.85 C7.61 1.45, 8.35 1.11, 9.1 0.83 C9.86 0.56, 10.65 0.35, 11.43 0.21 C12.22 0.07, 13.04 0, 13.84 0 C14.64 0, 15.45 0.07, 16.24 0.21 C17.03 0.35, 17.82 0.56, 18.57 0.83 C19.32 1.11, 20.06 1.45, 20.75 1.85 C21.45 2.25, 22.12 2.72, 22.73 3.24 C23.34 3.75, 23.92 4.33, 24.44 4.94 C24.95 5.56, 25.42 6.22, 25.82 6.92 C26.22 7.61, 26.56 8.35, 26.84 9.1 C27.11 9.86, 27.32 10.65, 27.46 11.43 C27.6 12.22, 27.64 13.44, 27.67 13.84 C27.71 14.24, 27.71 13.44, 27.67 13.84" stroke="#f08c00" stroke-width="1" fill="none"/></g><g stroke-linecap="round" transform="translate(440.65541269037044 244.49241722468645) rotate(0 13.836545429702568 13.836545429702568)"><path d="M27.67 13.84 C27.67 14.64, 27.6 15.45, 27.46 16.24 C27.32 17.03, 27.11 17.82, 26.84 18.57 C26.56 19.32, 26.22 20.06, 25.82 20.75 C25.42 21.45, 24.95 22.12, 24.44 22.73 C23.92 23.34, 23.34 23.92, 22.73 24.44 C22.12 24.95, 21.45 25.42, 20.75 25.82 C20.06 26.22, 19.32 26.56, 18.57 26.84 C17.82 27.11, 17.03 27.32, 16.24 27.46 C15.45 27.6, 14.64 27.67, 13.84 27.67 C13.04 27.67, 12.22 27.6, 11.43 27.46 C10.65 27.32, 9.86 27.11, 9.1 26.84 C8.35 26.56, 7.61 26.22, 6.92 25.82 C6.22 25.42, 5.56 24.95, 4.94 24.44 C4.33 23.92, 3.75 23.34, 3.24 22.73 C2.72 22.12, 2.25 21.45, 1.85 20.75 C1.45 20.06, 1.11 19.32, 0.83 18.57 C0.56 17.82, 0.35 17.03, 0.21 16.24 C0.07 15.45, 0 14.64, 0 13.84 C0 13.04, 0.07 12.22, 0.21 11.43 C0.35 10.65, 0.56 9.86, 0.83 9.1 C1.11 8.35, 1.45 7.61, 1.85 6.92 C2.25 6.22, 2.72 5.56, 3.24 4.94 C3.75 4.33, 4.33 3.75, 4.94 3.24 C5.56 2.72, 6.22 2.25, 6.92 1.85 C7.61 1.45, 8.35 1.11, 9.1 0.83 C9.86 0.56, 10.65 0.35, 11.43 0.21 C12.22 0.07, 13.04 0, 13.84 0 C14.64 0, 15.45 0.07, 16.24 0.21 C17.03 0.35, 17.82 0.56, 18.57 0.83 C19.32 1.11, 20.06 1.45, 20.75 1.85 C21.45 2.25, 22.12 2.72, 22.73 3.24 C23.34 3.75, 23.92 4.33, 24.44 4.94 C24.95 5.56, 25.42 6.22, 25.82 6.92 C26.22 7.61, 26.56 8.35, 26.84 9.1 C27.11 9.86, 27.32 10.65, 27.46 11.43 C27.6 12.22, 27.64 13.44, 27.67 13.84 C27.71 14.24, 27.71 13.44, 27.67 13.84" stroke="#f08c00" stroke-width="1" fill="none"/></g><g stroke-linecap="round" transform="translate(622.3732730640069 242.64339668826682) rotate(0 13.836545429702568 13.836545429702568)"><path d="M27.67 13.84 C27.67 14.64, 27.6 15.45, 27.46 16.24 C27.32 17.03, 27.11 17.82, 26.84 18.57 C26.56 19.32, 26.22 20.06, 25.82 20.75 C25.42 21.45, 24.95 22.12, 24.44 22.73 C23.92 23.34, 23.34 23.92, 22.73 24.44 C22.12 24.95, 21.45 25.42, 20.75 25.82 C20.06 26.22, 19.32 26.56, 18.57 26.84 C17.82 27.11, 17.03 27.32, 16.24 27.46 C15.45 27.6, 14.64 27.67, 13.84 27.67 C13.04 27.67, 12.22 27.6, 11.43 27.46 C10.65 27.32, 9.86 27.11, 9.1 26.84 C8.35 26.56, 7.61 26.22, 6.92 25.82 C6.22 25.42, 5.56 24.95, 4.94 24.44 C4.33 23.92, 3.75 23.34, 3.24 22.73 C2.72 22.12, 2.25 21.45, 1.85 20.75 C1.45 20.06, 1.11 19.32, 0.83 18.57 C0.56 17.82, 0.35 17.03, 0.21 16.24 C0.07 15.45, 0 14.64, 0 13.84 C0 13.04, 0.07 12.22, 0.21 11.43 C0.35 10.65, 0.56 9.86, 0.83 9.1 C1.11 8.35, 1.45 7.61, 1.85 6.92 C2.25 6.22, 2.72 5.56, 3.24 4.94 C3.75 4.33, 4.33 3.75, 4.94 3.24 C5.56 2.72, 6.22 2.25, 6.92 1.85 C7.61 1.45, 8.35 1.11, 9.1 0.83 C9.86 0.56, 10.65 0.35, 11.43 0.21 C12.22 0.07, 13.04 0, 13.84 0 C14.64 0, 15.45 0.07, 16.24 0.21 C17.03 0.35, 17.82 0.56, 18.57 0.83 C19.32 1.11, 20.06 1.45, 20.75 1.85 C21.45 2.25, 22.12 2.72, 22.73 3.24 C23.34 3.75, 23.92 4.33, 24.44 4.94 C24.95 5.56, 25.42 6.22, 25.82 6.92 C26.22 7.61, 26.56 8.35, 26.84 9.1 C27.11 9.86, 27.32 10.65, 27.46 11.43 C27.6 12.22, 27.64 13.44, 27.67 13.84 C27.71 14.24, 27.71 13.44, 27.67 13.84" stroke="#f08c00" stroke-width="1" fill="none"/></g><g stroke-linecap="round" transform="translate(810.550269795069 242.56789376091862) rotate(0 13.836545429702568 13.836545429702568)"><path d="M27.67 13.84 C27.67 14.64, 27.6 15.45, 27.46 16.24 C27.32 17.03, 27.11 17.82, 26.84 18.57 C26.56 19.32, 26.22 20.06, 25.82 20.75 C25.42 21.45, 24.95 22.12, 24.44 22.73 C23.92 23.34, 23.34 23.92, 22.73 24.44 C22.12 24.95, 21.45 25.42, 20.75 25.82 C20.06 26.22, 19.32 26.56, 18.57 26.84 C17.82 27.11, 17.03 27.32, 16.24 27.46 C15.45 27.6, 14.64 27.67, 13.84 27.67 C13.04 27.67, 12.22 27.6, 11.43 27.46 C10.65 27.32, 9.86 27.11, 9.1 26.84 C8.35 26.56, 7.61 26.22, 6.92 25.82 C6.22 25.42, 5.56 24.95, 4.94 24.44 C4.33 23.92, 3.75 23.34, 3.24 22.73 C2.72 22.12, 2.25 21.45, 1.85 20.75 C1.45 20.06, 1.11 19.32, 0.83 18.57 C0.56 17.82, 0.35 17.03, 0.21 16.24 C0.07 15.45, 0 14.64, 0 13.84 C0 13.04, 0.07 12.22, 0.21 11.43 C0.35 10.65, 0.56 9.86, 0.83 9.1 C1.11 8.35, 1.45 7.61, 1.85 6.92 C2.25 6.22, 2.72 5.56, 3.24 4.94 C3.75 4.33, 4.33 3.75, 4.94 3.24 C5.56 2.72, 6.22 2.25, 6.92 1.85 C7.61 1.45, 8.35 1.11, 9.1 0.83 C9.86 0.56, 10.65 0.35, 11.43 0.21 C12.22 0.07, 13.04 0, 13.84 0 C14.64 0, 15.45 0.07, 16.24 0.21 C17.03 0.35, 17.82 0.56, 18.57 0.83 C19.32 1.11, 20.06 1.45, 20.75 1.85 C21.45 2.25, 22.12 2.72, 22.73 3.24 C23.34 3.75, 23.92 4.33, 24.44 4.94 C24.95 5.56, 25.42 6.22, 25.82 6.92 C26.22 7.61, 26.56 8.35, 26.84 9.1 C27.11 9.86, 27.32 10.65, 27.46 11.43 C27.6 12.22, 27.64 13.44, 27.67 13.84 C27.71 14.24, 27.71 13.44, 27.67 13.84" stroke="#f08c00" stroke-width="1" fill="none"/></g></svg>