<svg version="1.1" xmlns="http://www.w3.org/2000/svg" viewBox="0 0 1491.8187778667193 505.2453798079701" width="1491.8187778667193" height="505.2453798079701" filter="invert(93%) hue-rotate(180deg)" class="excalidraw-svg">
  <!-- svg-source:excalidraw -->
  
  <defs>
    <style class="style-fonts">
      
    </style>
    
  </defs>
  <g stroke-linecap="round"><g transform="translate(676.7575808775537 463.3986366564973) rotate(0 -20.40008544921875 -198.8000030517578)"><path d="M0 0 C7.47 -3, 31.33 -9.73, 44.8 -18 C58.27 -26.27, 89.6 -38.73, 80.8 -49.6 C72 -60.47, 21.73 -82.8, -8 -83.2 C-37.73 -83.6, -97.47 -60.4, -97.6 -52 C-97.73 -43.6, -34.8 -32.47, -8.8 -32.8 C17.2 -33.13, 39.2 -44.2, 58.4 -54 C77.6 -63.8, 95.6 -78.07, 106.4 -91.6 C117.2 -105.13, 130.27 -121.07, 123.2 -135.2 C116.13 -149.33, 88 -167.07, 64 -176.4 C40 -185.73, 7.6 -189.87, -20.8 -191.2 C-49.2 -192.53, -84.27 -191.33, -106.4 -184.4 C-128.53 -177.47, -155.2 -160.53, -153.6 -149.6 C-152 -138.67, -118.93 -125.2, -96.8 -118.8 C-74.67 -112.4, -49.47 -107.07, -20.8 -111.2 C7.87 -115.33, 47.87 -126.8, 75.2 -143.6 C102.53 -160.4, 151.2 -184.33, 143.2 -212 C135.2 -239.67, 72.4 -293.53, 27.2 -309.6 C-18 -325.67, -90.93 -316.67, -128 -308.4 C-165.07 -300.13, -197.73 -274.27, -195.2 -260 C-192.67 -245.73, -144.53 -230.8, -112.8 -222.8 C-81.07 -214.8, -40.53 -208.67, -4.8 -212 C30.93 -215.33, 75.07 -226.93, 101.6 -242.8 C128.13 -258.67, 153.87 -285.6, 154.4 -307.2 C154.93 -328.8, 127.47 -357.33, 104.8 -372.4 C82.13 -387.47, 32.8 -393.4, 18.4 -397.6 M0 0 C7.47 -3, 31.33 -9.73, 44.8 -18 C58.27 -26.27, 89.6 -38.73, 80.8 -49.6 C72 -60.47, 21.73 -82.8, -8 -83.2 C-37.73 -83.6, -97.47 -60.4, -97.6 -52 C-97.73 -43.6, -34.8 -32.47, -8.8 -32.8 C17.2 -33.13, 39.2 -44.2, 58.4 -54 C77.6 -63.8, 95.6 -78.07, 106.4 -91.6 C117.2 -105.13, 130.27 -121.07, 123.2 -135.2 C116.13 -149.33, 88 -167.07, 64 -176.4 C40 -185.73, 7.6 -189.87, -20.8 -191.2 C-49.2 -192.53, -84.27 -191.33, -106.4 -184.4 C-128.53 -177.47, -155.2 -160.53, -153.6 -149.6 C-152 -138.67, -118.93 -125.2, -96.8 -118.8 C-74.67 -112.4, -49.47 -107.07, -20.8 -111.2 C7.87 -115.33, 47.87 -126.8, 75.2 -143.6 C102.53 -160.4, 151.2 -184.33, 143.2 -212 C135.2 -239.67, 72.4 -293.53, 27.2 -309.6 C-18 -325.67, -90.93 -316.67, -128 -308.4 C-165.07 -300.13, -197.73 -274.27, -195.2 -260 C-192.67 -245.73, -144.53 -230.8, -112.8 -222.8 C-81.07 -214.8, -40.53 -208.67, -4.8 -212 C30.93 -215.33, 75.07 -226.93, 101.6 -242.8 C128.13 -258.67, 153.87 -285.6, 154.4 -307.2 C154.93 -328.8, 127.47 -357.33, 104.8 -372.4 C82.13 -387.47, 32.8 -393.4, 18.4 -397.6" stroke="#1e1e1e" stroke-width="2" fill="none"></path></g><g transform="translate(676.7575808775537 463.3986366564973) rotate(0 -20.40008544921875 -198.8000030517578)"><path d="M43.16 -401.03 C37.01 -400.18, 30.86 -399.33, 18.4 -397.6 M43.16 -401.03 C33.37 -399.67, 23.57 -398.32, 18.4 -397.6" stroke="#1e1e1e" stroke-width="2" fill="none"></path></g><g transform="translate(676.7575808775537 463.3986366564973) rotate(0 -20.40008544921875 -198.8000030517578)"><path d="M39.58 -384.31 C34.32 -387.61, 29.06 -390.91, 18.4 -397.6 M39.58 -384.31 C31.2 -389.57, 22.82 -394.83, 18.4 -397.6" stroke="#1e1e1e" stroke-width="2" fill="none"></path></g></g><mask></mask><g transform="translate(91.05964520189991 197.56392727812204) rotate(0 151.32606506347656 45.3554664794417)"><text x="151.32606506347656" y="33.32717828181123" font-family="Helvetica, Segoe UI Emoji" font-size="39.43953606907974px" fill="#1e1e1e" text-anchor="middle" style="white-space: pre;" direction="ltr" dominant-baseline="alphabetic">Idee eines</text><text x="151.32606506347656" y="78.68264476125293" font-family="Helvetica, Segoe UI Emoji" font-size="39.43953606907974px" fill="#1e1e1e" text-anchor="middle" style="white-space: pre;" direction="ltr" dominant-baseline="alphabetic">Spiralcurriculums</text></g><g stroke-linecap="round" transform="translate(10 10) rotate(0 735.9093889333597 242.62268990398505)"><path d="M32 0 C485.44 0, 938.88 0, 1439.82 0 M32 0 C456.71 0, 881.41 0, 1439.82 0 M1439.82 0 C1461.15 0, 1471.82 10.67, 1471.82 32 M1439.82 0 C1461.15 0, 1471.82 10.67, 1471.82 32 M1471.82 32 C1471.82 159.47, 1471.82 286.93, 1471.82 453.25 M1471.82 32 C1471.82 146.98, 1471.82 261.96, 1471.82 453.25 M1471.82 453.25 C1471.82 474.58, 1461.15 485.25, 1439.82 485.25 M1471.82 453.25 C1471.82 474.58, 1461.15 485.25, 1439.82 485.25 M1439.82 485.25 C975.91 485.25, 512 485.25, 32 485.25 M1439.82 485.25 C980.72 485.25, 521.62 485.25, 32 485.25 M32 485.25 C10.67 485.25, 0 474.58, 0 453.25 M32 485.25 C10.67 485.25, 0 474.58, 0 453.25 M0 453.25 C0 333.32, 0 213.4, 0 32 M0 453.25 C0 342.96, 0 232.68, 0 32 M0 32 C0 10.67, 10.67 0, 32 0 M0 32 C0 10.67, 10.67 0, 32 0" stroke="#1971c2" stroke-width="2" fill="none"></path></g></svg>