<svg version="1.1" xmlns="http://www.w3.org/2000/svg" viewBox="0 0 1251.9669884416546 544.8724696565228" width="1251.9669884416546" height="544.8724696565228" filter="invert(93%) hue-rotate(180deg)" class="excalidraw-svg">
  <!-- svg-source:excalidraw -->
  
  <defs>
    <style class="style-fonts">
      
    </style>
    
  </defs>
  <g stroke-linecap="round" transform="translate(10 10) rotate(0 615.9834942208273 262.4362348282614)"><path d="M32 0 C365.71 0, 699.43 0, 1199.97 0 M32 0 C380.65 0, 729.3 0, 1199.97 0 M1199.97 0 C1221.3 0, 1231.97 10.67, 1231.97 32 M1199.97 0 C1221.3 0, 1231.97 10.67, 1231.97 32 M1231.97 32 C1231.97 132.97, 1231.97 233.93, 1231.97 492.87 M1231.97 32 C1231.97 188.2, 1231.97 344.4, 1231.97 492.87 M1231.97 492.87 C1231.97 514.21, 1221.3 524.87, 1199.97 524.87 M1231.97 492.87 C1231.97 514.21, 1221.3 524.87, 1199.97 524.87 M1199.97 524.87 C897.26 524.87, 594.55 524.87, 32 524.87 M1199.97 524.87 C960.78 524.87, 721.58 524.87, 32 524.87 M32 524.87 C10.67 524.87, 0 514.21, 0 492.87 M32 524.87 C10.67 524.87, 0 514.21, 0 492.87 M0 492.87 C0 342.19, 0 191.5, 0 32 M0 492.87 C0 387.54, 0 282.2, 0 32 M0 32 C0 10.67, 10.67 0, 32 0 M0 32 C0 10.67, 10.67 0, 32 0" stroke="#1971c2" stroke-width="0.5" fill="none"/></g><g stroke-linecap="round" transform="translate(383.0395908574818 65.91021138450128) rotate(23.363761245607378 247.66668701171875 207.6666717529297)"><path d="M310 52 C350.26 85.95, 390.53 119.9, 433.33 156 C495.33 208, 495.33 208, 433.33 260 C406.98 282.08, 380.64 304.15, 310 363.33 C248 415.33, 248 415.33, 186 363.33 C139.11 324.26, 92.23 285.19, 62 260 C0 208, 0 208, 62 156 C89.87 132.63, 117.73 109.26, 186 52 C248 0, 248 0, 310 52" stroke="none" stroke-width="0" fill="#1e1e1e"/><path d="M310 52 C337.17 74.91, 364.35 97.83, 433.33 156 M310 52 C354.62 89.63, 399.25 127.26, 433.33 156 M433.33 156 C495.33 208, 495.33 208, 433.33 260 M433.33 156 C495.33 208, 495.33 208, 433.33 260 M433.33 260 C388.81 297.3, 344.29 334.6, 310 363.33 M433.33 260 C406.17 282.76, 379.01 305.52, 310 363.33 M310 363.33 C248 415.33, 248 415.33, 186 363.33 M310 363.33 C248 415.33, 248 415.33, 186 363.33 M186 363.33 C138.37 323.64, 90.75 283.96, 62 260 M186 363.33 C138.6 323.83, 91.19 284.33, 62 260 M62 260 C0 208, 0 208, 62 156 M62 260 C0 208, 0 208, 62 156 M62 156 C98.83 125.11, 135.65 94.23, 186 52 M62 156 C97.48 126.24, 132.97 96.48, 186 52 M186 52 C248 0, 248 0, 310 52 M186 52 C248 0, 248 0, 310 52" stroke="#1e1e1e" stroke-width="2" fill="none"/></g><g stroke-linecap="round"><g transform="translate(530.3729648809193 411.24355489036066) rotate(0 96.78300719966234 -155.08304931992546)"><path d="M0 0 C-11.11 -16.67, -52.22 -68.89, -66.67 -100 C-81.11 -131.11, -77.22 -167.33, -86.67 -186.67 C-96.11 -206, -119.78 -206.33, -123.33 -216 C-126.89 -225.67, -117.67 -240, -108 -244.67 C-98.33 -249.33, -81.78 -238.11, -65.33 -244 C-48.89 -249.89, -29 -273.67, -9.33 -280 C10.33 -286.33, 33.56 -276.22, 52.67 -282 C71.78 -287.78, 86.67 -309.44, 105.33 -314.67 C124 -319.89, 147.44 -315.78, 164.67 -313.33 C181.89 -310.89, 198 -313.44, 208.67 -300 C219.33 -286.56, 218 -253.67, 228.67 -232.67 C239.33 -211.67, 262.18 -195.69, 272.67 -174 C283.16 -152.31, 285.19 -122.55, 291.61 -102.55 C298.03 -82.55, 310.8 -67.51, 311.2 -53.97 C311.6 -40.44, 309.43 -31.08, 294 -21.33 C278.57 -11.59, 231.91 2.54, 218.62 4.5 C205.32 6.46, 205.75 -5.23, 214.23 -9.57 C222.71 -13.91, 252.38 -16.25, 269.49 -21.57 C286.61 -26.88, 310.24 -31.08, 316.9 -41.46 C323.56 -51.84, 310.69 -76.77, 309.45 -83.83 M0 0 C-11.11 -16.67, -52.22 -68.89, -66.67 -100 C-81.11 -131.11, -77.22 -167.33, -86.67 -186.67 C-96.11 -206, -119.78 -206.33, -123.33 -216 C-126.89 -225.67, -117.67 -240, -108 -244.67 C-98.33 -249.33, -81.78 -238.11, -65.33 -244 C-48.89 -249.89, -29 -273.67, -9.33 -280 C10.33 -286.33, 33.56 -276.22, 52.67 -282 C71.78 -287.78, 86.67 -309.44, 105.33 -314.67 C124 -319.89, 147.44 -315.78, 164.67 -313.33 C181.89 -310.89, 198 -313.44, 208.67 -300 C219.33 -286.56, 218 -253.67, 228.67 -232.67 C239.33 -211.67, 262.18 -195.69, 272.67 -174 C283.16 -152.31, 285.19 -122.55, 291.61 -102.55 C298.03 -82.55, 310.8 -67.51, 311.2 -53.97 C311.6 -40.44, 309.43 -31.08, 294 -21.33 C278.57 -11.59, 231.91 2.54, 218.62 4.5 C205.32 6.46, 205.75 -5.23, 214.23 -9.57 C222.71 -13.91, 252.38 -16.25, 269.49 -21.57 C286.61 -26.88, 310.24 -31.08, 316.9 -41.46 C323.56 -51.84, 310.69 -76.77, 309.45 -83.83" stroke="#e03131" stroke-width="4" fill="none"/></g></g><mask/><g stroke-linecap="round"><g transform="translate(840.3693315970985 330.4310210576415) rotate(0 -5.628529427753236 -12.645663670990082)"><path d="M0 0 C-1.88 -4.22, -9.38 -21.08, -11.26 -25.29 M0 0 C-1.88 -4.22, -9.38 -21.08, -11.26 -25.29" stroke="#e03131" stroke-width="4" fill="none"/></g><g transform="translate(840.3693315970985 330.4310210576415) rotate(0 -5.628529427753236 -12.645663670990082)"><path d="M-1.64 -15.33 C-4.62 -18.42, -7.6 -21.51, -11.26 -25.29 M-1.64 -15.33 C-3.58 -17.34, -5.52 -19.35, -11.26 -25.29" stroke="#e03131" stroke-width="4" fill="none"/></g><g transform="translate(840.3693315970985 330.4310210576415) rotate(0 -5.628529427753236 -12.645663670990082)"><path d="M-10.29 -11.48 C-10.59 -15.76, -10.89 -20.04, -11.26 -25.29 M-10.29 -11.48 C-10.49 -14.26, -10.68 -17.05, -11.26 -25.29" stroke="#e03131" stroke-width="4" fill="none"/></g></g><mask/><g stroke-linecap="round" transform="translate(700.3130537247458 367.1520986976463) rotate(338.898319587248 14.883567607152836 51.651556475493365)"><path d="M7.44 0 C11.57 0, 15.71 0, 22.33 0 C27.29 0, 29.77 2.48, 29.77 7.44 C29.77 40.59, 29.77 73.74, 29.77 95.86 C29.77 100.82, 27.29 103.3, 22.33 103.3 C17.2 103.3, 12.07 103.3, 7.44 103.3 C2.48 103.3, 0 100.82, 0 95.86 C0 65.36, 0 34.85, 0 7.44 C0 2.48, 2.48 0, 7.44 0" stroke="none" stroke-width="0" fill="#f08c00"/><path d="M7.44 0 C11.57 0, 15.7 0, 22.33 0 M7.44 0 C12.17 0, 16.89 0, 22.33 0 M22.33 0 C27.29 0, 29.77 2.48, 29.77 7.44 M22.33 0 C27.29 0, 29.77 2.48, 29.77 7.44 M29.77 7.44 C29.77 27.21, 29.77 46.98, 29.77 95.86 M29.77 7.44 C29.77 30.37, 29.77 53.29, 29.77 95.86 M29.77 95.86 C29.77 100.82, 27.29 103.3, 22.33 103.3 M29.77 95.86 C29.77 100.82, 27.29 103.3, 22.33 103.3 M22.33 103.3 C16.58 103.3, 10.83 103.3, 7.44 103.3 M22.33 103.3 C16.88 103.3, 11.44 103.3, 7.44 103.3 M7.44 103.3 C2.48 103.3, 0 100.82, 0 95.86 M7.44 103.3 C2.48 103.3, 0 100.82, 0 95.86 M0 95.86 C0 62.93, 0 30, 0 7.44 M0 95.86 C0 66.83, 0 37.79, 0 7.44 M0 7.44 C0 2.48, 2.48 0, 7.44 0 M0 7.44 C0 2.48, 2.48 0, 7.44 0" stroke="#f08c00" stroke-width="2" fill="none"/></g></svg>