<?xml version="1.0" encoding="UTF-8"?>
<svg id="subtitle" xmlns="http://www.w3.org/2000/svg" viewBox="0 0 268.98 268.98">
  <defs>
    <style>
      .cls-1 {
        fill: #292929;
      }

      .cls-1, .cls-2, .cls-3, .cls-4, .cls-5, .cls-6, .cls-7, .cls-8, .cls-9 {
        stroke-width: 0px;
      }

      .cls-2 {
        fill: #01bafb;
      }

      .cls-2, .cls-3, .cls-4, .cls-10, .cls-5, .cls-8, .cls-9 {
        fill-rule: evenodd;
      }

      .cls-3, .cls-7 {
        fill: #1672f1;
      }

      .cls-4 {
        fill: #1758d9;
      }

      .cls-10 {
        stroke: #044d89;
        stroke-miterlimit: 10;
        stroke-width: .25px;
      }

      .cls-10, .cls-6 {
        fill: #f9f7f2;
      }

      .cls-5 {
        fill: #fff;
        opacity: .34;
      }

      .cls-8 {
        fill: #70c5fe;
      }

      .cls-9 {
        fill: #1992fc;
      }
    </style>
  </defs>
  <circle class="cls-1" cx="134.49" cy="134.72" r="134.72"/>
  <g>
    <path class="cls-5" d="M231.98,99.2c-.08-1.29-.31-2.57-.67-3.8-.11-.36-.23-.71-.37-1.05-.11-.35-.24-.69-.39-1.04-.52-1.18-1.16-2.3-1.93-3.33-.16-.21-.33-.41-.5-.6.05-.09.11-.18.17-.27.36-.63.69-1.29.98-1.96.17-.41.31-.82.43-1.23.18-.39.33-.79.46-1.21.21-.68.38-1.39.51-2.12.13-.73.21-1.48.25-2.21.02-.42.01-.84-.02-1.26.03-.42.04-.85.02-1.29-.04-.73-.12-1.46-.25-2.21-.13-.71-.3-1.41-.5-2.09-.13-.42-.28-.83-.46-1.22-.12-.41-.26-.83-.43-1.23-.29-.68-.62-1.34-.97-1.95-.36-.63-.77-1.24-1.2-1.82-.27-.35-.55-.68-.85-.99-.25-.35-.52-.68-.82-1-.49-.53-1.03-1.04-1.58-1.5-.55-.47-1.15-.9-1.76-1.3-.37-.24-.75-.45-1.13-.64-.36-.25-.74-.47-1.14-.68-.64-.33-1.32-.62-1.99-.86-.67-.24-1.37-.45-2.06-.61-.01,0-.03,0-.04,0,.19-1.37.29-2.75.29-4.12s-.11-2.89-.32-4.31c-.17-1.14-.52-2.21-1.03-3.18-.05-1.09-.28-2.19-.7-3.25-.53-1.34-1.16-2.66-1.89-3.91-.72-1.26-1.55-2.46-2.44-3.59-.71-.89-1.55-1.64-2.47-2.23-.59-.92-1.34-1.76-2.23-2.47-1.13-.9-2.34-1.72-3.56-2.42-.22-.13-.44-.25-.72-.4-1.04-.56-2.12-1.07-3.21-1.5-1.07-.42-2.17-.65-3.26-.7-.97-.51-2.04-.86-3.17-1.03-.24-.04-.49-.05-.74-.08-.08-.33-.17-.65-.28-.96-.12-.61-.29-1.22-.53-1.82-.3-.76-.66-1.5-1.08-2.22-.4-.7-.86-1.37-1.36-1.99-.4-.51-.85-.97-1.32-1.38-.41-.47-.86-.91-1.36-1.3-.63-.5-1.31-.97-2.02-1.37-.03-.02-.36-.2-.41-.23-.59-.32-1.2-.6-1.82-.85-.59-.23-1.2-.41-1.8-.52-.6-.21-1.22-.36-1.86-.46-.8-.12-1.62-.18-2.43-.18s-1.62.06-2.42.18c-.51.07-1,.2-1.48.34-.34-.42-.71-.81-1.11-1.16-.38-.43-.81-.83-1.27-1.2-.59-.46-1.21-.89-1.9-1.29-.66-.38-1.36-.71-2.06-.99-.54-.21-1.09-.37-1.64-.49-.55-.18-1.13-.32-1.72-.41-.75-.11-1.51-.17-2.25-.17s-1.51.06-2.26.17c-.59.09-1.16.23-1.71.41-.56.12-1.11.28-1.66.49-.69.27-1.38.6-2.07,1-.56.33-1.1.7-1.62,1.09-.11-.07-.21-.15-.32-.22-.3-.19-.61-.37-.92-.53-.29-.19-.59-.36-.9-.52-.57-.3-1.17-.56-1.75-.77-.62-.23-1.25-.42-1.9-.56-.34-.08-.69-.14-1.03-.18-.36-.08-.72-.15-1.09-.19-.63-.08-1.26-.11-1.88-.11s-1.25.04-1.88.11c-.37.05-.74.11-1.1.19-.34.04-.68.1-1.02.18-.64.15-1.28.33-1.86.55-.62.22-1.22.49-1.79.78-.31.16-.61.34-.9.53-.29.15-.58.31-.86.49-.28.18-.55.37-.79.55-.14.1-.27.21-.4.32-.25.21-.49.44-.71.67-5.7-3.37-12.23-5.22-18.91-5.22-13.14,0-24.98,6.77-31.69,17.7-.1,0-.2,0-.3,0-16.81,0-30.49,13.68-30.49,30.49,0,1.28.08,2.57.25,3.84-9.1,7-14.54,17.81-14.54,29.51,0,6.88,1.93,13.63,5.58,19.52h0c.04.06.12.19.12.2.08.12.16.25.25.37.42.59.88,1.14,1.4,1.64-2.13,4.21-3.26,8.88-3.26,13.67s1.12,9.25,3.12,13.33c.09.18.19.36.28.55,2.45,4.75,6.12,8.84,10.66,11.77-.3,1.88-.45,3.77-.45,5.66,0,8.2,2.67,15.78,7.17,21.95,6.79,9.29,17.76,15.35,30.13,15.35,2.99,0,5.93-.36,8.8-1.06.74,1.31,1.75,2.53,3.01,3.59.34.29.69.55,1.07.79,4.93,3.17,10.6,4.85,16.4,4.85,6.65,0,13.19-2.25,18.49-6.31.04.03.08.07.12.1l.11.08c.71.52,1.6,1.17,2.71,1.81,1.34.78,2.76,1.46,4.21,2.03,1.15.45,2.33.68,3.51.7,1.03.57,2.17.96,3.39,1.14,1.53.23,3.1.34,4.65.34s3.12-.12,4.65-.34c1.22-.18,2.36-.58,3.39-1.14,1.17-.02,2.36-.25,3.51-.7,1.45-.57,2.86-1.25,4.2-2.03,1.35-.78,2.65-1.66,3.87-2.63.96-.77,1.75-1.68,2.36-2.68,1-.61,1.92-1.4,2.68-2.36.97-1.22,1.85-2.52,2.63-3.86.78-1.35,1.46-2.76,2.03-4.2.37-.93.58-1.88.66-2.83.02-.23.04-.46.04-.68.57-1.03.97-2.18,1.15-3.4.23-1.54.34-3.1.34-4.65,0-.29-.02-.59-.03-.88.06-.01.13-.02.19-.03.43.06.87.09,1.32.09.48,0,.96-.03,1.45-.1,1.18-.17,2.36-.43,3.51-.77,1.14-.34,2.26-.77,3.34-1.27.86-.4,1.63-.91,2.32-1.5.84-.35,1.64-.81,2.38-1.39.94-.74,1.83-1.55,2.66-2.43.82-.87,1.58-1.81,2.26-2.78.54-.77.95-1.59,1.25-2.44.55-.72,1.02-1.52,1.37-2.4.44-1.11.81-2.26,1.08-3.42.28-1.16.47-2.35.57-3.54.07-.81.02-1.59-.09-2.36.81-.1,1.62-.31,2.4-.62,1.02-.4,2.02-.89,3-1.45.95-.55,1.87-1.18,2.72-1.85.68-.54,1.27-1.15,1.78-1.82.12-.09.24-.21.36-.31.21-.18.43-.35.63-.55.29-.29.57-.6.83-.92.68-.86,1.31-1.78,1.85-2.73.55-.95,1.03-1.95,1.44-2.98.32-.81.53-1.64.63-2.47.32-.77.56-1.59.68-2.45.16-1.09.24-2.2.24-3.3s-.08-2.2-.24-3.3c-.13-.86-.36-1.68-.68-2.45-.08-.63-.24-1.26-.44-1.88.15-.09.3-.17.44-.26,1.07-.71,2.06-1.54,2.95-2.47.26-.28.51-.56.74-.86.25-.27.48-.55.7-.85.76-1.03,1.41-2.16,1.93-3.33.15-.34.28-.69.39-1.04.14-.34.27-.69.37-1.05.36-1.23.59-2.51.67-3.8.02-.37.03-.74,0-1.11.02-.37.01-.73,0-1.11Z"/>
    <path class="cls-5" d="M226.91,99.62c-.08-1.22-.29-2.44-.63-3.6-.1-.34-.22-.67-.35-1-.1-.33-.23-.66-.37-.98-.49-1.11-1.1-2.18-1.82-3.16-.15-.2-.31-.38-.47-.57.05-.09.11-.17.16-.25.34-.6.66-1.22.93-1.86.16-.38.3-.77.41-1.17.17-.37.31-.75.43-1.14.2-.64.36-1.31.49-2.01.12-.7.2-1.4.23-2.1.02-.4.01-.8-.02-1.19.03-.4.04-.81.02-1.22-.03-.69-.11-1.39-.24-2.09-.12-.67-.28-1.33-.48-1.98-.12-.4-.27-.78-.44-1.16-.11-.39-.24-.78-.41-1.17-.27-.64-.58-1.27-.92-1.85-.34-.59-.73-1.17-1.14-1.72-.25-.33-.52-.64-.8-.93-.23-.33-.49-.64-.77-.95-.47-.5-.97-.98-1.5-1.42-.53-.44-1.09-.86-1.67-1.23-.35-.23-.71-.43-1.07-.6-.34-.23-.7-.45-1.08-.64-.61-.31-1.25-.59-1.88-.82-.64-.23-1.3-.43-1.95-.58-.01,0-.03,0-.04,0,.18-1.29.28-2.6.28-3.9s-.1-2.73-.3-4.09c-.16-1.08-.49-2.09-.97-3.02-.05-1.03-.26-2.07-.66-3.08-.5-1.27-1.1-2.52-1.79-3.7-.69-1.19-1.46-2.33-2.31-3.4-.67-.85-1.47-1.55-2.34-2.11-.56-.87-1.26-1.67-2.12-2.34-1.07-.85-2.22-1.63-3.37-2.29-.21-.12-.41-.24-.68-.38-.98-.53-2.01-1.01-3.04-1.42-1.01-.4-2.05-.62-3.09-.66-.92-.48-1.93-.81-3.01-.97-.23-.03-.47-.05-.7-.08-.07-.31-.16-.61-.26-.91-.11-.58-.28-1.16-.5-1.72-.29-.72-.63-1.42-1.02-2.1-.38-.66-.82-1.29-1.28-1.89-.38-.48-.8-.92-1.25-1.31-.38-.44-.81-.86-1.29-1.23-.6-.48-1.24-.92-1.91-1.3-.03-.02-.34-.19-.39-.22-.56-.3-1.14-.57-1.72-.8-.56-.22-1.13-.39-1.71-.5-.56-.2-1.15-.34-1.77-.43-.76-.11-1.53-.17-2.3-.17s-1.54.06-2.29.17c-.48.07-.95.19-1.4.32-.33-.4-.67-.77-1.05-1.1-.36-.41-.76-.79-1.2-1.14-.55-.44-1.15-.84-1.8-1.22-.63-.36-1.28-.68-1.95-.94-.51-.2-1.03-.35-1.55-.46-.52-.17-1.07-.31-1.63-.39-.71-.1-1.43-.16-2.13-.16s-1.43.05-2.14.16c-.56.08-1.1.21-1.62.39-.53.11-1.05.26-1.57.47-.66.26-1.31.57-1.96.95-.53.31-1.05.66-1.54,1.03-.1-.07-.2-.14-.3-.21-.28-.18-.57-.35-.87-.5-.27-.18-.56-.34-.85-.5-.54-.28-1.11-.53-1.66-.73-.58-.22-1.19-.39-1.79-.53-.33-.07-.65-.13-.98-.17-.34-.08-.68-.14-1.03-.18-.59-.07-1.19-.11-1.78-.11s-1.19.04-1.78.11c-.35.04-.7.1-1.04.18-.32.04-.64.09-.97.17-.61.14-1.22.32-1.76.52-.59.21-1.16.46-1.7.74-.3.15-.58.32-.85.5-.28.14-.55.29-.81.46-.26.17-.52.35-.75.52-.13.1-.26.2-.38.31-.24.2-.46.42-.67.64-5.39-3.19-11.58-4.94-17.9-4.94-12.44,0-23.66,6.41-30.01,16.76-.09,0-.19,0-.28,0-15.92,0-28.87,12.95-28.87,28.87,0,1.22.08,2.43.24,3.64-8.62,6.63-13.77,16.87-13.77,27.94,0,6.52,1.83,12.91,5.28,18.49h0c.04.06.12.18.12.19.08.12.15.23.24.35.39.56.84,1.08,1.32,1.55-2.02,3.99-3.09,8.41-3.09,12.94s1.06,8.76,2.95,12.62c.09.17.18.34.27.52,2.32,4.5,5.8,8.38,10.1,11.15-.28,1.78-.43,3.57-.43,5.36,0,7.77,2.52,14.95,6.79,20.78,6.43,8.8,16.82,14.53,28.53,14.53,2.83,0,5.61-.34,8.33-1.01.71,1.25,1.66,2.39,2.85,3.4.32.27.66.52,1.01.75,4.67,3,10.04,4.59,15.53,4.59,6.3,0,12.49-2.13,17.51-5.97.04.03.07.06.11.09l.1.07c.68.5,1.52,1.11,2.56,1.71,1.27.73,2.61,1.38,3.98,1.93,1.09.43,2.21.65,3.32.67.97.54,2.06.91,3.21,1.08,1.45.22,2.94.33,4.41.33s2.95-.11,4.41-.33c1.16-.17,2.24-.55,3.21-1.08,1.11-.02,2.24-.24,3.32-.67,1.37-.54,2.71-1.19,3.98-1.92,1.28-.74,2.51-1.58,3.67-2.49.91-.73,1.66-1.59,2.23-2.54.95-.57,1.82-1.32,2.54-2.24.92-1.15,1.75-2.38,2.49-3.66.74-1.27,1.38-2.61,1.92-3.98.35-.88.55-1.78.63-2.68.02-.22.04-.43.04-.65.54-.98.91-2.06,1.09-3.22.21-1.46.32-2.94.32-4.4,0-.28-.02-.56-.03-.83.06-.01.12-.01.18-.03.41.05.83.08,1.25.08.45,0,.91-.03,1.37-.1,1.12-.16,2.23-.41,3.32-.73,1.08-.32,2.14-.73,3.16-1.2.81-.38,1.55-.86,2.2-1.42.79-.33,1.55-.77,2.25-1.32.89-.7,1.74-1.47,2.52-2.3.78-.83,1.5-1.71,2.14-2.63.51-.73.9-1.51,1.18-2.31.52-.68.96-1.44,1.3-2.28.42-1.05.76-2.14,1.03-3.24.26-1.1.44-2.23.54-3.35.07-.76.02-1.51-.09-2.24.77-.1,1.53-.29,2.28-.58.97-.38,1.92-.84,2.84-1.37.9-.52,1.77-1.11,2.58-1.76.64-.51,1.21-1.09,1.68-1.72.12-.09.22-.2.34-.29.2-.17.4-.33.59-.52.28-.27.54-.56.79-.88.65-.82,1.24-1.68,1.76-2.58.52-.9.98-1.85,1.36-2.82.3-.77.5-1.56.6-2.34.31-.73.53-1.5.65-2.32.15-1.03.23-2.09.23-3.12s-.08-2.09-.23-3.12c-.12-.81-.34-1.59-.65-2.32-.07-.6-.23-1.19-.42-1.78.14-.08.28-.16.42-.25,1.01-.67,1.95-1.46,2.79-2.34.25-.26.48-.53.7-.82.23-.25.45-.52.66-.8.72-.98,1.34-2.04,1.82-3.16.14-.32.26-.65.37-.98.13-.32.25-.65.35-1,.34-1.17.56-2.38.63-3.6.02-.35.03-.7,0-1.05.02-.35.01-.7,0-1.05Z"/>
    <path class="cls-6" d="M129.06,25.95c-5.02-5.33-12.12-8.69-19.99-8.69-11.62,0-21.56,7.28-25.58,17.5-.02.03-.04.06-.06.1-.44,1.08-1.63.92-1.63.92h0c-1.62-.4-3.31-.63-5.06-.63-11.37,0-20.64,9.27-20.64,20.64,0,2.47.47,4.83,1.28,7.03h-.02s.81,1.33-.87,2.29c-.01,0-.02.02-.03.02-8.78,4.6-14.8,13.79-14.8,24.36,0,5.27,1.52,10.18,4.11,14.37,0,0,.01.02.03.04,0,0,.01.02.02.03.23.33,1.29,1.52,3.61-.08.2-.14.36-.22.49-.29,3.62-2.16,7.84-3.41,12.35-3.41,1.98,0,3.58,1.6,3.58,3.58s-1.6,3.58-3.58,3.58c-4.23,0-8.1,1.56-11.09,4.12-3.33,3.67-5.39,8.52-5.39,13.84,0,9.37,6.3,17.3,14.88,19.8,0,0,0,0,0,0,0,0,1.36.32.83,1.74-.02.07,0,.09-.02.14-1.22,3.09-1.94,6.43-1.94,9.95,0,15.16,12.36,27.52,27.52,27.52,4.09,0,7.96-.92,11.45-2.54-.01-.02-.03-.05,0,0,7.67-4,13.11-11.72,13.11-20.95,0-1.98,1.6-3.58,3.58-3.58s3.58,1.6,3.58,3.58c0,10.68-5.42,20.09-13.65,25.68h0s-1.47,1.15.45,2.77c3.2,2.06,6.99,3.28,11.06,3.28,4.83,0,9.28-1.69,12.8-4.49,1.25-1.03,1.68-2.84,1.68-2.84V32.78c0-4.23-2.01-6.77-2.06-6.83ZM67.34,93.82c.38-2.63,1.37-5.07,2.85-7.18,0,0,0,0,0,0,1.34-2.27-.61-3.55-.61-3.55h.03c-3.68-3.1-6.05-7.71-6.05-12.88,0-9.22,7.45-16.73,16.64-16.84h0s.02,0,.03,0c.06,0,.12,0,.18,0,0,0,.01,0,.02,0,.34-.02,1.06-.1,1.51-.41.33-.26.62-.65.69-1.24,2.69-8.56,10.68-14.78,20.12-14.78,11.63,0,21.1,9.46,21.1,21.1s-9.46,21.1-21.1,21.1c-1.98,0-3.58-1.6-3.58-3.58s1.6-3.58,3.58-3.58c7.69,0,13.94-6.26,13.94-13.94s-6.26-13.94-13.94-13.94-13.94,6.26-13.94,13.94c0,1.98-1.6,3.58-3.58,3.58-.76,0-1.47-.24-2.05-.65-.89-.27-1.81-.44-2.76-.44-5.35,0-9.7,4.35-9.7,9.7s4.35,9.7,9.7,9.7c.08,0,.15.02.23.02.11,0,.23.02.34.03.13.02.25.05.38.09.09.03.19.05.28.09.13.05.25.1.37.16.09.04.17.09.25.14.11.07.22.14.32.22.08.06.16.13.24.2.09.08.17.17.25.26.07.08.14.17.21.26.07.1.14.2.2.3.06.09.11.19.16.29.06.12.1.24.14.36.02.07.06.12.08.19.01.04.01.08.02.12.03.12.05.23.06.35.02.13.03.25.04.38,0,.04.01.08.01.12,0,.07-.02.13-.02.19,0,.13-.02.27-.04.4-.02.11-.04.21-.07.32-.03.12-.06.23-.11.34-.04.11-.09.21-.14.32-.05.1-.1.2-.16.3-.06.1-.13.19-.2.29-.07.09-.14.18-.22.26s-.16.16-.24.24c-.09.08-.17.15-.27.22-.1.07-.19.13-.3.19-.1.06-.19.11-.29.16-.12.05-.23.1-.36.14-.07.02-.12.06-.19.08-1.14.32-2.2.85-3.16,1.56-2.08,1.55-3.43,3.81-3.81,6.38-.37,2.56.27,5.12,1.82,7.2,1.55,2.08,3.81,3.43,6.38,3.8,2.56.38,5.12-.27,7.2-1.82,1.59-1.18,3.82-.85,5,.73,1.18,1.58.85,3.82-.73,5-2.94,2.19-6.43,3.35-10.04,3.35-.82,0-1.64-.06-2.47-.18-4.45-.65-8.39-3-11.08-6.61-2.69-3.61-3.81-8.05-3.16-12.51ZM124.03,114.32c-1.11,1.79-2.52,3.32-4.16,4.55h0s-1.57,1-.76,3.48c0,0,0,0,0,0,1.49,3.58,1.7,7.53.57,11.3-1.29,4.31-4.19,7.86-8.15,9.99-2.49,1.34-5.22,2.02-7.97,2.02-.89,0-1.78-.09-2.67-.23v.02c-3.27-.85-3.84,1.9-3.84,1.9h-.02c-1.65,5.61-6.16,10.23-12.26,11.67-.28.06-.55.1-.83.1-1.62,0-3.09-1.11-3.48-2.76-.45-1.92.74-3.85,2.66-4.3,5.21-1.23,8.44-6.46,7.21-11.67-.59-2.52-2.14-4.66-4.34-6.02-2.21-1.37-4.81-1.79-7.33-1.19-1.16.27-2.25.75-3.22,1.41-1.64,1.11-3.86.69-4.97-.95-1.11-1.63-.69-3.86.95-4.97,1.7-1.16,3.59-1.99,5.61-2.46,4.38-1.03,8.9-.3,12.73,2.07,2.18,1.35,3.96,3.14,5.31,5.23,1.23,2.22,3.24,3.85,5.68,4.59,2.48.74,5.1.48,7.39-.75,2.28-1.23,3.95-3.27,4.69-5.75.74-2.48.48-5.1-.75-7.39-.57-1.05-1.31-1.98-2.2-2.75-1.5-1.29-1.66-3.55-.37-5.04.25-.29.55-.52.87-.71.43-.38.94-.67,1.54-.81,5.21-1.22,8.45-6.46,7.22-11.66-.59-2.52-2.13-4.66-4.34-6.03-2.2-1.37-4.81-1.79-7.33-1.2-1.17.27-2.25.75-3.23,1.41-1.64,1.11-3.86.69-4.97-.95-1.11-1.64-.69-3.86.95-4.97,1.7-1.16,3.59-1.98,5.61-2.46,4.38-1.03,8.9-.29,12.73,2.08,3.83,2.37,6.5,6.09,7.53,10.47,1.03,4.38.29,8.9-2.08,12.73Z"/>
    <path class="cls-8" d="M172.31,58.8c.15.81.36,1.6.63,2.36l-3.27,1.89c.35.88.77,1.75,1.26,2.6.49.85,1.03,1.64,1.63,2.39l3.27-1.89c.53.62,1.11,1.19,1.72,1.72l-1.89,3.27c.74.59,1.54,1.13,2.39,1.62.15.09.3.17.45.25.7.38,1.42.72,2.15,1l1.89-3.27c.76.27,1.55.48,2.36.63v3.78c.94.14,1.9.21,2.88.21s1.94-.07,2.88-.21v-3.78c.81-.15,1.6-.36,2.36-.63l1.89,3.27c.73-.29,1.45-.62,2.15-1,.15-.08.3-.17.45-.25.85-.49,1.64-1.03,2.39-1.62l-1.89-3.27c.62-.53,1.2-1.11,1.72-1.72l3.27,1.89c.59-.75,1.14-1.54,1.62-2.39.49-.85.91-1.72,1.26-2.6l-3.27-1.89c.27-.76.48-1.55.63-2.36h3.78c.14-.94.21-1.9.21-2.88s-.07-1.94-.21-2.88h-3.78c-.15-.81-.36-1.6-.63-2.36l3.27-1.89c-.35-.88-.77-1.75-1.26-2.6-.49-.85-1.03-1.64-1.62-2.39l-3.27,1.89c-.53-.62-1.11-1.19-1.72-1.72l1.89-3.27c-.75-.59-1.54-1.13-2.39-1.62-.15-.09-.3-.17-.45-.25-.71-.38-1.42-.72-2.15-1l-1.89,3.27c-.76-.27-1.55-.48-2.36-.63v-3.78c-.94-.14-1.9-.21-2.88-.21s-1.94.07-2.88.21v3.78c-.81.15-1.6.36-2.36.63l-1.89-3.27c-.73.29-1.45.62-2.15,1-.15.08-.3.17-.45.25-.85.49-1.64,1.03-2.39,1.62l1.89,3.27c-.62.53-1.2,1.11-1.73,1.72l-3.27-1.89c-.59.74-1.13,1.54-1.63,2.39-.49.85-.91,1.72-1.26,2.6l3.27,1.89c-.27.76-.48,1.55-.63,2.36h-3.78c-.14.94-.21,1.9-.21,2.88s.07,1.94.21,2.88h3.78ZM197.05,52.05h0c2.14,0,3.87,1.74,3.87,3.88s-1.73,3.88-3.87,3.88h0c-2.14,0-3.88-1.73-3.88-3.88s1.74-3.88,3.88-3.88ZM187.78,42.77c2.14,0,3.88,1.74,3.88,3.88s-1.74,3.88-3.88,3.88-3.88-1.73-3.88-3.88,1.74-3.88,3.88-3.88ZM190.37,55.92c0,1.43-1.16,2.59-2.59,2.59s-2.59-1.16-2.59-2.59,1.16-2.59,2.59-2.59,2.59,1.16,2.59,2.59ZM187.78,61.32c2.14,0,3.88,1.73,3.88,3.87s-1.73,3.88-3.88,3.88-3.88-1.74-3.88-3.88,1.74-3.87,3.88-3.87ZM178.5,52.05c2.14,0,3.88,1.74,3.88,3.88s-1.74,3.88-3.88,3.88-3.88-1.73-3.88-3.88,1.74-3.88,3.88-3.88Z"/>
    <path class="cls-10" d="M203.5,89.91c-.59-1.02-1.28-1.96-2.04-2.8l-3.34,1.93c-.18-.17-.36-.34-.55-.5-.35-.3-.72-.59-1.1-.85-.97-.66-2.03-1.2-3.17-1.58-.18-.06-.35-.11-.53-.16v-3.85c-1.11-.24-2.26-.36-3.44-.36s-2.33.13-3.44.36v3.85c-.18.05-.36.1-.53.16-1.14.38-2.2.91-3.17,1.58-.38.26-.75.55-1.1.85-.19.16-.37.33-.55.5l-3.34-1.93c-.76.84-1.45,1.78-2.04,2.8-.59,1.02-1.06,2.08-1.41,3.16l3.34,1.93c-.25.99-.38,2.03-.38,3.09s.13,2.1.38,3.09l-3.34,1.93c.35,1.08.82,2.14,1.41,3.16.59,1.02,1.28,1.96,2.04,2.8l3.34-1.93c.18.17.36.34.55.5.35.3.72.59,1.1.85.97.66,2.03,1.2,3.17,1.58.18.06.35.11.53.16v3.85c1.11.24,2.26.36,3.44.36s2.33-.13,3.44-.36v-3.85c.18-.05.36-.11.53-.16,1.14-.38,2.2-.91,3.17-1.58.38-.27.75-.55,1.1-.85.19-.16.37-.33.55-.5l3.34,1.93c.76-.84,1.45-1.78,2.04-2.8.59-1.02,1.06-2.08,1.41-3.16l-3.34-1.93c.25-.99.38-2.03.38-3.09s-.13-2.1-.38-3.09l3.34-1.93c-.35-1.08-.82-2.14-1.41-3.16ZM195.92,93c.18-.1.37-.15.56-.15.38,0,.76.2.96.56.07.13.12.27.14.41.01.1.01.2,0,.3-.04.33-.24.64-.55.82-.18.1-.37.15-.56.15-.38,0-.76-.2-.96-.56-.31-.53-.12-1.21.41-1.52ZM189.33,88.73c.61,0,1.11.5,1.11,1.11s-.5,1.11-1.11,1.11-1.11-.5-1.11-1.11.5-1.11,1.11-1.11ZM185.03,90.27c.1-.06.22-.08.33-.08.24,0,.47.13.59.35.18.33.06.74-.27.92-.1.06-.22.08-.33.08-.24,0-.47-.13-.59-.35-.18-.33-.06-.74.27-.92ZM180.49,98.24c-.18-.33-.06-.74.27-.92.1-.06.22-.08.33-.08.24,0,.47.13.59.35.18.33.06.74-.27.92-.1.06-.21.08-.32.08-.24,0-.47-.13-.59-.35ZM182.75,103.17c-.18.1-.37.15-.56.15-.38,0-.76-.2-.96-.56-.07-.13-.12-.27-.14-.41-.01-.1-.01-.2,0-.3.04-.33.24-.64.55-.82.18-.1.37-.15.56-.15.38,0,.76.2.96.56.31.53.13,1.21-.41,1.52ZM183.15,94.52c-.21.36-.58.56-.96.56-.19,0-.38-.05-.56-.15-.31-.18-.5-.49-.55-.82-.01-.1-.01-.2,0-.3.02-.14.06-.28.14-.41.21-.36.58-.56.96-.56.19,0,.38.05.56.15.53.31.71.99.41,1.52ZM185.39,105.74h-.03c-.32.17-.71.05-.89-.27-.18-.33-.06-.74.27-.92.2-.11.43-.11.62-.02.12.06.23.16.3.28.18.33.06.74-.27.92ZM189.33,107.45c-.62,0-1.11-.5-1.11-1.11s.5-1.11,1.11-1.11,1.11.5,1.11,1.11-.5,1.11-1.11,1.11ZM189.33,101.89c-2.1,0-3.8-1.7-3.8-3.8s1.7-3.8,3.8-3.8,3.8,1.7,3.8,3.8-1.7,3.8-3.8,3.8ZM193.63,105.91c-.1.06-.22.08-.33.08-.24,0-.47-.13-.59-.35-.18-.33-.06-.74.27-.92.1-.06.22-.08.33-.08.24,0,.47.13.59.35.18.33.06.74-.27.92ZM193.93,91.62c-.2.11-.43.11-.62.02-.12-.06-.23-.16-.3-.28-.18-.33-.06-.74.27-.92h.03c.32-.17.71-.05.89.27.18.33.06.74-.27.92ZM197.58,102.36c-.02.14-.07.28-.14.41-.21.36-.58.56-.96.56-.19,0-.38-.05-.56-.15-.53-.31-.71-.99-.41-1.52.21-.36.58-.56.96-.56.19,0,.38.05.56.15.31.18.5.49.55.82.01.1.01.2,0,.3ZM197.91,98.85c-.1.06-.22.08-.33.08-.24,0-.47-.13-.59-.35-.18-.33-.06-.74.27-.92.1-.06.22-.08.33-.08.24,0,.47.13.59.35.18.33.06.74-.27.92Z"/>
    <path class="cls-10" d="M197.08,144.48l2.67-.8c-.1-.69-.25-1.39-.46-2.08-.21-.69-.46-1.36-.76-1.99l-2.67.8c-.28-.54-.59-1.05-.94-1.53l1.91-2.02c-.43-.55-.91-1.08-1.44-1.57-.52-.5-1.08-.94-1.65-1.35l-1.65,1.74-.27.28c-.51-.33-1.03-.61-1.58-.85l.65-2.71c-.65-.26-1.33-.48-2.03-.64-.7-.17-1.41-.28-2.1-.34l-.64,2.71c-.19-.01-.38-.01-.57-.01-.41,0-.81.02-1.23.07l-.8-2.67c-.69.1-1.39.25-2.08.46-.69.21-1.36.46-1.99.76l.8,2.67c-.44.22-.86.47-1.26.75-.09.06-.18.13-.27.19l-2.02-1.91c-.55.43-1.08.91-1.57,1.44-.5.52-.94,1.08-1.35,1.65l2.03,1.91c-.32.51-.61,1.03-.85,1.58l-2.71-.65c-.26.65-.48,1.33-.64,2.03-.17.7-.28,1.4-.34,2.1l2.71.65c-.03.59-.01,1.19.05,1.8l-2.67.8c.1.69.25,1.39.46,2.08.21.69.46,1.36.76,1.99l2.67-.8c.28.54.59,1.05.94,1.53l-1.91,2.02c.43.55.91,1.08,1.44,1.57.52.5,1.08.94,1.65,1.35l1.65-1.74.27-.28c.5.33,1.03.61,1.58.85l-.65,2.71c.65.26,1.33.48,2.03.64.7.17,1.4.28,2.1.34l.64-2.71c.19,0,.38.01.57.01.41,0,.82-.02,1.23-.07l.8,2.67c.69-.1,1.39-.25,2.08-.46.69-.21,1.36-.46,1.99-.76l-.8-2.67c.44-.22.86-.47,1.26-.75.09-.06.18-.13.27-.19l2.02,1.91c.55-.43,1.08-.91,1.57-1.44.49-.53.94-1.08,1.35-1.65l-2.02-1.91c.32-.5.61-1.03.85-1.58l2.71.64c.26-.65.48-1.33.64-2.03.17-.7.28-1.4.34-2.1l-2.71-.64c.03-.59.01-1.2-.05-1.8ZM179.81,150.4c-.27.08-.55.12-.82.12-1.23,0-2.37-.8-2.74-2.04-.45-1.51.41-3.1,1.92-3.56.27-.08.55-.12.82-.12,1.23,0,2.37.8,2.74,2.04.45,1.51-.41,3.1-1.92,3.56ZM180.86,139.97c-.45-1.51.41-3.1,1.92-3.56,1.01-.3,2.06-.02,2.77.65.36.33.63.76.78,1.27.32,1.07-.02,2.18-.78,2.9-.31.29-.7.52-1.14.65-1.51.45-3.11-.41-3.56-1.92ZM183.72,146.25c-.3-1.01.27-2.08,1.28-2.38.18-.05.37-.08.55-.08.82,0,1.58.53,1.83,1.36.3,1.01-.27,2.08-1.28,2.38-.18.06-.37.08-.55.08-.82,0-1.58-.53-1.83-1.36ZM188.32,155c-1.01.3-2.05.02-2.77-.65-.36-.33-.63-.77-.78-1.27-.32-1.07.02-2.18.78-2.9.31-.29.7-.52,1.14-.66,1.51-.45,3.1.41,3.56,1.92.45,1.51-.41,3.1-1.92,3.55ZM192.92,146.49c-.27.08-.55.12-.82.12-1.23,0-2.37-.8-2.74-2.04-.45-1.51.41-3.1,1.92-3.56.27-.08.55-.12.82-.12,1.23,0,2.37.8,2.74,2.04.45,1.51-.41,3.1-1.92,3.55Z"/>
    <path class="cls-10" d="M144.73,37c-.23.78-.36,1.56-.42,2.33l2.54.73c0,.7.08,1.41.25,2.12.18.71.43,1.38.76,1.99l-1.9,1.83c.41.66.89,1.29,1.45,1.87.56.58,1.17,1.09,1.81,1.53l.85-.81,1.06-1.02c.1.06.19.11.29.16.84.45,1.76.77,2.72.92.35.06.7.09,1.05.1l.3,1.21.33,1.35c.34-.01.68-.04,1.02-.08.44-.05.89-.14,1.33-.24.48-.12.95-.27,1.4-.44.29-.11.56-.23.84-.37l-.63-2.56c.41-.23.79-.49,1.15-.78.76-.61,1.4-1.34,1.91-2.15l2.54.74c.37-.69.67-1.42.9-2.2.22-.78.36-1.56.42-2.34l-2.54-.73c0-.7-.08-1.41-.25-2.12-.17-.71-.43-1.38-.76-1.99l1.9-1.83c-.41-.66-.89-1.29-1.45-1.87-.56-.58-1.17-1.09-1.81-1.53l-.84.81-1.06,1.02c-.1-.06-.19-.11-.29-.16-.84-.45-1.76-.76-2.72-.92-.35-.06-.7-.09-1.05-.1l-.3-1.21-.33-1.35c-.34.01-.68.04-1.02.08-.44.05-.89.14-1.33.24-.48.12-.94.27-1.39.44-.29.11-.56.23-.84.37l.63,2.56c-.41.23-.79.49-1.15.78-.76.61-1.4,1.34-1.91,2.15l-2.54-.74c-.37.69-.67,1.42-.89,2.2ZM159.64,44.61s-.04.04-.07.05c-.19.12-.43.09-.59-.08-.17-.19-.16-.48.03-.66.16-.15.39-.16.56-.05.03.02.07.05.09.08.17.19.16.48-.03.65ZM160.7,38.54c.07-.06.14-.1.23-.11.15-.03.31.02.43.14.17.19.16.48-.03.65-.11.1-.26.14-.4.12-.09-.02-.18-.07-.25-.14-.17-.19-.16-.48.03-.66ZM160.92,40.93c.07,0,.14,0,.21.03.4.12.64.54.52.94-.1.33-.4.55-.73.55-.07,0-.14-.01-.21-.03-.4-.12-.64-.54-.52-.94.1-.33.4-.55.73-.55ZM159.04,35.65c.15-.14.34-.21.53-.21.2,0,.4.08.55.23.29.3.28.79-.02,1.08-.15.14-.34.21-.53.21-.2,0-.4-.08-.55-.23-.29-.3-.28-.79.02-1.08ZM154.15,45.83l-.02.02c-.19.17-.48.16-.66-.03-.17-.19-.16-.48.03-.66.19-.17.47-.16.65.02h0c.17.19.16.47,0,.64ZM157.03,46.34c-.06.01-.12.02-.18.02-.34,0-.65-.23-.74-.58-.1-.41.15-.82.56-.92.06-.01.12-.02.18-.02.34,0,.65.23.74.58.1.41-.15.82-.56.92ZM156.85,34.4l.02-.02c.19-.17.48-.16.65.03.17.19.16.48-.03.66-.18.17-.47.16-.65-.02h0c-.17-.19-.16-.47,0-.65ZM153.96,33.89c.06-.02.12-.02.18-.02.34,0,.65.23.74.58.1.41-.15.82-.56.92-.06.01-.12.02-.18.02-.34,0-.65-.23-.74-.58-.1-.41.15-.82.56-.92ZM154.15,37.89c.22-.13.46-.24.73-.3.21-.05.42-.08.62-.08.48,0,.95.14,1.35.38.57.34,1.01.91,1.18,1.6.28,1.13-.23,2.28-1.18,2.85-.22.13-.46.24-.73.3-.21.05-.42.08-.62.08-.48,0-.95-.14-1.35-.38-.57-.34-1.01-.91-1.18-1.6-.28-1.14.23-2.28,1.18-2.85ZM150.3,41.7c-.07.06-.14.1-.23.11-.15.03-.31-.02-.43-.14-.17-.19-.16-.48.03-.66.11-.1.26-.14.4-.12.1.02.18.07.25.14.17.19.16.48-.03.65ZM151.35,35.62s.04-.04.07-.05c.19-.12.43-.09.59.08.17.19.16.48-.03.66-.16.14-.39.16-.56.05-.03-.02-.07-.05-.09-.08-.17-.19-.16-.48.03-.65ZM151.42,43.27c.2,0,.4.08.55.23.29.3.28.79-.02,1.08-.15.14-.34.21-.53.21-.2,0-.4-.08-.55-.23-.29-.3-.28-.79.02-1.08.15-.14.34-.21.53-.21ZM149.34,38.33c.1-.33.4-.55.73-.55.07,0,.14,0,.21.03.4.12.64.54.52.95-.1.33-.4.55-.73.55-.07,0-.14-.01-.21-.03-.4-.12-.64-.54-.52-.94Z"/>
    <path class="cls-4" d="M208.25,73.32l-1.57-1.87c-.26.17-.51.36-.76.56-.25.21-.47.42-.69.65l1.57,1.87c-.17.18-.33.37-.48.57l-2.12-1.22c-.19.25-.36.51-.52.79-.16.28-.3.56-.42.85l2.11,1.22c-.1.23-.18.46-.25.7l-2.4-.42c-.09.3-.17.6-.22.92-.06.32-.09.63-.11.94l2.4.42c0,.12,0,.25,0,.37s0,.25,0,.37l-2.4.42c.02.31.05.62.11.94.06.31.13.62.22.92l2.4-.42c.07.24.16.47.25.7l-2.11,1.22c.12.29.26.57.42.85.16.28.34.54.52.79l2.12-1.22c.15.2.31.39.48.57l-1.57,1.87c.21.23.44.45.69.65.25.2.5.39.76.56l1.57-1.87c.21.13.42.26.65.37l-.84,2.29c.28.14.57.27.87.38.3.11.6.2.91.27l.83-2.29c.24.05.49.1.73.13v2.44c.31.04.62.06.94.06s.63-.02.94-.06v-2.44c.25-.03.49-.07.73-.13l.84,2.29c.3-.07.61-.16.91-.27.3-.11.59-.24.87-.38l-.84-2.29c.22-.11.44-.24.65-.37l1.57,1.87c.26-.17.52-.36.76-.56.25-.21.47-.42.69-.65l-1.57-1.87c.17-.18.33-.37.48-.57l2.12,1.22c.19-.25.36-.51.52-.79.16-.28.3-.56.42-.85l-2.11-1.22c.1-.23.18-.46.25-.7l2.4.42c.09-.3.17-.6.22-.92.06-.31.09-.63.11-.94l-2.4-.42c0-.12,0-.25,0-.37s0-.25,0-.37l2.4-.42c-.02-.31-.05-.62-.11-.94-.06-.31-.13-.62-.22-.92l-2.4.42c-.07-.24-.16-.47-.25-.7l2.11-1.22c-.12-.29-.26-.57-.42-.85-.16-.28-.34-.54-.52-.79l-2.12,1.22c-.15-.2-.31-.39-.48-.57l1.57-1.87c-.21-.23-.44-.45-.69-.65-.24-.2-.5-.39-.76-.56l-1.57,1.87c-.21-.14-.42-.26-.65-.37l.84-2.29c-.28-.14-.57-.27-.87-.38-.3-.11-.6-.2-.91-.27l-.84,2.29c-.24-.05-.49-.1-.73-.13v-2.44c-.31-.04-.62-.06-.94-.06s-.64.02-.94.06v2.44c-.25.03-.49.07-.73.13l-.83-2.29c-.3.07-.61.16-.91.27-.3.11-.59.24-.87.38l.84,2.29c-.22.11-.44.24-.65.37ZM212.35,75.11c2.52,0,4.57,2.05,4.57,4.57s-2.04,4.57-4.57,4.57-4.57-2.04-4.57-4.57,2.04-4.57,4.57-4.57Z"/>
    <path class="cls-9" d="M175.93,122.45l-1.2.21c-.09-.29-.19-.58-.31-.85l1.05-.61c-.31-.71-.7-1.38-1.15-1.99l-1.05.61c-.18-.24-.38-.47-.58-.7l.78-.93c-.53-.56-1.12-1.05-1.76-1.48l-.52.62-.26.31c-.25-.16-.52-.32-.79-.45l.42-1.14c-.52-.26-1.06-.47-1.62-.64-.18-.05-.36-.1-.55-.15l-.39,1.09-.02.06c-.29-.07-.59-.12-.89-.16v-1.21c-.38-.04-.76-.06-1.15-.06s-.77.02-1.15.06v1.21c-.3.04-.6.09-.89.16l-.02-.05-.4-1.09c-.19.05-.37.1-.55.15-.56.17-1.1.38-1.62.64l.41,1.14c-.27.14-.53.29-.79.45l-.26-.31-.52-.62c-.64.43-1.23.92-1.76,1.48l.78.93c-.2.22-.4.45-.58.7l-1.05-.61c-.45.62-.84,1.28-1.15,1.99l1.05.61c-.12.28-.22.56-.31.85l-1.19-.21c-.21.73-.35,1.49-.4,2.27l1.19.21c0,.15-.01.3-.01.45s0,.3.01.45l-1.19.21c.05.78.18,1.54.4,2.27l1.19-.21c.09.29.19.58.31.85l-1.05.61c.31.71.7,1.38,1.15,1.99l1.05-.61c.18.24.38.47.58.7l-.78.93c.53.55,1.12,1.05,1.76,1.48l.52-.62.26-.31c.25.16.52.32.79.45l-.42,1.14c.52.26,1.06.47,1.62.64.18.06.36.1.55.15l.4-1.09.02-.05c.29.07.59.12.9.16v1.21c.38.04.76.06,1.15.06s.77-.02,1.15-.06v-1.21c.3-.04.6-.09.89-.16l.02.06.39,1.09c.18-.05.37-.09.55-.15.56-.17,1.1-.38,1.62-.64l-.41-1.14c.27-.14.53-.29.79-.46l.26.31.52.62c.64-.43,1.23-.92,1.76-1.48l-.78-.93c.21-.22.4-.46.58-.7l1.05.61c.45-.62.84-1.28,1.15-1.99l-1.05-.61c.12-.28.22-.56.31-.85l1.2.21c.21-.73.35-1.49.4-2.27l-1.19-.21c0-.15.01-.3.01-.45s0-.3-.01-.45l1.19-.21c-.05-.78-.18-1.54-.4-2.27ZM170.42,118.59c.26.18.52.37.76.57.59.5,1.11,1.08,1.54,1.73l-1.54.89-2.25,1.3-.94.54-.18.11c-.07-.08-.14-.15-.22-.22l.41-.7.94-1.63,1.49-2.58ZM166.42,117.25c.54.03,1.06.12,1.57.25.32.08.64.19.94.31.21.08.42.18.63.28l-.63,1.09-.94,1.63-1.27,2.19c-.1-.03-.2-.06-.3-.08v-5.67ZM162.91,117.81c.31-.12.62-.23.94-.31.51-.13,1.03-.22,1.57-.25v5.67c-.1.02-.21.05-.3.08l-1.27-2.19-.94-1.63-.63-1.09c.2-.1.41-.2.63-.28ZM160.67,119.16c.24-.2.5-.39.76-.57l1.49,2.58.94,1.63.4.7c-.08.07-.15.14-.22.22l-.18-.11-.94-.54-2.25-1.3-1.54-.89c.43-.65.95-1.23,1.54-1.73ZM158.63,121.74l2.04,1.18,2.25,1.3.63.36c-.03.1-.06.2-.08.31h-5.67c.07-1.12.36-2.19.84-3.14ZM157.79,125.88h5.67c.02.1.05.21.08.3l-.63.36-2.25,1.3-2.04,1.18c-.48-.95-.77-2.02-.84-3.14ZM161.43,132.18c-.26-.18-.52-.37-.76-.57-.59-.5-1.11-1.08-1.54-1.73l1.54-.89,2.25-1.3.94-.54.18-.1c.07.08.14.15.22.22l-.4.7-.94,1.63-1.49,2.58ZM165.43,133.52c-.54-.03-1.06-.12-1.57-.25-.32-.08-.64-.19-.94-.31-.21-.08-.42-.18-.63-.28l.63-1.09.94-1.63,1.27-2.19c.1.03.2.06.3.08v5.67ZM164.27,125.38c0-.91.74-1.66,1.66-1.66s1.66.74,1.66,1.66-.74,1.66-1.66,1.66-1.66-.74-1.66-1.66ZM168.93,132.96c-.31.12-.62.23-.94.31-.51.13-1.03.22-1.57.25v-5.67c.1-.02.21-.05.3-.08l1.27,2.19.94,1.63.63,1.09c-.2.1-.41.2-.63.28ZM171.18,131.61c-.24.21-.5.4-.76.57l-1.49-2.58-.94-1.63-.41-.7c.08-.07.15-.14.22-.22l.18.11.94.54,2.25,1.3,1.54.89c-.43.65-.95,1.23-1.54,1.73ZM173.22,129.02l-2.04-1.18-2.25-1.3-.63-.36c.03-.1.06-.2.08-.3h5.67c-.07,1.12-.36,2.19-.84,3.14ZM171.18,124.89h-2.79c-.02-.1-.05-.21-.08-.31l.63-.36,2.25-1.3,2.03-1.17c.48.96.77,2.02.84,3.14h-2.88Z"/>
    <path class="cls-3" d="M213.92,121.89c-.1-.52-.23-1.02-.4-1.51l2.09-1.21c-.22-.57-.49-1.12-.8-1.66-.31-.54-.66-1.05-1.04-1.53l-2.09,1.21c-.34-.4-.71-.76-1.1-1.1l1.21-2.09c-.48-.38-.98-.73-1.53-1.04-.54-.31-1.1-.58-1.66-.8l-1.21,2.09c-.49-.17-.99-.31-1.51-.4v-2.41c-.6-.09-1.22-.14-1.84-.14s-1.24.05-1.84.14v2.41c-.52.1-1.02.23-1.51.4l-1.21-2.09c-.57.22-1.12.49-1.66.8-.54.31-1.05.66-1.53,1.04l1.21,2.09c-.4.34-.76.71-1.1,1.1l-2.09-1.21c-.38.48-.73.98-1.04,1.53-.31.54-.58,1.1-.8,1.66l2.09,1.21c-.17.49-.31.99-.4,1.51h-2.42c-.09.6-.14,1.22-.14,1.84s.05,1.24.14,1.84h2.42c.1.52.23,1.02.4,1.51l-2.09,1.21c.22.57.49,1.12.8,1.66s.66,1.05,1.04,1.53l2.09-1.21c.34.4.71.76,1.1,1.1l-1.21,2.09c.48.38.99.72,1.53,1.04.54.31,1.1.58,1.66.8l1.21-2.09c.49.17.99.31,1.51.4v2.41c.6.09,1.22.14,1.84.14s1.24-.05,1.84-.14v-2.41c.52-.1,1.02-.23,1.51-.4l1.21,2.09c.57-.22,1.12-.49,1.66-.8.54-.31,1.05-.66,1.53-1.04l-1.21-2.09c.39-.34.76-.71,1.1-1.1l2.09,1.21c.38-.48.73-.98,1.04-1.53.31-.54.58-1.1.8-1.66l-2.09-1.21c.17-.49.31-.99.4-1.51h2.41c.09-.6.14-1.22.14-1.84s-.05-1.24-.14-1.84h-2.41ZM211.15,123.67v.15s0,.03,0,.03v.03s0,.03,0,.03v.03s0,.03,0,.03v.06s0,.03,0,.03c0,.06,0,.12-.01.18v.03s0,0,0,0v.03s-.01.1-.02.14h0c-.04.39-.11.77-.21,1.13h0,0c-.16.59-.39,1.17-.71,1.72-.11.19-.23.37-.35.55l-.02.02-.02.02h0c-.47.66-1.05,1.23-1.71,1.69h0s-.09.07-.09.07l-.06.04-.02.02-.02.02c-.1.06-.2.13-.3.19-.43.25-.88.45-1.33.6h-.03s-.03.02-.03.02h-.03s-.06.03-.06.03l-.09.03h-.02s-.03.01-.03.01l-.11.03h0s-.03,0-.03,0l-.08.02h-.03s-.03.01-.03.01c-.04.01-.09.02-.13.03h-.01s-.03,0-.03,0h-.03s-.08.02-.08.02h-.03s-.08.02-.08.02h-.06s-.08.02-.12.03h-.06s-.12.03-.12.03h-.05s-.09.02-.13.02h-.03c-.05,0-.1.01-.15.02h-.01s-.01,0-.01,0c-.05,0-.1,0-.15.01h-.03c-.06,0-.11,0-.17,0h0c-.06,0-.12,0-.18,0h-.11s0,0,0,0h-.09s-.01,0-.01,0h-.04s-.03,0-.03,0h-.03s0,0,0,0h-.02s-.06,0-.06,0h-.03s0,0,0,0h-.03s-.06,0-.06,0h-.02s0,0,0,0h-.03s-.03,0-.03,0h-.03s-.03,0-.03,0h-.03s-.03,0-.03,0h-.06s-.03,0-.03,0h-.03s-.06-.01-.06-.01h-.03s0,0,0,0h-.08s-.03-.02-.03-.02h-.09s-.03-.02-.03-.02c-.23-.04-.45-.09-.67-.15h0s0,0,0,0h0c-.59-.16-1.16-.4-1.72-.71-.18-.11-.36-.22-.52-.33l-.02-.02h-.02s0-.02,0-.02l-.02-.02-.02-.02h-.01c-.62-.46-1.16-1-1.6-1.62l-.04-.06h0s-.02-.03-.02-.03l-.02-.02-.02-.02c-.1-.15-.19-.3-.28-.45-.31-.54-.55-1.11-.7-1.69v-.03s0,0,0,0v-.03s0,0,0,0v-.03s0,0,0,0v-.03s-.01-.03-.01-.03h0s0-.03,0-.03h0v-.03s-.01-.03-.01-.03v-.03s0,0,0,0v-.03s-.01-.03-.01-.03h0s0-.03,0-.03v-.03s0,0,0,0v-.03s0,0,0,0v-.03s-.01-.03-.01-.03h0s0-.03,0-.03v-.03s-.01-.03-.01-.03v-.03s0,0,0,0v-.03s0,0,0,0v-.03s-.01-.03-.01-.03v-.03s-.01-.03-.01-.03h0s0-.03,0-.03h0s0-.03,0-.03v-.03s0,0,0,0v-.03s0,0,0,0v-.03s0-.03,0-.03h0s0-.03,0-.03v-.03s0-.03,0-.03v-.03s0,0,0,0v-.03s0-.03,0-.03v-.03s0-.03,0-.03v-.03s0-.03,0-.03h0s0-.03,0-.03v-.03s0-.03,0-.03v-.03s0,0,0,0v-.03s0-.03,0-.03h0s0-.03,0-.03v-.03s0-.03,0-.03v-.03s0-.03,0-.03v-.03s0-.03,0-.03v-.03s0-.03,0-.03v-.03s0-.03,0-.03v-.06s0,0,0,0v-.03s0-.03,0-.03v-.24s0-.03,0-.03v-.06s0-.06,0-.06h0v-.03c0-.06,0-.12.01-.18h0s0-.03,0-.03h0s0-.03,0-.03h0s0-.1.01-.15c.04-.39.11-.77.21-1.13h0s0,0,0,0c.16-.59.39-1.16.71-1.72.1-.18.22-.36.33-.52l.02-.02.02-.02v-.02s.02,0,.02,0c.47-.66,1.05-1.23,1.71-1.69h0s.09-.07.09-.07l.06-.04.02-.02.03-.02c.1-.06.2-.13.3-.19.43-.25.88-.45,1.33-.6h.03s.03-.02.03-.02h.03s.06-.03.06-.03l.09-.03h.02s.03-.01.03-.01l.11-.03h0s0,0,0,0h.03s.08-.03.08-.03h.03s.03-.01.03-.01c.04-.01.09-.02.13-.03h.01s.03,0,.03,0h.03s.08-.02.08-.02h.03s.08-.02.08-.02h.06s.08-.02.12-.03h.06s.12-.03.12-.03h.05s.09-.02.13-.02h.03c.05,0,.1-.01.15-.02h.02s.01,0,.01,0c.05,0,.1,0,.15,0h.03c.05,0,.11,0,.17,0h0c.06,0,.12,0,.18,0h.09s.02,0,.02,0h.1s.01,0,.01,0h.04s.03,0,.03,0h.03s0,0,0,0h.02s.06,0,.06,0h.03s.03,0,.03,0h.06s.02,0,.02,0h0s.03,0,.03,0h.03s.03,0,.03,0h.03s.03,0,.03,0h.03s.06,0,.06,0h.03s.03,0,.03,0h.06s.03.01.03.01h.09s.03.01.03.01h.09s.03.02.03.02c.23.04.45.09.67.15.59.16,1.17.39,1.72.71.14.08.27.16.4.25l.02.02.02.02.02.02.02.02h0s.02.02.02.02l.02.02h.02s0,.02,0,.02c.64.46,1.2,1.02,1.66,1.65l.04.06h0s.02.03.02.03l.02.02.02.02c.1.15.19.3.28.45.31.54.55,1.11.71,1.69v.03s0,0,0,0v.03s.01.03.01.03v.03s.01.03.01.03v.03s0,0,0,0v.03s.01.03.01.03h0s0,.03,0,.03h0s0,.03,0,.03h0v.03s0,0,0,0v.03s.01.03.01.03v.06s.01,0,.01,0v.03s.02.06.02.06h0s0,.03,0,.03h0s0,.03,0,.03v.03s.01.03.01.03v.03s0,0,0,0v.03s0,0,0,0v.03s0,.03,0,.03v.03s.01.03.01.03v.03s0,.03,0,.03v.03s0,.03,0,.03v.03s0,0,0,0v.03h0v.03s0,.03,0,.03v.03s0,.03,0,.03v.03s0,.03,0,.03v.03s0,.03,0,.03v.03s0,.03,0,.03v.03s0,.03,0,.03v.03s0,0,0,0v.03s0,0,0,0v.03s0,0,0,0v.03s0,.03,0,.03h0s0,.03,0,.03h0s0,.03,0,.03v.03s0,.03,0,.03v.03s0,.03,0,.03v.03s0,.03,0,.03v.06s0,.03,0,.03v.03s0,0,0,0Z"/>
    <path class="cls-10" d="M222.54,101.1c0-.11,0-.22,0-.32l.85-.15c-.04-.56-.13-1.1-.28-1.62l-.85.15c-.06-.21-.14-.41-.22-.61l.75-.43c-.22-.51-.5-.98-.82-1.42l-.75.43c-.13-.17-.27-.34-.42-.5l.56-.66c-.38-.39-.8-.75-1.26-1.06l-.37.44-.19.22c-.18-.12-.37-.22-.56-.32l.3-.81c-.37-.18-.75-.34-1.15-.45-.13-.04-.26-.07-.39-.11l-.28.78v.04c-.22-.05-.44-.09-.65-.11v-.86c-.27-.03-.54-.05-.82-.05s-.55.02-.82.05v.86c-.22.03-.43.06-.64.11v-.04s-.3-.78-.3-.78c-.13.03-.26.07-.39.11-.4.12-.78.27-1.15.46l.3.81c-.19.1-.38.21-.56.32l-.19-.22-.37-.44c-.46.31-.88.66-1.26,1.06l.56.66c-.15.16-.29.32-.42.5l-.75-.43c-.32.44-.6.91-.82,1.42l.75.43c-.08.2-.16.4-.22.61l-.85-.15c-.15.52-.25,1.06-.28,1.62l.85.15c0,.11,0,.21,0,.32s0,.22,0,.32l-.85.15c.04.56.13,1.1.28,1.62l.85-.15c.06.21.14.41.22.61l-.75.43c.22.51.5.98.82,1.42l.75-.43c.13.17.27.34.42.5l-.56.66c.38.39.8.75,1.26,1.05l.37-.44.18-.22c.18.12.37.22.56.32l-.3.81c.37.18.75.33,1.15.46.13.04.26.07.39.11l.28-.78v-.04c.22.05.44.09.65.11v.87c.27.03.54.05.82.05s.55-.02.82-.05v-.87c.22-.03.43-.07.64-.11l.02.04.28.77c.13-.03.26-.07.39-.11.4-.12.78-.27,1.15-.45l-.3-.81c.19-.1.38-.21.56-.32l.19.22.37.44c.46-.3.88-.66,1.26-1.05l-.56-.66c.15-.16.29-.33.42-.5l.75.43c.32-.44.6-.91.82-1.42l-.75-.43c.08-.2.16-.4.22-.61l.85.15c.15-.52.25-1.06.28-1.62l-.85-.15c0-.11,0-.21,0-.32ZM221.76,100.74h-4.04c-.01-.07-.03-.15-.06-.22l.45-.26,1.6-.92,1.45-.84c.34.68.55,1.44.6,2.24ZM219.17,96.25c.19.13.37.26.54.41.42.36.79.77,1.1,1.23l-1.1.63-1.6.92-.67.39-.13.07c-.05-.06-.1-.11-.16-.16l.29-.5.67-1.17,1.06-1.83ZM216.32,95.3c.38.02.76.08,1.12.18.23.06.45.13.67.22.15.06.3.13.45.2l-.45.77-.67,1.17-.9,1.56c-.07-.02-.14-.04-.22-.06v-4.04ZM213.82,95.7c.22-.09.44-.16.67-.22.36-.09.73-.15,1.12-.18v4.04c-.07.01-.15.03-.22.06l-.9-1.56-.67-1.16-.45-.78c.15-.07.3-.14.45-.2ZM212.22,96.66c.17-.15.35-.28.54-.41l1.06,1.84.67,1.16.29.5c-.06.05-.11.1-.16.16l-.13-.07-.67-.39-1.6-.92-1.1-.63c.31-.46.67-.88,1.1-1.23ZM210.77,98.5l1.45.84,1.6.92.45.26c-.03.07-.04.14-.06.22h-4.04c.05-.8.26-1.56.6-2.24ZM210.17,101.45h4.04c.01.07.03.15.06.22l-.45.26-1.6.92-1.45.84c-.34-.68-.55-1.44-.6-2.24ZM212.76,105.94c-.19-.13-.37-.26-.54-.41-.42-.36-.79-.77-1.1-1.23l1.1-.63,1.6-.92.67-.39.13-.08c.05.06.1.11.16.16l-.29.5-.67,1.16-1.06,1.84ZM215.61,106.89c-.38-.02-.76-.08-1.12-.18-.23-.06-.45-.13-.67-.22-.15-.06-.3-.13-.45-.2l.45-.78.67-1.16.9-1.56c.07.02.14.04.22.06v4.04ZM214.78,101.1c0-.65.53-1.18,1.18-1.18s1.18.53,1.18,1.18-.53,1.18-1.18,1.18-1.18-.53-1.18-1.18ZM218.11,106.49c-.22.09-.44.16-.67.22-.36.09-.73.15-1.12.18v-4.04c.07-.01.15-.03.22-.06l.9,1.56.67,1.17.45.77c-.15.07-.3.14-.45.2ZM219.71,105.53c-.17.15-.35.28-.54.41l-1.06-1.84-.67-1.16-.29-.5c.05-.05.11-.1.16-.16l.13.08.67.39,1.6.92,1.1.63c-.3.46-.67.88-1.1,1.23ZM221.16,103.69l-1.45-.84-1.6-.92-.45-.26c.02-.07.04-.14.06-.22h4.04c-.05.8-.26,1.56-.6,2.24Z"/>
    <path class="cls-10" d="M169.69,30.87c.05.28.12.54.21.8l-1.11.64c.12.3.26.6.43.89.17.29.35.56.55.81l1.12-.64c.18.21.38.41.59.59l-.64,1.11c.25.2.52.39.81.55l.15.09c.24.13.48.24.73.34l.64-1.11c.26.09.53.16.8.21v1.29c.32.05.65.07.98.07s.66-.02.98-.07v-1.29c.28-.05.54-.12.8-.21l.64,1.11c.25-.1.49-.21.73-.34l.15-.09c.29-.17.56-.35.81-.55l-.64-1.11c.21-.18.41-.38.59-.59l1.11.64c.2-.25.39-.53.55-.81.17-.29.31-.59.43-.89l-1.11-.64c.09-.26.16-.53.21-.8h1.29c.05-.32.07-.65.07-.98s-.02-.66-.07-.98h-1.29c-.05-.28-.12-.54-.21-.8l1.11-.64c-.12-.3-.26-.6-.43-.89-.17-.29-.35-.56-.55-.81l-1.11.64c-.18-.21-.38-.41-.59-.59l.64-1.11c-.25-.2-.52-.39-.81-.55l-.15-.09c-.24-.13-.48-.24-.73-.34l-.64,1.11c-.26-.09-.53-.16-.8-.22v-1.29c-.32-.05-.65-.07-.98-.07s-.66.02-.98.07v1.29c-.28.05-.54.12-.8.21l-.64-1.11c-.25.1-.49.21-.73.34l-.15.09c-.29.17-.56.35-.81.55l.64,1.11c-.21.18-.41.38-.59.59l-1.12-.64c-.2.25-.38.53-.55.81-.17.29-.31.59-.43.89l1.11.64c-.09.26-.16.53-.21.8h-1.29c-.05.32-.07.65-.07.98s.03.66.07.98h1.29ZM178.12,28.57c.73,0,1.32.59,1.32,1.32s-.59,1.32-1.32,1.32-1.32-.59-1.32-1.32.59-1.32,1.32-1.32ZM174.96,25.41c.73,0,1.32.59,1.32,1.32s-.59,1.32-1.32,1.32-1.32-.59-1.32-1.32.59-1.32,1.32-1.32ZM175.84,29.89c0,.49-.4.88-.88.88s-.88-.39-.88-.88.4-.88.88-.88.88.39.88.88ZM174.96,31.73c.73,0,1.32.59,1.32,1.32s-.59,1.32-1.32,1.32-1.32-.59-1.32-1.32.59-1.32,1.32-1.32ZM171.8,28.57c.73,0,1.32.59,1.32,1.32s-.59,1.32-1.32,1.32-1.32-.59-1.32-1.32.59-1.32,1.32-1.32Z"/>
    <path class="cls-4" d="M154.68,24.18c.04.22.1.44.17.65l-.9.52c.1.24.21.48.35.72.13.23.28.45.45.66l.9-.52c.15.17.3.33.47.48l-.52.9c.21.16.43.31.66.45.23.14.47.25.72.35l.52-.9c.21.07.43.13.65.17v1.04c.26.04.52.06.79.06s.53-.02.79-.06v-1.04c.22-.04.44-.1.65-.17l.52.9c.24-.1.48-.21.72-.35.23-.13.45-.28.66-.45l-.52-.9c.17-.15.33-.3.47-.47l.9.52c.16-.21.31-.43.45-.66.13-.23.25-.47.35-.72l-.9-.52c.07-.21.13-.43.17-.65h1.04c.04-.26.06-.52.06-.79s-.02-.53-.06-.79h-1.04c-.04-.22-.1-.44-.17-.65l.9-.52c-.1-.24-.21-.48-.35-.72-.13-.23-.28-.45-.45-.66l-.9.52c-.15-.17-.3-.33-.47-.48l.52-.9c-.21-.16-.42-.31-.66-.45-.23-.14-.47-.25-.72-.35l-.52.9c-.21-.07-.43-.13-.65-.17v-1.04c-.26-.04-.53-.06-.79-.06s-.53.02-.79.06v1.04c-.22.04-.44.1-.65.17l-.52-.9c-.24.1-.48.21-.72.35-.23.13-.45.28-.66.45l.52.9c-.17.15-.33.31-.47.48l-.9-.52c-.16.21-.31.42-.45.66-.14.23-.25.47-.35.72l.9.52c-.07.21-.13.43-.17.65h-1.04c-.04.26-.06.52-.06.79s.02.53.06.79h1.04ZM155.88,23.45h0v-.03h0v-.03h0v-.03h0v-.03h0v-.03h0s0-.02,0-.02h0s0-.04,0-.04h0s0-.06,0-.09h0s0-.03,0-.03c0-.02,0-.04,0-.06.02-.17.05-.33.09-.49h0s0,0,0,0c.07-.25.17-.5.31-.74.04-.08.09-.15.14-.23h0s0-.02,0-.02h0s0-.01,0-.01c.2-.28.45-.53.74-.73h0s.04-.03.04-.03l.03-.02h.01s.01-.01.01-.01c.04-.03.09-.05.13-.08.19-.11.38-.19.57-.26h.01s.01,0,.01,0h.01s.02-.01.02-.01h.04s0-.01,0-.01h.01s.05-.02.05-.02h.01s.04-.01.04-.01h.01s.01,0,.01,0c.02,0,.04,0,.06-.01h0s.01,0,.01,0h.01s.04-.01.04-.01h.01s.03,0,.03,0h.02s.03,0,.05-.01h.03s.05-.01.05-.01h.02s.04,0,.06-.01h.01s.04,0,.07,0h.01s.04,0,.07,0h.01s.05,0,.07,0h0s.05,0,.08,0h.09s0,0,0,0h.05s.01,0,.01,0h.02s.01,0,.01,0h.01s.03,0,.03,0h0s0,0,0,0h.01s.01,0,.01,0h.03s.01,0,.01,0h.01s.03,0,.03,0h.01s.01,0,.01,0h.02s.01,0,.01,0h.04s.01,0,.01,0h.04s.01,0,.01,0c.1.02.19.04.29.06.25.07.5.17.74.31.06.03.12.07.17.11h.01s.01.01.01.01h.01s.01.01.01.01h0s0,0,0,0h.01s0,.01,0,.01h0c.27.2.52.44.71.71l.02.03h0s0,.02,0,.02h0c.04.07.08.14.12.2.13.23.24.48.3.73h0s0,.02,0,.02h0s0,.02,0,.02h0s0,.01,0,.01h0s0,.02,0,.02h0s0,.02,0,.02h0s0,.01,0,.01h0s0,.02,0,.02h0s0,.04,0,.04h0s0,.04,0,.04h0s0,.02,0,.02h0s0,.01,0,.01h0s0,.02,0,.02h0s0,.02,0,.02h0s0,.02,0,.02h0s0,.02,0,.02h0s0,.02,0,.02h0s0,.02,0,.02h0s0,.03,0,.03h0s0,.02,0,.02h0s0,.03,0,.03h0s0,.02,0,.02h0s0,.02,0,.02h0v.03h0s0,.02,0,.02h0s0,.01,0,.01h0v.02h0s0,.03,0,.03h0v.03h0v.03h0v.03h0s0,.02,0,.02h0v.03h0v.03h0v.03h0v.03h0v.03h0v.03h0s0,.04,0,.04h0s0,.06,0,.09h0s0,.02,0,.02c0,.02,0,.04,0,.06-.02.17-.05.33-.09.49-.07.25-.17.5-.31.74-.05.08-.1.16-.15.24h0s0,.02,0,.02h0c-.2.28-.45.53-.74.73h0s-.04.03-.04.03l-.03.02h-.01s-.01.01-.01.01c-.04.03-.09.06-.13.08-.19.11-.38.19-.57.26h-.01s-.01,0-.01,0h-.01s-.02.01-.02.01h-.04s-.01.01-.01.01h-.01s-.04.02-.04.02h0s-.01,0-.01,0h-.04s-.01.01-.01.01h-.01s-.04.01-.05.02h0s-.01,0-.01,0h-.01s-.04,0-.04,0h-.01s-.03,0-.03,0h-.02s-.03.01-.05.01h-.03s-.05.01-.05.01h-.02s-.04,0-.06.01h-.01s-.04,0-.07,0h-.01s-.04,0-.07,0h-.01s-.05,0-.07,0h0s-.05,0-.08,0h-.04s-.01,0-.01,0h-.04s0,0,0,0h-.03s-.01,0-.01,0h-.01s-.02,0-.02,0h-.03s-.03,0-.03,0h-.02s-.01,0-.01,0h-.01s-.01,0-.01,0h-.01s-.01,0-.01,0h-.02s-.01,0-.01,0h-.01s-.03,0-.03,0h-.01s-.04,0-.04,0h-.01s-.04,0-.04,0h-.01c-.1-.02-.2-.04-.29-.06h0c-.25-.07-.5-.17-.74-.31-.08-.04-.15-.09-.23-.14h-.01s0-.01,0-.01h-.01s-.01-.01-.01-.01h0c-.26-.2-.5-.43-.69-.7l-.02-.03h0s0-.01,0-.01h0s0-.02,0-.02c-.04-.06-.08-.13-.12-.19-.13-.23-.24-.48-.3-.73h0s0-.01,0-.01h0s0-.02,0-.02h0s0-.01,0-.01h0s0-.02,0-.02h0s0-.02,0-.02h0s0-.02,0-.02h0s0-.02,0-.02h0s0-.01,0-.01h0s0-.02,0-.02h0s0-.02,0-.02h0s0-.01,0-.01h0s0-.01,0-.01h0s0-.02,0-.02h0s0-.02,0-.02h0s0-.01,0-.01h0s0-.01,0-.01h0s0-.02,0-.02h0s0-.01,0-.01h0s0-.02,0-.02h0s0-.01,0-.01h0s0-.02,0-.02h0s0-.03,0-.03h0s0-.02,0-.02h0s0-.02,0-.02h0s0-.02,0-.02h0s0-.03,0-.03h0s0-.02,0-.02h0s0-.03,0-.03h0s0-.02,0-.02h0s0-.01,0-.01h0s0-.03,0-.03h0s0-.02,0-.02h0s0-.03,0-.03h0v-.03h0v-.03Z"/>
    <path class="cls-10" d="M189.63,120.62c-.03-.19-.08-.38-.13-.56l-1.46.26c-.04-.14-.1-.29-.15-.42l1.28-.74c-.07-.17-.16-.34-.26-.51-.1-.17-.2-.33-.32-.48l-1.28.74c-.09-.12-.19-.24-.29-.35l.95-1.14c-.13-.14-.27-.27-.42-.39-.15-.13-.3-.24-.46-.34l-.95,1.13c-.13-.08-.26-.16-.39-.23l.51-1.39c-.17-.09-.34-.16-.53-.23-.18-.07-.37-.12-.55-.16l-.51,1.39c-.15-.03-.29-.06-.45-.08v-1.48c-.19-.02-.38-.04-.57-.04s-.38.01-.57.04v1.48c-.15.02-.3.04-.45.08l-.51-1.39c-.18.04-.37.1-.55.16-.18.07-.36.14-.53.23l.51,1.39c-.14.07-.27.14-.39.23l-.95-1.14c-.16.1-.31.22-.46.34-.15.13-.29.26-.42.39l.95,1.14c-.1.11-.2.23-.29.35l-1.28-.74c-.11.15-.22.31-.32.48-.1.17-.18.34-.26.51l1.28.74c-.06.14-.11.28-.15.42l-1.46-.26c-.06.18-.1.37-.13.56-.03.19-.05.38-.06.57l1.46.26c0,.07,0,.15,0,.23s0,.15,0,.23l-1.46.26c0,.19.03.38.06.57.03.19.08.38.13.56l1.46-.26c.04.14.1.29.15.43l-1.28.74c.07.17.16.35.26.51.1.17.2.33.32.48l1.28-.74c.09.12.19.24.29.35l-.95,1.13c.13.14.27.27.42.39.15.13.3.24.46.34l.95-1.13c.13.08.26.16.39.23l-.51,1.39c.17.09.34.16.53.23.18.07.37.12.55.16l.51-1.39c.15.03.29.06.45.08v1.48c.19.02.38.04.57.04s.39-.01.57-.04v-1.48c.15-.02.3-.05.45-.08l.51,1.39c.18-.04.37-.1.55-.16.18-.07.36-.14.53-.23l-.51-1.39c.13-.07.26-.14.39-.23l.95,1.13c.16-.1.31-.22.46-.34.15-.12.29-.26.42-.39l-.95-1.13c.1-.11.2-.23.29-.35l1.28.74c.11-.15.22-.31.32-.48.1-.17.18-.34.26-.51l-1.28-.74c.06-.14.11-.28.15-.43l1.46.26c.06-.18.1-.37.13-.56.03-.19.05-.38.06-.57l-1.46-.26c0-.07,0-.15,0-.23s0-.15,0-.23l1.46-.26c0-.19-.03-.38-.06-.57ZM183.65,124.44c-1.53,0-2.77-1.24-2.77-2.77s1.24-2.77,2.77-2.77,2.77,1.24,2.77,2.77-1.24,2.77-2.77,2.77Z"/>
    <path class="cls-10" d="M135.67,45.95c.24.05.48.1.72.12l.25-1.05c.07,0,.15,0,.22,0,.16,0,.32,0,.48-.03l.31,1.04c.27-.04.54-.1.81-.18.27-.08.53-.18.77-.29l-.31-1.04c.17-.09.33-.19.49-.29l.11-.07.79.74c.21-.17.42-.35.61-.56.19-.2.37-.42.52-.64l-.79-.74c.13-.2.24-.4.33-.62l1.05.25c.1-.25.19-.52.25-.79.06-.27.11-.55.13-.82l-1.05-.25c.01-.23,0-.46-.02-.7l1.04-.31c-.04-.27-.1-.54-.18-.81-.08-.27-.18-.53-.29-.78l-1.04.31c-.11-.21-.23-.41-.37-.6l.74-.79c-.17-.21-.35-.42-.56-.61-.2-.19-.42-.37-.64-.52l-.64.68-.1.11c-.2-.13-.4-.24-.62-.33l.25-1.05c-.25-.1-.52-.19-.79-.25s-.55-.11-.82-.13l-.25,1.05c-.07,0-.15,0-.22,0-.16,0-.32,0-.48.03l-.31-1.04c-.13.02-.27.06-.4.09h0s-.27.06-.27.39v1.11c0,.56.3.34.3.34v.03s.06-.03.09-.04c.39-.12.8,0,1.08.26.14.13.25.3.3.49.13.42,0,.85-.3,1.13-.12.11-.27.2-.44.25-.22.07-.44.04-.64-.03-.01,0-.02.01-.03,0-.35-.07-.35.33-.35.33v1.88c0,.08.01.16,0,.23v3.9c0,.45.23.58.27.61ZM139.1,38.69c.11-.03.21-.05.32-.05.48,0,.92.31,1.07.79.18.59-.16,1.21-.75,1.38-.11.03-.21.05-.32.05-.48,0-.92-.31-1.06-.79-.18-.59.16-1.21.75-1.38ZM138.69,42.74c.17.59-.16,1.21-.75,1.38-.39.12-.8,0-1.08-.25-.14-.13-.25-.3-.3-.49-.13-.42,0-.85.3-1.13.12-.11.27-.2.44-.26.59-.17,1.21.16,1.38.75ZM136.65,39.8c.07-.02.14-.03.21-.03.32,0,.62.21.71.53.12.39-.11.81-.5.92-.07.02-.14.03-.21.03-.32,0-.61-.21-.71-.53-.12-.39.11-.81.5-.92Z"/>
    <path class="cls-10" d="M135.66,31.02l1.03-1.23c.15.1.3.19.46.27l-.6,1.64c.2.1.41.19.62.27.21.08.43.14.65.19l.6-1.64c.17.04.35.07.52.09v1.75c.22.03.45.04.68.04s.45-.01.67-.04v-1.75c.18-.02.35-.05.52-.09l.6,1.64c.22-.05.43-.11.65-.19.21-.08.42-.17.62-.27l-.6-1.64c.16-.08.31-.17.46-.27l1.12,1.34c.19-.12.37-.26.54-.4.18-.15.34-.3.49-.46l-1.12-1.34c.12-.13.24-.27.34-.41l1.51.87c.13-.18.26-.37.37-.56.11-.2.21-.4.3-.61l-1.51-.87c.07-.16.13-.33.18-.5l1.72.3c.06-.21.12-.43.16-.66.04-.23.07-.45.08-.67l-1.72-.3c0-.09,0-.18,0-.27s0-.18,0-.27l1.72-.3c-.01-.22-.04-.45-.08-.67-.04-.22-.09-.45-.16-.66l-1.72.3c-.05-.17-.11-.34-.18-.5l1.51-.87c-.09-.2-.19-.41-.3-.61-.11-.2-.24-.38-.37-.56l-1.51.87c-.11-.14-.22-.28-.34-.41l1.12-1.34c-.15-.16-.32-.32-.49-.47-.17-.15-.36-.28-.54-.4l-1.12,1.34c-.15-.1-.3-.19-.46-.27l.6-1.64c-.2-.1-.4-.19-.62-.27-.21-.08-.43-.14-.65-.19l-.6,1.64c-.17-.04-.35-.07-.52-.09v-1.75c-.22-.03-.45-.04-.67-.04s-.45.01-.68.04v1.75c-.18.02-.35.05-.52.09l-.6-1.64c-.22.05-.43.11-.65.19-.21.08-.42.17-.62.27l.6,1.64c-.16.08-.31.17-.46.27l-1.12-1.34s-.06.05-.09.07c0,0-.07.05-.07.25v1.33c0,.22.08.35.1.35h-.02l.17.2c-.06.06-.11.13-.17.2-.08.1-.09.27-.09.27v6.32c0,.24.08.35.09.36.05.07.11.13.16.19l-.15.18s-.1.12-.1.33v1.31c0,.37.26.27.26.27ZM139.62,21.99c1.8,0,3.27,1.46,3.27,3.26s-1.46,3.27-3.27,3.27-3.27-1.46-3.27-3.27,1.46-3.26,3.27-3.26Z"/>
    <path class="cls-3" d="M136.09,123.32c.57-.03,1.14-.07,1.7-.13v-4.36c1.09-.14,2.16-.33,3.22-.56l.07.2,1.42,3.9c.66-.16,1.32-.34,1.96-.53,2.01-.6,3.95-1.38,5.8-2.29l-1.49-4.1c.97-.5,1.91-1.05,2.82-1.63l.93,1.11,1.87,2.23c2.3-1.54,4.42-3.32,6.33-5.31l-2.8-3.34c.74-.8,1.44-1.63,2.1-2.5l3.77,2.18c1.63-2.21,3.02-4.61,4.14-7.15l-3.77-2.18c.42-1,.79-2.02,1.12-3.07l4.29.76c.76-2.61,1.25-5.33,1.43-8.14l-4.29-.76c.03-.54.04-1.08.04-1.63s-.01-1.09-.04-1.63l4.29-.76c-.18-2.81-.66-5.53-1.43-8.14l-4.29.76c-.32-1.05-.7-2.07-1.12-3.07l3.77-2.18c-1.12-2.55-2.51-4.94-4.14-7.15l-3.77,2.18c-.66-.87-1.36-1.7-2.1-2.5l2.8-3.34c-1.9-2-4.03-3.78-6.33-5.31l-1.87,2.23-.93,1.11c-.91-.59-1.85-1.13-2.82-1.63l1.49-4.09c-1.85-.92-3.79-1.69-5.8-2.29-.65-.19-1.3-.37-1.96-.53l-1.42,3.9-.07.19c-1.05-.24-2.13-.43-3.22-.56v-3.68c0-.53-.23-.67-.37-.71-.48-.05-.95-.08-1.44-.11-.52,0-.58.43-.58.43v7.06c.05.63.55.68.55.68l-.02.02c1.76.14,3.48.41,5.14.84,1.16.3,2.29.67,3.38,1.11.77.31,1.52.64,2.25,1.01l-2.25,3.9-3.38,5.86-4.54,7.86c-.25-.08-.51-.14-.77-.21-.37-.05-.37.33-.37.33v2.27c0,.59.35.61.35.61,0,0-.01.01-.01.01,2.25.85,3.87,2.98,3.87,5.52s-1.64,4.71-3.91,5.54c-.01,0,0,.02-.02.03-.22.07-.26.17-.27.24v2.64c0,.29.18.33.27.33.29-.07.59-.14.87-.23l4.54,7.86,3.38,5.86,2.25,3.9c-.73.37-1.48.7-2.25,1.01-1.1.44-2.23.81-3.38,1.11-1.67.44-3.4.71-5.17.84h0s-.51.01-.51.92v6.65c.01.21.13.61.68.61ZM159.84,99.06l-7.3-4.22-8.07-4.66-2.25-1.3c.12-.36.22-.72.29-1.1h20.35c-.24,4.03-1.3,7.84-3.02,11.27ZM162.85,84.22h-20.34c-.07-.37-.17-.74-.29-1.1l2.25-1.3,8.07-4.66,7.3-4.22c1.71,3.43,2.77,7.24,3.02,11.27ZM141.08,76.72l3.38-5.86,5.34-9.24c.95.63,1.86,1.31,2.73,2.05,2.12,1.79,3.98,3.88,5.52,6.2l-5.52,3.19-8.07,4.66-3.38,1.95-.65.38c-.25-.28-.52-.55-.8-.8l1.45-2.52ZM144.46,101.15l-3.38-5.86-1.45-2.52c.28-.25.55-.52.8-.8l.65.38,3.38,1.95,8.07,4.66,5.52,3.19c-1.54,2.32-3.4,4.41-5.52,6.2-.87.73-1.78,1.42-2.73,2.05l-5.34-9.24Z"/>
    <path class="cls-10" d="M136.25,143.91l1.44-.83c.12.12.25.24.38.35.24.21.5.41.76.59.67.46,1.41.83,2.2,1.09.12.04.24.08.37.11v2.67c.77.16,1.57.25,2.39.25s1.62-.09,2.39-.25v-2.67c.12-.04.25-.07.37-.11.79-.26,1.53-.63,2.2-1.09.27-.18.52-.38.77-.59.13-.11.26-.23.38-.35l2.32,1.34c.53-.58,1-1.23,1.41-1.94.41-.71.73-1.44.98-2.19l-2.32-1.34c.17-.69.26-1.4.26-2.14s-.09-1.46-.26-2.15l2.32-1.34c-.24-.75-.57-1.49-.98-2.19-.41-.71-.88-1.36-1.41-1.94l-2.32,1.34c-.12-.12-.25-.24-.38-.35-.24-.21-.5-.41-.77-.59-.67-.46-1.41-.83-2.2-1.09-.12-.04-.25-.08-.37-.11v-2.67c-.77-.17-1.57-.25-2.39-.25s-1.62.09-2.39.25v2.67c-.12.04-.25.07-.37.11-.79.26-1.53.63-2.2,1.09-.27.18-.52.38-.76.59-.13.11-.26.23-.38.35l-1.7-.98s-.58-.3-.58,1.03v12.9c.02.3.14.84.85.44ZM139.22,140.34c-.12.07-.25.1-.39.1-.27,0-.53-.14-.67-.39-.05-.09-.08-.19-.1-.28-.01-.07,0-.14,0-.2.03-.23.16-.44.38-.57.12-.07.25-.1.39-.1.27,0,.53.14.67.39.21.37.09.84-.28,1.05ZM143.79,143.3c-.43,0-.77-.35-.77-.77s.34-.77.77-.77.77.34.77.77-.35.77-.77.77ZM146.77,142.23c-.07.04-.15.06-.23.06-.17,0-.33-.09-.41-.24-.13-.23-.04-.51.18-.64.07-.04.15-.06.23-.06.17,0,.32.09.41.24.12.23.04.51-.19.64ZM149.92,136.7c.13.23.04.51-.18.64-.07.04-.15.06-.23.06-.17,0-.33-.09-.41-.24-.13-.23-.04-.51.18-.64.07-.04.15-.06.23-.06.17,0,.32.09.41.24ZM148.35,133.28c.12-.07.26-.1.39-.1.27,0,.53.14.67.39.05.09.08.19.1.28,0,.07,0,.14,0,.2-.03.23-.16.44-.38.57-.12.07-.25.1-.39.1-.27,0-.53-.14-.67-.38-.21-.37-.09-.84.28-1.05ZM148.07,139.28c.14-.25.4-.38.67-.38.13,0,.26.03.39.1.22.13.35.34.38.57,0,.07,0,.14,0,.2-.01.1-.05.19-.1.28-.14.25-.4.39-.67.39-.13,0-.26-.03-.39-.1-.37-.21-.49-.69-.28-1.05ZM146.52,131.5h.02c.22-.12.5-.04.62.19.13.23.04.51-.19.64-.14.08-.3.08-.43.01-.08-.04-.16-.11-.21-.2-.12-.23-.04-.51.19-.64ZM143.79,130.31c.43,0,.77.34.77.77s-.34.77-.77.77-.77-.35-.77-.77.34-.77.77-.77ZM143.79,134.17c1.46,0,2.64,1.18,2.64,2.64s-1.18,2.64-2.64,2.64-2.64-1.18-2.64-2.64,1.18-2.64,2.64-2.64ZM140.8,131.38c.07-.04.15-.06.23-.06.17,0,.33.09.41.24.13.23.04.51-.19.64-.07.04-.15.06-.23.06-.17,0-.33-.09-.41-.24-.13-.23-.04-.51.18-.64ZM140.6,141.29c.14-.08.3-.08.43-.01.08.04.16.11.21.2.12.23.04.51-.18.64h-.02c-.22.12-.5.04-.62-.19-.12-.23-.04-.51.19-.64ZM138.07,133.84c.01-.1.04-.19.1-.28.14-.25.4-.39.67-.39.13,0,.26.03.39.1.37.21.5.68.28,1.05-.14.25-.4.38-.67.38-.13,0-.26-.03-.39-.1-.22-.13-.35-.34-.38-.57,0-.07-.01-.14,0-.2ZM137.84,136.28c.07-.04.15-.06.23-.06.17,0,.33.09.41.24.12.23.04.51-.19.64-.07.04-.15.06-.23.06-.17,0-.33-.09-.41-.24-.12-.23-.04-.51.19-.64Z"/>
    <path class="cls-2" d="M171.45,167.71c-.17-.9-.4-1.78-.7-2.63l3.64-2.1c-.39-.98-.85-1.95-1.4-2.9-.55-.95-1.15-1.83-1.81-2.66l-3.65,2.1c-.59-.69-1.23-1.33-1.92-1.92l2.1-3.65c-.83-.66-1.72-1.26-2.66-1.81-.94-.55-1.91-1.01-2.9-1.4l-2.1,3.64c-.85-.3-1.72-.54-2.63-.7v-4.21c-1.05-.16-2.12-.24-3.21-.24s-2.16.08-3.21.24v4.21c-.9.17-1.78.4-2.63.7l-2.1-3.64c-.98.39-1.95.85-2.9,1.4-.94.55-1.83,1.15-2.66,1.81l2.11,3.65c-.69.59-1.33,1.23-1.92,1.92l-3.65-2.1c-.55.69-1.04,1.45-1.51,2.22-.11.3-.35,1.05-.35,1.61v1.58c0,.86.71,1.34.71,1.34h0s1.58.91,1.58.91c-.3.85-.53,1.72-.7,2.63h-.87s-.71.05-.71,1.27v4.16c.02.32.14.95.85.99h.74c.17.9.4,1.78.7,2.63l-1.63.94s-.66.62-.66,1.75v1.19s-.02.77.44,1.7c.45.72.9,1.44,1.42,2.09l3.64-2.11c.59.69,1.23,1.33,1.92,1.92l-1.65,2.86c-.11.24-.23.74.28,1.29.62.46,1.24.92,1.93,1.31.94.55,1.91,1.01,2.9,1.4l2.1-3.64c.85.3,1.72.54,2.63.7v4.21c1.05.16,2.12.24,3.21.24s2.16-.08,3.21-.24v-4.21c.9-.17,1.78-.4,2.63-.7l2.1,3.64c.99-.39,1.95-.85,2.9-1.4.94-.54,1.83-1.15,2.66-1.81l-2.1-3.65c.69-.59,1.33-1.23,1.92-1.92l3.65,2.11c.66-.83,1.27-1.72,1.81-2.66.54-.94,1.01-1.91,1.4-2.9l-3.64-2.1c.3-.85.53-1.72.7-2.63h4.21c.15-1.05.24-2.12.24-3.21s-.08-2.16-.24-3.21h-4.21ZM166.62,170.97h0v.16s0,.05,0,.05v.05s0,.05,0,.05v.05s0,.1,0,.1v.05c0,.1-.01.21-.02.31h0s0,.05,0,.05v.05s0,0,0,0c0,.08-.01.17-.02.25-.07.68-.19,1.34-.36,1.98h0,0s0,0,0,0c-.27,1.02-.68,2.03-1.24,2.99-.19.33-.39.65-.61.95l-.03.04-.03.04h0c-.82,1.14-1.83,2.14-2.99,2.94h-.01s-.15.11-.15.11l-.1.07-.04.03-.04.03c-.17.11-.35.22-.53.32-.75.43-1.53.78-2.32,1.04l-.05.02h-.05s-.05.03-.05.03l-.1.03-.15.05h-.04s-.05.02-.05.02l-.18.05h0s0,0,0,0h-.05s-.14.05-.14.05h-.05s-.05.02-.05.02c-.07.02-.15.03-.22.05h-.02s-.05.01-.05.01h-.05s-.15.04-.15.04h-.05s-.13.04-.13.04l-.1.02c-.07.01-.14.02-.21.04l-.11.02-.21.03h-.09c-.08.02-.15.03-.23.04h-.06c-.09.02-.18.02-.27.03h-.03s-.03,0-.03,0c-.09,0-.18.01-.27.02h-.04c-.1,0-.2,0-.29.01h0s0,0,0,0c-.1,0-.21,0-.31,0h-.16s-.04,0-.04,0h-.01s-.15,0-.15,0h-.03s-.03,0-.03,0h-.05s-.05,0-.05,0h-.05s-.01,0-.01,0h-.04s-.1,0-.1,0h-.05s0,0,0,0h-.05s-.1-.01-.1-.01h-.04s-.01,0-.01,0h-.05s-.05,0-.05,0h-.05s-.05-.01-.05-.01h-.05s-.05,0-.05,0h-.1s-.05-.02-.05-.02h-.05s-.1-.02-.1-.02h-.05s0,0,0,0l-.15-.02h-.05s-.15-.03-.15-.03h-.05c-.4-.07-.79-.16-1.17-.26h0c-1.02-.28-2.03-.69-2.99-1.24-.32-.18-.62-.38-.91-.58l-.04-.03-.03-.02h0s-.04-.04-.04-.04l-.04-.03h-.02c-1.07-.79-2.01-1.74-2.78-2.82l-.07-.1h0s-.03-.05-.03-.05l-.03-.04-.03-.04c-.17-.25-.34-.52-.49-.79-.55-.95-.95-1.93-1.23-2.94v-.05s-.01,0-.01,0v-.05s-.02-.05-.02-.05h0s-.01-.05-.01-.05h0s-.01-.05-.01-.05v-.05s-.01,0-.01,0v-.05s-.01,0-.01,0v-.05s-.01,0-.01,0v-.05s-.01,0-.01,0v-.05s-.01,0-.01,0v-.05s-.01,0-.01,0v-.05s-.01,0-.01,0v-.05s-.01,0-.01,0v-.05s-.01,0-.01,0v-.05s0,0,0,0v-.05s-.01,0-.01,0v-.05s-.01,0-.01,0v-.05s0,0,0,0v-.05s-.01,0-.01,0v-.05s-.02-.05-.02-.05h0s0-.05,0-.05h0s0-.05,0-.05h0v-.05s0,0,0,0v-.05s-.02-.05-.02-.05h0s0-.05,0-.05v-.05s0,0,0,0v-.05s0,0,0,0v-.05s-.01-.05-.01-.05h0s0-.05,0-.05v-.05s0,0,0,0v-.05s-.01-.05-.01-.05h0s0-.05,0-.05v-.05s0,0,0,0v-.05s-.01-.05-.01-.05h0s0-.05,0-.05h0s0-.05,0-.05v-.05s-.01-.05-.01-.05h0s0-.05,0-.05h0s0-.05,0-.05v-.05s0,0,0,0v-.05s0-.05,0-.05h0s0-.05,0-.05h0s0-.05,0-.05h0s0-.05,0-.05v-.05s0-.05,0-.05v-.05s0-.05,0-.05v-.05s0-.05,0-.05v-.05s0-.05,0-.05v-.05s0-.05,0-.05h0s0-.05,0-.05v-.21h0v-.16s0-.05,0-.05v-.05s0-.05,0-.05v-.05s0-.1,0-.1v-.05c0-.1.01-.21.02-.31v-.05s0-.05,0-.05c0-.09.01-.17.02-.26.07-.68.19-1.34.36-1.97h0c.27-1.03.69-2.03,1.24-2.99.18-.32.38-.62.58-.91l.03-.04.03-.04.03-.04h0c.82-1.14,1.83-2.14,2.98-2.94h.02s.15-.11.15-.11l.1-.07.04-.03.04-.03c.17-.11.35-.22.53-.32.75-.43,1.53-.78,2.32-1.04h.05s.05-.03.05-.03l.05-.02.1-.03.15-.05h.04s.05-.02.05-.02l.18-.05h0s0,0,0,0h.05s.14-.05.14-.05h.05s.05-.02.05-.02c.08-.02.15-.04.22-.05h.02s.05-.01.05-.01h.05s.15-.04.15-.04h.05s.13-.04.13-.04l.1-.02c.07-.01.14-.02.21-.03l.11-.02.21-.03h.09c.08-.02.15-.03.23-.04h.06c.09-.02.18-.02.27-.03h.03s.03,0,.03,0c.09,0,.18-.01.27-.02h.05c.1,0,.19,0,.29-.01h.01c.1,0,.21,0,.31,0h.15s.04,0,.04,0h.01s.15,0,.15,0h.03s.03,0,.03,0h.05s.05,0,.05,0h.05s.01,0,.01,0h.04s.1,0,.1,0h.05s0,0,0,0h.05s.1.01.1.01h.04s.01,0,.01,0h.05s.05,0,.05,0h.05s.05,0,.05,0h.05s.05.01.05.01h.1s.05.02.05.02h.05s.1.02.1.02h.05s0,0,0,0l.15.02h.05s.15.03.15.03h.05c.4.07.79.16,1.17.26h0s0,0,0,0h0c1.02.28,2.03.69,2.99,1.24.24.14.47.28.7.44l.04.03.04.03.04.03.04.03h0s.03.03.03.03l.04.03.03.02h0c1.11.8,2.09,1.77,2.88,2.88l.07.1h0s.03.05.03.05l.03.04.03.04c.17.25.34.52.49.79.55.95.95,1.94,1.23,2.94v.05s.01,0,.01,0v.05s.02.05.02.05h0s.01.05.01.05h0s.01.05.01.05h0v.05s.01,0,.01,0v.05s.01,0,.01,0v.05s.01,0,.01,0v.05s.02.05.02.05h0s.01.05.01.05h0s.01.05.01.05h0s0,.05,0,.05l.02.1h0s.01.05.01.05l.02.1v.05s.02.05.02.05h0s0,.05,0,.05v.05h0v.05s0,0,0,0v.05s0,0,0,0v.05s.01,0,.01,0v.05s.01.05.01.05h0s0,.05,0,.05v.05s.02.05.02.05h0s0,.05,0,.05h0s0,.05,0,.05v.05s.01.05.01.05v.05s.01.05.01.05v.05s0,0,0,0v.05s.01.05.01.05v.05s.01.05.01.05v.05s0,.05,0,.05v.05s0,0,0,0v.05s0,.05,0,.05v.05s0,.05,0,.05v.05s0,0,0,0v.05s0,0,0,0v.05s0,.05,0,.05v.05s0,.05,0,.05v.05s0,.05,0,.05v.05s0,.05,0,.05v.05s0,.05,0,.05h0s0,.05,0,.05h0s0,.05,0,.05v.05h0v.1s0,.05,0,.05Z"/>
    <g>
      <g>
        <path class="cls-7" d="M94.97,215.79h74.54c2.97,0,5.38,2.74,5.38,6.15s-2.41,6.15-5.38,6.15h-74.54c-2.96,0-5.35-2.77-5.35-6.15s2.39-6.15,5.35-6.15Z"/>
        <path class="cls-7" d="M94.97,232.97h74.54c2.97,0,5.38,2.78,5.38,6.15s-2.41,6.17-5.38,6.17h-7.97l-8.02,16.33s-3.88,5.26-5.88,5.83c-1.98.58-24.93,3.13-32.03,0,0,0-3.47-.99-6.18-6.24-2.09-4.01-6.49-12.22-8.48-15.92h-5.98c-2.96,0-5.35-2.76-5.35-6.17s2.39-6.15,5.35-6.15Z"/>
      </g>
      <path class="cls-7" d="M169.51,198.6h-1.45c-1.21.67-2.48,1.29-3.78,1.8l-3.44,1.36-3.65.55c-1.58.24-3.2.36-4.8.36-1.4,0-2.8-.11-4.18-.29-4.06-.67-6.88-1.66-7.82-2.02-.68-.27-1.35-.57-2.01-.89-.07-.02-.15-.05-.27-.13-1.01-.61-1.83-.72-2.19-.73h-4.11c-1.08,0-2.02.58-2.02.58h0c-4.47,2.31-9.41,3.58-14.4,3.58-4.43,0-8.78-.98-12.81-2.8-.08-.02-.17-.05-.31-.12-.16-.08-.32-.16-.48-.23-.05-.02-.1-.05-.15-.07-1.59-.71-3.11-.93-3.11-.93h-3.56c-2.96,0-5.35,2.76-5.35,6.16s2.39,6.15,5.35,6.15h74.54c2.97,0,5.38-2.74,5.38-6.15s-2.41-6.16-5.38-6.16Z"/>
    </g>
  </g>
</svg>