<?xml version="1.0" encoding="UTF-8" standalone="no"?>
<svg
   id="subtitle"
   viewBox="0 0 268.98 268.98"
   version="1.1"
   sodipodi:docname="logo.svg"
   inkscape:version="1.4 (e7c3feb100, 2024-10-09)"
   inkscape:export-filename="logo.png"
   inkscape:export-xdpi="96"
   inkscape:export-ydpi="96"
   xmlns:inkscape="http://www.inkscape.org/namespaces/inkscape"
   xmlns:sodipodi="http://sodipodi.sourceforge.net/DTD/sodipodi-0.dtd"
   xmlns="http://www.w3.org/2000/svg"
   xmlns:svg="http://www.w3.org/2000/svg">
  <sodipodi:namedview
     id="namedview23"
     pagecolor="#ffffff"
     bordercolor="#000000"
     borderopacity="0.25"
     inkscape:showpageshadow="2"
     inkscape:pageopacity="0.0"
     inkscape:pagecheckerboard="0"
     inkscape:deskcolor="#d1d1d1"
     inkscape:zoom="3.4946835"
     inkscape:cx="115.03188"
     inkscape:cy="154.52043"
     inkscape:window-width="3840"
     inkscape:window-height="2091"
     inkscape:window-x="0"
     inkscape:window-y="0"
     inkscape:window-maximized="1"
     inkscape:current-layer="subtitle" />
  <defs
     id="defs1">
    <style
       id="style1">
      .cls-1 {
        fill: #292929;
      }

      .cls-1, .cls-2, .cls-3, .cls-4, .cls-5, .cls-6, .cls-7, .cls-8, .cls-9 {
        stroke-width: 0px;
      }

      .cls-2 {
        fill: #01bafb;
      }

      .cls-2, .cls-3, .cls-4, .cls-10, .cls-5, .cls-8, .cls-9 {
        fill-rule: evenodd;
      }

      .cls-3, .cls-7 {
        fill: #1672f1;
      }

      .cls-4 {
        fill: #1758d9;
      }

      .cls-10 {
        stroke: #044d89;
        stroke-miterlimit: 10;
        stroke-width: .25px;
      }

      .cls-10, .cls-6 {
        fill: #f9f7f2;
      }

      .cls-5 {
        fill: #fff;
        opacity: .34;
      }

      .cls-8 {
        fill: #70c5fe;
      }

      .cls-9 {
        fill: #1992fc;
      }
    </style>
  </defs>
  <circle
     class="cls-1"
     cx="134.49"
     cy="134.72"
     r="134.72"
     id="circle1"
     style="fill:#111111;fill-opacity:1" />
  <g
     id="g23"
     transform="matrix(0.70235886,0,0,0.70235886,39.304842,41.116027)">
    <path
       class="cls-5"
       d="m 231.98,99.2 c -0.08,-1.29 -0.31,-2.57 -0.67,-3.8 -0.11,-0.36 -0.23,-0.71 -0.37,-1.05 -0.11,-0.35 -0.24,-0.69 -0.39,-1.04 -0.52,-1.18 -1.16,-2.3 -1.93,-3.33 -0.16,-0.21 -0.33,-0.41 -0.5,-0.6 0.05,-0.09 0.11,-0.18 0.17,-0.27 0.36,-0.63 0.69,-1.29 0.98,-1.96 0.17,-0.41 0.31,-0.82 0.43,-1.23 0.18,-0.39 0.33,-0.79 0.46,-1.21 0.21,-0.68 0.38,-1.39 0.51,-2.12 0.13,-0.73 0.21,-1.48 0.25,-2.21 0.02,-0.42 0.01,-0.84 -0.02,-1.26 0.03,-0.42 0.04,-0.85 0.02,-1.29 -0.04,-0.73 -0.12,-1.46 -0.25,-2.21 -0.13,-0.71 -0.3,-1.41 -0.5,-2.09 -0.13,-0.42 -0.28,-0.83 -0.46,-1.22 -0.12,-0.41 -0.26,-0.83 -0.43,-1.23 -0.29,-0.68 -0.62,-1.34 -0.97,-1.95 -0.36,-0.63 -0.77,-1.24 -1.2,-1.82 -0.27,-0.35 -0.55,-0.68 -0.85,-0.99 -0.25,-0.35 -0.52,-0.68 -0.82,-1 -0.49,-0.53 -1.03,-1.04 -1.58,-1.5 -0.55,-0.47 -1.15,-0.9 -1.76,-1.3 -0.37,-0.24 -0.75,-0.45 -1.13,-0.64 -0.36,-0.25 -0.74,-0.47 -1.14,-0.68 -0.64,-0.33 -1.32,-0.62 -1.99,-0.86 -0.67,-0.24 -1.37,-0.45 -2.06,-0.61 -0.01,0 -0.03,0 -0.04,0 0.19,-1.37 0.29,-2.75 0.29,-4.12 0,-1.37 -0.11,-2.89 -0.32,-4.31 -0.17,-1.14 -0.52,-2.21 -1.03,-3.18 -0.05,-1.09 -0.28,-2.19 -0.7,-3.25 -0.53,-1.34 -1.16,-2.66 -1.89,-3.91 -0.72,-1.26 -1.55,-2.46 -2.44,-3.59 -0.71,-0.89 -1.55,-1.64 -2.47,-2.23 -0.59,-0.92 -1.34,-1.76 -2.23,-2.47 -1.13,-0.9 -2.34,-1.72 -3.56,-2.42 -0.22,-0.13 -0.44,-0.25 -0.72,-0.4 -1.04,-0.56 -2.12,-1.07 -3.21,-1.5 -1.07,-0.42 -2.17,-0.65 -3.26,-0.7 -0.97,-0.51 -2.04,-0.86 -3.17,-1.03 -0.24,-0.04 -0.49,-0.05 -0.74,-0.08 -0.08,-0.33 -0.17,-0.65 -0.28,-0.96 -0.12,-0.61 -0.29,-1.22 -0.53,-1.82 -0.3,-0.76 -0.66,-1.5 -1.08,-2.22 -0.4,-0.7 -0.86,-1.37 -1.36,-1.99 -0.4,-0.51 -0.85,-0.97 -1.32,-1.38 -0.41,-0.47 -0.86,-0.91 -1.36,-1.3 -0.63,-0.5 -1.31,-0.97 -2.02,-1.37 -0.03,-0.02 -0.36,-0.2 -0.41,-0.23 -0.59,-0.32 -1.2,-0.6 -1.82,-0.85 -0.59,-0.23 -1.2,-0.41 -1.8,-0.52 -0.6,-0.21 -1.22,-0.36 -1.86,-0.46 -0.8,-0.12 -1.62,-0.18 -2.43,-0.18 -0.81,0 -1.62,0.06 -2.42,0.18 -0.51,0.07 -1,0.2 -1.48,0.34 -0.34,-0.42 -0.71,-0.81 -1.11,-1.16 -0.38,-0.43 -0.81,-0.83 -1.27,-1.2 -0.59,-0.46 -1.21,-0.89 -1.9,-1.29 -0.66,-0.38 -1.36,-0.71 -2.06,-0.99 -0.54,-0.21 -1.09,-0.37 -1.64,-0.49 -0.55,-0.18 -1.13,-0.32 -1.72,-0.41 -0.75,-0.11 -1.51,-0.17 -2.25,-0.17 -0.74,0 -1.51,0.06 -2.26,0.17 -0.59,0.09 -1.16,0.23 -1.71,0.41 -0.56,0.12 -1.11,0.28 -1.66,0.49 -0.69,0.27 -1.38,0.6 -2.07,1 -0.56,0.33 -1.1,0.7 -1.62,1.09 -0.11,-0.07 -0.21,-0.15 -0.32,-0.22 -0.3,-0.19 -0.61,-0.37 -0.92,-0.53 -0.29,-0.19 -0.59,-0.36 -0.9,-0.52 -0.57,-0.3 -1.17,-0.56 -1.75,-0.77 -0.62,-0.23 -1.25,-0.42 -1.9,-0.56 -0.34,-0.08 -0.69,-0.14 -1.03,-0.18 -0.36,-0.08 -0.72,-0.15 -1.09,-0.19 -0.63,-0.08 -1.26,-0.11 -1.88,-0.11 -0.62,0 -1.25,0.04 -1.88,0.11 -0.37,0.05 -0.74,0.11 -1.1,0.19 -0.34,0.04 -0.68,0.1 -1.02,0.18 -0.64,0.15 -1.28,0.33 -1.86,0.55 -0.62,0.22 -1.22,0.49 -1.79,0.78 -0.31,0.16 -0.61,0.34 -0.9,0.53 -0.29,0.15 -0.58,0.31 -0.86,0.49 -0.28,0.18 -0.55,0.37 -0.79,0.55 -0.14,0.1 -0.27,0.21 -0.4,0.32 -0.25,0.21 -0.49,0.44 -0.71,0.67 C 122.05,9.15 115.52,7.3 108.84,7.3 95.7,7.3 83.86,14.07 77.15,25 c -0.1,0 -0.2,0 -0.3,0 -16.81,0 -30.49,13.68 -30.49,30.49 0,1.28 0.08,2.57 0.25,3.84 -9.1,7 -14.54,17.81 -14.54,29.51 0,6.88 1.93,13.63 5.58,19.52 v 0 c 0.04,0.06 0.12,0.19 0.12,0.2 0.08,0.12 0.16,0.25 0.25,0.37 0.42,0.59 0.88,1.14 1.4,1.64 -2.13,4.21 -3.26,8.88 -3.26,13.67 0,4.79 1.12,9.25 3.12,13.33 0.09,0.18 0.19,0.36 0.28,0.55 2.45,4.75 6.12,8.84 10.66,11.77 -0.3,1.88 -0.45,3.77 -0.45,5.66 0,8.2 2.67,15.78 7.17,21.95 6.79,9.29 17.76,15.35 30.13,15.35 2.99,0 5.93,-0.36 8.8,-1.06 0.74,1.31 1.75,2.53 3.01,3.59 0.34,0.29 0.69,0.55 1.07,0.79 4.93,3.17 10.6,4.85 16.4,4.85 6.65,0 13.19,-2.25 18.49,-6.31 0.04,0.03 0.08,0.07 0.12,0.1 l 0.11,0.08 c 0.71,0.52 1.6,1.17 2.71,1.81 1.34,0.78 2.76,1.46 4.21,2.03 1.15,0.45 2.33,0.68 3.51,0.7 1.03,0.57 2.17,0.96 3.39,1.14 1.53,0.23 3.1,0.34 4.65,0.34 1.55,0 3.12,-0.12 4.65,-0.34 1.22,-0.18 2.36,-0.58 3.39,-1.14 1.17,-0.02 2.36,-0.25 3.51,-0.7 1.45,-0.57 2.86,-1.25 4.2,-2.03 1.35,-0.78 2.65,-1.66 3.87,-2.63 0.96,-0.77 1.75,-1.68 2.36,-2.68 1,-0.61 1.92,-1.4 2.68,-2.36 0.97,-1.22 1.85,-2.52 2.63,-3.86 0.78,-1.35 1.46,-2.76 2.03,-4.2 0.37,-0.93 0.58,-1.88 0.66,-2.83 0.02,-0.23 0.04,-0.46 0.04,-0.68 0.57,-1.03 0.97,-2.18 1.15,-3.4 0.23,-1.54 0.34,-3.1 0.34,-4.65 0,-0.29 -0.02,-0.59 -0.03,-0.88 0.06,-0.01 0.13,-0.02 0.19,-0.03 0.43,0.06 0.87,0.09 1.32,0.09 0.48,0 0.96,-0.03 1.45,-0.1 1.18,-0.17 2.36,-0.43 3.51,-0.77 1.14,-0.34 2.26,-0.77 3.34,-1.27 0.86,-0.4 1.63,-0.91 2.32,-1.5 0.84,-0.35 1.64,-0.81 2.38,-1.39 0.94,-0.74 1.83,-1.55 2.66,-2.43 0.82,-0.87 1.58,-1.81 2.26,-2.78 0.54,-0.77 0.95,-1.59 1.25,-2.44 0.55,-0.72 1.02,-1.52 1.37,-2.4 0.44,-1.11 0.81,-2.26 1.08,-3.42 0.28,-1.16 0.47,-2.35 0.57,-3.54 0.07,-0.81 0.02,-1.59 -0.09,-2.36 0.81,-0.1 1.62,-0.31 2.4,-0.62 1.02,-0.4 2.02,-0.89 3,-1.45 0.95,-0.55 1.87,-1.18 2.72,-1.85 0.68,-0.54 1.27,-1.15 1.78,-1.82 0.12,-0.09 0.24,-0.21 0.36,-0.31 0.21,-0.18 0.43,-0.35 0.63,-0.55 0.29,-0.29 0.57,-0.6 0.83,-0.92 0.68,-0.86 1.31,-1.78 1.85,-2.73 0.55,-0.95 1.03,-1.95 1.44,-2.98 0.32,-0.81 0.53,-1.64 0.63,-2.47 0.32,-0.77 0.56,-1.59 0.68,-2.45 0.16,-1.09 0.24,-2.2 0.24,-3.3 0,-1.1 -0.08,-2.2 -0.24,-3.3 -0.13,-0.86 -0.36,-1.68 -0.68,-2.45 -0.08,-0.63 -0.24,-1.26 -0.44,-1.88 0.15,-0.09 0.3,-0.17 0.44,-0.26 1.07,-0.71 2.06,-1.54 2.95,-2.47 0.26,-0.28 0.51,-0.56 0.74,-0.86 0.25,-0.27 0.48,-0.55 0.7,-0.85 0.76,-1.03 1.41,-2.16 1.93,-3.33 0.15,-0.34 0.28,-0.69 0.39,-1.04 0.14,-0.34 0.27,-0.69 0.37,-1.05 0.36,-1.23 0.59,-2.51 0.67,-3.8 0.02,-0.37 0.03,-0.74 0,-1.11 0.02,-0.37 0.01,-0.73 0,-1.11 z"
       id="path1" />
    <path
       class="cls-5"
       d="m 226.91,99.62 c -0.08,-1.22 -0.29,-2.44 -0.63,-3.6 -0.1,-0.34 -0.22,-0.67 -0.35,-1 -0.1,-0.33 -0.23,-0.66 -0.37,-0.98 -0.49,-1.11 -1.1,-2.18 -1.82,-3.16 -0.15,-0.2 -0.31,-0.38 -0.47,-0.57 0.05,-0.09 0.11,-0.17 0.16,-0.25 0.34,-0.6 0.66,-1.22 0.93,-1.86 0.16,-0.38 0.3,-0.77 0.41,-1.17 0.17,-0.37 0.31,-0.75 0.43,-1.14 0.2,-0.64 0.36,-1.31 0.49,-2.01 0.12,-0.7 0.2,-1.4 0.23,-2.1 0.02,-0.4 0.01,-0.8 -0.02,-1.19 0.03,-0.4 0.04,-0.81 0.02,-1.22 -0.03,-0.69 -0.11,-1.39 -0.24,-2.09 -0.12,-0.67 -0.28,-1.33 -0.48,-1.98 -0.12,-0.4 -0.27,-0.78 -0.44,-1.16 -0.11,-0.39 -0.24,-0.78 -0.41,-1.17 -0.27,-0.64 -0.58,-1.27 -0.92,-1.85 -0.34,-0.59 -0.73,-1.17 -1.14,-1.72 -0.25,-0.33 -0.52,-0.64 -0.8,-0.93 -0.23,-0.33 -0.49,-0.64 -0.77,-0.95 -0.47,-0.5 -0.97,-0.98 -1.5,-1.42 -0.53,-0.44 -1.09,-0.86 -1.67,-1.23 -0.35,-0.23 -0.71,-0.43 -1.07,-0.6 -0.34,-0.23 -0.7,-0.45 -1.08,-0.64 -0.61,-0.31 -1.25,-0.59 -1.88,-0.82 -0.64,-0.23 -1.3,-0.43 -1.95,-0.58 -0.01,0 -0.03,0 -0.04,0 0.18,-1.29 0.28,-2.6 0.28,-3.9 0,-1.3 -0.1,-2.73 -0.3,-4.09 -0.16,-1.08 -0.49,-2.09 -0.97,-3.02 -0.05,-1.03 -0.26,-2.07 -0.66,-3.08 -0.5,-1.27 -1.1,-2.52 -1.79,-3.7 -0.69,-1.19 -1.46,-2.33 -2.31,-3.4 -0.67,-0.85 -1.47,-1.55 -2.34,-2.11 -0.56,-0.87 -1.26,-1.67 -2.12,-2.34 -1.07,-0.85 -2.22,-1.63 -3.37,-2.29 -0.21,-0.12 -0.41,-0.24 -0.68,-0.38 -0.98,-0.53 -2.01,-1.01 -3.04,-1.42 -1.01,-0.4 -2.05,-0.62 -3.09,-0.66 -0.92,-0.48 -1.93,-0.81 -3.01,-0.97 -0.23,-0.03 -0.47,-0.05 -0.7,-0.08 -0.07,-0.31 -0.16,-0.61 -0.26,-0.91 -0.11,-0.58 -0.28,-1.16 -0.5,-1.72 -0.29,-0.72 -0.63,-1.42 -1.02,-2.1 -0.38,-0.66 -0.82,-1.29 -1.28,-1.89 -0.38,-0.48 -0.8,-0.92 -1.25,-1.31 -0.38,-0.44 -0.81,-0.86 -1.29,-1.23 -0.6,-0.48 -1.24,-0.92 -1.91,-1.3 -0.03,-0.02 -0.34,-0.19 -0.39,-0.22 -0.56,-0.3 -1.14,-0.57 -1.72,-0.8 -0.56,-0.22 -1.13,-0.39 -1.71,-0.5 -0.56,-0.2 -1.15,-0.34 -1.77,-0.43 -0.76,-0.11 -1.53,-0.17 -2.3,-0.17 -0.77,0 -1.54,0.06 -2.29,0.17 -0.48,0.07 -0.95,0.19 -1.4,0.32 -0.33,-0.4 -0.67,-0.77 -1.05,-1.1 -0.36,-0.41 -0.76,-0.79 -1.2,-1.14 -0.55,-0.44 -1.15,-0.84 -1.8,-1.22 -0.63,-0.36 -1.28,-0.68 -1.95,-0.94 -0.51,-0.2 -1.03,-0.35 -1.55,-0.46 -0.52,-0.17 -1.07,-0.31 -1.63,-0.39 -0.71,-0.1 -1.43,-0.16 -2.13,-0.16 -0.7,0 -1.43,0.05 -2.14,0.16 -0.56,0.08 -1.1,0.21 -1.62,0.39 -0.53,0.11 -1.05,0.26 -1.57,0.47 -0.66,0.26 -1.31,0.57 -1.96,0.95 -0.53,0.31 -1.05,0.66 -1.54,1.03 -0.1,-0.07 -0.2,-0.14 -0.3,-0.21 -0.28,-0.18 -0.57,-0.35 -0.87,-0.5 -0.27,-0.18 -0.56,-0.34 -0.85,-0.5 -0.54,-0.28 -1.11,-0.53 -1.66,-0.73 -0.58,-0.22 -1.19,-0.39 -1.79,-0.53 -0.33,-0.07 -0.65,-0.13 -0.98,-0.17 -0.34,-0.08 -0.68,-0.14 -1.03,-0.18 -0.59,-0.07 -1.19,-0.11 -1.78,-0.11 -0.59,0 -1.19,0.04 -1.78,0.11 -0.35,0.04 -0.7,0.1 -1.04,0.18 -0.32,0.04 -0.64,0.09 -0.97,0.17 -0.61,0.14 -1.22,0.32 -1.76,0.52 -0.59,0.21 -1.16,0.46 -1.7,0.74 -0.3,0.15 -0.58,0.32 -0.85,0.5 -0.28,0.14 -0.55,0.29 -0.81,0.46 -0.26,0.17 -0.52,0.35 -0.75,0.52 -0.13,0.1 -0.26,0.2 -0.38,0.31 -0.24,0.2 -0.46,0.42 -0.67,0.64 -5.39,-3.19 -11.58,-4.94 -17.9,-4.94 -12.44,0 -23.66,6.41 -30.01,16.76 -0.09,0 -0.19,0 -0.28,0 -15.92,0 -28.87,12.95 -28.87,28.87 0,1.22 0.08,2.43 0.24,3.64 -8.62,6.63 -13.77,16.87 -13.77,27.94 0,6.52 1.83,12.91 5.28,18.49 v 0 c 0.04,0.06 0.12,0.18 0.12,0.19 0.08,0.12 0.15,0.23 0.24,0.35 0.39,0.56 0.84,1.08 1.32,1.55 -2.02,3.99 -3.09,8.41 -3.09,12.94 0,4.53 1.06,8.76 2.95,12.62 0.09,0.17 0.18,0.34 0.27,0.52 2.32,4.5 5.8,8.38 10.1,11.15 -0.28,1.78 -0.43,3.57 -0.43,5.36 0,7.77 2.52,14.95 6.79,20.78 6.43,8.8 16.82,14.53 28.53,14.53 2.83,0 5.61,-0.34 8.33,-1.01 0.71,1.25 1.66,2.39 2.85,3.4 0.32,0.27 0.66,0.52 1.01,0.75 4.67,3 10.04,4.59 15.53,4.59 6.3,0 12.49,-2.13 17.51,-5.97 0.04,0.03 0.07,0.06 0.11,0.09 l 0.1,0.07 c 0.68,0.5 1.52,1.11 2.56,1.71 1.27,0.73 2.61,1.38 3.98,1.93 1.09,0.43 2.21,0.65 3.32,0.67 0.97,0.54 2.06,0.91 3.21,1.08 1.45,0.22 2.94,0.33 4.41,0.33 1.47,0 2.95,-0.11 4.41,-0.33 1.16,-0.17 2.24,-0.55 3.21,-1.08 1.11,-0.02 2.24,-0.24 3.32,-0.67 1.37,-0.54 2.71,-1.19 3.98,-1.92 1.28,-0.74 2.51,-1.58 3.67,-2.49 0.91,-0.73 1.66,-1.59 2.23,-2.54 0.95,-0.57 1.82,-1.32 2.54,-2.24 0.92,-1.15 1.75,-2.38 2.49,-3.66 0.74,-1.27 1.38,-2.61 1.92,-3.98 0.35,-0.88 0.55,-1.78 0.63,-2.68 0.02,-0.22 0.04,-0.43 0.04,-0.65 0.54,-0.98 0.91,-2.06 1.09,-3.22 0.21,-1.46 0.32,-2.94 0.32,-4.4 0,-0.28 -0.02,-0.56 -0.03,-0.83 0.06,-0.01 0.12,-0.01 0.18,-0.03 0.41,0.05 0.83,0.08 1.25,0.08 0.45,0 0.91,-0.03 1.37,-0.1 1.12,-0.16 2.23,-0.41 3.32,-0.73 1.08,-0.32 2.14,-0.73 3.16,-1.2 0.81,-0.38 1.55,-0.86 2.2,-1.42 0.79,-0.33 1.55,-0.77 2.25,-1.32 0.89,-0.7 1.74,-1.47 2.52,-2.3 0.78,-0.83 1.5,-1.71 2.14,-2.63 0.51,-0.73 0.9,-1.51 1.18,-2.31 0.52,-0.68 0.96,-1.44 1.3,-2.28 0.42,-1.05 0.76,-2.14 1.03,-3.24 0.26,-1.1 0.44,-2.23 0.54,-3.35 0.07,-0.76 0.02,-1.51 -0.09,-2.24 0.77,-0.1 1.53,-0.29 2.28,-0.58 0.97,-0.38 1.92,-0.84 2.84,-1.37 0.9,-0.52 1.77,-1.11 2.58,-1.76 0.64,-0.51 1.21,-1.09 1.68,-1.72 0.12,-0.09 0.22,-0.2 0.34,-0.29 0.2,-0.17 0.4,-0.33 0.59,-0.52 0.28,-0.27 0.54,-0.56 0.79,-0.88 0.65,-0.82 1.24,-1.68 1.76,-2.58 0.52,-0.9 0.98,-1.85 1.36,-2.82 0.3,-0.77 0.5,-1.56 0.6,-2.34 0.31,-0.73 0.53,-1.5 0.65,-2.32 0.15,-1.03 0.23,-2.09 0.23,-3.12 0,-1.03 -0.08,-2.09 -0.23,-3.12 -0.12,-0.81 -0.34,-1.59 -0.65,-2.32 -0.07,-0.6 -0.23,-1.19 -0.42,-1.78 0.14,-0.08 0.28,-0.16 0.42,-0.25 1.01,-0.67 1.95,-1.46 2.79,-2.34 0.25,-0.26 0.48,-0.53 0.7,-0.82 0.23,-0.25 0.45,-0.52 0.66,-0.8 0.72,-0.98 1.34,-2.04 1.82,-3.16 0.14,-0.32 0.26,-0.65 0.37,-0.98 0.13,-0.32 0.25,-0.65 0.35,-1 0.34,-1.17 0.56,-2.38 0.63,-3.6 0.02,-0.35 0.03,-0.7 0,-1.05 0.02,-0.35 0.01,-0.7 0,-1.05 z"
       id="path2" />
    <path
       class="cls-6"
       d="m 129.06,25.95 c -5.02,-5.33 -12.12,-8.69 -19.99,-8.69 -11.62,0 -21.56,7.28 -25.58,17.5 -0.02,0.03 -0.04,0.06 -0.06,0.1 -0.44,1.08 -1.63,0.92 -1.63,0.92 v 0 c -1.62,-0.4 -3.31,-0.63 -5.06,-0.63 -11.37,0 -20.64,9.27 -20.64,20.64 0,2.47 0.47,4.83 1.28,7.03 h -0.02 c 0,0 0.81,1.33 -0.87,2.29 -0.01,0 -0.02,0.02 -0.03,0.02 -8.78,4.6 -14.8,13.79 -14.8,24.36 0,5.27 1.52,10.18 4.11,14.37 0,0 0.01,0.02 0.03,0.04 0,0 0.01,0.02 0.02,0.03 0.23,0.33 1.29,1.52 3.61,-0.08 0.2,-0.14 0.36,-0.22 0.49,-0.29 3.62,-2.16 7.84,-3.41 12.35,-3.41 1.98,0 3.58,1.6 3.58,3.58 0,1.98 -1.6,3.58 -3.58,3.58 -4.23,0 -8.1,1.56 -11.09,4.12 -3.33,3.67 -5.39,8.52 -5.39,13.84 0,9.37 6.3,17.3 14.88,19.8 0,0 0,0 0,0 0,0 1.36,0.32 0.83,1.74 -0.02,0.07 0,0.09 -0.02,0.14 -1.22,3.09 -1.94,6.43 -1.94,9.95 0,15.16 12.36,27.52 27.52,27.52 4.09,0 7.96,-0.92 11.45,-2.54 -0.01,-0.02 -0.03,-0.05 0,0 7.67,-4 13.11,-11.72 13.11,-20.95 0,-1.98 1.6,-3.58 3.58,-3.58 1.98,0 3.58,1.6 3.58,3.58 0,10.68 -5.42,20.09 -13.65,25.68 v 0 c 0,0 -1.47,1.15 0.45,2.77 3.2,2.06 6.99,3.28 11.06,3.28 4.83,0 9.28,-1.69 12.8,-4.49 1.25,-1.03 1.68,-2.84 1.68,-2.84 V 32.78 c 0,-4.23 -2.01,-6.77 -2.06,-6.83 z M 67.34,93.82 c 0.38,-2.63 1.37,-5.07 2.85,-7.18 0,0 0,0 0,0 1.34,-2.27 -0.61,-3.55 -0.61,-3.55 h 0.03 c -3.68,-3.1 -6.05,-7.71 -6.05,-12.88 0,-9.22 7.45,-16.73 16.64,-16.84 v 0 c 0,0 0.02,0 0.03,0 0.06,0 0.12,0 0.18,0 0,0 0.01,0 0.02,0 0.34,-0.02 1.06,-0.1 1.51,-0.41 0.33,-0.26 0.62,-0.65 0.69,-1.24 2.69,-8.56 10.68,-14.78 20.12,-14.78 11.63,0 21.1,9.46 21.1,21.1 0,11.64 -9.46,21.1 -21.1,21.1 -1.98,0 -3.58,-1.6 -3.58,-3.58 0,-1.98 1.6,-3.58 3.58,-3.58 7.69,0 13.94,-6.26 13.94,-13.94 0,-7.68 -6.26,-13.94 -13.94,-13.94 -7.68,0 -13.94,6.26 -13.94,13.94 0,1.98 -1.6,3.58 -3.58,3.58 -0.76,0 -1.47,-0.24 -2.05,-0.65 -0.89,-0.27 -1.81,-0.44 -2.76,-0.44 -5.35,0 -9.7,4.35 -9.7,9.7 0,5.35 4.35,9.7 9.7,9.7 0.08,0 0.15,0.02 0.23,0.02 0.11,0 0.23,0.02 0.34,0.03 0.13,0.02 0.25,0.05 0.38,0.09 0.09,0.03 0.19,0.05 0.28,0.09 0.13,0.05 0.25,0.1 0.37,0.16 0.09,0.04 0.17,0.09 0.25,0.14 0.11,0.07 0.22,0.14 0.32,0.22 0.08,0.06 0.16,0.13 0.24,0.2 0.09,0.08 0.17,0.17 0.25,0.26 0.07,0.08 0.14,0.17 0.21,0.26 0.07,0.1 0.14,0.2 0.2,0.3 0.06,0.09 0.11,0.19 0.16,0.29 0.06,0.12 0.1,0.24 0.14,0.36 0.02,0.07 0.06,0.12 0.08,0.19 0.01,0.04 0.01,0.08 0.02,0.12 0.03,0.12 0.05,0.23 0.06,0.35 0.02,0.13 0.03,0.25 0.04,0.38 0,0.04 0.01,0.08 0.01,0.12 0,0.07 -0.02,0.13 -0.02,0.19 0,0.13 -0.02,0.27 -0.04,0.4 -0.02,0.11 -0.04,0.21 -0.07,0.32 -0.03,0.12 -0.06,0.23 -0.11,0.34 -0.04,0.11 -0.09,0.21 -0.14,0.32 -0.05,0.1 -0.1,0.2 -0.16,0.3 -0.06,0.1 -0.13,0.19 -0.2,0.29 -0.07,0.09 -0.14,0.18 -0.22,0.26 -0.08,0.08 -0.16,0.16 -0.24,0.24 -0.09,0.08 -0.17,0.15 -0.27,0.22 -0.1,0.07 -0.19,0.13 -0.3,0.19 -0.1,0.06 -0.19,0.11 -0.29,0.16 -0.12,0.05 -0.23,0.1 -0.36,0.14 -0.07,0.02 -0.12,0.06 -0.19,0.08 -1.14,0.32 -2.2,0.85 -3.16,1.56 -2.08,1.55 -3.43,3.81 -3.81,6.38 -0.37,2.56 0.27,5.12 1.82,7.2 1.55,2.08 3.81,3.43 6.38,3.8 2.56,0.38 5.12,-0.27 7.2,-1.82 1.59,-1.18 3.82,-0.85 5,0.73 1.18,1.58 0.85,3.82 -0.73,5 -2.94,2.19 -6.43,3.35 -10.04,3.35 -0.82,0 -1.64,-0.06 -2.47,-0.18 -4.45,-0.65 -8.39,-3 -11.08,-6.61 -2.69,-3.61 -3.81,-8.05 -3.16,-12.51 z m 56.69,20.5 c -1.11,1.79 -2.52,3.32 -4.16,4.55 v 0 c 0,0 -1.57,1 -0.76,3.48 0,0 0,0 0,0 1.49,3.58 1.7,7.53 0.57,11.3 -1.29,4.31 -4.19,7.86 -8.15,9.99 -2.49,1.34 -5.22,2.02 -7.97,2.02 -0.89,0 -1.78,-0.09 -2.67,-0.23 v 0.02 c -3.27,-0.85 -3.84,1.9 -3.84,1.9 h -0.02 c -1.65,5.61 -6.16,10.23 -12.26,11.67 -0.28,0.06 -0.55,0.1 -0.83,0.1 -1.62,0 -3.09,-1.11 -3.48,-2.76 -0.45,-1.92 0.74,-3.85 2.66,-4.3 5.21,-1.23 8.44,-6.46 7.21,-11.67 -0.59,-2.52 -2.14,-4.66 -4.34,-6.02 -2.21,-1.37 -4.81,-1.79 -7.33,-1.19 -1.16,0.27 -2.25,0.75 -3.22,1.41 -1.64,1.11 -3.86,0.69 -4.97,-0.95 -1.11,-1.63 -0.69,-3.86 0.95,-4.97 1.7,-1.16 3.59,-1.99 5.61,-2.46 4.38,-1.03 8.9,-0.3 12.73,2.07 2.18,1.35 3.96,3.14 5.31,5.23 1.23,2.22 3.24,3.85 5.68,4.59 2.48,0.74 5.1,0.48 7.39,-0.75 2.28,-1.23 3.95,-3.27 4.69,-5.75 0.74,-2.48 0.48,-5.1 -0.75,-7.39 -0.57,-1.05 -1.31,-1.98 -2.2,-2.75 -1.5,-1.29 -1.66,-3.55 -0.37,-5.04 0.25,-0.29 0.55,-0.52 0.87,-0.71 0.43,-0.38 0.94,-0.67 1.54,-0.81 5.21,-1.22 8.45,-6.46 7.22,-11.66 -0.59,-2.52 -2.13,-4.66 -4.34,-6.03 -2.2,-1.37 -4.81,-1.79 -7.33,-1.2 -1.17,0.27 -2.25,0.75 -3.23,1.41 -1.64,1.11 -3.86,0.69 -4.97,-0.95 -1.11,-1.64 -0.69,-3.86 0.95,-4.97 1.7,-1.16 3.59,-1.98 5.61,-2.46 4.38,-1.03 8.9,-0.29 12.73,2.08 3.83,2.37 6.5,6.09 7.53,10.47 1.03,4.38 0.29,8.9 -2.08,12.73 z"
       id="path3" />
    <path
       class="cls-8"
       d="m 172.31,58.8 c 0.15,0.81 0.36,1.6 0.63,2.36 l -3.27,1.89 c 0.35,0.88 0.77,1.75 1.26,2.6 0.49,0.85 1.03,1.64 1.63,2.39 l 3.27,-1.89 c 0.53,0.62 1.11,1.19 1.72,1.72 l -1.89,3.27 c 0.74,0.59 1.54,1.13 2.39,1.62 0.15,0.09 0.3,0.17 0.45,0.25 0.7,0.38 1.42,0.72 2.15,1 l 1.89,-3.27 c 0.76,0.27 1.55,0.48 2.36,0.63 v 3.78 c 0.94,0.14 1.9,0.21 2.88,0.21 0.98,0 1.94,-0.07 2.88,-0.21 v -3.78 c 0.81,-0.15 1.6,-0.36 2.36,-0.63 l 1.89,3.27 c 0.73,-0.29 1.45,-0.62 2.15,-1 0.15,-0.08 0.3,-0.17 0.45,-0.25 0.85,-0.49 1.64,-1.03 2.39,-1.62 l -1.89,-3.27 c 0.62,-0.53 1.2,-1.11 1.72,-1.72 l 3.27,1.89 c 0.59,-0.75 1.14,-1.54 1.62,-2.39 0.49,-0.85 0.91,-1.72 1.26,-2.6 l -3.27,-1.89 c 0.27,-0.76 0.48,-1.55 0.63,-2.36 h 3.78 c 0.14,-0.94 0.21,-1.9 0.21,-2.88 0,-0.98 -0.07,-1.94 -0.21,-2.88 h -3.78 c -0.15,-0.81 -0.36,-1.6 -0.63,-2.36 l 3.27,-1.89 c -0.35,-0.88 -0.77,-1.75 -1.26,-2.6 -0.49,-0.85 -1.03,-1.64 -1.62,-2.39 l -3.27,1.89 c -0.53,-0.62 -1.11,-1.19 -1.72,-1.72 l 1.89,-3.27 c -0.75,-0.59 -1.54,-1.13 -2.39,-1.62 -0.15,-0.09 -0.3,-0.17 -0.45,-0.25 -0.71,-0.38 -1.42,-0.72 -2.15,-1 l -1.89,3.27 c -0.76,-0.27 -1.55,-0.48 -2.36,-0.63 v -3.78 c -0.94,-0.14 -1.9,-0.21 -2.88,-0.21 -0.98,0 -1.94,0.07 -2.88,0.21 v 3.78 c -0.81,0.15 -1.6,0.36 -2.36,0.63 l -1.89,-3.27 c -0.73,0.29 -1.45,0.62 -2.15,1 -0.15,0.08 -0.3,0.17 -0.45,0.25 -0.85,0.49 -1.64,1.03 -2.39,1.62 l 1.89,3.27 c -0.62,0.53 -1.2,1.11 -1.73,1.72 l -3.27,-1.89 c -0.59,0.74 -1.13,1.54 -1.63,2.39 -0.49,0.85 -0.91,1.72 -1.26,2.6 l 3.27,1.89 c -0.27,0.76 -0.48,1.55 -0.63,2.36 h -3.78 c -0.14,0.94 -0.21,1.9 -0.21,2.88 0,0.98 0.07,1.94 0.21,2.88 h 3.78 z m 24.74,-6.75 v 0 c 2.14,0 3.87,1.74 3.87,3.88 0,2.14 -1.73,3.88 -3.87,3.88 v 0 c -2.14,0 -3.88,-1.73 -3.88,-3.88 0,-2.15 1.74,-3.88 3.88,-3.88 z m -9.27,-9.28 c 2.14,0 3.88,1.74 3.88,3.88 0,2.14 -1.74,3.88 -3.88,3.88 -2.14,0 -3.88,-1.73 -3.88,-3.88 0,-2.15 1.74,-3.88 3.88,-3.88 z m 2.59,13.15 c 0,1.43 -1.16,2.59 -2.59,2.59 -1.43,0 -2.59,-1.16 -2.59,-2.59 0,-1.43 1.16,-2.59 2.59,-2.59 1.43,0 2.59,1.16 2.59,2.59 z m -2.59,5.4 c 2.14,0 3.88,1.73 3.88,3.87 0,2.14 -1.73,3.88 -3.88,3.88 -2.15,0 -3.88,-1.74 -3.88,-3.88 0,-2.14 1.74,-3.87 3.88,-3.87 z m -9.28,-9.27 c 2.14,0 3.88,1.74 3.88,3.88 0,2.14 -1.74,3.88 -3.88,3.88 -2.14,0 -3.88,-1.73 -3.88,-3.88 0,-2.15 1.74,-3.88 3.88,-3.88 z"
       id="path4" />
    <path
       class="cls-10"
       d="m 203.5,89.91 c -0.59,-1.02 -1.28,-1.96 -2.04,-2.8 l -3.34,1.93 c -0.18,-0.17 -0.36,-0.34 -0.55,-0.5 -0.35,-0.3 -0.72,-0.59 -1.1,-0.85 -0.97,-0.66 -2.03,-1.2 -3.17,-1.58 -0.18,-0.06 -0.35,-0.11 -0.53,-0.16 V 82.1 c -1.11,-0.24 -2.26,-0.36 -3.44,-0.36 -1.18,0 -2.33,0.13 -3.44,0.36 v 3.85 c -0.18,0.05 -0.36,0.1 -0.53,0.16 -1.14,0.38 -2.2,0.91 -3.17,1.58 -0.38,0.26 -0.75,0.55 -1.1,0.85 -0.19,0.16 -0.37,0.33 -0.55,0.5 l -3.34,-1.93 c -0.76,0.84 -1.45,1.78 -2.04,2.8 -0.59,1.02 -1.06,2.08 -1.41,3.16 l 3.34,1.93 c -0.25,0.99 -0.38,2.03 -0.38,3.09 0,1.06 0.13,2.1 0.38,3.09 l -3.34,1.93 c 0.35,1.08 0.82,2.14 1.41,3.16 0.59,1.02 1.28,1.96 2.04,2.8 l 3.34,-1.93 c 0.18,0.17 0.36,0.34 0.55,0.5 0.35,0.3 0.72,0.59 1.1,0.85 0.97,0.66 2.03,1.2 3.17,1.58 0.18,0.06 0.35,0.11 0.53,0.16 v 3.85 c 1.11,0.24 2.26,0.36 3.44,0.36 1.18,0 2.33,-0.13 3.44,-0.36 v -3.85 c 0.18,-0.05 0.36,-0.11 0.53,-0.16 1.14,-0.38 2.2,-0.91 3.17,-1.58 0.38,-0.27 0.75,-0.55 1.1,-0.85 0.19,-0.16 0.37,-0.33 0.55,-0.5 l 3.34,1.93 c 0.76,-0.84 1.45,-1.78 2.04,-2.8 0.59,-1.02 1.06,-2.08 1.41,-3.16 l -3.34,-1.93 c 0.25,-0.99 0.38,-2.03 0.38,-3.09 0,-1.06 -0.13,-2.1 -0.38,-3.09 l 3.34,-1.93 c -0.35,-1.08 -0.82,-2.14 -1.41,-3.16 z M 195.92,93 c 0.18,-0.1 0.37,-0.15 0.56,-0.15 0.38,0 0.76,0.2 0.96,0.56 0.07,0.13 0.12,0.27 0.14,0.41 0.01,0.1 0.01,0.2 0,0.3 -0.04,0.33 -0.24,0.64 -0.55,0.82 -0.18,0.1 -0.37,0.15 -0.56,0.15 -0.38,0 -0.76,-0.2 -0.96,-0.56 -0.31,-0.53 -0.12,-1.21 0.41,-1.52 z m -6.59,-4.27 c 0.61,0 1.11,0.5 1.11,1.11 0,0.61 -0.5,1.11 -1.11,1.11 -0.61,0 -1.11,-0.5 -1.11,-1.11 0,-0.61 0.5,-1.11 1.11,-1.11 z m -4.3,1.54 c 0.1,-0.06 0.22,-0.08 0.33,-0.08 0.24,0 0.47,0.13 0.59,0.35 0.18,0.33 0.06,0.74 -0.27,0.92 -0.1,0.06 -0.22,0.08 -0.33,0.08 -0.24,0 -0.47,-0.13 -0.59,-0.35 -0.18,-0.33 -0.06,-0.74 0.27,-0.92 z m -4.54,7.97 c -0.18,-0.33 -0.06,-0.74 0.27,-0.92 0.1,-0.06 0.22,-0.08 0.33,-0.08 0.24,0 0.47,0.13 0.59,0.35 0.18,0.33 0.06,0.74 -0.27,0.92 -0.1,0.06 -0.21,0.08 -0.32,0.08 -0.24,0 -0.47,-0.13 -0.59,-0.35 z m 2.26,4.93 c -0.18,0.1 -0.37,0.15 -0.56,0.15 -0.38,0 -0.76,-0.2 -0.96,-0.56 -0.07,-0.13 -0.12,-0.27 -0.14,-0.41 -0.01,-0.1 -0.01,-0.2 0,-0.3 0.04,-0.33 0.24,-0.64 0.55,-0.82 0.18,-0.1 0.37,-0.15 0.56,-0.15 0.38,0 0.76,0.2 0.96,0.56 0.31,0.53 0.13,1.21 -0.41,1.52 z m 0.4,-8.65 c -0.21,0.36 -0.58,0.56 -0.96,0.56 -0.19,0 -0.38,-0.05 -0.56,-0.15 -0.31,-0.18 -0.5,-0.49 -0.55,-0.82 -0.01,-0.1 -0.01,-0.2 0,-0.3 0.02,-0.14 0.06,-0.28 0.14,-0.41 0.21,-0.36 0.58,-0.56 0.96,-0.56 0.19,0 0.38,0.05 0.56,0.15 0.53,0.31 0.71,0.99 0.41,1.52 z m 2.24,11.22 h -0.03 c -0.32,0.17 -0.71,0.05 -0.89,-0.27 -0.18,-0.33 -0.06,-0.74 0.27,-0.92 0.2,-0.11 0.43,-0.11 0.62,-0.02 0.12,0.06 0.23,0.16 0.3,0.28 0.18,0.33 0.06,0.74 -0.27,0.92 z m 3.94,1.71 c -0.62,0 -1.11,-0.5 -1.11,-1.11 0,-0.61 0.5,-1.11 1.11,-1.11 0.61,0 1.11,0.5 1.11,1.11 0,0.61 -0.5,1.11 -1.11,1.11 z m 0,-5.56 c -2.1,0 -3.8,-1.7 -3.8,-3.8 0,-2.1 1.7,-3.8 3.8,-3.8 2.1,0 3.8,1.7 3.8,3.8 0,2.1 -1.7,3.8 -3.8,3.8 z m 4.3,4.02 c -0.1,0.06 -0.22,0.08 -0.33,0.08 -0.24,0 -0.47,-0.13 -0.59,-0.35 -0.18,-0.33 -0.06,-0.74 0.27,-0.92 0.1,-0.06 0.22,-0.08 0.33,-0.08 0.24,0 0.47,0.13 0.59,0.35 0.18,0.33 0.06,0.74 -0.27,0.92 z m 0.3,-14.29 c -0.2,0.11 -0.43,0.11 -0.62,0.02 -0.12,-0.06 -0.23,-0.16 -0.3,-0.28 -0.18,-0.33 -0.06,-0.74 0.27,-0.92 h 0.03 c 0.32,-0.17 0.71,-0.05 0.89,0.27 0.18,0.33 0.06,0.74 -0.27,0.92 z m 3.65,10.74 c -0.02,0.14 -0.07,0.28 -0.14,0.41 -0.21,0.36 -0.58,0.56 -0.96,0.56 -0.19,0 -0.38,-0.05 -0.56,-0.15 -0.53,-0.31 -0.71,-0.99 -0.41,-1.52 0.21,-0.36 0.58,-0.56 0.96,-0.56 0.19,0 0.38,0.05 0.56,0.15 0.31,0.18 0.5,0.49 0.55,0.82 0.01,0.1 0.01,0.2 0,0.3 z m 0.33,-3.51 c -0.1,0.06 -0.22,0.08 -0.33,0.08 -0.24,0 -0.47,-0.13 -0.59,-0.35 -0.18,-0.33 -0.06,-0.74 0.27,-0.92 0.1,-0.06 0.22,-0.08 0.33,-0.08 0.24,0 0.47,0.13 0.59,0.35 0.18,0.33 0.06,0.74 -0.27,0.92 z"
       id="path5" />
    <path
       class="cls-10"
       d="m 197.08,144.48 2.67,-0.8 c -0.1,-0.69 -0.25,-1.39 -0.46,-2.08 -0.21,-0.69 -0.46,-1.36 -0.76,-1.99 l -2.67,0.8 c -0.28,-0.54 -0.59,-1.05 -0.94,-1.53 l 1.91,-2.02 c -0.43,-0.55 -0.91,-1.08 -1.44,-1.57 -0.52,-0.5 -1.08,-0.94 -1.65,-1.35 l -1.65,1.74 -0.27,0.28 c -0.51,-0.33 -1.03,-0.61 -1.58,-0.85 l 0.65,-2.71 c -0.65,-0.26 -1.33,-0.48 -2.03,-0.64 -0.7,-0.17 -1.41,-0.28 -2.1,-0.34 l -0.64,2.71 c -0.19,-0.01 -0.38,-0.01 -0.57,-0.01 -0.41,0 -0.81,0.02 -1.23,0.07 l -0.8,-2.67 c -0.69,0.1 -1.39,0.25 -2.08,0.46 -0.69,0.21 -1.36,0.46 -1.99,0.76 l 0.8,2.67 c -0.44,0.22 -0.86,0.47 -1.26,0.75 -0.09,0.06 -0.18,0.13 -0.27,0.19 l -2.02,-1.91 c -0.55,0.43 -1.08,0.91 -1.57,1.44 -0.5,0.52 -0.94,1.08 -1.35,1.65 l 2.03,1.91 c -0.32,0.51 -0.61,1.03 -0.85,1.58 l -2.71,-0.65 c -0.26,0.65 -0.48,1.33 -0.64,2.03 -0.17,0.7 -0.28,1.4 -0.34,2.1 l 2.71,0.65 c -0.03,0.59 -0.01,1.19 0.05,1.8 l -2.67,0.8 c 0.1,0.69 0.25,1.39 0.46,2.08 0.21,0.69 0.46,1.36 0.76,1.99 l 2.67,-0.8 c 0.28,0.54 0.59,1.05 0.94,1.53 l -1.91,2.02 c 0.43,0.55 0.91,1.08 1.44,1.57 0.52,0.5 1.08,0.94 1.65,1.35 l 1.65,-1.74 0.27,-0.28 c 0.5,0.33 1.03,0.61 1.58,0.85 l -0.65,2.71 c 0.65,0.26 1.33,0.48 2.03,0.64 0.7,0.17 1.4,0.28 2.1,0.34 l 0.64,-2.71 c 0.19,0 0.38,0.01 0.57,0.01 0.41,0 0.82,-0.02 1.23,-0.07 l 0.8,2.67 c 0.69,-0.1 1.39,-0.25 2.08,-0.46 0.69,-0.21 1.36,-0.46 1.99,-0.76 l -0.8,-2.67 c 0.44,-0.22 0.86,-0.47 1.26,-0.75 0.09,-0.06 0.18,-0.13 0.27,-0.19 l 2.02,1.91 c 0.55,-0.43 1.08,-0.91 1.57,-1.44 0.49,-0.53 0.94,-1.08 1.35,-1.65 l -2.02,-1.91 c 0.32,-0.5 0.61,-1.03 0.85,-1.58 l 2.71,0.64 c 0.26,-0.65 0.48,-1.33 0.64,-2.03 0.17,-0.7 0.28,-1.4 0.34,-2.1 l -2.71,-0.64 c 0.03,-0.59 0.01,-1.2 -0.05,-1.8 z m -17.27,5.92 c -0.27,0.08 -0.55,0.12 -0.82,0.12 -1.23,0 -2.37,-0.8 -2.74,-2.04 -0.45,-1.51 0.41,-3.1 1.92,-3.56 0.27,-0.08 0.55,-0.12 0.82,-0.12 1.23,0 2.37,0.8 2.74,2.04 0.45,1.51 -0.41,3.1 -1.92,3.56 z m 1.05,-10.43 c -0.45,-1.51 0.41,-3.1 1.92,-3.56 1.01,-0.3 2.06,-0.02 2.77,0.65 0.36,0.33 0.63,0.76 0.78,1.27 0.32,1.07 -0.02,2.18 -0.78,2.9 -0.31,0.29 -0.7,0.52 -1.14,0.65 -1.51,0.45 -3.11,-0.41 -3.56,-1.92 z m 2.86,6.28 c -0.3,-1.01 0.27,-2.08 1.28,-2.38 0.18,-0.05 0.37,-0.08 0.55,-0.08 0.82,0 1.58,0.53 1.83,1.36 0.3,1.01 -0.27,2.08 -1.28,2.38 -0.18,0.06 -0.37,0.08 -0.55,0.08 -0.82,0 -1.58,-0.53 -1.83,-1.36 z m 4.6,8.75 c -1.01,0.3 -2.05,0.02 -2.77,-0.65 -0.36,-0.33 -0.63,-0.77 -0.78,-1.27 -0.32,-1.07 0.02,-2.18 0.78,-2.9 0.31,-0.29 0.7,-0.52 1.14,-0.66 1.51,-0.45 3.1,0.41 3.56,1.92 0.45,1.51 -0.41,3.1 -1.92,3.55 z m 4.6,-8.51 c -0.27,0.08 -0.55,0.12 -0.82,0.12 -1.23,0 -2.37,-0.8 -2.74,-2.04 -0.45,-1.51 0.41,-3.1 1.92,-3.56 0.27,-0.08 0.55,-0.12 0.82,-0.12 1.23,0 2.37,0.8 2.74,2.04 0.45,1.51 -0.41,3.1 -1.92,3.55 z"
       id="path6" />
    <path
       class="cls-10"
       d="m 144.73,37 c -0.23,0.78 -0.36,1.56 -0.42,2.33 l 2.54,0.73 c 0,0.7 0.08,1.41 0.25,2.12 0.18,0.71 0.43,1.38 0.76,1.99 l -1.9,1.83 c 0.41,0.66 0.89,1.29 1.45,1.87 0.56,0.58 1.17,1.09 1.81,1.53 l 0.85,-0.81 1.06,-1.02 c 0.1,0.06 0.19,0.11 0.29,0.16 0.84,0.45 1.76,0.77 2.72,0.92 0.35,0.06 0.7,0.09 1.05,0.1 l 0.3,1.21 0.33,1.35 c 0.34,-0.01 0.68,-0.04 1.02,-0.08 0.44,-0.05 0.89,-0.14 1.33,-0.24 0.48,-0.12 0.95,-0.27 1.4,-0.44 0.29,-0.11 0.56,-0.23 0.84,-0.37 l -0.63,-2.56 c 0.41,-0.23 0.79,-0.49 1.15,-0.78 0.76,-0.61 1.4,-1.34 1.91,-2.15 l 2.54,0.74 c 0.37,-0.69 0.67,-1.42 0.9,-2.2 0.22,-0.78 0.36,-1.56 0.42,-2.34 l -2.54,-0.73 c 0,-0.7 -0.08,-1.41 -0.25,-2.12 -0.17,-0.71 -0.43,-1.38 -0.76,-1.99 l 1.9,-1.83 c -0.41,-0.66 -0.89,-1.29 -1.45,-1.87 -0.56,-0.58 -1.17,-1.09 -1.81,-1.53 l -0.84,0.81 -1.06,1.02 c -0.1,-0.06 -0.19,-0.11 -0.29,-0.16 -0.84,-0.45 -1.76,-0.76 -2.72,-0.92 -0.35,-0.06 -0.7,-0.09 -1.05,-0.1 l -0.3,-1.21 -0.33,-1.35 c -0.34,0.01 -0.68,0.04 -1.02,0.08 -0.44,0.05 -0.89,0.14 -1.33,0.24 -0.48,0.12 -0.94,0.27 -1.39,0.44 -0.29,0.11 -0.56,0.23 -0.84,0.37 l 0.63,2.56 c -0.41,0.23 -0.79,0.49 -1.15,0.78 -0.76,0.61 -1.4,1.34 -1.91,2.15 l -2.54,-0.74 c -0.37,0.69 -0.67,1.42 -0.89,2.2 z m 14.91,7.61 c 0,0 -0.04,0.04 -0.07,0.05 -0.19,0.12 -0.43,0.09 -0.59,-0.08 -0.17,-0.19 -0.16,-0.48 0.03,-0.66 0.16,-0.15 0.39,-0.16 0.56,-0.05 0.03,0.02 0.07,0.05 0.09,0.08 0.17,0.19 0.16,0.48 -0.03,0.65 z m 1.06,-6.07 c 0.07,-0.06 0.14,-0.1 0.23,-0.11 0.15,-0.03 0.31,0.02 0.43,0.14 0.17,0.19 0.16,0.48 -0.03,0.65 -0.11,0.1 -0.26,0.14 -0.4,0.12 -0.09,-0.02 -0.18,-0.07 -0.25,-0.14 -0.17,-0.19 -0.16,-0.48 0.03,-0.66 z m 0.22,2.39 c 0.07,0 0.14,0 0.21,0.03 0.4,0.12 0.64,0.54 0.52,0.94 -0.1,0.33 -0.4,0.55 -0.73,0.55 -0.07,0 -0.14,-0.01 -0.21,-0.03 -0.4,-0.12 -0.64,-0.54 -0.52,-0.94 0.1,-0.33 0.4,-0.55 0.73,-0.55 z m -1.88,-5.28 c 0.15,-0.14 0.34,-0.21 0.53,-0.21 0.2,0 0.4,0.08 0.55,0.23 0.29,0.3 0.28,0.79 -0.02,1.08 -0.15,0.14 -0.34,0.21 -0.53,0.21 -0.2,0 -0.4,-0.08 -0.55,-0.23 -0.29,-0.3 -0.28,-0.79 0.02,-1.08 z m -4.89,10.18 -0.02,0.02 c -0.19,0.17 -0.48,0.16 -0.66,-0.03 -0.17,-0.19 -0.16,-0.48 0.03,-0.66 0.19,-0.17 0.47,-0.16 0.65,0.02 v 0 c 0.17,0.19 0.16,0.47 0,0.64 z m 2.88,0.51 c -0.06,0.01 -0.12,0.02 -0.18,0.02 -0.34,0 -0.65,-0.23 -0.74,-0.58 -0.1,-0.41 0.15,-0.82 0.56,-0.92 0.06,-0.01 0.12,-0.02 0.18,-0.02 0.34,0 0.65,0.23 0.74,0.58 0.1,0.41 -0.15,0.82 -0.56,0.92 z m -0.18,-11.94 0.02,-0.02 c 0.19,-0.17 0.48,-0.16 0.65,0.03 0.17,0.19 0.16,0.48 -0.03,0.66 -0.18,0.17 -0.47,0.16 -0.65,-0.02 v 0 c -0.17,-0.19 -0.16,-0.47 0,-0.65 z m -2.89,-0.51 c 0.06,-0.02 0.12,-0.02 0.18,-0.02 0.34,0 0.65,0.23 0.74,0.58 0.1,0.41 -0.15,0.82 -0.56,0.92 -0.06,0.01 -0.12,0.02 -0.18,0.02 -0.34,0 -0.65,-0.23 -0.74,-0.58 -0.1,-0.41 0.15,-0.82 0.56,-0.92 z m 0.19,4 c 0.22,-0.13 0.46,-0.24 0.73,-0.3 0.21,-0.05 0.42,-0.08 0.62,-0.08 0.48,0 0.95,0.14 1.35,0.38 0.57,0.34 1.01,0.91 1.18,1.6 0.28,1.13 -0.23,2.28 -1.18,2.85 -0.22,0.13 -0.46,0.24 -0.73,0.3 -0.21,0.05 -0.42,0.08 -0.62,0.08 -0.48,0 -0.95,-0.14 -1.35,-0.38 -0.57,-0.34 -1.01,-0.91 -1.18,-1.6 -0.28,-1.14 0.23,-2.28 1.18,-2.85 z m -3.85,3.81 c -0.07,0.06 -0.14,0.1 -0.23,0.11 -0.15,0.03 -0.31,-0.02 -0.43,-0.14 -0.17,-0.19 -0.16,-0.48 0.03,-0.66 0.11,-0.1 0.26,-0.14 0.4,-0.12 0.1,0.02 0.18,0.07 0.25,0.14 0.17,0.19 0.16,0.48 -0.03,0.65 z m 1.05,-6.08 c 0,0 0.04,-0.04 0.07,-0.05 0.19,-0.12 0.43,-0.09 0.59,0.08 0.17,0.19 0.16,0.48 -0.03,0.66 -0.16,0.14 -0.39,0.16 -0.56,0.05 -0.03,-0.02 -0.07,-0.05 -0.09,-0.08 -0.17,-0.19 -0.16,-0.48 0.03,-0.65 z m 0.07,7.65 c 0.2,0 0.4,0.08 0.55,0.23 0.29,0.3 0.28,0.79 -0.02,1.08 -0.15,0.14 -0.34,0.21 -0.53,0.21 -0.2,0 -0.4,-0.08 -0.55,-0.23 -0.29,-0.3 -0.28,-0.79 0.02,-1.08 0.15,-0.14 0.34,-0.21 0.53,-0.21 z m -2.08,-4.94 c 0.1,-0.33 0.4,-0.55 0.73,-0.55 0.07,0 0.14,0 0.21,0.03 0.4,0.12 0.64,0.54 0.52,0.95 -0.1,0.33 -0.4,0.55 -0.73,0.55 -0.07,0 -0.14,-0.01 -0.21,-0.03 -0.4,-0.12 -0.64,-0.54 -0.52,-0.94 z"
       id="path7" />
    <path
       class="cls-4"
       d="m 208.25,73.32 -1.57,-1.87 c -0.26,0.17 -0.51,0.36 -0.76,0.56 -0.25,0.21 -0.47,0.42 -0.69,0.65 l 1.57,1.87 c -0.17,0.18 -0.33,0.37 -0.48,0.57 l -2.12,-1.22 c -0.19,0.25 -0.36,0.51 -0.52,0.79 -0.16,0.28 -0.3,0.56 -0.42,0.85 l 2.11,1.22 c -0.1,0.23 -0.18,0.46 -0.25,0.7 l -2.4,-0.42 c -0.09,0.3 -0.17,0.6 -0.22,0.92 -0.06,0.32 -0.09,0.63 -0.11,0.94 l 2.4,0.42 c 0,0.12 0,0.25 0,0.37 0,0.12 0,0.25 0,0.37 l -2.4,0.42 c 0.02,0.31 0.05,0.62 0.11,0.94 0.06,0.31 0.13,0.62 0.22,0.92 l 2.4,-0.42 c 0.07,0.24 0.16,0.47 0.25,0.7 l -2.11,1.22 c 0.12,0.29 0.26,0.57 0.42,0.85 0.16,0.28 0.34,0.54 0.52,0.79 l 2.12,-1.22 c 0.15,0.2 0.31,0.39 0.48,0.57 l -1.57,1.87 c 0.21,0.23 0.44,0.45 0.69,0.65 0.25,0.2 0.5,0.39 0.76,0.56 l 1.57,-1.87 c 0.21,0.13 0.42,0.26 0.65,0.37 l -0.84,2.29 c 0.28,0.14 0.57,0.27 0.87,0.38 0.3,0.11 0.6,0.2 0.91,0.27 l 0.83,-2.29 c 0.24,0.05 0.49,0.1 0.73,0.13 v 2.44 c 0.31,0.04 0.62,0.06 0.94,0.06 0.32,0 0.63,-0.02 0.94,-0.06 v -2.44 c 0.25,-0.03 0.49,-0.07 0.73,-0.13 l 0.84,2.29 c 0.3,-0.07 0.61,-0.16 0.91,-0.27 0.3,-0.11 0.59,-0.24 0.87,-0.38 l -0.84,-2.29 c 0.22,-0.11 0.44,-0.24 0.65,-0.37 l 1.57,1.87 c 0.26,-0.17 0.52,-0.36 0.76,-0.56 0.25,-0.21 0.47,-0.42 0.69,-0.65 l -1.57,-1.87 c 0.17,-0.18 0.33,-0.37 0.48,-0.57 l 2.12,1.22 c 0.19,-0.25 0.36,-0.51 0.52,-0.79 0.16,-0.28 0.3,-0.56 0.42,-0.85 l -2.11,-1.22 c 0.1,-0.23 0.18,-0.46 0.25,-0.7 l 2.4,0.42 c 0.09,-0.3 0.17,-0.6 0.22,-0.92 0.06,-0.31 0.09,-0.63 0.11,-0.94 l -2.4,-0.42 c 0,-0.12 0,-0.25 0,-0.37 0,-0.12 0,-0.25 0,-0.37 l 2.4,-0.42 c -0.02,-0.31 -0.05,-0.62 -0.11,-0.94 -0.06,-0.31 -0.13,-0.62 -0.22,-0.92 l -2.4,0.42 c -0.07,-0.24 -0.16,-0.47 -0.25,-0.7 l 2.11,-1.22 c -0.12,-0.29 -0.26,-0.57 -0.42,-0.85 -0.16,-0.28 -0.34,-0.54 -0.52,-0.79 l -2.12,1.22 c -0.15,-0.2 -0.31,-0.39 -0.48,-0.57 l 1.57,-1.87 c -0.21,-0.23 -0.44,-0.45 -0.69,-0.65 -0.24,-0.2 -0.5,-0.39 -0.76,-0.56 l -1.57,1.87 c -0.21,-0.14 -0.42,-0.26 -0.65,-0.37 l 0.84,-2.29 c -0.28,-0.14 -0.57,-0.27 -0.87,-0.38 -0.3,-0.11 -0.6,-0.2 -0.91,-0.27 l -0.84,2.29 c -0.24,-0.05 -0.49,-0.1 -0.73,-0.13 v -2.44 c -0.31,-0.04 -0.62,-0.06 -0.94,-0.06 -0.32,0 -0.64,0.02 -0.94,0.06 v 2.44 c -0.25,0.03 -0.49,0.07 -0.73,0.13 l -0.83,-2.29 c -0.3,0.07 -0.61,0.16 -0.91,0.27 -0.3,0.11 -0.59,0.24 -0.87,0.38 l 0.84,2.29 c -0.22,0.11 -0.44,0.24 -0.65,0.37 z m 4.1,1.79 c 2.52,0 4.57,2.05 4.57,4.57 0,2.52 -2.04,4.57 -4.57,4.57 -2.53,0 -4.57,-2.04 -4.57,-4.57 0,-2.53 2.04,-4.57 4.57,-4.57 z"
       id="path8" />
    <path
       class="cls-9"
       d="m 175.93,122.45 -1.2,0.21 c -0.09,-0.29 -0.19,-0.58 -0.31,-0.85 l 1.05,-0.61 c -0.31,-0.71 -0.7,-1.38 -1.15,-1.99 l -1.05,0.61 c -0.18,-0.24 -0.38,-0.47 -0.58,-0.7 l 0.78,-0.93 c -0.53,-0.56 -1.12,-1.05 -1.76,-1.48 l -0.52,0.62 -0.26,0.31 c -0.25,-0.16 -0.52,-0.32 -0.79,-0.45 l 0.42,-1.14 c -0.52,-0.26 -1.06,-0.47 -1.62,-0.64 -0.18,-0.05 -0.36,-0.1 -0.55,-0.15 l -0.39,1.09 -0.02,0.06 c -0.29,-0.07 -0.59,-0.12 -0.89,-0.16 v -1.21 c -0.38,-0.04 -0.76,-0.06 -1.15,-0.06 -0.39,0 -0.77,0.02 -1.15,0.06 v 1.21 c -0.3,0.04 -0.6,0.09 -0.89,0.16 l -0.02,-0.05 -0.4,-1.09 c -0.19,0.05 -0.37,0.1 -0.55,0.15 -0.56,0.17 -1.1,0.38 -1.62,0.64 l 0.41,1.14 c -0.27,0.14 -0.53,0.29 -0.79,0.45 l -0.26,-0.31 -0.52,-0.62 c -0.64,0.43 -1.23,0.92 -1.76,1.48 l 0.78,0.93 c -0.2,0.22 -0.4,0.45 -0.58,0.7 l -1.05,-0.61 c -0.45,0.62 -0.84,1.28 -1.15,1.99 l 1.05,0.61 c -0.12,0.28 -0.22,0.56 -0.31,0.85 l -1.19,-0.21 c -0.21,0.73 -0.35,1.49 -0.4,2.27 l 1.19,0.21 c 0,0.15 -0.01,0.3 -0.01,0.45 0,0.15 0,0.3 0.01,0.45 l -1.19,0.21 c 0.05,0.78 0.18,1.54 0.4,2.27 l 1.19,-0.21 c 0.09,0.29 0.19,0.58 0.31,0.85 l -1.05,0.61 c 0.31,0.71 0.7,1.38 1.15,1.99 l 1.05,-0.61 c 0.18,0.24 0.38,0.47 0.58,0.7 l -0.78,0.93 c 0.53,0.55 1.12,1.05 1.76,1.48 l 0.52,-0.62 0.26,-0.31 c 0.25,0.16 0.52,0.32 0.79,0.45 l -0.42,1.14 c 0.52,0.26 1.06,0.47 1.62,0.64 0.18,0.06 0.36,0.1 0.55,0.15 l 0.4,-1.09 0.02,-0.05 c 0.29,0.07 0.59,0.12 0.9,0.16 v 1.21 c 0.38,0.04 0.76,0.06 1.15,0.06 0.39,0 0.77,-0.02 1.15,-0.06 v -1.21 c 0.3,-0.04 0.6,-0.09 0.89,-0.16 l 0.02,0.06 0.39,1.09 c 0.18,-0.05 0.37,-0.09 0.55,-0.15 0.56,-0.17 1.1,-0.38 1.62,-0.64 l -0.41,-1.14 c 0.27,-0.14 0.53,-0.29 0.79,-0.46 l 0.26,0.31 0.52,0.62 c 0.64,-0.43 1.23,-0.92 1.76,-1.48 l -0.78,-0.93 c 0.21,-0.22 0.4,-0.46 0.58,-0.7 l 1.05,0.61 c 0.45,-0.62 0.84,-1.28 1.15,-1.99 l -1.05,-0.61 c 0.12,-0.28 0.22,-0.56 0.31,-0.85 l 1.2,0.21 c 0.21,-0.73 0.35,-1.49 0.4,-2.27 l -1.19,-0.21 c 0,-0.15 0.01,-0.3 0.01,-0.45 0,-0.15 0,-0.3 -0.01,-0.45 l 1.19,-0.21 c -0.05,-0.78 -0.18,-1.54 -0.4,-2.27 z m -5.51,-3.86 c 0.26,0.18 0.52,0.37 0.76,0.57 0.59,0.5 1.11,1.08 1.54,1.73 l -1.54,0.89 -2.25,1.3 -0.94,0.54 -0.18,0.11 c -0.07,-0.08 -0.14,-0.15 -0.22,-0.22 l 0.41,-0.7 0.94,-1.63 1.49,-2.58 z m -4,-1.34 c 0.54,0.03 1.06,0.12 1.57,0.25 0.32,0.08 0.64,0.19 0.94,0.31 0.21,0.08 0.42,0.18 0.63,0.28 l -0.63,1.09 -0.94,1.63 -1.27,2.19 c -0.1,-0.03 -0.2,-0.06 -0.3,-0.08 z m -3.51,0.56 c 0.31,-0.12 0.62,-0.23 0.94,-0.31 0.51,-0.13 1.03,-0.22 1.57,-0.25 v 5.67 c -0.1,0.02 -0.21,0.05 -0.3,0.08 l -1.27,-2.19 -0.94,-1.63 -0.63,-1.09 c 0.2,-0.1 0.41,-0.2 0.63,-0.28 z m -2.24,1.35 c 0.24,-0.2 0.5,-0.39 0.76,-0.57 l 1.49,2.58 0.94,1.63 0.4,0.7 c -0.08,0.07 -0.15,0.14 -0.22,0.22 l -0.18,-0.11 -0.94,-0.54 -2.25,-1.3 -1.54,-0.89 c 0.43,-0.65 0.95,-1.23 1.54,-1.73 z m -2.04,2.58 2.04,1.18 2.25,1.3 0.63,0.36 c -0.03,0.1 -0.06,0.2 -0.08,0.31 h -5.67 c 0.07,-1.12 0.36,-2.19 0.84,-3.14 z m -0.84,4.14 h 5.67 c 0.02,0.1 0.05,0.21 0.08,0.3 l -0.63,0.36 -2.25,1.3 -2.04,1.18 c -0.48,-0.95 -0.77,-2.02 -0.84,-3.14 z m 3.64,6.3 c -0.26,-0.18 -0.52,-0.37 -0.76,-0.57 -0.59,-0.5 -1.11,-1.08 -1.54,-1.73 l 1.54,-0.89 2.25,-1.3 0.94,-0.54 0.18,-0.1 c 0.07,0.08 0.14,0.15 0.22,0.22 l -0.4,0.7 -0.94,1.63 z m 4,1.34 c -0.54,-0.03 -1.06,-0.12 -1.57,-0.25 -0.32,-0.08 -0.64,-0.19 -0.94,-0.31 -0.21,-0.08 -0.42,-0.18 -0.63,-0.28 l 0.63,-1.09 0.94,-1.63 1.27,-2.19 c 0.1,0.03 0.2,0.06 0.3,0.08 z m -1.16,-8.14 c 0,-0.91 0.74,-1.66 1.66,-1.66 0.92,0 1.66,0.74 1.66,1.66 0,0.92 -0.74,1.66 -1.66,1.66 -0.92,0 -1.66,-0.74 -1.66,-1.66 z m 4.66,7.58 c -0.31,0.12 -0.62,0.23 -0.94,0.31 -0.51,0.13 -1.03,0.22 -1.57,0.25 v -5.67 c 0.1,-0.02 0.21,-0.05 0.3,-0.08 l 1.27,2.19 0.94,1.63 0.63,1.09 c -0.2,0.1 -0.41,0.2 -0.63,0.28 z m 2.25,-1.35 c -0.24,0.21 -0.5,0.4 -0.76,0.57 l -1.49,-2.58 -0.94,-1.63 -0.41,-0.7 c 0.08,-0.07 0.15,-0.14 0.22,-0.22 l 0.18,0.11 0.94,0.54 2.25,1.3 1.54,0.89 c -0.43,0.65 -0.95,1.23 -1.54,1.73 z m 2.04,-2.59 -2.04,-1.18 -2.25,-1.3 -0.63,-0.36 c 0.03,-0.1 0.06,-0.2 0.08,-0.3 h 5.67 c -0.07,1.12 -0.36,2.19 -0.84,3.14 z m -2.04,-4.13 h -2.79 c -0.02,-0.1 -0.05,-0.21 -0.08,-0.31 l 0.63,-0.36 2.25,-1.3 2.03,-1.17 c 0.48,0.96 0.77,2.02 0.84,3.14 z"
       id="path9" />
    <path
       class="cls-3"
       d="m 213.92,121.89 c -0.1,-0.52 -0.23,-1.02 -0.4,-1.51 l 2.09,-1.21 c -0.22,-0.57 -0.49,-1.12 -0.8,-1.66 -0.31,-0.54 -0.66,-1.05 -1.04,-1.53 l -2.09,1.21 c -0.34,-0.4 -0.71,-0.76 -1.1,-1.1 l 1.21,-2.09 c -0.48,-0.38 -0.98,-0.73 -1.53,-1.04 -0.54,-0.31 -1.1,-0.58 -1.66,-0.8 l -1.21,2.09 c -0.49,-0.17 -0.99,-0.31 -1.51,-0.4 v -2.41 c -0.6,-0.09 -1.22,-0.14 -1.84,-0.14 -0.62,0 -1.24,0.05 -1.84,0.14 v 2.41 c -0.52,0.1 -1.02,0.23 -1.51,0.4 l -1.21,-2.09 c -0.57,0.22 -1.12,0.49 -1.66,0.8 -0.54,0.31 -1.05,0.66 -1.53,1.04 l 1.21,2.09 c -0.4,0.34 -0.76,0.71 -1.1,1.1 l -2.09,-1.21 c -0.38,0.48 -0.73,0.98 -1.04,1.53 -0.31,0.54 -0.58,1.1 -0.8,1.66 l 2.09,1.21 c -0.17,0.49 -0.31,0.99 -0.4,1.51 h -2.42 c -0.09,0.6 -0.14,1.22 -0.14,1.84 0,0.62 0.05,1.24 0.14,1.84 h 2.42 c 0.1,0.52 0.23,1.02 0.4,1.51 l -2.09,1.21 c 0.22,0.57 0.49,1.12 0.8,1.66 0.31,0.54 0.66,1.05 1.04,1.53 l 2.09,-1.21 c 0.34,0.4 0.71,0.76 1.1,1.1 l -1.21,2.09 c 0.48,0.38 0.99,0.72 1.53,1.04 0.54,0.31 1.1,0.58 1.66,0.8 l 1.21,-2.09 c 0.49,0.17 0.99,0.31 1.51,0.4 v 2.41 c 0.6,0.09 1.22,0.14 1.84,0.14 0.62,0 1.24,-0.05 1.84,-0.14 v -2.41 c 0.52,-0.1 1.02,-0.23 1.51,-0.4 l 1.21,2.09 c 0.57,-0.22 1.12,-0.49 1.66,-0.8 0.54,-0.31 1.05,-0.66 1.53,-1.04 l -1.21,-2.09 c 0.39,-0.34 0.76,-0.71 1.1,-1.1 l 2.09,1.21 c 0.38,-0.48 0.73,-0.98 1.04,-1.53 0.31,-0.54 0.58,-1.1 0.8,-1.66 l -2.09,-1.21 c 0.17,-0.49 0.31,-0.99 0.4,-1.51 h 2.41 c 0.09,-0.6 0.14,-1.22 0.14,-1.84 0,-0.62 -0.05,-1.24 -0.14,-1.84 z m -2.77,1.78 v 0.15 c 0,0 0,0.03 0,0.03 v 0.03 c 0,0 0,0.03 0,0.03 v 0.03 c 0,0 0,0.03 0,0.03 v 0.06 c 0,0 0,0.03 0,0.03 0,0.06 0,0.12 -0.01,0.18 v 0.03 c 0,0 0,0 0,0 v 0.03 c 0,0 -0.01,0.1 -0.02,0.14 v 0 c -0.04,0.39 -0.11,0.77 -0.21,1.13 v 0 0 c -0.16,0.59 -0.39,1.17 -0.71,1.72 -0.11,0.19 -0.23,0.37 -0.35,0.55 l -0.02,0.02 -0.02,0.02 v 0 c -0.47,0.66 -1.05,1.23 -1.71,1.69 v 0 c 0,0 -0.09,0.07 -0.09,0.07 l -0.06,0.04 -0.02,0.02 -0.02,0.02 c -0.1,0.06 -0.2,0.13 -0.3,0.19 -0.43,0.25 -0.88,0.45 -1.33,0.6 h -0.03 c 0,0 -0.03,0.02 -0.03,0.02 h -0.03 c 0,0 -0.06,0.03 -0.06,0.03 l -0.09,0.03 h -0.02 c 0,0 -0.03,0.01 -0.03,0.01 l -0.11,0.03 v 0 c 0,0 -0.03,0 -0.03,0 l -0.08,0.02 h -0.03 c 0,0 -0.03,0.01 -0.03,0.01 -0.04,0.01 -0.09,0.02 -0.13,0.03 h -0.01 c 0,0 -0.03,0 -0.03,0 h -0.03 c 0,0 -0.08,0.02 -0.08,0.02 h -0.03 c 0,0 -0.08,0.02 -0.08,0.02 h -0.06 c 0,0 -0.08,0.02 -0.12,0.03 h -0.06 c 0,0 -0.12,0.03 -0.12,0.03 h -0.05 c 0,0 -0.09,0.02 -0.13,0.02 h -0.03 c -0.05,0 -0.1,0.01 -0.15,0.02 h -0.01 c 0,0 -0.01,0 -0.01,0 -0.05,0 -0.1,0 -0.15,0.01 h -0.03 c -0.06,0 -0.11,0 -0.17,0 v 0 c -0.06,0 -0.12,0 -0.18,0 h -0.11 c 0,0 0,0 0,0 h -0.09 c 0,0 -0.01,0 -0.01,0 h -0.04 c 0,0 -0.03,0 -0.03,0 h -0.03 c 0,0 0,0 0,0 h -0.02 c 0,0 -0.06,0 -0.06,0 h -0.03 c 0,0 0,0 0,0 h -0.03 c 0,0 -0.06,0 -0.06,0 h -0.02 c 0,0 0,0 0,0 h -0.03 c 0,0 -0.03,0 -0.03,0 h -0.03 c 0,0 -0.03,0 -0.03,0 h -0.03 c 0,0 -0.03,0 -0.03,0 h -0.06 c 0,0 -0.03,0 -0.03,0 h -0.03 c 0,0 -0.06,-0.01 -0.06,-0.01 h -0.03 c 0,0 0,0 0,0 h -0.08 c 0,0 -0.03,-0.02 -0.03,-0.02 h -0.09 c 0,0 -0.03,-0.02 -0.03,-0.02 -0.23,-0.04 -0.45,-0.09 -0.67,-0.15 v 0 c 0,0 0,0 0,0 v 0 c -0.59,-0.16 -1.16,-0.4 -1.72,-0.71 -0.18,-0.11 -0.36,-0.22 -0.52,-0.33 l -0.02,-0.02 h -0.02 c 0,0 0,-0.02 0,-0.02 l -0.02,-0.02 -0.02,-0.02 h -0.01 c -0.62,-0.46 -1.16,-1 -1.6,-1.62 l -0.04,-0.06 v 0 c 0,0 -0.02,-0.03 -0.02,-0.03 l -0.02,-0.02 -0.02,-0.02 c -0.1,-0.15 -0.19,-0.3 -0.28,-0.45 -0.31,-0.54 -0.55,-1.11 -0.7,-1.69 v -0.03 c 0,0 0,0 0,0 v -0.03 c 0,0 0,0 0,0 v -0.03 c 0,0 0,0 0,0 v -0.03 c 0,0 -0.01,-0.03 -0.01,-0.03 v 0 c 0,0 0,-0.03 0,-0.03 v 0 -0.03 c 0,0 -0.01,-0.03 -0.01,-0.03 v -0.03 c 0,0 0,0 0,0 v -0.03 c 0,0 -0.01,-0.03 -0.01,-0.03 v 0 c 0,0 0,-0.03 0,-0.03 v -0.03 c 0,0 0,0 0,0 v -0.03 c 0,0 0,0 0,0 v -0.03 c 0,0 -0.01,-0.03 -0.01,-0.03 v 0 c 0,0 0,-0.03 0,-0.03 v -0.03 c 0,0 -0.01,-0.03 -0.01,-0.03 v -0.03 c 0,0 0,0 0,0 V 125 c 0,0 0,0 0,0 v -0.03 c 0,0 -0.01,-0.03 -0.01,-0.03 v -0.03 c 0,0 -0.01,-0.03 -0.01,-0.03 v 0 c 0,0 0,-0.03 0,-0.03 v 0 c 0,0 0,-0.03 0,-0.03 v -0.03 c 0,0 0,0 0,0 v -0.03 c 0,0 0,0 0,0 v -0.03 c 0,0 0,-0.03 0,-0.03 v 0 c 0,0 0,-0.03 0,-0.03 v -0.03 c 0,0 0,-0.03 0,-0.03 v -0.03 c 0,0 0,0 0,0 v -0.03 c 0,0 0,-0.03 0,-0.03 v -0.03 c 0,0 0,-0.03 0,-0.03 v -0.03 c 0,0 0,-0.03 0,-0.03 v 0 c 0,0 0,-0.03 0,-0.03 v -0.03 c 0,0 0,-0.03 0,-0.03 v -0.03 c 0,0 0,0 0,0 v -0.03 c 0,0 0,-0.03 0,-0.03 v 0 c 0,0 0,-0.03 0,-0.03 v -0.03 c 0,0 0,-0.03 0,-0.03 v -0.03 c 0,0 0,-0.03 0,-0.03 v -0.03 c 0,0 0,-0.03 0,-0.03 v -0.03 c 0,0 0,-0.03 0,-0.03 v -0.03 c 0,0 0,-0.03 0,-0.03 v -0.06 c 0,0 0,0 0,0 v -0.03 c 0,0 0,-0.03 0,-0.03 v -0.24 c 0,0 0,-0.03 0,-0.03 v -0.06 c 0,0 0,-0.06 0,-0.06 v 0 -0.03 c 0,-0.06 0,-0.12 0.01,-0.18 v 0 c 0,0 0,-0.03 0,-0.03 v 0 c 0,0 0,-0.03 0,-0.03 v 0 c 0,0 0,-0.1 0.01,-0.15 0.04,-0.39 0.11,-0.77 0.21,-1.13 v 0 c 0,0 0,0 0,0 0.16,-0.59 0.39,-1.16 0.71,-1.72 0.1,-0.18 0.22,-0.36 0.33,-0.52 l 0.02,-0.02 0.02,-0.02 v -0.02 c 0,0 0.02,0 0.02,0 0.47,-0.66 1.05,-1.23 1.71,-1.69 v 0 c 0,0 0.09,-0.07 0.09,-0.07 l 0.06,-0.04 0.02,-0.02 0.03,-0.02 c 0.1,-0.06 0.2,-0.13 0.3,-0.19 0.43,-0.25 0.88,-0.45 1.33,-0.6 h 0.03 c 0,0 0.03,-0.02 0.03,-0.02 h 0.03 c 0,0 0.06,-0.03 0.06,-0.03 l 0.09,-0.03 h 0.02 c 0,0 0.03,-0.01 0.03,-0.01 l 0.11,-0.03 v 0 c 0,0 0,0 0,0 h 0.03 c 0,0 0.08,-0.03 0.08,-0.03 h 0.03 c 0,0 0.03,-0.01 0.03,-0.01 0.04,-0.01 0.09,-0.02 0.13,-0.03 h 0.01 c 0,0 0.03,0 0.03,0 h 0.03 c 0,0 0.08,-0.02 0.08,-0.02 h 0.03 c 0,0 0.08,-0.02 0.08,-0.02 h 0.06 c 0,0 0.08,-0.02 0.12,-0.03 h 0.06 c 0,0 0.12,-0.03 0.12,-0.03 h 0.05 c 0,0 0.09,-0.02 0.13,-0.02 h 0.03 c 0.05,0 0.1,-0.01 0.15,-0.02 h 0.02 c 0,0 0.01,0 0.01,0 0.05,0 0.1,0 0.15,0 h 0.03 c 0.05,0 0.11,0 0.17,0 v 0 c 0.06,0 0.12,0 0.18,0 h 0.09 c 0,0 0.02,0 0.02,0 h 0.1 c 0,0 0.01,0 0.01,0 h 0.04 c 0,0 0.03,0 0.03,0 h 0.03 c 0,0 0,0 0,0 h 0.02 c 0,0 0.06,0 0.06,0 h 0.03 c 0,0 0.03,0 0.03,0 h 0.06 c 0,0 0.02,0 0.02,0 v 0 c 0,0 0.03,0 0.03,0 h 0.03 c 0,0 0.03,0 0.03,0 h 0.03 c 0,0 0.03,0 0.03,0 h 0.03 c 0,0 0.06,0 0.06,0 h 0.03 c 0,0 0.03,0 0.03,0 h 0.06 c 0,0 0.03,0.01 0.03,0.01 h 0.09 c 0,0 0.03,0.01 0.03,0.01 h 0.09 c 0,0 0.03,0.02 0.03,0.02 0.23,0.04 0.45,0.09 0.67,0.15 0.59,0.16 1.17,0.39 1.72,0.71 0.14,0.08 0.27,0.16 0.4,0.25 l 0.02,0.02 0.02,0.02 0.02,0.02 0.02,0.02 v 0 c 0,0 0.02,0.02 0.02,0.02 l 0.02,0.02 h 0.02 c 0,0 0,0.02 0,0.02 0.64,0.46 1.2,1.02 1.66,1.65 l 0.04,0.06 v 0 c 0,0 0.02,0.03 0.02,0.03 l 0.02,0.02 0.02,0.02 c 0.1,0.15 0.19,0.3 0.28,0.45 0.31,0.54 0.55,1.11 0.71,1.69 v 0.03 c 0,0 0,0 0,0 v 0.03 c 0,0 0.01,0.03 0.01,0.03 v 0.03 c 0,0 0.01,0.03 0.01,0.03 v 0.03 c 0,0 0,0 0,0 v 0.03 c 0,0 0.01,0.03 0.01,0.03 v 0 c 0,0 0,0.03 0,0.03 v 0 c 0,0 0,0.03 0,0.03 v 0 0.03 c 0,0 0,0 0,0 v 0.03 c 0,0 0.01,0.03 0.01,0.03 v 0.06 c 0,0 0.01,0 0.01,0 v 0.03 c 0,0 0.02,0.06 0.02,0.06 v 0 c 0,0 0,0.03 0,0.03 v 0 c 0,0 0,0.03 0,0.03 v 0.03 c 0,0 0.01,0.03 0.01,0.03 v 0.03 c 0,0 0,0 0,0 v 0.03 c 0,0 0,0 0,0 v 0.03 c 0,0 0,0.03 0,0.03 v 0.03 c 0,0 0.01,0.03 0.01,0.03 v 0.03 c 0,0 0,0.03 0,0.03 v 0.03 c 0,0 0,0.03 0,0.03 v 0.03 c 0,0 0,0 0,0 v 0.03 0 0.03 c 0,0 0,0.03 0,0.03 v 0.03 c 0,0 0,0.03 0,0.03 v 0.03 c 0,0 0,0.03 0,0.03 v 0.03 c 0,0 0,0.03 0,0.03 v 0.03 c 0,0 0,0.03 0,0.03 v 0.03 c 0,0 0,0.03 0,0.03 v 0.03 c 0,0 0,0 0,0 v 0.03 c 0,0 0,0 0,0 v 0.03 c 0,0 0,0 0,0 v 0.03 c 0,0 0,0.03 0,0.03 v 0 c 0,0 0,0.03 0,0.03 v 0 c 0,0 0,0.03 0,0.03 v 0.03 c 0,0 0,0.03 0,0.03 v 0.03 c 0,0 0,0.03 0,0.03 v 0.03 c 0,0 0,0.03 0,0.03 v 0.06 c 0,0 0,0.03 0,0.03 v 0.03 c 0,0 0,0 0,0 z"
       id="path10" />
    <path
       class="cls-10"
       d="m 222.54,101.1 c 0,-0.11 0,-0.22 0,-0.32 l 0.85,-0.15 c -0.04,-0.56 -0.13,-1.1 -0.28,-1.62 l -0.85,0.15 c -0.06,-0.21 -0.14,-0.41 -0.22,-0.61 l 0.75,-0.43 c -0.22,-0.51 -0.5,-0.98 -0.82,-1.42 l -0.75,0.43 c -0.13,-0.17 -0.27,-0.34 -0.42,-0.5 l 0.56,-0.66 c -0.38,-0.39 -0.8,-0.75 -1.26,-1.06 l -0.37,0.44 -0.19,0.22 c -0.18,-0.12 -0.37,-0.22 -0.56,-0.32 l 0.3,-0.81 c -0.37,-0.18 -0.75,-0.34 -1.15,-0.45 -0.13,-0.04 -0.26,-0.07 -0.39,-0.11 l -0.28,0.78 v 0.04 c -0.22,-0.05 -0.44,-0.09 -0.65,-0.11 v -0.86 c -0.27,-0.03 -0.54,-0.05 -0.82,-0.05 -0.28,0 -0.55,0.02 -0.82,0.05 v 0.86 c -0.22,0.03 -0.43,0.06 -0.64,0.11 v -0.04 c 0,0 -0.3,-0.78 -0.3,-0.78 -0.13,0.03 -0.26,0.07 -0.39,0.11 -0.4,0.12 -0.78,0.27 -1.15,0.46 l 0.3,0.81 c -0.19,0.1 -0.38,0.21 -0.56,0.32 l -0.19,-0.22 -0.37,-0.44 c -0.46,0.31 -0.88,0.66 -1.26,1.06 l 0.56,0.66 c -0.15,0.16 -0.29,0.32 -0.42,0.5 L 210,96.71 c -0.32,0.44 -0.6,0.91 -0.82,1.42 l 0.75,0.43 c -0.08,0.2 -0.16,0.4 -0.22,0.61 l -0.85,-0.15 c -0.15,0.52 -0.25,1.06 -0.28,1.62 l 0.85,0.15 c 0,0.11 0,0.21 0,0.32 0,0.11 0,0.22 0,0.32 l -0.85,0.15 c 0.04,0.56 0.13,1.1 0.28,1.62 l 0.85,-0.15 c 0.06,0.21 0.14,0.41 0.22,0.61 l -0.75,0.43 c 0.22,0.51 0.5,0.98 0.82,1.42 l 0.75,-0.43 c 0.13,0.17 0.27,0.34 0.42,0.5 l -0.56,0.66 c 0.38,0.39 0.8,0.75 1.26,1.05 l 0.37,-0.44 0.18,-0.22 c 0.18,0.12 0.37,0.22 0.56,0.32 l -0.3,0.81 c 0.37,0.18 0.75,0.33 1.15,0.46 0.13,0.04 0.26,0.07 0.39,0.11 l 0.28,-0.78 v -0.04 c 0.22,0.05 0.44,0.09 0.65,0.11 v 0.87 c 0.27,0.03 0.54,0.05 0.82,0.05 0.28,0 0.55,-0.02 0.82,-0.05 v -0.87 c 0.22,-0.03 0.43,-0.07 0.64,-0.11 l 0.02,0.04 0.28,0.77 c 0.13,-0.03 0.26,-0.07 0.39,-0.11 0.4,-0.12 0.78,-0.27 1.15,-0.45 l -0.3,-0.81 c 0.19,-0.1 0.38,-0.21 0.56,-0.32 l 0.19,0.22 0.37,0.44 c 0.46,-0.3 0.88,-0.66 1.26,-1.05 l -0.56,-0.66 c 0.15,-0.16 0.29,-0.33 0.42,-0.5 l 0.75,0.43 c 0.32,-0.44 0.6,-0.91 0.82,-1.42 l -0.75,-0.43 c 0.08,-0.2 0.16,-0.4 0.22,-0.61 l 0.85,0.15 c 0.15,-0.52 0.25,-1.06 0.28,-1.62 l -0.85,-0.15 c 0,-0.11 0,-0.21 0,-0.32 z m -0.78,-0.36 h -4.04 c -0.01,-0.07 -0.03,-0.15 -0.06,-0.22 l 0.45,-0.26 1.6,-0.92 1.45,-0.84 c 0.34,0.68 0.55,1.44 0.6,2.24 z m -2.59,-4.49 c 0.19,0.13 0.37,0.26 0.54,0.41 0.42,0.36 0.79,0.77 1.1,1.23 l -1.1,0.63 -1.6,0.92 -0.67,0.39 -0.13,0.07 c -0.05,-0.06 -0.1,-0.11 -0.16,-0.16 l 0.29,-0.5 0.67,-1.17 1.06,-1.83 z m -2.85,-0.95 c 0.38,0.02 0.76,0.08 1.12,0.18 0.23,0.06 0.45,0.13 0.67,0.22 0.15,0.06 0.3,0.13 0.45,0.2 l -0.45,0.77 -0.67,1.17 -0.9,1.56 c -0.07,-0.02 -0.14,-0.04 -0.22,-0.06 z m -2.5,0.4 c 0.22,-0.09 0.44,-0.16 0.67,-0.22 0.36,-0.09 0.73,-0.15 1.12,-0.18 v 4.04 c -0.07,0.01 -0.15,0.03 -0.22,0.06 l -0.9,-1.56 -0.67,-1.16 -0.45,-0.78 c 0.15,-0.07 0.3,-0.14 0.45,-0.2 z m -1.6,0.96 c 0.17,-0.15 0.35,-0.28 0.54,-0.41 l 1.06,1.84 0.67,1.16 0.29,0.5 c -0.06,0.05 -0.11,0.1 -0.16,0.16 l -0.13,-0.07 -0.67,-0.39 -1.6,-0.92 -1.1,-0.63 c 0.31,-0.46 0.67,-0.88 1.1,-1.23 z m -1.45,1.84 1.45,0.84 1.6,0.92 0.45,0.26 c -0.03,0.07 -0.04,0.14 -0.06,0.22 h -4.04 c 0.05,-0.8 0.26,-1.56 0.6,-2.24 z m -0.6,2.95 h 4.04 c 0.01,0.07 0.03,0.15 0.06,0.22 l -0.45,0.26 -1.6,0.92 -1.45,0.84 c -0.34,-0.68 -0.55,-1.44 -0.6,-2.24 z m 2.59,4.49 c -0.19,-0.13 -0.37,-0.26 -0.54,-0.41 -0.42,-0.36 -0.79,-0.77 -1.1,-1.23 l 1.1,-0.63 1.6,-0.92 0.67,-0.39 0.13,-0.08 c 0.05,0.06 0.1,0.11 0.16,0.16 l -0.29,0.5 -0.67,1.16 z m 2.85,0.95 c -0.38,-0.02 -0.76,-0.08 -1.12,-0.18 -0.23,-0.06 -0.45,-0.13 -0.67,-0.22 -0.15,-0.06 -0.3,-0.13 -0.45,-0.2 l 0.45,-0.78 0.67,-1.16 0.9,-1.56 c 0.07,0.02 0.14,0.04 0.22,0.06 z m -0.83,-5.79 c 0,-0.65 0.53,-1.18 1.18,-1.18 0.65,0 1.18,0.53 1.18,1.18 0,0.65 -0.53,1.18 -1.18,1.18 -0.65,0 -1.18,-0.53 -1.18,-1.18 z m 3.33,5.39 c -0.22,0.09 -0.44,0.16 -0.67,0.22 -0.36,0.09 -0.73,0.15 -1.12,0.18 v -4.04 c 0.07,-0.01 0.15,-0.03 0.22,-0.06 l 0.9,1.56 0.67,1.17 0.45,0.77 c -0.15,0.07 -0.3,0.14 -0.45,0.2 z m 1.6,-0.96 c -0.17,0.15 -0.35,0.28 -0.54,0.41 l -1.06,-1.84 -0.67,-1.16 -0.29,-0.5 c 0.05,-0.05 0.11,-0.1 0.16,-0.16 l 0.13,0.08 0.67,0.39 1.6,0.92 1.1,0.63 c -0.3,0.46 -0.67,0.88 -1.1,1.23 z m 1.45,-1.84 -1.45,-0.84 -1.6,-0.92 -0.45,-0.26 c 0.02,-0.07 0.04,-0.14 0.06,-0.22 h 4.04 c -0.05,0.8 -0.26,1.56 -0.6,2.24 z"
       id="path11" />
    <path
       class="cls-10"
       d="m 169.69,30.87 c 0.05,0.28 0.12,0.54 0.21,0.8 l -1.11,0.64 c 0.12,0.3 0.26,0.6 0.43,0.89 0.17,0.29 0.35,0.56 0.55,0.81 l 1.12,-0.64 c 0.18,0.21 0.38,0.41 0.59,0.59 l -0.64,1.11 c 0.25,0.2 0.52,0.39 0.81,0.55 l 0.15,0.09 c 0.24,0.13 0.48,0.24 0.73,0.34 l 0.64,-1.11 c 0.26,0.09 0.53,0.16 0.8,0.21 v 1.29 c 0.32,0.05 0.65,0.07 0.98,0.07 0.33,0 0.66,-0.02 0.98,-0.07 v -1.29 c 0.28,-0.05 0.54,-0.12 0.8,-0.21 l 0.64,1.11 c 0.25,-0.1 0.49,-0.21 0.73,-0.34 l 0.15,-0.09 c 0.29,-0.17 0.56,-0.35 0.81,-0.55 l -0.64,-1.11 c 0.21,-0.18 0.41,-0.38 0.59,-0.59 l 1.11,0.64 c 0.2,-0.25 0.39,-0.53 0.55,-0.81 0.17,-0.29 0.31,-0.59 0.43,-0.89 l -1.11,-0.64 c 0.09,-0.26 0.16,-0.53 0.21,-0.8 h 1.29 c 0.05,-0.32 0.07,-0.65 0.07,-0.98 0,-0.33 -0.02,-0.66 -0.07,-0.98 h -1.29 c -0.05,-0.28 -0.12,-0.54 -0.21,-0.8 l 1.11,-0.64 c -0.12,-0.3 -0.26,-0.6 -0.43,-0.89 -0.17,-0.29 -0.35,-0.56 -0.55,-0.81 l -1.11,0.64 C 178.83,26.2 178.63,26 178.42,25.82 l 0.64,-1.11 c -0.25,-0.2 -0.52,-0.39 -0.81,-0.55 l -0.15,-0.09 c -0.24,-0.13 -0.48,-0.24 -0.73,-0.34 l -0.64,1.11 c -0.26,-0.09 -0.53,-0.16 -0.8,-0.22 v -1.29 c -0.32,-0.05 -0.65,-0.07 -0.98,-0.07 -0.33,0 -0.66,0.02 -0.98,0.07 v 1.29 c -0.28,0.05 -0.54,0.12 -0.8,0.21 l -0.64,-1.11 c -0.25,0.1 -0.49,0.21 -0.73,0.34 l -0.15,0.09 c -0.29,0.17 -0.56,0.35 -0.81,0.55 l 0.64,1.11 c -0.21,0.18 -0.41,0.38 -0.59,0.59 l -1.12,-0.64 c -0.2,0.25 -0.38,0.53 -0.55,0.81 -0.17,0.29 -0.31,0.59 -0.43,0.89 l 1.11,0.64 c -0.09,0.26 -0.16,0.53 -0.21,0.8 h -1.29 c -0.05,0.32 -0.07,0.65 -0.07,0.98 0,0.33 0.03,0.66 0.07,0.98 h 1.29 z m 8.43,-2.3 c 0.73,0 1.32,0.59 1.32,1.32 0,0.73 -0.59,1.32 -1.32,1.32 -0.73,0 -1.32,-0.59 -1.32,-1.32 0,-0.73 0.59,-1.32 1.32,-1.32 z m -3.16,-3.16 c 0.73,0 1.32,0.59 1.32,1.32 0,0.73 -0.59,1.32 -1.32,1.32 -0.73,0 -1.32,-0.59 -1.32,-1.32 0,-0.73 0.59,-1.32 1.32,-1.32 z m 0.88,4.48 c 0,0.49 -0.4,0.88 -0.88,0.88 -0.48,0 -0.88,-0.39 -0.88,-0.88 0,-0.49 0.4,-0.88 0.88,-0.88 0.48,0 0.88,0.39 0.88,0.88 z m -0.88,1.84 c 0.73,0 1.32,0.59 1.32,1.32 0,0.73 -0.59,1.32 -1.32,1.32 -0.73,0 -1.32,-0.59 -1.32,-1.32 0,-0.73 0.59,-1.32 1.32,-1.32 z m -3.16,-3.16 c 0.73,0 1.32,0.59 1.32,1.32 0,0.73 -0.59,1.32 -1.32,1.32 -0.73,0 -1.32,-0.59 -1.32,-1.32 0,-0.73 0.59,-1.32 1.32,-1.32 z"
       id="path12" />
    <path
       class="cls-4"
       d="m 154.68,24.18 c 0.04,0.22 0.1,0.44 0.17,0.65 l -0.9,0.52 c 0.1,0.24 0.21,0.48 0.35,0.72 0.13,0.23 0.28,0.45 0.45,0.66 l 0.9,-0.52 c 0.15,0.17 0.3,0.33 0.47,0.48 l -0.52,0.9 c 0.21,0.16 0.43,0.31 0.66,0.45 0.23,0.14 0.47,0.25 0.72,0.35 l 0.52,-0.9 c 0.21,0.07 0.43,0.13 0.65,0.17 v 1.04 c 0.26,0.04 0.52,0.06 0.79,0.06 0.27,0 0.53,-0.02 0.79,-0.06 v -1.04 c 0.22,-0.04 0.44,-0.1 0.65,-0.17 l 0.52,0.9 c 0.24,-0.1 0.48,-0.21 0.72,-0.35 0.23,-0.13 0.45,-0.28 0.66,-0.45 l -0.52,-0.9 c 0.17,-0.15 0.33,-0.3 0.47,-0.47 l 0.9,0.52 c 0.16,-0.21 0.31,-0.43 0.45,-0.66 0.13,-0.23 0.25,-0.47 0.35,-0.72 l -0.9,-0.52 c 0.07,-0.21 0.13,-0.43 0.17,-0.65 h 1.04 c 0.04,-0.26 0.06,-0.52 0.06,-0.79 0,-0.27 -0.02,-0.53 -0.06,-0.79 h -1.04 c -0.04,-0.22 -0.1,-0.44 -0.17,-0.65 l 0.9,-0.52 c -0.1,-0.24 -0.21,-0.48 -0.35,-0.72 -0.13,-0.23 -0.28,-0.45 -0.45,-0.66 l -0.9,0.52 c -0.15,-0.17 -0.3,-0.33 -0.47,-0.48 l 0.52,-0.9 c -0.21,-0.16 -0.42,-0.31 -0.66,-0.45 -0.23,-0.14 -0.47,-0.25 -0.72,-0.35 l -0.52,0.9 c -0.21,-0.07 -0.43,-0.13 -0.65,-0.17 v -1.04 c -0.26,-0.04 -0.53,-0.06 -0.79,-0.06 -0.26,0 -0.53,0.02 -0.79,0.06 v 1.04 c -0.22,0.04 -0.44,0.1 -0.65,0.17 l -0.52,-0.9 c -0.24,0.1 -0.48,0.21 -0.72,0.35 -0.23,0.13 -0.45,0.28 -0.66,0.45 l 0.52,0.9 c -0.17,0.15 -0.33,0.31 -0.47,0.48 l -0.9,-0.52 c -0.16,0.21 -0.31,0.42 -0.45,0.66 -0.14,0.23 -0.25,0.47 -0.35,0.72 l 0.9,0.52 c -0.07,0.21 -0.13,0.43 -0.17,0.65 h -1.04 c -0.04,0.26 -0.06,0.52 -0.06,0.79 0,0.27 0.02,0.53 0.06,0.79 h 1.04 z m 1.2,-0.73 v 0 -0.03 0 -0.03 0 -0.03 0 -0.03 0 -0.03 0 c 0,0 0,-0.02 0,-0.02 v 0 c 0,0 0,-0.04 0,-0.04 v 0 c 0,0 0,-0.06 0,-0.09 v 0 c 0,0 0,-0.03 0,-0.03 0,-0.02 0,-0.04 0,-0.06 0.02,-0.17 0.05,-0.33 0.09,-0.49 v 0 c 0,0 0,0 0,0 0.07,-0.25 0.17,-0.5 0.31,-0.74 0.04,-0.08 0.09,-0.15 0.14,-0.23 v 0 c 0,0 0,-0.02 0,-0.02 v 0 c 0,0 0,-0.01 0,-0.01 0.2,-0.28 0.45,-0.53 0.74,-0.73 v 0 c 0,0 0.04,-0.03 0.04,-0.03 l 0.03,-0.02 h 0.01 c 0,0 0.01,-0.01 0.01,-0.01 0.04,-0.03 0.09,-0.05 0.13,-0.08 0.19,-0.11 0.38,-0.19 0.57,-0.26 h 0.01 c 0,0 0.01,0 0.01,0 h 0.01 c 0,0 0.02,-0.01 0.02,-0.01 h 0.04 c 0,0 0,-0.01 0,-0.01 h 0.01 c 0,0 0.05,-0.02 0.05,-0.02 h 0.01 c 0,0 0.04,-0.01 0.04,-0.01 h 0.01 c 0,0 0.01,0 0.01,0 0.02,0 0.04,0 0.06,-0.01 v 0 c 0,0 0.01,0 0.01,0 h 0.01 c 0,0 0.04,-0.01 0.04,-0.01 h 0.01 c 0,0 0.03,0 0.03,0 h 0.02 c 0,0 0.03,0 0.05,-0.01 h 0.03 c 0,0 0.05,-0.01 0.05,-0.01 h 0.02 c 0,0 0.04,0 0.06,-0.01 h 0.01 c 0,0 0.04,0 0.07,0 h 0.01 c 0,0 0.04,0 0.07,0 h 0.01 c 0,0 0.05,0 0.07,0 v 0 c 0,0 0.05,0 0.08,0 h 0.09 c 0,0 0,0 0,0 h 0.05 c 0,0 0.01,0 0.01,0 h 0.02 c 0,0 0.01,0 0.01,0 h 0.01 c 0,0 0.03,0 0.03,0 v 0 c 0,0 0,0 0,0 h 0.01 c 0,0 0.01,0 0.01,0 h 0.03 c 0,0 0.01,0 0.01,0 h 0.01 c 0,0 0.03,0 0.03,0 h 0.01 c 0,0 0.01,0 0.01,0 h 0.02 c 0,0 0.01,0 0.01,0 h 0.04 c 0,0 0.01,0 0.01,0 h 0.04 c 0,0 0.01,0 0.01,0 0.1,0.02 0.19,0.04 0.29,0.06 0.25,0.07 0.5,0.17 0.74,0.31 0.06,0.03 0.12,0.07 0.17,0.11 h 0.01 c 0,0 0.01,0.01 0.01,0.01 h 0.01 c 0,0 0.01,0.01 0.01,0.01 v 0 c 0,0 0,0 0,0 h 0.01 c 0,0 0,0.01 0,0.01 v 0 c 0.27,0.2 0.52,0.44 0.71,0.71 l 0.02,0.03 v 0 c 0,0 0,0.02 0,0.02 v 0 c 0.04,0.07 0.08,0.14 0.12,0.2 0.13,0.23 0.24,0.48 0.3,0.73 v 0 c 0,0 0,0.02 0,0.02 v 0 c 0,0 0,0.02 0,0.02 v 0 c 0,0 0,0.01 0,0.01 v 0 c 0,0 0,0.02 0,0.02 v 0 c 0,0 0,0.02 0,0.02 v 0 c 0,0 0,0.01 0,0.01 v 0 c 0,0 0,0.02 0,0.02 v 0 c 0,0 0,0.04 0,0.04 v 0 c 0,0 0,0.04 0,0.04 v 0 c 0,0 0,0.02 0,0.02 v 0 c 0,0 0,0.01 0,0.01 v 0 c 0,0 0,0.02 0,0.02 v 0 c 0,0 0,0.02 0,0.02 v 0 c 0,0 0,0.02 0,0.02 v 0 c 0,0 0,0.02 0,0.02 v 0 c 0,0 0,0.02 0,0.02 v 0 c 0,0 0,0.02 0,0.02 v 0 c 0,0 0,0.03 0,0.03 v 0 c 0,0 0,0.02 0,0.02 v 0 c 0,0 0,0.03 0,0.03 v 0 c 0,0 0,0.02 0,0.02 v 0 c 0,0 0,0.02 0,0.02 v 0 0.03 0 c 0,0 0,0.02 0,0.02 v 0 c 0,0 0,0.01 0,0.01 v 0 0.02 0 c 0,0 0,0.03 0,0.03 v 0 0.03 0 0.03 0 0.03 0 c 0,0 0,0.02 0,0.02 v 0 0.03 0 0.03 0 0.03 0 0.03 0 0.03 0 0.03 0 c 0,0 0,0.04 0,0.04 v 0 c 0,0 0,0.06 0,0.09 v 0 c 0,0 0,0.02 0,0.02 0,0.02 0,0.04 0,0.06 -0.02,0.17 -0.05,0.33 -0.09,0.49 -0.07,0.25 -0.17,0.5 -0.31,0.74 -0.05,0.08 -0.1,0.16 -0.15,0.24 v 0 c 0,0 0,0.02 0,0.02 v 0 c -0.2,0.28 -0.45,0.53 -0.74,0.73 v 0 c 0,0 -0.04,0.03 -0.04,0.03 l -0.03,0.02 h -0.01 c 0,0 -0.01,0.01 -0.01,0.01 -0.04,0.03 -0.09,0.06 -0.13,0.08 -0.19,0.11 -0.38,0.19 -0.57,0.26 h -0.01 c 0,0 -0.01,0 -0.01,0 h -0.01 c 0,0 -0.02,0.01 -0.02,0.01 h -0.04 c 0,0 -0.01,0.01 -0.01,0.01 h -0.01 c 0,0 -0.04,0.02 -0.04,0.02 v 0 c 0,0 -0.01,0 -0.01,0 h -0.04 c 0,0 -0.01,0.01 -0.01,0.01 h -0.01 c 0,0 -0.04,0.01 -0.05,0.02 v 0 c 0,0 -0.01,0 -0.01,0 h -0.01 c 0,0 -0.04,0 -0.04,0 h -0.01 c 0,0 -0.03,0 -0.03,0 h -0.02 c 0,0 -0.03,0.01 -0.05,0.01 h -0.03 c 0,0 -0.05,0.01 -0.05,0.01 h -0.02 c 0,0 -0.04,0 -0.06,0.01 h -0.01 c 0,0 -0.04,0 -0.07,0 h -0.01 c 0,0 -0.04,0 -0.07,0 h -0.01 c 0,0 -0.05,0 -0.07,0 v 0 c 0,0 -0.05,0 -0.08,0 h -0.04 c 0,0 -0.01,0 -0.01,0 h -0.04 c 0,0 0,0 0,0 h -0.03 c 0,0 -0.01,0 -0.01,0 h -0.01 c 0,0 -0.02,0 -0.02,0 h -0.03 c 0,0 -0.03,0 -0.03,0 h -0.02 c 0,0 -0.01,0 -0.01,0 h -0.01 c 0,0 -0.01,0 -0.01,0 h -0.01 c 0,0 -0.01,0 -0.01,0 h -0.02 c 0,0 -0.01,0 -0.01,0 h -0.01 c 0,0 -0.03,0 -0.03,0 h -0.01 c 0,0 -0.04,0 -0.04,0 h -0.01 c 0,0 -0.04,0 -0.04,0 h -0.01 c -0.1,-0.02 -0.2,-0.04 -0.29,-0.06 v 0 c -0.25,-0.07 -0.5,-0.17 -0.74,-0.31 -0.08,-0.04 -0.15,-0.09 -0.23,-0.14 h -0.01 c 0,0 0,-0.01 0,-0.01 H 157 c 0,0 -0.01,-0.01 -0.01,-0.01 v 0 c -0.26,-0.2 -0.5,-0.43 -0.69,-0.7 l -0.02,-0.03 v 0 c 0,0 0,-0.01 0,-0.01 v 0 c 0,0 0,-0.02 0,-0.02 -0.04,-0.06 -0.08,-0.13 -0.12,-0.19 -0.13,-0.23 -0.24,-0.48 -0.3,-0.73 v 0 c 0,0 0,-0.01 0,-0.01 v 0 c 0,0 0,-0.02 0,-0.02 v 0 c 0,0 0,-0.01 0,-0.01 v 0 c 0,0 0,-0.02 0,-0.02 v 0 c 0,0 0,-0.02 0,-0.02 v 0 c 0,0 0,-0.02 0,-0.02 v 0 c 0,0 0,-0.02 0,-0.02 v 0 c 0,0 0,-0.01 0,-0.01 v 0 c 0,0 0,-0.02 0,-0.02 v 0 c 0,0 0,-0.02 0,-0.02 v 0 c 0,0 0,-0.01 0,-0.01 v 0 c 0,0 0,-0.01 0,-0.01 v 0 c 0,0 0,-0.02 0,-0.02 v 0 c 0,0 0,-0.02 0,-0.02 v 0 c 0,0 0,-0.01 0,-0.01 v 0 c 0,0 0,-0.01 0,-0.01 v 0 c 0,0 0,-0.02 0,-0.02 v 0 c 0,0 0,-0.01 0,-0.01 v 0 c 0,0 0,-0.02 0,-0.02 v 0 c 0,0 0,-0.01 0,-0.01 v 0 c 0,0 0,-0.02 0,-0.02 v 0 c 0,0 0,-0.03 0,-0.03 v 0 c 0,0 0,-0.02 0,-0.02 v 0 c 0,0 0,-0.02 0,-0.02 v 0 c 0,0 0,-0.02 0,-0.02 v 0 c 0,0 0,-0.03 0,-0.03 v 0 c 0,0 0,-0.02 0,-0.02 v 0 c 0,0 0,-0.03 0,-0.03 v 0 c 0,0 0,-0.02 0,-0.02 v 0 c 0,0 0,-0.01 0,-0.01 v 0 c 0,0 0,-0.03 0,-0.03 v 0 c 0,0 0,-0.02 0,-0.02 v 0 c 0,0 0,-0.03 0,-0.03 v 0 -0.03 0 -0.03 z"
       id="path13" />
    <path
       class="cls-10"
       d="m 189.63,120.62 c -0.03,-0.19 -0.08,-0.38 -0.13,-0.56 l -1.46,0.26 c -0.04,-0.14 -0.1,-0.29 -0.15,-0.42 l 1.28,-0.74 c -0.07,-0.17 -0.16,-0.34 -0.26,-0.51 -0.1,-0.17 -0.2,-0.33 -0.32,-0.48 l -1.28,0.74 c -0.09,-0.12 -0.19,-0.24 -0.29,-0.35 l 0.95,-1.14 c -0.13,-0.14 -0.27,-0.27 -0.42,-0.39 -0.15,-0.13 -0.3,-0.24 -0.46,-0.34 l -0.95,1.13 c -0.13,-0.08 -0.26,-0.16 -0.39,-0.23 l 0.51,-1.39 c -0.17,-0.09 -0.34,-0.16 -0.53,-0.23 -0.18,-0.07 -0.37,-0.12 -0.55,-0.16 l -0.51,1.39 c -0.15,-0.03 -0.29,-0.06 -0.45,-0.08 v -1.48 c -0.19,-0.02 -0.38,-0.04 -0.57,-0.04 -0.19,0 -0.38,0.01 -0.57,0.04 v 1.48 c -0.15,0.02 -0.3,0.04 -0.45,0.08 l -0.51,-1.39 c -0.18,0.04 -0.37,0.1 -0.55,0.16 -0.18,0.07 -0.36,0.14 -0.53,0.23 l 0.51,1.39 c -0.14,0.07 -0.27,0.14 -0.39,0.23 l -0.95,-1.14 c -0.16,0.1 -0.31,0.22 -0.46,0.34 -0.15,0.13 -0.29,0.26 -0.42,0.39 l 0.95,1.14 c -0.1,0.11 -0.2,0.23 -0.29,0.35 l -1.28,-0.74 c -0.11,0.15 -0.22,0.31 -0.32,0.48 -0.1,0.17 -0.18,0.34 -0.26,0.51 l 1.28,0.74 c -0.06,0.14 -0.11,0.28 -0.15,0.42 l -1.46,-0.26 c -0.06,0.18 -0.1,0.37 -0.13,0.56 -0.03,0.19 -0.05,0.38 -0.06,0.57 l 1.46,0.26 c 0,0.07 0,0.15 0,0.23 0,0.08 0,0.15 0,0.23 l -1.46,0.26 c 0,0.19 0.03,0.38 0.06,0.57 0.03,0.19 0.08,0.38 0.13,0.56 l 1.46,-0.26 c 0.04,0.14 0.1,0.29 0.15,0.43 l -1.28,0.74 c 0.07,0.17 0.16,0.35 0.26,0.51 0.1,0.17 0.2,0.33 0.32,0.48 l 1.28,-0.74 c 0.09,0.12 0.19,0.24 0.29,0.35 l -0.95,1.13 c 0.13,0.14 0.27,0.27 0.42,0.39 0.15,0.13 0.3,0.24 0.46,0.34 l 0.95,-1.13 c 0.13,0.08 0.26,0.16 0.39,0.23 l -0.51,1.39 c 0.17,0.09 0.34,0.16 0.53,0.23 0.18,0.07 0.37,0.12 0.55,0.16 l 0.51,-1.39 c 0.15,0.03 0.29,0.06 0.45,0.08 v 1.48 c 0.19,0.02 0.38,0.04 0.57,0.04 0.19,0 0.39,-0.01 0.57,-0.04 v -1.48 c 0.15,-0.02 0.3,-0.05 0.45,-0.08 l 0.51,1.39 c 0.18,-0.04 0.37,-0.1 0.55,-0.16 0.18,-0.07 0.36,-0.14 0.53,-0.23 l -0.51,-1.39 c 0.13,-0.07 0.26,-0.14 0.39,-0.23 l 0.95,1.13 c 0.16,-0.1 0.31,-0.22 0.46,-0.34 0.15,-0.12 0.29,-0.26 0.42,-0.39 l -0.95,-1.13 c 0.1,-0.11 0.2,-0.23 0.29,-0.35 l 1.28,0.74 c 0.11,-0.15 0.22,-0.31 0.32,-0.48 0.1,-0.17 0.18,-0.34 0.26,-0.51 l -1.28,-0.74 c 0.06,-0.14 0.11,-0.28 0.15,-0.43 l 1.46,0.26 c 0.06,-0.18 0.1,-0.37 0.13,-0.56 0.03,-0.19 0.05,-0.38 0.06,-0.57 l -1.46,-0.26 c 0,-0.07 0,-0.15 0,-0.23 0,-0.08 0,-0.15 0,-0.23 l 1.46,-0.26 c 0,-0.19 -0.03,-0.38 -0.06,-0.57 z m -5.98,3.82 c -1.53,0 -2.77,-1.24 -2.77,-2.77 0,-1.53 1.24,-2.77 2.77,-2.77 1.53,0 2.77,1.24 2.77,2.77 0,1.53 -1.24,2.77 -2.77,2.77 z"
       id="path14" />
    <path
       class="cls-10"
       d="m 135.67,45.95 c 0.24,0.05 0.48,0.1 0.72,0.12 l 0.25,-1.05 c 0.07,0 0.15,0 0.22,0 0.16,0 0.32,0 0.48,-0.03 l 0.31,1.04 c 0.27,-0.04 0.54,-0.1 0.81,-0.18 0.27,-0.08 0.53,-0.18 0.77,-0.29 l -0.31,-1.04 c 0.17,-0.09 0.33,-0.19 0.49,-0.29 l 0.11,-0.07 0.79,0.74 c 0.21,-0.17 0.42,-0.35 0.61,-0.56 0.19,-0.2 0.37,-0.42 0.52,-0.64 l -0.79,-0.74 c 0.13,-0.2 0.24,-0.4 0.33,-0.62 l 1.05,0.25 c 0.1,-0.25 0.19,-0.52 0.25,-0.79 0.06,-0.27 0.11,-0.55 0.13,-0.82 l -1.05,-0.25 c 0.01,-0.23 0,-0.46 -0.02,-0.7 l 1.04,-0.31 c -0.04,-0.27 -0.1,-0.54 -0.18,-0.81 -0.08,-0.27 -0.18,-0.53 -0.29,-0.78 l -1.04,0.31 c -0.11,-0.21 -0.23,-0.41 -0.37,-0.6 l 0.74,-0.79 c -0.17,-0.21 -0.35,-0.42 -0.56,-0.61 -0.2,-0.19 -0.42,-0.37 -0.64,-0.52 l -0.64,0.68 -0.1,0.11 c -0.2,-0.13 -0.4,-0.24 -0.62,-0.33 l 0.25,-1.05 c -0.25,-0.1 -0.52,-0.19 -0.79,-0.25 -0.27,-0.06 -0.55,-0.11 -0.82,-0.13 L 137.07,36 c -0.07,0 -0.15,0 -0.22,0 -0.16,0 -0.32,0 -0.48,0.03 l -0.31,-1.04 c -0.13,0.02 -0.27,0.06 -0.4,0.09 v 0 c 0,0 -0.27,0.06 -0.27,0.39 v 1.11 c 0,0.56 0.3,0.34 0.3,0.34 v 0.03 c 0,0 0.06,-0.03 0.09,-0.04 0.39,-0.12 0.8,0 1.08,0.26 0.14,0.13 0.25,0.3 0.3,0.49 0.13,0.42 0,0.85 -0.3,1.13 -0.12,0.11 -0.27,0.2 -0.44,0.25 -0.22,0.07 -0.44,0.04 -0.64,-0.03 -0.01,0 -0.02,0.01 -0.03,0 -0.35,-0.07 -0.35,0.33 -0.35,0.33 v 1.88 c 0,0.08 0.01,0.16 0,0.23 v 3.9 c 0,0.45 0.23,0.58 0.27,0.61 z m 3.43,-7.26 c 0.11,-0.03 0.21,-0.05 0.32,-0.05 0.48,0 0.92,0.31 1.07,0.79 0.18,0.59 -0.16,1.21 -0.75,1.38 -0.11,0.03 -0.21,0.05 -0.32,0.05 -0.48,0 -0.92,-0.31 -1.06,-0.79 -0.18,-0.59 0.16,-1.21 0.75,-1.38 z m -0.41,4.05 c 0.17,0.59 -0.16,1.21 -0.75,1.38 -0.39,0.12 -0.8,0 -1.08,-0.25 -0.14,-0.13 -0.25,-0.3 -0.3,-0.49 -0.13,-0.42 0,-0.85 0.3,-1.13 0.12,-0.11 0.27,-0.2 0.44,-0.26 0.59,-0.17 1.21,0.16 1.38,0.75 z m -2.04,-2.94 c 0.07,-0.02 0.14,-0.03 0.21,-0.03 0.32,0 0.62,0.21 0.71,0.53 0.12,0.39 -0.11,0.81 -0.5,0.92 -0.07,0.02 -0.14,0.03 -0.21,0.03 -0.32,0 -0.61,-0.21 -0.71,-0.53 -0.12,-0.39 0.11,-0.81 0.5,-0.92 z"
       id="path15" />
    <path
       class="cls-10"
       d="m 135.66,31.02 1.03,-1.23 c 0.15,0.1 0.3,0.19 0.46,0.27 l -0.6,1.64 c 0.2,0.1 0.41,0.19 0.62,0.27 0.21,0.08 0.43,0.14 0.65,0.19 l 0.6,-1.64 c 0.17,0.04 0.35,0.07 0.52,0.09 v 1.75 c 0.22,0.03 0.45,0.04 0.68,0.04 0.23,0 0.45,-0.01 0.67,-0.04 v -1.75 c 0.18,-0.02 0.35,-0.05 0.52,-0.09 l 0.6,1.64 c 0.22,-0.05 0.43,-0.11 0.65,-0.19 0.21,-0.08 0.42,-0.17 0.62,-0.27 l -0.6,-1.64 c 0.16,-0.08 0.31,-0.17 0.46,-0.27 l 1.12,1.34 c 0.19,-0.12 0.37,-0.26 0.54,-0.4 0.18,-0.15 0.34,-0.3 0.49,-0.46 l -1.12,-1.34 c 0.12,-0.13 0.24,-0.27 0.34,-0.41 l 1.51,0.87 c 0.13,-0.18 0.26,-0.37 0.37,-0.56 0.11,-0.2 0.21,-0.4 0.3,-0.61 l -1.51,-0.87 c 0.07,-0.16 0.13,-0.33 0.18,-0.5 l 1.72,0.3 c 0.06,-0.21 0.12,-0.43 0.16,-0.66 0.04,-0.23 0.07,-0.45 0.08,-0.67 L 145,25.52 c 0,-0.09 0,-0.18 0,-0.27 0,-0.09 0,-0.18 0,-0.27 l 1.72,-0.3 c -0.01,-0.22 -0.04,-0.45 -0.08,-0.67 -0.04,-0.22 -0.09,-0.45 -0.16,-0.66 l -1.72,0.3 c -0.05,-0.17 -0.11,-0.34 -0.18,-0.5 l 1.51,-0.87 c -0.09,-0.2 -0.19,-0.41 -0.3,-0.61 -0.11,-0.2 -0.24,-0.38 -0.37,-0.56 l -1.51,0.87 c -0.11,-0.14 -0.22,-0.28 -0.34,-0.41 l 1.12,-1.34 c -0.15,-0.16 -0.32,-0.32 -0.49,-0.47 -0.17,-0.15 -0.36,-0.28 -0.54,-0.4 l -1.12,1.34 c -0.15,-0.1 -0.3,-0.19 -0.46,-0.27 l 0.6,-1.64 c -0.2,-0.1 -0.4,-0.19 -0.62,-0.27 -0.21,-0.08 -0.43,-0.14 -0.65,-0.19 l -0.6,1.64 c -0.17,-0.04 -0.35,-0.07 -0.52,-0.09 v -1.75 c -0.22,-0.03 -0.45,-0.04 -0.67,-0.04 -0.22,0 -0.45,0.01 -0.68,0.04 v 1.75 c -0.18,0.02 -0.35,0.05 -0.52,0.09 l -0.6,-1.64 c -0.22,0.05 -0.43,0.11 -0.65,0.19 -0.21,0.08 -0.42,0.17 -0.62,0.27 l 0.6,1.64 c -0.16,0.08 -0.31,0.17 -0.46,0.27 l -1.12,-1.34 c 0,0 -0.06,0.05 -0.09,0.07 0,0 -0.07,0.05 -0.07,0.25 v 1.33 c 0,0.22 0.08,0.35 0.1,0.35 h -0.02 l 0.17,0.2 c -0.06,0.06 -0.11,0.13 -0.17,0.2 -0.08,0.1 -0.09,0.27 -0.09,0.27 v 6.32 c 0,0.24 0.08,0.35 0.09,0.36 0.05,0.07 0.11,0.13 0.16,0.19 l -0.15,0.18 c 0,0 -0.1,0.12 -0.1,0.33 v 1.31 c 0,0.37 0.26,0.27 0.26,0.27 z m 3.96,-9.03 c 1.8,0 3.27,1.46 3.27,3.26 0,1.8 -1.46,3.27 -3.27,3.27 -1.81,0 -3.27,-1.46 -3.27,-3.27 0,-1.81 1.46,-3.26 3.27,-3.26 z"
       id="path16" />
    <path
       class="cls-3"
       d="m 136.09,123.32 c 0.57,-0.03 1.14,-0.07 1.7,-0.13 v -4.36 c 1.09,-0.14 2.16,-0.33 3.22,-0.56 l 0.07,0.2 1.42,3.9 c 0.66,-0.16 1.32,-0.34 1.96,-0.53 2.01,-0.6 3.95,-1.38 5.8,-2.29 l -1.49,-4.1 c 0.97,-0.5 1.91,-1.05 2.82,-1.63 l 0.93,1.11 1.87,2.23 c 2.3,-1.54 4.42,-3.32 6.33,-5.31 l -2.8,-3.34 c 0.74,-0.8 1.44,-1.63 2.1,-2.5 l 3.77,2.18 c 1.63,-2.21 3.02,-4.61 4.14,-7.15 l -3.77,-2.18 c 0.42,-1 0.79,-2.02 1.12,-3.07 l 4.29,0.76 c 0.76,-2.61 1.25,-5.33 1.43,-8.14 l -4.29,-0.76 c 0.03,-0.54 0.04,-1.08 0.04,-1.63 0,-0.55 -0.01,-1.09 -0.04,-1.63 L 171,83.63 c -0.18,-2.81 -0.66,-5.53 -1.43,-8.14 l -4.29,0.76 c -0.32,-1.05 -0.7,-2.07 -1.12,-3.07 L 167.93,71 c -1.12,-2.55 -2.51,-4.94 -4.14,-7.15 l -3.77,2.18 c -0.66,-0.87 -1.36,-1.7 -2.1,-2.5 l 2.8,-3.34 c -1.9,-2 -4.03,-3.78 -6.33,-5.31 l -1.87,2.23 -0.93,1.11 c -0.91,-0.59 -1.85,-1.13 -2.82,-1.63 l 1.49,-4.09 c -1.85,-0.92 -3.79,-1.69 -5.8,-2.29 -0.65,-0.19 -1.3,-0.37 -1.96,-0.53 l -1.42,3.9 -0.07,0.19 c -1.05,-0.24 -2.13,-0.43 -3.22,-0.56 v -3.68 c 0,-0.53 -0.23,-0.67 -0.37,-0.71 -0.48,-0.05 -0.95,-0.08 -1.44,-0.11 -0.52,0 -0.58,0.43 -0.58,0.43 v 7.06 c 0.05,0.63 0.55,0.68 0.55,0.68 l -0.02,0.02 c 1.76,0.14 3.48,0.41 5.14,0.84 1.16,0.3 2.29,0.67 3.38,1.11 0.77,0.31 1.52,0.64 2.25,1.01 l -2.25,3.9 -3.38,5.86 -4.54,7.86 c -0.25,-0.08 -0.51,-0.14 -0.77,-0.21 -0.37,-0.05 -0.37,0.33 -0.37,0.33 v 2.27 c 0,0.59 0.35,0.61 0.35,0.61 0,0 -0.01,0.01 -0.01,0.01 2.25,0.85 3.87,2.98 3.87,5.52 0,2.54 -1.64,4.71 -3.91,5.54 -0.01,0 0,0.02 -0.02,0.03 -0.22,0.07 -0.26,0.17 -0.27,0.24 v 2.64 c 0,0.29 0.18,0.33 0.27,0.33 0.29,-0.07 0.59,-0.14 0.87,-0.23 l 4.54,7.86 3.38,5.86 2.25,3.9 c -0.73,0.37 -1.48,0.7 -2.25,1.01 -1.1,0.44 -2.23,0.81 -3.38,1.11 -1.67,0.44 -3.4,0.71 -5.17,0.84 v 0 c 0,0 -0.51,0.01 -0.51,0.92 v 6.65 c 0.01,0.21 0.13,0.61 0.68,0.61 z m 23.75,-24.26 -7.3,-4.22 -8.07,-4.66 -2.25,-1.3 c 0.12,-0.36 0.22,-0.72 0.29,-1.1 h 20.35 c -0.24,4.03 -1.3,7.84 -3.02,11.27 z m 3.01,-14.84 h -20.34 c -0.07,-0.37 -0.17,-0.74 -0.29,-1.1 l 2.25,-1.3 8.07,-4.66 7.3,-4.22 c 1.71,3.43 2.77,7.24 3.02,11.27 z m -21.77,-7.5 3.38,-5.86 5.34,-9.24 c 0.95,0.63 1.86,1.31 2.73,2.05 2.12,1.79 3.98,3.88 5.52,6.2 l -5.52,3.19 -8.07,4.66 -3.38,1.95 -0.65,0.38 c -0.25,-0.28 -0.52,-0.55 -0.8,-0.8 l 1.45,-2.52 z m 3.38,24.43 -3.38,-5.86 -1.45,-2.52 c 0.28,-0.25 0.55,-0.52 0.8,-0.8 l 0.65,0.38 3.38,1.95 8.07,4.66 5.52,3.19 c -1.54,2.32 -3.4,4.41 -5.52,6.2 -0.87,0.73 -1.78,1.42 -2.73,2.05 l -5.34,-9.24 z"
       id="path17" />
    <path
       class="cls-10"
       d="m 136.25,143.91 1.44,-0.83 c 0.12,0.12 0.25,0.24 0.38,0.35 0.24,0.21 0.5,0.41 0.76,0.59 0.67,0.46 1.41,0.83 2.2,1.09 0.12,0.04 0.24,0.08 0.37,0.11 v 2.67 c 0.77,0.16 1.57,0.25 2.39,0.25 0.82,0 1.62,-0.09 2.39,-0.25 v -2.67 c 0.12,-0.04 0.25,-0.07 0.37,-0.11 0.79,-0.26 1.53,-0.63 2.2,-1.09 0.27,-0.18 0.52,-0.38 0.77,-0.59 0.13,-0.11 0.26,-0.23 0.38,-0.35 l 2.32,1.34 c 0.53,-0.58 1,-1.23 1.41,-1.94 0.41,-0.71 0.73,-1.44 0.98,-2.19 l -2.32,-1.34 c 0.17,-0.69 0.26,-1.4 0.26,-2.14 0,-0.74 -0.09,-1.46 -0.26,-2.15 l 2.32,-1.34 c -0.24,-0.75 -0.57,-1.49 -0.98,-2.19 -0.41,-0.71 -0.88,-1.36 -1.41,-1.94 l -2.32,1.34 c -0.12,-0.12 -0.25,-0.24 -0.38,-0.35 -0.24,-0.21 -0.5,-0.41 -0.77,-0.59 -0.67,-0.46 -1.41,-0.83 -2.2,-1.09 -0.12,-0.04 -0.25,-0.08 -0.37,-0.11 v -2.67 c -0.77,-0.17 -1.57,-0.25 -2.39,-0.25 -0.82,0 -1.62,0.09 -2.39,0.25 v 2.67 c -0.12,0.04 -0.25,0.07 -0.37,0.11 -0.79,0.26 -1.53,0.63 -2.2,1.09 -0.27,0.18 -0.52,0.38 -0.76,0.59 -0.13,0.11 -0.26,0.23 -0.38,0.35 l -1.7,-0.98 c 0,0 -0.58,-0.3 -0.58,1.03 v 12.9 c 0.02,0.3 0.14,0.84 0.85,0.44 z m 2.97,-3.57 c -0.12,0.07 -0.25,0.1 -0.39,0.1 -0.27,0 -0.53,-0.14 -0.67,-0.39 -0.05,-0.09 -0.08,-0.19 -0.1,-0.28 -0.01,-0.07 0,-0.14 0,-0.2 0.03,-0.23 0.16,-0.44 0.38,-0.57 0.12,-0.07 0.25,-0.1 0.39,-0.1 0.27,0 0.53,0.14 0.67,0.39 0.21,0.37 0.09,0.84 -0.28,1.05 z m 4.57,2.96 c -0.43,0 -0.77,-0.35 -0.77,-0.77 0,-0.42 0.34,-0.77 0.77,-0.77 0.43,0 0.77,0.34 0.77,0.77 0,0.43 -0.35,0.77 -0.77,0.77 z m 2.98,-1.07 c -0.07,0.04 -0.15,0.06 -0.23,0.06 -0.17,0 -0.33,-0.09 -0.41,-0.24 -0.13,-0.23 -0.04,-0.51 0.18,-0.64 0.07,-0.04 0.15,-0.06 0.23,-0.06 0.17,0 0.32,0.09 0.41,0.24 0.12,0.23 0.04,0.51 -0.19,0.64 z m 3.15,-5.53 c 0.13,0.23 0.04,0.51 -0.18,0.64 -0.07,0.04 -0.15,0.06 -0.23,0.06 -0.17,0 -0.33,-0.09 -0.41,-0.24 -0.13,-0.23 -0.04,-0.51 0.18,-0.64 0.07,-0.04 0.15,-0.06 0.23,-0.06 0.17,0 0.32,0.09 0.41,0.24 z m -1.57,-3.42 c 0.12,-0.07 0.26,-0.1 0.39,-0.1 0.27,0 0.53,0.14 0.67,0.39 0.05,0.09 0.08,0.19 0.1,0.28 0,0.07 0,0.14 0,0.2 -0.03,0.23 -0.16,0.44 -0.38,0.57 -0.12,0.07 -0.25,0.1 -0.39,0.1 -0.27,0 -0.53,-0.14 -0.67,-0.38 -0.21,-0.37 -0.09,-0.84 0.28,-1.05 z m -0.28,6 c 0.14,-0.25 0.4,-0.38 0.67,-0.38 0.13,0 0.26,0.03 0.39,0.1 0.22,0.13 0.35,0.34 0.38,0.57 0,0.07 0,0.14 0,0.2 -0.01,0.1 -0.05,0.19 -0.1,0.28 -0.14,0.25 -0.4,0.39 -0.67,0.39 -0.13,0 -0.26,-0.03 -0.39,-0.1 -0.37,-0.21 -0.49,-0.69 -0.28,-1.05 z m -1.55,-7.78 h 0.02 c 0.22,-0.12 0.5,-0.04 0.62,0.19 0.13,0.23 0.04,0.51 -0.19,0.64 -0.14,0.08 -0.3,0.08 -0.43,0.01 -0.08,-0.04 -0.16,-0.11 -0.21,-0.2 -0.12,-0.23 -0.04,-0.51 0.19,-0.64 z m -2.73,-1.19 c 0.43,0 0.77,0.34 0.77,0.77 0,0.43 -0.34,0.77 -0.77,0.77 -0.43,0 -0.77,-0.35 -0.77,-0.77 0,-0.42 0.34,-0.77 0.77,-0.77 z m 0,3.86 c 1.46,0 2.64,1.18 2.64,2.64 0,1.46 -1.18,2.64 -2.64,2.64 -1.46,0 -2.64,-1.18 -2.64,-2.64 0,-1.46 1.18,-2.64 2.64,-2.64 z m -2.99,-2.79 c 0.07,-0.04 0.15,-0.06 0.23,-0.06 0.17,0 0.33,0.09 0.41,0.24 0.13,0.23 0.04,0.51 -0.19,0.64 -0.07,0.04 -0.15,0.06 -0.23,0.06 -0.17,0 -0.33,-0.09 -0.41,-0.24 -0.13,-0.23 -0.04,-0.51 0.18,-0.64 z m -0.2,9.91 c 0.14,-0.08 0.3,-0.08 0.43,-0.01 0.08,0.04 0.16,0.11 0.21,0.2 0.12,0.23 0.04,0.51 -0.18,0.64 h -0.02 c -0.22,0.12 -0.5,0.04 -0.62,-0.19 -0.12,-0.23 -0.04,-0.51 0.19,-0.64 z m -2.53,-7.45 c 0.01,-0.1 0.04,-0.19 0.1,-0.28 0.14,-0.25 0.4,-0.39 0.67,-0.39 0.13,0 0.26,0.03 0.39,0.1 0.37,0.21 0.5,0.68 0.28,1.05 -0.14,0.25 -0.4,0.38 -0.67,0.38 -0.13,0 -0.26,-0.03 -0.39,-0.1 -0.22,-0.13 -0.35,-0.34 -0.38,-0.57 0,-0.07 -0.01,-0.14 0,-0.2 z m -0.23,2.44 c 0.07,-0.04 0.15,-0.06 0.23,-0.06 0.17,0 0.33,0.09 0.41,0.24 0.12,0.23 0.04,0.51 -0.19,0.64 -0.07,0.04 -0.15,0.06 -0.23,0.06 -0.17,0 -0.33,-0.09 -0.41,-0.24 -0.12,-0.23 -0.04,-0.51 0.19,-0.64 z"
       id="path18" />
    <path
       class="cls-2"
       d="m 171.45,167.71 c -0.17,-0.9 -0.4,-1.78 -0.7,-2.63 l 3.64,-2.1 c -0.39,-0.98 -0.85,-1.95 -1.4,-2.9 -0.55,-0.95 -1.15,-1.83 -1.81,-2.66 l -3.65,2.1 c -0.59,-0.69 -1.23,-1.33 -1.92,-1.92 l 2.1,-3.65 c -0.83,-0.66 -1.72,-1.26 -2.66,-1.81 -0.94,-0.55 -1.91,-1.01 -2.9,-1.4 l -2.1,3.64 c -0.85,-0.3 -1.72,-0.54 -2.63,-0.7 v -4.21 c -1.05,-0.16 -2.12,-0.24 -3.21,-0.24 -1.09,0 -2.16,0.08 -3.21,0.24 v 4.21 c -0.9,0.17 -1.78,0.4 -2.63,0.7 l -2.1,-3.64 c -0.98,0.39 -1.95,0.85 -2.9,1.4 -0.94,0.55 -1.83,1.15 -2.66,1.81 l 2.11,3.65 c -0.69,0.59 -1.33,1.23 -1.92,1.92 l -3.65,-2.1 c -0.55,0.69 -1.04,1.45 -1.51,2.22 -0.11,0.3 -0.35,1.05 -0.35,1.61 v 1.58 c 0,0.86 0.71,1.34 0.71,1.34 v 0 c 0,0 1.58,0.91 1.58,0.91 -0.3,0.85 -0.53,1.72 -0.7,2.63 h -0.87 c 0,0 -0.71,0.05 -0.71,1.27 v 4.16 c 0.02,0.32 0.14,0.95 0.85,0.99 h 0.74 c 0.17,0.9 0.4,1.78 0.7,2.63 l -1.63,0.94 c 0,0 -0.66,0.62 -0.66,1.75 v 1.19 c 0,0 -0.02,0.77 0.44,1.7 0.45,0.72 0.9,1.44 1.42,2.09 l 3.64,-2.11 c 0.59,0.69 1.23,1.33 1.92,1.92 l -1.65,2.86 c -0.11,0.24 -0.23,0.74 0.28,1.29 0.62,0.46 1.24,0.92 1.93,1.31 0.94,0.55 1.91,1.01 2.9,1.4 l 2.1,-3.64 c 0.85,0.3 1.72,0.54 2.63,0.7 v 4.21 c 1.05,0.16 2.12,0.24 3.21,0.24 1.09,0 2.16,-0.08 3.21,-0.24 v -4.21 c 0.9,-0.17 1.78,-0.4 2.63,-0.7 l 2.1,3.64 c 0.99,-0.39 1.95,-0.85 2.9,-1.4 0.94,-0.54 1.83,-1.15 2.66,-1.81 l -2.1,-3.65 c 0.69,-0.59 1.33,-1.23 1.92,-1.92 l 3.65,2.11 c 0.66,-0.83 1.27,-1.72 1.81,-2.66 0.54,-0.94 1.01,-1.91 1.4,-2.9 l -3.64,-2.1 c 0.3,-0.85 0.53,-1.72 0.7,-2.63 h 4.21 c 0.15,-1.05 0.24,-2.12 0.24,-3.21 0,-1.09 -0.08,-2.16 -0.24,-3.21 h -4.21 z m -4.83,3.26 v 0 0.16 c 0,0 0,0.05 0,0.05 v 0.05 c 0,0 0,0.05 0,0.05 v 0.05 c 0,0 0,0.1 0,0.1 v 0.05 c 0,0.1 -0.01,0.21 -0.02,0.31 v 0 c 0,0 0,0.05 0,0.05 v 0.05 c 0,0 0,0 0,0 0,0.08 -0.01,0.17 -0.02,0.25 -0.07,0.68 -0.19,1.34 -0.36,1.98 v 0 0 c 0,0 0,0 0,0 -0.27,1.02 -0.68,2.03 -1.24,2.99 -0.19,0.33 -0.39,0.65 -0.61,0.95 l -0.03,0.04 -0.03,0.04 v 0 c -0.82,1.14 -1.83,2.14 -2.99,2.94 h -0.01 c 0,0 -0.15,0.11 -0.15,0.11 l -0.1,0.07 -0.04,0.03 -0.04,0.03 c -0.17,0.11 -0.35,0.22 -0.53,0.32 -0.75,0.43 -1.53,0.78 -2.32,1.04 l -0.05,0.02 h -0.05 c 0,0 -0.05,0.03 -0.05,0.03 l -0.1,0.03 -0.15,0.05 h -0.04 c 0,0 -0.05,0.02 -0.05,0.02 l -0.18,0.05 v 0 c 0,0 0,0 0,0 h -0.05 c 0,0 -0.14,0.05 -0.14,0.05 h -0.05 c 0,0 -0.05,0.02 -0.05,0.02 -0.07,0.02 -0.15,0.03 -0.22,0.05 h -0.02 c 0,0 -0.05,0.01 -0.05,0.01 h -0.05 c 0,0 -0.15,0.04 -0.15,0.04 h -0.05 c 0,0 -0.13,0.04 -0.13,0.04 l -0.1,0.02 c -0.07,0.01 -0.14,0.02 -0.21,0.04 l -0.11,0.02 -0.21,0.03 h -0.09 c -0.08,0.02 -0.15,0.03 -0.23,0.04 h -0.06 c -0.09,0.02 -0.18,0.02 -0.27,0.03 h -0.03 c 0,0 -0.03,0 -0.03,0 -0.09,0 -0.18,0.01 -0.27,0.02 h -0.04 c -0.1,0 -0.2,0 -0.29,0.01 v 0 c 0,0 0,0 0,0 -0.1,0 -0.21,0 -0.31,0 h -0.16 c 0,0 -0.04,0 -0.04,0 h -0.01 c 0,0 -0.15,0 -0.15,0 h -0.03 c 0,0 -0.03,0 -0.03,0 h -0.05 c 0,0 -0.05,0 -0.05,0 h -0.05 c 0,0 -0.01,0 -0.01,0 h -0.04 c 0,0 -0.1,0 -0.1,0 h -0.05 c 0,0 0,0 0,0 h -0.05 c 0,0 -0.1,-0.01 -0.1,-0.01 h -0.04 c 0,0 -0.01,0 -0.01,0 h -0.05 c 0,0 -0.05,0 -0.05,0 h -0.05 c 0,0 -0.05,-0.01 -0.05,-0.01 h -0.05 c 0,0 -0.05,0 -0.05,0 h -0.1 c 0,0 -0.05,-0.02 -0.05,-0.02 h -0.05 c 0,0 -0.1,-0.02 -0.1,-0.02 h -0.05 c 0,0 0,0 0,0 l -0.15,-0.02 h -0.05 c 0,0 -0.15,-0.03 -0.15,-0.03 h -0.05 c -0.4,-0.07 -0.79,-0.16 -1.17,-0.26 v 0 c -1.02,-0.28 -2.03,-0.69 -2.99,-1.24 -0.32,-0.18 -0.62,-0.38 -0.91,-0.58 l -0.04,-0.03 -0.03,-0.02 v 0 c 0,0 -0.04,-0.04 -0.04,-0.04 l -0.04,-0.03 h -0.02 c -1.07,-0.79 -2.01,-1.74 -2.78,-2.82 l -0.07,-0.1 v 0 c 0,0 -0.03,-0.05 -0.03,-0.05 l -0.03,-0.04 -0.03,-0.04 c -0.17,-0.25 -0.34,-0.52 -0.49,-0.79 -0.55,-0.95 -0.95,-1.93 -1.23,-2.94 v -0.05 c 0,0 -0.01,0 -0.01,0 v -0.05 c 0,0 -0.02,-0.05 -0.02,-0.05 v 0 c 0,0 -0.01,-0.05 -0.01,-0.05 v 0 c 0,0 -0.01,-0.05 -0.01,-0.05 v -0.05 c 0,0 -0.01,0 -0.01,0 v -0.05 c 0,0 -0.01,0 -0.01,0 v -0.05 c 0,0 -0.01,0 -0.01,0 v -0.05 c 0,0 -0.01,0 -0.01,0 v -0.05 c 0,0 -0.01,0 -0.01,0 v -0.05 c 0,0 -0.01,0 -0.01,0 v -0.05 c 0,0 -0.01,0 -0.01,0 v -0.05 c 0,0 -0.01,0 -0.01,0 v -0.05 c 0,0 -0.01,0 -0.01,0 v -0.05 c 0,0 0,0 0,0 v -0.05 c 0,0 -0.01,0 -0.01,0 v -0.05 c 0,0 -0.01,0 -0.01,0 v -0.05 c 0,0 0,0 0,0 v -0.05 c 0,0 -0.01,0 -0.01,0 v -0.05 c 0,0 -0.02,-0.05 -0.02,-0.05 v 0 c 0,0 0,-0.05 0,-0.05 v 0 c 0,0 0,-0.05 0,-0.05 v 0 -0.05 c 0,0 0,0 0,0 v -0.05 c 0,0 -0.02,-0.05 -0.02,-0.05 v 0 c 0,0 0,-0.05 0,-0.05 v -0.05 c 0,0 0,0 0,0 v -0.05 c 0,0 0,0 0,0 v -0.05 c 0,0 -0.01,-0.05 -0.01,-0.05 v 0 c 0,0 0,-0.05 0,-0.05 v -0.05 c 0,0 0,0 0,0 v -0.05 c 0,0 -0.01,-0.05 -0.01,-0.05 v 0 c 0,0 0,-0.05 0,-0.05 v -0.05 c 0,0 0,0 0,0 v -0.05 c 0,0 -0.01,-0.05 -0.01,-0.05 v 0 c 0,0 0,-0.05 0,-0.05 v 0 c 0,0 0,-0.05 0,-0.05 v -0.05 c 0,0 -0.01,-0.05 -0.01,-0.05 v 0 c 0,0 0,-0.05 0,-0.05 v 0 c 0,0 0,-0.05 0,-0.05 v -0.05 c 0,0 0,0 0,0 v -0.05 c 0,0 0,-0.05 0,-0.05 v 0 c 0,0 0,-0.05 0,-0.05 v 0 c 0,0 0,-0.05 0,-0.05 v 0 c 0,0 0,-0.05 0,-0.05 v -0.05 c 0,0 0,-0.05 0,-0.05 v -0.05 c 0,0 0,-0.05 0,-0.05 v -0.05 c 0,0 0,-0.05 0,-0.05 v -0.05 c 0,0 0,-0.05 0,-0.05 v -0.05 c 0,0 0,-0.05 0,-0.05 v 0 c 0,0 0,-0.05 0,-0.05 v -0.21 0 -0.16 c 0,0 0,-0.05 0,-0.05 v -0.05 c 0,0 0,-0.05 0,-0.05 v -0.05 c 0,0 0,-0.1 0,-0.1 v -0.05 c 0,-0.1 0.01,-0.21 0.02,-0.31 v -0.05 c 0,0 0,-0.05 0,-0.05 0,-0.09 0.01,-0.17 0.02,-0.26 0.07,-0.68 0.19,-1.34 0.36,-1.97 v 0 c 0.27,-1.03 0.69,-2.03 1.24,-2.99 0.18,-0.32 0.38,-0.62 0.58,-0.91 l 0.03,-0.04 0.03,-0.04 0.03,-0.04 v 0 c 0.82,-1.14 1.83,-2.14 2.98,-2.94 h 0.02 c 0,0 0.15,-0.11 0.15,-0.11 l 0.1,-0.07 0.04,-0.03 0.04,-0.03 c 0.17,-0.11 0.35,-0.22 0.53,-0.32 0.75,-0.43 1.53,-0.78 2.32,-1.04 h 0.05 c 0,0 0.05,-0.03 0.05,-0.03 l 0.05,-0.02 0.1,-0.03 0.15,-0.05 h 0.04 c 0,0 0.05,-0.02 0.05,-0.02 l 0.18,-0.05 v 0 c 0,0 0,0 0,0 h 0.05 c 0,0 0.14,-0.05 0.14,-0.05 h 0.05 c 0,0 0.05,-0.02 0.05,-0.02 0.08,-0.02 0.15,-0.04 0.22,-0.05 h 0.02 c 0,0 0.05,-0.01 0.05,-0.01 h 0.05 c 0,0 0.15,-0.04 0.15,-0.04 h 0.05 c 0,0 0.13,-0.04 0.13,-0.04 l 0.1,-0.02 c 0.07,-0.01 0.14,-0.02 0.21,-0.03 l 0.11,-0.02 0.21,-0.03 h 0.09 c 0.08,-0.02 0.15,-0.03 0.23,-0.04 h 0.06 c 0.09,-0.02 0.18,-0.02 0.27,-0.03 h 0.03 c 0,0 0.03,0 0.03,0 0.09,0 0.18,-0.01 0.27,-0.02 h 0.05 c 0.1,0 0.19,0 0.29,-0.01 h 0.01 c 0.1,0 0.21,0 0.31,0 h 0.15 c 0,0 0.04,0 0.04,0 h 0.01 c 0,0 0.15,0 0.15,0 h 0.03 c 0,0 0.03,0 0.03,0 h 0.05 c 0,0 0.05,0 0.05,0 h 0.05 c 0,0 0.01,0 0.01,0 h 0.04 c 0,0 0.1,0 0.1,0 h 0.05 c 0,0 0,0 0,0 h 0.05 c 0,0 0.1,0.01 0.1,0.01 h 0.04 c 0,0 0.01,0 0.01,0 h 0.05 c 0,0 0.05,0 0.05,0 h 0.05 c 0,0 0.05,0 0.05,0 h 0.05 c 0,0 0.05,0.01 0.05,0.01 h 0.1 c 0,0 0.05,0.02 0.05,0.02 h 0.05 c 0,0 0.1,0.02 0.1,0.02 h 0.05 c 0,0 0,0 0,0 l 0.15,0.02 h 0.05 c 0,0 0.15,0.03 0.15,0.03 h 0.05 c 0.4,0.07 0.79,0.16 1.17,0.26 v 0 c 0,0 0,0 0,0 v 0 c 1.02,0.28 2.03,0.69 2.99,1.24 0.24,0.14 0.47,0.28 0.7,0.44 l 0.04,0.03 0.04,0.03 0.04,0.03 0.04,0.03 v 0 c 0,0 0.03,0.03 0.03,0.03 l 0.04,0.03 0.03,0.02 v 0 c 1.11,0.8 2.09,1.77 2.88,2.88 l 0.07,0.1 v 0 c 0,0 0.03,0.05 0.03,0.05 l 0.03,0.04 0.03,0.04 c 0.17,0.25 0.34,0.52 0.49,0.79 0.55,0.95 0.95,1.94 1.23,2.94 v 0.05 c 0,0 0.01,0 0.01,0 v 0.05 c 0,0 0.02,0.05 0.02,0.05 v 0 c 0,0 0.01,0.05 0.01,0.05 v 0 c 0,0 0.01,0.05 0.01,0.05 v 0 0.05 c 0,0 0.01,0 0.01,0 v 0.05 c 0,0 0.01,0 0.01,0 v 0.05 c 0,0 0.01,0 0.01,0 v 0.05 c 0,0 0.02,0.05 0.02,0.05 v 0 c 0,0 0.01,0.05 0.01,0.05 v 0 c 0,0 0.01,0.05 0.01,0.05 v 0 c 0,0 0,0.05 0,0.05 l 0.02,0.1 v 0 c 0,0 0.01,0.05 0.01,0.05 l 0.02,0.1 v 0.05 c 0,0 0.02,0.05 0.02,0.05 v 0 c 0,0 0,0.05 0,0.05 v 0.05 0 0.05 c 0,0 0,0 0,0 v 0.05 c 0,0 0,0 0,0 v 0.05 c 0,0 0.01,0 0.01,0 v 0.05 c 0,0 0.01,0.05 0.01,0.05 v 0 c 0,0 0,0.05 0,0.05 v 0.05 c 0,0 0.02,0.05 0.02,0.05 v 0 c 0,0 0,0.05 0,0.05 v 0 c 0,0 0,0.05 0,0.05 v 0.05 c 0,0 0.01,0.05 0.01,0.05 v 0.05 c 0,0 0.01,0.05 0.01,0.05 v 0.05 c 0,0 0,0 0,0 v 0.05 c 0,0 0.01,0.05 0.01,0.05 v 0.05 c 0,0 0.01,0.05 0.01,0.05 v 0.05 c 0,0 0,0.05 0,0.05 v 0.05 c 0,0 0,0 0,0 v 0.05 c 0,0 0,0.05 0,0.05 v 0.05 c 0,0 0,0.05 0,0.05 v 0.05 c 0,0 0,0 0,0 v 0.05 c 0,0 0,0 0,0 v 0.05 c 0,0 0,0.05 0,0.05 v 0.05 c 0,0 0,0.05 0,0.05 v 0.05 c 0,0 0,0.05 0,0.05 v 0.05 c 0,0 0,0.05 0,0.05 v 0.05 c 0,0 0,0.05 0,0.05 v 0 c 0,0 0,0.05 0,0.05 v 0 c 0,0 0,0.05 0,0.05 v 0.05 0 0.1 c 0,0 0,0.05 0,0.05 z"
       id="path19" />
    <g
       id="g22">
      <g
         id="g21">
        <path
           class="cls-7"
           d="m 94.97,215.79 h 74.54 c 2.97,0 5.38,2.74 5.38,6.15 0,3.41 -2.41,6.15 -5.38,6.15 H 94.97 c -2.96,0 -5.35,-2.77 -5.35,-6.15 0,-3.38 2.39,-6.15 5.35,-6.15 z"
           id="path20" />
        <path
           class="cls-7"
           d="m 94.97,232.97 h 74.54 c 2.97,0 5.38,2.78 5.38,6.15 0,3.37 -2.41,6.17 -5.38,6.17 h -7.97 l -8.02,16.33 c 0,0 -3.88,5.26 -5.88,5.83 -1.98,0.58 -24.93,3.13 -32.03,0 0,0 -3.47,-0.99 -6.18,-6.24 -2.09,-4.01 -6.49,-12.22 -8.48,-15.92 h -5.98 c -2.96,0 -5.35,-2.76 -5.35,-6.17 0,-3.41 2.39,-6.15 5.35,-6.15 z"
           id="path21" />
      </g>
      <path
         class="cls-7"
         d="m 169.51,198.6 h -1.45 c -1.21,0.67 -2.48,1.29 -3.78,1.8 l -3.44,1.36 -3.65,0.55 c -1.58,0.24 -3.2,0.36 -4.8,0.36 -1.4,0 -2.8,-0.11 -4.18,-0.29 -4.06,-0.67 -6.88,-1.66 -7.82,-2.02 -0.68,-0.27 -1.35,-0.57 -2.01,-0.89 -0.07,-0.02 -0.15,-0.05 -0.27,-0.13 -1.01,-0.61 -1.83,-0.72 -2.19,-0.73 h -4.11 c -1.08,0 -2.02,0.58 -2.02,0.58 v 0 c -4.47,2.31 -9.41,3.58 -14.4,3.58 -4.43,0 -8.78,-0.98 -12.81,-2.8 -0.08,-0.02 -0.17,-0.05 -0.31,-0.12 -0.16,-0.08 -0.32,-0.16 -0.48,-0.23 -0.05,-0.02 -0.1,-0.05 -0.15,-0.07 -1.59,-0.71 -3.11,-0.93 -3.11,-0.93 h -3.56 c -2.96,0 -5.35,2.76 -5.35,6.16 0,3.4 2.39,6.15 5.35,6.15 h 74.54 c 2.97,0 5.38,-2.74 5.38,-6.15 0,-3.41 -2.41,-6.16 -5.38,-6.16 z"
         id="path22" />
    </g>
  </g>
</svg>
