<?xml version="1.0" encoding="UTF-8" standalone="no"?>
<svg
   version="1.1"
   viewBox="0 0 282.05097 56.705405"
   id="svg37"
   sodipodi:docname="no-image.svg"
   inkscape:version="1.4 (e7c3feb100, 2024-10-09)"
   xml:space="preserve"
   width="282.05096"
   height="56.705406"
   xmlns:inkscape="http://www.inkscape.org/namespaces/inkscape"
   xmlns:sodipodi="http://sodipodi.sourceforge.net/DTD/sodipodi-0.dtd"
   xmlns="http://www.w3.org/2000/svg"
   xmlns:svg="http://www.w3.org/2000/svg"><sodipodi:namedview
     id="namedview37"
     pagecolor="#ffffff"
     bordercolor="#000000"
     borderopacity="0.25"
     inkscape:showpageshadow="2"
     inkscape:pageopacity="0.0"
     inkscape:pagecheckerboard="0"
     inkscape:deskcolor="#d1d1d1"
     inkscape:zoom="5.530671"
     inkscape:cx="130.36393"
     inkscape:cy="13.199122"
     inkscape:window-width="3840"
     inkscape:window-height="2091"
     inkscape:window-x="0"
     inkscape:window-y="0"
     inkscape:window-maximized="1"
     inkscape:current-layer="Layer_1-2" /><defs
     id="defs1"><style
       id="style1">
      .cls-1 {
        fill: #f3ad61;
      }

      .cls-2 {
        fill: #848484;
      }

      .cls-3 {
        fill: #fff;
      }

      .cls-4 {
        fill: #44911b;
      }

      .cls-5 {
        fill: #402a32;
      }

      .cls-6 {
        fill: #f3c07b;
      }

      .cls-7 {
        fill: #ff822d;
      }

      .cls-8 {
        isolation: isolate;
      }

      .cls-9 {
        fill: #ffb02e;
      }

      .cls-10 {
        fill: #7d4533;
      }

      .cls-11 {
        fill: #86d72f;
      }
    </style><style
       id="style1-9">
      .cls-1 {
        fill: #292929;
      }

      .cls-1, .cls-2, .cls-3, .cls-4, .cls-5, .cls-6, .cls-7, .cls-8, .cls-9 {
        stroke-width: 0px;
      }

      .cls-2 {
        fill: #01bafb;
      }

      .cls-2, .cls-3, .cls-4, .cls-10, .cls-5, .cls-8, .cls-9 {
        fill-rule: evenodd;
      }

      .cls-3, .cls-7 {
        fill: #1672f1;
      }

      .cls-4 {
        fill: #1758d9;
      }

      .cls-10 {
        stroke: #044d89;
        stroke-miterlimit: 10;
        stroke-width: .25px;
      }

      .cls-10, .cls-6 {
        fill: #f9f7f2;
      }

      .cls-5 {
        fill: #fff;
        opacity: .34;
      }

      .cls-8 {
        fill: #70c5fe;
      }

      .cls-9 {
        fill: #1992fc;
      }
    </style></defs><!-- Generator: Adobe Illustrator 28.7.2, SVG Export Plug-In . SVG Version: 1.2.0 Build 154)  --><g
     id="g37"
     transform="translate(-3.2717168,-9.242852)"><g
       id="Layer_1"><g
         id="Layer_1-2"
         data-name="Layer_1"><path
           class="cls-9"
           d="m 275.84292,61.14601 c 6.29727,0 9.47976,-4.265889 9.47976,-9.479753 0,-5.213864 -3.18249,-9.479753 -9.47976,-9.479753 -6.29726,0 -9.47975,4.265889 -9.47975,9.479753 0,5.213864 3.18249,9.479753 9.47975,9.479753 z"
           id="path30"
           style="fill:#ffb02e" /><path
           class="cls-3"
           d="m 275.1658,50.650569 c 0,1.692813 -1.35425,3.047064 -3.04707,3.047064 -1.69281,0 -3.04706,-1.354251 -3.04706,-3.047064 0,-1.692813 1.35425,-3.047063 3.04706,-3.047063 1.69282,0 3.04707,1.35425 3.04707,3.047063 z"
           id="path31"
           style="fill:#ffffff" /><path
           class="cls-3"
           d="m 276.52005,50.650569 c 0,1.692813 1.35425,3.047064 3.04706,3.047064 1.69281,0 3.04706,-1.354251 3.04706,-3.047064 0,-1.692813 -1.35425,-3.047063 -3.04706,-3.047063 -1.69281,0 -3.04706,1.35425 -3.04706,3.047063 z"
           id="path32"
           style="fill:#ffffff" /><path
           class="cls-5"
           d="m 274.74839,51.42199 c 0,0.744838 -0.60941,1.354251 -1.35425,1.354251 -0.74484,0 -1.35425,-0.609413 -1.35425,-1.354251 0,-0.744837 0.60941,-1.35425 1.35425,-1.35425 0.74484,0 1.35425,0.609413 1.35425,1.35425 z"
           id="path33"
           style="opacity:1;fill:#000000;stroke:#000000" /><path
           class="cls-5"
           d="m 277.88975,49.690556 c 0,0.744838 0.60941,1.35425 1.35425,1.35425 0.74484,0 1.35425,-0.609412 1.35425,-1.35425 0,-0.744838 -0.60941,-1.35425 -1.35425,-1.35425 -0.74484,0 -1.35425,0.609412 -1.35425,1.35425 z"
           id="path34"
           style="opacity:1;fill:#000000;stroke:#000000" /><path
           class="cls-7"
           d="M 276.58776,52.681945 C 276.2492,52.343382 275.7075,52.27567 275.30122,52.54652 l -2.36994,1.89595 0.20314,-0.677125 c 0.13543,-0.473987 -0.13542,-0.947975 -0.67712,-1.0834 -0.47399,-0.135425 -1.01569,0.135425 -1.15112,0.609413 l -0.5417,1.963663 -0.67712,1.557388 v 0 c -0.27085,0.5417 -0.40628,1.015687 -0.40628,1.557388 0,1.760525 1.42197,3.182488 3.2502,3.182488 1.82824,0 1.48968,-0.27085 2.03138,-0.744838 l 3.58876,-2.573075 c 0.40628,-0.270851 0.47399,-0.880263 0.20314,-1.286538 -0.13542,-0.203138 -0.33856,-0.27085 -0.5417,-0.338563 l 0.33856,-0.27085 c 0.40628,-0.338563 0.47399,-0.880263 0.13543,-1.286538 -0.13543,-0.135425 -0.33856,-0.27085 -0.5417,-0.338563 h 0.13542 c 0.40628,-0.406275 0.47399,-1.015687 0.13543,-1.35425 -0.33856,-0.406275 -0.94798,-0.406275 -1.35425,-0.135425 l -0.40628,0.338563 c 0.20314,-0.338563 0.20314,-0.744838 -0.0677,-1.015688 z"
           id="path35"
           style="fill:#ff822d" /><path
           class="cls-5"
           d="m 272.32187,45.57213 c 0.27085,0 0.47399,-0.27085 0.47399,-0.5417 0,-0.27085 -0.27085,-0.473988 -0.5417,-0.473988 -2.09909,0.06771 -3.18249,1.828238 -3.18249,3.182489 0,1.35425 0.20314,0.5417 0.5417,0.5417 0.33856,0 0.5417,-0.203138 0.5417,-0.5417 0,-0.947975 0.81255,-2.166801 2.23451,-2.234513 v 0 z"
           id="path36"
           style="opacity:1;fill:#000000;stroke:#000000" /><path
           class="cls-5"
           d="m 279.70254,45.57213 c -0.27085,0 -0.47399,-0.27085 -0.47399,-0.5417 0,-0.27085 0.27085,-0.473988 0.5417,-0.473988 2.09909,0.06771 3.18249,1.828238 3.18249,3.182489 0,1.35425 -0.20314,0.5417 -0.5417,0.5417 -0.33857,0 -0.5417,-0.203138 -0.5417,-0.5417 0,-0.947975 -0.81255,-2.166801 -2.23452,-2.234513 v 0 z"
           id="path37"
           style="opacity:1;fill:#000000;stroke:#000000" /><g
           class="cls-1"
           id="g2"
           transform="matrix(0.67947243,0,0,0.67947243,-21.137273,-17.207287)"
           style="opacity:0.3" /><g
           id="g38"
           transform="matrix(0.26833856,0,0,0.26833856,5.7273109,11.061503)"><path
             class="cls-2"
             d="m 134.73,302.45 c 1.92,1.45 5.94,3.31 15.8,5.21 l 1.49,0.29 c 22,4 60.41,6.43 102.64,6.43 17.18,0 33.76,-0.39 49.29,-1.17 l 7.8,-0.43 c 3.35,-0.21 6.68,-0.43 9.89,-0.67 8,-0.6 15.28,-1.3 21.76,-2.1 5.21,-0.63 9.89,-1.33 13.9,-2.06 l 1.5,-0.29 c 7,-1.34 11.75,-2.79 14.58,-4.42 0,0 4.07957,-4.91319 3.71408,-6.20939 C 376.7286,295.7344 137.77,115.94 137.77,115.94 c -0.15425,-1.48223 -0.6919,-2.89872 -1.56,-4.11 -0.50054,-0.68562 -1.10438,-1.28946 -1.79,-1.79 L 120.62,96.8 c -1.24,-1.57 -3.65,-3.33 -8.24,-3.33 -1.10149,0.0075 -2.20101,0.09439 -3.29,0.26 L 106,89.45 c 0.52954,-0.821979 0.871,-1.750764 1,-2.72 0.16442,-1.280679 -0.0403,-2.581681 -0.59,-3.75 0.40575,-0.951772 0.64262,-1.966942 0.7,-3 0.18,-2.78 -0.32,-16.74 -1.53,-29.21 -0.24724,-2.967747 -0.92083,-5.884384 -2,-8.66 L 103.52,42 C 100.07532,34.845216 94.228932,29.126235 87,25.84 v 0 c -2.044087,-0.985665 -4.172656,-1.785552 -6.36,-2.39 -2.099577,-0.48747 -4.063955,-1.437204 -5.75,-2.78 l -1.25,-2.33 -0.1,-0.15 c -0.92,-1.29 -2.87,-2.84 -7,-2.84 -0.560995,-0.0019 -1.121722,0.02482 -1.68,0.08 h -0.12 l -11.28,2 c -1.742015,-1.253978 -3.855673,-1.884552 -6,-1.79 -4.87,0 -11.18,2.47 -16.89,6.61 C 26.483999,25.085367 23.039547,28.747866 20.46,33 18,37.37 17.7,41.35 19.69,44.2 l 4.33,7 c -1.323642,1.264872 -2.476696,2.696945 -3.43,4.26 -3.08,5 -3.75,9.39 -2,13 1.455037,2.662456 3.902493,4.642702 6.81,5.51 -0.75169,2.775437 -0.359057,5.73639 1.09,8.22 2.08,3.43 5.82,4.85 8.27,5.43 1.684649,6.660657 6.759942,11.937442 13.35,13.88 2.91,7.71 7.47,9.4 10.88,9.4 0.671434,-0.004 1.341,-0.0713 2,-0.2 l 7.6,12.23 c -3.14,6.08 -2.26,9.89 -0.78,12.11 l 8.29,17.19 c 0.263178,0.81177 0.651159,1.57761 1.15,2.27 1.219002,1.62744 2.953177,2.79413 4.92,3.31 18.32189,47.87923 36.87696,101.01917 52.56,144.64 z"
             id="path1"
             style="opacity:0.3;fill:#f8f03b;fill-opacity:0.580392;stroke:#eeeecb;stroke-opacity:0.580392"
             sodipodi:nodetypes="cccsccccccczcccccccccccccssccccccccccccccccccccccccccc"
             transform="matrix(0.67947243,0,0,0.67947243,-21.137273,-17.207287)" /><path
             class="cls-3"
             d="m 237.67844,189.87339 c 0.10872,-0.64549 -0.63191,-1.35894 -0.63191,-1.35894 L 73.483925,66.059929 40.305288,91.200409 74.788505,189.24148 a 3.0168576,3.0168576 0 0 0 0.67948,0.7814 v 0 c 0,4.98053 36.317805,9.0166 81.115425,9.0166 44.79761,0 81.12221,-4.03607 81.12221,-9.0166 a 0.76780385,0.76780385 0 0 0 -0.0272,-0.14949 z"
             id="path2"
             style="opacity:0.6;fill:#f9ee3a;fill-opacity:0.172549;stroke-width:0.679472" /><path
             class="cls-4"
             d="m 46.218828,66.15719 c -10.13773,7.34509 -16.05593,16.51797 -13.20215,20.41814 2.85379,3.90017 13.37881,1.1619 23.51654,-6.1832 10.13773,-7.34509 16.04914,-16.484 13.20215,-20.38417 -2.84699,-3.90017 -13.37881,-1.19587 -23.51654,6.14923 z"
             id="path3"
             style="fill:#1c7bff;stroke-width:0.679472" /><polygon
             class="cls-4"
             points="118.38,98.8 133.74,113.59 79.7,152.74 70.43,133.53 "
             id="polygon3"
             transform="matrix(0.67947243,0,0,0.67947243,-21.137273,-17.207287)"
             style="fill:#1c7bff" /><ellipse
             class="cls-5"
             cx="-1.2279513"
             cy="75.209114"
             rx="20.154577"
             ry="7.8167071"
             transform="rotate(-36.06941)"
             id="ellipse3"
             style="opacity:1;fill:#0256aa;stroke-width:0.680899" /><path
             class="cls-4"
             d="m 37.691448,54.06258 c -6.79472,4.91258 -10.92592,10.78322 -9.24082,13.11381 1.68509,2.33059 8.55455,0.22423 15.34248,-4.69515 6.78793,-4.91938 10.92592,-10.78323 9.24083,-13.11382 -1.68509,-2.33059 -8.55456,-0.22422 -15.34249,4.69516 z"
             id="path4"
             style="fill:#1c7bff;stroke-width:0.679472" /><polygon
             class="cls-4"
             points="52.44,20.63 108.32,97.78 72.54,123.57 22.19,42.54 "
             id="polygon4"
             transform="matrix(0.67947243,0,0,0.67947243,-21.137273,-17.207287)"
             style="fill:#1c7bff" /><ellipse
             class="cls-5"
             cx="0.92122453"
             cy="5.9197712"
             rx="12.692545"
             ry="5.8094893"
             transform="rotate(-35.92)"
             id="ellipse4"
             style="opacity:1;fill:#0256aa;stroke-width:0.679472" /><polygon
             class="cls-6"
             points="64.16,19.45 64.43,20.03 64.17,19.46 "
             id="polygon5"
             transform="matrix(0.67947243,0,0,0.67947243,-21.137273,-17.207287)"
             style="fill:#ea8e75" /><path
             class="cls-7"
             d="m 31.385948,40.45954 c 0,0 -3.9953,11.18411 -7.92265,13.93598 -3.92735,2.75186 -8.112902,2.76545 -10.348366,-4.33504 0,0 -7.773165,-1.29779 -8.8875,-9.51261 0,0 -8.97583,-0.67947 -5.483342,-8.96904 0,0 -9.668893,-1.026 -4.151577,-10.02221 5.517316,-8.99622 16.361696,-4.07684 17.095527,-1.43369 0,0 7.732398,1.24343 6.944208,8.09252 0,0 7.31792,0 7.88188,6.60447 0.29897,0.034 -3.64197,7.32471 4.87182,5.63962 z"
             id="path5"
             style="fill:#f7b293;stroke-width:0.679472" /><path
             class="cls-8"
             d="m 11.239588,20.4219 c 0,0 7.71201,1.24343 6.94421,8.09251 0,0 7.31792,0 7.88188,6.60447 0.29897,0.0612 -3.64197,7.3519 4.87182,5.6668 0,0 -3.83223,10.73567 -7.69163,13.75253 l 0.21743,-0.14269 c 3.92735,-2.71789 7.92265,-13.93598 7.92265,-13.93598 -8.51379,1.68509 -4.57285,-5.60565 -4.87182,-5.6668 -0.56396,-6.59768 -7.88188,-6.60447 -7.88188,-6.60447 C 19.420438,21.33918 11.68804,20.09575 11.68804,20.09575 11.062925,17.8399 3.113098,13.9805 -2.642034,18.38348 3.072329,14.46972 10.628063,18.22041 11.239588,20.4219 Z"
             id="path6"
             style="fill:#d5a28d;stroke-width:0.679472" /><path
             class="cls-8"
             d="m 10.057306,22.75928 c 2.636353,-1.89573 3.784661,-2.03842 3.784661,-2.03842 l -0.828956,-0.11551 0.183457,-0.1291 -1.508428,-0.40768 c -1.420098,1.94329 -11.23168,9.03019 -11.23168,9.03019 -0.169868,0.58435 0.278584,0.3873 0.278584,0.3873 C 1.693,28.7862 6.721096,25.185 10.057306,22.75928 Z"
             id="path7"
             style="fill:#d5a28d;stroke-width:0.679472" /><path
             class="cls-8"
             d="m 18.632248,28.18827 0.0544,-0.97844 c 0,0 -2.493666,3.02365 -11.551034,9.25441 0,0 -0.05436,0.33974 0.2582,0.35333 0,0 9.933887,-7.19562 12.678954,-8.47303 z"
             id="path8"
             style="fill:#d5a28d;stroke-width:0.679472" /><path
             class="cls-9"
             d="M 33.811658,25.59948 15.9891,1.6073 C 15.730901,1.24718 15.554238,1.553 15.554238,1.553 a 19.065996,19.065996 0 0 1 -1.916112,3.23429 v 0 a 0.78818802,0.78818802 0 0 0 0.06115,0.67947 l 14.547502,21.87901 v 0 l 0.22423,0.33294 a 0.9240825,0.9240825 0 0 0 1.04639,0.16308 v 0 a 9.0098044,9.0098044 0 0 1 3.92735,-1.1619 v 0 c 0.71344,-0.0815 0.45525,-0.84255 0.36691,-1.08036 z"
             id="path9"
             style="fill:#6fb3f7;stroke-width:0.679472" /><path
             class="cls-8"
             d="m 31.385948,40.45954 c 0,0 -4.68157,0.97844 -5.27271,-1.4201 a 6.9442082,6.9442082 0 0 1 0.46884,-4.44375 12.767287,12.767287 0 0 0 -1.12793,-3.05083 7.0257449,7.0257449 0 0 1 -0.21743,0.84934 v 0 c 0.15628,0.67947 0.0747,1.86175 -1.12792,3.69633 v 0 a 31.717773,31.717773 0 0 1 -3.01686,4.45734 v 0 a 51.74862,51.74862 0 0 1 -4.423365,5.43578 c 0,0 -0.07474,0.46204 0.380504,0.27179 0,0 6.971391,-7.82073 8.608911,-10.23965 0,0 -3.07801,5.75513 4.58644,5.30668 0,0 -3.10519,8.87391 -5.48334,11.85 a 43.683283,43.683283 0 0 0 6.62486,-12.71293 z"
             id="path10"
             style="fill:#d5a28d;stroke-width:0.679472" /><path
             class="cls-8"
             d="m 24.434938,31.11 a 3.0848048,3.0848048 0 0 1 0.72025,2.8266 c -0.46884,1.59676 1.01241,0 1.01241,0 l -1.06677,-2.43251 z"
             id="path11"
             style="fill:#d5a28d;stroke-width:0.679472" /><path
             class="cls-10"
             d="m 49.147358,37.00782 c 0.18345,-0.49602 -0.1359,-11.02104 -1.09395,-20.15995 -0.95806,-9.1389 -8.3711,-14.35046 -14.95519,-16.15106 a 11.238474,11.238474 0 0 1 -5.00771,-2.58879 l -0.95127,-1.77342 c -0.30576,-0.43486 -1.26381,-1.27061 -4.02927,-1.026 v 0 l -8.615707,1.50163 20.132767,27.75645 a 32.009946,32.009946 0 0 0 0.67947,3.24108 10.830791,10.830791 0 0 0 -4.7563,0.33974 c 0,0 -3.53326,1.52881 -4.76311,7.64406 -1.22984,6.11525 1.78022,4.47773 5.59886,4.6408 v 0 l 12.2305,0.52999 c 3.77107,0.41448 5.34745,-3.45852 5.53091,-3.95453 z"
             id="path13"
             style="fill:#f8b297;stroke-width:0.679472" /><path
             class="cls-9"
             d="m 51.810888,52.24159 c 0.55037,-1.05318 0.36012,-1.46766 0.30576,-1.55599 l -0.30576,-0.40769 v 0 l -5.04848,-7.01215 c -0.57755,-0.80857 -1.01921,-1.00562 -1.27061,-1.0328 h -0.22423 v 0 a 29.604614,29.604614 0 0 1 -5.80949,0 v 0 c 0,0 -0.9037,-0.0883 -0.0883,1.07357 v 0 l 9.20685,13.06625 a 0.25819952,0.25819952 0 0 0 0.31256,0.0408 14.472763,14.472763 0 0 0 2.92173,-4.17196 z"
             id="path14"
             style="fill:#6fb3f7;stroke-width:0.679472" /><path
             class="cls-9"
             d="m 68.838468,61.41447 a 1.5899655,1.5899655 0 0 0 -0.42807,-1.12793 v 0 0 l -6.83549,-6.63165 c 0,0 -0.5164,-0.52999 -0.67948,0.19705 0,0.0476 0,0.0815 0,0.11551 a 18.72626,18.72626 0 0 1 -3.62838,6.68601 v 0 c 0,0 -0.27179,0.33974 0.15628,0.93767 l 6.20358,8.57494 c 0.57076,0.78819 1.02601,0.67948 1.26382,0.49602 3.56723,-3.79146 3.95453,-7.65766 3.94774,-9.24762 z"
             id="path15"
             style="fill:#6fb3f7;stroke-width:0.679472" /><path
             class="cls-8"
             d="m 48.848388,39.28405 a 4.3214447,4.3214447 0 0 0 0.80178,-2.22867 c 0.1223,-1.52202 -0.18346,-10.87156 -1.02601,-19.53483 A 19.09997,19.09997 0 0 0 47.428288,12.22066 21.111208,21.111208 0 0 0 37.107108,2.20524 c 0,0 7.47419,3.96812 10.14452,10.9463 a 16.939248,16.939248 0 0 1 0.80178,3.64877 c 0.95805,9.1389 1.2774,19.65714 1.09395,20.15995 -0.18346,0.5028 -1.75984,4.369 -5.50373,3.97491 -3.74389,-0.3941 -15.55312,-0.59114 -15.55312,-0.59114 0,0 -4.52529,0.53678 -0.62512,-7.92945 0,0.22423 1.70548,-5.32706 8.19444,-4.28747 0.23102,0.0408 0.2582,-0.13589 0.2582,-0.13589 -1.35895,-6.08128 0.29217,-14.99596 0.21743,-15.17262 0,0 0,-0.0476 0,-0.0679 -0.0408,-0.1291 -0.28538,-0.23781 -0.28538,-0.23781 l -0.5096,-0.23782 c -1.84137,8.15367 -0.61153,13.58945 -0.14269,15.15903 v 0 c -4.03607,-0.17666 -5.61924,1.22985 -5.61924,1.22985 a 7.3790706,7.3790706 0 0 0 -2.89455,3.78466 c -4.1244,8.95544 0.67947,8.38469 0.67947,8.38469 l 2.56161,0.0476 0.33974,0.46884 14.39122,0.3805 a 5.5105214,5.5105214 0 0 0 4.19235,-2.4461 z"
             id="path16"
             style="fill:#d5a28d;stroke-width:0.679472" /><ellipse
             class="cls-11"
             cx="151.93115"
             cy="185.35023"
             rx="81.115417"
             ry="9.0165997"
             id="ellipse16"
             style="opacity:0.2;fill:#f9f7f2;stroke-width:0.679472" /></g><text
           xml:space="preserve"
           style="font-style:normal;font-variant:normal;font-weight:bold;font-stretch:condensed;font-size:26.0981px;font-family:'Barlow Condensed';-inkscape-font-specification:'Barlow Condensed,  Bold Condensed';text-align:start;writing-mode:lr-tb;direction:ltr;text-anchor:start;fill:#848484;fill-opacity:1;stroke:none;stroke-width:2.17485;stroke-opacity:1"
           x="23.585585"
           y="60.545952"
           id="text37"><tspan
             sodipodi:role="line"
             id="tspan37"
             x="23.585585"
             y="60.545952"
             style="font-style:normal;font-variant:normal;font-weight:bold;font-stretch:condensed;font-family:'Barlow Condensed';-inkscape-font-specification:'Barlow Condensed,  Bold Condensed';stroke:none;stroke-width:2.17485">Logik unsger.e.... Zee....?</tspan></text></g></g></g></svg>
